0
SECTION
2
HEADER
9
$INSUNITS
70
4
9
$ACADVER
1
AC1014
9
$HANDSEED
5
FFFF
0
ENDSEC
0
SECTION
2
TABLES
0
TABLE
2
VPORT
5
8
100
AcDbSymbolTable
0
ENDTAB
0
TABLE
2
LTYPE
5
5
100
AcDbSymbolTable
0
LTYPE
5
14
100
AcDbSymbolTableRecord
100
AcDbLinetypeTableRecord
2
BYBLOCK
70
0
0
LTYPE
5
15
100
AcDbSymbolTableRecord
100
AcDbLinetypeTableRecord
2
BYLAYER
70
0
0
ENDTAB
0
TABLE
2
LAYER
5
2
100
AcDbSymbolTable
70
2
0
LAYER
5
50
100
AcDbSymbolTableRecord
100
AcDbLayerTableRecord
2
0
70
0
6
CONTINUOUS
0
ENDTAB
0
TABLE
2
STYLE
5
3
100
AcDbSymbolTable
70
1
0
STYLE
5
11
100
AcDbSymbolTableRecord
100
AcDbTextStyleTableRecord
2
STANDARD
70
0
0
ENDTAB
0
TABLE
2
VIEW
5
6
100
AcDbSymbolTable
70
0
0
ENDTAB
0
TABLE
2
UCS
5
7
100
AcDbSymbolTable
70
0
0
ENDTAB
0
TABLE
2
APPID
5
9
100
AcDbSymbolTable
70
2
0
APPID
5
12
100
AcDbSymbolTableRecord
100
AcDbRegAppTableRecord
2
ACAD
70
0
0
ENDTAB
0
TABLE
2
DIMSTYLE
5
A
100
AcDbSymbolTable
70
1
0
ENDTAB
0
TABLE
2
BLOCK_RECORD
5
1
100
AcDbSymbolTable
70
1
0
BLOCK_RECORD
5
1F
100
AcDbSymbolTableRecord
100
AcDbBlockTableRecord
2
*MODEL_SPACE
0
BLOCK_RECORD
5
1B
100
AcDbSymbolTableRecord
100
AcDbBlockTableRecord
2
*PAPER_SPACE
0
ENDTAB
0
ENDSEC
0
SECTION
2
BLOCKS
0
BLOCK
5
20
100
AcDbEntity
100
AcDbBlockBegin
2
*MODEL_SPACE
0
ENDBLK
5
21
100
AcDbEntity
100
AcDbBlockEnd
0
BLOCK
5
1C
100
AcDbEntity
100
AcDbBlockBegin
2
*PAPER_SPACE
0
ENDBLK
5
1D
100
AcDbEntity
100
AcDbBlockEnd
0
ENDSEC
0
SECTION
2
ENTITIES
0
LWPOLYLINE
5
100
100
AcDbEntity
8
0
100
AcDbPolyline
90
4
70
1
43
0.0
10
15.375000000000163
20
-54.499999999999964
10
15.375000000000163
20
-79.499999999999972
10
23.375000000000163
20
-79.499999999999972
10
23.375000000000163
20
-54.499999999999964
0
CIRCLE
5
101
100
AcDbEntity
8
0
100
AcDbCircle
10
9.0000000000000053
20
-111
30
0
40
1.0500000000000009
210
0
220
0
230
1
0
CIRCLE
5
102
100
AcDbEntity
8
0
100
AcDbCircle
10
63.437500000001599
20
-57.499999999999922
30
0
40
1.0500000000000043
210
0
220
0
230
1
0
CIRCLE
5
103
100
AcDbEntity
8
0
100
AcDbCircle
10
191.47500000000107
20
-126.66054356117792
30
0
40
1.0500000000000043
210
0
220
0
230
1
0
CIRCLE
5
104
100
AcDbEntity
8
0
100
AcDbCircle
10
9.0000000000000053
20
-9
30
0
40
1.0500000000000009
210
0
220
0
230
1
0
CIRCLE
5
105
100
AcDbEntity
8
0
100
AcDbCircle
10
191.47500000000105
20
-9
30
0
40
1.0500000000000043
210
0
220
0
230
1
0
LWPOLYLINE
5
106
100
AcDbEntity
8
0
100
AcDbPolyline
90
4
70
1
43
0.0
10
62.100000000000236
20
-88.499999999999957
10
48.100000000000264
20
-88.5
10
48.100000000000264
20
-102.49999999999999
10
62.100000000000236
20
-102.49999999999999
0
LWPOLYLINE
5
107
100
AcDbEntity
8
0
100
AcDbPolyline
90
4
70
1
43
0.0
10
170.80733659596575
20
-104.51228295333615
10
166.01905458940521
20
-117.66797964433846
10
179.17475128040758
20
-122.45626165089897
10
183.96303328696831
20
-109.30056495989673
0
LWPOLYLINE
5
108
100
AcDbEntity
8
0
100
AcDbPolyline
90
4
70
1
43
0.0
10
135.97500000000025
20
-69.5
10
135.97500000000025
20
-83.500000000000014
10
149.97500000000016
20
-83.499999999999972
10
149.97500000000025
20
-69.5
0
LWPOLYLINE
5
109
100
AcDbEntity
8
0
100
AcDbPolyline
90
36
70
1
43
0.0
10
48.125000000000107
20
-70.529999999998978
10
46.511999999999276
20
-70.529999999999006
10
46.511999999999261
20
-69.729999999998938
10
44.686999999999124
20
-69.729999999998981
10
44.686999999999088
20
-68.529999999998921
10
41.686999999999088
20
-68.529999999998964
10
41.686999999999117
20
-69.729999999998981
10
39.861999999998694
20
-69.729999999999009
10
39.861999999998837
20
-75.999999999999545
10
38.986999999999092
20
-75.999999999999531
10
38.986999999999156
20
-78.799999999999585
10
39.861999999998815
20
-78.799999999999557
10
39.861999999998879
20
-82.029999999999021
10
46.511999999999261
20
-82.029999999998893
10
46.511999999999247
20
-81.229999999998853
10
48.125000000000149
20
-81.229999999998796
10
48.125000000000057
20
-83.499999999999545
10
62.124999999999851
20
-83.499999999999574
10
62.124999999999758
20
-81.229999999998796
10
63.738000000000653
20
-81.229999999998839
10
63.738000000000632
20
-82.029999999998893
10
70.388000000001028
20
-82.029999999999035
10
70.388000000001099
20
-78.799999999999585
10
71.263000000000773
20
-78.799999999999557
10
71.263000000000844
20
-75.999999999999545
10
70.388000000001099
20
-75.999999999999574
10
70.388000000001227
20
-69.729999999999023
10
68.563000000000812
20
-69.729999999998995
10
68.563000000000841
20
-68.529999999998978
10
65.563000000000841
20
-68.529999999998935
10
65.563000000000798
20
-69.729999999998995
10
63.738000000000653
20
-69.729999999998938
10
63.738000000000653
20
-70.529999999999035
10
62.124999999999829
20
-70.529999999998992
10
62.124999999999851
20
-69.5
10
48.125000000000071
20
-69.499999999999972
0
LWPOLYLINE
5
110
100
AcDbEntity
8
0
100
AcDbPolyline
90
4
70
1
43
0.0
10
121.5000000000032
20
-50.499999999999794
10
107.50000000000324
20
-50.499999999999794
10
107.5000000000033
20
-64.499999999999801
10
121.50000000000334
20
-64.499999999999801
0
LWPOLYLINE
5
111
100
AcDbEntity
8
0
100
AcDbPolyline
90
4
70
1
43
0.0
10
173.74999999999986
20
-45.500000000000007
10
173.74999999999986
20
-31.499999999999957
10
159.74999999999989
20
-31.499999999999979
10
159.74999999999989
20
-45.499999999999986
0
LWPOLYLINE
5
112
100
AcDbEntity
8
0
100
AcDbPolyline
90
4
70
1
43
0.0
10
83.749999999999858
20
-45.499999999999986
10
97.749999999999858
20
-45.500000000000007
10
97.749999999999858
20
-31.499999999999957
10
83.749999999999858
20
-31.499999999999979
0
LWPOLYLINE
5
113
100
AcDbEntity
8
0
100
AcDbPolyline
90
4
70
1
43
0.0
10
69.249999999999986
20
-12.5
10
55.25
20
-12.5
10
55.250000000000071
20
-26.500000000000004
10
69.249999999999915
20
-26.499999999999968
0
LWPOLYLINE
5
114
100
AcDbEntity
8
0
100
AcDbPolyline
90
4
70
1
43
0.0
10
131.25
20
-12.5
10
131.25000000000006
20
-26.500000000000004
10
145.24999999999991
20
-26.499999999999968
10
145.25
20
-12.5
0
LWPOLYLINE
5
115
100
AcDbEntity
8
0
100
AcDbPolyline
90
4
70
1
43
0.0
10
112.25
20
-12.5
10
112.25000000000007
20
-26.500000000000004
10
126.24999999999991
20
-26.499999999999968
10
126.24999999999999
20
-12.5
0
LWPOLYLINE
5
116
100
AcDbEntity
8
0
100
AcDbPolyline
90
4
70
1
43
0.0
10
50.249999999999986
20
-12.5
10
36.25
20
-12.5
10
36.250000000000071
20
-26.500000000000004
10
50.249999999999915
20
-26.499999999999968
0
LWPOLYLINE
5
117
100
AcDbEntity
8
0
100
AcDbPolyline
90
4
70
1
43
0.0
10
102.74999999999986
20
-31.499999999999979
10
102.74999999999986
20
-45.499999999999986
10
116.74999999999984
20
-45.500000000000007
10
116.74999999999984
20
-31.499999999999957
0
LWPOLYLINE
5
118
100
AcDbEntity
8
0
100
AcDbPolyline
90
4
70
1
43
0.0
10
178.50000000000335
20
-64.499999999999801
10
178.50000000000321
20
-50.499999999999794
10
164.50000000000324
20
-50.499999999999794
10
164.5000000000033
20
-64.499999999999801
0
LWPOLYLINE
5
119
100
AcDbEntity
8
0
100
AcDbPolyline
90
4
70
1
43
0.0
10
102.50000000000321
20
-50.499999999999794
10
88.500000000003226
20
-50.499999999999794
10
88.500000000003297
20
-64.499999999999801
10
102.50000000000335
20
-64.499999999999801
0
LWPOLYLINE
5
120
100
AcDbEntity
8
0
100
AcDbPolyline
90
4
70
1
43
0.0
10
78.975000000000236
20
-83.500000000000014
10
92.975000000000151
20
-83.499999999999972
10
92.975000000000222
20
-69.5
10
78.975000000000236
20
-69.5
0
LWPOLYLINE
5
121
100
AcDbEntity
8
0
100
AcDbPolyline
90
4
70
1
43
0.0
10
168.97500000000014
20
-83.499999999999972
10
168.97500000000022
20
-69.5
10
154.97500000000025
20
-69.5
10
154.97500000000025
20
-83.500000000000014
0
LWPOLYLINE
5
122
100
AcDbEntity
8
0
100
AcDbPolyline
90
4
70
1
43
0.0
10
128.87500000000355
20
-88.499999999999957
10
128.87500000000321
20
-102.49999999999994
10
142.87500000000355
20
-102.49999999999994
10
142.87500000000355
20
-88.500000000000099
0
LWPOLYLINE
5
123
100
AcDbEntity
8
0
100
AcDbPolyline
90
4
70
1
43
0.0
10
71.850000000000264
20
-102.49999999999999
10
85.850000000000236
20
-102.49999999999999
10
85.850000000000236
20
-88.499999999999957
10
71.850000000000264
20
-88.5
0
LWPOLYLINE
5
124
100
AcDbEntity
8
0
100
AcDbPolyline
90
4
70
1
43
0.0
10
168.50301449531699
20
-96.224333891206044
10
155.34731780431468
20
-91.436051884645408
10
150.5590357977544
20
-104.59174857564749
10
163.71473248875611
20
-109.38003058220855
0
LWPOLYLINE
5
125
100
AcDbEntity
8
0
100
AcDbPolyline
90
4
70
1
43
0.0
10
116.97500000000025
20
-69.5
10
116.97500000000025
20
-83.500000000000014
10
130.97500000000016
20
-83.499999999999972
10
130.97500000000022
20
-69.5
0
LWPOLYLINE
5
126
100
AcDbEntity
8
0
100
AcDbPolyline
90
4
70
1
43
0.0
10
43.374999999999986
20
-64.499999999999972
10
57.374999999999901
20
-64.499999999999972
10
57.374999999999972
20
-50.499999999999794
10
43.374999999999986
20
-50.499999999999972
0
LWPOLYLINE
5
127
100
AcDbEntity
8
0
100
AcDbPolyline
90
4
70
1
43
0.0
10
126.50000000000331
20
-64.499999999999801
10
140.50000000000335
20
-64.499999999999801
10
140.50000000000321
20
-50.499999999999794
10
126.50000000000324
20
-50.499999999999794
0
LWPOLYLINE
5
128
100
AcDbEntity
8
0
100
AcDbPolyline
90
4
70
1
43
0.0
10
154.74999999999986
20
-31.499999999999957
10
140.74999999999986
20
-31.499999999999979
10
140.74999999999986
20
-45.499999999999986
10
154.74999999999986
20
-45.500000000000007
0
LWPOLYLINE
5
129
100
AcDbEntity
8
0
100
AcDbPolyline
90
4
70
1
43
0.0
10
78.749999999999844
20
-45.500000000000007
10
78.749999999999844
20
-31.499999999999957
10
64.749999999999858
20
-31.499999999999979
10
64.749999999999858
20
-45.499999999999986
0
LWPOLYLINE
5
130
100
AcDbEntity
8
0
100
AcDbPolyline
90
4
70
1
43
0.0
10
74.250000000000071
20
-26.500000000000004
10
88.249999999999901
20
-26.499999999999968
10
88.249999999999972
20
-12.5
10
74.25
20
-12.5
0
LWPOLYLINE
5
131
100
AcDbEntity
8
0
100
AcDbPolyline
90
4
70
1
43
0.0
10
150.25000000000006
20
-26.500000000000004
10
164.24999999999989
20
-26.499999999999968
10
164.24999999999997
20
-12.5
10
150.25
20
-12.5
0
LWPOLYLINE
5
132
100
AcDbEntity
8
0
100
AcDbPolyline
90
4
70
1
43
0.0
10
93.25
20
-12.5
10
93.250000000000057
20
-26.500000000000004
10
107.24999999999991
20
-26.499999999999968
10
107.24999999999997
20
-12.5
0
LWPOLYLINE
5
133
100
AcDbEntity
8
0
100
AcDbPolyline
90
4
70
1
43
0.0
10
54.999999999999993
20
-31.499999999999979
10
41.000000000000014
20
-31.499999999999993
10
40.999999999999943
20
-45.500000000000007
10
54.999999999999993
20
-45.500000000000007
0
LWPOLYLINE
5
134
100
AcDbEntity
8
0
100
AcDbPolyline
90
4
70
1
43
0.0
10
135.74999999999986
20
-31.499999999999957
10
121.74999999999989
20
-31.499999999999979
10
121.74999999999989
20
-45.499999999999986
10
135.74999999999986
20
-45.500000000000007
0
LWPOLYLINE
5
135
100
AcDbEntity
8
0
100
AcDbPolyline
90
4
70
1
43
0.0
10
159.50000000000321
20
-50.499999999999794
10
145.50000000000324
20
-50.499999999999794
10
145.5000000000033
20
-64.499999999999801
10
159.50000000000335
20
-64.499999999999801
0
LWPOLYLINE
5
136
100
AcDbEntity
8
0
100
AcDbPolyline
90
4
70
1
43
0.0
10
83.500000000003212
20
-50.499999999999794
10
69.500000000003226
20
-50.499999999999794
10
69.500000000003297
20
-64.499999999999801
10
83.500000000003354
20
-64.499999999999801
0
LWPOLYLINE
5
137
100
AcDbEntity
8
0
100
AcDbPolyline
90
4
70
1
43
0.0
10
111.97500000000016
20
-83.499999999999972
10
111.97500000000022
20
-69.5
10
97.97500000000025
20
-69.5
10
97.97500000000025
20
-83.500000000000014
0
LWPOLYLINE
5
138
100
AcDbEntity
8
0
100
AcDbPolyline
90
4
70
1
43
0.0
10
187.97500000000028
20
-69.5
10
173.97500000000031
20
-69.5
10
173.97500000000031
20
-83.500000000000014
10
187.97500000000019
20
-83.499999999999972
0
LWPOLYLINE
5
139
100
AcDbEntity
8
0
100
AcDbPolyline
90
4
70
1
43
0.0
10
109.60000000000024
20
-102.49999999999999
10
109.60000000000024
20
-88.499999999999957
10
95.60000000000025
20
-88.5
10
95.60000000000025
20
-102.49999999999999
0
LWPOLYLINE
5
140
100
AcDbEntity
8
0
100
AcDbPolyline
90
12
70
1
43
0.0
10
5.5000000000001403
20
-115
42
-0.41421356237310281
10
5.0000000000001199
20
-114.5
10
5.0000000000000044
20
-9
42
-0.41421356237309365
10
8.9999999999999858
20
-5
10
191.4750000000015
20
-5.0000000000000142
42
-0.41421356237306017
10
195.47500000000102
20
-8.9999999999999858
10
195.47500000000105
20
-130.16054356117789
42
-0.41421356237310542
10
194.97500000000105
20
-130.66054356117792
10
142.78313161844628
20
-130.660543561178
42
-0.17632698070846156
10
135.3921136725468
20
-127.97043302794272
10
124.11681414529836
20
-118.50933335321534
42
0.17632698070846548
10
114.47500000000026
20
-114.99999999999999
0
LWPOLYLINE
5
141
100
AcDbEntity
8
0
100
AcDbPolyline
90
4
70
1
43
0.0
10
14.483000000000164
20
-80.291999999999959
10
25.98300000000016
20
-80.291999999999959
10
25.98300000000016
20
-50.291999999999966
10
14.483000000000164
20
-50.291999999999966
0
LWPOLYLINE
5
142
100
AcDbEntity
8
0
100
AcDbPolyline
90
4
70
1
43
0.0
10
9.9130000000001672
20
-82.041999999999973
10
30.48300000000016
20
-82.041999999999973
10
30.48300000000016
20
-48.041999999999987
10
9.9130000000001672
20
-48.041999999999987
0
LWPOLYLINE
5
143
100
AcDbEntity
8
0
100
AcDbPolyline
90
4
70
1
43
0.0
10
16.583000000000162
20
-78.191999999999965
10
22.167000000000165
20
-78.191999999999965
10
22.167000000000165
20
-55.807999999999964
10
16.583000000000162
20
-55.807999999999964
0
CIRCLE
5
144
100
AcDbEntity
8
0
100
AcDbCircle
10
28.48300000000016
20
-80.041999999999973
30
0
40
1.0000000000000053
210
0
220
0
230
1
0
CIRCLE
5
145
100
AcDbEntity
8
0
100
AcDbCircle
10
28.48300000000016
20
-50.041999999999987
30
0
40
1.0000000000000053
210
0
220
0
230
1
0
CIRCLE
5
146
100
AcDbEntity
8
0
100
AcDbCircle
10
11.913000000000167
20
-80.041999999999973
30
0
40
1.0000000000000053
210
0
220
0
230
1
0
CIRCLE
5
147
100
AcDbEntity
8
0
100
AcDbCircle
10
11.913000000000167
20
-50.041999999999987
30
0
40
1.0000000000000053
210
0
220
0
230
1
0
ENDSEC
0
SECTION
2
OBJECTS
0
DICTIONARY
5
C
100
AcDbDictionary
3
ACAD_GROUP
350
D
3
ACAD_MLINESTYLE
350
17
0
DICTIONARY
5
D
100
AcDbDictionary
0
DICTIONARY
5
1A
330
C
100
AcDbDictionary
0
DICTIONARY
5
17
100
AcDbDictionary
0
ENDSEC
0
EOF
