M48
; DRILL file {KiCad (5.1.5)-3} date 5/3/2020 11:14:46 PM
; FORMAT={-:-/ absolute / inch / decimal}
; #@! TF.CreationDate,2020-05-03T23:14:46-07:00
; #@! TF.GenerationSoftware,Kicad,Pcbnew,(5.1.5)-3
FMAT,2
INCH
T1C0.0157
T2C0.0276
T3C0.0354
T4C0.0430
T5C0.0591
T6C0.0315
T7C0.0670
T8C0.1570
T9C0.1614
%
G90
G05
T1
X3.0217Y-2.3425
X3.7697Y-2.3031
X4.5177Y-2.2736
X5.2657Y-2.2441
X6.0236Y-2.2146
X7.9331Y-2.3819
X8.003Y-3.0138
X8.3465Y-2.3819
X8.4547Y-3.1594
T2
X3.3051Y-3.2256
X3.6122Y-3.2256
X1.1793Y-4.7588
X1.4679Y-4.6538
X1.4362Y-2.4776
X1.7433Y-2.4776
X8.1756Y-4.1602
X8.4827Y-4.1602
X7.4303Y-4.1618
X7.7374Y-4.1618
X6.6823Y-4.161
X6.9894Y-4.161
X3.502Y-1.7299
X3.8091Y-1.7299
X1.2472Y-1.7287
X1.5543Y-1.7287
X2.1831Y-2.4776
X2.4902Y-2.4776
X7.428Y-3.4126
X7.735Y-3.4126
X4.4303Y-2.4768
X4.7374Y-2.4768
X6.3921Y-3.2256
X6.6992Y-3.2256
X5.552Y-3.2248
X5.8591Y-3.2248
X2.8301Y-3.9724
X3.1372Y-3.9724
X1.8102Y-3.226
X2.1173Y-3.226
X1.6268Y-0.9819
X1.9339Y-0.9819
X4.2504Y-1.7299
X4.5575Y-1.7299
X8.3583Y-2.476
X8.6654Y-2.476
X4.6185Y-0.9823
X4.9256Y-0.9823
X4.9898Y-1.7303
X5.2969Y-1.7303
X2.5598Y-3.2268
X2.8669Y-3.2268
X3.1203Y-0.9815
X3.4274Y-0.9815
X4.0543Y-3.2236
X4.3614Y-3.2236
X5.9236Y-2.4772
X6.2307Y-2.4772
X5.3677Y-0.9815
X5.6748Y-0.9815
X2.9449Y-2.4764
X3.252Y-2.4764
X2.3886Y-0.9815
X2.6957Y-0.9815
X5.1803Y-2.4768
X5.4874Y-2.4768
X5.7323Y-1.7311
X6.0394Y-1.7311
X5.6461Y-3.9724
X5.9531Y-3.9724
X2.7508Y-1.728
X3.0579Y-1.728
X3.8646Y-0.9827
X4.1717Y-0.9827
X6.9512Y-2.4776
X7.2583Y-2.4776
X6.4972Y-1.7299
X6.8043Y-1.7299
X7.0512Y-0.9815
X7.3583Y-0.9815
X4.8008Y-3.2256
X5.1079Y-3.2256
X3.6839Y-2.478
X3.9909Y-2.478
X2.0087Y-1.7287
X2.3157Y-1.7287
X1.7955Y-4.2403
X2.084Y-4.1353
X8.3535Y-3.2248
X8.6606Y-3.2248
X7.2374Y-1.7295
X7.5445Y-1.7295
X4.7126Y-3.9728
X5.0197Y-3.9728
X6.1122Y-0.9803
X6.4193Y-0.9803
T4
X7.7508Y-0.9386
X7.7508Y-1.0386
X7.7508Y-1.1386
X7.7508Y-1.2386
X7.7508Y-1.3386
X7.7508Y-1.4386
X7.7508Y-1.5386
X7.7508Y-1.6386
X7.7508Y-1.7386
X7.7508Y-1.8386
X7.7508Y-1.9386
X7.7508Y-2.0386
X8.3508Y-0.9386
X8.3508Y-1.0386
X8.3508Y-1.1386
X8.3508Y-1.2386
X8.3508Y-1.3386
X8.3508Y-1.4386
X8.3508Y-1.5386
X8.3508Y-1.6386
X8.3508Y-1.7386
X8.3508Y-1.8386
X8.3508Y-1.9386
X8.3508Y-2.0386
T6
X1.3378Y-0.9252
X1.3378Y-1.2008
T7
X1.9962Y-4.3491
X2.133Y-4.7249
X3.45Y-2.1
X3.85Y-2.1
X3.2618Y-3.5961
X3.6618Y-3.5961
X7.378Y-3.7835
X7.778Y-3.7835
X6.3476Y-3.5965
X6.7476Y-3.5965
X2.1386Y-2.8484
X2.5386Y-2.8484
X2.3268Y-1.352
X2.7268Y-1.352
X4.9445Y-2.1008
X5.3445Y-2.1008
X4.6638Y-4.3437
X5.0638Y-4.3437
X1.2039Y-2.0996
X1.6039Y-2.0996
X4.0094Y-3.5957
X4.4094Y-3.5957
X1.7665Y-3.5965
X2.1665Y-3.5965
X1.5787Y-1.352
X1.9787Y-1.352
X5.5984Y-4.3433
X5.9984Y-4.3433
X2.513Y-3.5969
X2.913Y-3.5969
X5.1323Y-2.848
X5.5323Y-2.848
X6.9087Y-2.8472
X7.3087Y-2.8472
X7.1894Y-2.1
X7.5894Y-2.1
X3.6358Y-2.8476
X4.0358Y-2.8476
X1.3867Y-4.8656
X1.5235Y-5.2415
X5.6929Y-2.1012
X6.0929Y-2.1012
X2.7937Y-4.3437
X3.1937Y-4.3437
X6.6295Y-4.5319
X7.0295Y-4.5319
X4.5717Y-1.3516
X4.9717Y-1.3516
X8.126Y-4.5315
X8.526Y-4.5315
X7.378Y-4.5319
X7.778Y-4.5319
X2.889Y-2.8476
X3.289Y-2.8476
X5.8803Y-2.848
X6.2803Y-2.848
X2.7016Y-2.0996
X3.1016Y-2.0996
X4.3839Y-2.848
X4.7839Y-2.848
X7.002Y-1.3528
X7.402Y-1.3528
X6.4409Y-2.1008
X6.8409Y-2.1008
X6.0667Y-1.352
X6.4667Y-1.352
X4.7579Y-3.5957
X5.1579Y-3.5957
X3.8232Y-1.3535
X4.2232Y-1.3535
X8.3118Y-3.5961
X8.7118Y-3.5961
X1.9528Y-2.0996
X2.3528Y-2.0996
X8.3122Y-2.8469
X8.7122Y-2.8469
X5.3197Y-1.352
X5.7197Y-1.352
X5.5063Y-3.5965
X5.9063Y-3.5965
X4.1965Y-2.1004
X4.5965Y-2.1004
X1.3913Y-2.848
X1.7913Y-2.848
X3.0756Y-1.3528
X3.4756Y-1.3528
T8
X3.8358Y-2.8476
X1.4551Y-5.0535
X5.8929Y-2.1012
X2.9937Y-4.3437
X6.8295Y-4.5319
X4.7717Y-1.3516
X8.326Y-4.5315
X7.578Y-4.5319
X3.089Y-2.8476
X6.0803Y-2.848
X2.9016Y-2.0996
X4.5839Y-2.848
X7.202Y-1.3528
X6.6409Y-2.1008
X6.2667Y-1.352
X4.9579Y-3.5957
X4.0232Y-1.3535
X8.5118Y-3.5961
X2.1528Y-2.0996
X8.5122Y-2.8469
X5.5197Y-1.352
X5.7063Y-3.5965
X4.3965Y-2.1004
X1.5913Y-2.848
X3.2756Y-1.3528
X2.0646Y-4.537
X3.65Y-2.1
X3.4618Y-3.5961
X7.578Y-3.7835
X6.5476Y-3.5965
X2.3386Y-2.8484
X2.5268Y-1.352
X5.1445Y-2.1008
X4.8638Y-4.3437
X1.4039Y-2.0996
X4.2094Y-3.5957
X1.9665Y-3.5965
X1.7787Y-1.352
X5.7984Y-4.3433
X2.713Y-3.5969
X5.3323Y-2.848
X7.1087Y-2.8472
X7.3894Y-2.1
T9
X6.5941Y-2.8488
X0.9358Y-5.5717
X8.9248Y-4.9547
X0.9358Y-0.9394
X8.9252Y-0.9409
T3
G00X1.2472Y-0.9961
M15
G01X1.2472Y-0.9803
M16
G05
G00X1.2472Y-1.1142
M15
G01X1.2472Y-1.0984
M16
G05
G00X1.2472Y-1.2717
M15
G01X1.2472Y-1.2559
M16
G05
G00X1.4283Y-1.315
M15
G01X1.4283Y-1.2992
M16
G05
T5
G00X1.6744Y-1.176
M15
G01X1.6268Y-1.2507
M16
G05
G00X1.8787Y-1.152
M15
G01X1.8772Y-1.1748
M16
G05
G00X5.6941Y-4.1674
M15
G01X5.6465Y-4.2421
M16
G05
G00X5.8984Y-4.1433
M15
G01X5.8969Y-4.1661
M16
G05
G00X2.6086Y-3.4209
M15
G01X2.561Y-3.4956
M16
G05
G00X2.813Y-3.3969
M15
G01X2.8114Y-3.4197
M16
G05
G00X5.2279Y-2.6721
M15
G01X5.1803Y-2.7468
M16
G05
G00X5.4323Y-2.6481
M15
G01X5.4307Y-2.6708
M16
G05
G00X7.0043Y-2.6713
M15
G01X6.9567Y-2.746
M16
G05
G00X7.2087Y-2.6473
M15
G01X7.2071Y-2.6701
M16
G05
G00X7.285Y-1.9241
M15
G01X7.2374Y-1.9988
M16
G05
G00X7.4894Y-1.9
M15
G01X7.4878Y-1.9228
M16
G05
G00X3.7315Y-2.6717
M15
G01X3.6839Y-2.7464
M16
G05
G00X3.9358Y-2.6477
M15
G01X3.9343Y-2.6704
M16
G05
G00X1.233Y-5.028
M15
G01X1.2549Y-5.0216
M16
G05
G00X1.3255Y-5.2118
M15
G01X1.412Y-5.2309
M16
G05
G00X5.7886Y-1.9252
M15
G01X5.741Y-2.0
M16
G05
G00X5.9929Y-1.9012
M15
G01X5.9913Y-1.924
M16
G05
G00X2.8893Y-4.1678
M15
G01X2.8418Y-4.2425
M16
G05
G00X3.0937Y-4.1437
M15
G01X3.0921Y-4.1665
M16
G05
G00X6.7252Y-4.356
M15
G01X6.6776Y-4.4307
M16
G05
G00X6.9295Y-4.3319
M15
G01X6.928Y-4.3547
M16
G05
G00X4.6673Y-1.1756
M15
G01X4.6197Y-1.2503
M16
G05
G00X4.8716Y-1.1516
M15
G01X4.8701Y-1.1744
M16
G05
G00X8.2216Y-4.3556
M15
G01X8.174Y-4.4303
M16
G05
G00X8.426Y-4.3315
M15
G01X8.4244Y-4.3543
M16
G05
G00X7.4736Y-4.356
M15
G01X7.426Y-4.4307
M16
G05
G00X7.6779Y-4.3319
M15
G01X7.6764Y-4.3547
M16
G05
G00X2.9846Y-2.6717
M15
G01X2.937Y-2.7464
M16
G05
G00X3.189Y-2.6477
M15
G01X3.1874Y-2.6704
M16
G05
G00X5.976Y-2.6721
M15
G01X5.9284Y-2.7468
M16
G05
G00X6.1803Y-2.6481
M15
G01X6.1788Y-2.6708
M16
G05
G00X2.7972Y-1.9237
M15
G01X2.7496Y-1.9984
M16
G05
G00X3.0016Y-1.8996
M15
G01X3.0Y-1.9224
M16
G05
G00X4.4795Y-2.6721
M15
G01X4.4319Y-2.7468
M16
G05
G00X4.6838Y-2.6481
M15
G01X4.6823Y-2.6708
M16
G05
G00X7.0976Y-1.1768
M15
G01X7.05Y-1.2515
M16
G05
G00X7.302Y-1.1528
M15
G01X7.3004Y-1.1756
M16
G05
G00X6.5366Y-1.9248
M15
G01X6.489Y-1.9996
M16
G05
G00X6.7409Y-1.9008
M15
G01X6.7394Y-1.9236
M16
G05
G00X6.1624Y-1.176
M15
G01X6.1148Y-1.2507
M16
G05
G00X6.3667Y-1.152
M15
G01X6.3652Y-1.1748
M16
G05
G00X4.8535Y-3.4197
M15
G01X4.8059Y-3.4944
M16
G05
G00X5.0579Y-3.3957
M15
G01X5.0563Y-3.4185
M16
G05
G00X3.9189Y-1.1776
M15
G01X3.8713Y-1.2523
M16
G05
G00X4.1232Y-1.1536
M15
G01X4.1217Y-1.1764
M16
G05
G00X8.4075Y-3.4201
M15
G01X8.3599Y-3.4948
M16
G05
G00X8.6118Y-3.3961
M15
G01X8.6102Y-3.4189
M16
G05
G00X2.0484Y-1.9237
M15
G01X2.0008Y-1.9984
M16
G05
G00X2.2527Y-1.8996
M15
G01X2.2512Y-1.9224
M16
G05
G00X8.4079Y-2.6709
M15
G01X8.3603Y-2.7456
M16
G05
G00X8.6122Y-2.6469
M15
G01X8.6106Y-2.6697
M16
G05
G00X5.4153Y-1.176
M15
G01X5.3677Y-1.2507
M16
G05
G00X5.6197Y-1.152
M15
G01X5.6181Y-1.1748
M16
G05
G00X5.6019Y-3.4205
M15
G01X5.5544Y-3.4952
M16
G05
G00X5.8063Y-3.3965
M15
G01X5.8047Y-3.4193
M16
G05
G00X4.2921Y-1.9245
M15
G01X4.2445Y-1.9992
M16
G05
G00X4.4964Y-1.9004
M15
G01X4.4949Y-1.9232
M16
G05
G00X1.487Y-2.6721
M15
G01X1.4394Y-2.7468
M16
G05
G00X1.6913Y-2.6481
M15
G01X1.6898Y-2.6708
M16
G05
G00X3.1712Y-1.1768
M15
G01X3.1236Y-1.2515
M16
G05
G00X3.3756Y-1.1528
M15
G01X3.374Y-1.1756
M16
G05
G00X1.8425Y-4.5114
M15
G01X1.8644Y-4.5051
M16
G05
G00X1.9349Y-4.6952
M15
G01X2.0214Y-4.7144
M16
G05
G00X3.5456Y-1.9241
M15
G01X3.4981Y-1.9988
M16
G05
G00X3.75Y-1.9
M15
G01X3.7484Y-1.9228
M16
G05
G00X3.3575Y-3.4201
M15
G01X3.3099Y-3.4948
M16
G05
G00X3.5618Y-3.3961
M15
G01X3.5602Y-3.4189
M16
G05
G00X7.4736Y-3.6075
M15
G01X7.426Y-3.6822
M16
G05
G00X7.6779Y-3.5835
M15
G01X7.6764Y-3.6063
M16
G05
G00X6.4433Y-3.4205
M15
G01X6.3957Y-3.4952
M16
G05
G00X6.6476Y-3.3965
M15
G01X6.6461Y-3.4193
M16
G05
G00X2.2342Y-2.6725
M15
G01X2.1866Y-2.7472
M16
G05
G00X2.4386Y-2.6485
M15
G01X2.437Y-2.6712
M16
G05
G00X2.4224Y-1.176
M15
G01X2.3748Y-1.2507
M16
G05
G00X2.6268Y-1.152
M15
G01X2.6252Y-1.1748
M16
G05
G00X5.0401Y-1.9248
M15
G01X4.9925Y-1.9996
M16
G05
G00X5.2445Y-1.9008
M15
G01X5.2429Y-1.9236
M16
G05
G00X4.7594Y-4.1678
M15
G01X4.7118Y-4.2425
M16
G05
G00X4.9638Y-4.1437
M15
G01X4.9622Y-4.1665
M16
G05
G00X1.2996Y-1.9237
M15
G01X1.252Y-1.9984
M16
G05
G00X1.5039Y-1.8996
M15
G01X1.5024Y-1.9224
M16
G05
G00X4.1051Y-3.4197
M15
G01X4.0575Y-3.4944
M16
G05
G00X4.3094Y-3.3957
M15
G01X4.3079Y-3.4185
M16
G05
G00X1.8622Y-3.4205
M15
G01X1.8146Y-3.4952
M16
G05
G00X2.0665Y-3.3965
M15
G01X2.065Y-3.4193
M16
G05
T0
M30
