G04 #@! TF.GenerationSoftware,KiCad,Pcbnew,(6.0.10-0)*
G04 #@! TF.CreationDate,2022-12-25T19:45:41-08:00*
G04 #@! TF.ProjectId,left,6c656674-2e6b-4696-9361-645f70636258,rev?*
G04 #@! TF.SameCoordinates,Original*
G04 #@! TF.FileFunction,Profile,NP*
%FSLAX46Y46*%
G04 Gerber Fmt 4.6, Leading zero omitted, Abs format (unit mm)*
G04 Created by KiCad (PCBNEW (6.0.10-0)) date 2022-12-25 19:45:41*
%MOMM*%
%LPD*%
G01*
G04 APERTURE LIST*
G04 #@! TA.AperFunction,Profile*
%ADD10C,0.200000*%
G04 #@! TD*
G04 APERTURE END LIST*
D10*
X213000000Y-105720000D02*
G75*
G03*
X213750000Y-104970000I0J750000D01*
G01*
X196158000Y-105720000D02*
G75*
G03*
X195586507Y-106955691I0J-750000D01*
G01*
X196158000Y-105720000D02*
X213000000Y-105720000D01*
X203239000Y-145874000D02*
G75*
G03*
X203943769Y-145380515I0J750000D01*
G01*
X200275000Y-67720000D02*
X203525000Y-67720000D01*
X147274000Y-124720000D02*
X38775000Y-124720000D01*
X167629767Y-140733432D02*
G75*
G03*
X178745000Y-145874100I11115233J9446432D01*
G01*
X210442183Y-127526400D02*
G75*
G03*
X209738483Y-123607551I-3721183J1354400D01*
G01*
X203239000Y-145874000D02*
X178745000Y-145874100D01*
X199525000Y-30470000D02*
G75*
G03*
X198775000Y-29720000I-750000J0D01*
G01*
X38025000Y-123970000D02*
X38025000Y-30470000D01*
X167629767Y-140733432D02*
X158389233Y-129860568D01*
X210442183Y-127526400D02*
X203943769Y-145380515D01*
X204275000Y-85970000D02*
G75*
G03*
X205025000Y-86720000I750000J0D01*
G01*
X38775000Y-29720000D02*
G75*
G03*
X38025000Y-30470000I0J-750000D01*
G01*
X38025000Y-123970000D02*
G75*
G03*
X38775000Y-124720000I750000J0D01*
G01*
X204275000Y-68470000D02*
G75*
G03*
X203525000Y-67720000I-750000J0D01*
G01*
X204275000Y-68470000D02*
X204275000Y-85970000D01*
X199525000Y-30470000D02*
X199525000Y-66970000D01*
X199525000Y-66970000D02*
G75*
G03*
X200275000Y-67720000I750000J0D01*
G01*
X158389233Y-129860568D02*
G75*
G03*
X147274000Y-124719900I-11115233J-9446432D01*
G01*
X213750000Y-87470000D02*
G75*
G03*
X213000000Y-86720000I-750000J0D01*
G01*
X205025000Y-86720000D02*
X213000000Y-86720000D01*
X195586507Y-106955691D02*
X209738483Y-123607551D01*
X38775000Y-29720000D02*
X198775000Y-29720000D01*
X213750000Y-104970000D02*
X213750000Y-87470000D01*
M02*
