%TF.GenerationSoftware,KiCad,Pcbnew,(6.0.10-0)*%
%TF.CreationDate,2022-12-25T19:18:43-08:00*%
%TF.ProjectId,left,6c656674-2e6b-4696-9361-645f70636258,rev?*%
%TF.SameCoordinates,Original*%
%TF.FileFunction,Drillmap*%
%TF.FilePolarity,Positive*%
%FSLAX45Y45*%
G04 Gerber Fmt 4.5, Leading zero omitted, Abs format (unit mm)*
G04 Created by KiCad (PCBNEW (6.0.10-0)) date 2022-12-25 19:18:43*
%MOMM*%
%LPD*%
G01*
G04 APERTURE LIST*
%ADD10C,0.200000*%
%ADD11C,0.040000*%
%ADD12C,0.070000*%
%ADD13C,0.090000*%
%ADD14C,0.109220*%
%ADD15C,0.150000*%
%ADD16C,0.185000*%
G04 APERTURE END LIST*
D10*
X21300000Y-10572000D02*
G75*
G03*
X21375000Y-10497000I0J75000D01*
G01*
X19615800Y-10572000D02*
G75*
G03*
X19558651Y-10695569I0J-75000D01*
G01*
X19615800Y-10572000D02*
X21300000Y-10572000D01*
X20323900Y-14587400D02*
G75*
G03*
X20394377Y-14538051I0J75000D01*
G01*
X20027500Y-6772000D02*
X20352500Y-6772000D01*
X14727400Y-12472000D02*
X3877500Y-12472000D01*
X16762977Y-14073343D02*
G75*
G03*
X17874500Y-14587410I1111523J944643D01*
G01*
X21044218Y-12752640D02*
G75*
G03*
X20973848Y-12360755I-372118J135440D01*
G01*
X20323900Y-14587400D02*
X17874500Y-14587410D01*
X19952500Y-3047000D02*
G75*
G03*
X19877500Y-2972000I-75000J0D01*
G01*
X3802500Y-12397000D02*
X3802500Y-3047000D01*
X16762977Y-14073343D02*
X15838923Y-12986057D01*
X21044218Y-12752640D02*
X20394377Y-14538051D01*
X20427500Y-8597000D02*
G75*
G03*
X20502500Y-8672000I75000J0D01*
G01*
X3877500Y-2972000D02*
G75*
G03*
X3802500Y-3047000I0J-75000D01*
G01*
X3802500Y-12397000D02*
G75*
G03*
X3877500Y-12472000I75000J0D01*
G01*
X20427500Y-6847000D02*
G75*
G03*
X20352500Y-6772000I-75000J0D01*
G01*
X20427500Y-6847000D02*
X20427500Y-8597000D01*
X19952500Y-3047000D02*
X19952500Y-6697000D01*
X19952500Y-6697000D02*
G75*
G03*
X20027500Y-6772000I75000J0D01*
G01*
X15838923Y-12986057D02*
G75*
G03*
X14727400Y-12471990I-1111523J-944643D01*
G01*
X21375000Y-8747000D02*
G75*
G03*
X21300000Y-8672000I-75000J0D01*
G01*
X20502500Y-8672000D02*
X21300000Y-8672000D01*
X19558651Y-10695569D02*
X20973848Y-12360755D01*
X3877500Y-2972000D02*
X19877500Y-2972000D01*
X21375000Y-10497000D02*
X21375000Y-8747000D01*
D11*
X4405000Y-4305000D02*
X4445000Y-4345000D01*
X4445000Y-4305000D02*
X4405000Y-4345000D01*
X4730000Y-5630000D02*
X4770000Y-5670000D01*
X4770000Y-5630000D02*
X4730000Y-5670000D01*
X5655000Y-3555000D02*
X5695000Y-3595000D01*
X5695000Y-3555000D02*
X5655000Y-3595000D01*
X5655000Y-4905000D02*
X5695000Y-4945000D01*
X5695000Y-4905000D02*
X5655000Y-4945000D01*
X6255000Y-6155000D02*
X6295000Y-6195000D01*
X6295000Y-6155000D02*
X6255000Y-6195000D01*
X6305000Y-6580000D02*
X6345000Y-6620000D01*
X6345000Y-6580000D02*
X6305000Y-6620000D01*
X6505000Y-8480000D02*
X6545000Y-8520000D01*
X6545000Y-8480000D02*
X6505000Y-8520000D01*
X19080000Y-3680000D02*
X19120000Y-3720000D01*
X19120000Y-3680000D02*
X19080000Y-3720000D01*
D12*
X6035000Y-7260000D02*
G75*
G03*
X6035000Y-7260000I-35000J0D01*
G01*
X6035000Y-8040000D02*
G75*
G03*
X6035000Y-8040000I-35000J0D01*
G01*
X6035000Y-9110000D02*
G75*
G03*
X6035000Y-9110000I-35000J0D01*
G01*
X6035000Y-9890000D02*
G75*
G03*
X6035000Y-9890000I-35000J0D01*
G01*
X6765000Y-4880000D02*
G75*
G03*
X6765000Y-4880000I-35000J0D01*
G01*
X7005000Y-6780000D02*
G75*
G03*
X7005000Y-6780000I-35000J0D01*
G01*
X7480000Y-8682500D02*
G75*
G03*
X7480000Y-8682500I-35000J0D01*
G01*
X7497500Y-10585000D02*
G75*
G03*
X7497500Y-10585000I-35000J0D01*
G01*
X7545000Y-4880000D02*
G75*
G03*
X7545000Y-4880000I-35000J0D01*
G01*
X7635000Y-3367500D02*
G75*
G03*
X7635000Y-3367500I-35000J0D01*
G01*
X7635000Y-4147500D02*
G75*
G03*
X7635000Y-4147500I-35000J0D01*
G01*
X7785000Y-6780000D02*
G75*
G03*
X7785000Y-6780000I-35000J0D01*
G01*
X8260000Y-8682500D02*
G75*
G03*
X8260000Y-8682500I-35000J0D01*
G01*
X8277500Y-10585000D02*
G75*
G03*
X8277500Y-10585000I-35000J0D01*
G01*
X9132500Y-4885000D02*
G75*
G03*
X9132500Y-4885000I-35000J0D01*
G01*
X9535000Y-3352500D02*
G75*
G03*
X9535000Y-3352500I-35000J0D01*
G01*
X9535000Y-4132500D02*
G75*
G03*
X9535000Y-4132500I-35000J0D01*
G01*
X9627500Y-6785000D02*
G75*
G03*
X9627500Y-6785000I-35000J0D01*
G01*
X9857500Y-10577500D02*
G75*
G03*
X9857500Y-10577500I-35000J0D01*
G01*
X9912500Y-4885000D02*
G75*
G03*
X9912500Y-4885000I-35000J0D01*
G01*
X10407500Y-6785000D02*
G75*
G03*
X10407500Y-6785000I-35000J0D01*
G01*
X10577500Y-8682500D02*
G75*
G03*
X10577500Y-8682500I-35000J0D01*
G01*
X10637500Y-10577500D02*
G75*
G03*
X10637500Y-10577500I-35000J0D01*
G01*
X11057500Y-4882500D02*
G75*
G03*
X11057500Y-4882500I-35000J0D01*
G01*
X11357500Y-8682500D02*
G75*
G03*
X11357500Y-8682500I-35000J0D01*
G01*
X11435000Y-3360000D02*
G75*
G03*
X11435000Y-3360000I-35000J0D01*
G01*
X11435000Y-4140000D02*
G75*
G03*
X11435000Y-4140000I-35000J0D01*
G01*
X11520000Y-6780000D02*
G75*
G03*
X11520000Y-6780000I-35000J0D01*
G01*
X11837500Y-4882500D02*
G75*
G03*
X11837500Y-4882500I-35000J0D01*
G01*
X12240000Y-10580000D02*
G75*
G03*
X12240000Y-10580000I-35000J0D01*
G01*
X12300000Y-6780000D02*
G75*
G03*
X12300000Y-6780000I-35000J0D01*
G01*
X12480000Y-8682500D02*
G75*
G03*
X12480000Y-8682500I-35000J0D01*
G01*
X12932500Y-4880000D02*
G75*
G03*
X12932500Y-4880000I-35000J0D01*
G01*
X13020000Y-10580000D02*
G75*
G03*
X13020000Y-10580000I-35000J0D01*
G01*
X13260000Y-8682500D02*
G75*
G03*
X13260000Y-8682500I-35000J0D01*
G01*
X13335000Y-3360000D02*
G75*
G03*
X13335000Y-3360000I-35000J0D01*
G01*
X13335000Y-4140000D02*
G75*
G03*
X13335000Y-4140000I-35000J0D01*
G01*
X13417500Y-6782500D02*
G75*
G03*
X13417500Y-6782500I-35000J0D01*
G01*
X13712500Y-4880000D02*
G75*
G03*
X13712500Y-4880000I-35000J0D01*
G01*
X14197500Y-6782500D02*
G75*
G03*
X14197500Y-6782500I-35000J0D01*
G01*
X14375000Y-8685000D02*
G75*
G03*
X14375000Y-8685000I-35000J0D01*
G01*
X14867500Y-4882500D02*
G75*
G03*
X14867500Y-4882500I-35000J0D01*
G01*
X15155000Y-8685000D02*
G75*
G03*
X15155000Y-8685000I-35000J0D01*
G01*
X15185000Y-3360000D02*
G75*
G03*
X15185000Y-3360000I-35000J0D01*
G01*
X15185000Y-4140000D02*
G75*
G03*
X15185000Y-4140000I-35000J0D01*
G01*
X15322500Y-6777500D02*
G75*
G03*
X15322500Y-6777500I-35000J0D01*
G01*
X15555000Y-10580000D02*
G75*
G03*
X15555000Y-10580000I-35000J0D01*
G01*
X15647500Y-4882500D02*
G75*
G03*
X15647500Y-4882500I-35000J0D01*
G01*
X16102500Y-6777500D02*
G75*
G03*
X16102500Y-6777500I-35000J0D01*
G01*
X16272500Y-8685000D02*
G75*
G03*
X16272500Y-8685000I-35000J0D01*
G01*
X16335000Y-10580000D02*
G75*
G03*
X16335000Y-10580000I-35000J0D01*
G01*
X16745000Y-4900000D02*
G75*
G03*
X16745000Y-4900000I-35000J0D01*
G01*
X17052500Y-8685000D02*
G75*
G03*
X17052500Y-8685000I-35000J0D01*
G01*
X17135000Y-3360000D02*
G75*
G03*
X17135000Y-3360000I-35000J0D01*
G01*
X17135000Y-4140000D02*
G75*
G03*
X17135000Y-4140000I-35000J0D01*
G01*
X17215000Y-6782500D02*
G75*
G03*
X17215000Y-6782500I-35000J0D01*
G01*
X17525000Y-4900000D02*
G75*
G03*
X17525000Y-4900000I-35000J0D01*
G01*
X17845000Y-4900000D02*
G75*
G03*
X17845000Y-4900000I-35000J0D01*
G01*
X17995000Y-6782500D02*
G75*
G03*
X17995000Y-6782500I-35000J0D01*
G01*
X18063000Y-5460000D02*
G75*
G03*
X18063000Y-5460000I-35000J0D01*
G01*
X18063000Y-6240000D02*
G75*
G03*
X18063000Y-6240000I-35000J0D01*
G01*
X18167500Y-8685000D02*
G75*
G03*
X18167500Y-8685000I-35000J0D01*
G01*
X18278520Y-10996612D02*
G75*
G03*
X18278520Y-10996612I-35000J0D01*
G01*
X18625000Y-4900000D02*
G75*
G03*
X18625000Y-4900000I-35000J0D01*
G01*
X18845000Y-6782500D02*
G75*
G03*
X18845000Y-6782500I-35000J0D01*
G01*
X18947500Y-8685000D02*
G75*
G03*
X18947500Y-8685000I-35000J0D01*
G01*
X19011480Y-11263388D02*
G75*
G03*
X19011480Y-11263388I-35000J0D01*
G01*
X19345000Y-8672500D02*
G75*
G03*
X19345000Y-8672500I-35000J0D01*
G01*
X19625000Y-6782500D02*
G75*
G03*
X19625000Y-6782500I-35000J0D01*
G01*
X19823520Y-12304112D02*
G75*
G03*
X19823520Y-12304112I-35000J0D01*
G01*
X20125000Y-8672500D02*
G75*
G03*
X20125000Y-8672500I-35000J0D01*
G01*
X20556480Y-12570888D02*
G75*
G03*
X20556480Y-12570888I-35000J0D01*
G01*
D13*
X19270000Y-4157750D02*
X19270000Y-4247750D01*
X19225000Y-4202750D02*
X19315000Y-4202750D01*
D10*
X19225000Y-4182750D02*
X19225000Y-4222750D01*
X19315000Y-4182750D02*
X19315000Y-4222750D01*
X19225000Y-4222750D02*
G75*
G03*
X19315000Y-4222750I45000J0D01*
G01*
X19315000Y-4182750D02*
G75*
G03*
X19225000Y-4182750I-45000J0D01*
G01*
D13*
X19730000Y-3347750D02*
X19730000Y-3437750D01*
X19685000Y-3392750D02*
X19775000Y-3392750D01*
D10*
X19685000Y-3372750D02*
X19685000Y-3412750D01*
X19775000Y-3372750D02*
X19775000Y-3412750D01*
X19685000Y-3412750D02*
G75*
G03*
X19775000Y-3412750I45000J0D01*
G01*
X19775000Y-3372750D02*
G75*
G03*
X19685000Y-3372750I-45000J0D01*
G01*
D13*
X19730000Y-3647750D02*
X19730000Y-3737750D01*
X19685000Y-3692750D02*
X19775000Y-3692750D01*
D10*
X19685000Y-3672750D02*
X19685000Y-3712750D01*
X19775000Y-3672750D02*
X19775000Y-3712750D01*
X19685000Y-3712750D02*
G75*
G03*
X19775000Y-3712750I45000J0D01*
G01*
X19775000Y-3672750D02*
G75*
G03*
X19685000Y-3672750I-45000J0D01*
G01*
D13*
X19730000Y-4047750D02*
X19730000Y-4137750D01*
X19685000Y-4092750D02*
X19775000Y-4092750D01*
D10*
X19685000Y-4072750D02*
X19685000Y-4112750D01*
X19775000Y-4072750D02*
X19775000Y-4112750D01*
X19685000Y-4112750D02*
G75*
G03*
X19775000Y-4112750I45000J0D01*
G01*
X19775000Y-4072750D02*
G75*
G03*
X19685000Y-4072750I-45000J0D01*
G01*
D14*
X4026615Y-3841615D02*
X4026615Y-3764384D01*
X3949384Y-3764384D01*
X3949384Y-3841615D01*
X4026615Y-3841615D01*
X4026615Y-4095615D02*
X4026615Y-4018384D01*
X3949384Y-4018384D01*
X3949384Y-4095615D01*
X4026615Y-4095615D01*
X4026615Y-4349616D02*
X4026615Y-4272385D01*
X3949384Y-4272385D01*
X3949384Y-4349616D01*
X4026615Y-4349616D01*
X4026615Y-4603616D02*
X4026615Y-4526385D01*
X3949384Y-4526385D01*
X3949384Y-4603616D01*
X4026615Y-4603616D01*
X4026615Y-4857616D02*
X4026615Y-4780385D01*
X3949384Y-4780385D01*
X3949384Y-4857616D01*
X4026615Y-4857616D01*
X4026615Y-5111616D02*
X4026615Y-5034385D01*
X3949384Y-5034385D01*
X3949384Y-5111616D01*
X4026615Y-5111616D01*
X4026615Y-5365616D02*
X4026615Y-5288385D01*
X3949384Y-5288385D01*
X3949384Y-5365616D01*
X4026615Y-5365616D01*
X4026615Y-5619615D02*
X4026615Y-5542385D01*
X3949384Y-5542385D01*
X3949384Y-5619615D01*
X4026615Y-5619615D01*
X4026615Y-5873615D02*
X4026615Y-5796384D01*
X3949384Y-5796384D01*
X3949384Y-5873615D01*
X4026615Y-5873615D01*
X4026615Y-6127615D02*
X4026615Y-6050384D01*
X3949384Y-6050384D01*
X3949384Y-6127615D01*
X4026615Y-6127615D01*
X4026615Y-6381615D02*
X4026615Y-6304384D01*
X3949384Y-6304384D01*
X3949384Y-6381615D01*
X4026615Y-6381615D01*
X4026615Y-6635615D02*
X4026615Y-6558384D01*
X3949384Y-6558384D01*
X3949384Y-6635615D01*
X4026615Y-6635615D01*
X5550616Y-3841615D02*
X5550616Y-3764384D01*
X5473385Y-3764384D01*
X5473385Y-3841615D01*
X5550616Y-3841615D01*
X5550616Y-4095615D02*
X5550616Y-4018384D01*
X5473385Y-4018384D01*
X5473385Y-4095615D01*
X5550616Y-4095615D01*
X5550616Y-4349616D02*
X5550616Y-4272385D01*
X5473385Y-4272385D01*
X5473385Y-4349616D01*
X5550616Y-4349616D01*
X5550616Y-4603616D02*
X5550616Y-4526385D01*
X5473385Y-4526385D01*
X5473385Y-4603616D01*
X5550616Y-4603616D01*
X5550616Y-4857616D02*
X5550616Y-4780385D01*
X5473385Y-4780385D01*
X5473385Y-4857616D01*
X5550616Y-4857616D01*
X5550616Y-5111616D02*
X5550616Y-5034385D01*
X5473385Y-5034385D01*
X5473385Y-5111616D01*
X5550616Y-5111616D01*
X5550616Y-5365616D02*
X5550616Y-5288385D01*
X5473385Y-5288385D01*
X5473385Y-5365616D01*
X5550616Y-5365616D01*
X5550616Y-5619615D02*
X5550616Y-5542385D01*
X5473385Y-5542385D01*
X5473385Y-5619615D01*
X5550616Y-5619615D01*
X5550616Y-5873615D02*
X5550616Y-5796384D01*
X5473385Y-5796384D01*
X5473385Y-5873615D01*
X5550616Y-5873615D01*
X5550616Y-6127615D02*
X5550616Y-6050384D01*
X5473385Y-6050384D01*
X5473385Y-6127615D01*
X5550616Y-6127615D01*
X5550616Y-6381615D02*
X5550616Y-6304384D01*
X5473385Y-6304384D01*
X5473385Y-6381615D01*
X5550616Y-6381615D01*
X5550616Y-6635615D02*
X5550616Y-6558384D01*
X5473385Y-6558384D01*
X5473385Y-6635615D01*
X5550616Y-6635615D01*
D15*
X6327000Y-3648000D02*
X6402000Y-3573000D01*
X6327000Y-3498000D01*
X6252000Y-3573000D01*
X6327000Y-3648000D01*
D10*
X6324192Y-3437821D02*
X6203299Y-3627584D01*
X6450701Y-3518416D02*
X6329808Y-3708179D01*
X6203299Y-3627584D02*
G75*
G03*
X6329808Y-3708179I63254J-40298D01*
G01*
X6450701Y-3518416D02*
G75*
G03*
X6324192Y-3437821I-63254J40298D01*
G01*
D15*
X6802000Y-5545500D02*
X6877000Y-5470500D01*
X6802000Y-5395500D01*
X6727000Y-5470500D01*
X6802000Y-5545500D01*
D10*
X6799192Y-5335321D02*
X6678299Y-5525084D01*
X6925701Y-5415916D02*
X6804808Y-5605679D01*
X6678299Y-5525084D02*
G75*
G03*
X6804808Y-5605679I63254J-40298D01*
G01*
X6925701Y-5415916D02*
G75*
G03*
X6799192Y-5335321I-63254J40298D01*
G01*
D15*
X6904500Y-3521000D02*
X6979500Y-3446000D01*
X6904500Y-3371000D01*
X6829500Y-3446000D01*
X6904500Y-3521000D01*
D10*
X6831646Y-3411966D02*
X6827701Y-3469832D01*
X6981299Y-3422168D02*
X6977354Y-3480034D01*
X6827701Y-3469832D02*
G75*
G03*
X6977354Y-3480034I74826J-5101D01*
G01*
X6981299Y-3422168D02*
G75*
G03*
X6831646Y-3411966I-74826J5101D01*
G01*
D15*
X7039500Y-7445500D02*
X7114500Y-7370500D01*
X7039500Y-7295500D01*
X6964500Y-7370500D01*
X7039500Y-7445500D01*
D10*
X7036692Y-7235321D02*
X6915799Y-7425084D01*
X7163201Y-7315916D02*
X7042308Y-7505679D01*
X6915799Y-7425084D02*
G75*
G03*
X7042308Y-7505679I63254J-40298D01*
G01*
X7163201Y-7315916D02*
G75*
G03*
X7036692Y-7235321I-63254J40298D01*
G01*
D15*
X7379500Y-5418500D02*
X7454500Y-5343500D01*
X7379500Y-5268500D01*
X7304500Y-5343500D01*
X7379500Y-5418500D01*
D10*
X7306646Y-5309466D02*
X7302701Y-5367332D01*
X7456299Y-5319668D02*
X7452354Y-5377534D01*
X7302701Y-5367332D02*
G75*
G03*
X7452354Y-5377534I74826J-5101D01*
G01*
X7456299Y-5319668D02*
G75*
G03*
X7306646Y-5309466I-74826J5101D01*
G01*
D15*
X7509500Y-11250500D02*
X7584500Y-11175500D01*
X7509500Y-11100500D01*
X7434500Y-11175500D01*
X7509500Y-11250500D01*
D10*
X7506692Y-11040321D02*
X7385799Y-11230084D01*
X7633201Y-11120916D02*
X7512308Y-11310679D01*
X7385799Y-11230084D02*
G75*
G03*
X7512308Y-11310679I63254J-40298D01*
G01*
X7633201Y-11120916D02*
G75*
G03*
X7506692Y-11040321I-63254J40298D01*
G01*
D15*
X7588000Y-10176500D02*
X7663000Y-10101500D01*
X7588000Y-10026500D01*
X7513000Y-10101500D01*
X7588000Y-10176500D01*
D10*
X7660854Y-10135534D02*
X7664799Y-10077668D01*
X7511201Y-10125332D02*
X7515146Y-10067466D01*
X7664799Y-10077668D02*
G75*
G03*
X7515146Y-10067466I-74826J5101D01*
G01*
X7511201Y-10125332D02*
G75*
G03*
X7660854Y-10135534I74826J-5101D01*
G01*
D15*
X7617000Y-7318500D02*
X7692000Y-7243500D01*
X7617000Y-7168500D01*
X7542000Y-7243500D01*
X7617000Y-7318500D01*
D10*
X7544146Y-7209466D02*
X7540201Y-7267332D01*
X7693799Y-7219668D02*
X7689854Y-7277534D01*
X7540201Y-7267332D02*
G75*
G03*
X7689854Y-7277534I74826J-5101D01*
G01*
X7693799Y-7219668D02*
G75*
G03*
X7544146Y-7209466I-74826J5101D01*
G01*
D15*
X8087000Y-11123500D02*
X8162000Y-11048500D01*
X8087000Y-10973500D01*
X8012000Y-11048500D01*
X8087000Y-11123500D01*
D10*
X8014146Y-11014466D02*
X8010201Y-11072332D01*
X8163799Y-11024668D02*
X8159854Y-11082534D01*
X8010201Y-11072332D02*
G75*
G03*
X8159854Y-11082534I74826J-5101D01*
G01*
X8163799Y-11024668D02*
G75*
G03*
X8014146Y-11014466I-74826J5101D01*
G01*
D15*
X8165500Y-10049500D02*
X8240500Y-9974500D01*
X8165500Y-9899500D01*
X8090500Y-9974500D01*
X8165500Y-10049500D01*
D10*
X8168308Y-10109679D02*
X8289201Y-9919916D01*
X8041799Y-10029084D02*
X8162692Y-9839321D01*
X8289201Y-9919916D02*
G75*
G03*
X8162692Y-9839321I-63254J40298D01*
G01*
X8041799Y-10029084D02*
G75*
G03*
X8168308Y-10109679I63254J-40298D01*
G01*
D15*
X8224500Y-3648000D02*
X8299500Y-3573000D01*
X8224500Y-3498000D01*
X8149500Y-3573000D01*
X8224500Y-3648000D01*
D10*
X8221692Y-3437821D02*
X8100799Y-3627584D01*
X8348201Y-3518416D02*
X8227308Y-3708179D01*
X8100799Y-3627584D02*
G75*
G03*
X8227308Y-3708179I63254J-40298D01*
G01*
X8348201Y-3518416D02*
G75*
G03*
X8221692Y-3437821I-63254J40298D01*
G01*
D15*
X8802000Y-3521000D02*
X8877000Y-3446000D01*
X8802000Y-3371000D01*
X8727000Y-3446000D01*
X8802000Y-3521000D01*
D10*
X8729146Y-3411966D02*
X8725201Y-3469832D01*
X8878799Y-3422168D02*
X8874854Y-3480034D01*
X8725201Y-3469832D02*
G75*
G03*
X8874854Y-3480034I74826J-5101D01*
G01*
X8878799Y-3422168D02*
G75*
G03*
X8729146Y-3411966I-74826J5101D01*
G01*
D15*
X9174500Y-5550500D02*
X9249500Y-5475500D01*
X9174500Y-5400500D01*
X9099500Y-5475500D01*
X9174500Y-5550500D01*
D10*
X9171692Y-5340321D02*
X9050799Y-5530084D01*
X9298201Y-5420916D02*
X9177308Y-5610679D01*
X9050799Y-5530084D02*
G75*
G03*
X9177308Y-5610679I63254J-40298D01*
G01*
X9298201Y-5420916D02*
G75*
G03*
X9171692Y-5340321I-63254J40298D01*
G01*
D15*
X9649500Y-7450500D02*
X9724500Y-7375500D01*
X9649500Y-7300500D01*
X9574500Y-7375500D01*
X9649500Y-7450500D01*
D10*
X9646692Y-7240321D02*
X9525799Y-7430084D01*
X9773201Y-7320916D02*
X9652308Y-7510679D01*
X9525799Y-7430084D02*
G75*
G03*
X9652308Y-7510679I63254J-40298D01*
G01*
X9773201Y-7320916D02*
G75*
G03*
X9646692Y-7240321I-63254J40298D01*
G01*
D15*
X9752000Y-5423500D02*
X9827000Y-5348500D01*
X9752000Y-5273500D01*
X9677000Y-5348500D01*
X9752000Y-5423500D01*
D10*
X9679146Y-5314466D02*
X9675201Y-5372332D01*
X9828799Y-5324668D02*
X9824854Y-5382534D01*
X9675201Y-5372332D02*
G75*
G03*
X9824854Y-5382534I74826J-5101D01*
G01*
X9828799Y-5324668D02*
G75*
G03*
X9679146Y-5314466I-74826J5101D01*
G01*
D15*
X9887000Y-11245500D02*
X9962000Y-11170500D01*
X9887000Y-11095500D01*
X9812000Y-11170500D01*
X9887000Y-11245500D01*
D10*
X9884192Y-11035321D02*
X9763299Y-11225084D01*
X10010701Y-11115916D02*
X9889808Y-11305679D01*
X9763299Y-11225084D02*
G75*
G03*
X9889808Y-11305679I63254J-40298D01*
G01*
X10010701Y-11115916D02*
G75*
G03*
X9884192Y-11035321I-63254J40298D01*
G01*
D15*
X10127000Y-3645500D02*
X10202000Y-3570500D01*
X10127000Y-3495500D01*
X10052000Y-3570500D01*
X10127000Y-3645500D01*
D10*
X10124192Y-3435321D02*
X10003299Y-3625084D01*
X10250701Y-3515916D02*
X10129808Y-3705679D01*
X10003299Y-3625084D02*
G75*
G03*
X10129808Y-3705679I63254J-40298D01*
G01*
X10250701Y-3515916D02*
G75*
G03*
X10124192Y-3435321I-63254J40298D01*
G01*
D15*
X10227000Y-7323500D02*
X10302000Y-7248500D01*
X10227000Y-7173500D01*
X10152000Y-7248500D01*
X10227000Y-7323500D01*
D10*
X10154146Y-7214466D02*
X10150201Y-7272332D01*
X10303799Y-7224668D02*
X10299854Y-7282534D01*
X10150201Y-7272332D02*
G75*
G03*
X10299854Y-7282534I74826J-5101D01*
G01*
X10303799Y-7224668D02*
G75*
G03*
X10154146Y-7214466I-74826J5101D01*
G01*
D15*
X10464500Y-11118500D02*
X10539500Y-11043500D01*
X10464500Y-10968500D01*
X10389500Y-11043500D01*
X10464500Y-11118500D01*
D10*
X10391646Y-11009466D02*
X10387701Y-11067332D01*
X10541299Y-11019668D02*
X10537354Y-11077534D01*
X10387701Y-11067332D02*
G75*
G03*
X10537354Y-11077534I74826J-5101D01*
G01*
X10541299Y-11019668D02*
G75*
G03*
X10391646Y-11009466I-74826J5101D01*
G01*
D15*
X10594500Y-9348000D02*
X10669500Y-9273000D01*
X10594500Y-9198000D01*
X10519500Y-9273000D01*
X10594500Y-9348000D01*
D10*
X10591692Y-9137821D02*
X10470799Y-9327584D01*
X10718201Y-9218416D02*
X10597308Y-9408179D01*
X10470799Y-9327584D02*
G75*
G03*
X10597308Y-9408179I63254J-40298D01*
G01*
X10718201Y-9218416D02*
G75*
G03*
X10591692Y-9137821I-63254J40298D01*
G01*
D15*
X10704500Y-3518500D02*
X10779500Y-3443500D01*
X10704500Y-3368500D01*
X10629500Y-3443500D01*
X10704500Y-3518500D01*
D10*
X10631646Y-3409466D02*
X10627701Y-3467332D01*
X10781299Y-3419668D02*
X10777354Y-3477534D01*
X10627701Y-3467332D02*
G75*
G03*
X10777354Y-3477534I74826J-5101D01*
G01*
X10781299Y-3419668D02*
G75*
G03*
X10631646Y-3409466I-74826J5101D01*
G01*
D15*
X11074500Y-5545500D02*
X11149500Y-5470500D01*
X11074500Y-5395500D01*
X10999500Y-5470500D01*
X11074500Y-5545500D01*
D10*
X11071692Y-5335321D02*
X10950799Y-5525084D01*
X11198201Y-5415916D02*
X11077308Y-5605679D01*
X10950799Y-5525084D02*
G75*
G03*
X11077308Y-5605679I63254J-40298D01*
G01*
X11198201Y-5415916D02*
G75*
G03*
X11071692Y-5335321I-63254J40298D01*
G01*
D15*
X11172000Y-9221000D02*
X11247000Y-9146000D01*
X11172000Y-9071000D01*
X11097000Y-9146000D01*
X11172000Y-9221000D01*
D10*
X11099146Y-9111966D02*
X11095201Y-9169832D01*
X11248799Y-9122168D02*
X11244854Y-9180034D01*
X11095201Y-9169832D02*
G75*
G03*
X11244854Y-9180034I74826J-5101D01*
G01*
X11248799Y-9122168D02*
G75*
G03*
X11099146Y-9111966I-74826J5101D01*
G01*
D15*
X11552000Y-7445500D02*
X11627000Y-7370500D01*
X11552000Y-7295500D01*
X11477000Y-7370500D01*
X11552000Y-7445500D01*
D10*
X11549192Y-7235321D02*
X11428299Y-7425084D01*
X11675701Y-7315916D02*
X11554808Y-7505679D01*
X11428299Y-7425084D02*
G75*
G03*
X11554808Y-7505679I63254J-40298D01*
G01*
X11675701Y-7315916D02*
G75*
G03*
X11549192Y-7235321I-63254J40298D01*
G01*
D15*
X11652000Y-5418500D02*
X11727000Y-5343500D01*
X11652000Y-5268500D01*
X11577000Y-5343500D01*
X11652000Y-5418500D01*
D10*
X11579146Y-5309466D02*
X11575201Y-5367332D01*
X11728799Y-5319668D02*
X11724854Y-5377534D01*
X11575201Y-5367332D02*
G75*
G03*
X11724854Y-5377534I74826J-5101D01*
G01*
X11728799Y-5319668D02*
G75*
G03*
X11579146Y-5309466I-74826J5101D01*
G01*
D15*
X12022000Y-3645500D02*
X12097000Y-3570500D01*
X12022000Y-3495500D01*
X11947000Y-3570500D01*
X12022000Y-3645500D01*
D10*
X12019192Y-3435321D02*
X11898299Y-3625084D01*
X12145701Y-3515916D02*
X12024808Y-3705679D01*
X11898299Y-3625084D02*
G75*
G03*
X12024808Y-3705679I63254J-40298D01*
G01*
X12145701Y-3515916D02*
G75*
G03*
X12019192Y-3435321I-63254J40298D01*
G01*
D15*
X12129500Y-7318500D02*
X12204500Y-7243500D01*
X12129500Y-7168500D01*
X12054500Y-7243500D01*
X12129500Y-7318500D01*
D10*
X12056646Y-7209466D02*
X12052701Y-7267332D01*
X12206299Y-7219668D02*
X12202354Y-7277534D01*
X12052701Y-7267332D02*
G75*
G03*
X12202354Y-7277534I74826J-5101D01*
G01*
X12206299Y-7219668D02*
G75*
G03*
X12056646Y-7209466I-74826J5101D01*
G01*
D15*
X12262000Y-11248000D02*
X12337000Y-11173000D01*
X12262000Y-11098000D01*
X12187000Y-11173000D01*
X12262000Y-11248000D01*
D10*
X12259192Y-11037821D02*
X12138299Y-11227584D01*
X12385701Y-11118416D02*
X12264808Y-11308179D01*
X12138299Y-11227584D02*
G75*
G03*
X12264808Y-11308179I63254J-40298D01*
G01*
X12385701Y-11118416D02*
G75*
G03*
X12259192Y-11037821I-63254J40298D01*
G01*
D15*
X12497000Y-9348000D02*
X12572000Y-9273000D01*
X12497000Y-9198000D01*
X12422000Y-9273000D01*
X12497000Y-9348000D01*
D10*
X12494192Y-9137821D02*
X12373299Y-9327584D01*
X12620701Y-9218416D02*
X12499808Y-9408179D01*
X12373299Y-9327584D02*
G75*
G03*
X12499808Y-9408179I63254J-40298D01*
G01*
X12620701Y-9218416D02*
G75*
G03*
X12494192Y-9137821I-63254J40298D01*
G01*
D15*
X12599500Y-3518500D02*
X12674500Y-3443500D01*
X12599500Y-3368500D01*
X12524500Y-3443500D01*
X12599500Y-3518500D01*
D10*
X12526646Y-3409466D02*
X12522701Y-3467332D01*
X12676299Y-3419668D02*
X12672354Y-3477534D01*
X12522701Y-3467332D02*
G75*
G03*
X12672354Y-3477534I74826J-5101D01*
G01*
X12676299Y-3419668D02*
G75*
G03*
X12526646Y-3409466I-74826J5101D01*
G01*
D15*
X12839500Y-11121000D02*
X12914500Y-11046000D01*
X12839500Y-10971000D01*
X12764500Y-11046000D01*
X12839500Y-11121000D01*
D10*
X12766646Y-11011966D02*
X12762701Y-11069832D01*
X12916299Y-11022168D02*
X12912354Y-11080034D01*
X12762701Y-11069832D02*
G75*
G03*
X12912354Y-11080034I74826J-5101D01*
G01*
X12916299Y-11022168D02*
G75*
G03*
X12766646Y-11011966I-74826J5101D01*
G01*
D15*
X12974500Y-5548000D02*
X13049500Y-5473000D01*
X12974500Y-5398000D01*
X12899500Y-5473000D01*
X12974500Y-5548000D01*
D10*
X12971692Y-5337821D02*
X12850799Y-5527584D01*
X13098201Y-5418416D02*
X12977308Y-5608179D01*
X12850799Y-5527584D02*
G75*
G03*
X12977308Y-5608179I63254J-40298D01*
G01*
X13098201Y-5418416D02*
G75*
G03*
X12971692Y-5337821I-63254J40298D01*
G01*
D15*
X13074500Y-9221000D02*
X13149500Y-9146000D01*
X13074500Y-9071000D01*
X12999500Y-9146000D01*
X13074500Y-9221000D01*
D10*
X13001646Y-9111966D02*
X12997701Y-9169832D01*
X13151299Y-9122168D02*
X13147354Y-9180034D01*
X12997701Y-9169832D02*
G75*
G03*
X13147354Y-9180034I74826J-5101D01*
G01*
X13151299Y-9122168D02*
G75*
G03*
X13001646Y-9111966I-74826J5101D01*
G01*
D15*
X13454500Y-7448000D02*
X13529500Y-7373000D01*
X13454500Y-7298000D01*
X13379500Y-7373000D01*
X13454500Y-7448000D01*
D10*
X13451692Y-7237821D02*
X13330799Y-7427584D01*
X13578201Y-7318416D02*
X13457308Y-7508179D01*
X13330799Y-7427584D02*
G75*
G03*
X13457308Y-7508179I63254J-40298D01*
G01*
X13578201Y-7318416D02*
G75*
G03*
X13451692Y-7237821I-63254J40298D01*
G01*
D15*
X13552000Y-5421000D02*
X13627000Y-5346000D01*
X13552000Y-5271000D01*
X13477000Y-5346000D01*
X13552000Y-5421000D01*
D10*
X13479146Y-5311966D02*
X13475201Y-5369832D01*
X13628799Y-5322168D02*
X13624854Y-5380034D01*
X13475201Y-5369832D02*
G75*
G03*
X13624854Y-5380034I74826J-5101D01*
G01*
X13628799Y-5322168D02*
G75*
G03*
X13479146Y-5311966I-74826J5101D01*
G01*
D15*
X13924500Y-3648000D02*
X13999500Y-3573000D01*
X13924500Y-3498000D01*
X13849500Y-3573000D01*
X13924500Y-3648000D01*
D10*
X13921692Y-3437821D02*
X13800799Y-3627584D01*
X14048201Y-3518416D02*
X13927308Y-3708179D01*
X13800799Y-3627584D02*
G75*
G03*
X13927308Y-3708179I63254J-40298D01*
G01*
X14048201Y-3518416D02*
G75*
G03*
X13921692Y-3437821I-63254J40298D01*
G01*
D15*
X14032000Y-7321000D02*
X14107000Y-7246000D01*
X14032000Y-7171000D01*
X13957000Y-7246000D01*
X14032000Y-7321000D01*
D10*
X13959146Y-7211966D02*
X13955201Y-7269832D01*
X14108799Y-7222168D02*
X14104854Y-7280034D01*
X13955201Y-7269832D02*
G75*
G03*
X14104854Y-7280034I74826J-5101D01*
G01*
X14108799Y-7222168D02*
G75*
G03*
X13959146Y-7211966I-74826J5101D01*
G01*
D15*
X14397000Y-9350500D02*
X14472000Y-9275500D01*
X14397000Y-9200500D01*
X14322000Y-9275500D01*
X14397000Y-9350500D01*
D10*
X14394192Y-9140321D02*
X14273299Y-9330084D01*
X14520701Y-9220916D02*
X14399808Y-9410679D01*
X14273299Y-9330084D02*
G75*
G03*
X14399808Y-9410679I63254J-40298D01*
G01*
X14520701Y-9220916D02*
G75*
G03*
X14394192Y-9140321I-63254J40298D01*
G01*
D15*
X14502000Y-3521000D02*
X14577000Y-3446000D01*
X14502000Y-3371000D01*
X14427000Y-3446000D01*
X14502000Y-3521000D01*
D10*
X14429146Y-3411966D02*
X14425201Y-3469832D01*
X14578799Y-3422168D02*
X14574854Y-3480034D01*
X14425201Y-3469832D02*
G75*
G03*
X14574854Y-3480034I74826J-5101D01*
G01*
X14578799Y-3422168D02*
G75*
G03*
X14429146Y-3411966I-74826J5101D01*
G01*
D15*
X14884500Y-5548000D02*
X14959500Y-5473000D01*
X14884500Y-5398000D01*
X14809500Y-5473000D01*
X14884500Y-5548000D01*
D10*
X14881692Y-5337821D02*
X14760799Y-5527584D01*
X15008201Y-5418416D02*
X14887308Y-5608179D01*
X14760799Y-5527584D02*
G75*
G03*
X14887308Y-5608179I63254J-40298D01*
G01*
X15008201Y-5418416D02*
G75*
G03*
X14881692Y-5337821I-63254J40298D01*
G01*
D15*
X14974500Y-9223500D02*
X15049500Y-9148500D01*
X14974500Y-9073500D01*
X14899500Y-9148500D01*
X14974500Y-9223500D01*
D10*
X14901646Y-9114466D02*
X14897701Y-9172332D01*
X15051299Y-9124668D02*
X15047354Y-9182534D01*
X14897701Y-9172332D02*
G75*
G03*
X15047354Y-9182534I74826J-5101D01*
G01*
X15051299Y-9124668D02*
G75*
G03*
X14901646Y-9114466I-74826J5101D01*
G01*
D15*
X15354500Y-7443000D02*
X15429500Y-7368000D01*
X15354500Y-7293000D01*
X15279500Y-7368000D01*
X15354500Y-7443000D01*
D10*
X15351692Y-7232821D02*
X15230799Y-7422584D01*
X15478201Y-7313416D02*
X15357308Y-7503179D01*
X15230799Y-7422584D02*
G75*
G03*
X15357308Y-7503179I63254J-40298D01*
G01*
X15478201Y-7313416D02*
G75*
G03*
X15351692Y-7232821I-63254J40298D01*
G01*
D15*
X15462000Y-5421000D02*
X15537000Y-5346000D01*
X15462000Y-5271000D01*
X15387000Y-5346000D01*
X15462000Y-5421000D01*
D10*
X15389146Y-5311966D02*
X15385201Y-5369832D01*
X15538799Y-5322168D02*
X15534854Y-5380034D01*
X15385201Y-5369832D02*
G75*
G03*
X15534854Y-5380034I74826J-5101D01*
G01*
X15538799Y-5322168D02*
G75*
G03*
X15389146Y-5311966I-74826J5101D01*
G01*
D15*
X15587000Y-11248000D02*
X15662000Y-11173000D01*
X15587000Y-11098000D01*
X15512000Y-11173000D01*
X15587000Y-11248000D01*
D10*
X15584192Y-11037821D02*
X15463299Y-11227584D01*
X15710701Y-11118416D02*
X15589808Y-11308179D01*
X15463299Y-11227584D02*
G75*
G03*
X15589808Y-11308179I63254J-40298D01*
G01*
X15710701Y-11118416D02*
G75*
G03*
X15584192Y-11037821I-63254J40298D01*
G01*
D15*
X15822000Y-3645500D02*
X15897000Y-3570500D01*
X15822000Y-3495500D01*
X15747000Y-3570500D01*
X15822000Y-3645500D01*
D10*
X15819192Y-3435321D02*
X15698299Y-3625084D01*
X15945701Y-3515916D02*
X15824808Y-3705679D01*
X15698299Y-3625084D02*
G75*
G03*
X15824808Y-3705679I63254J-40298D01*
G01*
X15945701Y-3515916D02*
G75*
G03*
X15819192Y-3435321I-63254J40298D01*
G01*
D15*
X15932000Y-7316000D02*
X16007000Y-7241000D01*
X15932000Y-7166000D01*
X15857000Y-7241000D01*
X15932000Y-7316000D01*
D10*
X15859146Y-7206966D02*
X15855201Y-7264832D01*
X16008799Y-7217168D02*
X16004854Y-7275034D01*
X15855201Y-7264832D02*
G75*
G03*
X16004854Y-7275034I74826J-5101D01*
G01*
X16008799Y-7217168D02*
G75*
G03*
X15859146Y-7206966I-74826J5101D01*
G01*
D15*
X16164500Y-11121000D02*
X16239500Y-11046000D01*
X16164500Y-10971000D01*
X16089500Y-11046000D01*
X16164500Y-11121000D01*
D10*
X16091646Y-11011966D02*
X16087701Y-11069832D01*
X16241299Y-11022168D02*
X16237354Y-11080034D01*
X16087701Y-11069832D02*
G75*
G03*
X16237354Y-11080034I74826J-5101D01*
G01*
X16241299Y-11022168D02*
G75*
G03*
X16091646Y-11011966I-74826J5101D01*
G01*
D15*
X16297000Y-9350500D02*
X16372000Y-9275500D01*
X16297000Y-9200500D01*
X16222000Y-9275500D01*
X16297000Y-9350500D01*
D10*
X16294192Y-9140321D02*
X16173299Y-9330084D01*
X16420701Y-9220916D02*
X16299808Y-9410679D01*
X16173299Y-9330084D02*
G75*
G03*
X16299808Y-9410679I63254J-40298D01*
G01*
X16420701Y-9220916D02*
G75*
G03*
X16294192Y-9140321I-63254J40298D01*
G01*
D15*
X16399500Y-3518500D02*
X16474500Y-3443500D01*
X16399500Y-3368500D01*
X16324500Y-3443500D01*
X16399500Y-3518500D01*
D10*
X16326646Y-3409466D02*
X16322701Y-3467332D01*
X16476299Y-3419668D02*
X16472354Y-3477534D01*
X16322701Y-3467332D02*
G75*
G03*
X16472354Y-3477534I74826J-5101D01*
G01*
X16476299Y-3419668D02*
G75*
G03*
X16326646Y-3409466I-74826J5101D01*
G01*
D15*
X16774500Y-5548000D02*
X16849500Y-5473000D01*
X16774500Y-5398000D01*
X16699500Y-5473000D01*
X16774500Y-5548000D01*
D10*
X16771692Y-5337821D02*
X16650799Y-5527584D01*
X16898201Y-5418416D02*
X16777308Y-5608179D01*
X16650799Y-5527584D02*
G75*
G03*
X16777308Y-5608179I63254J-40298D01*
G01*
X16898201Y-5418416D02*
G75*
G03*
X16771692Y-5337821I-63254J40298D01*
G01*
D15*
X16874500Y-9223500D02*
X16949500Y-9148500D01*
X16874500Y-9073500D01*
X16799500Y-9148500D01*
X16874500Y-9223500D01*
D10*
X16801646Y-9114466D02*
X16797701Y-9172332D01*
X16951299Y-9124668D02*
X16947354Y-9182534D01*
X16797701Y-9172332D02*
G75*
G03*
X16947354Y-9182534I74826J-5101D01*
G01*
X16951299Y-9124668D02*
G75*
G03*
X16801646Y-9114466I-74826J5101D01*
G01*
D15*
X17249500Y-7448000D02*
X17324500Y-7373000D01*
X17249500Y-7298000D01*
X17174500Y-7373000D01*
X17249500Y-7448000D01*
D10*
X17246692Y-7237821D02*
X17125799Y-7427584D01*
X17373201Y-7318416D02*
X17252308Y-7508179D01*
X17125799Y-7427584D02*
G75*
G03*
X17252308Y-7508179I63254J-40298D01*
G01*
X17373201Y-7318416D02*
G75*
G03*
X17246692Y-7237821I-63254J40298D01*
G01*
D15*
X17352000Y-5421000D02*
X17427000Y-5346000D01*
X17352000Y-5271000D01*
X17277000Y-5346000D01*
X17352000Y-5421000D01*
D10*
X17279146Y-5311966D02*
X17275201Y-5369832D01*
X17428799Y-5322168D02*
X17424854Y-5380034D01*
X17275201Y-5369832D02*
G75*
G03*
X17424854Y-5380034I74826J-5101D01*
G01*
X17428799Y-5322168D02*
G75*
G03*
X17279146Y-5311966I-74826J5101D01*
G01*
D15*
X17724500Y-3648000D02*
X17799500Y-3573000D01*
X17724500Y-3498000D01*
X17649500Y-3573000D01*
X17724500Y-3648000D01*
D10*
X17721692Y-3437821D02*
X17600799Y-3627584D01*
X17848201Y-3518416D02*
X17727308Y-3708179D01*
X17600799Y-3627584D02*
G75*
G03*
X17727308Y-3708179I63254J-40298D01*
G01*
X17848201Y-3518416D02*
G75*
G03*
X17721692Y-3437821I-63254J40298D01*
G01*
D15*
X17827000Y-7321000D02*
X17902000Y-7246000D01*
X17827000Y-7171000D01*
X17752000Y-7246000D01*
X17827000Y-7321000D01*
D10*
X17754146Y-7211966D02*
X17750201Y-7269832D01*
X17903799Y-7222168D02*
X17899854Y-7280034D01*
X17750201Y-7269832D02*
G75*
G03*
X17899854Y-7280034I74826J-5101D01*
G01*
X17903799Y-7222168D02*
G75*
G03*
X17754146Y-7211966I-74826J5101D01*
G01*
D15*
X18097021Y-11647901D02*
X18172021Y-11572901D01*
X18097021Y-11497901D01*
X18022021Y-11572901D01*
X18097021Y-11647901D01*
D10*
X18140616Y-11444913D02*
X17962112Y-11581885D01*
X18231931Y-11563916D02*
X18053426Y-11700888D01*
X17962112Y-11581885D02*
G75*
G03*
X18053426Y-11700888I45657J-59502D01*
G01*
X18231931Y-11563916D02*
G75*
G03*
X18140616Y-11444913I-45657J59502D01*
G01*
D15*
X18197000Y-9350500D02*
X18272000Y-9275500D01*
X18197000Y-9200500D01*
X18122000Y-9275500D01*
X18197000Y-9350500D01*
D10*
X18194192Y-9140321D02*
X18073299Y-9330084D01*
X18320701Y-9220916D02*
X18199808Y-9410679D01*
X18073299Y-9330084D02*
G75*
G03*
X18199808Y-9410679I63254J-40298D01*
G01*
X18320701Y-9220916D02*
G75*
G03*
X18194192Y-9140321I-63254J40298D01*
G01*
D15*
X18302000Y-3521000D02*
X18377000Y-3446000D01*
X18302000Y-3371000D01*
X18227000Y-3446000D01*
X18302000Y-3521000D01*
D10*
X18229146Y-3411966D02*
X18225201Y-3469832D01*
X18378799Y-3422168D02*
X18374854Y-3480034D01*
X18225201Y-3469832D02*
G75*
G03*
X18374854Y-3480034I74826J-5101D01*
G01*
X18378799Y-3422168D02*
G75*
G03*
X18229146Y-3411966I-74826J5101D01*
G01*
D15*
X18674500Y-5553000D02*
X18749500Y-5478000D01*
X18674500Y-5403000D01*
X18599500Y-5478000D01*
X18674500Y-5553000D01*
D10*
X18671692Y-5342821D02*
X18550799Y-5532584D01*
X18798201Y-5423416D02*
X18677308Y-5613179D01*
X18550799Y-5532584D02*
G75*
G03*
X18677308Y-5613179I63254J-40298D01*
G01*
X18798201Y-5423416D02*
G75*
G03*
X18671692Y-5342821I-63254J40298D01*
G01*
D15*
X18683130Y-11726076D02*
X18758130Y-11651076D01*
X18683130Y-11576076D01*
X18608130Y-11651076D01*
X18683130Y-11726076D01*
D10*
X18626310Y-11594177D02*
X18602812Y-11647204D01*
X18763448Y-11654949D02*
X18739950Y-11707975D01*
X18602812Y-11647204D02*
G75*
G03*
X18739950Y-11707975I68569J-30386D01*
G01*
X18763448Y-11654948D02*
G75*
G03*
X18626310Y-11594177I-68569J30386D01*
G01*
D15*
X18774500Y-9223500D02*
X18849500Y-9148500D01*
X18774500Y-9073500D01*
X18699500Y-9148500D01*
X18774500Y-9223500D01*
D10*
X18701646Y-9114466D02*
X18697701Y-9172332D01*
X18851299Y-9124668D02*
X18847354Y-9182534D01*
X18697701Y-9172332D02*
G75*
G03*
X18847354Y-9182534I74826J-5101D01*
G01*
X18851299Y-9124668D02*
G75*
G03*
X18701646Y-9114466I-74826J5101D01*
G01*
D15*
X19149500Y-7445500D02*
X19224500Y-7370500D01*
X19149500Y-7295500D01*
X19074500Y-7370500D01*
X19149500Y-7445500D01*
D10*
X19146692Y-7235321D02*
X19025799Y-7425084D01*
X19273201Y-7315916D02*
X19152308Y-7505679D01*
X19025799Y-7425084D02*
G75*
G03*
X19152308Y-7505679I63254J-40298D01*
G01*
X19273201Y-7315916D02*
G75*
G03*
X19146692Y-7235321I-63254J40298D01*
G01*
D15*
X19252000Y-5426000D02*
X19327000Y-5351000D01*
X19252000Y-5276000D01*
X19177000Y-5351000D01*
X19252000Y-5426000D01*
D10*
X19179146Y-5316966D02*
X19175201Y-5374832D01*
X19328799Y-5327168D02*
X19324854Y-5385034D01*
X19175201Y-5374832D02*
G75*
G03*
X19324854Y-5385034I74826J-5101D01*
G01*
X19328799Y-5327168D02*
G75*
G03*
X19179146Y-5316966I-74826J5101D01*
G01*
D15*
X19642021Y-12955401D02*
X19717021Y-12880401D01*
X19642021Y-12805401D01*
X19567021Y-12880401D01*
X19642021Y-12955401D01*
D10*
X19685616Y-12752413D02*
X19507112Y-12889385D01*
X19776931Y-12871416D02*
X19598426Y-13008388D01*
X19507112Y-12889385D02*
G75*
G03*
X19598426Y-13008388I45657J-59502D01*
G01*
X19776931Y-12871416D02*
G75*
G03*
X19685616Y-12752413I-45657J59502D01*
G01*
D15*
X19727000Y-7318500D02*
X19802000Y-7243500D01*
X19727000Y-7168500D01*
X19652000Y-7243500D01*
X19727000Y-7318500D01*
D10*
X19654146Y-7209466D02*
X19650201Y-7267332D01*
X19803799Y-7219668D02*
X19799854Y-7277534D01*
X19650201Y-7267332D02*
G75*
G03*
X19799854Y-7277534I74826J-5101D01*
G01*
X19803799Y-7219668D02*
G75*
G03*
X19654146Y-7209466I-74826J5101D01*
G01*
D15*
X20102000Y-9345500D02*
X20177000Y-9270500D01*
X20102000Y-9195500D01*
X20027000Y-9270500D01*
X20102000Y-9345500D01*
D10*
X20099192Y-9135321D02*
X19978299Y-9325084D01*
X20225701Y-9215916D02*
X20104808Y-9405679D01*
X19978299Y-9325084D02*
G75*
G03*
X20104808Y-9405679I63254J-40298D01*
G01*
X20225701Y-9215916D02*
G75*
G03*
X20099192Y-9135321I-63254J40298D01*
G01*
D15*
X20228130Y-13033576D02*
X20303130Y-12958576D01*
X20228130Y-12883576D01*
X20153130Y-12958576D01*
X20228130Y-13033576D01*
D10*
X20171310Y-12901677D02*
X20147812Y-12954704D01*
X20308448Y-12962449D02*
X20284950Y-13015475D01*
X20147812Y-12954704D02*
G75*
G03*
X20284950Y-13015475I68569J-30386D01*
G01*
X20308448Y-12962448D02*
G75*
G03*
X20171310Y-12901677I-68569J30386D01*
G01*
D15*
X20679500Y-9218500D02*
X20754500Y-9143500D01*
X20679500Y-9068500D01*
X20604500Y-9143500D01*
X20679500Y-9218500D01*
D10*
X20606646Y-9109466D02*
X20602701Y-9167332D01*
X20756299Y-9119668D02*
X20752354Y-9177534D01*
X20602701Y-9167332D02*
G75*
G03*
X20752354Y-9177534I74826J-5101D01*
G01*
X20756299Y-9119668D02*
G75*
G03*
X20606646Y-9109466I-74826J5101D01*
G01*
D16*
X4016125Y-9278500D02*
X4201125Y-9463500D01*
X4201125Y-9278500D02*
X4016125Y-9463500D01*
X4201125Y-9371000D02*
G75*
G03*
X4201125Y-9371000I-92500J0D01*
G01*
X4016125Y-9786500D02*
X4201125Y-9971500D01*
X4201125Y-9786500D02*
X4016125Y-9971500D01*
X4201125Y-9879000D02*
G75*
G03*
X4201125Y-9879000I-92500J0D01*
G01*
X4021500Y-7378500D02*
X4206500Y-7563500D01*
X4206500Y-7378500D02*
X4021500Y-7563500D01*
X4206500Y-7471000D02*
G75*
G03*
X4206500Y-7471000I-92500J0D01*
G01*
X4021500Y-7886500D02*
X4206500Y-8071500D01*
X4206500Y-7886500D02*
X4021500Y-8071500D01*
X4206500Y-7979000D02*
G75*
G03*
X4206500Y-7979000I-92500J0D01*
G01*
X5286125Y-9062500D02*
X5471125Y-9247500D01*
X5471125Y-9062500D02*
X5286125Y-9247500D01*
X5471125Y-9155000D02*
G75*
G03*
X5471125Y-9155000I-92500J0D01*
G01*
X5286125Y-9532500D02*
X5471125Y-9717500D01*
X5471125Y-9532500D02*
X5286125Y-9717500D01*
X5471125Y-9625000D02*
G75*
G03*
X5471125Y-9625000I-92500J0D01*
G01*
X5286125Y-10002500D02*
X5471125Y-10187500D01*
X5471125Y-10002500D02*
X5286125Y-10187500D01*
X5471125Y-10095000D02*
G75*
G03*
X5471125Y-10095000I-92500J0D01*
G01*
X5291500Y-7162500D02*
X5476500Y-7347500D01*
X5476500Y-7162500D02*
X5291500Y-7347500D01*
X5476500Y-7255000D02*
G75*
G03*
X5476500Y-7255000I-92500J0D01*
G01*
X5291500Y-7632500D02*
X5476500Y-7817500D01*
X5476500Y-7632500D02*
X5291500Y-7817500D01*
X5476500Y-7725000D02*
G75*
G03*
X5476500Y-7725000I-92500J0D01*
G01*
X5291500Y-8102500D02*
X5476500Y-8287500D01*
X5476500Y-8102500D02*
X5291500Y-8287500D01*
X5476500Y-8195000D02*
G75*
G03*
X5476500Y-8195000I-92500J0D01*
G01*
D10*
X4050119Y-14907886D02*
X4050119Y-14707886D01*
X4097738Y-14707886D01*
X4126309Y-14717410D01*
X4145357Y-14736458D01*
X4154881Y-14755505D01*
X4164405Y-14793600D01*
X4164405Y-14822172D01*
X4154881Y-14860267D01*
X4145357Y-14879315D01*
X4126309Y-14898362D01*
X4097738Y-14907886D01*
X4050119Y-14907886D01*
X4250119Y-14907886D02*
X4250119Y-14774553D01*
X4250119Y-14812648D02*
X4259643Y-14793600D01*
X4269167Y-14784077D01*
X4288214Y-14774553D01*
X4307262Y-14774553D01*
X4373929Y-14907886D02*
X4373929Y-14774553D01*
X4373929Y-14707886D02*
X4364405Y-14717410D01*
X4373929Y-14726934D01*
X4383452Y-14717410D01*
X4373929Y-14707886D01*
X4373929Y-14726934D01*
X4497738Y-14907886D02*
X4478690Y-14898362D01*
X4469167Y-14879315D01*
X4469167Y-14707886D01*
X4602500Y-14907886D02*
X4583452Y-14898362D01*
X4573929Y-14879315D01*
X4573929Y-14707886D01*
X4831071Y-14907886D02*
X4831071Y-14707886D01*
X4897738Y-14850743D01*
X4964405Y-14707886D01*
X4964405Y-14907886D01*
X5145357Y-14907886D02*
X5145357Y-14803124D01*
X5135833Y-14784077D01*
X5116786Y-14774553D01*
X5078690Y-14774553D01*
X5059643Y-14784077D01*
X5145357Y-14898362D02*
X5126310Y-14907886D01*
X5078690Y-14907886D01*
X5059643Y-14898362D01*
X5050119Y-14879315D01*
X5050119Y-14860267D01*
X5059643Y-14841219D01*
X5078690Y-14831696D01*
X5126310Y-14831696D01*
X5145357Y-14822172D01*
X5240595Y-14774553D02*
X5240595Y-14974553D01*
X5240595Y-14784077D02*
X5259643Y-14774553D01*
X5297738Y-14774553D01*
X5316786Y-14784077D01*
X5326310Y-14793600D01*
X5335833Y-14812648D01*
X5335833Y-14869791D01*
X5326310Y-14888838D01*
X5316786Y-14898362D01*
X5297738Y-14907886D01*
X5259643Y-14907886D01*
X5240595Y-14898362D01*
X5421548Y-14888838D02*
X5431071Y-14898362D01*
X5421548Y-14907886D01*
X5412024Y-14898362D01*
X5421548Y-14888838D01*
X5421548Y-14907886D01*
X5421548Y-14784077D02*
X5431071Y-14793600D01*
X5421548Y-14803124D01*
X5412024Y-14793600D01*
X5421548Y-14784077D01*
X5421548Y-14803124D01*
D11*
X3752500Y-15217410D02*
X3792500Y-15257410D01*
X3792500Y-15217410D02*
X3752500Y-15257410D01*
D10*
X4088214Y-15127886D02*
X4107262Y-15127886D01*
X4126309Y-15137410D01*
X4135833Y-15146934D01*
X4145357Y-15165981D01*
X4154881Y-15204077D01*
X4154881Y-15251696D01*
X4145357Y-15289791D01*
X4135833Y-15308838D01*
X4126309Y-15318362D01*
X4107262Y-15327886D01*
X4088214Y-15327886D01*
X4069167Y-15318362D01*
X4059643Y-15308838D01*
X4050119Y-15289791D01*
X4040595Y-15251696D01*
X4040595Y-15204077D01*
X4050119Y-15165981D01*
X4059643Y-15146934D01*
X4069167Y-15137410D01*
X4088214Y-15127886D01*
X4240595Y-15308838D02*
X4250119Y-15318362D01*
X4240595Y-15327886D01*
X4231071Y-15318362D01*
X4240595Y-15308838D01*
X4240595Y-15327886D01*
X4421548Y-15194553D02*
X4421548Y-15327886D01*
X4373929Y-15118362D02*
X4326310Y-15261219D01*
X4450119Y-15261219D01*
X4564405Y-15127886D02*
X4583452Y-15127886D01*
X4602500Y-15137410D01*
X4612024Y-15146934D01*
X4621548Y-15165981D01*
X4631071Y-15204077D01*
X4631071Y-15251696D01*
X4621548Y-15289791D01*
X4612024Y-15308838D01*
X4602500Y-15318362D01*
X4583452Y-15327886D01*
X4564405Y-15327886D01*
X4545357Y-15318362D01*
X4535833Y-15308838D01*
X4526310Y-15289791D01*
X4516786Y-15251696D01*
X4516786Y-15204077D01*
X4526310Y-15165981D01*
X4535833Y-15146934D01*
X4545357Y-15137410D01*
X4564405Y-15127886D01*
X4754881Y-15127886D02*
X4773929Y-15127886D01*
X4792976Y-15137410D01*
X4802500Y-15146934D01*
X4812024Y-15165981D01*
X4821548Y-15204077D01*
X4821548Y-15251696D01*
X4812024Y-15289791D01*
X4802500Y-15308838D01*
X4792976Y-15318362D01*
X4773929Y-15327886D01*
X4754881Y-15327886D01*
X4735833Y-15318362D01*
X4726310Y-15308838D01*
X4716786Y-15289791D01*
X4707262Y-15251696D01*
X4707262Y-15204077D01*
X4716786Y-15165981D01*
X4726310Y-15146934D01*
X4735833Y-15137410D01*
X4754881Y-15127886D01*
X4907262Y-15327886D02*
X4907262Y-15194553D01*
X4907262Y-15213600D02*
X4916786Y-15204077D01*
X4935833Y-15194553D01*
X4964405Y-15194553D01*
X4983452Y-15204077D01*
X4992976Y-15223124D01*
X4992976Y-15327886D01*
X4992976Y-15223124D02*
X5002500Y-15204077D01*
X5021548Y-15194553D01*
X5050119Y-15194553D01*
X5069167Y-15204077D01*
X5078690Y-15223124D01*
X5078690Y-15327886D01*
X5173929Y-15327886D02*
X5173929Y-15194553D01*
X5173929Y-15213600D02*
X5183452Y-15204077D01*
X5202500Y-15194553D01*
X5231071Y-15194553D01*
X5250119Y-15204077D01*
X5259643Y-15223124D01*
X5259643Y-15327886D01*
X5259643Y-15223124D02*
X5269167Y-15204077D01*
X5288214Y-15194553D01*
X5316786Y-15194553D01*
X5335833Y-15204077D01*
X5345357Y-15223124D01*
X5345357Y-15327886D01*
X5735833Y-15118362D02*
X5564405Y-15375505D01*
X5992976Y-15127886D02*
X6012024Y-15127886D01*
X6031071Y-15137410D01*
X6040595Y-15146934D01*
X6050119Y-15165981D01*
X6059643Y-15204077D01*
X6059643Y-15251696D01*
X6050119Y-15289791D01*
X6040595Y-15308838D01*
X6031071Y-15318362D01*
X6012024Y-15327886D01*
X5992976Y-15327886D01*
X5973928Y-15318362D01*
X5964405Y-15308838D01*
X5954881Y-15289791D01*
X5945357Y-15251696D01*
X5945357Y-15204077D01*
X5954881Y-15165981D01*
X5964405Y-15146934D01*
X5973928Y-15137410D01*
X5992976Y-15127886D01*
X6145357Y-15308838D02*
X6154881Y-15318362D01*
X6145357Y-15327886D01*
X6135833Y-15318362D01*
X6145357Y-15308838D01*
X6145357Y-15327886D01*
X6278690Y-15127886D02*
X6297738Y-15127886D01*
X6316786Y-15137410D01*
X6326309Y-15146934D01*
X6335833Y-15165981D01*
X6345357Y-15204077D01*
X6345357Y-15251696D01*
X6335833Y-15289791D01*
X6326309Y-15308838D01*
X6316786Y-15318362D01*
X6297738Y-15327886D01*
X6278690Y-15327886D01*
X6259643Y-15318362D01*
X6250119Y-15308838D01*
X6240595Y-15289791D01*
X6231071Y-15251696D01*
X6231071Y-15204077D01*
X6240595Y-15165981D01*
X6250119Y-15146934D01*
X6259643Y-15137410D01*
X6278690Y-15127886D01*
X6535833Y-15327886D02*
X6421548Y-15327886D01*
X6478690Y-15327886D02*
X6478690Y-15127886D01*
X6459643Y-15156458D01*
X6440595Y-15175505D01*
X6421548Y-15185029D01*
X6716786Y-15127886D02*
X6621548Y-15127886D01*
X6612024Y-15223124D01*
X6621548Y-15213600D01*
X6640595Y-15204077D01*
X6688214Y-15204077D01*
X6707262Y-15213600D01*
X6716786Y-15223124D01*
X6726309Y-15242172D01*
X6726309Y-15289791D01*
X6716786Y-15308838D01*
X6707262Y-15318362D01*
X6688214Y-15327886D01*
X6640595Y-15327886D01*
X6621548Y-15318362D01*
X6612024Y-15308838D01*
X6792976Y-15127886D02*
X6926309Y-15127886D01*
X6840595Y-15327886D01*
X6992976Y-15127886D02*
X6992976Y-15165981D01*
X7069167Y-15127886D02*
X7069167Y-15165981D01*
X7364405Y-15404077D02*
X7354881Y-15394553D01*
X7335833Y-15365981D01*
X7326309Y-15346934D01*
X7316786Y-15318362D01*
X7307262Y-15270743D01*
X7307262Y-15232648D01*
X7316786Y-15185029D01*
X7326309Y-15156458D01*
X7335833Y-15137410D01*
X7354881Y-15108838D01*
X7364405Y-15099315D01*
X7469167Y-15213600D02*
X7450119Y-15204077D01*
X7440595Y-15194553D01*
X7431071Y-15175505D01*
X7431071Y-15165981D01*
X7440595Y-15146934D01*
X7450119Y-15137410D01*
X7469167Y-15127886D01*
X7507262Y-15127886D01*
X7526309Y-15137410D01*
X7535833Y-15146934D01*
X7545357Y-15165981D01*
X7545357Y-15175505D01*
X7535833Y-15194553D01*
X7526309Y-15204077D01*
X7507262Y-15213600D01*
X7469167Y-15213600D01*
X7450119Y-15223124D01*
X7440595Y-15232648D01*
X7431071Y-15251696D01*
X7431071Y-15289791D01*
X7440595Y-15308838D01*
X7450119Y-15318362D01*
X7469167Y-15327886D01*
X7507262Y-15327886D01*
X7526309Y-15318362D01*
X7535833Y-15308838D01*
X7545357Y-15289791D01*
X7545357Y-15251696D01*
X7535833Y-15232648D01*
X7526309Y-15223124D01*
X7507262Y-15213600D01*
X7783452Y-15327886D02*
X7783452Y-15127886D01*
X7869167Y-15327886D02*
X7869167Y-15223124D01*
X7859643Y-15204077D01*
X7840595Y-15194553D01*
X7812024Y-15194553D01*
X7792976Y-15204077D01*
X7783452Y-15213600D01*
X7992976Y-15327886D02*
X7973928Y-15318362D01*
X7964405Y-15308838D01*
X7954881Y-15289791D01*
X7954881Y-15232648D01*
X7964405Y-15213600D01*
X7973928Y-15204077D01*
X7992976Y-15194553D01*
X8021548Y-15194553D01*
X8040595Y-15204077D01*
X8050119Y-15213600D01*
X8059643Y-15232648D01*
X8059643Y-15289791D01*
X8050119Y-15308838D01*
X8040595Y-15318362D01*
X8021548Y-15327886D01*
X7992976Y-15327886D01*
X8173928Y-15327886D02*
X8154881Y-15318362D01*
X8145357Y-15299315D01*
X8145357Y-15127886D01*
X8326309Y-15318362D02*
X8307262Y-15327886D01*
X8269167Y-15327886D01*
X8250119Y-15318362D01*
X8240595Y-15299315D01*
X8240595Y-15223124D01*
X8250119Y-15204077D01*
X8269167Y-15194553D01*
X8307262Y-15194553D01*
X8326309Y-15204077D01*
X8335833Y-15223124D01*
X8335833Y-15242172D01*
X8240595Y-15261219D01*
X8412024Y-15318362D02*
X8431071Y-15327886D01*
X8469167Y-15327886D01*
X8488214Y-15318362D01*
X8497738Y-15299315D01*
X8497738Y-15289791D01*
X8488214Y-15270743D01*
X8469167Y-15261219D01*
X8440595Y-15261219D01*
X8421548Y-15251696D01*
X8412024Y-15232648D01*
X8412024Y-15223124D01*
X8421548Y-15204077D01*
X8440595Y-15194553D01*
X8469167Y-15194553D01*
X8488214Y-15204077D01*
X8564405Y-15404077D02*
X8573929Y-15394553D01*
X8592976Y-15365981D01*
X8602500Y-15346934D01*
X8612024Y-15318362D01*
X8621548Y-15270743D01*
X8621548Y-15232648D01*
X8612024Y-15185029D01*
X8602500Y-15156458D01*
X8592976Y-15137410D01*
X8573929Y-15108838D01*
X8564405Y-15099315D01*
D12*
X3792500Y-15501410D02*
G75*
G03*
X3792500Y-15501410I-35000J0D01*
G01*
D10*
X4088214Y-15391886D02*
X4107262Y-15391886D01*
X4126309Y-15401410D01*
X4135833Y-15410934D01*
X4145357Y-15429981D01*
X4154881Y-15468077D01*
X4154881Y-15515696D01*
X4145357Y-15553791D01*
X4135833Y-15572838D01*
X4126309Y-15582362D01*
X4107262Y-15591886D01*
X4088214Y-15591886D01*
X4069167Y-15582362D01*
X4059643Y-15572838D01*
X4050119Y-15553791D01*
X4040595Y-15515696D01*
X4040595Y-15468077D01*
X4050119Y-15429981D01*
X4059643Y-15410934D01*
X4069167Y-15401410D01*
X4088214Y-15391886D01*
X4240595Y-15572838D02*
X4250119Y-15582362D01*
X4240595Y-15591886D01*
X4231071Y-15582362D01*
X4240595Y-15572838D01*
X4240595Y-15591886D01*
X4316786Y-15391886D02*
X4450119Y-15391886D01*
X4364405Y-15591886D01*
X4564405Y-15391886D02*
X4583452Y-15391886D01*
X4602500Y-15401410D01*
X4612024Y-15410934D01*
X4621548Y-15429981D01*
X4631071Y-15468077D01*
X4631071Y-15515696D01*
X4621548Y-15553791D01*
X4612024Y-15572838D01*
X4602500Y-15582362D01*
X4583452Y-15591886D01*
X4564405Y-15591886D01*
X4545357Y-15582362D01*
X4535833Y-15572838D01*
X4526310Y-15553791D01*
X4516786Y-15515696D01*
X4516786Y-15468077D01*
X4526310Y-15429981D01*
X4535833Y-15410934D01*
X4545357Y-15401410D01*
X4564405Y-15391886D01*
X4754881Y-15391886D02*
X4773929Y-15391886D01*
X4792976Y-15401410D01*
X4802500Y-15410934D01*
X4812024Y-15429981D01*
X4821548Y-15468077D01*
X4821548Y-15515696D01*
X4812024Y-15553791D01*
X4802500Y-15572838D01*
X4792976Y-15582362D01*
X4773929Y-15591886D01*
X4754881Y-15591886D01*
X4735833Y-15582362D01*
X4726310Y-15572838D01*
X4716786Y-15553791D01*
X4707262Y-15515696D01*
X4707262Y-15468077D01*
X4716786Y-15429981D01*
X4726310Y-15410934D01*
X4735833Y-15401410D01*
X4754881Y-15391886D01*
X4907262Y-15591886D02*
X4907262Y-15458553D01*
X4907262Y-15477600D02*
X4916786Y-15468077D01*
X4935833Y-15458553D01*
X4964405Y-15458553D01*
X4983452Y-15468077D01*
X4992976Y-15487124D01*
X4992976Y-15591886D01*
X4992976Y-15487124D02*
X5002500Y-15468077D01*
X5021548Y-15458553D01*
X5050119Y-15458553D01*
X5069167Y-15468077D01*
X5078690Y-15487124D01*
X5078690Y-15591886D01*
X5173929Y-15591886D02*
X5173929Y-15458553D01*
X5173929Y-15477600D02*
X5183452Y-15468077D01*
X5202500Y-15458553D01*
X5231071Y-15458553D01*
X5250119Y-15468077D01*
X5259643Y-15487124D01*
X5259643Y-15591886D01*
X5259643Y-15487124D02*
X5269167Y-15468077D01*
X5288214Y-15458553D01*
X5316786Y-15458553D01*
X5335833Y-15468077D01*
X5345357Y-15487124D01*
X5345357Y-15591886D01*
X5735833Y-15382362D02*
X5564405Y-15639505D01*
X5992976Y-15391886D02*
X6012024Y-15391886D01*
X6031071Y-15401410D01*
X6040595Y-15410934D01*
X6050119Y-15429981D01*
X6059643Y-15468077D01*
X6059643Y-15515696D01*
X6050119Y-15553791D01*
X6040595Y-15572838D01*
X6031071Y-15582362D01*
X6012024Y-15591886D01*
X5992976Y-15591886D01*
X5973928Y-15582362D01*
X5964405Y-15572838D01*
X5954881Y-15553791D01*
X5945357Y-15515696D01*
X5945357Y-15468077D01*
X5954881Y-15429981D01*
X5964405Y-15410934D01*
X5973928Y-15401410D01*
X5992976Y-15391886D01*
X6145357Y-15572838D02*
X6154881Y-15582362D01*
X6145357Y-15591886D01*
X6135833Y-15582362D01*
X6145357Y-15572838D01*
X6145357Y-15591886D01*
X6278690Y-15391886D02*
X6297738Y-15391886D01*
X6316786Y-15401410D01*
X6326309Y-15410934D01*
X6335833Y-15429981D01*
X6345357Y-15468077D01*
X6345357Y-15515696D01*
X6335833Y-15553791D01*
X6326309Y-15572838D01*
X6316786Y-15582362D01*
X6297738Y-15591886D01*
X6278690Y-15591886D01*
X6259643Y-15582362D01*
X6250119Y-15572838D01*
X6240595Y-15553791D01*
X6231071Y-15515696D01*
X6231071Y-15468077D01*
X6240595Y-15429981D01*
X6250119Y-15410934D01*
X6259643Y-15401410D01*
X6278690Y-15391886D01*
X6421548Y-15410934D02*
X6431071Y-15401410D01*
X6450119Y-15391886D01*
X6497738Y-15391886D01*
X6516786Y-15401410D01*
X6526309Y-15410934D01*
X6535833Y-15429981D01*
X6535833Y-15449029D01*
X6526309Y-15477600D01*
X6412024Y-15591886D01*
X6535833Y-15591886D01*
X6602500Y-15391886D02*
X6735833Y-15391886D01*
X6650119Y-15591886D01*
X6897738Y-15391886D02*
X6859643Y-15391886D01*
X6840595Y-15401410D01*
X6831071Y-15410934D01*
X6812024Y-15439505D01*
X6802500Y-15477600D01*
X6802500Y-15553791D01*
X6812024Y-15572838D01*
X6821548Y-15582362D01*
X6840595Y-15591886D01*
X6878690Y-15591886D01*
X6897738Y-15582362D01*
X6907262Y-15572838D01*
X6916786Y-15553791D01*
X6916786Y-15506172D01*
X6907262Y-15487124D01*
X6897738Y-15477600D01*
X6878690Y-15468077D01*
X6840595Y-15468077D01*
X6821548Y-15477600D01*
X6812024Y-15487124D01*
X6802500Y-15506172D01*
X6992976Y-15391886D02*
X6992976Y-15429981D01*
X7069167Y-15391886D02*
X7069167Y-15429981D01*
X7364405Y-15668077D02*
X7354881Y-15658553D01*
X7335833Y-15629981D01*
X7326309Y-15610934D01*
X7316786Y-15582362D01*
X7307262Y-15534743D01*
X7307262Y-15496648D01*
X7316786Y-15449029D01*
X7326309Y-15420458D01*
X7335833Y-15401410D01*
X7354881Y-15372838D01*
X7364405Y-15363315D01*
X7421548Y-15391886D02*
X7554881Y-15391886D01*
X7469167Y-15591886D01*
X7621548Y-15410934D02*
X7631071Y-15401410D01*
X7650119Y-15391886D01*
X7697738Y-15391886D01*
X7716786Y-15401410D01*
X7726309Y-15410934D01*
X7735833Y-15429981D01*
X7735833Y-15449029D01*
X7726309Y-15477600D01*
X7612024Y-15591886D01*
X7735833Y-15591886D01*
X7973928Y-15591886D02*
X7973928Y-15391886D01*
X8059643Y-15591886D02*
X8059643Y-15487124D01*
X8050119Y-15468077D01*
X8031071Y-15458553D01*
X8002500Y-15458553D01*
X7983452Y-15468077D01*
X7973928Y-15477600D01*
X8183452Y-15591886D02*
X8164405Y-15582362D01*
X8154881Y-15572838D01*
X8145357Y-15553791D01*
X8145357Y-15496648D01*
X8154881Y-15477600D01*
X8164405Y-15468077D01*
X8183452Y-15458553D01*
X8212024Y-15458553D01*
X8231071Y-15468077D01*
X8240595Y-15477600D01*
X8250119Y-15496648D01*
X8250119Y-15553791D01*
X8240595Y-15572838D01*
X8231071Y-15582362D01*
X8212024Y-15591886D01*
X8183452Y-15591886D01*
X8364405Y-15591886D02*
X8345357Y-15582362D01*
X8335833Y-15563315D01*
X8335833Y-15391886D01*
X8516786Y-15582362D02*
X8497738Y-15591886D01*
X8459643Y-15591886D01*
X8440595Y-15582362D01*
X8431071Y-15563315D01*
X8431071Y-15487124D01*
X8440595Y-15468077D01*
X8459643Y-15458553D01*
X8497738Y-15458553D01*
X8516786Y-15468077D01*
X8526310Y-15487124D01*
X8526310Y-15506172D01*
X8431071Y-15525219D01*
X8602500Y-15582362D02*
X8621548Y-15591886D01*
X8659643Y-15591886D01*
X8678690Y-15582362D01*
X8688214Y-15563315D01*
X8688214Y-15553791D01*
X8678690Y-15534743D01*
X8659643Y-15525219D01*
X8631071Y-15525219D01*
X8612024Y-15515696D01*
X8602500Y-15496648D01*
X8602500Y-15487124D01*
X8612024Y-15468077D01*
X8631071Y-15458553D01*
X8659643Y-15458553D01*
X8678690Y-15468077D01*
X8754881Y-15668077D02*
X8764405Y-15658553D01*
X8783452Y-15629981D01*
X8792976Y-15610934D01*
X8802500Y-15582362D01*
X8812024Y-15534743D01*
X8812024Y-15496648D01*
X8802500Y-15449029D01*
X8792976Y-15420458D01*
X8783452Y-15401410D01*
X8764405Y-15372838D01*
X8754881Y-15363315D01*
D13*
X3747500Y-15720410D02*
X3747500Y-15810410D01*
X3702500Y-15765410D02*
X3792500Y-15765410D01*
D10*
X4088214Y-15655886D02*
X4107262Y-15655886D01*
X4126309Y-15665410D01*
X4135833Y-15674934D01*
X4145357Y-15693981D01*
X4154881Y-15732077D01*
X4154881Y-15779696D01*
X4145357Y-15817791D01*
X4135833Y-15836838D01*
X4126309Y-15846362D01*
X4107262Y-15855886D01*
X4088214Y-15855886D01*
X4069167Y-15846362D01*
X4059643Y-15836838D01*
X4050119Y-15817791D01*
X4040595Y-15779696D01*
X4040595Y-15732077D01*
X4050119Y-15693981D01*
X4059643Y-15674934D01*
X4069167Y-15665410D01*
X4088214Y-15655886D01*
X4240595Y-15836838D02*
X4250119Y-15846362D01*
X4240595Y-15855886D01*
X4231071Y-15846362D01*
X4240595Y-15836838D01*
X4240595Y-15855886D01*
X4345357Y-15855886D02*
X4383452Y-15855886D01*
X4402500Y-15846362D01*
X4412024Y-15836838D01*
X4431071Y-15808267D01*
X4440595Y-15770172D01*
X4440595Y-15693981D01*
X4431071Y-15674934D01*
X4421548Y-15665410D01*
X4402500Y-15655886D01*
X4364405Y-15655886D01*
X4345357Y-15665410D01*
X4335833Y-15674934D01*
X4326310Y-15693981D01*
X4326310Y-15741600D01*
X4335833Y-15760648D01*
X4345357Y-15770172D01*
X4364405Y-15779696D01*
X4402500Y-15779696D01*
X4421548Y-15770172D01*
X4431071Y-15760648D01*
X4440595Y-15741600D01*
X4564405Y-15655886D02*
X4583452Y-15655886D01*
X4602500Y-15665410D01*
X4612024Y-15674934D01*
X4621548Y-15693981D01*
X4631071Y-15732077D01*
X4631071Y-15779696D01*
X4621548Y-15817791D01*
X4612024Y-15836838D01*
X4602500Y-15846362D01*
X4583452Y-15855886D01*
X4564405Y-15855886D01*
X4545357Y-15846362D01*
X4535833Y-15836838D01*
X4526310Y-15817791D01*
X4516786Y-15779696D01*
X4516786Y-15732077D01*
X4526310Y-15693981D01*
X4535833Y-15674934D01*
X4545357Y-15665410D01*
X4564405Y-15655886D01*
X4754881Y-15655886D02*
X4773929Y-15655886D01*
X4792976Y-15665410D01*
X4802500Y-15674934D01*
X4812024Y-15693981D01*
X4821548Y-15732077D01*
X4821548Y-15779696D01*
X4812024Y-15817791D01*
X4802500Y-15836838D01*
X4792976Y-15846362D01*
X4773929Y-15855886D01*
X4754881Y-15855886D01*
X4735833Y-15846362D01*
X4726310Y-15836838D01*
X4716786Y-15817791D01*
X4707262Y-15779696D01*
X4707262Y-15732077D01*
X4716786Y-15693981D01*
X4726310Y-15674934D01*
X4735833Y-15665410D01*
X4754881Y-15655886D01*
X4907262Y-15855886D02*
X4907262Y-15722553D01*
X4907262Y-15741600D02*
X4916786Y-15732077D01*
X4935833Y-15722553D01*
X4964405Y-15722553D01*
X4983452Y-15732077D01*
X4992976Y-15751124D01*
X4992976Y-15855886D01*
X4992976Y-15751124D02*
X5002500Y-15732077D01*
X5021548Y-15722553D01*
X5050119Y-15722553D01*
X5069167Y-15732077D01*
X5078690Y-15751124D01*
X5078690Y-15855886D01*
X5173929Y-15855886D02*
X5173929Y-15722553D01*
X5173929Y-15741600D02*
X5183452Y-15732077D01*
X5202500Y-15722553D01*
X5231071Y-15722553D01*
X5250119Y-15732077D01*
X5259643Y-15751124D01*
X5259643Y-15855886D01*
X5259643Y-15751124D02*
X5269167Y-15732077D01*
X5288214Y-15722553D01*
X5316786Y-15722553D01*
X5335833Y-15732077D01*
X5345357Y-15751124D01*
X5345357Y-15855886D01*
X5735833Y-15646362D02*
X5564405Y-15903505D01*
X5992976Y-15655886D02*
X6012024Y-15655886D01*
X6031071Y-15665410D01*
X6040595Y-15674934D01*
X6050119Y-15693981D01*
X6059643Y-15732077D01*
X6059643Y-15779696D01*
X6050119Y-15817791D01*
X6040595Y-15836838D01*
X6031071Y-15846362D01*
X6012024Y-15855886D01*
X5992976Y-15855886D01*
X5973928Y-15846362D01*
X5964405Y-15836838D01*
X5954881Y-15817791D01*
X5945357Y-15779696D01*
X5945357Y-15732077D01*
X5954881Y-15693981D01*
X5964405Y-15674934D01*
X5973928Y-15665410D01*
X5992976Y-15655886D01*
X6145357Y-15836838D02*
X6154881Y-15846362D01*
X6145357Y-15855886D01*
X6135833Y-15846362D01*
X6145357Y-15836838D01*
X6145357Y-15855886D01*
X6278690Y-15655886D02*
X6297738Y-15655886D01*
X6316786Y-15665410D01*
X6326309Y-15674934D01*
X6335833Y-15693981D01*
X6345357Y-15732077D01*
X6345357Y-15779696D01*
X6335833Y-15817791D01*
X6326309Y-15836838D01*
X6316786Y-15846362D01*
X6297738Y-15855886D01*
X6278690Y-15855886D01*
X6259643Y-15846362D01*
X6250119Y-15836838D01*
X6240595Y-15817791D01*
X6231071Y-15779696D01*
X6231071Y-15732077D01*
X6240595Y-15693981D01*
X6250119Y-15674934D01*
X6259643Y-15665410D01*
X6278690Y-15655886D01*
X6412024Y-15655886D02*
X6535833Y-15655886D01*
X6469167Y-15732077D01*
X6497738Y-15732077D01*
X6516786Y-15741600D01*
X6526309Y-15751124D01*
X6535833Y-15770172D01*
X6535833Y-15817791D01*
X6526309Y-15836838D01*
X6516786Y-15846362D01*
X6497738Y-15855886D01*
X6440595Y-15855886D01*
X6421548Y-15846362D01*
X6412024Y-15836838D01*
X6716786Y-15655886D02*
X6621548Y-15655886D01*
X6612024Y-15751124D01*
X6621548Y-15741600D01*
X6640595Y-15732077D01*
X6688214Y-15732077D01*
X6707262Y-15741600D01*
X6716786Y-15751124D01*
X6726309Y-15770172D01*
X6726309Y-15817791D01*
X6716786Y-15836838D01*
X6707262Y-15846362D01*
X6688214Y-15855886D01*
X6640595Y-15855886D01*
X6621548Y-15846362D01*
X6612024Y-15836838D01*
X6897738Y-15722553D02*
X6897738Y-15855886D01*
X6850119Y-15646362D02*
X6802500Y-15789219D01*
X6926309Y-15789219D01*
X6992976Y-15655886D02*
X6992976Y-15693981D01*
X7069167Y-15655886D02*
X7069167Y-15693981D01*
X7364405Y-15932077D02*
X7354881Y-15922553D01*
X7335833Y-15893981D01*
X7326309Y-15874934D01*
X7316786Y-15846362D01*
X7307262Y-15798743D01*
X7307262Y-15760648D01*
X7316786Y-15713029D01*
X7326309Y-15684458D01*
X7335833Y-15665410D01*
X7354881Y-15636838D01*
X7364405Y-15627315D01*
X7478690Y-15655886D02*
X7497738Y-15655886D01*
X7516786Y-15665410D01*
X7526309Y-15674934D01*
X7535833Y-15693981D01*
X7545357Y-15732077D01*
X7545357Y-15779696D01*
X7535833Y-15817791D01*
X7526309Y-15836838D01*
X7516786Y-15846362D01*
X7497738Y-15855886D01*
X7478690Y-15855886D01*
X7459643Y-15846362D01*
X7450119Y-15836838D01*
X7440595Y-15817791D01*
X7431071Y-15779696D01*
X7431071Y-15732077D01*
X7440595Y-15693981D01*
X7450119Y-15674934D01*
X7459643Y-15665410D01*
X7478690Y-15655886D01*
X7783452Y-15855886D02*
X7783452Y-15655886D01*
X7869167Y-15855886D02*
X7869167Y-15751124D01*
X7859643Y-15732077D01*
X7840595Y-15722553D01*
X7812024Y-15722553D01*
X7792976Y-15732077D01*
X7783452Y-15741600D01*
X7992976Y-15855886D02*
X7973928Y-15846362D01*
X7964405Y-15836838D01*
X7954881Y-15817791D01*
X7954881Y-15760648D01*
X7964405Y-15741600D01*
X7973928Y-15732077D01*
X7992976Y-15722553D01*
X8021548Y-15722553D01*
X8040595Y-15732077D01*
X8050119Y-15741600D01*
X8059643Y-15760648D01*
X8059643Y-15817791D01*
X8050119Y-15836838D01*
X8040595Y-15846362D01*
X8021548Y-15855886D01*
X7992976Y-15855886D01*
X8173928Y-15855886D02*
X8154881Y-15846362D01*
X8145357Y-15827315D01*
X8145357Y-15655886D01*
X8326309Y-15846362D02*
X8307262Y-15855886D01*
X8269167Y-15855886D01*
X8250119Y-15846362D01*
X8240595Y-15827315D01*
X8240595Y-15751124D01*
X8250119Y-15732077D01*
X8269167Y-15722553D01*
X8307262Y-15722553D01*
X8326309Y-15732077D01*
X8335833Y-15751124D01*
X8335833Y-15770172D01*
X8240595Y-15789219D01*
X8412024Y-15846362D02*
X8431071Y-15855886D01*
X8469167Y-15855886D01*
X8488214Y-15846362D01*
X8497738Y-15827315D01*
X8497738Y-15817791D01*
X8488214Y-15798743D01*
X8469167Y-15789219D01*
X8440595Y-15789219D01*
X8421548Y-15779696D01*
X8412024Y-15760648D01*
X8412024Y-15751124D01*
X8421548Y-15732077D01*
X8440595Y-15722553D01*
X8469167Y-15722553D01*
X8488214Y-15732077D01*
X8735833Y-15779696D02*
X8888214Y-15779696D01*
X8812024Y-15855886D02*
X8812024Y-15703505D01*
X9221548Y-15722553D02*
X9221548Y-15855886D01*
X9173929Y-15646362D02*
X9126310Y-15789219D01*
X9250119Y-15789219D01*
X9469167Y-15846362D02*
X9488214Y-15855886D01*
X9526310Y-15855886D01*
X9545357Y-15846362D01*
X9554881Y-15827315D01*
X9554881Y-15817791D01*
X9545357Y-15798743D01*
X9526310Y-15789219D01*
X9497738Y-15789219D01*
X9478690Y-15779696D01*
X9469167Y-15760648D01*
X9469167Y-15751124D01*
X9478690Y-15732077D01*
X9497738Y-15722553D01*
X9526310Y-15722553D01*
X9545357Y-15732077D01*
X9669167Y-15855886D02*
X9650119Y-15846362D01*
X9640595Y-15827315D01*
X9640595Y-15655886D01*
X9773929Y-15855886D02*
X9754881Y-15846362D01*
X9745357Y-15836838D01*
X9735833Y-15817791D01*
X9735833Y-15760648D01*
X9745357Y-15741600D01*
X9754881Y-15732077D01*
X9773929Y-15722553D01*
X9802500Y-15722553D01*
X9821548Y-15732077D01*
X9831071Y-15741600D01*
X9840595Y-15760648D01*
X9840595Y-15817791D01*
X9831071Y-15836838D01*
X9821548Y-15846362D01*
X9802500Y-15855886D01*
X9773929Y-15855886D01*
X9897738Y-15722553D02*
X9973929Y-15722553D01*
X9926310Y-15655886D02*
X9926310Y-15827315D01*
X9935833Y-15846362D01*
X9954881Y-15855886D01*
X9973929Y-15855886D01*
X10031071Y-15846362D02*
X10050119Y-15855886D01*
X10088214Y-15855886D01*
X10107262Y-15846362D01*
X10116786Y-15827315D01*
X10116786Y-15817791D01*
X10107262Y-15798743D01*
X10088214Y-15789219D01*
X10059643Y-15789219D01*
X10040595Y-15779696D01*
X10031071Y-15760648D01*
X10031071Y-15751124D01*
X10040595Y-15732077D01*
X10059643Y-15722553D01*
X10088214Y-15722553D01*
X10107262Y-15732077D01*
X10183452Y-15932077D02*
X10192976Y-15922553D01*
X10212024Y-15893981D01*
X10221548Y-15874934D01*
X10231071Y-15846362D01*
X10240595Y-15798743D01*
X10240595Y-15760648D01*
X10231071Y-15713029D01*
X10221548Y-15684458D01*
X10212024Y-15665410D01*
X10192976Y-15636838D01*
X10183452Y-15627315D01*
D14*
X3776505Y-16068025D02*
X3776505Y-15990794D01*
X3699274Y-15990794D01*
X3699274Y-16068025D01*
X3776505Y-16068025D01*
D10*
X4154881Y-16119886D02*
X4040595Y-16119886D01*
X4097738Y-16119886D02*
X4097738Y-15919886D01*
X4078690Y-15948458D01*
X4059643Y-15967505D01*
X4040595Y-15977029D01*
X4240595Y-16100838D02*
X4250119Y-16110362D01*
X4240595Y-16119886D01*
X4231071Y-16110362D01*
X4240595Y-16100838D01*
X4240595Y-16119886D01*
X4373929Y-15919886D02*
X4392976Y-15919886D01*
X4412024Y-15929410D01*
X4421548Y-15938934D01*
X4431071Y-15957981D01*
X4440595Y-15996077D01*
X4440595Y-16043696D01*
X4431071Y-16081791D01*
X4421548Y-16100838D01*
X4412024Y-16110362D01*
X4392976Y-16119886D01*
X4373929Y-16119886D01*
X4354881Y-16110362D01*
X4345357Y-16100838D01*
X4335833Y-16081791D01*
X4326310Y-16043696D01*
X4326310Y-15996077D01*
X4335833Y-15957981D01*
X4345357Y-15938934D01*
X4354881Y-15929410D01*
X4373929Y-15919886D01*
X4535833Y-16119886D02*
X4573929Y-16119886D01*
X4592976Y-16110362D01*
X4602500Y-16100838D01*
X4621548Y-16072267D01*
X4631071Y-16034172D01*
X4631071Y-15957981D01*
X4621548Y-15938934D01*
X4612024Y-15929410D01*
X4592976Y-15919886D01*
X4554881Y-15919886D01*
X4535833Y-15929410D01*
X4526310Y-15938934D01*
X4516786Y-15957981D01*
X4516786Y-16005600D01*
X4526310Y-16024648D01*
X4535833Y-16034172D01*
X4554881Y-16043696D01*
X4592976Y-16043696D01*
X4612024Y-16034172D01*
X4621548Y-16024648D01*
X4631071Y-16005600D01*
X4707262Y-15938934D02*
X4716786Y-15929410D01*
X4735833Y-15919886D01*
X4783452Y-15919886D01*
X4802500Y-15929410D01*
X4812024Y-15938934D01*
X4821548Y-15957981D01*
X4821548Y-15977029D01*
X4812024Y-16005600D01*
X4697738Y-16119886D01*
X4821548Y-16119886D01*
X4907262Y-16119886D02*
X4907262Y-15986553D01*
X4907262Y-16005600D02*
X4916786Y-15996077D01*
X4935833Y-15986553D01*
X4964405Y-15986553D01*
X4983452Y-15996077D01*
X4992976Y-16015124D01*
X4992976Y-16119886D01*
X4992976Y-16015124D02*
X5002500Y-15996077D01*
X5021548Y-15986553D01*
X5050119Y-15986553D01*
X5069167Y-15996077D01*
X5078690Y-16015124D01*
X5078690Y-16119886D01*
X5173929Y-16119886D02*
X5173929Y-15986553D01*
X5173929Y-16005600D02*
X5183452Y-15996077D01*
X5202500Y-15986553D01*
X5231071Y-15986553D01*
X5250119Y-15996077D01*
X5259643Y-16015124D01*
X5259643Y-16119886D01*
X5259643Y-16015124D02*
X5269167Y-15996077D01*
X5288214Y-15986553D01*
X5316786Y-15986553D01*
X5335833Y-15996077D01*
X5345357Y-16015124D01*
X5345357Y-16119886D01*
X5735833Y-15910362D02*
X5564405Y-16167505D01*
X5992976Y-15919886D02*
X6012024Y-15919886D01*
X6031071Y-15929410D01*
X6040595Y-15938934D01*
X6050119Y-15957981D01*
X6059643Y-15996077D01*
X6059643Y-16043696D01*
X6050119Y-16081791D01*
X6040595Y-16100838D01*
X6031071Y-16110362D01*
X6012024Y-16119886D01*
X5992976Y-16119886D01*
X5973928Y-16110362D01*
X5964405Y-16100838D01*
X5954881Y-16081791D01*
X5945357Y-16043696D01*
X5945357Y-15996077D01*
X5954881Y-15957981D01*
X5964405Y-15938934D01*
X5973928Y-15929410D01*
X5992976Y-15919886D01*
X6145357Y-16100838D02*
X6154881Y-16110362D01*
X6145357Y-16119886D01*
X6135833Y-16110362D01*
X6145357Y-16100838D01*
X6145357Y-16119886D01*
X6278690Y-15919886D02*
X6297738Y-15919886D01*
X6316786Y-15929410D01*
X6326309Y-15938934D01*
X6335833Y-15957981D01*
X6345357Y-15996077D01*
X6345357Y-16043696D01*
X6335833Y-16081791D01*
X6326309Y-16100838D01*
X6316786Y-16110362D01*
X6297738Y-16119886D01*
X6278690Y-16119886D01*
X6259643Y-16110362D01*
X6250119Y-16100838D01*
X6240595Y-16081791D01*
X6231071Y-16043696D01*
X6231071Y-15996077D01*
X6240595Y-15957981D01*
X6250119Y-15938934D01*
X6259643Y-15929410D01*
X6278690Y-15919886D01*
X6516786Y-15986553D02*
X6516786Y-16119886D01*
X6469167Y-15910362D02*
X6421548Y-16053219D01*
X6545357Y-16053219D01*
X6602500Y-15919886D02*
X6726309Y-15919886D01*
X6659643Y-15996077D01*
X6688214Y-15996077D01*
X6707262Y-16005600D01*
X6716786Y-16015124D01*
X6726309Y-16034172D01*
X6726309Y-16081791D01*
X6716786Y-16100838D01*
X6707262Y-16110362D01*
X6688214Y-16119886D01*
X6631071Y-16119886D01*
X6612024Y-16110362D01*
X6602500Y-16100838D01*
X6850119Y-15919886D02*
X6869167Y-15919886D01*
X6888214Y-15929410D01*
X6897738Y-15938934D01*
X6907262Y-15957981D01*
X6916786Y-15996077D01*
X6916786Y-16043696D01*
X6907262Y-16081791D01*
X6897738Y-16100838D01*
X6888214Y-16110362D01*
X6869167Y-16119886D01*
X6850119Y-16119886D01*
X6831071Y-16110362D01*
X6821548Y-16100838D01*
X6812024Y-16081791D01*
X6802500Y-16043696D01*
X6802500Y-15996077D01*
X6812024Y-15957981D01*
X6821548Y-15938934D01*
X6831071Y-15929410D01*
X6850119Y-15919886D01*
X6992976Y-15919886D02*
X6992976Y-15957981D01*
X7069167Y-15919886D02*
X7069167Y-15957981D01*
X7364405Y-16196077D02*
X7354881Y-16186553D01*
X7335833Y-16157981D01*
X7326309Y-16138934D01*
X7316786Y-16110362D01*
X7307262Y-16062743D01*
X7307262Y-16024648D01*
X7316786Y-15977029D01*
X7326309Y-15948458D01*
X7335833Y-15929410D01*
X7354881Y-15900838D01*
X7364405Y-15891315D01*
X7431071Y-15938934D02*
X7440595Y-15929410D01*
X7459643Y-15919886D01*
X7507262Y-15919886D01*
X7526309Y-15929410D01*
X7535833Y-15938934D01*
X7545357Y-15957981D01*
X7545357Y-15977029D01*
X7535833Y-16005600D01*
X7421548Y-16119886D01*
X7545357Y-16119886D01*
X7716786Y-15986553D02*
X7716786Y-16119886D01*
X7669167Y-15910362D02*
X7621548Y-16053219D01*
X7745357Y-16053219D01*
X7973928Y-16119886D02*
X7973928Y-15919886D01*
X8059643Y-16119886D02*
X8059643Y-16015124D01*
X8050119Y-15996077D01*
X8031071Y-15986553D01*
X8002500Y-15986553D01*
X7983452Y-15996077D01*
X7973928Y-16005600D01*
X8183452Y-16119886D02*
X8164405Y-16110362D01*
X8154881Y-16100838D01*
X8145357Y-16081791D01*
X8145357Y-16024648D01*
X8154881Y-16005600D01*
X8164405Y-15996077D01*
X8183452Y-15986553D01*
X8212024Y-15986553D01*
X8231071Y-15996077D01*
X8240595Y-16005600D01*
X8250119Y-16024648D01*
X8250119Y-16081791D01*
X8240595Y-16100838D01*
X8231071Y-16110362D01*
X8212024Y-16119886D01*
X8183452Y-16119886D01*
X8364405Y-16119886D02*
X8345357Y-16110362D01*
X8335833Y-16091315D01*
X8335833Y-15919886D01*
X8516786Y-16110362D02*
X8497738Y-16119886D01*
X8459643Y-16119886D01*
X8440595Y-16110362D01*
X8431071Y-16091315D01*
X8431071Y-16015124D01*
X8440595Y-15996077D01*
X8459643Y-15986553D01*
X8497738Y-15986553D01*
X8516786Y-15996077D01*
X8526310Y-16015124D01*
X8526310Y-16034172D01*
X8431071Y-16053219D01*
X8602500Y-16110362D02*
X8621548Y-16119886D01*
X8659643Y-16119886D01*
X8678690Y-16110362D01*
X8688214Y-16091315D01*
X8688214Y-16081791D01*
X8678690Y-16062743D01*
X8659643Y-16053219D01*
X8631071Y-16053219D01*
X8612024Y-16043696D01*
X8602500Y-16024648D01*
X8602500Y-16015124D01*
X8612024Y-15996077D01*
X8631071Y-15986553D01*
X8659643Y-15986553D01*
X8678690Y-15996077D01*
X8754881Y-16196077D02*
X8764405Y-16186553D01*
X8783452Y-16157981D01*
X8792976Y-16138934D01*
X8802500Y-16110362D01*
X8812024Y-16062743D01*
X8812024Y-16024648D01*
X8802500Y-15977029D01*
X8792976Y-15948458D01*
X8783452Y-15929410D01*
X8764405Y-15900838D01*
X8754881Y-15891315D01*
D15*
X3717500Y-16368410D02*
X3792500Y-16293410D01*
X3717500Y-16218410D01*
X3642500Y-16293410D01*
X3717500Y-16368410D01*
D10*
X4154881Y-16383886D02*
X4040595Y-16383886D01*
X4097738Y-16383886D02*
X4097738Y-16183886D01*
X4078690Y-16212458D01*
X4059643Y-16231505D01*
X4040595Y-16241029D01*
X4240595Y-16364838D02*
X4250119Y-16374362D01*
X4240595Y-16383886D01*
X4231071Y-16374362D01*
X4240595Y-16364838D01*
X4240595Y-16383886D01*
X4431071Y-16183886D02*
X4335833Y-16183886D01*
X4326310Y-16279124D01*
X4335833Y-16269600D01*
X4354881Y-16260077D01*
X4402500Y-16260077D01*
X4421548Y-16269600D01*
X4431071Y-16279124D01*
X4440595Y-16298172D01*
X4440595Y-16345791D01*
X4431071Y-16364838D01*
X4421548Y-16374362D01*
X4402500Y-16383886D01*
X4354881Y-16383886D01*
X4335833Y-16374362D01*
X4326310Y-16364838D01*
X4564405Y-16183886D02*
X4583452Y-16183886D01*
X4602500Y-16193410D01*
X4612024Y-16202934D01*
X4621548Y-16221981D01*
X4631071Y-16260077D01*
X4631071Y-16307696D01*
X4621548Y-16345791D01*
X4612024Y-16364838D01*
X4602500Y-16374362D01*
X4583452Y-16383886D01*
X4564405Y-16383886D01*
X4545357Y-16374362D01*
X4535833Y-16364838D01*
X4526310Y-16345791D01*
X4516786Y-16307696D01*
X4516786Y-16260077D01*
X4526310Y-16221981D01*
X4535833Y-16202934D01*
X4545357Y-16193410D01*
X4564405Y-16183886D01*
X4754881Y-16183886D02*
X4773929Y-16183886D01*
X4792976Y-16193410D01*
X4802500Y-16202934D01*
X4812024Y-16221981D01*
X4821548Y-16260077D01*
X4821548Y-16307696D01*
X4812024Y-16345791D01*
X4802500Y-16364838D01*
X4792976Y-16374362D01*
X4773929Y-16383886D01*
X4754881Y-16383886D01*
X4735833Y-16374362D01*
X4726310Y-16364838D01*
X4716786Y-16345791D01*
X4707262Y-16307696D01*
X4707262Y-16260077D01*
X4716786Y-16221981D01*
X4726310Y-16202934D01*
X4735833Y-16193410D01*
X4754881Y-16183886D01*
X4907262Y-16383886D02*
X4907262Y-16250553D01*
X4907262Y-16269600D02*
X4916786Y-16260077D01*
X4935833Y-16250553D01*
X4964405Y-16250553D01*
X4983452Y-16260077D01*
X4992976Y-16279124D01*
X4992976Y-16383886D01*
X4992976Y-16279124D02*
X5002500Y-16260077D01*
X5021548Y-16250553D01*
X5050119Y-16250553D01*
X5069167Y-16260077D01*
X5078690Y-16279124D01*
X5078690Y-16383886D01*
X5173929Y-16383886D02*
X5173929Y-16250553D01*
X5173929Y-16269600D02*
X5183452Y-16260077D01*
X5202500Y-16250553D01*
X5231071Y-16250553D01*
X5250119Y-16260077D01*
X5259643Y-16279124D01*
X5259643Y-16383886D01*
X5259643Y-16279124D02*
X5269167Y-16260077D01*
X5288214Y-16250553D01*
X5316786Y-16250553D01*
X5335833Y-16260077D01*
X5345357Y-16279124D01*
X5345357Y-16383886D01*
X5735833Y-16174362D02*
X5564405Y-16431505D01*
X5992976Y-16183886D02*
X6012024Y-16183886D01*
X6031071Y-16193410D01*
X6040595Y-16202934D01*
X6050119Y-16221981D01*
X6059643Y-16260077D01*
X6059643Y-16307696D01*
X6050119Y-16345791D01*
X6040595Y-16364838D01*
X6031071Y-16374362D01*
X6012024Y-16383886D01*
X5992976Y-16383886D01*
X5973928Y-16374362D01*
X5964405Y-16364838D01*
X5954881Y-16345791D01*
X5945357Y-16307696D01*
X5945357Y-16260077D01*
X5954881Y-16221981D01*
X5964405Y-16202934D01*
X5973928Y-16193410D01*
X5992976Y-16183886D01*
X6145357Y-16364838D02*
X6154881Y-16374362D01*
X6145357Y-16383886D01*
X6135833Y-16374362D01*
X6145357Y-16364838D01*
X6145357Y-16383886D01*
X6278690Y-16183886D02*
X6297738Y-16183886D01*
X6316786Y-16193410D01*
X6326309Y-16202934D01*
X6335833Y-16221981D01*
X6345357Y-16260077D01*
X6345357Y-16307696D01*
X6335833Y-16345791D01*
X6326309Y-16364838D01*
X6316786Y-16374362D01*
X6297738Y-16383886D01*
X6278690Y-16383886D01*
X6259643Y-16374362D01*
X6250119Y-16364838D01*
X6240595Y-16345791D01*
X6231071Y-16307696D01*
X6231071Y-16260077D01*
X6240595Y-16221981D01*
X6250119Y-16202934D01*
X6259643Y-16193410D01*
X6278690Y-16183886D01*
X6526309Y-16183886D02*
X6431071Y-16183886D01*
X6421548Y-16279124D01*
X6431071Y-16269600D01*
X6450119Y-16260077D01*
X6497738Y-16260077D01*
X6516786Y-16269600D01*
X6526309Y-16279124D01*
X6535833Y-16298172D01*
X6535833Y-16345791D01*
X6526309Y-16364838D01*
X6516786Y-16374362D01*
X6497738Y-16383886D01*
X6450119Y-16383886D01*
X6431071Y-16374362D01*
X6421548Y-16364838D01*
X6631071Y-16383886D02*
X6669167Y-16383886D01*
X6688214Y-16374362D01*
X6697738Y-16364838D01*
X6716786Y-16336267D01*
X6726309Y-16298172D01*
X6726309Y-16221981D01*
X6716786Y-16202934D01*
X6707262Y-16193410D01*
X6688214Y-16183886D01*
X6650119Y-16183886D01*
X6631071Y-16193410D01*
X6621548Y-16202934D01*
X6612024Y-16221981D01*
X6612024Y-16269600D01*
X6621548Y-16288648D01*
X6631071Y-16298172D01*
X6650119Y-16307696D01*
X6688214Y-16307696D01*
X6707262Y-16298172D01*
X6716786Y-16288648D01*
X6726309Y-16269600D01*
X6916786Y-16383886D02*
X6802500Y-16383886D01*
X6859643Y-16383886D02*
X6859643Y-16183886D01*
X6840595Y-16212458D01*
X6821548Y-16231505D01*
X6802500Y-16241029D01*
X6992976Y-16183886D02*
X6992976Y-16221981D01*
X7069167Y-16183886D02*
X7069167Y-16221981D01*
X7364405Y-16460077D02*
X7354881Y-16450553D01*
X7335833Y-16421981D01*
X7326309Y-16402934D01*
X7316786Y-16374362D01*
X7307262Y-16326743D01*
X7307262Y-16288648D01*
X7316786Y-16241029D01*
X7326309Y-16212458D01*
X7335833Y-16193410D01*
X7354881Y-16164838D01*
X7364405Y-16155315D01*
X7478690Y-16183886D02*
X7497738Y-16183886D01*
X7516786Y-16193410D01*
X7526309Y-16202934D01*
X7535833Y-16221981D01*
X7545357Y-16260077D01*
X7545357Y-16307696D01*
X7535833Y-16345791D01*
X7526309Y-16364838D01*
X7516786Y-16374362D01*
X7497738Y-16383886D01*
X7478690Y-16383886D01*
X7459643Y-16374362D01*
X7450119Y-16364838D01*
X7440595Y-16345791D01*
X7431071Y-16307696D01*
X7431071Y-16260077D01*
X7440595Y-16221981D01*
X7450119Y-16202934D01*
X7459643Y-16193410D01*
X7478690Y-16183886D01*
X7783452Y-16383886D02*
X7783452Y-16183886D01*
X7869167Y-16383886D02*
X7869167Y-16279124D01*
X7859643Y-16260077D01*
X7840595Y-16250553D01*
X7812024Y-16250553D01*
X7792976Y-16260077D01*
X7783452Y-16269600D01*
X7992976Y-16383886D02*
X7973928Y-16374362D01*
X7964405Y-16364838D01*
X7954881Y-16345791D01*
X7954881Y-16288648D01*
X7964405Y-16269600D01*
X7973928Y-16260077D01*
X7992976Y-16250553D01*
X8021548Y-16250553D01*
X8040595Y-16260077D01*
X8050119Y-16269600D01*
X8059643Y-16288648D01*
X8059643Y-16345791D01*
X8050119Y-16364838D01*
X8040595Y-16374362D01*
X8021548Y-16383886D01*
X7992976Y-16383886D01*
X8173928Y-16383886D02*
X8154881Y-16374362D01*
X8145357Y-16355315D01*
X8145357Y-16183886D01*
X8326309Y-16374362D02*
X8307262Y-16383886D01*
X8269167Y-16383886D01*
X8250119Y-16374362D01*
X8240595Y-16355315D01*
X8240595Y-16279124D01*
X8250119Y-16260077D01*
X8269167Y-16250553D01*
X8307262Y-16250553D01*
X8326309Y-16260077D01*
X8335833Y-16279124D01*
X8335833Y-16298172D01*
X8240595Y-16317219D01*
X8412024Y-16374362D02*
X8431071Y-16383886D01*
X8469167Y-16383886D01*
X8488214Y-16374362D01*
X8497738Y-16355315D01*
X8497738Y-16345791D01*
X8488214Y-16326743D01*
X8469167Y-16317219D01*
X8440595Y-16317219D01*
X8421548Y-16307696D01*
X8412024Y-16288648D01*
X8412024Y-16279124D01*
X8421548Y-16260077D01*
X8440595Y-16250553D01*
X8469167Y-16250553D01*
X8488214Y-16260077D01*
X8735833Y-16307696D02*
X8888214Y-16307696D01*
X8812024Y-16383886D02*
X8812024Y-16231505D01*
X9221548Y-16183886D02*
X9183452Y-16183886D01*
X9164405Y-16193410D01*
X9154881Y-16202934D01*
X9135833Y-16231505D01*
X9126310Y-16269600D01*
X9126310Y-16345791D01*
X9135833Y-16364838D01*
X9145357Y-16374362D01*
X9164405Y-16383886D01*
X9202500Y-16383886D01*
X9221548Y-16374362D01*
X9231071Y-16364838D01*
X9240595Y-16345791D01*
X9240595Y-16298172D01*
X9231071Y-16279124D01*
X9221548Y-16269600D01*
X9202500Y-16260077D01*
X9164405Y-16260077D01*
X9145357Y-16269600D01*
X9135833Y-16279124D01*
X9126310Y-16298172D01*
X9354881Y-16269600D02*
X9335833Y-16260077D01*
X9326310Y-16250553D01*
X9316786Y-16231505D01*
X9316786Y-16221981D01*
X9326310Y-16202934D01*
X9335833Y-16193410D01*
X9354881Y-16183886D01*
X9392976Y-16183886D01*
X9412024Y-16193410D01*
X9421548Y-16202934D01*
X9431071Y-16221981D01*
X9431071Y-16231505D01*
X9421548Y-16250553D01*
X9412024Y-16260077D01*
X9392976Y-16269600D01*
X9354881Y-16269600D01*
X9335833Y-16279124D01*
X9326310Y-16288648D01*
X9316786Y-16307696D01*
X9316786Y-16345791D01*
X9326310Y-16364838D01*
X9335833Y-16374362D01*
X9354881Y-16383886D01*
X9392976Y-16383886D01*
X9412024Y-16374362D01*
X9421548Y-16364838D01*
X9431071Y-16345791D01*
X9431071Y-16307696D01*
X9421548Y-16288648D01*
X9412024Y-16279124D01*
X9392976Y-16269600D01*
X9659643Y-16374362D02*
X9678690Y-16383886D01*
X9716786Y-16383886D01*
X9735833Y-16374362D01*
X9745357Y-16355315D01*
X9745357Y-16345791D01*
X9735833Y-16326743D01*
X9716786Y-16317219D01*
X9688214Y-16317219D01*
X9669167Y-16307696D01*
X9659643Y-16288648D01*
X9659643Y-16279124D01*
X9669167Y-16260077D01*
X9688214Y-16250553D01*
X9716786Y-16250553D01*
X9735833Y-16260077D01*
X9859643Y-16383886D02*
X9840595Y-16374362D01*
X9831071Y-16355315D01*
X9831071Y-16183886D01*
X9964405Y-16383886D02*
X9945357Y-16374362D01*
X9935833Y-16364838D01*
X9926310Y-16345791D01*
X9926310Y-16288648D01*
X9935833Y-16269600D01*
X9945357Y-16260077D01*
X9964405Y-16250553D01*
X9992976Y-16250553D01*
X10012024Y-16260077D01*
X10021548Y-16269600D01*
X10031071Y-16288648D01*
X10031071Y-16345791D01*
X10021548Y-16364838D01*
X10012024Y-16374362D01*
X9992976Y-16383886D01*
X9964405Y-16383886D01*
X10088214Y-16250553D02*
X10164405Y-16250553D01*
X10116786Y-16183886D02*
X10116786Y-16355315D01*
X10126310Y-16374362D01*
X10145357Y-16383886D01*
X10164405Y-16383886D01*
X10221548Y-16374362D02*
X10240595Y-16383886D01*
X10278690Y-16383886D01*
X10297738Y-16374362D01*
X10307262Y-16355315D01*
X10307262Y-16345791D01*
X10297738Y-16326743D01*
X10278690Y-16317219D01*
X10250119Y-16317219D01*
X10231071Y-16307696D01*
X10221548Y-16288648D01*
X10221548Y-16279124D01*
X10231071Y-16260077D01*
X10250119Y-16250553D01*
X10278690Y-16250553D01*
X10297738Y-16260077D01*
X10373929Y-16460077D02*
X10383452Y-16450553D01*
X10402500Y-16421981D01*
X10412024Y-16402934D01*
X10421548Y-16374362D01*
X10431071Y-16326743D01*
X10431071Y-16288648D01*
X10421548Y-16241029D01*
X10412024Y-16212458D01*
X10402500Y-16193410D01*
X10383452Y-16164838D01*
X10373929Y-16155315D01*
D16*
X3607500Y-16470910D02*
X3792500Y-16655910D01*
X3792500Y-16470910D02*
X3607500Y-16655910D01*
X3792500Y-16563410D02*
G75*
G03*
X3792500Y-16563410I-92500J0D01*
G01*
D10*
X4154881Y-16653886D02*
X4040595Y-16653886D01*
X4097738Y-16653886D02*
X4097738Y-16453886D01*
X4078690Y-16482458D01*
X4059643Y-16501505D01*
X4040595Y-16511029D01*
X4240595Y-16634838D02*
X4250119Y-16644362D01*
X4240595Y-16653886D01*
X4231071Y-16644362D01*
X4240595Y-16634838D01*
X4240595Y-16653886D01*
X4364405Y-16539600D02*
X4345357Y-16530077D01*
X4335833Y-16520553D01*
X4326310Y-16501505D01*
X4326310Y-16491981D01*
X4335833Y-16472934D01*
X4345357Y-16463410D01*
X4364405Y-16453886D01*
X4402500Y-16453886D01*
X4421548Y-16463410D01*
X4431071Y-16472934D01*
X4440595Y-16491981D01*
X4440595Y-16501505D01*
X4431071Y-16520553D01*
X4421548Y-16530077D01*
X4402500Y-16539600D01*
X4364405Y-16539600D01*
X4345357Y-16549124D01*
X4335833Y-16558648D01*
X4326310Y-16577696D01*
X4326310Y-16615791D01*
X4335833Y-16634838D01*
X4345357Y-16644362D01*
X4364405Y-16653886D01*
X4402500Y-16653886D01*
X4421548Y-16644362D01*
X4431071Y-16634838D01*
X4440595Y-16615791D01*
X4440595Y-16577696D01*
X4431071Y-16558648D01*
X4421548Y-16549124D01*
X4402500Y-16539600D01*
X4621548Y-16453886D02*
X4526310Y-16453886D01*
X4516786Y-16549124D01*
X4526310Y-16539600D01*
X4545357Y-16530077D01*
X4592976Y-16530077D01*
X4612024Y-16539600D01*
X4621548Y-16549124D01*
X4631071Y-16568172D01*
X4631071Y-16615791D01*
X4621548Y-16634838D01*
X4612024Y-16644362D01*
X4592976Y-16653886D01*
X4545357Y-16653886D01*
X4526310Y-16644362D01*
X4516786Y-16634838D01*
X4754881Y-16453886D02*
X4773929Y-16453886D01*
X4792976Y-16463410D01*
X4802500Y-16472934D01*
X4812024Y-16491981D01*
X4821548Y-16530077D01*
X4821548Y-16577696D01*
X4812024Y-16615791D01*
X4802500Y-16634838D01*
X4792976Y-16644362D01*
X4773929Y-16653886D01*
X4754881Y-16653886D01*
X4735833Y-16644362D01*
X4726310Y-16634838D01*
X4716786Y-16615791D01*
X4707262Y-16577696D01*
X4707262Y-16530077D01*
X4716786Y-16491981D01*
X4726310Y-16472934D01*
X4735833Y-16463410D01*
X4754881Y-16453886D01*
X4907262Y-16653886D02*
X4907262Y-16520553D01*
X4907262Y-16539600D02*
X4916786Y-16530077D01*
X4935833Y-16520553D01*
X4964405Y-16520553D01*
X4983452Y-16530077D01*
X4992976Y-16549124D01*
X4992976Y-16653886D01*
X4992976Y-16549124D02*
X5002500Y-16530077D01*
X5021548Y-16520553D01*
X5050119Y-16520553D01*
X5069167Y-16530077D01*
X5078690Y-16549124D01*
X5078690Y-16653886D01*
X5173929Y-16653886D02*
X5173929Y-16520553D01*
X5173929Y-16539600D02*
X5183452Y-16530077D01*
X5202500Y-16520553D01*
X5231071Y-16520553D01*
X5250119Y-16530077D01*
X5259643Y-16549124D01*
X5259643Y-16653886D01*
X5259643Y-16549124D02*
X5269167Y-16530077D01*
X5288214Y-16520553D01*
X5316786Y-16520553D01*
X5335833Y-16530077D01*
X5345357Y-16549124D01*
X5345357Y-16653886D01*
X5735833Y-16444362D02*
X5564405Y-16701505D01*
X5992976Y-16453886D02*
X6012024Y-16453886D01*
X6031071Y-16463410D01*
X6040595Y-16472934D01*
X6050119Y-16491981D01*
X6059643Y-16530077D01*
X6059643Y-16577696D01*
X6050119Y-16615791D01*
X6040595Y-16634838D01*
X6031071Y-16644362D01*
X6012024Y-16653886D01*
X5992976Y-16653886D01*
X5973928Y-16644362D01*
X5964405Y-16634838D01*
X5954881Y-16615791D01*
X5945357Y-16577696D01*
X5945357Y-16530077D01*
X5954881Y-16491981D01*
X5964405Y-16472934D01*
X5973928Y-16463410D01*
X5992976Y-16453886D01*
X6145357Y-16634838D02*
X6154881Y-16644362D01*
X6145357Y-16653886D01*
X6135833Y-16644362D01*
X6145357Y-16634838D01*
X6145357Y-16653886D01*
X6278690Y-16453886D02*
X6297738Y-16453886D01*
X6316786Y-16463410D01*
X6326309Y-16472934D01*
X6335833Y-16491981D01*
X6345357Y-16530077D01*
X6345357Y-16577696D01*
X6335833Y-16615791D01*
X6326309Y-16634838D01*
X6316786Y-16644362D01*
X6297738Y-16653886D01*
X6278690Y-16653886D01*
X6259643Y-16644362D01*
X6250119Y-16634838D01*
X6240595Y-16615791D01*
X6231071Y-16577696D01*
X6231071Y-16530077D01*
X6240595Y-16491981D01*
X6250119Y-16472934D01*
X6259643Y-16463410D01*
X6278690Y-16453886D01*
X6412024Y-16453886D02*
X6545357Y-16453886D01*
X6459643Y-16653886D01*
X6612024Y-16472934D02*
X6621548Y-16463410D01*
X6640595Y-16453886D01*
X6688214Y-16453886D01*
X6707262Y-16463410D01*
X6716786Y-16472934D01*
X6726309Y-16491981D01*
X6726309Y-16511029D01*
X6716786Y-16539600D01*
X6602500Y-16653886D01*
X6726309Y-16653886D01*
X6840595Y-16539600D02*
X6821548Y-16530077D01*
X6812024Y-16520553D01*
X6802500Y-16501505D01*
X6802500Y-16491981D01*
X6812024Y-16472934D01*
X6821548Y-16463410D01*
X6840595Y-16453886D01*
X6878690Y-16453886D01*
X6897738Y-16463410D01*
X6907262Y-16472934D01*
X6916786Y-16491981D01*
X6916786Y-16501505D01*
X6907262Y-16520553D01*
X6897738Y-16530077D01*
X6878690Y-16539600D01*
X6840595Y-16539600D01*
X6821548Y-16549124D01*
X6812024Y-16558648D01*
X6802500Y-16577696D01*
X6802500Y-16615791D01*
X6812024Y-16634838D01*
X6821548Y-16644362D01*
X6840595Y-16653886D01*
X6878690Y-16653886D01*
X6897738Y-16644362D01*
X6907262Y-16634838D01*
X6916786Y-16615791D01*
X6916786Y-16577696D01*
X6907262Y-16558648D01*
X6897738Y-16549124D01*
X6878690Y-16539600D01*
X6992976Y-16453886D02*
X6992976Y-16491981D01*
X7069167Y-16453886D02*
X7069167Y-16491981D01*
X7364405Y-16730077D02*
X7354881Y-16720553D01*
X7335833Y-16691981D01*
X7326309Y-16672934D01*
X7316786Y-16644362D01*
X7307262Y-16596743D01*
X7307262Y-16558648D01*
X7316786Y-16511029D01*
X7326309Y-16482458D01*
X7335833Y-16463410D01*
X7354881Y-16434838D01*
X7364405Y-16425315D01*
X7545357Y-16653886D02*
X7431071Y-16653886D01*
X7488214Y-16653886D02*
X7488214Y-16453886D01*
X7469167Y-16482458D01*
X7450119Y-16501505D01*
X7431071Y-16511029D01*
X7669167Y-16453886D02*
X7688214Y-16453886D01*
X7707262Y-16463410D01*
X7716786Y-16472934D01*
X7726309Y-16491981D01*
X7735833Y-16530077D01*
X7735833Y-16577696D01*
X7726309Y-16615791D01*
X7716786Y-16634838D01*
X7707262Y-16644362D01*
X7688214Y-16653886D01*
X7669167Y-16653886D01*
X7650119Y-16644362D01*
X7640595Y-16634838D01*
X7631071Y-16615791D01*
X7621548Y-16577696D01*
X7621548Y-16530077D01*
X7631071Y-16491981D01*
X7640595Y-16472934D01*
X7650119Y-16463410D01*
X7669167Y-16453886D01*
X7973928Y-16653886D02*
X7973928Y-16453886D01*
X8059643Y-16653886D02*
X8059643Y-16549124D01*
X8050119Y-16530077D01*
X8031071Y-16520553D01*
X8002500Y-16520553D01*
X7983452Y-16530077D01*
X7973928Y-16539600D01*
X8183452Y-16653886D02*
X8164405Y-16644362D01*
X8154881Y-16634838D01*
X8145357Y-16615791D01*
X8145357Y-16558648D01*
X8154881Y-16539600D01*
X8164405Y-16530077D01*
X8183452Y-16520553D01*
X8212024Y-16520553D01*
X8231071Y-16530077D01*
X8240595Y-16539600D01*
X8250119Y-16558648D01*
X8250119Y-16615791D01*
X8240595Y-16634838D01*
X8231071Y-16644362D01*
X8212024Y-16653886D01*
X8183452Y-16653886D01*
X8364405Y-16653886D02*
X8345357Y-16644362D01*
X8335833Y-16625315D01*
X8335833Y-16453886D01*
X8516786Y-16644362D02*
X8497738Y-16653886D01*
X8459643Y-16653886D01*
X8440595Y-16644362D01*
X8431071Y-16625315D01*
X8431071Y-16549124D01*
X8440595Y-16530077D01*
X8459643Y-16520553D01*
X8497738Y-16520553D01*
X8516786Y-16530077D01*
X8526310Y-16549124D01*
X8526310Y-16568172D01*
X8431071Y-16587219D01*
X8602500Y-16644362D02*
X8621548Y-16653886D01*
X8659643Y-16653886D01*
X8678690Y-16644362D01*
X8688214Y-16625315D01*
X8688214Y-16615791D01*
X8678690Y-16596743D01*
X8659643Y-16587219D01*
X8631071Y-16587219D01*
X8612024Y-16577696D01*
X8602500Y-16558648D01*
X8602500Y-16549124D01*
X8612024Y-16530077D01*
X8631071Y-16520553D01*
X8659643Y-16520553D01*
X8678690Y-16530077D01*
X8754881Y-16730077D02*
X8764405Y-16720553D01*
X8783452Y-16691981D01*
X8792976Y-16672934D01*
X8802500Y-16644362D01*
X8812024Y-16596743D01*
X8812024Y-16558648D01*
X8802500Y-16511029D01*
X8792976Y-16482458D01*
X8783452Y-16463410D01*
X8764405Y-16434838D01*
X8754881Y-16425315D01*
M02*
