M48
; DRILL file {KiCad (5.1.5)-3} date 5/3/2020 11:18:04 PM
; FORMAT={-:-/ absolute / inch / decimal}
; #@! TF.CreationDate,2020-05-03T23:18:04-07:00
; #@! TF.GenerationSoftware,Kicad,Pcbnew,(5.1.5)-3
FMAT,2
INCH
T1C0.0157
T2C0.0276
T3C0.0315
T4C0.0354
T5C0.0430
T6C0.0591
T7C0.0315
T8C0.0670
T9C0.1200
T10C0.1570
T11C0.1575
T12C0.1614
%
G90
G05
T1
X3.6909Y-1.6634
X4.4882Y-1.6929
X5.2165Y-1.7224
X5.8366Y-1.752
X6.5453Y-1.6929
X7.313Y-1.7224
T2
X4.7087Y-1.1732
X5.0157Y-1.1732
X3.7766Y-2.6713
X4.0837Y-2.6713
X5.8396Y-1.9222
X6.1467Y-1.9222
X2.938Y-4.1673
X3.2451Y-4.1673
X3.9675Y-1.1732
X4.2746Y-1.1732
X3.5817Y-1.9232
X3.8888Y-1.9232
X4.1506Y-3.4183
X4.4577Y-3.4183
X6.1102Y-4.1654
X6.4173Y-4.1654
X7.8898Y-3.4173
X8.1969Y-3.4173
X2.7441Y-2.6693
X3.0512Y-2.6693
X4.3396Y-1.9222
X4.6467Y-1.9222
X7.1825Y-4.3294
X7.4711Y-4.4344
X5.2687Y-2.6703
X5.5758Y-2.6703
X7.5148Y-2.6703
X7.8219Y-2.6703
X4.5217Y-2.6693
X4.8287Y-2.6693
X5.6457Y-3.4193
X5.9528Y-3.4193
X4.8996Y-3.4183
X5.2067Y-3.4183
X6.2047Y-1.1732
X6.5118Y-1.1732
X2.6496Y-1.9213
X2.9567Y-1.9213
X2.4675Y-1.1742
X2.7746Y-1.1742
X5.4567Y-1.1732
X5.7638Y-1.1732
X6.3927Y-3.4193
X6.6998Y-3.4193
X6.7638Y-2.6703
X7.0709Y-2.6703
X7.7908Y-4.8441
X8.0793Y-4.9492
X2.9311Y-3.4183
X3.2382Y-3.4183
X6.0187Y-2.6683
X6.3258Y-2.6683
X3.8671Y-4.1644
X4.1742Y-4.1644
X6.9557Y-1.1742
X7.2628Y-1.1742
X6.5837Y-1.9222
X6.8907Y-1.9222
X5.0778Y-1.9213
X5.3848Y-1.9213
X4.8051Y-4.1654
X5.1122Y-4.1654
X7.1388Y-3.4193
X7.4459Y-3.4193
X7.3307Y-1.9242
X7.6378Y-1.9242
X3.2126Y-1.1742
X3.5197Y-1.1742
T3
X2.0571Y-4.7933
X2.1555Y-4.7933
X2.2539Y-4.7933
X2.3524Y-4.7933
T5
X1.6488Y-1.1331
X1.6488Y-1.2331
X1.6488Y-1.3331
X1.6488Y-1.4331
X1.6488Y-1.5331
X1.6488Y-1.6331
X1.6488Y-1.7331
X1.6488Y-1.8331
X1.6488Y-1.9331
X1.6488Y-2.0331
X1.6488Y-2.1331
X1.6488Y-2.2331
X2.2488Y-1.1331
X2.2488Y-1.2331
X2.2488Y-1.3331
X2.2488Y-1.4331
X2.2488Y-1.5331
X2.2488Y-1.6331
X2.2488Y-1.7331
X2.2488Y-1.8331
X2.2488Y-1.9331
X2.2488Y-2.0331
X2.2488Y-2.1331
X2.2488Y-2.2331
T7
X7.998Y-1.1181
X7.998Y-1.3937
T8
X5.0362Y-2.2933
X5.4362Y-2.2933
X6.1573Y-1.5443
X6.5573Y-1.5443
X5.5963Y-3.7904
X5.9963Y-3.7904
X2.8866Y-3.7884
X3.2866Y-3.7884
X7.4673Y-3.0404
X7.8673Y-3.0404
X4.6612Y-1.5443
X5.0612Y-1.5443
X4.0992Y-3.7894
X4.4992Y-3.7894
X6.0648Y-4.5374
X6.4648Y-4.5374
X2.8846Y-4.5384
X3.2846Y-4.5384
X7.8423Y-3.7884
X8.2423Y-3.7884
X4.8482Y-3.7894
X5.2482Y-3.7894
X4.4762Y-3.0404
X4.8762Y-3.0404
X5.4102Y-1.5453
X5.8102Y-1.5453
X2.6996Y-3.0404
X3.0996Y-3.0404
X3.5402Y-2.2943
X3.9402Y-2.2943
X2.6061Y-2.2923
X3.0061Y-2.2923
X6.5323Y-2.2933
X6.9323Y-2.2933
X7.0923Y-3.7904
X7.4923Y-3.7904
X3.7272Y-3.0423
X4.1272Y-3.0423
X7.0099Y-4.6619
X7.3858Y-4.7987
X3.9152Y-1.5443
X4.3152Y-1.5443
X7.2803Y-2.2953
X7.6803Y-2.2953
X4.7557Y-4.5374
X5.1557Y-4.5374
X5.9732Y-3.0394
X6.3732Y-3.0394
X2.4191Y-1.5453
X2.8191Y-1.5453
X6.9063Y-1.5453
X7.3063Y-1.5453
X6.3443Y-3.7904
X6.7443Y-3.7904
X5.7882Y-2.2933
X6.1882Y-2.2933
X3.1661Y-1.5453
X3.5661Y-1.5453
X7.6182Y-5.1767
X7.994Y-5.3135
X6.7193Y-3.0413
X7.1193Y-3.0413
X5.2252Y-3.0413
X5.6252Y-3.0413
X3.8207Y-4.5364
X4.2207Y-4.5364
X4.2882Y-2.2923
X4.6882Y-2.2923
T9
X2.6166Y-4.0634
X3.5566Y-4.0634
T10
X7.8061Y-5.2451
X6.9193Y-3.0413
X5.4252Y-3.0413
X4.0207Y-4.5364
X4.4882Y-2.2923
X5.2362Y-2.2933
X6.3573Y-1.5443
X5.7963Y-3.7904
X2.6166Y-3.4634
X3.0866Y-3.7884
X3.5566Y-3.4634
X7.6673Y-3.0404
X4.8612Y-1.5443
X4.2992Y-3.7894
X6.2648Y-4.5374
X3.0846Y-4.5384
X8.0423Y-3.7884
X5.0482Y-3.7894
X4.6762Y-3.0404
X5.6102Y-1.5453
X2.8996Y-3.0404
X3.7402Y-2.2943
X2.8061Y-2.2923
X6.7323Y-2.2933
X7.2923Y-3.7904
X3.9272Y-3.0423
X7.1978Y-4.7303
X4.1152Y-1.5443
X7.4803Y-2.2953
X4.9557Y-4.5374
X6.1732Y-3.0394
X2.6191Y-1.5453
X7.1063Y-1.5453
X6.5443Y-3.7904
X5.9882Y-2.2933
X3.3661Y-1.5453
T11
X8.4547Y-5.7638
X8.4547Y-1.1323
X1.2709Y-1.1319
X3.4138Y-3.0409
T12
X1.2709Y-5.1476
T4
G00X7.9075Y-1.189
M15
G01X7.9075Y-1.1732
M16
G05
G00X7.9075Y-1.3071
M15
G01X7.9075Y-1.2913
M16
G05
G00X7.9075Y-1.4646
M15
G01X7.9075Y-1.4488
M16
G05
G00X8.0886Y-1.5079
M15
G01X8.0886Y-1.4921
M16
G05
T6
G00X5.1319Y-2.1174
M15
G01X5.0843Y-2.1921
M16
G05
G00X5.3362Y-2.0933
M15
G01X5.3347Y-2.1161
M16
G05
G00X6.2529Y-1.3684
M15
G01X6.2053Y-1.4431
M16
G05
G00X6.4573Y-1.3443
M15
G01X6.4557Y-1.3671
M16
G05
G00X5.6919Y-3.6144
M15
G01X5.6443Y-3.6891
M16
G05
G00X5.8962Y-3.5904
M15
G01X5.8947Y-3.6132
M16
G05
G00X2.9866Y-3.9884
M15
G01X2.9882Y-3.9656
M16
G05
G00X3.191Y-3.9643
M15
G01X3.2386Y-3.8896
M16
G05
G00X7.563Y-2.8644
M15
G01X7.5154Y-2.9391
M16
G05
G00X7.7673Y-2.8404
M15
G01X7.7658Y-2.8632
M16
G05
G00X4.7569Y-1.3684
M15
G01X4.7093Y-1.4431
M16
G05
G00X4.9612Y-1.3443
M15
G01X4.9597Y-1.3671
M16
G05
G00X4.1949Y-3.6134
M15
G01X4.1473Y-3.6881
M16
G05
G00X4.3992Y-3.5894
M15
G01X4.3976Y-3.6122
M16
G05
G00X6.1604Y-4.3615
M15
G01X6.1128Y-4.4362
M16
G05
G00X6.3648Y-4.3374
M15
G01X6.3632Y-4.3602
M16
G05
G00X2.9803Y-4.3624
M15
G01X2.9327Y-4.4372
M16
G05
G00X3.1846Y-4.3384
M15
G01X3.1831Y-4.3612
M16
G05
G00X7.938Y-3.6124
M15
G01X7.8904Y-3.6872
M16
G05
G00X8.1423Y-3.5884
M15
G01X8.1408Y-3.6112
M16
G05
G00X4.9439Y-3.6134
M15
G01X4.8963Y-3.6881
M16
G05
G00X5.1482Y-3.5894
M15
G01X5.1467Y-3.6122
M16
G05
G00X4.5718Y-2.8644
M15
G01X4.5242Y-2.9391
M16
G05
G00X4.7762Y-2.8404
M15
G01X4.7746Y-2.8632
M16
G05
G00X5.5059Y-1.3693
M15
G01X5.4583Y-1.444
M16
G05
G00X5.7102Y-1.3453
M15
G01X5.7087Y-1.3681
M16
G05
G00X2.7953Y-2.8644
M15
G01X2.7477Y-2.9391
M16
G05
G00X2.9996Y-2.8404
M15
G01X2.998Y-2.8632
M16
G05
G00X3.6358Y-2.1184
M15
G01X3.5882Y-2.1931
M16
G05
G00X3.8401Y-2.0943
M15
G01X3.8386Y-2.1171
M16
G05
G00X2.7018Y-2.1164
M15
G01X2.6542Y-2.1911
M16
G05
G00X2.9061Y-2.0923
M15
G01X2.9045Y-2.1151
M16
G05
G00X6.6279Y-2.1174
M15
G01X6.5803Y-2.1921
M16
G05
G00X6.8323Y-2.0933
M15
G01X6.8307Y-2.1161
M16
G05
G00X7.188Y-3.6144
M15
G01X7.1404Y-3.6891
M16
G05
G00X7.3923Y-3.5904
M15
G01X7.3908Y-3.6132
M16
G05
G00X3.8228Y-2.8664
M15
G01X3.7752Y-2.9411
M16
G05
G00X4.0272Y-2.8423
M15
G01X4.0256Y-2.8651
M16
G05
G00X7.16Y-4.5293
M15
G01X7.0897Y-4.5832
M16
G05
G00X7.3602Y-4.5766
M15
G01X7.3509Y-4.5975
M16
G05
G00X4.0108Y-1.3684
M15
G01X3.9632Y-1.4431
M16
G05
G00X4.2151Y-1.3443
M15
G01X4.2136Y-1.3671
M16
G05
G00X7.376Y-2.1193
M15
G01X7.3284Y-2.194
M16
G05
G00X7.5803Y-2.0953
M15
G01X7.5788Y-2.1181
M16
G05
G00X4.8514Y-4.3615
M15
G01X4.8038Y-4.4362
M16
G05
G00X5.0557Y-4.3374
M15
G01X5.0541Y-4.3602
M16
G05
G00X6.0689Y-2.8634
M15
G01X6.0213Y-2.9381
M16
G05
G00X6.2732Y-2.8394
M15
G01X6.2717Y-2.8622
M16
G05
G00X2.5147Y-1.3693
M15
G01X2.4671Y-1.444
M16
G05
G00X2.7191Y-1.3453
M15
G01X2.7175Y-1.3681
M16
G05
G00X7.0019Y-1.3693
M15
G01X6.9544Y-1.444
M16
G05
G00X7.2063Y-1.3453
M15
G01X7.2047Y-1.3681
M16
G05
G00X6.4399Y-3.6144
M15
G01X6.3923Y-3.6891
M16
G05
G00X6.6443Y-3.5904
M15
G01X6.6427Y-3.6132
M16
G05
G00X5.8838Y-2.1174
M15
G01X5.8362Y-2.1921
M16
G05
G00X6.0882Y-2.0933
M15
G01X6.0866Y-2.1161
M16
G05
G00X3.2618Y-1.3693
M15
G01X3.2142Y-1.444
M16
G05
G00X3.4661Y-1.3453
M15
G01X3.4646Y-1.3681
M16
G05
G00X7.7682Y-5.0441
M15
G01X7.6979Y-5.098
M16
G05
G00X7.9685Y-5.0914
M15
G01X7.9592Y-5.1122
M16
G05
G00X6.8149Y-2.8654
M15
G01X6.7673Y-2.9401
M16
G05
G00X7.0193Y-2.8414
M15
G01X7.0177Y-2.8641
M16
G05
G00X5.3208Y-2.8654
M15
G01X5.2732Y-2.9401
M16
G05
G00X5.5252Y-2.8414
M15
G01X5.5236Y-2.8641
M16
G05
G00X3.9163Y-4.3605
M15
G01X3.8687Y-4.4352
M16
G05
G00X4.1207Y-4.3364
M15
G01X4.1191Y-4.3592
M16
G05
G00X4.3838Y-2.1164
M15
G01X4.3362Y-2.1911
M16
G05
G00X4.5882Y-2.0923
M15
G01X4.5866Y-2.1151
M16
G05
T0
M30
