G04 #@! TF.GenerationSoftware,KiCad,Pcbnew,(6.0.10-0)*
G04 #@! TF.CreationDate,2022-12-24T00:39:51-08:00*
G04 #@! TF.ProjectId,left,6c656674-2e6b-4696-9361-645f70636258,rev?*
G04 #@! TF.SameCoordinates,Original*
G04 #@! TF.FileFunction,Legend,Top*
G04 #@! TF.FilePolarity,Positive*
%FSLAX46Y46*%
G04 Gerber Fmt 4.6, Leading zero omitted, Abs format (unit mm)*
G04 Created by KiCad (PCBNEW (6.0.10-0)) date 2022-12-24 00:39:51*
%MOMM*%
%LPD*%
G01*
G04 APERTURE LIST*
G04 Aperture macros list*
%AMRoundRect*
0 Rectangle with rounded corners*
0 $1 Rounding radius*
0 $2 $3 $4 $5 $6 $7 $8 $9 X,Y pos of 4 corners*
0 Add a 4 corners polygon primitive as box body*
4,1,4,$2,$3,$4,$5,$6,$7,$8,$9,$2,$3,0*
0 Add four circle primitives for the rounded corners*
1,1,$1+$1,$2,$3*
1,1,$1+$1,$4,$5*
1,1,$1+$1,$6,$7*
1,1,$1+$1,$8,$9*
0 Add four rect primitives between the rounded corners*
20,1,$1+$1,$2,$3,$4,$5,0*
20,1,$1+$1,$4,$5,$6,$7,0*
20,1,$1+$1,$6,$7,$8,$9,0*
20,1,$1+$1,$8,$9,$2,$3,0*%
%AMHorizOval*
0 Thick line with rounded ends*
0 $1 width*
0 $2 $3 position (X,Y) of the first rounded end (center of the circle)*
0 $4 $5 position (X,Y) of the second rounded end (center of the circle)*
0 Add line between two ends*
20,1,$1,$2,$3,$4,$5,0*
0 Add two circle primitives to create the rounded ends*
1,1,$1,$2,$3*
1,1,$1,$4,$5*%
%AMRotRect*
0 Rectangle, with rotation*
0 The origin of the aperture is its center*
0 $1 length*
0 $2 width*
0 $3 Rotation angle, in degrees counterclockwise*
0 Add horizontal line*
21,1,$1,$2,0,0,$3*%
G04 Aperture macros list end*
%ADD10C,0.150000*%
%ADD11C,0.450000*%
%ADD12C,0.381000*%
%ADD13C,0.200000*%
%ADD14C,0.127000*%
%ADD15C,0.010000*%
%ADD16R,1.752600X1.752600*%
%ADD17C,1.752600*%
%ADD18R,1.600000X1.600000*%
%ADD19C,1.600000*%
%ADD20RotRect,1.600000X1.600000X160.000000*%
%ADD21HorizOval,2.500000X-0.604462X-0.948815X0.604462X0.948815X0*%
%ADD22HorizOval,2.500000X-0.019724X-0.289328X0.019724X0.289328X0*%
%ADD23HorizOval,2.500000X0.604462X0.948815X-0.604462X-0.948815X0*%
%ADD24HorizOval,2.500000X0.019724X0.289328X-0.019724X-0.289328X0*%
%ADD25HorizOval,2.500000X-0.892523X-0.684857X0.892523X0.684857X0*%
%ADD26HorizOval,2.500000X-0.117491X-0.265134X0.117491X0.265134X0*%
%ADD27RoundRect,0.051000X-0.876300X0.876300X-0.876300X-0.876300X0.876300X-0.876300X0.876300X0.876300X0*%
%ADD28C,1.854600*%
%ADD29RoundRect,0.051000X0.800000X-0.800000X0.800000X0.800000X-0.800000X0.800000X-0.800000X-0.800000X0*%
%ADD30RoundRect,0.051000X0.600000X-0.600000X0.600000X0.600000X-0.600000X0.600000X-0.600000X-0.600000X0*%
%ADD31C,1.702000*%
%ADD32RoundRect,0.051000X0.600000X0.600000X-0.600000X0.600000X-0.600000X-0.600000X0.600000X-0.600000X0*%
%ADD33RoundRect,0.051000X0.800000X0.800000X-0.800000X0.800000X-0.800000X-0.800000X0.800000X-0.800000X0*%
%ADD34RoundRect,0.051000X0.769028X0.358603X-0.358603X0.769028X-0.769028X-0.358603X0.358603X-0.769028X0*%
%ADD35RoundRect,0.051000X1.025370X0.478138X-0.478138X1.025370X-1.025370X-0.478138X0.478138X-1.025370X0*%
%ADD36HorizOval,2.602000X-0.604462X-0.948815X0.604462X0.948815X0*%
%ADD37HorizOval,2.602000X-0.019724X-0.289328X0.019724X0.289328X0*%
%ADD38HorizOval,2.602000X0.604462X0.948815X-0.604462X-0.948815X0*%
%ADD39HorizOval,2.602000X0.019724X0.289328X-0.019724X-0.289328X0*%
%ADD40HorizOval,2.602000X-0.892523X-0.684857X0.892523X0.684857X0*%
%ADD41HorizOval,2.602000X-0.117491X-0.265134X0.117491X0.265134X0*%
%ADD42RoundRect,0.051000X1.387500X-1.387500X1.387500X1.387500X-1.387500X1.387500X-1.387500X-1.387500X0*%
%ADD43C,2.877000*%
%ADD44C,0.902000*%
%ADD45O,1.702000X2.102000*%
G04 APERTURE END LIST*
D10*
X51908619Y-59819607D02*
X52175285Y-59819607D01*
X52289571Y-60238654D02*
X51908619Y-60238654D01*
X51908619Y-59438654D01*
X52289571Y-59438654D01*
X52975285Y-59438654D02*
X52822904Y-59438654D01*
X52746714Y-59476750D01*
X52708619Y-59514845D01*
X52632428Y-59629130D01*
X52594333Y-59781511D01*
X52594333Y-60086273D01*
X52632428Y-60162464D01*
X52670523Y-60200559D01*
X52746714Y-60238654D01*
X52899095Y-60238654D01*
X52975285Y-60200559D01*
X53013380Y-60162464D01*
X53051476Y-60086273D01*
X53051476Y-59895797D01*
X53013380Y-59819607D01*
X52975285Y-59781511D01*
X52899095Y-59743416D01*
X52746714Y-59743416D01*
X52670523Y-59781511D01*
X52632428Y-59819607D01*
X52594333Y-59895797D01*
X51870523Y-39918654D02*
X51870523Y-39118654D01*
X52061000Y-39118654D01*
X52175285Y-39156750D01*
X52251476Y-39232940D01*
X52289571Y-39309130D01*
X52327666Y-39461511D01*
X52327666Y-39575797D01*
X52289571Y-39728178D01*
X52251476Y-39804369D01*
X52175285Y-39880559D01*
X52061000Y-39918654D01*
X51870523Y-39918654D01*
X52632428Y-39194845D02*
X52670523Y-39156750D01*
X52746714Y-39118654D01*
X52937190Y-39118654D01*
X53013380Y-39156750D01*
X53051476Y-39194845D01*
X53089571Y-39271035D01*
X53089571Y-39347226D01*
X53051476Y-39461511D01*
X52594333Y-39918654D01*
X53089571Y-39918654D01*
X51870523Y-52618654D02*
X51870523Y-51818654D01*
X52061000Y-51818654D01*
X52175285Y-51856750D01*
X52251476Y-51932940D01*
X52289571Y-52009130D01*
X52327666Y-52161511D01*
X52327666Y-52275797D01*
X52289571Y-52428178D01*
X52251476Y-52504369D01*
X52175285Y-52580559D01*
X52061000Y-52618654D01*
X51870523Y-52618654D01*
X53013380Y-52085321D02*
X53013380Y-52618654D01*
X52822904Y-51780559D02*
X52632428Y-52351988D01*
X53127666Y-52351988D01*
X41215190Y-64899607D02*
X41329476Y-64937702D01*
X41367571Y-64975797D01*
X41405666Y-65051988D01*
X41405666Y-65166273D01*
X41367571Y-65242464D01*
X41329476Y-65280559D01*
X41253285Y-65318654D01*
X40948523Y-65318654D01*
X40948523Y-64518654D01*
X41215190Y-64518654D01*
X41291380Y-64556750D01*
X41329476Y-64594845D01*
X41367571Y-64671035D01*
X41367571Y-64747226D01*
X41329476Y-64823416D01*
X41291380Y-64861511D01*
X41215190Y-64899607D01*
X40948523Y-64899607D01*
X42091380Y-64518654D02*
X41939000Y-64518654D01*
X41862809Y-64556750D01*
X41824714Y-64594845D01*
X41748523Y-64709130D01*
X41710428Y-64861511D01*
X41710428Y-65166273D01*
X41748523Y-65242464D01*
X41786619Y-65280559D01*
X41862809Y-65318654D01*
X42015190Y-65318654D01*
X42091380Y-65280559D01*
X42129476Y-65242464D01*
X42167571Y-65166273D01*
X42167571Y-64975797D01*
X42129476Y-64899607D01*
X42091380Y-64861511D01*
X42015190Y-64823416D01*
X41862809Y-64823416D01*
X41786619Y-64861511D01*
X41748523Y-64899607D01*
X41710428Y-64975797D01*
X41215190Y-62359607D02*
X41329476Y-62397702D01*
X41367571Y-62435797D01*
X41405666Y-62511988D01*
X41405666Y-62626273D01*
X41367571Y-62702464D01*
X41329476Y-62740559D01*
X41253285Y-62778654D01*
X40948523Y-62778654D01*
X40948523Y-61978654D01*
X41215190Y-61978654D01*
X41291380Y-62016750D01*
X41329476Y-62054845D01*
X41367571Y-62131035D01*
X41367571Y-62207226D01*
X41329476Y-62283416D01*
X41291380Y-62321511D01*
X41215190Y-62359607D01*
X40948523Y-62359607D01*
X41710428Y-62054845D02*
X41748523Y-62016750D01*
X41824714Y-61978654D01*
X42015190Y-61978654D01*
X42091380Y-62016750D01*
X42129476Y-62054845D01*
X42167571Y-62131035D01*
X42167571Y-62207226D01*
X42129476Y-62321511D01*
X41672333Y-62778654D01*
X42167571Y-62778654D01*
X40986619Y-37378654D02*
X40719952Y-36997702D01*
X40529476Y-37378654D02*
X40529476Y-36578654D01*
X40834238Y-36578654D01*
X40910428Y-36616750D01*
X40948523Y-36654845D01*
X40986619Y-36731035D01*
X40986619Y-36845321D01*
X40948523Y-36921511D01*
X40910428Y-36959607D01*
X40834238Y-36997702D01*
X40529476Y-36997702D01*
X41291380Y-37150083D02*
X41672333Y-37150083D01*
X41215190Y-37378654D02*
X41481857Y-36578654D01*
X41748523Y-37378654D01*
X41939000Y-36578654D02*
X42129476Y-37378654D01*
X42281857Y-36807226D01*
X42434238Y-37378654D01*
X42624714Y-36578654D01*
X41215190Y-59819607D02*
X41329476Y-59857702D01*
X41367571Y-59895797D01*
X41405666Y-59971988D01*
X41405666Y-60086273D01*
X41367571Y-60162464D01*
X41329476Y-60200559D01*
X41253285Y-60238654D01*
X40948523Y-60238654D01*
X40948523Y-59438654D01*
X41215190Y-59438654D01*
X41291380Y-59476750D01*
X41329476Y-59514845D01*
X41367571Y-59591035D01*
X41367571Y-59667226D01*
X41329476Y-59743416D01*
X41291380Y-59781511D01*
X41215190Y-59819607D01*
X40948523Y-59819607D01*
X41672333Y-59438654D02*
X42167571Y-59438654D01*
X41900904Y-59743416D01*
X42015190Y-59743416D01*
X42091380Y-59781511D01*
X42129476Y-59819607D01*
X42167571Y-59895797D01*
X42167571Y-60086273D01*
X42129476Y-60162464D01*
X42091380Y-60200559D01*
X42015190Y-60238654D01*
X41786619Y-60238654D01*
X41710428Y-60200559D01*
X41672333Y-60162464D01*
X40472333Y-44198654D02*
X40739000Y-44998654D01*
X41005666Y-44198654D01*
X41729476Y-44922464D02*
X41691380Y-44960559D01*
X41577095Y-44998654D01*
X41500904Y-44998654D01*
X41386619Y-44960559D01*
X41310428Y-44884369D01*
X41272333Y-44808178D01*
X41234238Y-44655797D01*
X41234238Y-44541511D01*
X41272333Y-44389130D01*
X41310428Y-44312940D01*
X41386619Y-44236750D01*
X41500904Y-44198654D01*
X41577095Y-44198654D01*
X41691380Y-44236750D01*
X41729476Y-44274845D01*
X42529476Y-44922464D02*
X42491380Y-44960559D01*
X42377095Y-44998654D01*
X42300904Y-44998654D01*
X42186619Y-44960559D01*
X42110428Y-44884369D01*
X42072333Y-44808178D01*
X42034238Y-44655797D01*
X42034238Y-44541511D01*
X42072333Y-44389130D01*
X42110428Y-44312940D01*
X42186619Y-44236750D01*
X42300904Y-44198654D01*
X42377095Y-44198654D01*
X42491380Y-44236750D01*
X42529476Y-44274845D01*
X48381395Y-36578654D02*
X48838538Y-36578654D01*
X48609967Y-37378654D02*
X48609967Y-36578654D01*
X49029014Y-36578654D02*
X49562348Y-37378654D01*
X49562348Y-36578654D02*
X49029014Y-37378654D01*
X50019491Y-36578654D02*
X50095681Y-36578654D01*
X50171872Y-36616750D01*
X50209967Y-36654845D01*
X50248062Y-36731035D01*
X50286157Y-36883416D01*
X50286157Y-37073892D01*
X50248062Y-37226273D01*
X50209967Y-37302464D01*
X50171872Y-37340559D01*
X50095681Y-37378654D01*
X50019491Y-37378654D01*
X49943300Y-37340559D01*
X49905205Y-37302464D01*
X49867110Y-37226273D01*
X49829014Y-37073892D01*
X49829014Y-36883416D01*
X49867110Y-36731035D01*
X49905205Y-36654845D01*
X49943300Y-36616750D01*
X50019491Y-36578654D01*
X51200443Y-36540559D02*
X50514729Y-37569130D01*
X51467110Y-37378654D02*
X51467110Y-36578654D01*
X51657586Y-36578654D01*
X51771872Y-36616750D01*
X51848062Y-36692940D01*
X51886157Y-36769130D01*
X51924252Y-36921511D01*
X51924252Y-37035797D01*
X51886157Y-37188178D01*
X51848062Y-37264369D01*
X51771872Y-37340559D01*
X51657586Y-37378654D01*
X51467110Y-37378654D01*
X52190919Y-36578654D02*
X52686157Y-36578654D01*
X52419491Y-36883416D01*
X52533776Y-36883416D01*
X52609967Y-36921511D01*
X52648062Y-36959607D01*
X52686157Y-37035797D01*
X52686157Y-37226273D01*
X52648062Y-37302464D01*
X52609967Y-37340559D01*
X52533776Y-37378654D01*
X52305205Y-37378654D01*
X52229014Y-37340559D01*
X52190919Y-37302464D01*
X41215190Y-57279607D02*
X41329476Y-57317702D01*
X41367571Y-57355797D01*
X41405666Y-57431988D01*
X41405666Y-57546273D01*
X41367571Y-57622464D01*
X41329476Y-57660559D01*
X41253285Y-57698654D01*
X40948523Y-57698654D01*
X40948523Y-56898654D01*
X41215190Y-56898654D01*
X41291380Y-56936750D01*
X41329476Y-56974845D01*
X41367571Y-57051035D01*
X41367571Y-57127226D01*
X41329476Y-57203416D01*
X41291380Y-57241511D01*
X41215190Y-57279607D01*
X40948523Y-57279607D01*
X42167571Y-57698654D02*
X41710428Y-57698654D01*
X41939000Y-57698654D02*
X41939000Y-56898654D01*
X41862809Y-57012940D01*
X41786619Y-57089130D01*
X41710428Y-57127226D01*
X51851476Y-41696750D02*
X51775285Y-41658654D01*
X51661000Y-41658654D01*
X51546714Y-41696750D01*
X51470523Y-41772940D01*
X51432428Y-41849130D01*
X51394333Y-42001511D01*
X51394333Y-42115797D01*
X51432428Y-42268178D01*
X51470523Y-42344369D01*
X51546714Y-42420559D01*
X51661000Y-42458654D01*
X51737190Y-42458654D01*
X51851476Y-42420559D01*
X51889571Y-42382464D01*
X51889571Y-42115797D01*
X51737190Y-42115797D01*
X52232428Y-42458654D02*
X52232428Y-41658654D01*
X52689571Y-42458654D01*
X52689571Y-41658654D01*
X53070523Y-42458654D02*
X53070523Y-41658654D01*
X53261000Y-41658654D01*
X53375285Y-41696750D01*
X53451476Y-41772940D01*
X53489571Y-41849130D01*
X53527666Y-42001511D01*
X53527666Y-42115797D01*
X53489571Y-42268178D01*
X53451476Y-42344369D01*
X53375285Y-42420559D01*
X53261000Y-42458654D01*
X53070523Y-42458654D01*
X40929476Y-39156750D02*
X40853285Y-39118654D01*
X40739000Y-39118654D01*
X40624714Y-39156750D01*
X40548523Y-39232940D01*
X40510428Y-39309130D01*
X40472333Y-39461511D01*
X40472333Y-39575797D01*
X40510428Y-39728178D01*
X40548523Y-39804369D01*
X40624714Y-39880559D01*
X40739000Y-39918654D01*
X40815190Y-39918654D01*
X40929476Y-39880559D01*
X40967571Y-39842464D01*
X40967571Y-39575797D01*
X40815190Y-39575797D01*
X41310428Y-39918654D02*
X41310428Y-39118654D01*
X41767571Y-39918654D01*
X41767571Y-39118654D01*
X42148523Y-39918654D02*
X42148523Y-39118654D01*
X42339000Y-39118654D01*
X42453285Y-39156750D01*
X42529476Y-39232940D01*
X42567571Y-39309130D01*
X42605666Y-39461511D01*
X42605666Y-39575797D01*
X42567571Y-39728178D01*
X42529476Y-39804369D01*
X42453285Y-39880559D01*
X42339000Y-39918654D01*
X42148523Y-39918654D01*
X51870523Y-47538654D02*
X51870523Y-46738654D01*
X52061000Y-46738654D01*
X52175285Y-46776750D01*
X52251476Y-46852940D01*
X52289571Y-46929130D01*
X52327666Y-47081511D01*
X52327666Y-47195797D01*
X52289571Y-47348178D01*
X52251476Y-47424369D01*
X52175285Y-47500559D01*
X52061000Y-47538654D01*
X51870523Y-47538654D01*
X53089571Y-47538654D02*
X52632428Y-47538654D01*
X52861000Y-47538654D02*
X52861000Y-46738654D01*
X52784809Y-46852940D01*
X52708619Y-46929130D01*
X52632428Y-46967226D01*
X51870523Y-50078654D02*
X51870523Y-49278654D01*
X52061000Y-49278654D01*
X52175285Y-49316750D01*
X52251476Y-49392940D01*
X52289571Y-49469130D01*
X52327666Y-49621511D01*
X52327666Y-49735797D01*
X52289571Y-49888178D01*
X52251476Y-49964369D01*
X52175285Y-50040559D01*
X52061000Y-50078654D01*
X51870523Y-50078654D01*
X52822904Y-49278654D02*
X52899095Y-49278654D01*
X52975285Y-49316750D01*
X53013380Y-49354845D01*
X53051476Y-49431035D01*
X53089571Y-49583416D01*
X53089571Y-49773892D01*
X53051476Y-49926273D01*
X53013380Y-50002464D01*
X52975285Y-50040559D01*
X52899095Y-50078654D01*
X52822904Y-50078654D01*
X52746714Y-50040559D01*
X52708619Y-50002464D01*
X52670523Y-49926273D01*
X52632428Y-49773892D01*
X52632428Y-49583416D01*
X52670523Y-49431035D01*
X52708619Y-49354845D01*
X52746714Y-49316750D01*
X52822904Y-49278654D01*
X41426666Y-42400559D02*
X41540952Y-42438654D01*
X41731428Y-42438654D01*
X41807619Y-42400559D01*
X41845714Y-42362464D01*
X41883809Y-42286273D01*
X41883809Y-42210083D01*
X41845714Y-42133892D01*
X41807619Y-42095797D01*
X41731428Y-42057702D01*
X41579047Y-42019607D01*
X41502857Y-41981511D01*
X41464761Y-41943416D01*
X41426666Y-41867226D01*
X41426666Y-41791035D01*
X41464761Y-41714845D01*
X41502857Y-41676750D01*
X41579047Y-41638654D01*
X41769523Y-41638654D01*
X41883809Y-41676750D01*
X42112380Y-41638654D02*
X42569523Y-41638654D01*
X42340952Y-42438654D02*
X42340952Y-41638654D01*
X41272333Y-47119607D02*
X41005666Y-47119607D01*
X41005666Y-47538654D02*
X41005666Y-46738654D01*
X41386619Y-46738654D01*
X42034238Y-47005321D02*
X42034238Y-47538654D01*
X41843761Y-46700559D02*
X41653285Y-47271988D01*
X42148523Y-47271988D01*
X51851476Y-44236750D02*
X51775285Y-44198654D01*
X51661000Y-44198654D01*
X51546714Y-44236750D01*
X51470523Y-44312940D01*
X51432428Y-44389130D01*
X51394333Y-44541511D01*
X51394333Y-44655797D01*
X51432428Y-44808178D01*
X51470523Y-44884369D01*
X51546714Y-44960559D01*
X51661000Y-44998654D01*
X51737190Y-44998654D01*
X51851476Y-44960559D01*
X51889571Y-44922464D01*
X51889571Y-44655797D01*
X51737190Y-44655797D01*
X52232428Y-44998654D02*
X52232428Y-44198654D01*
X52689571Y-44998654D01*
X52689571Y-44198654D01*
X53070523Y-44998654D02*
X53070523Y-44198654D01*
X53261000Y-44198654D01*
X53375285Y-44236750D01*
X53451476Y-44312940D01*
X53489571Y-44389130D01*
X53527666Y-44541511D01*
X53527666Y-44655797D01*
X53489571Y-44808178D01*
X53451476Y-44884369D01*
X53375285Y-44960559D01*
X53261000Y-44998654D01*
X53070523Y-44998654D01*
X52137190Y-64899607D02*
X52251476Y-64937702D01*
X52289571Y-64975797D01*
X52327666Y-65051988D01*
X52327666Y-65166273D01*
X52289571Y-65242464D01*
X52251476Y-65280559D01*
X52175285Y-65318654D01*
X51870523Y-65318654D01*
X51870523Y-64518654D01*
X52137190Y-64518654D01*
X52213380Y-64556750D01*
X52251476Y-64594845D01*
X52289571Y-64671035D01*
X52289571Y-64747226D01*
X52251476Y-64823416D01*
X52213380Y-64861511D01*
X52137190Y-64899607D01*
X51870523Y-64899607D01*
X53051476Y-64518654D02*
X52670523Y-64518654D01*
X52632428Y-64899607D01*
X52670523Y-64861511D01*
X52746714Y-64823416D01*
X52937190Y-64823416D01*
X53013380Y-64861511D01*
X53051476Y-64899607D01*
X53089571Y-64975797D01*
X53089571Y-65166273D01*
X53051476Y-65242464D01*
X53013380Y-65280559D01*
X52937190Y-65318654D01*
X52746714Y-65318654D01*
X52670523Y-65280559D01*
X52632428Y-65242464D01*
X41272333Y-54739607D02*
X41005666Y-54739607D01*
X41005666Y-55158654D02*
X41005666Y-54358654D01*
X41386619Y-54358654D01*
X41615190Y-54358654D02*
X42148523Y-54358654D01*
X41805666Y-55158654D01*
X41272333Y-52199607D02*
X41005666Y-52199607D01*
X41005666Y-52618654D02*
X41005666Y-51818654D01*
X41386619Y-51818654D01*
X42034238Y-51818654D02*
X41881857Y-51818654D01*
X41805666Y-51856750D01*
X41767571Y-51894845D01*
X41691380Y-52009130D01*
X41653285Y-52161511D01*
X41653285Y-52466273D01*
X41691380Y-52542464D01*
X41729476Y-52580559D01*
X41805666Y-52618654D01*
X41958047Y-52618654D01*
X42034238Y-52580559D01*
X42072333Y-52542464D01*
X42110428Y-52466273D01*
X42110428Y-52275797D01*
X42072333Y-52199607D01*
X42034238Y-52161511D01*
X41958047Y-52123416D01*
X41805666Y-52123416D01*
X41729476Y-52161511D01*
X41691380Y-52199607D01*
X41653285Y-52275797D01*
X52137190Y-62359607D02*
X52251476Y-62397702D01*
X52289571Y-62435797D01*
X52327666Y-62511988D01*
X52327666Y-62626273D01*
X52289571Y-62702464D01*
X52251476Y-62740559D01*
X52175285Y-62778654D01*
X51870523Y-62778654D01*
X51870523Y-61978654D01*
X52137190Y-61978654D01*
X52213380Y-62016750D01*
X52251476Y-62054845D01*
X52289571Y-62131035D01*
X52289571Y-62207226D01*
X52251476Y-62283416D01*
X52213380Y-62321511D01*
X52137190Y-62359607D01*
X51870523Y-62359607D01*
X53013380Y-62245321D02*
X53013380Y-62778654D01*
X52822904Y-61940559D02*
X52632428Y-62511988D01*
X53127666Y-62511988D01*
X51870523Y-57698654D02*
X51870523Y-56898654D01*
X52061000Y-56898654D01*
X52175285Y-56936750D01*
X52251476Y-57012940D01*
X52289571Y-57089130D01*
X52327666Y-57241511D01*
X52327666Y-57355797D01*
X52289571Y-57508178D01*
X52251476Y-57584369D01*
X52175285Y-57660559D01*
X52061000Y-57698654D01*
X51870523Y-57698654D01*
X52594333Y-56898654D02*
X53127666Y-56898654D01*
X52784809Y-57698654D01*
X52327666Y-55082464D02*
X52289571Y-55120559D01*
X52175285Y-55158654D01*
X52099095Y-55158654D01*
X51984809Y-55120559D01*
X51908619Y-55044369D01*
X51870523Y-54968178D01*
X51832428Y-54815797D01*
X51832428Y-54701511D01*
X51870523Y-54549130D01*
X51908619Y-54472940D01*
X51984809Y-54396750D01*
X52099095Y-54358654D01*
X52175285Y-54358654D01*
X52289571Y-54396750D01*
X52327666Y-54434845D01*
X53013380Y-54358654D02*
X52861000Y-54358654D01*
X52784809Y-54396750D01*
X52746714Y-54434845D01*
X52670523Y-54549130D01*
X52632428Y-54701511D01*
X52632428Y-55006273D01*
X52670523Y-55082464D01*
X52708619Y-55120559D01*
X52784809Y-55158654D01*
X52937190Y-55158654D01*
X53013380Y-55120559D01*
X53051476Y-55082464D01*
X53089571Y-55006273D01*
X53089571Y-54815797D01*
X53051476Y-54739607D01*
X53013380Y-54701511D01*
X52937190Y-54663416D01*
X52784809Y-54663416D01*
X52708619Y-54701511D01*
X52670523Y-54739607D01*
X52632428Y-54815797D01*
X41272333Y-49659607D02*
X41005666Y-49659607D01*
X41005666Y-50078654D02*
X41005666Y-49278654D01*
X41386619Y-49278654D01*
X42072333Y-49278654D02*
X41691380Y-49278654D01*
X41653285Y-49659607D01*
X41691380Y-49621511D01*
X41767571Y-49583416D01*
X41958047Y-49583416D01*
X42034238Y-49621511D01*
X42072333Y-49659607D01*
X42110428Y-49735797D01*
X42110428Y-49926273D01*
X42072333Y-50002464D01*
X42034238Y-50040559D01*
X41958047Y-50078654D01*
X41767571Y-50078654D01*
X41691380Y-50040559D01*
X41653285Y-50002464D01*
X78286904Y-38165476D02*
X77486904Y-38165476D01*
X77486904Y-37975000D01*
X77525000Y-37860714D01*
X77601190Y-37784523D01*
X77677380Y-37746428D01*
X77829761Y-37708333D01*
X77944047Y-37708333D01*
X78096428Y-37746428D01*
X78172619Y-37784523D01*
X78248809Y-37860714D01*
X78286904Y-37975000D01*
X78286904Y-38165476D01*
X78286904Y-36946428D02*
X78286904Y-37403571D01*
X78286904Y-37175000D02*
X77486904Y-37175000D01*
X77601190Y-37251190D01*
X77677380Y-37327380D01*
X77715476Y-37403571D01*
X97286904Y-38015476D02*
X96486904Y-38015476D01*
X96486904Y-37825000D01*
X96525000Y-37710714D01*
X96601190Y-37634523D01*
X96677380Y-37596428D01*
X96829761Y-37558333D01*
X96944047Y-37558333D01*
X97096428Y-37596428D01*
X97172619Y-37634523D01*
X97248809Y-37710714D01*
X97286904Y-37825000D01*
X97286904Y-38015476D01*
X96563095Y-37253571D02*
X96525000Y-37215476D01*
X96486904Y-37139285D01*
X96486904Y-36948809D01*
X96525000Y-36872619D01*
X96563095Y-36834523D01*
X96639285Y-36796428D01*
X96715476Y-36796428D01*
X96829761Y-36834523D01*
X97286904Y-37291666D01*
X97286904Y-36796428D01*
X116286904Y-38090476D02*
X115486904Y-38090476D01*
X115486904Y-37900000D01*
X115525000Y-37785714D01*
X115601190Y-37709523D01*
X115677380Y-37671428D01*
X115829761Y-37633333D01*
X115944047Y-37633333D01*
X116096428Y-37671428D01*
X116172619Y-37709523D01*
X116248809Y-37785714D01*
X116286904Y-37900000D01*
X116286904Y-38090476D01*
X115486904Y-37366666D02*
X115486904Y-36871428D01*
X115791666Y-37138095D01*
X115791666Y-37023809D01*
X115829761Y-36947619D01*
X115867857Y-36909523D01*
X115944047Y-36871428D01*
X116134523Y-36871428D01*
X116210714Y-36909523D01*
X116248809Y-36947619D01*
X116286904Y-37023809D01*
X116286904Y-37252380D01*
X116248809Y-37328571D01*
X116210714Y-37366666D01*
X70609523Y-47236904D02*
X70609523Y-46436904D01*
X70800000Y-46436904D01*
X70914285Y-46475000D01*
X70990476Y-46551190D01*
X71028571Y-46627380D01*
X71066666Y-46779761D01*
X71066666Y-46894047D01*
X71028571Y-47046428D01*
X70990476Y-47122619D01*
X70914285Y-47198809D01*
X70800000Y-47236904D01*
X70609523Y-47236904D01*
X71752380Y-46703571D02*
X71752380Y-47236904D01*
X71561904Y-46398809D02*
X71371428Y-46970238D01*
X71866666Y-46970238D01*
X73009523Y-66236904D02*
X73009523Y-65436904D01*
X73200000Y-65436904D01*
X73314285Y-65475000D01*
X73390476Y-65551190D01*
X73428571Y-65627380D01*
X73466666Y-65779761D01*
X73466666Y-65894047D01*
X73428571Y-66046428D01*
X73390476Y-66122619D01*
X73314285Y-66198809D01*
X73200000Y-66236904D01*
X73009523Y-66236904D01*
X74190476Y-65436904D02*
X73809523Y-65436904D01*
X73771428Y-65817857D01*
X73809523Y-65779761D01*
X73885714Y-65741666D01*
X74076190Y-65741666D01*
X74152380Y-65779761D01*
X74190476Y-65817857D01*
X74228571Y-65894047D01*
X74228571Y-66084523D01*
X74190476Y-66160714D01*
X74152380Y-66198809D01*
X74076190Y-66236904D01*
X73885714Y-66236904D01*
X73809523Y-66198809D01*
X73771428Y-66160714D01*
X77759523Y-85261904D02*
X77759523Y-84461904D01*
X77950000Y-84461904D01*
X78064285Y-84500000D01*
X78140476Y-84576190D01*
X78178571Y-84652380D01*
X78216666Y-84804761D01*
X78216666Y-84919047D01*
X78178571Y-85071428D01*
X78140476Y-85147619D01*
X78064285Y-85223809D01*
X77950000Y-85261904D01*
X77759523Y-85261904D01*
X78902380Y-84461904D02*
X78750000Y-84461904D01*
X78673809Y-84500000D01*
X78635714Y-84538095D01*
X78559523Y-84652380D01*
X78521428Y-84804761D01*
X78521428Y-85109523D01*
X78559523Y-85185714D01*
X78597619Y-85223809D01*
X78673809Y-85261904D01*
X78826190Y-85261904D01*
X78902380Y-85223809D01*
X78940476Y-85185714D01*
X78978571Y-85109523D01*
X78978571Y-84919047D01*
X78940476Y-84842857D01*
X78902380Y-84804761D01*
X78826190Y-84766666D01*
X78673809Y-84766666D01*
X78597619Y-84804761D01*
X78559523Y-84842857D01*
X78521428Y-84919047D01*
X77934523Y-104286904D02*
X77934523Y-103486904D01*
X78125000Y-103486904D01*
X78239285Y-103525000D01*
X78315476Y-103601190D01*
X78353571Y-103677380D01*
X78391666Y-103829761D01*
X78391666Y-103944047D01*
X78353571Y-104096428D01*
X78315476Y-104172619D01*
X78239285Y-104248809D01*
X78125000Y-104286904D01*
X77934523Y-104286904D01*
X78658333Y-103486904D02*
X79191666Y-103486904D01*
X78848809Y-104286904D01*
X99234523Y-66286904D02*
X99234523Y-65486904D01*
X99425000Y-65486904D01*
X99539285Y-65525000D01*
X99615476Y-65601190D01*
X99653571Y-65677380D01*
X99691666Y-65829761D01*
X99691666Y-65944047D01*
X99653571Y-66096428D01*
X99615476Y-66172619D01*
X99539285Y-66248809D01*
X99425000Y-66286904D01*
X99234523Y-66286904D01*
X100072619Y-66286904D02*
X100225000Y-66286904D01*
X100301190Y-66248809D01*
X100339285Y-66210714D01*
X100415476Y-66096428D01*
X100453571Y-65944047D01*
X100453571Y-65639285D01*
X100415476Y-65563095D01*
X100377380Y-65525000D01*
X100301190Y-65486904D01*
X100148809Y-65486904D01*
X100072619Y-65525000D01*
X100034523Y-65563095D01*
X99996428Y-65639285D01*
X99996428Y-65829761D01*
X100034523Y-65905952D01*
X100072619Y-65944047D01*
X100148809Y-65982142D01*
X100301190Y-65982142D01*
X100377380Y-65944047D01*
X100415476Y-65905952D01*
X100453571Y-65829761D01*
X101153571Y-104211904D02*
X101153571Y-103411904D01*
X101344047Y-103411904D01*
X101458333Y-103450000D01*
X101534523Y-103526190D01*
X101572619Y-103602380D01*
X101610714Y-103754761D01*
X101610714Y-103869047D01*
X101572619Y-104021428D01*
X101534523Y-104097619D01*
X101458333Y-104173809D01*
X101344047Y-104211904D01*
X101153571Y-104211904D01*
X102372619Y-104211904D02*
X101915476Y-104211904D01*
X102144047Y-104211904D02*
X102144047Y-103411904D01*
X102067857Y-103526190D01*
X101991666Y-103602380D01*
X101915476Y-103640476D01*
X103134523Y-104211904D02*
X102677380Y-104211904D01*
X102905952Y-104211904D02*
X102905952Y-103411904D01*
X102829761Y-103526190D01*
X102753571Y-103602380D01*
X102677380Y-103640476D01*
X113153571Y-47261904D02*
X113153571Y-46461904D01*
X113344047Y-46461904D01*
X113458333Y-46500000D01*
X113534523Y-46576190D01*
X113572619Y-46652380D01*
X113610714Y-46804761D01*
X113610714Y-46919047D01*
X113572619Y-47071428D01*
X113534523Y-47147619D01*
X113458333Y-47223809D01*
X113344047Y-47261904D01*
X113153571Y-47261904D01*
X114372619Y-47261904D02*
X113915476Y-47261904D01*
X114144047Y-47261904D02*
X114144047Y-46461904D01*
X114067857Y-46576190D01*
X113991666Y-46652380D01*
X113915476Y-46690476D01*
X114677380Y-46538095D02*
X114715476Y-46500000D01*
X114791666Y-46461904D01*
X114982142Y-46461904D01*
X115058333Y-46500000D01*
X115096428Y-46538095D01*
X115134523Y-46614285D01*
X115134523Y-46690476D01*
X115096428Y-46804761D01*
X114639285Y-47261904D01*
X115134523Y-47261904D01*
X117778571Y-66236904D02*
X117778571Y-65436904D01*
X117969047Y-65436904D01*
X118083333Y-65475000D01*
X118159523Y-65551190D01*
X118197619Y-65627380D01*
X118235714Y-65779761D01*
X118235714Y-65894047D01*
X118197619Y-66046428D01*
X118159523Y-66122619D01*
X118083333Y-66198809D01*
X117969047Y-66236904D01*
X117778571Y-66236904D01*
X118997619Y-66236904D02*
X118540476Y-66236904D01*
X118769047Y-66236904D02*
X118769047Y-65436904D01*
X118692857Y-65551190D01*
X118616666Y-65627380D01*
X118540476Y-65665476D01*
X119264285Y-65436904D02*
X119759523Y-65436904D01*
X119492857Y-65741666D01*
X119607142Y-65741666D01*
X119683333Y-65779761D01*
X119721428Y-65817857D01*
X119759523Y-65894047D01*
X119759523Y-66084523D01*
X119721428Y-66160714D01*
X119683333Y-66198809D01*
X119607142Y-66236904D01*
X119378571Y-66236904D01*
X119302380Y-66198809D01*
X119264285Y-66160714D01*
X127378571Y-85261904D02*
X127378571Y-84461904D01*
X127569047Y-84461904D01*
X127683333Y-84500000D01*
X127759523Y-84576190D01*
X127797619Y-84652380D01*
X127835714Y-84804761D01*
X127835714Y-84919047D01*
X127797619Y-85071428D01*
X127759523Y-85147619D01*
X127683333Y-85223809D01*
X127569047Y-85261904D01*
X127378571Y-85261904D01*
X128597619Y-85261904D02*
X128140476Y-85261904D01*
X128369047Y-85261904D02*
X128369047Y-84461904D01*
X128292857Y-84576190D01*
X128216666Y-84652380D01*
X128140476Y-84690476D01*
X129283333Y-84728571D02*
X129283333Y-85261904D01*
X129092857Y-84423809D02*
X128902380Y-84995238D01*
X129397619Y-84995238D01*
X124978571Y-104236904D02*
X124978571Y-103436904D01*
X125169047Y-103436904D01*
X125283333Y-103475000D01*
X125359523Y-103551190D01*
X125397619Y-103627380D01*
X125435714Y-103779761D01*
X125435714Y-103894047D01*
X125397619Y-104046428D01*
X125359523Y-104122619D01*
X125283333Y-104198809D01*
X125169047Y-104236904D01*
X124978571Y-104236904D01*
X126197619Y-104236904D02*
X125740476Y-104236904D01*
X125969047Y-104236904D02*
X125969047Y-103436904D01*
X125892857Y-103551190D01*
X125816666Y-103627380D01*
X125740476Y-103665476D01*
X126921428Y-103436904D02*
X126540476Y-103436904D01*
X126502380Y-103817857D01*
X126540476Y-103779761D01*
X126616666Y-103741666D01*
X126807142Y-103741666D01*
X126883333Y-103779761D01*
X126921428Y-103817857D01*
X126959523Y-103894047D01*
X126959523Y-104084523D01*
X126921428Y-104160714D01*
X126883333Y-104198809D01*
X126807142Y-104236904D01*
X126616666Y-104236904D01*
X126540476Y-104198809D01*
X126502380Y-104160714D01*
X135286904Y-38471428D02*
X134486904Y-38471428D01*
X134486904Y-38280952D01*
X134525000Y-38166666D01*
X134601190Y-38090476D01*
X134677380Y-38052380D01*
X134829761Y-38014285D01*
X134944047Y-38014285D01*
X135096428Y-38052380D01*
X135172619Y-38090476D01*
X135248809Y-38166666D01*
X135286904Y-38280952D01*
X135286904Y-38471428D01*
X135286904Y-37252380D02*
X135286904Y-37709523D01*
X135286904Y-37480952D02*
X134486904Y-37480952D01*
X134601190Y-37557142D01*
X134677380Y-37633333D01*
X134715476Y-37709523D01*
X134486904Y-36566666D02*
X134486904Y-36719047D01*
X134525000Y-36795238D01*
X134563095Y-36833333D01*
X134677380Y-36909523D01*
X134829761Y-36947619D01*
X135134523Y-36947619D01*
X135210714Y-36909523D01*
X135248809Y-36871428D01*
X135286904Y-36795238D01*
X135286904Y-36642857D01*
X135248809Y-36566666D01*
X135210714Y-36528571D01*
X135134523Y-36490476D01*
X134944047Y-36490476D01*
X134867857Y-36528571D01*
X134829761Y-36566666D01*
X134791666Y-36642857D01*
X134791666Y-36795238D01*
X134829761Y-36871428D01*
X134867857Y-36909523D01*
X134944047Y-36947619D01*
X131903571Y-47236904D02*
X131903571Y-46436904D01*
X132094047Y-46436904D01*
X132208333Y-46475000D01*
X132284523Y-46551190D01*
X132322619Y-46627380D01*
X132360714Y-46779761D01*
X132360714Y-46894047D01*
X132322619Y-47046428D01*
X132284523Y-47122619D01*
X132208333Y-47198809D01*
X132094047Y-47236904D01*
X131903571Y-47236904D01*
X133122619Y-47236904D02*
X132665476Y-47236904D01*
X132894047Y-47236904D02*
X132894047Y-46436904D01*
X132817857Y-46551190D01*
X132741666Y-46627380D01*
X132665476Y-46665476D01*
X133389285Y-46436904D02*
X133922619Y-46436904D01*
X133579761Y-47236904D01*
X136753571Y-66261904D02*
X136753571Y-65461904D01*
X136944047Y-65461904D01*
X137058333Y-65500000D01*
X137134523Y-65576190D01*
X137172619Y-65652380D01*
X137210714Y-65804761D01*
X137210714Y-65919047D01*
X137172619Y-66071428D01*
X137134523Y-66147619D01*
X137058333Y-66223809D01*
X136944047Y-66261904D01*
X136753571Y-66261904D01*
X137972619Y-66261904D02*
X137515476Y-66261904D01*
X137744047Y-66261904D02*
X137744047Y-65461904D01*
X137667857Y-65576190D01*
X137591666Y-65652380D01*
X137515476Y-65690476D01*
X138429761Y-65804761D02*
X138353571Y-65766666D01*
X138315476Y-65728571D01*
X138277380Y-65652380D01*
X138277380Y-65614285D01*
X138315476Y-65538095D01*
X138353571Y-65500000D01*
X138429761Y-65461904D01*
X138582142Y-65461904D01*
X138658333Y-65500000D01*
X138696428Y-65538095D01*
X138734523Y-65614285D01*
X138734523Y-65652380D01*
X138696428Y-65728571D01*
X138658333Y-65766666D01*
X138582142Y-65804761D01*
X138429761Y-65804761D01*
X138353571Y-65842857D01*
X138315476Y-65880952D01*
X138277380Y-65957142D01*
X138277380Y-66109523D01*
X138315476Y-66185714D01*
X138353571Y-66223809D01*
X138429761Y-66261904D01*
X138582142Y-66261904D01*
X138658333Y-66223809D01*
X138696428Y-66185714D01*
X138734523Y-66109523D01*
X138734523Y-65957142D01*
X138696428Y-65880952D01*
X138658333Y-65842857D01*
X138582142Y-65804761D01*
X146328571Y-85286904D02*
X146328571Y-84486904D01*
X146519047Y-84486904D01*
X146633333Y-84525000D01*
X146709523Y-84601190D01*
X146747619Y-84677380D01*
X146785714Y-84829761D01*
X146785714Y-84944047D01*
X146747619Y-85096428D01*
X146709523Y-85172619D01*
X146633333Y-85248809D01*
X146519047Y-85286904D01*
X146328571Y-85286904D01*
X147547619Y-85286904D02*
X147090476Y-85286904D01*
X147319047Y-85286904D02*
X147319047Y-84486904D01*
X147242857Y-84601190D01*
X147166666Y-84677380D01*
X147090476Y-84715476D01*
X147928571Y-85286904D02*
X148080952Y-85286904D01*
X148157142Y-85248809D01*
X148195238Y-85210714D01*
X148271428Y-85096428D01*
X148309523Y-84944047D01*
X148309523Y-84639285D01*
X148271428Y-84563095D01*
X148233333Y-84525000D01*
X148157142Y-84486904D01*
X148004761Y-84486904D01*
X147928571Y-84525000D01*
X147890476Y-84563095D01*
X147852380Y-84639285D01*
X147852380Y-84829761D01*
X147890476Y-84905952D01*
X147928571Y-84944047D01*
X148004761Y-84982142D01*
X148157142Y-84982142D01*
X148233333Y-84944047D01*
X148271428Y-84905952D01*
X148309523Y-84829761D01*
X158128571Y-104236904D02*
X158128571Y-103436904D01*
X158319047Y-103436904D01*
X158433333Y-103475000D01*
X158509523Y-103551190D01*
X158547619Y-103627380D01*
X158585714Y-103779761D01*
X158585714Y-103894047D01*
X158547619Y-104046428D01*
X158509523Y-104122619D01*
X158433333Y-104198809D01*
X158319047Y-104236904D01*
X158128571Y-104236904D01*
X158890476Y-103513095D02*
X158928571Y-103475000D01*
X159004761Y-103436904D01*
X159195238Y-103436904D01*
X159271428Y-103475000D01*
X159309523Y-103513095D01*
X159347619Y-103589285D01*
X159347619Y-103665476D01*
X159309523Y-103779761D01*
X158852380Y-104236904D01*
X159347619Y-104236904D01*
X159842857Y-103436904D02*
X159919047Y-103436904D01*
X159995238Y-103475000D01*
X160033333Y-103513095D01*
X160071428Y-103589285D01*
X160109523Y-103741666D01*
X160109523Y-103932142D01*
X160071428Y-104084523D01*
X160033333Y-104160714D01*
X159995238Y-104198809D01*
X159919047Y-104236904D01*
X159842857Y-104236904D01*
X159766666Y-104198809D01*
X159728571Y-104160714D01*
X159690476Y-104084523D01*
X159652380Y-103932142D01*
X159652380Y-103741666D01*
X159690476Y-103589285D01*
X159728571Y-103513095D01*
X159766666Y-103475000D01*
X159842857Y-103436904D01*
X153786904Y-38471428D02*
X152986904Y-38471428D01*
X152986904Y-38280952D01*
X153025000Y-38166666D01*
X153101190Y-38090476D01*
X153177380Y-38052380D01*
X153329761Y-38014285D01*
X153444047Y-38014285D01*
X153596428Y-38052380D01*
X153672619Y-38090476D01*
X153748809Y-38166666D01*
X153786904Y-38280952D01*
X153786904Y-38471428D01*
X153063095Y-37709523D02*
X153025000Y-37671428D01*
X152986904Y-37595238D01*
X152986904Y-37404761D01*
X153025000Y-37328571D01*
X153063095Y-37290476D01*
X153139285Y-37252380D01*
X153215476Y-37252380D01*
X153329761Y-37290476D01*
X153786904Y-37747619D01*
X153786904Y-37252380D01*
X153786904Y-36490476D02*
X153786904Y-36947619D01*
X153786904Y-36719047D02*
X152986904Y-36719047D01*
X153101190Y-36795238D01*
X153177380Y-36871428D01*
X153215476Y-36947619D01*
X151253571Y-47261904D02*
X151253571Y-46461904D01*
X151444047Y-46461904D01*
X151558333Y-46500000D01*
X151634523Y-46576190D01*
X151672619Y-46652380D01*
X151710714Y-46804761D01*
X151710714Y-46919047D01*
X151672619Y-47071428D01*
X151634523Y-47147619D01*
X151558333Y-47223809D01*
X151444047Y-47261904D01*
X151253571Y-47261904D01*
X152015476Y-46538095D02*
X152053571Y-46500000D01*
X152129761Y-46461904D01*
X152320238Y-46461904D01*
X152396428Y-46500000D01*
X152434523Y-46538095D01*
X152472619Y-46614285D01*
X152472619Y-46690476D01*
X152434523Y-46804761D01*
X151977380Y-47261904D01*
X152472619Y-47261904D01*
X152777380Y-46538095D02*
X152815476Y-46500000D01*
X152891666Y-46461904D01*
X153082142Y-46461904D01*
X153158333Y-46500000D01*
X153196428Y-46538095D01*
X153234523Y-46614285D01*
X153234523Y-46690476D01*
X153196428Y-46804761D01*
X152739285Y-47261904D01*
X153234523Y-47261904D01*
X155803571Y-66211904D02*
X155803571Y-65411904D01*
X155994047Y-65411904D01*
X156108333Y-65450000D01*
X156184523Y-65526190D01*
X156222619Y-65602380D01*
X156260714Y-65754761D01*
X156260714Y-65869047D01*
X156222619Y-66021428D01*
X156184523Y-66097619D01*
X156108333Y-66173809D01*
X155994047Y-66211904D01*
X155803571Y-66211904D01*
X156565476Y-65488095D02*
X156603571Y-65450000D01*
X156679761Y-65411904D01*
X156870238Y-65411904D01*
X156946428Y-65450000D01*
X156984523Y-65488095D01*
X157022619Y-65564285D01*
X157022619Y-65640476D01*
X156984523Y-65754761D01*
X156527380Y-66211904D01*
X157022619Y-66211904D01*
X157289285Y-65411904D02*
X157784523Y-65411904D01*
X157517857Y-65716666D01*
X157632142Y-65716666D01*
X157708333Y-65754761D01*
X157746428Y-65792857D01*
X157784523Y-65869047D01*
X157784523Y-66059523D01*
X157746428Y-66135714D01*
X157708333Y-66173809D01*
X157632142Y-66211904D01*
X157403571Y-66211904D01*
X157327380Y-66173809D01*
X157289285Y-66135714D01*
X165303571Y-85286904D02*
X165303571Y-84486904D01*
X165494047Y-84486904D01*
X165608333Y-84525000D01*
X165684523Y-84601190D01*
X165722619Y-84677380D01*
X165760714Y-84829761D01*
X165760714Y-84944047D01*
X165722619Y-85096428D01*
X165684523Y-85172619D01*
X165608333Y-85248809D01*
X165494047Y-85286904D01*
X165303571Y-85286904D01*
X166065476Y-84563095D02*
X166103571Y-84525000D01*
X166179761Y-84486904D01*
X166370238Y-84486904D01*
X166446428Y-84525000D01*
X166484523Y-84563095D01*
X166522619Y-84639285D01*
X166522619Y-84715476D01*
X166484523Y-84829761D01*
X166027380Y-85286904D01*
X166522619Y-85286904D01*
X167208333Y-84753571D02*
X167208333Y-85286904D01*
X167017857Y-84448809D02*
X166827380Y-85020238D01*
X167322619Y-85020238D01*
X173286904Y-38471428D02*
X172486904Y-38471428D01*
X172486904Y-38280952D01*
X172525000Y-38166666D01*
X172601190Y-38090476D01*
X172677380Y-38052380D01*
X172829761Y-38014285D01*
X172944047Y-38014285D01*
X173096428Y-38052380D01*
X173172619Y-38090476D01*
X173248809Y-38166666D01*
X173286904Y-38280952D01*
X173286904Y-38471428D01*
X172563095Y-37709523D02*
X172525000Y-37671428D01*
X172486904Y-37595238D01*
X172486904Y-37404761D01*
X172525000Y-37328571D01*
X172563095Y-37290476D01*
X172639285Y-37252380D01*
X172715476Y-37252380D01*
X172829761Y-37290476D01*
X173286904Y-37747619D01*
X173286904Y-37252380D01*
X172486904Y-36566666D02*
X172486904Y-36719047D01*
X172525000Y-36795238D01*
X172563095Y-36833333D01*
X172677380Y-36909523D01*
X172829761Y-36947619D01*
X173134523Y-36947619D01*
X173210714Y-36909523D01*
X173248809Y-36871428D01*
X173286904Y-36795238D01*
X173286904Y-36642857D01*
X173248809Y-36566666D01*
X173210714Y-36528571D01*
X173134523Y-36490476D01*
X172944047Y-36490476D01*
X172867857Y-36528571D01*
X172829761Y-36566666D01*
X172791666Y-36642857D01*
X172791666Y-36795238D01*
X172829761Y-36871428D01*
X172867857Y-36909523D01*
X172944047Y-36947619D01*
X170028571Y-47436904D02*
X170028571Y-46636904D01*
X170219047Y-46636904D01*
X170333333Y-46675000D01*
X170409523Y-46751190D01*
X170447619Y-46827380D01*
X170485714Y-46979761D01*
X170485714Y-47094047D01*
X170447619Y-47246428D01*
X170409523Y-47322619D01*
X170333333Y-47398809D01*
X170219047Y-47436904D01*
X170028571Y-47436904D01*
X170790476Y-46713095D02*
X170828571Y-46675000D01*
X170904761Y-46636904D01*
X171095238Y-46636904D01*
X171171428Y-46675000D01*
X171209523Y-46713095D01*
X171247619Y-46789285D01*
X171247619Y-46865476D01*
X171209523Y-46979761D01*
X170752380Y-47436904D01*
X171247619Y-47436904D01*
X171514285Y-46636904D02*
X172047619Y-46636904D01*
X171704761Y-47436904D01*
X174728571Y-66261904D02*
X174728571Y-65461904D01*
X174919047Y-65461904D01*
X175033333Y-65500000D01*
X175109523Y-65576190D01*
X175147619Y-65652380D01*
X175185714Y-65804761D01*
X175185714Y-65919047D01*
X175147619Y-66071428D01*
X175109523Y-66147619D01*
X175033333Y-66223809D01*
X174919047Y-66261904D01*
X174728571Y-66261904D01*
X175490476Y-65538095D02*
X175528571Y-65500000D01*
X175604761Y-65461904D01*
X175795238Y-65461904D01*
X175871428Y-65500000D01*
X175909523Y-65538095D01*
X175947619Y-65614285D01*
X175947619Y-65690476D01*
X175909523Y-65804761D01*
X175452380Y-66261904D01*
X175947619Y-66261904D01*
X176404761Y-65804761D02*
X176328571Y-65766666D01*
X176290476Y-65728571D01*
X176252380Y-65652380D01*
X176252380Y-65614285D01*
X176290476Y-65538095D01*
X176328571Y-65500000D01*
X176404761Y-65461904D01*
X176557142Y-65461904D01*
X176633333Y-65500000D01*
X176671428Y-65538095D01*
X176709523Y-65614285D01*
X176709523Y-65652380D01*
X176671428Y-65728571D01*
X176633333Y-65766666D01*
X176557142Y-65804761D01*
X176404761Y-65804761D01*
X176328571Y-65842857D01*
X176290476Y-65880952D01*
X176252380Y-65957142D01*
X176252380Y-66109523D01*
X176290476Y-66185714D01*
X176328571Y-66223809D01*
X176404761Y-66261904D01*
X176557142Y-66261904D01*
X176633333Y-66223809D01*
X176671428Y-66185714D01*
X176709523Y-66109523D01*
X176709523Y-65957142D01*
X176671428Y-65880952D01*
X176633333Y-65842857D01*
X176557142Y-65804761D01*
X184253571Y-85286904D02*
X184253571Y-84486904D01*
X184444047Y-84486904D01*
X184558333Y-84525000D01*
X184634523Y-84601190D01*
X184672619Y-84677380D01*
X184710714Y-84829761D01*
X184710714Y-84944047D01*
X184672619Y-85096428D01*
X184634523Y-85172619D01*
X184558333Y-85248809D01*
X184444047Y-85286904D01*
X184253571Y-85286904D01*
X185015476Y-84563095D02*
X185053571Y-84525000D01*
X185129761Y-84486904D01*
X185320238Y-84486904D01*
X185396428Y-84525000D01*
X185434523Y-84563095D01*
X185472619Y-84639285D01*
X185472619Y-84715476D01*
X185434523Y-84829761D01*
X184977380Y-85286904D01*
X185472619Y-85286904D01*
X185853571Y-85286904D02*
X186005952Y-85286904D01*
X186082142Y-85248809D01*
X186120238Y-85210714D01*
X186196428Y-85096428D01*
X186234523Y-84944047D01*
X186234523Y-84639285D01*
X186196428Y-84563095D01*
X186158333Y-84525000D01*
X186082142Y-84486904D01*
X185929761Y-84486904D01*
X185853571Y-84525000D01*
X185815476Y-84563095D01*
X185777380Y-84639285D01*
X185777380Y-84829761D01*
X185815476Y-84905952D01*
X185853571Y-84944047D01*
X185929761Y-84982142D01*
X186082142Y-84982142D01*
X186158333Y-84944047D01*
X186196428Y-84905952D01*
X186234523Y-84829761D01*
X203245011Y-122558260D02*
X202971395Y-123310015D01*
X202792406Y-123244868D01*
X202698042Y-123169982D01*
X202652505Y-123072328D01*
X202642766Y-122987703D01*
X202659086Y-122831482D01*
X202698174Y-122724089D01*
X202786089Y-122593927D01*
X202847945Y-122535360D01*
X202945600Y-122489824D01*
X203066022Y-122493114D01*
X203245011Y-122558260D01*
X202291237Y-123062457D02*
X201825865Y-122893076D01*
X202180685Y-122697899D01*
X202073291Y-122658811D01*
X202014725Y-122596954D01*
X201991957Y-122548127D01*
X201982217Y-122463502D01*
X202047364Y-122284513D01*
X202109221Y-122225947D01*
X202158048Y-122203178D01*
X202242673Y-122193439D01*
X202457460Y-122271615D01*
X202516026Y-122333471D01*
X202538794Y-122382299D01*
X201360494Y-122723694D02*
X201288898Y-122697636D01*
X201230332Y-122635779D01*
X201207563Y-122586952D01*
X201197824Y-122502327D01*
X201214144Y-122346106D01*
X201279290Y-122167117D01*
X201367206Y-122036955D01*
X201429062Y-121978389D01*
X201477889Y-121955621D01*
X201562514Y-121945881D01*
X201634110Y-121971940D01*
X201692676Y-122033797D01*
X201715445Y-122082624D01*
X201725184Y-122167249D01*
X201708864Y-122323469D01*
X201643718Y-122502458D01*
X201555802Y-122632620D01*
X201493946Y-122691187D01*
X201445119Y-122713955D01*
X201360494Y-122723694D01*
X181103571Y-51361904D02*
X181103571Y-50561904D01*
X181294047Y-50561904D01*
X181408333Y-50600000D01*
X181484523Y-50676190D01*
X181522619Y-50752380D01*
X181560714Y-50904761D01*
X181560714Y-51019047D01*
X181522619Y-51171428D01*
X181484523Y-51247619D01*
X181408333Y-51323809D01*
X181294047Y-51361904D01*
X181103571Y-51361904D01*
X181827380Y-50561904D02*
X182322619Y-50561904D01*
X182055952Y-50866666D01*
X182170238Y-50866666D01*
X182246428Y-50904761D01*
X182284523Y-50942857D01*
X182322619Y-51019047D01*
X182322619Y-51209523D01*
X182284523Y-51285714D01*
X182246428Y-51323809D01*
X182170238Y-51361904D01*
X181941666Y-51361904D01*
X181865476Y-51323809D01*
X181827380Y-51285714D01*
X183084523Y-51361904D02*
X182627380Y-51361904D01*
X182855952Y-51361904D02*
X182855952Y-50561904D01*
X182779761Y-50676190D01*
X182703571Y-50752380D01*
X182627380Y-50790476D01*
X182566904Y-59471428D02*
X181766904Y-59471428D01*
X181766904Y-59280952D01*
X181805000Y-59166666D01*
X181881190Y-59090476D01*
X181957380Y-59052380D01*
X182109761Y-59014285D01*
X182224047Y-59014285D01*
X182376428Y-59052380D01*
X182452619Y-59090476D01*
X182528809Y-59166666D01*
X182566904Y-59280952D01*
X182566904Y-59471428D01*
X181766904Y-58747619D02*
X181766904Y-58252380D01*
X182071666Y-58519047D01*
X182071666Y-58404761D01*
X182109761Y-58328571D01*
X182147857Y-58290476D01*
X182224047Y-58252380D01*
X182414523Y-58252380D01*
X182490714Y-58290476D01*
X182528809Y-58328571D01*
X182566904Y-58404761D01*
X182566904Y-58633333D01*
X182528809Y-58709523D01*
X182490714Y-58747619D01*
X181843095Y-57947619D02*
X181805000Y-57909523D01*
X181766904Y-57833333D01*
X181766904Y-57642857D01*
X181805000Y-57566666D01*
X181843095Y-57528571D01*
X181919285Y-57490476D01*
X181995476Y-57490476D01*
X182109761Y-57528571D01*
X182566904Y-57985714D01*
X182566904Y-57490476D01*
X191028571Y-66261904D02*
X191028571Y-65461904D01*
X191219047Y-65461904D01*
X191333333Y-65500000D01*
X191409523Y-65576190D01*
X191447619Y-65652380D01*
X191485714Y-65804761D01*
X191485714Y-65919047D01*
X191447619Y-66071428D01*
X191409523Y-66147619D01*
X191333333Y-66223809D01*
X191219047Y-66261904D01*
X191028571Y-66261904D01*
X191752380Y-65461904D02*
X192247619Y-65461904D01*
X191980952Y-65766666D01*
X192095238Y-65766666D01*
X192171428Y-65804761D01*
X192209523Y-65842857D01*
X192247619Y-65919047D01*
X192247619Y-66109523D01*
X192209523Y-66185714D01*
X192171428Y-66223809D01*
X192095238Y-66261904D01*
X191866666Y-66261904D01*
X191790476Y-66223809D01*
X191752380Y-66185714D01*
X192514285Y-65461904D02*
X193009523Y-65461904D01*
X192742857Y-65766666D01*
X192857142Y-65766666D01*
X192933333Y-65804761D01*
X192971428Y-65842857D01*
X193009523Y-65919047D01*
X193009523Y-66109523D01*
X192971428Y-66185714D01*
X192933333Y-66223809D01*
X192857142Y-66261904D01*
X192628571Y-66261904D01*
X192552380Y-66223809D01*
X192514285Y-66185714D01*
X108353571Y-85261904D02*
X108353571Y-84461904D01*
X108544047Y-84461904D01*
X108658333Y-84500000D01*
X108734523Y-84576190D01*
X108772619Y-84652380D01*
X108810714Y-84804761D01*
X108810714Y-84919047D01*
X108772619Y-85071428D01*
X108734523Y-85147619D01*
X108658333Y-85223809D01*
X108544047Y-85261904D01*
X108353571Y-85261904D01*
X109572619Y-85261904D02*
X109115476Y-85261904D01*
X109344047Y-85261904D02*
X109344047Y-84461904D01*
X109267857Y-84576190D01*
X109191666Y-84652380D01*
X109115476Y-84690476D01*
X110067857Y-84461904D02*
X110144047Y-84461904D01*
X110220238Y-84500000D01*
X110258333Y-84538095D01*
X110296428Y-84614285D01*
X110334523Y-84766666D01*
X110334523Y-84957142D01*
X110296428Y-85109523D01*
X110258333Y-85185714D01*
X110220238Y-85223809D01*
X110144047Y-85261904D01*
X110067857Y-85261904D01*
X109991666Y-85223809D01*
X109953571Y-85185714D01*
X109915476Y-85109523D01*
X109877380Y-84957142D01*
X109877380Y-84766666D01*
X109915476Y-84614285D01*
X109953571Y-84538095D01*
X109991666Y-84500000D01*
X110067857Y-84461904D01*
X94284523Y-47286904D02*
X94284523Y-46486904D01*
X94475000Y-46486904D01*
X94589285Y-46525000D01*
X94665476Y-46601190D01*
X94703571Y-46677380D01*
X94741666Y-46829761D01*
X94741666Y-46944047D01*
X94703571Y-47096428D01*
X94665476Y-47172619D01*
X94589285Y-47248809D01*
X94475000Y-47286904D01*
X94284523Y-47286904D01*
X95198809Y-46829761D02*
X95122619Y-46791666D01*
X95084523Y-46753571D01*
X95046428Y-46677380D01*
X95046428Y-46639285D01*
X95084523Y-46563095D01*
X95122619Y-46525000D01*
X95198809Y-46486904D01*
X95351190Y-46486904D01*
X95427380Y-46525000D01*
X95465476Y-46563095D01*
X95503571Y-46639285D01*
X95503571Y-46677380D01*
X95465476Y-46753571D01*
X95427380Y-46791666D01*
X95351190Y-46829761D01*
X95198809Y-46829761D01*
X95122619Y-46867857D01*
X95084523Y-46905952D01*
X95046428Y-46982142D01*
X95046428Y-47134523D01*
X95084523Y-47210714D01*
X95122619Y-47248809D01*
X95198809Y-47286904D01*
X95351190Y-47286904D01*
X95427380Y-47248809D01*
X95465476Y-47210714D01*
X95503571Y-47134523D01*
X95503571Y-46982142D01*
X95465476Y-46905952D01*
X95427380Y-46867857D01*
X95351190Y-46829761D01*
X196028571Y-85161904D02*
X196028571Y-84361904D01*
X196219047Y-84361904D01*
X196333333Y-84400000D01*
X196409523Y-84476190D01*
X196447619Y-84552380D01*
X196485714Y-84704761D01*
X196485714Y-84819047D01*
X196447619Y-84971428D01*
X196409523Y-85047619D01*
X196333333Y-85123809D01*
X196219047Y-85161904D01*
X196028571Y-85161904D01*
X196752380Y-84361904D02*
X197247619Y-84361904D01*
X196980952Y-84666666D01*
X197095238Y-84666666D01*
X197171428Y-84704761D01*
X197209523Y-84742857D01*
X197247619Y-84819047D01*
X197247619Y-85009523D01*
X197209523Y-85085714D01*
X197171428Y-85123809D01*
X197095238Y-85161904D01*
X196866666Y-85161904D01*
X196790476Y-85123809D01*
X196752380Y-85085714D01*
X197933333Y-84628571D02*
X197933333Y-85161904D01*
X197742857Y-84323809D02*
X197552380Y-84895238D01*
X198047619Y-84895238D01*
X187795011Y-109483260D02*
X187521395Y-110235015D01*
X187342406Y-110169868D01*
X187248042Y-110094982D01*
X187202505Y-109997328D01*
X187192766Y-109912703D01*
X187209086Y-109756482D01*
X187248174Y-109649089D01*
X187336089Y-109518927D01*
X187397945Y-109460360D01*
X187495600Y-109414824D01*
X187616022Y-109418114D01*
X187795011Y-109483260D01*
X186831498Y-109902832D02*
X186782671Y-109925601D01*
X186698046Y-109935340D01*
X186519057Y-109870193D01*
X186460490Y-109808337D01*
X186437722Y-109759509D01*
X186427983Y-109674884D01*
X186454041Y-109603289D01*
X186528927Y-109508925D01*
X187114853Y-109235703D01*
X186649481Y-109066322D01*
X185695707Y-109570518D02*
X186053685Y-109700812D01*
X186219776Y-109355863D01*
X186170949Y-109378631D01*
X186086324Y-109388370D01*
X185907335Y-109323224D01*
X185848769Y-109261367D01*
X185826000Y-109212540D01*
X185816261Y-109127915D01*
X185881408Y-108948926D01*
X185943264Y-108890360D01*
X185992091Y-108867591D01*
X186076716Y-108857852D01*
X186255705Y-108922999D01*
X186314272Y-108984855D01*
X186337040Y-109033682D01*
X62286904Y-77395238D02*
X61486904Y-77395238D01*
X61486904Y-77204761D01*
X61525000Y-77090476D01*
X61601190Y-77014285D01*
X61677380Y-76976190D01*
X61829761Y-76938095D01*
X61944047Y-76938095D01*
X62096428Y-76976190D01*
X62172619Y-77014285D01*
X62248809Y-77090476D01*
X62286904Y-77204761D01*
X62286904Y-77395238D01*
X61486904Y-76709523D02*
X61486904Y-76252380D01*
X62286904Y-76480952D02*
X61486904Y-76480952D01*
X62286904Y-75566666D02*
X62286904Y-76023809D01*
X62286904Y-75795238D02*
X61486904Y-75795238D01*
X61601190Y-75871428D01*
X61677380Y-75947619D01*
X61715476Y-76023809D01*
X55977380Y-82589404D02*
X55977380Y-82017976D01*
X56977380Y-82303690D02*
X55977380Y-82303690D01*
X56977380Y-81160833D02*
X56977380Y-81732261D01*
X56977380Y-81446547D02*
X55977380Y-81446547D01*
X56120238Y-81541785D01*
X56215476Y-81637023D01*
X56263095Y-81732261D01*
D11*
X40430952Y-120219523D02*
X40240476Y-120314761D01*
X39859523Y-120314761D01*
X39669047Y-120219523D01*
X39573809Y-120029047D01*
X39573809Y-119267142D01*
X39669047Y-119076666D01*
X39859523Y-118981428D01*
X40240476Y-118981428D01*
X40430952Y-119076666D01*
X40526190Y-119267142D01*
X40526190Y-119457619D01*
X39573809Y-119648095D01*
X41669047Y-120314761D02*
X41478571Y-120219523D01*
X41383333Y-120029047D01*
X41383333Y-118314761D01*
X42716666Y-120314761D02*
X42526190Y-120219523D01*
X42430952Y-120029047D01*
X42430952Y-118314761D01*
X43478571Y-120314761D02*
X43478571Y-118981428D01*
X43478571Y-118314761D02*
X43383333Y-118410000D01*
X43478571Y-118505238D01*
X43573809Y-118410000D01*
X43478571Y-118314761D01*
X43478571Y-118505238D01*
X44430952Y-118981428D02*
X44430952Y-120981428D01*
X44430952Y-119076666D02*
X44621428Y-118981428D01*
X45002380Y-118981428D01*
X45192857Y-119076666D01*
X45288095Y-119171904D01*
X45383333Y-119362380D01*
X45383333Y-119933809D01*
X45288095Y-120124285D01*
X45192857Y-120219523D01*
X45002380Y-120314761D01*
X44621428Y-120314761D01*
X44430952Y-120219523D01*
X46145238Y-120219523D02*
X46335714Y-120314761D01*
X46716666Y-120314761D01*
X46907142Y-120219523D01*
X47002380Y-120029047D01*
X47002380Y-119933809D01*
X46907142Y-119743333D01*
X46716666Y-119648095D01*
X46430952Y-119648095D01*
X46240476Y-119552857D01*
X46145238Y-119362380D01*
X46145238Y-119267142D01*
X46240476Y-119076666D01*
X46430952Y-118981428D01*
X46716666Y-118981428D01*
X46907142Y-119076666D01*
X47859523Y-120314761D02*
X47859523Y-118981428D01*
X47859523Y-118314761D02*
X47764285Y-118410000D01*
X47859523Y-118505238D01*
X47954761Y-118410000D01*
X47859523Y-118314761D01*
X47859523Y-118505238D01*
X48716666Y-120219523D02*
X48907142Y-120314761D01*
X49288095Y-120314761D01*
X49478571Y-120219523D01*
X49573809Y-120029047D01*
X49573809Y-119933809D01*
X49478571Y-119743333D01*
X49288095Y-119648095D01*
X49002380Y-119648095D01*
X48811904Y-119552857D01*
X48716666Y-119362380D01*
X48716666Y-119267142D01*
X48811904Y-119076666D01*
X49002380Y-118981428D01*
X49288095Y-118981428D01*
X49478571Y-119076666D01*
X51764285Y-118981428D02*
X52240476Y-120314761D01*
X52716666Y-118981428D01*
X53383333Y-118505238D02*
X53478571Y-118410000D01*
X53669047Y-118314761D01*
X54145238Y-118314761D01*
X54335714Y-118410000D01*
X54430952Y-118505238D01*
X54526190Y-118695714D01*
X54526190Y-118886190D01*
X54430952Y-119171904D01*
X53288095Y-120314761D01*
X54526190Y-120314761D01*
D10*
X62286904Y-95895238D02*
X61486904Y-95895238D01*
X61486904Y-95704761D01*
X61525000Y-95590476D01*
X61601190Y-95514285D01*
X61677380Y-95476190D01*
X61829761Y-95438095D01*
X61944047Y-95438095D01*
X62096428Y-95476190D01*
X62172619Y-95514285D01*
X62248809Y-95590476D01*
X62286904Y-95704761D01*
X62286904Y-95895238D01*
X61486904Y-95209523D02*
X61486904Y-94752380D01*
X62286904Y-94980952D02*
X61486904Y-94980952D01*
X61563095Y-94523809D02*
X61525000Y-94485714D01*
X61486904Y-94409523D01*
X61486904Y-94219047D01*
X61525000Y-94142857D01*
X61563095Y-94104761D01*
X61639285Y-94066666D01*
X61715476Y-94066666D01*
X61829761Y-94104761D01*
X62286904Y-94561904D01*
X62286904Y-94066666D01*
X55923630Y-100369404D02*
X55923630Y-99797976D01*
X56923630Y-100083690D02*
X55923630Y-100083690D01*
X56018869Y-99512261D02*
X55971250Y-99464642D01*
X55923630Y-99369404D01*
X55923630Y-99131309D01*
X55971250Y-99036071D01*
X56018869Y-98988452D01*
X56114107Y-98940833D01*
X56209345Y-98940833D01*
X56352202Y-98988452D01*
X56923630Y-99559880D01*
X56923630Y-98940833D01*
D12*
X55890000Y-66226750D02*
X38110000Y-66226750D01*
X38110000Y-66226750D02*
X38110000Y-33206750D01*
X53350000Y-35746750D02*
X53350000Y-38286750D01*
X53350000Y-38286750D02*
X55890000Y-38286750D01*
X38110000Y-33206750D02*
X55890000Y-33206750D01*
X55890000Y-33206750D02*
X55890000Y-66226750D01*
X53350000Y-35746750D02*
X55890000Y-35746750D01*
G36*
X41155365Y-42435780D02*
G01*
X41055365Y-42435780D01*
X41055365Y-42235780D01*
X41155365Y-42235780D01*
X41155365Y-42435780D01*
G37*
D10*
X41155365Y-42435780D02*
X41055365Y-42435780D01*
X41055365Y-42235780D01*
X41155365Y-42235780D01*
X41155365Y-42435780D01*
G36*
X41155365Y-41735780D02*
G01*
X40655365Y-41735780D01*
X40655365Y-41635780D01*
X41155365Y-41635780D01*
X41155365Y-41735780D01*
G37*
X41155365Y-41735780D02*
X40655365Y-41735780D01*
X40655365Y-41635780D01*
X41155365Y-41635780D01*
X41155365Y-41735780D01*
G36*
X40955365Y-42135780D02*
G01*
X40855365Y-42135780D01*
X40855365Y-42035780D01*
X40955365Y-42035780D01*
X40955365Y-42135780D01*
G37*
X40955365Y-42135780D02*
X40855365Y-42135780D01*
X40855365Y-42035780D01*
X40955365Y-42035780D01*
X40955365Y-42135780D01*
G36*
X41155365Y-41935780D02*
G01*
X41055365Y-41935780D01*
X41055365Y-41635780D01*
X41155365Y-41635780D01*
X41155365Y-41935780D01*
G37*
X41155365Y-41935780D02*
X41055365Y-41935780D01*
X41055365Y-41635780D01*
X41155365Y-41635780D01*
X41155365Y-41935780D01*
G36*
X40755365Y-42435780D02*
G01*
X40655365Y-42435780D01*
X40655365Y-41635780D01*
X40755365Y-41635780D01*
X40755365Y-42435780D01*
G37*
X40755365Y-42435780D02*
X40655365Y-42435780D01*
X40655365Y-41635780D01*
X40755365Y-41635780D01*
X40755365Y-42435780D01*
D13*
X74800000Y-40025000D02*
X77200000Y-40025000D01*
X74800000Y-40200000D02*
X77200000Y-40200000D01*
X74800000Y-40575000D02*
X74800000Y-34775000D01*
X74800000Y-39850000D02*
X77200000Y-39850000D01*
X77200000Y-34775000D02*
X77200000Y-40575000D01*
X74800000Y-34775000D02*
X77200000Y-34775000D01*
X74800000Y-40500000D02*
X77200000Y-40500000D01*
X74800000Y-40375000D02*
X77200000Y-40375000D01*
X77200000Y-40600000D02*
X74800000Y-40600000D01*
X93800000Y-40425000D02*
X93800000Y-34625000D01*
X93800000Y-34625000D02*
X96200000Y-34625000D01*
X96200000Y-34625000D02*
X96200000Y-40425000D01*
X93800000Y-40350000D02*
X96200000Y-40350000D01*
X93800000Y-39875000D02*
X96200000Y-39875000D01*
X96200000Y-40450000D02*
X93800000Y-40450000D01*
X93800000Y-40050000D02*
X96200000Y-40050000D01*
X93800000Y-40225000D02*
X96200000Y-40225000D01*
X93800000Y-39700000D02*
X96200000Y-39700000D01*
X112800000Y-34700000D02*
X115200000Y-34700000D01*
X115200000Y-34700000D02*
X115200000Y-40500000D01*
X115200000Y-40525000D02*
X112800000Y-40525000D01*
X112800000Y-40425000D02*
X115200000Y-40425000D01*
X112800000Y-39775000D02*
X115200000Y-39775000D01*
X112800000Y-40300000D02*
X115200000Y-40300000D01*
X112800000Y-40125000D02*
X115200000Y-40125000D01*
X112800000Y-39950000D02*
X115200000Y-39950000D01*
X112800000Y-40500000D02*
X112800000Y-34700000D01*
X68400000Y-50000000D02*
X68400000Y-47600000D01*
X73475000Y-50000000D02*
X73475000Y-47600000D01*
X68400000Y-47600000D02*
X74200000Y-47600000D01*
X73650000Y-50000000D02*
X73650000Y-47600000D01*
X74200000Y-50000000D02*
X68400000Y-50000000D01*
X74000000Y-50000000D02*
X74000000Y-47600000D01*
X74125000Y-50000000D02*
X74125000Y-47600000D01*
X74225000Y-47600000D02*
X74225000Y-50000000D01*
X73825000Y-50000000D02*
X73825000Y-47600000D01*
X76400000Y-69000000D02*
X76400000Y-66600000D01*
X76050000Y-69000000D02*
X76050000Y-66600000D01*
X70800000Y-69000000D02*
X70800000Y-66600000D01*
X76225000Y-69000000D02*
X76225000Y-66600000D01*
X75875000Y-69000000D02*
X75875000Y-66600000D01*
X76625000Y-66600000D02*
X76625000Y-69000000D01*
X70800000Y-66600000D02*
X76600000Y-66600000D01*
X76600000Y-69000000D02*
X70800000Y-69000000D01*
X76525000Y-69000000D02*
X76525000Y-66600000D01*
X81150000Y-88025000D02*
X81150000Y-85625000D01*
X81375000Y-85625000D02*
X81375000Y-88025000D01*
X75550000Y-88025000D02*
X75550000Y-85625000D01*
X80625000Y-88025000D02*
X80625000Y-85625000D01*
X75550000Y-85625000D02*
X81350000Y-85625000D01*
X81350000Y-88025000D02*
X75550000Y-88025000D01*
X80975000Y-88025000D02*
X80975000Y-85625000D01*
X81275000Y-88025000D02*
X81275000Y-85625000D01*
X80800000Y-88025000D02*
X80800000Y-85625000D01*
X81450000Y-107050000D02*
X81450000Y-104650000D01*
X75725000Y-107050000D02*
X75725000Y-104650000D01*
X80975000Y-107050000D02*
X80975000Y-104650000D01*
X81325000Y-107050000D02*
X81325000Y-104650000D01*
X80800000Y-107050000D02*
X80800000Y-104650000D01*
X75725000Y-104650000D02*
X81525000Y-104650000D01*
X81550000Y-104650000D02*
X81550000Y-107050000D01*
X81525000Y-107050000D02*
X75725000Y-107050000D01*
X81150000Y-107050000D02*
X81150000Y-104650000D01*
X97025000Y-69050000D02*
X97025000Y-66650000D01*
X102450000Y-69050000D02*
X102450000Y-66650000D01*
X102625000Y-69050000D02*
X102625000Y-66650000D01*
X102275000Y-69050000D02*
X102275000Y-66650000D01*
X97025000Y-66650000D02*
X102825000Y-66650000D01*
X102100000Y-69050000D02*
X102100000Y-66650000D01*
X102850000Y-66650000D02*
X102850000Y-69050000D01*
X102750000Y-69050000D02*
X102750000Y-66650000D01*
X102825000Y-69050000D02*
X97025000Y-69050000D01*
X105150000Y-104575000D02*
X105150000Y-106975000D01*
X104400000Y-106975000D02*
X104400000Y-104575000D01*
X105050000Y-106975000D02*
X105050000Y-104575000D01*
X105125000Y-106975000D02*
X99325000Y-106975000D01*
X99325000Y-104575000D02*
X105125000Y-104575000D01*
X104925000Y-106975000D02*
X104925000Y-104575000D01*
X99325000Y-106975000D02*
X99325000Y-104575000D01*
X104750000Y-106975000D02*
X104750000Y-104575000D01*
X104575000Y-106975000D02*
X104575000Y-104575000D01*
X111325000Y-50025000D02*
X111325000Y-47625000D01*
X117050000Y-50025000D02*
X117050000Y-47625000D01*
X116575000Y-50025000D02*
X116575000Y-47625000D01*
X117125000Y-50025000D02*
X111325000Y-50025000D01*
X116750000Y-50025000D02*
X116750000Y-47625000D01*
X116400000Y-50025000D02*
X116400000Y-47625000D01*
X117150000Y-47625000D02*
X117150000Y-50025000D01*
X111325000Y-47625000D02*
X117125000Y-47625000D01*
X116925000Y-50025000D02*
X116925000Y-47625000D01*
X121750000Y-69000000D02*
X115950000Y-69000000D01*
X121200000Y-69000000D02*
X121200000Y-66600000D01*
X121550000Y-69000000D02*
X121550000Y-66600000D01*
X121775000Y-66600000D02*
X121775000Y-69000000D01*
X121375000Y-69000000D02*
X121375000Y-66600000D01*
X115950000Y-69000000D02*
X115950000Y-66600000D01*
X121025000Y-69000000D02*
X121025000Y-66600000D01*
X115950000Y-66600000D02*
X121750000Y-66600000D01*
X121675000Y-69000000D02*
X121675000Y-66600000D01*
X130975000Y-88025000D02*
X130975000Y-85625000D01*
X131150000Y-88025000D02*
X131150000Y-85625000D01*
X125550000Y-88025000D02*
X125550000Y-85625000D01*
X131275000Y-88025000D02*
X131275000Y-85625000D01*
X130625000Y-88025000D02*
X130625000Y-85625000D01*
X130800000Y-88025000D02*
X130800000Y-85625000D01*
X131375000Y-85625000D02*
X131375000Y-88025000D01*
X125550000Y-85625000D02*
X131350000Y-85625000D01*
X131350000Y-88025000D02*
X125550000Y-88025000D01*
X128575000Y-107000000D02*
X128575000Y-104600000D01*
X128225000Y-107000000D02*
X128225000Y-104600000D01*
X128875000Y-107000000D02*
X128875000Y-104600000D01*
X128950000Y-107000000D02*
X123150000Y-107000000D01*
X123150000Y-107000000D02*
X123150000Y-104600000D01*
X123150000Y-104600000D02*
X128950000Y-104600000D01*
X128750000Y-107000000D02*
X128750000Y-104600000D01*
X128975000Y-104600000D02*
X128975000Y-107000000D01*
X128400000Y-107000000D02*
X128400000Y-104600000D01*
X131800000Y-39950000D02*
X134200000Y-39950000D01*
X131800000Y-39775000D02*
X134200000Y-39775000D01*
X134200000Y-34700000D02*
X134200000Y-40500000D01*
X131800000Y-40300000D02*
X134200000Y-40300000D01*
X131800000Y-40425000D02*
X134200000Y-40425000D01*
X131800000Y-34700000D02*
X134200000Y-34700000D01*
X134200000Y-40525000D02*
X131800000Y-40525000D01*
X131800000Y-40125000D02*
X134200000Y-40125000D01*
X131800000Y-40500000D02*
X131800000Y-34700000D01*
X135800000Y-50000000D02*
X135800000Y-47600000D01*
X135675000Y-50000000D02*
X135675000Y-47600000D01*
X135900000Y-47600000D02*
X135900000Y-50000000D01*
X135325000Y-50000000D02*
X135325000Y-47600000D01*
X135500000Y-50000000D02*
X135500000Y-47600000D01*
X130075000Y-50000000D02*
X130075000Y-47600000D01*
X130075000Y-47600000D02*
X135875000Y-47600000D01*
X135150000Y-50000000D02*
X135150000Y-47600000D01*
X135875000Y-50000000D02*
X130075000Y-50000000D01*
X134925000Y-69025000D02*
X134925000Y-66625000D01*
X140000000Y-69025000D02*
X140000000Y-66625000D01*
X140650000Y-69025000D02*
X140650000Y-66625000D01*
X140350000Y-69025000D02*
X140350000Y-66625000D01*
X140725000Y-69025000D02*
X134925000Y-69025000D01*
X140525000Y-69025000D02*
X140525000Y-66625000D01*
X140175000Y-69025000D02*
X140175000Y-66625000D01*
X140750000Y-66625000D02*
X140750000Y-69025000D01*
X134925000Y-66625000D02*
X140725000Y-66625000D01*
X144500000Y-85650000D02*
X150300000Y-85650000D01*
X149750000Y-88050000D02*
X149750000Y-85650000D01*
X149925000Y-88050000D02*
X149925000Y-85650000D01*
X150300000Y-88050000D02*
X144500000Y-88050000D01*
X150100000Y-88050000D02*
X150100000Y-85650000D01*
X150225000Y-88050000D02*
X150225000Y-85650000D01*
X149575000Y-88050000D02*
X149575000Y-85650000D01*
X150325000Y-85650000D02*
X150325000Y-88050000D01*
X144500000Y-88050000D02*
X144500000Y-85650000D01*
X162100000Y-107000000D02*
X156300000Y-107000000D01*
X161375000Y-107000000D02*
X161375000Y-104600000D01*
X156300000Y-107000000D02*
X156300000Y-104600000D01*
X161725000Y-107000000D02*
X161725000Y-104600000D01*
X161900000Y-107000000D02*
X161900000Y-104600000D01*
X156300000Y-104600000D02*
X162100000Y-104600000D01*
X162125000Y-104600000D02*
X162125000Y-107000000D01*
X161550000Y-107000000D02*
X161550000Y-104600000D01*
X162025000Y-107000000D02*
X162025000Y-104600000D01*
X150300000Y-40500000D02*
X150300000Y-34700000D01*
X150300000Y-40300000D02*
X152700000Y-40300000D01*
X152700000Y-34700000D02*
X152700000Y-40500000D01*
X152700000Y-40525000D02*
X150300000Y-40525000D01*
X150300000Y-39775000D02*
X152700000Y-39775000D01*
X150300000Y-34700000D02*
X152700000Y-34700000D01*
X150300000Y-40425000D02*
X152700000Y-40425000D01*
X150300000Y-40125000D02*
X152700000Y-40125000D01*
X150300000Y-39950000D02*
X152700000Y-39950000D01*
X154850000Y-50025000D02*
X154850000Y-47625000D01*
X149425000Y-50025000D02*
X149425000Y-47625000D01*
X155025000Y-50025000D02*
X155025000Y-47625000D01*
X155250000Y-47625000D02*
X155250000Y-50025000D01*
X149425000Y-47625000D02*
X155225000Y-47625000D01*
X154675000Y-50025000D02*
X154675000Y-47625000D01*
X155150000Y-50025000D02*
X155150000Y-47625000D01*
X155225000Y-50025000D02*
X149425000Y-50025000D01*
X154500000Y-50025000D02*
X154500000Y-47625000D01*
X159800000Y-66575000D02*
X159800000Y-68975000D01*
X159225000Y-68975000D02*
X159225000Y-66575000D01*
X153975000Y-68975000D02*
X153975000Y-66575000D01*
X159050000Y-68975000D02*
X159050000Y-66575000D01*
X159400000Y-68975000D02*
X159400000Y-66575000D01*
X159700000Y-68975000D02*
X159700000Y-66575000D01*
X153975000Y-66575000D02*
X159775000Y-66575000D01*
X159575000Y-68975000D02*
X159575000Y-66575000D01*
X159775000Y-68975000D02*
X153975000Y-68975000D01*
X168900000Y-88050000D02*
X168900000Y-85650000D01*
X169075000Y-88050000D02*
X169075000Y-85650000D01*
X168550000Y-88050000D02*
X168550000Y-85650000D01*
X169275000Y-88050000D02*
X163475000Y-88050000D01*
X168725000Y-88050000D02*
X168725000Y-85650000D01*
X169200000Y-88050000D02*
X169200000Y-85650000D01*
X163475000Y-88050000D02*
X163475000Y-85650000D01*
X163475000Y-85650000D02*
X169275000Y-85650000D01*
X169300000Y-85650000D02*
X169300000Y-88050000D01*
X169800000Y-40500000D02*
X169800000Y-34700000D01*
X169800000Y-40125000D02*
X172200000Y-40125000D01*
X169800000Y-40425000D02*
X172200000Y-40425000D01*
X172200000Y-34700000D02*
X172200000Y-40500000D01*
X172200000Y-40525000D02*
X169800000Y-40525000D01*
X169800000Y-39775000D02*
X172200000Y-39775000D01*
X169800000Y-40300000D02*
X172200000Y-40300000D01*
X169800000Y-39950000D02*
X172200000Y-39950000D01*
X169800000Y-34700000D02*
X172200000Y-34700000D01*
X173275000Y-50200000D02*
X173275000Y-47800000D01*
X173450000Y-50200000D02*
X173450000Y-47800000D01*
X168200000Y-50200000D02*
X168200000Y-47800000D01*
X174025000Y-47800000D02*
X174025000Y-50200000D01*
X174000000Y-50200000D02*
X168200000Y-50200000D01*
X173625000Y-50200000D02*
X173625000Y-47800000D01*
X168200000Y-47800000D02*
X174000000Y-47800000D01*
X173925000Y-50200000D02*
X173925000Y-47800000D01*
X173800000Y-50200000D02*
X173800000Y-47800000D01*
X172900000Y-66625000D02*
X178700000Y-66625000D01*
X177975000Y-69025000D02*
X177975000Y-66625000D01*
X172900000Y-69025000D02*
X172900000Y-66625000D01*
X178325000Y-69025000D02*
X178325000Y-66625000D01*
X178625000Y-69025000D02*
X178625000Y-66625000D01*
X178725000Y-66625000D02*
X178725000Y-69025000D01*
X178150000Y-69025000D02*
X178150000Y-66625000D01*
X178500000Y-69025000D02*
X178500000Y-66625000D01*
X178700000Y-69025000D02*
X172900000Y-69025000D01*
X187850000Y-88050000D02*
X187850000Y-85650000D01*
X187500000Y-88050000D02*
X187500000Y-85650000D01*
X188025000Y-88050000D02*
X188025000Y-85650000D01*
X187675000Y-88050000D02*
X187675000Y-85650000D01*
X188225000Y-88050000D02*
X182425000Y-88050000D01*
X188250000Y-85650000D02*
X188250000Y-88050000D01*
X182425000Y-85650000D02*
X188225000Y-85650000D01*
X182425000Y-88050000D02*
X182425000Y-85650000D01*
X188150000Y-88050000D02*
X188150000Y-85650000D01*
X203441823Y-126340580D02*
X204262671Y-124085318D01*
X204802994Y-124281980D02*
X203982146Y-126537242D01*
X203958654Y-126528692D02*
X198508436Y-124544975D01*
X203888177Y-126503040D02*
X204709025Y-124247778D01*
X203606269Y-126400434D02*
X204427117Y-124145172D01*
X203277377Y-126280727D02*
X204098225Y-124025465D01*
X199329285Y-122289712D02*
X204779502Y-124273429D01*
X203770715Y-126460288D02*
X204591564Y-124205025D01*
X198508436Y-124544975D02*
X199329285Y-122289712D01*
X185025000Y-47800000D02*
X185025000Y-50200000D01*
X184625000Y-50200000D02*
X184625000Y-47800000D01*
X184925000Y-50200000D02*
X184925000Y-47800000D01*
X185000000Y-50200000D02*
X179200000Y-50200000D01*
X184450000Y-50200000D02*
X184450000Y-47800000D01*
X184800000Y-50200000D02*
X184800000Y-47800000D01*
X179200000Y-50200000D02*
X179200000Y-47800000D01*
X179200000Y-47800000D02*
X185000000Y-47800000D01*
X184275000Y-50200000D02*
X184275000Y-47800000D01*
X179080000Y-61500000D02*
X179080000Y-55700000D01*
X181480000Y-55700000D02*
X181480000Y-61500000D01*
X179080000Y-55700000D02*
X181480000Y-55700000D01*
X179080000Y-60950000D02*
X181480000Y-60950000D01*
X181480000Y-61525000D02*
X179080000Y-61525000D01*
X179080000Y-61425000D02*
X181480000Y-61425000D01*
X179080000Y-61300000D02*
X181480000Y-61300000D01*
X179080000Y-61125000D02*
X181480000Y-61125000D01*
X179080000Y-60775000D02*
X181480000Y-60775000D01*
X189200000Y-66625000D02*
X195000000Y-66625000D01*
X194925000Y-69025000D02*
X194925000Y-66625000D01*
X195000000Y-69025000D02*
X189200000Y-69025000D01*
X194450000Y-69025000D02*
X194450000Y-66625000D01*
X189200000Y-69025000D02*
X189200000Y-66625000D01*
X194275000Y-69025000D02*
X194275000Y-66625000D01*
X194625000Y-69025000D02*
X194625000Y-66625000D01*
X195025000Y-66625000D02*
X195025000Y-69025000D01*
X194800000Y-69025000D02*
X194800000Y-66625000D01*
D12*
X72875000Y-45600000D02*
X71097000Y-45600000D01*
X60175000Y-32900000D02*
X61953000Y-32900000D01*
X60175000Y-34678000D02*
X60175000Y-32900000D01*
X72875000Y-32900000D02*
X72875000Y-34678000D01*
X72875000Y-43822000D02*
X72875000Y-45600000D01*
X61953000Y-45600000D02*
X60175000Y-45600000D01*
X71097000Y-32900000D02*
X72875000Y-32900000D01*
X60175000Y-45600000D02*
X60175000Y-43822000D01*
X91850000Y-32900000D02*
X91850000Y-34678000D01*
X90072000Y-32900000D02*
X91850000Y-32900000D01*
X79150000Y-32900000D02*
X80928000Y-32900000D01*
X80928000Y-45600000D02*
X79150000Y-45600000D01*
X91850000Y-43822000D02*
X91850000Y-45600000D01*
X91850000Y-45600000D02*
X90072000Y-45600000D01*
X79150000Y-34678000D02*
X79150000Y-32900000D01*
X79150000Y-45600000D02*
X79150000Y-43822000D01*
X110875000Y-45575000D02*
X109097000Y-45575000D01*
X99953000Y-45575000D02*
X98175000Y-45575000D01*
X98175000Y-34653000D02*
X98175000Y-32875000D01*
X98175000Y-32875000D02*
X99953000Y-32875000D01*
X98175000Y-45575000D02*
X98175000Y-43797000D01*
X110875000Y-43797000D02*
X110875000Y-45575000D01*
X110875000Y-32875000D02*
X110875000Y-34653000D01*
X109097000Y-32875000D02*
X110875000Y-32875000D01*
X77625000Y-62797000D02*
X77625000Y-64575000D01*
X66703000Y-64575000D02*
X64925000Y-64575000D01*
X77625000Y-64575000D02*
X75847000Y-64575000D01*
X77625000Y-51875000D02*
X77625000Y-53653000D01*
X64925000Y-53653000D02*
X64925000Y-51875000D01*
X75847000Y-51875000D02*
X77625000Y-51875000D01*
X64925000Y-51875000D02*
X66703000Y-51875000D01*
X64925000Y-64575000D02*
X64925000Y-62797000D01*
X67300000Y-72653000D02*
X67300000Y-70875000D01*
X80000000Y-83575000D02*
X78222000Y-83575000D01*
X69078000Y-83575000D02*
X67300000Y-83575000D01*
X67300000Y-83575000D02*
X67300000Y-81797000D01*
X67300000Y-70875000D02*
X69078000Y-70875000D01*
X80000000Y-70875000D02*
X80000000Y-72653000D01*
X80000000Y-81797000D02*
X80000000Y-83575000D01*
X78222000Y-70875000D02*
X80000000Y-70875000D01*
X82972000Y-89875000D02*
X84750000Y-89875000D01*
X84750000Y-89875000D02*
X84750000Y-91653000D01*
X72050000Y-91653000D02*
X72050000Y-89875000D01*
X84750000Y-100797000D02*
X84750000Y-102575000D01*
X72050000Y-89875000D02*
X73828000Y-89875000D01*
X72050000Y-102575000D02*
X72050000Y-100797000D01*
X73828000Y-102575000D02*
X72050000Y-102575000D01*
X84750000Y-102575000D02*
X82972000Y-102575000D01*
X82922000Y-108925000D02*
X84700000Y-108925000D01*
X84700000Y-108925000D02*
X84700000Y-110703000D01*
X72000000Y-121625000D02*
X72000000Y-119847000D01*
X72000000Y-110703000D02*
X72000000Y-108925000D01*
X72000000Y-108925000D02*
X73778000Y-108925000D01*
X84700000Y-121625000D02*
X82922000Y-121625000D01*
X73778000Y-121625000D02*
X72000000Y-121625000D01*
X84700000Y-119847000D02*
X84700000Y-121625000D01*
X101350000Y-62847000D02*
X101350000Y-64625000D01*
X101350000Y-51925000D02*
X101350000Y-53703000D01*
X88650000Y-53703000D02*
X88650000Y-51925000D01*
X99572000Y-51925000D02*
X101350000Y-51925000D01*
X88650000Y-51925000D02*
X90428000Y-51925000D01*
X101350000Y-64625000D02*
X99572000Y-64625000D01*
X88650000Y-64625000D02*
X88650000Y-62847000D01*
X90428000Y-64625000D02*
X88650000Y-64625000D01*
X95178000Y-83625000D02*
X93400000Y-83625000D01*
X93400000Y-83625000D02*
X93400000Y-81847000D01*
X106100000Y-81847000D02*
X106100000Y-83625000D01*
X106100000Y-83625000D02*
X104322000Y-83625000D01*
X106100000Y-70925000D02*
X106100000Y-72703000D01*
X93400000Y-70925000D02*
X95178000Y-70925000D01*
X104322000Y-70925000D02*
X106100000Y-70925000D01*
X93400000Y-72703000D02*
X93400000Y-70925000D01*
X115550000Y-100822000D02*
X115550000Y-102600000D01*
X115550000Y-102600000D02*
X113772000Y-102600000D01*
X102850000Y-91678000D02*
X102850000Y-89900000D01*
X115550000Y-89900000D02*
X115550000Y-91678000D01*
X104628000Y-102600000D02*
X102850000Y-102600000D01*
X102850000Y-89900000D02*
X104628000Y-89900000D01*
X102850000Y-102600000D02*
X102850000Y-100822000D01*
X113772000Y-89900000D02*
X115550000Y-89900000D01*
X95775000Y-108875000D02*
X97553000Y-108875000D01*
X106697000Y-108875000D02*
X108475000Y-108875000D01*
X108475000Y-121575000D02*
X106697000Y-121575000D01*
X108475000Y-108875000D02*
X108475000Y-110653000D01*
X97553000Y-121575000D02*
X95775000Y-121575000D01*
X95775000Y-110653000D02*
X95775000Y-108875000D01*
X108475000Y-119797000D02*
X108475000Y-121575000D01*
X95775000Y-121575000D02*
X95775000Y-119797000D01*
X118572000Y-51875000D02*
X120350000Y-51875000D01*
X107650000Y-53653000D02*
X107650000Y-51875000D01*
X120350000Y-64575000D02*
X118572000Y-64575000D01*
X120350000Y-51875000D02*
X120350000Y-53653000D01*
X109428000Y-64575000D02*
X107650000Y-64575000D01*
X107650000Y-64575000D02*
X107650000Y-62797000D01*
X120350000Y-62797000D02*
X120350000Y-64575000D01*
X107650000Y-51875000D02*
X109428000Y-51875000D01*
X123347000Y-70875000D02*
X125125000Y-70875000D01*
X112425000Y-70875000D02*
X114203000Y-70875000D01*
X114203000Y-83575000D02*
X112425000Y-83575000D01*
X125125000Y-83575000D02*
X123347000Y-83575000D01*
X125125000Y-70875000D02*
X125125000Y-72653000D01*
X112425000Y-72653000D02*
X112425000Y-70875000D01*
X125125000Y-81797000D02*
X125125000Y-83575000D01*
X112425000Y-83575000D02*
X112425000Y-81797000D01*
X121875000Y-102600000D02*
X121875000Y-100822000D01*
X134575000Y-100822000D02*
X134575000Y-102600000D01*
X123653000Y-102600000D02*
X121875000Y-102600000D01*
X121875000Y-89900000D02*
X123653000Y-89900000D01*
X121875000Y-91678000D02*
X121875000Y-89900000D01*
X134575000Y-102600000D02*
X132797000Y-102600000D01*
X132797000Y-89900000D02*
X134575000Y-89900000D01*
X134575000Y-89900000D02*
X134575000Y-91678000D01*
X119525000Y-108900000D02*
X121303000Y-108900000D01*
X132225000Y-121600000D02*
X130447000Y-121600000D01*
X132225000Y-119822000D02*
X132225000Y-121600000D01*
X132225000Y-108900000D02*
X132225000Y-110678000D01*
X121303000Y-121600000D02*
X119525000Y-121600000D01*
X119525000Y-110678000D02*
X119525000Y-108900000D01*
X119525000Y-121600000D02*
X119525000Y-119822000D01*
X130447000Y-108900000D02*
X132225000Y-108900000D01*
X129825000Y-43797000D02*
X129825000Y-45575000D01*
X129825000Y-32875000D02*
X129825000Y-34653000D01*
X117125000Y-45575000D02*
X117125000Y-43797000D01*
X118903000Y-45575000D02*
X117125000Y-45575000D01*
X128047000Y-32875000D02*
X129825000Y-32875000D01*
X117125000Y-34653000D02*
X117125000Y-32875000D01*
X117125000Y-32875000D02*
X118903000Y-32875000D01*
X129825000Y-45575000D02*
X128047000Y-45575000D01*
X139350000Y-64600000D02*
X137572000Y-64600000D01*
X139350000Y-51900000D02*
X139350000Y-53678000D01*
X126650000Y-64600000D02*
X126650000Y-62822000D01*
X126650000Y-53678000D02*
X126650000Y-51900000D01*
X139350000Y-62822000D02*
X139350000Y-64600000D01*
X137572000Y-51900000D02*
X139350000Y-51900000D01*
X128428000Y-64600000D02*
X126650000Y-64600000D01*
X126650000Y-51900000D02*
X128428000Y-51900000D01*
X131450000Y-83600000D02*
X131450000Y-81822000D01*
X144150000Y-70900000D02*
X144150000Y-72678000D01*
X131450000Y-72678000D02*
X131450000Y-70900000D01*
X131450000Y-70900000D02*
X133228000Y-70900000D01*
X133228000Y-83600000D02*
X131450000Y-83600000D01*
X144150000Y-83600000D02*
X142372000Y-83600000D01*
X142372000Y-70900000D02*
X144150000Y-70900000D01*
X144150000Y-81822000D02*
X144150000Y-83600000D01*
X153575000Y-100847000D02*
X153575000Y-102625000D01*
X153575000Y-102625000D02*
X151797000Y-102625000D01*
X153575000Y-89925000D02*
X153575000Y-91703000D01*
X140875000Y-102625000D02*
X140875000Y-100847000D01*
X151797000Y-89925000D02*
X153575000Y-89925000D01*
X140875000Y-89925000D02*
X142653000Y-89925000D01*
X140875000Y-91703000D02*
X140875000Y-89925000D01*
X142653000Y-102625000D02*
X140875000Y-102625000D01*
X152775000Y-110678000D02*
X152775000Y-108900000D01*
X165475000Y-121600000D02*
X163697000Y-121600000D01*
X152775000Y-108900000D02*
X154553000Y-108900000D01*
X154553000Y-121600000D02*
X152775000Y-121600000D01*
X163697000Y-108900000D02*
X165475000Y-108900000D01*
X165475000Y-108900000D02*
X165475000Y-110678000D01*
X152775000Y-121600000D02*
X152775000Y-119822000D01*
X165475000Y-119822000D02*
X165475000Y-121600000D01*
X147072000Y-32900000D02*
X148850000Y-32900000D01*
X148850000Y-45600000D02*
X147072000Y-45600000D01*
X137928000Y-45600000D02*
X136150000Y-45600000D01*
X136150000Y-45600000D02*
X136150000Y-43822000D01*
X136150000Y-34678000D02*
X136150000Y-32900000D01*
X148850000Y-32900000D02*
X148850000Y-34678000D01*
X148850000Y-43822000D02*
X148850000Y-45600000D01*
X136150000Y-32900000D02*
X137928000Y-32900000D01*
X145750000Y-51900000D02*
X147528000Y-51900000D01*
X145750000Y-64600000D02*
X145750000Y-62822000D01*
X145750000Y-53678000D02*
X145750000Y-51900000D01*
X158450000Y-51900000D02*
X158450000Y-53678000D01*
X156672000Y-51900000D02*
X158450000Y-51900000D01*
X158450000Y-64600000D02*
X156672000Y-64600000D01*
X158450000Y-62822000D02*
X158450000Y-64600000D01*
X147528000Y-64600000D02*
X145750000Y-64600000D01*
X163150000Y-81772000D02*
X163150000Y-83550000D01*
X152228000Y-83550000D02*
X150450000Y-83550000D01*
X150450000Y-72628000D02*
X150450000Y-70850000D01*
X150450000Y-70850000D02*
X152228000Y-70850000D01*
X161372000Y-70850000D02*
X163150000Y-70850000D01*
X163150000Y-83550000D02*
X161372000Y-83550000D01*
X150450000Y-83550000D02*
X150450000Y-81772000D01*
X163150000Y-70850000D02*
X163150000Y-72628000D01*
X159875000Y-89925000D02*
X161653000Y-89925000D01*
X159875000Y-91703000D02*
X159875000Y-89925000D01*
X159875000Y-102625000D02*
X159875000Y-100847000D01*
X172575000Y-102625000D02*
X170797000Y-102625000D01*
X172575000Y-89925000D02*
X172575000Y-91703000D01*
X161653000Y-102625000D02*
X159875000Y-102625000D01*
X172575000Y-100847000D02*
X172575000Y-102625000D01*
X170797000Y-89925000D02*
X172575000Y-89925000D01*
X155125000Y-32875000D02*
X156903000Y-32875000D01*
X167825000Y-43797000D02*
X167825000Y-45575000D01*
X166047000Y-32875000D02*
X167825000Y-32875000D01*
X167825000Y-45575000D02*
X166047000Y-45575000D01*
X155125000Y-34653000D02*
X155125000Y-32875000D01*
X156903000Y-45575000D02*
X155125000Y-45575000D01*
X167825000Y-32875000D02*
X167825000Y-34653000D01*
X155125000Y-45575000D02*
X155125000Y-43797000D01*
X177350000Y-64600000D02*
X175572000Y-64600000D01*
X164650000Y-53678000D02*
X164650000Y-51900000D01*
X166428000Y-64600000D02*
X164650000Y-64600000D01*
X175572000Y-51900000D02*
X177350000Y-51900000D01*
X177350000Y-51900000D02*
X177350000Y-53678000D01*
X164650000Y-64600000D02*
X164650000Y-62822000D01*
X177350000Y-62822000D02*
X177350000Y-64600000D01*
X164650000Y-51900000D02*
X166428000Y-51900000D01*
X182100000Y-83600000D02*
X180322000Y-83600000D01*
X169400000Y-70900000D02*
X171178000Y-70900000D01*
X182100000Y-81822000D02*
X182100000Y-83600000D01*
X180322000Y-70900000D02*
X182100000Y-70900000D01*
X171178000Y-83600000D02*
X169400000Y-83600000D01*
X182100000Y-70900000D02*
X182100000Y-72678000D01*
X169400000Y-83600000D02*
X169400000Y-81822000D01*
X169400000Y-72678000D02*
X169400000Y-70900000D01*
X191575000Y-100847000D02*
X191575000Y-102625000D01*
X178875000Y-91703000D02*
X178875000Y-89925000D01*
X191575000Y-102625000D02*
X189797000Y-102625000D01*
X191575000Y-89925000D02*
X191575000Y-91703000D01*
X178875000Y-102625000D02*
X178875000Y-100847000D01*
X189797000Y-89925000D02*
X191575000Y-89925000D01*
X178875000Y-89925000D02*
X180653000Y-89925000D01*
X180653000Y-102625000D02*
X178875000Y-102625000D01*
X174150000Y-34678000D02*
X174150000Y-32900000D01*
X186850000Y-43822000D02*
X186850000Y-45600000D01*
X175928000Y-45600000D02*
X174150000Y-45600000D01*
X174150000Y-32900000D02*
X175928000Y-32900000D01*
X185072000Y-32900000D02*
X186850000Y-32900000D01*
X174150000Y-45600000D02*
X174150000Y-43822000D01*
X186850000Y-32900000D02*
X186850000Y-34678000D01*
X186850000Y-45600000D02*
X185072000Y-45600000D01*
X194572000Y-51950000D02*
X196350000Y-51950000D01*
X196350000Y-64650000D02*
X194572000Y-64650000D01*
X183650000Y-53728000D02*
X183650000Y-51950000D01*
X196350000Y-51950000D02*
X196350000Y-53728000D01*
X183650000Y-64650000D02*
X183650000Y-62872000D01*
X196350000Y-62872000D02*
X196350000Y-64650000D01*
X185428000Y-64650000D02*
X183650000Y-64650000D01*
X183650000Y-51950000D02*
X185428000Y-51950000D01*
X190178000Y-83575000D02*
X188400000Y-83575000D01*
X201100000Y-70875000D02*
X201100000Y-72653000D01*
X199322000Y-70875000D02*
X201100000Y-70875000D01*
X188400000Y-83575000D02*
X188400000Y-81797000D01*
X201100000Y-83575000D02*
X199322000Y-83575000D01*
X188400000Y-72653000D02*
X188400000Y-70875000D01*
X188400000Y-70875000D02*
X190178000Y-70875000D01*
X201100000Y-81797000D02*
X201100000Y-83575000D01*
X197925000Y-89875000D02*
X199703000Y-89875000D01*
X197925000Y-91653000D02*
X197925000Y-89875000D01*
X199703000Y-102575000D02*
X197925000Y-102575000D01*
X208847000Y-89875000D02*
X210625000Y-89875000D01*
X197925000Y-102575000D02*
X197925000Y-100797000D01*
X210625000Y-100797000D02*
X210625000Y-102575000D01*
X210625000Y-89875000D02*
X210625000Y-91653000D01*
X210625000Y-102575000D02*
X208847000Y-102575000D01*
X176356897Y-124553332D02*
X174686124Y-123945220D01*
X178421668Y-113681897D02*
X179029780Y-112011124D01*
X174686124Y-123945220D02*
X175294236Y-122274447D01*
X187228332Y-126618103D02*
X186620220Y-128288876D01*
X186620220Y-128288876D02*
X184949447Y-127680764D01*
X190963876Y-116354780D02*
X190355764Y-118025553D01*
X179029780Y-112011124D02*
X180700553Y-112619236D01*
X189293103Y-115746668D02*
X190963876Y-116354780D01*
X193871668Y-126756897D02*
X194479780Y-125086124D01*
X191806897Y-137628332D02*
X190136124Y-137020220D01*
X204743103Y-128821668D02*
X206413876Y-129429780D01*
X190136124Y-137020220D02*
X190744236Y-135349447D01*
X202070220Y-141363876D02*
X200399447Y-140755764D01*
X206413876Y-129429780D02*
X205805764Y-131100553D01*
X202678332Y-139693103D02*
X202070220Y-141363876D01*
X194479780Y-125086124D02*
X196150553Y-125694236D01*
D13*
X111950000Y-88025000D02*
X111950000Y-85625000D01*
X112250000Y-88025000D02*
X112250000Y-85625000D01*
X106525000Y-88025000D02*
X106525000Y-85625000D01*
X111600000Y-88025000D02*
X111600000Y-85625000D01*
X106525000Y-85625000D02*
X112325000Y-85625000D01*
X112350000Y-85625000D02*
X112350000Y-88025000D01*
X111775000Y-88025000D02*
X111775000Y-85625000D01*
X112325000Y-88025000D02*
X106525000Y-88025000D01*
X112125000Y-88025000D02*
X112125000Y-85625000D01*
X97150000Y-50050000D02*
X97150000Y-47650000D01*
X97675000Y-50050000D02*
X97675000Y-47650000D01*
X92075000Y-50050000D02*
X92075000Y-47650000D01*
X97325000Y-50050000D02*
X97325000Y-47650000D01*
X97875000Y-50050000D02*
X92075000Y-50050000D01*
X97900000Y-47650000D02*
X97900000Y-50050000D01*
X97500000Y-50050000D02*
X97500000Y-47650000D01*
X92075000Y-47650000D02*
X97875000Y-47650000D01*
X97800000Y-50050000D02*
X97800000Y-47650000D01*
X199625000Y-87925000D02*
X199625000Y-85525000D01*
X199275000Y-87925000D02*
X199275000Y-85525000D01*
X194200000Y-85525000D02*
X200000000Y-85525000D01*
X200000000Y-87925000D02*
X194200000Y-87925000D01*
X194200000Y-87925000D02*
X194200000Y-85525000D01*
X199450000Y-87925000D02*
X199450000Y-85525000D01*
X200025000Y-85525000D02*
X200025000Y-87925000D01*
X199800000Y-87925000D02*
X199800000Y-85525000D01*
X199925000Y-87925000D02*
X199925000Y-85525000D01*
X183879285Y-109214712D02*
X189329502Y-111198429D01*
X188508654Y-113453692D02*
X183058436Y-111469975D01*
X183058436Y-111469975D02*
X183879285Y-109214712D01*
X187827377Y-113205727D02*
X188648225Y-110950465D01*
X187991823Y-113265580D02*
X188812671Y-111010318D01*
X188438177Y-113428040D02*
X189259025Y-111172778D01*
X188320715Y-113385288D02*
X189141564Y-111130025D01*
X188156269Y-113325434D02*
X188977117Y-111070172D01*
X189352994Y-111206980D02*
X188532146Y-113462242D01*
X58800000Y-78950000D02*
X61200000Y-78950000D01*
X58800000Y-73700000D02*
X61200000Y-73700000D01*
X58800000Y-79425000D02*
X61200000Y-79425000D01*
X58800000Y-79300000D02*
X61200000Y-79300000D01*
X58800000Y-79125000D02*
X61200000Y-79125000D01*
X58800000Y-78775000D02*
X61200000Y-78775000D01*
X61200000Y-79525000D02*
X58800000Y-79525000D01*
X58800000Y-79500000D02*
X58800000Y-73700000D01*
X61200000Y-73700000D02*
X61200000Y-79500000D01*
D14*
X40640000Y-84752500D02*
X51632500Y-84752500D01*
X40640000Y-82650000D02*
X40640000Y-84752500D01*
X40640000Y-79235000D02*
X40640000Y-77570000D01*
X40640000Y-72052500D02*
X40640000Y-74155000D01*
X51632500Y-72052500D02*
X40640000Y-72052500D01*
D13*
X53440000Y-85502500D02*
G75*
G03*
X53440000Y-85502500I-100000J0D01*
G01*
G36*
X44126713Y-111965154D02*
G01*
X44295487Y-111430827D01*
X44336590Y-111345378D01*
X44730572Y-110746721D01*
X45226430Y-110282306D01*
X45817807Y-109956147D01*
X46498347Y-109772257D01*
X46888698Y-109734041D01*
X47308217Y-109728975D01*
X47636724Y-109764128D01*
X47949803Y-109849394D01*
X48052582Y-109886437D01*
X48562224Y-110152138D01*
X49047650Y-110539633D01*
X49459080Y-111003319D01*
X49700119Y-111395676D01*
X49815034Y-111649765D01*
X49885531Y-111877226D01*
X49921958Y-112134616D01*
X49934660Y-112478491D01*
X49935384Y-112681770D01*
X49927663Y-113095476D01*
X49899943Y-113394601D01*
X49842985Y-113633556D01*
X49747555Y-113866748D01*
X49726986Y-113909437D01*
X49455104Y-114338755D01*
X49079415Y-114764487D01*
X48653077Y-115133696D01*
X48243365Y-115386831D01*
X47831319Y-115523645D01*
X47328858Y-115604690D01*
X46804719Y-115625408D01*
X46327640Y-115581240D01*
X46111811Y-115528163D01*
X45527554Y-115254219D01*
X44996493Y-114846890D01*
X44555330Y-114341318D01*
X44240764Y-113772648D01*
X44218127Y-113714841D01*
X44084883Y-113170175D01*
X44061102Y-112681770D01*
X44357054Y-112681770D01*
X44406963Y-113276710D01*
X44570257Y-113784598D01*
X44867285Y-114257256D01*
X45067720Y-114491597D01*
X45571911Y-114921435D01*
X46143460Y-115203022D01*
X46760381Y-115331956D01*
X47400686Y-115303829D01*
X48042388Y-115114238D01*
X48084192Y-115095967D01*
X48643864Y-114761931D01*
X49087808Y-114325700D01*
X49410667Y-113811872D01*
X49607086Y-113245047D01*
X49671710Y-112649824D01*
X49599185Y-112050800D01*
X49384154Y-111472574D01*
X49021261Y-110939747D01*
X48995385Y-110910554D01*
X48501154Y-110463198D01*
X47958371Y-110174374D01*
X47349296Y-110036108D01*
X47016186Y-110020931D01*
X46378692Y-110083372D01*
X45832791Y-110272030D01*
X45342468Y-110601817D01*
X45128030Y-110802604D01*
X44730522Y-111287343D01*
X44483608Y-111795517D01*
X44369677Y-112370054D01*
X44357054Y-112681770D01*
X44061102Y-112681770D01*
X44055462Y-112565942D01*
X44126713Y-111965154D01*
G37*
D15*
X44126713Y-111965154D02*
X44295487Y-111430827D01*
X44336590Y-111345378D01*
X44730572Y-110746721D01*
X45226430Y-110282306D01*
X45817807Y-109956147D01*
X46498347Y-109772257D01*
X46888698Y-109734041D01*
X47308217Y-109728975D01*
X47636724Y-109764128D01*
X47949803Y-109849394D01*
X48052582Y-109886437D01*
X48562224Y-110152138D01*
X49047650Y-110539633D01*
X49459080Y-111003319D01*
X49700119Y-111395676D01*
X49815034Y-111649765D01*
X49885531Y-111877226D01*
X49921958Y-112134616D01*
X49934660Y-112478491D01*
X49935384Y-112681770D01*
X49927663Y-113095476D01*
X49899943Y-113394601D01*
X49842985Y-113633556D01*
X49747555Y-113866748D01*
X49726986Y-113909437D01*
X49455104Y-114338755D01*
X49079415Y-114764487D01*
X48653077Y-115133696D01*
X48243365Y-115386831D01*
X47831319Y-115523645D01*
X47328858Y-115604690D01*
X46804719Y-115625408D01*
X46327640Y-115581240D01*
X46111811Y-115528163D01*
X45527554Y-115254219D01*
X44996493Y-114846890D01*
X44555330Y-114341318D01*
X44240764Y-113772648D01*
X44218127Y-113714841D01*
X44084883Y-113170175D01*
X44061102Y-112681770D01*
X44357054Y-112681770D01*
X44406963Y-113276710D01*
X44570257Y-113784598D01*
X44867285Y-114257256D01*
X45067720Y-114491597D01*
X45571911Y-114921435D01*
X46143460Y-115203022D01*
X46760381Y-115331956D01*
X47400686Y-115303829D01*
X48042388Y-115114238D01*
X48084192Y-115095967D01*
X48643864Y-114761931D01*
X49087808Y-114325700D01*
X49410667Y-113811872D01*
X49607086Y-113245047D01*
X49671710Y-112649824D01*
X49599185Y-112050800D01*
X49384154Y-111472574D01*
X49021261Y-110939747D01*
X48995385Y-110910554D01*
X48501154Y-110463198D01*
X47958371Y-110174374D01*
X47349296Y-110036108D01*
X47016186Y-110020931D01*
X46378692Y-110083372D01*
X45832791Y-110272030D01*
X45342468Y-110601817D01*
X45128030Y-110802604D01*
X44730522Y-111287343D01*
X44483608Y-111795517D01*
X44369677Y-112370054D01*
X44357054Y-112681770D01*
X44061102Y-112681770D01*
X44055462Y-112565942D01*
X44126713Y-111965154D01*
G36*
X43525817Y-111366209D02*
G01*
X43861434Y-110686438D01*
X44032618Y-110440126D01*
X44576158Y-109858017D01*
X45210655Y-109417039D01*
X45925315Y-109122973D01*
X46709343Y-108981599D01*
X46763815Y-108977744D01*
X47555292Y-109006220D01*
X48294407Y-109187370D01*
X48965182Y-109508489D01*
X49551637Y-109956871D01*
X50037792Y-110519812D01*
X50407668Y-111184606D01*
X50645284Y-111938548D01*
X50673361Y-112086147D01*
X50722917Y-112838153D01*
X50620177Y-113556245D01*
X50381090Y-114225686D01*
X50021604Y-114831739D01*
X49557667Y-115359665D01*
X49005227Y-115794727D01*
X48380233Y-116122188D01*
X47698633Y-116327310D01*
X46976375Y-116395356D01*
X46229408Y-116311589D01*
X46126698Y-116287636D01*
X45433506Y-116035712D01*
X44795110Y-115649252D01*
X44243488Y-115153635D01*
X43810619Y-114574242D01*
X43692975Y-114356127D01*
X43420464Y-113617334D01*
X43303193Y-112856313D01*
X43306439Y-112787571D01*
X43595314Y-112787571D01*
X43697918Y-113461040D01*
X43929757Y-114111625D01*
X44275384Y-114707221D01*
X44719356Y-115215722D01*
X45246227Y-115605020D01*
X45335470Y-115653219D01*
X45781283Y-115859546D01*
X46182211Y-115983297D01*
X46607658Y-116039414D01*
X47127027Y-116042841D01*
X47142698Y-116042353D01*
X47579148Y-116017012D01*
X47912254Y-115964826D01*
X48207438Y-115872777D01*
X48391755Y-115793830D01*
X48953524Y-115455445D01*
X49472005Y-114993748D01*
X49900354Y-114454724D01*
X50086251Y-114130458D01*
X50210674Y-113865746D01*
X50290393Y-113646491D01*
X50335276Y-113420547D01*
X50355189Y-113135765D01*
X50360000Y-112740000D01*
X50360031Y-112683550D01*
X50356059Y-112268516D01*
X50337617Y-111969634D01*
X50294915Y-111733790D01*
X50218160Y-111507868D01*
X50097564Y-111238753D01*
X50091266Y-111225443D01*
X49712630Y-110608511D01*
X49220662Y-110090695D01*
X48640373Y-109685362D01*
X47996774Y-109405880D01*
X47314878Y-109265616D01*
X46619697Y-109277936D01*
X46486531Y-109298927D01*
X45736387Y-109515069D01*
X45076197Y-109868075D01*
X44519102Y-110344916D01*
X44078244Y-110932566D01*
X43766765Y-111617996D01*
X43637389Y-112123326D01*
X43595314Y-112787571D01*
X43306439Y-112787571D01*
X43339024Y-112097720D01*
X43525817Y-111366209D01*
G37*
X43525817Y-111366209D02*
X43861434Y-110686438D01*
X44032618Y-110440126D01*
X44576158Y-109858017D01*
X45210655Y-109417039D01*
X45925315Y-109122973D01*
X46709343Y-108981599D01*
X46763815Y-108977744D01*
X47555292Y-109006220D01*
X48294407Y-109187370D01*
X48965182Y-109508489D01*
X49551637Y-109956871D01*
X50037792Y-110519812D01*
X50407668Y-111184606D01*
X50645284Y-111938548D01*
X50673361Y-112086147D01*
X50722917Y-112838153D01*
X50620177Y-113556245D01*
X50381090Y-114225686D01*
X50021604Y-114831739D01*
X49557667Y-115359665D01*
X49005227Y-115794727D01*
X48380233Y-116122188D01*
X47698633Y-116327310D01*
X46976375Y-116395356D01*
X46229408Y-116311589D01*
X46126698Y-116287636D01*
X45433506Y-116035712D01*
X44795110Y-115649252D01*
X44243488Y-115153635D01*
X43810619Y-114574242D01*
X43692975Y-114356127D01*
X43420464Y-113617334D01*
X43303193Y-112856313D01*
X43306439Y-112787571D01*
X43595314Y-112787571D01*
X43697918Y-113461040D01*
X43929757Y-114111625D01*
X44275384Y-114707221D01*
X44719356Y-115215722D01*
X45246227Y-115605020D01*
X45335470Y-115653219D01*
X45781283Y-115859546D01*
X46182211Y-115983297D01*
X46607658Y-116039414D01*
X47127027Y-116042841D01*
X47142698Y-116042353D01*
X47579148Y-116017012D01*
X47912254Y-115964826D01*
X48207438Y-115872777D01*
X48391755Y-115793830D01*
X48953524Y-115455445D01*
X49472005Y-114993748D01*
X49900354Y-114454724D01*
X50086251Y-114130458D01*
X50210674Y-113865746D01*
X50290393Y-113646491D01*
X50335276Y-113420547D01*
X50355189Y-113135765D01*
X50360000Y-112740000D01*
X50360031Y-112683550D01*
X50356059Y-112268516D01*
X50337617Y-111969634D01*
X50294915Y-111733790D01*
X50218160Y-111507868D01*
X50097564Y-111238753D01*
X50091266Y-111225443D01*
X49712630Y-110608511D01*
X49220662Y-110090695D01*
X48640373Y-109685362D01*
X47996774Y-109405880D01*
X47314878Y-109265616D01*
X46619697Y-109277936D01*
X46486531Y-109298927D01*
X45736387Y-109515069D01*
X45076197Y-109868075D01*
X44519102Y-110344916D01*
X44078244Y-110932566D01*
X43766765Y-111617996D01*
X43637389Y-112123326D01*
X43595314Y-112787571D01*
X43306439Y-112787571D01*
X43339024Y-112097720D01*
X43525817Y-111366209D01*
G36*
X46232276Y-112698983D02*
G01*
X46433640Y-112349383D01*
X46452313Y-112317432D01*
X46689612Y-111922474D01*
X46861400Y-111663844D01*
X46978967Y-111526955D01*
X47053603Y-111497218D01*
X47074805Y-111513098D01*
X47149182Y-111625992D01*
X47279980Y-111841594D01*
X47446959Y-112124727D01*
X47629881Y-112440213D01*
X47808507Y-112752874D01*
X47962597Y-113027531D01*
X48071913Y-113229007D01*
X48116216Y-113322123D01*
X48116365Y-113323474D01*
X48036940Y-113336728D01*
X47819623Y-113347747D01*
X47495851Y-113355512D01*
X47097062Y-113359006D01*
X47015698Y-113359103D01*
X46606372Y-113354522D01*
X46266222Y-113341988D01*
X46026641Y-113323313D01*
X45919023Y-113300310D01*
X45916085Y-113295603D01*
X45957001Y-113202189D01*
X46053482Y-113020437D01*
X46416393Y-113020437D01*
X47615503Y-113020437D01*
X47386819Y-112618270D01*
X47205461Y-112308082D01*
X47077901Y-112141258D01*
X46975043Y-112113504D01*
X46867790Y-112220528D01*
X46727046Y-112458037D01*
X46694879Y-112516182D01*
X46416393Y-113020437D01*
X46053482Y-113020437D01*
X46067897Y-112993283D01*
X46232276Y-112698983D01*
G37*
X46232276Y-112698983D02*
X46433640Y-112349383D01*
X46452313Y-112317432D01*
X46689612Y-111922474D01*
X46861400Y-111663844D01*
X46978967Y-111526955D01*
X47053603Y-111497218D01*
X47074805Y-111513098D01*
X47149182Y-111625992D01*
X47279980Y-111841594D01*
X47446959Y-112124727D01*
X47629881Y-112440213D01*
X47808507Y-112752874D01*
X47962597Y-113027531D01*
X48071913Y-113229007D01*
X48116216Y-113322123D01*
X48116365Y-113323474D01*
X48036940Y-113336728D01*
X47819623Y-113347747D01*
X47495851Y-113355512D01*
X47097062Y-113359006D01*
X47015698Y-113359103D01*
X46606372Y-113354522D01*
X46266222Y-113341988D01*
X46026641Y-113323313D01*
X45919023Y-113300310D01*
X45916085Y-113295603D01*
X45957001Y-113202189D01*
X46053482Y-113020437D01*
X46416393Y-113020437D01*
X47615503Y-113020437D01*
X47386819Y-112618270D01*
X47205461Y-112308082D01*
X47077901Y-112141258D01*
X46975043Y-112113504D01*
X46867790Y-112220528D01*
X46727046Y-112458037D01*
X46694879Y-112516182D01*
X46416393Y-113020437D01*
X46053482Y-113020437D01*
X46067897Y-112993283D01*
X46232276Y-112698983D01*
D13*
X58800000Y-97925000D02*
X61200000Y-97925000D01*
X58800000Y-97450000D02*
X61200000Y-97450000D01*
X58800000Y-97275000D02*
X61200000Y-97275000D01*
X61200000Y-92200000D02*
X61200000Y-98000000D01*
X61200000Y-98025000D02*
X58800000Y-98025000D01*
X58800000Y-97625000D02*
X61200000Y-97625000D01*
X58800000Y-92200000D02*
X61200000Y-92200000D01*
X58800000Y-98000000D02*
X58800000Y-92200000D01*
X58800000Y-97800000D02*
X61200000Y-97800000D01*
D14*
X51578750Y-89832500D02*
X40586250Y-89832500D01*
X40586250Y-97015000D02*
X40586250Y-95350000D01*
X40586250Y-100430000D02*
X40586250Y-102532500D01*
X40586250Y-89832500D02*
X40586250Y-91935000D01*
X40586250Y-102532500D02*
X51578750Y-102532500D01*
D13*
X53386250Y-103282500D02*
G75*
G03*
X53386250Y-103282500I-100000J0D01*
G01*
D16*
X54620000Y-37016750D03*
D17*
X54620000Y-39556750D03*
X54620000Y-42096750D03*
X54620000Y-44636750D03*
X54620000Y-47176750D03*
X54620000Y-49716750D03*
X54620000Y-52256750D03*
X54620000Y-54796750D03*
X54620000Y-57336750D03*
X54620000Y-59876750D03*
X54620000Y-62416750D03*
X54620000Y-64956750D03*
X39380000Y-64956750D03*
X39380000Y-62416750D03*
X39380000Y-59876750D03*
X39380000Y-57336750D03*
X39380000Y-54796750D03*
X39380000Y-52256750D03*
X39380000Y-49716750D03*
X39380000Y-47176750D03*
X39380000Y-44636750D03*
X39380000Y-42096750D03*
X39380000Y-39556750D03*
X39380000Y-37016750D03*
D18*
X76000000Y-41475000D03*
D19*
X76000000Y-33675000D03*
D18*
X95000000Y-41325000D03*
D19*
X95000000Y-33525000D03*
D18*
X114000000Y-41400000D03*
D19*
X114000000Y-33600000D03*
D18*
X75100000Y-48800000D03*
D19*
X67300000Y-48800000D03*
D18*
X77500000Y-67800000D03*
D19*
X69700000Y-67800000D03*
D18*
X82250000Y-86825000D03*
D19*
X74450000Y-86825000D03*
D18*
X82425000Y-105850000D03*
D19*
X74625000Y-105850000D03*
D18*
X103725000Y-67850000D03*
D19*
X95925000Y-67850000D03*
D18*
X106025000Y-105775000D03*
D19*
X98225000Y-105775000D03*
D18*
X118025000Y-48825000D03*
D19*
X110225000Y-48825000D03*
D18*
X122650000Y-67800000D03*
D19*
X114850000Y-67800000D03*
D18*
X132250000Y-86825000D03*
D19*
X124450000Y-86825000D03*
D18*
X129850000Y-105800000D03*
D19*
X122050000Y-105800000D03*
D18*
X133000000Y-41400000D03*
D19*
X133000000Y-33600000D03*
D18*
X136775000Y-48800000D03*
D19*
X128975000Y-48800000D03*
D18*
X141625000Y-67825000D03*
D19*
X133825000Y-67825000D03*
D18*
X151200000Y-86850000D03*
D19*
X143400000Y-86850000D03*
D18*
X163000000Y-105800000D03*
D19*
X155200000Y-105800000D03*
D18*
X151500000Y-41400000D03*
D19*
X151500000Y-33600000D03*
D18*
X156125000Y-48825000D03*
D19*
X148325000Y-48825000D03*
D18*
X160675000Y-67775000D03*
D19*
X152875000Y-67775000D03*
D18*
X170175000Y-86850000D03*
D19*
X162375000Y-86850000D03*
D18*
X171000000Y-41400000D03*
D19*
X171000000Y-33600000D03*
D18*
X174900000Y-49000000D03*
D19*
X167100000Y-49000000D03*
D18*
X179600000Y-67825000D03*
D19*
X171800000Y-67825000D03*
D18*
X189125000Y-86850000D03*
D19*
X181325000Y-86850000D03*
D20*
X205214801Y-125708879D03*
D19*
X197885199Y-123041121D03*
D18*
X185900000Y-49000000D03*
D19*
X178100000Y-49000000D03*
D18*
X180280000Y-62400000D03*
D19*
X180280000Y-54600000D03*
D18*
X195900000Y-67825000D03*
D19*
X188100000Y-67825000D03*
D21*
X63270000Y-35730000D03*
D22*
X69045000Y-34460000D03*
D21*
X82245000Y-35730000D03*
D22*
X88020000Y-34460000D03*
D21*
X101270000Y-35705000D03*
D22*
X107045000Y-34435000D03*
D21*
X68020000Y-54705000D03*
D22*
X73795000Y-53435000D03*
D21*
X70395000Y-73705000D03*
D22*
X76170000Y-72435000D03*
D23*
X81655000Y-99745000D03*
D24*
X75880000Y-101015000D03*
D21*
X75095000Y-111755000D03*
D22*
X80870000Y-110485000D03*
D21*
X91745000Y-54755000D03*
D22*
X97520000Y-53485000D03*
D21*
X96495000Y-73755000D03*
D22*
X102270000Y-72485000D03*
D21*
X105945000Y-92730000D03*
D22*
X111720000Y-91460000D03*
D21*
X98870000Y-111705000D03*
D22*
X104645000Y-110435000D03*
D21*
X110745000Y-54705000D03*
D22*
X116520000Y-53435000D03*
D21*
X115520000Y-73705000D03*
D22*
X121295000Y-72435000D03*
D21*
X124970000Y-92730000D03*
D22*
X130745000Y-91460000D03*
D21*
X122620000Y-111730000D03*
D22*
X128395000Y-110460000D03*
D21*
X120220000Y-35705000D03*
D22*
X125995000Y-34435000D03*
D21*
X129745000Y-54730000D03*
D22*
X135520000Y-53460000D03*
D21*
X134545000Y-73730000D03*
D22*
X140320000Y-72460000D03*
D21*
X143970000Y-92755000D03*
D22*
X149745000Y-91485000D03*
D21*
X155870000Y-111730000D03*
D22*
X161645000Y-110460000D03*
D21*
X139245000Y-35730000D03*
D22*
X145020000Y-34460000D03*
D21*
X148845000Y-54730000D03*
D22*
X154620000Y-53460000D03*
D21*
X153545000Y-73680000D03*
D22*
X159320000Y-72410000D03*
D21*
X162970000Y-92755000D03*
D22*
X168745000Y-91485000D03*
D21*
X158220000Y-35705000D03*
D22*
X163995000Y-34435000D03*
D21*
X167745000Y-54730000D03*
D22*
X173520000Y-53460000D03*
D21*
X172495000Y-73730000D03*
D22*
X178270000Y-72460000D03*
D21*
X181970000Y-92755000D03*
D22*
X187745000Y-91485000D03*
D21*
X177245000Y-35730000D03*
D22*
X183020000Y-34460000D03*
D21*
X186745000Y-54780000D03*
D22*
X192520000Y-53510000D03*
D21*
X191495000Y-73705000D03*
D22*
X197270000Y-72435000D03*
D21*
X201020000Y-92705000D03*
D22*
X206795000Y-91435000D03*
D25*
X180970211Y-115729006D03*
D26*
X186831302Y-116510763D03*
D25*
X196420211Y-128804006D03*
D26*
X202281302Y-129585763D03*
D18*
X113225000Y-86825000D03*
D19*
X105425000Y-86825000D03*
D18*
X98775000Y-48850000D03*
D19*
X90975000Y-48850000D03*
D18*
X200900000Y-86725000D03*
D19*
X193100000Y-86725000D03*
D20*
X189764801Y-112633879D03*
D19*
X182435199Y-109966121D03*
D18*
X60000000Y-80400000D03*
D19*
X60000000Y-72600000D03*
D18*
X60000000Y-98900000D03*
D19*
X60000000Y-91100000D03*
%LPC*%
D27*
X54620000Y-37016750D03*
D28*
X54620000Y-39556750D03*
X54620000Y-42096750D03*
X54620000Y-44636750D03*
X54620000Y-47176750D03*
X54620000Y-49716750D03*
X54620000Y-52256750D03*
X54620000Y-54796750D03*
X54620000Y-57336750D03*
X54620000Y-59876750D03*
X54620000Y-62416750D03*
X54620000Y-64956750D03*
X39380000Y-64956750D03*
X39380000Y-62416750D03*
X39380000Y-59876750D03*
X39380000Y-57336750D03*
X39380000Y-54796750D03*
X39380000Y-52256750D03*
X39380000Y-49716750D03*
X39380000Y-47176750D03*
X39380000Y-44636750D03*
X39380000Y-42096750D03*
X39380000Y-39556750D03*
X39380000Y-37016750D03*
D29*
X76000000Y-41475000D03*
D30*
X76000000Y-39150000D03*
D31*
X76000000Y-33675000D03*
D30*
X76000000Y-36000000D03*
X95000000Y-39000000D03*
D29*
X95000000Y-41325000D03*
D31*
X95000000Y-33525000D03*
D30*
X95000000Y-35850000D03*
X114000000Y-39075000D03*
D29*
X114000000Y-41400000D03*
D31*
X114000000Y-33600000D03*
D30*
X114000000Y-35925000D03*
D32*
X72775000Y-48800000D03*
D33*
X75100000Y-48800000D03*
D32*
X69625000Y-48800000D03*
D31*
X67300000Y-48800000D03*
D32*
X75175000Y-67800000D03*
D33*
X77500000Y-67800000D03*
D31*
X69700000Y-67800000D03*
D32*
X72025000Y-67800000D03*
D33*
X82250000Y-86825000D03*
D32*
X79925000Y-86825000D03*
D31*
X74450000Y-86825000D03*
D32*
X76775000Y-86825000D03*
D33*
X82425000Y-105850000D03*
D32*
X80100000Y-105850000D03*
X76950000Y-105850000D03*
D31*
X74625000Y-105850000D03*
D33*
X103725000Y-67850000D03*
D32*
X101400000Y-67850000D03*
X98250000Y-67850000D03*
D31*
X95925000Y-67850000D03*
D33*
X106025000Y-105775000D03*
D32*
X103700000Y-105775000D03*
X100550000Y-105775000D03*
D31*
X98225000Y-105775000D03*
D32*
X115700000Y-48825000D03*
D33*
X118025000Y-48825000D03*
D32*
X112550000Y-48825000D03*
D31*
X110225000Y-48825000D03*
D32*
X120325000Y-67800000D03*
D33*
X122650000Y-67800000D03*
D32*
X117175000Y-67800000D03*
D31*
X114850000Y-67800000D03*
D33*
X132250000Y-86825000D03*
D32*
X129925000Y-86825000D03*
D31*
X124450000Y-86825000D03*
D32*
X126775000Y-86825000D03*
X127525000Y-105800000D03*
D33*
X129850000Y-105800000D03*
D31*
X122050000Y-105800000D03*
D32*
X124375000Y-105800000D03*
D29*
X133000000Y-41400000D03*
D30*
X133000000Y-39075000D03*
D31*
X133000000Y-33600000D03*
D30*
X133000000Y-35925000D03*
D32*
X134450000Y-48800000D03*
D33*
X136775000Y-48800000D03*
D31*
X128975000Y-48800000D03*
D32*
X131300000Y-48800000D03*
X139300000Y-67825000D03*
D33*
X141625000Y-67825000D03*
D32*
X136150000Y-67825000D03*
D31*
X133825000Y-67825000D03*
D32*
X148875000Y-86850000D03*
D33*
X151200000Y-86850000D03*
D31*
X143400000Y-86850000D03*
D32*
X145725000Y-86850000D03*
D33*
X163000000Y-105800000D03*
D32*
X160675000Y-105800000D03*
X157525000Y-105800000D03*
D31*
X155200000Y-105800000D03*
D29*
X151500000Y-41400000D03*
D30*
X151500000Y-39075000D03*
X151500000Y-35925000D03*
D31*
X151500000Y-33600000D03*
D33*
X156125000Y-48825000D03*
D32*
X153800000Y-48825000D03*
X150650000Y-48825000D03*
D31*
X148325000Y-48825000D03*
D33*
X160675000Y-67775000D03*
D32*
X158350000Y-67775000D03*
D31*
X152875000Y-67775000D03*
D32*
X155200000Y-67775000D03*
X167850000Y-86850000D03*
D33*
X170175000Y-86850000D03*
D31*
X162375000Y-86850000D03*
D32*
X164700000Y-86850000D03*
D30*
X171000000Y-39075000D03*
D29*
X171000000Y-41400000D03*
D31*
X171000000Y-33600000D03*
D30*
X171000000Y-35925000D03*
D32*
X172575000Y-49000000D03*
D33*
X174900000Y-49000000D03*
D31*
X167100000Y-49000000D03*
D32*
X169425000Y-49000000D03*
X177275000Y-67825000D03*
D33*
X179600000Y-67825000D03*
D31*
X171800000Y-67825000D03*
D32*
X174125000Y-67825000D03*
X186800000Y-86850000D03*
D33*
X189125000Y-86850000D03*
D32*
X183650000Y-86850000D03*
D31*
X181325000Y-86850000D03*
D34*
X203030016Y-124913682D03*
D35*
X205214801Y-125708879D03*
D34*
X200069984Y-123836318D03*
D31*
X197885199Y-123041121D03*
D33*
X185900000Y-49000000D03*
D32*
X183575000Y-49000000D03*
D31*
X178100000Y-49000000D03*
D32*
X180425000Y-49000000D03*
D30*
X180280000Y-60075000D03*
D29*
X180280000Y-62400000D03*
D30*
X180280000Y-56925000D03*
D31*
X180280000Y-54600000D03*
D32*
X193575000Y-67825000D03*
D33*
X195900000Y-67825000D03*
D31*
X188100000Y-67825000D03*
D32*
X190425000Y-67825000D03*
D36*
X63270000Y-35730000D03*
D37*
X69045000Y-34460000D03*
D36*
X82245000Y-35730000D03*
D37*
X88020000Y-34460000D03*
D36*
X101270000Y-35705000D03*
D37*
X107045000Y-34435000D03*
D36*
X68020000Y-54705000D03*
D37*
X73795000Y-53435000D03*
D36*
X70395000Y-73705000D03*
D37*
X76170000Y-72435000D03*
D38*
X81655000Y-99745000D03*
D39*
X75880000Y-101015000D03*
D36*
X75095000Y-111755000D03*
D37*
X80870000Y-110485000D03*
D36*
X91745000Y-54755000D03*
D37*
X97520000Y-53485000D03*
D36*
X96495000Y-73755000D03*
D37*
X102270000Y-72485000D03*
D36*
X105945000Y-92730000D03*
D37*
X111720000Y-91460000D03*
D36*
X98870000Y-111705000D03*
D37*
X104645000Y-110435000D03*
D36*
X110745000Y-54705000D03*
D37*
X116520000Y-53435000D03*
D36*
X115520000Y-73705000D03*
D37*
X121295000Y-72435000D03*
D36*
X124970000Y-92730000D03*
D37*
X130745000Y-91460000D03*
D36*
X122620000Y-111730000D03*
D37*
X128395000Y-110460000D03*
D36*
X120220000Y-35705000D03*
D37*
X125995000Y-34435000D03*
D36*
X129745000Y-54730000D03*
D37*
X135520000Y-53460000D03*
D36*
X134545000Y-73730000D03*
D37*
X140320000Y-72460000D03*
D36*
X143970000Y-92755000D03*
D37*
X149745000Y-91485000D03*
D36*
X155870000Y-111730000D03*
D37*
X161645000Y-110460000D03*
D36*
X139245000Y-35730000D03*
D37*
X145020000Y-34460000D03*
D36*
X148845000Y-54730000D03*
D37*
X154620000Y-53460000D03*
D36*
X153545000Y-73680000D03*
D37*
X159320000Y-72410000D03*
D36*
X162970000Y-92755000D03*
D37*
X168745000Y-91485000D03*
D36*
X158220000Y-35705000D03*
D37*
X163995000Y-34435000D03*
D36*
X167745000Y-54730000D03*
D37*
X173520000Y-53460000D03*
D36*
X172495000Y-73730000D03*
D37*
X178270000Y-72460000D03*
D36*
X181970000Y-92755000D03*
D37*
X187745000Y-91485000D03*
D36*
X177245000Y-35730000D03*
D37*
X183020000Y-34460000D03*
D36*
X186745000Y-54780000D03*
D37*
X192520000Y-53510000D03*
D36*
X191495000Y-73705000D03*
D37*
X197270000Y-72435000D03*
D36*
X201020000Y-92705000D03*
D37*
X206795000Y-91435000D03*
D40*
X180970211Y-115729006D03*
D41*
X186831302Y-116510763D03*
D40*
X196420211Y-128804006D03*
D41*
X202281302Y-129585763D03*
D32*
X110900000Y-86825000D03*
D33*
X113225000Y-86825000D03*
D32*
X107750000Y-86825000D03*
D31*
X105425000Y-86825000D03*
D32*
X96450000Y-48850000D03*
D33*
X98775000Y-48850000D03*
D32*
X93300000Y-48850000D03*
D31*
X90975000Y-48850000D03*
D33*
X200900000Y-86725000D03*
D32*
X198575000Y-86725000D03*
X195425000Y-86725000D03*
D31*
X193100000Y-86725000D03*
D34*
X187580016Y-111838682D03*
D35*
X189764801Y-112633879D03*
D31*
X182435199Y-109966121D03*
D34*
X184619984Y-110761318D03*
D30*
X60000000Y-78075000D03*
D29*
X60000000Y-80400000D03*
D30*
X60000000Y-74925000D03*
D31*
X60000000Y-72600000D03*
D42*
X53340000Y-83102500D03*
D43*
X53340000Y-78402500D03*
X53340000Y-73702500D03*
X40640000Y-80942500D03*
X40640000Y-75862500D03*
D30*
X60000000Y-96575000D03*
D29*
X60000000Y-98900000D03*
D31*
X60000000Y-91100000D03*
D30*
X60000000Y-93425000D03*
D42*
X53286250Y-100882500D03*
D43*
X53286250Y-96182500D03*
X53286250Y-91482500D03*
X40586250Y-98722500D03*
X40586250Y-93642500D03*
D44*
X194000000Y-32327500D03*
X194000000Y-39327500D03*
D45*
X196300000Y-42027500D03*
X191700000Y-40927500D03*
X191700000Y-36927500D03*
X191700000Y-33927500D03*
M02*
