G04 #@! TF.GenerationSoftware,KiCad,Pcbnew,(6.0.10-0)*
G04 #@! TF.CreationDate,2022-12-24T00:39:51-08:00*
G04 #@! TF.ProjectId,left,6c656674-2e6b-4696-9361-645f70636258,rev?*
G04 #@! TF.SameCoordinates,Original*
G04 #@! TF.FileFunction,Soldermask,Bot*
G04 #@! TF.FilePolarity,Negative*
%FSLAX46Y46*%
G04 Gerber Fmt 4.6, Leading zero omitted, Abs format (unit mm)*
G04 Created by KiCad (PCBNEW (6.0.10-0)) date 2022-12-24 00:39:51*
%MOMM*%
%LPD*%
G01*
G04 APERTURE LIST*
G04 Aperture macros list*
%AMRoundRect*
0 Rectangle with rounded corners*
0 $1 Rounding radius*
0 $2 $3 $4 $5 $6 $7 $8 $9 X,Y pos of 4 corners*
0 Add a 4 corners polygon primitive as box body*
4,1,4,$2,$3,$4,$5,$6,$7,$8,$9,$2,$3,0*
0 Add four circle primitives for the rounded corners*
1,1,$1+$1,$2,$3*
1,1,$1+$1,$4,$5*
1,1,$1+$1,$6,$7*
1,1,$1+$1,$8,$9*
0 Add four rect primitives between the rounded corners*
20,1,$1+$1,$2,$3,$4,$5,0*
20,1,$1+$1,$4,$5,$6,$7,0*
20,1,$1+$1,$6,$7,$8,$9,0*
20,1,$1+$1,$8,$9,$2,$3,0*%
%AMHorizOval*
0 Thick line with rounded ends*
0 $1 width*
0 $2 $3 position (X,Y) of the first rounded end (center of the circle)*
0 $4 $5 position (X,Y) of the second rounded end (center of the circle)*
0 Add line between two ends*
20,1,$1,$2,$3,$4,$5,0*
0 Add two circle primitives to create the rounded ends*
1,1,$1,$2,$3*
1,1,$1,$4,$5*%
G04 Aperture macros list end*
%ADD10RoundRect,0.051000X-0.876300X0.876300X-0.876300X-0.876300X0.876300X-0.876300X0.876300X0.876300X0*%
%ADD11C,1.854600*%
%ADD12RoundRect,0.051000X0.800000X-0.800000X0.800000X0.800000X-0.800000X0.800000X-0.800000X-0.800000X0*%
%ADD13C,1.702000*%
%ADD14RoundRect,0.051000X0.800000X0.800000X-0.800000X0.800000X-0.800000X-0.800000X0.800000X-0.800000X0*%
%ADD15RoundRect,0.051000X1.025370X0.478138X-0.478138X1.025370X-1.025370X-0.478138X0.478138X-1.025370X0*%
%ADD16HorizOval,2.602000X-0.604462X-0.948815X0.604462X0.948815X0*%
%ADD17HorizOval,2.602000X-0.019724X-0.289328X0.019724X0.289328X0*%
%ADD18HorizOval,2.602000X0.604462X0.948815X-0.604462X-0.948815X0*%
%ADD19HorizOval,2.602000X0.019724X0.289328X-0.019724X-0.289328X0*%
%ADD20HorizOval,2.602000X-0.892523X-0.684857X0.892523X0.684857X0*%
%ADD21HorizOval,2.602000X-0.117491X-0.265134X0.117491X0.265134X0*%
%ADD22RoundRect,0.051000X1.387500X-1.387500X1.387500X1.387500X-1.387500X1.387500X-1.387500X-1.387500X0*%
%ADD23C,2.877000*%
%ADD24C,0.902000*%
%ADD25O,1.702000X2.102000*%
%ADD26RoundRect,0.051000X0.700000X1.050000X-0.700000X1.050000X-0.700000X-1.050000X0.700000X-1.050000X0*%
G04 APERTURE END LIST*
D10*
X54620000Y-37016750D03*
D11*
X54620000Y-39556750D03*
X54620000Y-42096750D03*
X54620000Y-44636750D03*
X54620000Y-47176750D03*
X54620000Y-49716750D03*
X54620000Y-52256750D03*
X54620000Y-54796750D03*
X54620000Y-57336750D03*
X54620000Y-59876750D03*
X54620000Y-62416750D03*
X54620000Y-64956750D03*
X39380000Y-64956750D03*
X39380000Y-62416750D03*
X39380000Y-59876750D03*
X39380000Y-57336750D03*
X39380000Y-54796750D03*
X39380000Y-52256750D03*
X39380000Y-49716750D03*
X39380000Y-47176750D03*
X39380000Y-44636750D03*
X39380000Y-42096750D03*
X39380000Y-39556750D03*
X39380000Y-37016750D03*
D12*
X76000000Y-41475000D03*
D13*
X76000000Y-33675000D03*
D12*
X95000000Y-41325000D03*
D13*
X95000000Y-33525000D03*
D12*
X114000000Y-41400000D03*
D13*
X114000000Y-33600000D03*
D14*
X75100000Y-48800000D03*
D13*
X67300000Y-48800000D03*
D14*
X77500000Y-67800000D03*
D13*
X69700000Y-67800000D03*
D14*
X82250000Y-86825000D03*
D13*
X74450000Y-86825000D03*
D14*
X82425000Y-105850000D03*
D13*
X74625000Y-105850000D03*
D14*
X103725000Y-67850000D03*
D13*
X95925000Y-67850000D03*
D14*
X106025000Y-105775000D03*
D13*
X98225000Y-105775000D03*
D14*
X118025000Y-48825000D03*
D13*
X110225000Y-48825000D03*
D14*
X122650000Y-67800000D03*
D13*
X114850000Y-67800000D03*
D14*
X132250000Y-86825000D03*
D13*
X124450000Y-86825000D03*
D14*
X129850000Y-105800000D03*
D13*
X122050000Y-105800000D03*
D12*
X133000000Y-41400000D03*
D13*
X133000000Y-33600000D03*
D14*
X136775000Y-48800000D03*
D13*
X128975000Y-48800000D03*
D14*
X141625000Y-67825000D03*
D13*
X133825000Y-67825000D03*
D14*
X151200000Y-86850000D03*
D13*
X143400000Y-86850000D03*
D14*
X163000000Y-105800000D03*
D13*
X155200000Y-105800000D03*
D12*
X151500000Y-41400000D03*
D13*
X151500000Y-33600000D03*
D14*
X156125000Y-48825000D03*
D13*
X148325000Y-48825000D03*
D14*
X160675000Y-67775000D03*
D13*
X152875000Y-67775000D03*
D14*
X170175000Y-86850000D03*
D13*
X162375000Y-86850000D03*
D12*
X171000000Y-41400000D03*
D13*
X171000000Y-33600000D03*
D14*
X174900000Y-49000000D03*
D13*
X167100000Y-49000000D03*
D14*
X179600000Y-67825000D03*
D13*
X171800000Y-67825000D03*
D14*
X189125000Y-86850000D03*
D13*
X181325000Y-86850000D03*
D15*
X205214801Y-125708879D03*
D13*
X197885199Y-123041121D03*
D14*
X185900000Y-49000000D03*
D13*
X178100000Y-49000000D03*
D12*
X180280000Y-62400000D03*
D13*
X180280000Y-54600000D03*
D14*
X195900000Y-67825000D03*
D13*
X188100000Y-67825000D03*
D16*
X63270000Y-35730000D03*
D17*
X69045000Y-34460000D03*
D16*
X82245000Y-35730000D03*
D17*
X88020000Y-34460000D03*
D16*
X101270000Y-35705000D03*
D17*
X107045000Y-34435000D03*
D16*
X68020000Y-54705000D03*
D17*
X73795000Y-53435000D03*
D16*
X70395000Y-73705000D03*
D17*
X76170000Y-72435000D03*
D18*
X81655000Y-99745000D03*
D19*
X75880000Y-101015000D03*
D16*
X75095000Y-111755000D03*
D17*
X80870000Y-110485000D03*
D16*
X91745000Y-54755000D03*
D17*
X97520000Y-53485000D03*
D16*
X96495000Y-73755000D03*
D17*
X102270000Y-72485000D03*
D16*
X105945000Y-92730000D03*
D17*
X111720000Y-91460000D03*
D16*
X98870000Y-111705000D03*
D17*
X104645000Y-110435000D03*
D16*
X110745000Y-54705000D03*
D17*
X116520000Y-53435000D03*
D16*
X115520000Y-73705000D03*
D17*
X121295000Y-72435000D03*
D16*
X124970000Y-92730000D03*
D17*
X130745000Y-91460000D03*
D16*
X122620000Y-111730000D03*
D17*
X128395000Y-110460000D03*
D16*
X120220000Y-35705000D03*
D17*
X125995000Y-34435000D03*
D16*
X129745000Y-54730000D03*
D17*
X135520000Y-53460000D03*
D16*
X134545000Y-73730000D03*
D17*
X140320000Y-72460000D03*
D16*
X143970000Y-92755000D03*
D17*
X149745000Y-91485000D03*
D16*
X155870000Y-111730000D03*
D17*
X161645000Y-110460000D03*
D16*
X139245000Y-35730000D03*
D17*
X145020000Y-34460000D03*
D16*
X148845000Y-54730000D03*
D17*
X154620000Y-53460000D03*
D16*
X153545000Y-73680000D03*
D17*
X159320000Y-72410000D03*
D16*
X162970000Y-92755000D03*
D17*
X168745000Y-91485000D03*
D16*
X158220000Y-35705000D03*
D17*
X163995000Y-34435000D03*
D16*
X167745000Y-54730000D03*
D17*
X173520000Y-53460000D03*
D16*
X172495000Y-73730000D03*
D17*
X178270000Y-72460000D03*
D16*
X181970000Y-92755000D03*
D17*
X187745000Y-91485000D03*
D16*
X177245000Y-35730000D03*
D17*
X183020000Y-34460000D03*
D16*
X186745000Y-54780000D03*
D17*
X192520000Y-53510000D03*
D16*
X191495000Y-73705000D03*
D17*
X197270000Y-72435000D03*
D16*
X201020000Y-92705000D03*
D17*
X206795000Y-91435000D03*
D20*
X180970211Y-115729006D03*
D21*
X186831302Y-116510763D03*
D20*
X196420211Y-128804006D03*
D21*
X202281302Y-129585763D03*
D14*
X113225000Y-86825000D03*
D13*
X105425000Y-86825000D03*
D14*
X98775000Y-48850000D03*
D13*
X90975000Y-48850000D03*
D14*
X200900000Y-86725000D03*
D13*
X193100000Y-86725000D03*
D15*
X189764801Y-112633879D03*
D13*
X182435199Y-109966121D03*
D12*
X60000000Y-80400000D03*
D13*
X60000000Y-72600000D03*
D22*
X53340000Y-83102500D03*
D23*
X53340000Y-78402500D03*
X53340000Y-73702500D03*
X40640000Y-80942500D03*
X40640000Y-75862500D03*
D12*
X60000000Y-98900000D03*
D13*
X60000000Y-91100000D03*
D22*
X53286250Y-100882500D03*
D23*
X53286250Y-96182500D03*
X53286250Y-91482500D03*
X40586250Y-98722500D03*
X40586250Y-93642500D03*
D24*
X194000000Y-32327500D03*
X194000000Y-39327500D03*
D25*
X196300000Y-42027500D03*
X191700000Y-40927500D03*
X191700000Y-36927500D03*
X191700000Y-33927500D03*
D26*
X80750000Y-53750000D03*
X80750000Y-62850000D03*
X85250000Y-53750000D03*
X85250000Y-62850000D03*
M02*
