G04 #@! TF.GenerationSoftware,KiCad,Pcbnew,(6.0.10-0)*
G04 #@! TF.CreationDate,2022-12-24T00:39:51-08:00*
G04 #@! TF.ProjectId,left,6c656674-2e6b-4696-9361-645f70636258,rev?*
G04 #@! TF.SameCoordinates,Original*
G04 #@! TF.FileFunction,Legend,Bot*
G04 #@! TF.FilePolarity,Positive*
%FSLAX46Y46*%
G04 Gerber Fmt 4.6, Leading zero omitted, Abs format (unit mm)*
G04 Created by KiCad (PCBNEW (6.0.10-0)) date 2022-12-24 00:39:51*
%MOMM*%
%LPD*%
G01*
G04 APERTURE LIST*
G04 Aperture macros list*
%AMRoundRect*
0 Rectangle with rounded corners*
0 $1 Rounding radius*
0 $2 $3 $4 $5 $6 $7 $8 $9 X,Y pos of 4 corners*
0 Add a 4 corners polygon primitive as box body*
4,1,4,$2,$3,$4,$5,$6,$7,$8,$9,$2,$3,0*
0 Add four circle primitives for the rounded corners*
1,1,$1+$1,$2,$3*
1,1,$1+$1,$4,$5*
1,1,$1+$1,$6,$7*
1,1,$1+$1,$8,$9*
0 Add four rect primitives between the rounded corners*
20,1,$1+$1,$2,$3,$4,$5,0*
20,1,$1+$1,$4,$5,$6,$7,0*
20,1,$1+$1,$6,$7,$8,$9,0*
20,1,$1+$1,$8,$9,$2,$3,0*%
%AMHorizOval*
0 Thick line with rounded ends*
0 $1 width*
0 $2 $3 position (X,Y) of the first rounded end (center of the circle)*
0 $4 $5 position (X,Y) of the second rounded end (center of the circle)*
0 Add line between two ends*
20,1,$1,$2,$3,$4,$5,0*
0 Add two circle primitives to create the rounded ends*
1,1,$1,$2,$3*
1,1,$1,$4,$5*%
G04 Aperture macros list end*
%ADD10C,0.150000*%
%ADD11C,0.200000*%
%ADD12C,0.254000*%
%ADD13C,0.381000*%
%ADD14C,0.100000*%
%ADD15R,1.752600X1.752600*%
%ADD16C,1.752600*%
%ADD17RoundRect,0.051000X-0.876300X0.876300X-0.876300X-0.876300X0.876300X-0.876300X0.876300X0.876300X0*%
%ADD18C,1.854600*%
%ADD19RoundRect,0.051000X0.800000X-0.800000X0.800000X0.800000X-0.800000X0.800000X-0.800000X-0.800000X0*%
%ADD20C,1.702000*%
%ADD21RoundRect,0.051000X0.800000X0.800000X-0.800000X0.800000X-0.800000X-0.800000X0.800000X-0.800000X0*%
%ADD22RoundRect,0.051000X1.025370X0.478138X-0.478138X1.025370X-1.025370X-0.478138X0.478138X-1.025370X0*%
%ADD23HorizOval,2.602000X-0.604462X-0.948815X0.604462X0.948815X0*%
%ADD24HorizOval,2.602000X-0.019724X-0.289328X0.019724X0.289328X0*%
%ADD25HorizOval,2.602000X0.604462X0.948815X-0.604462X-0.948815X0*%
%ADD26HorizOval,2.602000X0.019724X0.289328X-0.019724X-0.289328X0*%
%ADD27HorizOval,2.602000X-0.892523X-0.684857X0.892523X0.684857X0*%
%ADD28HorizOval,2.602000X-0.117491X-0.265134X0.117491X0.265134X0*%
%ADD29RoundRect,0.051000X1.387500X-1.387500X1.387500X1.387500X-1.387500X1.387500X-1.387500X-1.387500X0*%
%ADD30C,2.877000*%
%ADD31C,0.902000*%
%ADD32O,1.702000X2.102000*%
%ADD33RoundRect,0.051000X0.700000X1.050000X-0.700000X1.050000X-0.700000X-1.050000X0.700000X-1.050000X0*%
G04 APERTURE END LIST*
D10*
X41862809Y-57279607D02*
X41748523Y-57317702D01*
X41710428Y-57355797D01*
X41672333Y-57431988D01*
X41672333Y-57546273D01*
X41710428Y-57622464D01*
X41748523Y-57660559D01*
X41824714Y-57698654D01*
X42129476Y-57698654D01*
X42129476Y-56898654D01*
X41862809Y-56898654D01*
X41786619Y-56936750D01*
X41748523Y-56974845D01*
X41710428Y-57051035D01*
X41710428Y-57127226D01*
X41748523Y-57203416D01*
X41786619Y-57241511D01*
X41862809Y-57279607D01*
X42129476Y-57279607D01*
X40910428Y-57698654D02*
X41367571Y-57698654D01*
X41139000Y-57698654D02*
X41139000Y-56898654D01*
X41215190Y-57012940D01*
X41291380Y-57089130D01*
X41367571Y-57127226D01*
X41862809Y-62359607D02*
X41748523Y-62397702D01*
X41710428Y-62435797D01*
X41672333Y-62511988D01*
X41672333Y-62626273D01*
X41710428Y-62702464D01*
X41748523Y-62740559D01*
X41824714Y-62778654D01*
X42129476Y-62778654D01*
X42129476Y-61978654D01*
X41862809Y-61978654D01*
X41786619Y-62016750D01*
X41748523Y-62054845D01*
X41710428Y-62131035D01*
X41710428Y-62207226D01*
X41748523Y-62283416D01*
X41786619Y-62321511D01*
X41862809Y-62359607D01*
X42129476Y-62359607D01*
X41367571Y-62054845D02*
X41329476Y-62016750D01*
X41253285Y-61978654D01*
X41062809Y-61978654D01*
X40986619Y-62016750D01*
X40948523Y-62054845D01*
X40910428Y-62131035D01*
X40910428Y-62207226D01*
X40948523Y-62321511D01*
X41405666Y-62778654D01*
X40910428Y-62778654D01*
X52594333Y-55082464D02*
X52632428Y-55120559D01*
X52746714Y-55158654D01*
X52822904Y-55158654D01*
X52937190Y-55120559D01*
X53013380Y-55044369D01*
X53051476Y-54968178D01*
X53089571Y-54815797D01*
X53089571Y-54701511D01*
X53051476Y-54549130D01*
X53013380Y-54472940D01*
X52937190Y-54396750D01*
X52822904Y-54358654D01*
X52746714Y-54358654D01*
X52632428Y-54396750D01*
X52594333Y-54434845D01*
X51908619Y-54358654D02*
X52061000Y-54358654D01*
X52137190Y-54396750D01*
X52175285Y-54434845D01*
X52251476Y-54549130D01*
X52289571Y-54701511D01*
X52289571Y-55006273D01*
X52251476Y-55082464D01*
X52213380Y-55120559D01*
X52137190Y-55158654D01*
X51984809Y-55158654D01*
X51908619Y-55120559D01*
X51870523Y-55082464D01*
X51832428Y-55006273D01*
X51832428Y-54815797D01*
X51870523Y-54739607D01*
X51908619Y-54701511D01*
X51984809Y-54663416D01*
X52137190Y-54663416D01*
X52213380Y-54701511D01*
X52251476Y-54739607D01*
X52289571Y-54815797D01*
X53051476Y-47538654D02*
X53051476Y-46738654D01*
X52861000Y-46738654D01*
X52746714Y-46776750D01*
X52670523Y-46852940D01*
X52632428Y-46929130D01*
X52594333Y-47081511D01*
X52594333Y-47195797D01*
X52632428Y-47348178D01*
X52670523Y-47424369D01*
X52746714Y-47500559D01*
X52861000Y-47538654D01*
X53051476Y-47538654D01*
X51832428Y-47538654D02*
X52289571Y-47538654D01*
X52061000Y-47538654D02*
X52061000Y-46738654D01*
X52137190Y-46852940D01*
X52213380Y-46929130D01*
X52289571Y-46967226D01*
X52784809Y-62359607D02*
X52670523Y-62397702D01*
X52632428Y-62435797D01*
X52594333Y-62511988D01*
X52594333Y-62626273D01*
X52632428Y-62702464D01*
X52670523Y-62740559D01*
X52746714Y-62778654D01*
X53051476Y-62778654D01*
X53051476Y-61978654D01*
X52784809Y-61978654D01*
X52708619Y-62016750D01*
X52670523Y-62054845D01*
X52632428Y-62131035D01*
X52632428Y-62207226D01*
X52670523Y-62283416D01*
X52708619Y-62321511D01*
X52784809Y-62359607D01*
X53051476Y-62359607D01*
X51908619Y-62245321D02*
X51908619Y-62778654D01*
X52099095Y-61940559D02*
X52289571Y-62511988D01*
X51794333Y-62511988D01*
X52784809Y-64899607D02*
X52670523Y-64937702D01*
X52632428Y-64975797D01*
X52594333Y-65051988D01*
X52594333Y-65166273D01*
X52632428Y-65242464D01*
X52670523Y-65280559D01*
X52746714Y-65318654D01*
X53051476Y-65318654D01*
X53051476Y-64518654D01*
X52784809Y-64518654D01*
X52708619Y-64556750D01*
X52670523Y-64594845D01*
X52632428Y-64671035D01*
X52632428Y-64747226D01*
X52670523Y-64823416D01*
X52708619Y-64861511D01*
X52784809Y-64899607D01*
X53051476Y-64899607D01*
X51870523Y-64518654D02*
X52251476Y-64518654D01*
X52289571Y-64899607D01*
X52251476Y-64861511D01*
X52175285Y-64823416D01*
X51984809Y-64823416D01*
X51908619Y-64861511D01*
X51870523Y-64899607D01*
X51832428Y-64975797D01*
X51832428Y-65166273D01*
X51870523Y-65242464D01*
X51908619Y-65280559D01*
X51984809Y-65318654D01*
X52175285Y-65318654D01*
X52251476Y-65280559D01*
X52289571Y-65242464D01*
X41805666Y-49659607D02*
X42072333Y-49659607D01*
X42072333Y-50078654D02*
X42072333Y-49278654D01*
X41691380Y-49278654D01*
X41005666Y-49278654D02*
X41386619Y-49278654D01*
X41424714Y-49659607D01*
X41386619Y-49621511D01*
X41310428Y-49583416D01*
X41119952Y-49583416D01*
X41043761Y-49621511D01*
X41005666Y-49659607D01*
X40967571Y-49735797D01*
X40967571Y-49926273D01*
X41005666Y-50002464D01*
X41043761Y-50040559D01*
X41119952Y-50078654D01*
X41310428Y-50078654D01*
X41386619Y-50040559D01*
X41424714Y-50002464D01*
X41805666Y-54739607D02*
X42072333Y-54739607D01*
X42072333Y-55158654D02*
X42072333Y-54358654D01*
X41691380Y-54358654D01*
X41462809Y-54358654D02*
X40929476Y-54358654D01*
X41272333Y-55158654D01*
X41862809Y-59819607D02*
X41748523Y-59857702D01*
X41710428Y-59895797D01*
X41672333Y-59971988D01*
X41672333Y-60086273D01*
X41710428Y-60162464D01*
X41748523Y-60200559D01*
X41824714Y-60238654D01*
X42129476Y-60238654D01*
X42129476Y-59438654D01*
X41862809Y-59438654D01*
X41786619Y-59476750D01*
X41748523Y-59514845D01*
X41710428Y-59591035D01*
X41710428Y-59667226D01*
X41748523Y-59743416D01*
X41786619Y-59781511D01*
X41862809Y-59819607D01*
X42129476Y-59819607D01*
X41405666Y-59438654D02*
X40910428Y-59438654D01*
X41177095Y-59743416D01*
X41062809Y-59743416D01*
X40986619Y-59781511D01*
X40948523Y-59819607D01*
X40910428Y-59895797D01*
X40910428Y-60086273D01*
X40948523Y-60162464D01*
X40986619Y-60200559D01*
X41062809Y-60238654D01*
X41291380Y-60238654D01*
X41367571Y-60200559D01*
X41405666Y-60162464D01*
X53051476Y-57698654D02*
X53051476Y-56898654D01*
X52861000Y-56898654D01*
X52746714Y-56936750D01*
X52670523Y-57012940D01*
X52632428Y-57089130D01*
X52594333Y-57241511D01*
X52594333Y-57355797D01*
X52632428Y-57508178D01*
X52670523Y-57584369D01*
X52746714Y-57660559D01*
X52861000Y-57698654D01*
X53051476Y-57698654D01*
X52327666Y-56898654D02*
X51794333Y-56898654D01*
X52137190Y-57698654D01*
X41805666Y-47119607D02*
X42072333Y-47119607D01*
X42072333Y-47538654D02*
X42072333Y-46738654D01*
X41691380Y-46738654D01*
X41043761Y-47005321D02*
X41043761Y-47538654D01*
X41234238Y-46700559D02*
X41424714Y-47271988D01*
X40929476Y-47271988D01*
X41800213Y-42390559D02*
X41685927Y-42428654D01*
X41495451Y-42428654D01*
X41419260Y-42390559D01*
X41381165Y-42352464D01*
X41343070Y-42276273D01*
X41343070Y-42200083D01*
X41381165Y-42123892D01*
X41419260Y-42085797D01*
X41495451Y-42047702D01*
X41647832Y-42009607D01*
X41724022Y-41971511D01*
X41762118Y-41933416D01*
X41800213Y-41857226D01*
X41800213Y-41781035D01*
X41762118Y-41704845D01*
X41724022Y-41666750D01*
X41647832Y-41628654D01*
X41457356Y-41628654D01*
X41343070Y-41666750D01*
X41114499Y-41628654D02*
X40657356Y-41628654D01*
X40885927Y-42428654D02*
X40885927Y-41628654D01*
X52762348Y-36578654D02*
X52305205Y-36578654D01*
X52533776Y-37378654D02*
X52533776Y-36578654D01*
X52114729Y-36578654D02*
X51581395Y-37378654D01*
X51581395Y-36578654D02*
X52114729Y-37378654D01*
X51124252Y-36578654D02*
X51048062Y-36578654D01*
X50971872Y-36616750D01*
X50933776Y-36654845D01*
X50895681Y-36731035D01*
X50857586Y-36883416D01*
X50857586Y-37073892D01*
X50895681Y-37226273D01*
X50933776Y-37302464D01*
X50971872Y-37340559D01*
X51048062Y-37378654D01*
X51124252Y-37378654D01*
X51200443Y-37340559D01*
X51238538Y-37302464D01*
X51276633Y-37226273D01*
X51314729Y-37073892D01*
X51314729Y-36883416D01*
X51276633Y-36731035D01*
X51238538Y-36654845D01*
X51200443Y-36616750D01*
X51124252Y-36578654D01*
X49943300Y-36540559D02*
X50629014Y-37569130D01*
X49676633Y-37378654D02*
X49676633Y-36578654D01*
X49486157Y-36578654D01*
X49371872Y-36616750D01*
X49295681Y-36692940D01*
X49257586Y-36769130D01*
X49219491Y-36921511D01*
X49219491Y-37035797D01*
X49257586Y-37188178D01*
X49295681Y-37264369D01*
X49371872Y-37340559D01*
X49486157Y-37378654D01*
X49676633Y-37378654D01*
X48952824Y-36578654D02*
X48457586Y-36578654D01*
X48724252Y-36883416D01*
X48609967Y-36883416D01*
X48533776Y-36921511D01*
X48495681Y-36959607D01*
X48457586Y-37035797D01*
X48457586Y-37226273D01*
X48495681Y-37302464D01*
X48533776Y-37340559D01*
X48609967Y-37378654D01*
X48838538Y-37378654D01*
X48914729Y-37340559D01*
X48952824Y-37302464D01*
X53070523Y-44236750D02*
X53146714Y-44198654D01*
X53261000Y-44198654D01*
X53375285Y-44236750D01*
X53451476Y-44312940D01*
X53489571Y-44389130D01*
X53527666Y-44541511D01*
X53527666Y-44655797D01*
X53489571Y-44808178D01*
X53451476Y-44884369D01*
X53375285Y-44960559D01*
X53261000Y-44998654D01*
X53184809Y-44998654D01*
X53070523Y-44960559D01*
X53032428Y-44922464D01*
X53032428Y-44655797D01*
X53184809Y-44655797D01*
X52689571Y-44998654D02*
X52689571Y-44198654D01*
X52232428Y-44998654D01*
X52232428Y-44198654D01*
X51851476Y-44998654D02*
X51851476Y-44198654D01*
X51661000Y-44198654D01*
X51546714Y-44236750D01*
X51470523Y-44312940D01*
X51432428Y-44389130D01*
X51394333Y-44541511D01*
X51394333Y-44655797D01*
X51432428Y-44808178D01*
X51470523Y-44884369D01*
X51546714Y-44960559D01*
X51661000Y-44998654D01*
X51851476Y-44998654D01*
X53051476Y-50078654D02*
X53051476Y-49278654D01*
X52861000Y-49278654D01*
X52746714Y-49316750D01*
X52670523Y-49392940D01*
X52632428Y-49469130D01*
X52594333Y-49621511D01*
X52594333Y-49735797D01*
X52632428Y-49888178D01*
X52670523Y-49964369D01*
X52746714Y-50040559D01*
X52861000Y-50078654D01*
X53051476Y-50078654D01*
X52099095Y-49278654D02*
X52022904Y-49278654D01*
X51946714Y-49316750D01*
X51908619Y-49354845D01*
X51870523Y-49431035D01*
X51832428Y-49583416D01*
X51832428Y-49773892D01*
X51870523Y-49926273D01*
X51908619Y-50002464D01*
X51946714Y-50040559D01*
X52022904Y-50078654D01*
X52099095Y-50078654D01*
X52175285Y-50040559D01*
X52213380Y-50002464D01*
X52251476Y-49926273D01*
X52289571Y-49773892D01*
X52289571Y-49583416D01*
X52251476Y-49431035D01*
X52213380Y-49354845D01*
X52175285Y-49316750D01*
X52099095Y-49278654D01*
X42091380Y-37378654D02*
X42358047Y-36997702D01*
X42548523Y-37378654D02*
X42548523Y-36578654D01*
X42243761Y-36578654D01*
X42167571Y-36616750D01*
X42129476Y-36654845D01*
X42091380Y-36731035D01*
X42091380Y-36845321D01*
X42129476Y-36921511D01*
X42167571Y-36959607D01*
X42243761Y-36997702D01*
X42548523Y-36997702D01*
X41786619Y-37150083D02*
X41405666Y-37150083D01*
X41862809Y-37378654D02*
X41596142Y-36578654D01*
X41329476Y-37378654D01*
X41139000Y-36578654D02*
X40948523Y-37378654D01*
X40796142Y-36807226D01*
X40643761Y-37378654D01*
X40453285Y-36578654D01*
X53051476Y-39918654D02*
X53051476Y-39118654D01*
X52861000Y-39118654D01*
X52746714Y-39156750D01*
X52670523Y-39232940D01*
X52632428Y-39309130D01*
X52594333Y-39461511D01*
X52594333Y-39575797D01*
X52632428Y-39728178D01*
X52670523Y-39804369D01*
X52746714Y-39880559D01*
X52861000Y-39918654D01*
X53051476Y-39918654D01*
X52289571Y-39194845D02*
X52251476Y-39156750D01*
X52175285Y-39118654D01*
X51984809Y-39118654D01*
X51908619Y-39156750D01*
X51870523Y-39194845D01*
X51832428Y-39271035D01*
X51832428Y-39347226D01*
X51870523Y-39461511D01*
X52327666Y-39918654D01*
X51832428Y-39918654D01*
X53051476Y-52618654D02*
X53051476Y-51818654D01*
X52861000Y-51818654D01*
X52746714Y-51856750D01*
X52670523Y-51932940D01*
X52632428Y-52009130D01*
X52594333Y-52161511D01*
X52594333Y-52275797D01*
X52632428Y-52428178D01*
X52670523Y-52504369D01*
X52746714Y-52580559D01*
X52861000Y-52618654D01*
X53051476Y-52618654D01*
X51908619Y-52085321D02*
X51908619Y-52618654D01*
X52099095Y-51780559D02*
X52289571Y-52351988D01*
X51794333Y-52351988D01*
X42605666Y-44198654D02*
X42339000Y-44998654D01*
X42072333Y-44198654D01*
X41348523Y-44922464D02*
X41386619Y-44960559D01*
X41500904Y-44998654D01*
X41577095Y-44998654D01*
X41691380Y-44960559D01*
X41767571Y-44884369D01*
X41805666Y-44808178D01*
X41843761Y-44655797D01*
X41843761Y-44541511D01*
X41805666Y-44389130D01*
X41767571Y-44312940D01*
X41691380Y-44236750D01*
X41577095Y-44198654D01*
X41500904Y-44198654D01*
X41386619Y-44236750D01*
X41348523Y-44274845D01*
X40548523Y-44922464D02*
X40586619Y-44960559D01*
X40700904Y-44998654D01*
X40777095Y-44998654D01*
X40891380Y-44960559D01*
X40967571Y-44884369D01*
X41005666Y-44808178D01*
X41043761Y-44655797D01*
X41043761Y-44541511D01*
X41005666Y-44389130D01*
X40967571Y-44312940D01*
X40891380Y-44236750D01*
X40777095Y-44198654D01*
X40700904Y-44198654D01*
X40586619Y-44236750D01*
X40548523Y-44274845D01*
X41862809Y-64899607D02*
X41748523Y-64937702D01*
X41710428Y-64975797D01*
X41672333Y-65051988D01*
X41672333Y-65166273D01*
X41710428Y-65242464D01*
X41748523Y-65280559D01*
X41824714Y-65318654D01*
X42129476Y-65318654D01*
X42129476Y-64518654D01*
X41862809Y-64518654D01*
X41786619Y-64556750D01*
X41748523Y-64594845D01*
X41710428Y-64671035D01*
X41710428Y-64747226D01*
X41748523Y-64823416D01*
X41786619Y-64861511D01*
X41862809Y-64899607D01*
X42129476Y-64899607D01*
X40986619Y-64518654D02*
X41139000Y-64518654D01*
X41215190Y-64556750D01*
X41253285Y-64594845D01*
X41329476Y-64709130D01*
X41367571Y-64861511D01*
X41367571Y-65166273D01*
X41329476Y-65242464D01*
X41291380Y-65280559D01*
X41215190Y-65318654D01*
X41062809Y-65318654D01*
X40986619Y-65280559D01*
X40948523Y-65242464D01*
X40910428Y-65166273D01*
X40910428Y-64975797D01*
X40948523Y-64899607D01*
X40986619Y-64861511D01*
X41062809Y-64823416D01*
X41215190Y-64823416D01*
X41291380Y-64861511D01*
X41329476Y-64899607D01*
X41367571Y-64975797D01*
X41805666Y-52199607D02*
X42072333Y-52199607D01*
X42072333Y-52618654D02*
X42072333Y-51818654D01*
X41691380Y-51818654D01*
X41043761Y-51818654D02*
X41196142Y-51818654D01*
X41272333Y-51856750D01*
X41310428Y-51894845D01*
X41386619Y-52009130D01*
X41424714Y-52161511D01*
X41424714Y-52466273D01*
X41386619Y-52542464D01*
X41348523Y-52580559D01*
X41272333Y-52618654D01*
X41119952Y-52618654D01*
X41043761Y-52580559D01*
X41005666Y-52542464D01*
X40967571Y-52466273D01*
X40967571Y-52275797D01*
X41005666Y-52199607D01*
X41043761Y-52161511D01*
X41119952Y-52123416D01*
X41272333Y-52123416D01*
X41348523Y-52161511D01*
X41386619Y-52199607D01*
X41424714Y-52275797D01*
X53013380Y-59819607D02*
X52746714Y-59819607D01*
X52632428Y-60238654D02*
X53013380Y-60238654D01*
X53013380Y-59438654D01*
X52632428Y-59438654D01*
X51946714Y-59438654D02*
X52099095Y-59438654D01*
X52175285Y-59476750D01*
X52213380Y-59514845D01*
X52289571Y-59629130D01*
X52327666Y-59781511D01*
X52327666Y-60086273D01*
X52289571Y-60162464D01*
X52251476Y-60200559D01*
X52175285Y-60238654D01*
X52022904Y-60238654D01*
X51946714Y-60200559D01*
X51908619Y-60162464D01*
X51870523Y-60086273D01*
X51870523Y-59895797D01*
X51908619Y-59819607D01*
X51946714Y-59781511D01*
X52022904Y-59743416D01*
X52175285Y-59743416D01*
X52251476Y-59781511D01*
X52289571Y-59819607D01*
X52327666Y-59895797D01*
X42148523Y-39156750D02*
X42224714Y-39118654D01*
X42339000Y-39118654D01*
X42453285Y-39156750D01*
X42529476Y-39232940D01*
X42567571Y-39309130D01*
X42605666Y-39461511D01*
X42605666Y-39575797D01*
X42567571Y-39728178D01*
X42529476Y-39804369D01*
X42453285Y-39880559D01*
X42339000Y-39918654D01*
X42262809Y-39918654D01*
X42148523Y-39880559D01*
X42110428Y-39842464D01*
X42110428Y-39575797D01*
X42262809Y-39575797D01*
X41767571Y-39918654D02*
X41767571Y-39118654D01*
X41310428Y-39918654D01*
X41310428Y-39118654D01*
X40929476Y-39918654D02*
X40929476Y-39118654D01*
X40739000Y-39118654D01*
X40624714Y-39156750D01*
X40548523Y-39232940D01*
X40510428Y-39309130D01*
X40472333Y-39461511D01*
X40472333Y-39575797D01*
X40510428Y-39728178D01*
X40548523Y-39804369D01*
X40624714Y-39880559D01*
X40739000Y-39918654D01*
X40929476Y-39918654D01*
X53070523Y-41696750D02*
X53146714Y-41658654D01*
X53261000Y-41658654D01*
X53375285Y-41696750D01*
X53451476Y-41772940D01*
X53489571Y-41849130D01*
X53527666Y-42001511D01*
X53527666Y-42115797D01*
X53489571Y-42268178D01*
X53451476Y-42344369D01*
X53375285Y-42420559D01*
X53261000Y-42458654D01*
X53184809Y-42458654D01*
X53070523Y-42420559D01*
X53032428Y-42382464D01*
X53032428Y-42115797D01*
X53184809Y-42115797D01*
X52689571Y-42458654D02*
X52689571Y-41658654D01*
X52232428Y-42458654D01*
X52232428Y-41658654D01*
X51851476Y-42458654D02*
X51851476Y-41658654D01*
X51661000Y-41658654D01*
X51546714Y-41696750D01*
X51470523Y-41772940D01*
X51432428Y-41849130D01*
X51394333Y-42001511D01*
X51394333Y-42115797D01*
X51432428Y-42268178D01*
X51470523Y-42344369D01*
X51546714Y-42420559D01*
X51661000Y-42458654D01*
X51851476Y-42458654D01*
D11*
X67263095Y-44020380D02*
X67263095Y-43020380D01*
X66691666Y-44020380D02*
X67120238Y-43448952D01*
X66691666Y-43020380D02*
X67263095Y-43591809D01*
X65739285Y-44020380D02*
X66310714Y-44020380D01*
X66025000Y-44020380D02*
X66025000Y-43020380D01*
X66120238Y-43163238D01*
X66215476Y-43258476D01*
X66310714Y-43306095D01*
X86238095Y-44020380D02*
X86238095Y-43020380D01*
X85666666Y-44020380D02*
X86095238Y-43448952D01*
X85666666Y-43020380D02*
X86238095Y-43591809D01*
X85285714Y-43115619D02*
X85238095Y-43068000D01*
X85142857Y-43020380D01*
X84904761Y-43020380D01*
X84809523Y-43068000D01*
X84761904Y-43115619D01*
X84714285Y-43210857D01*
X84714285Y-43306095D01*
X84761904Y-43448952D01*
X85333333Y-44020380D01*
X84714285Y-44020380D01*
X105263095Y-43995380D02*
X105263095Y-42995380D01*
X104691666Y-43995380D02*
X105120238Y-43423952D01*
X104691666Y-42995380D02*
X105263095Y-43566809D01*
X104358333Y-42995380D02*
X103739285Y-42995380D01*
X104072619Y-43376333D01*
X103929761Y-43376333D01*
X103834523Y-43423952D01*
X103786904Y-43471571D01*
X103739285Y-43566809D01*
X103739285Y-43804904D01*
X103786904Y-43900142D01*
X103834523Y-43947761D01*
X103929761Y-43995380D01*
X104215476Y-43995380D01*
X104310714Y-43947761D01*
X104358333Y-43900142D01*
X72013095Y-62995380D02*
X72013095Y-61995380D01*
X71441666Y-62995380D02*
X71870238Y-62423952D01*
X71441666Y-61995380D02*
X72013095Y-62566809D01*
X70584523Y-62328714D02*
X70584523Y-62995380D01*
X70822619Y-61947761D02*
X71060714Y-62662047D01*
X70441666Y-62662047D01*
X74388095Y-81995380D02*
X74388095Y-80995380D01*
X73816666Y-81995380D02*
X74245238Y-81423952D01*
X73816666Y-80995380D02*
X74388095Y-81566809D01*
X72911904Y-80995380D02*
X73388095Y-80995380D01*
X73435714Y-81471571D01*
X73388095Y-81423952D01*
X73292857Y-81376333D01*
X73054761Y-81376333D01*
X72959523Y-81423952D01*
X72911904Y-81471571D01*
X72864285Y-81566809D01*
X72864285Y-81804904D01*
X72911904Y-81900142D01*
X72959523Y-81947761D01*
X73054761Y-81995380D01*
X73292857Y-81995380D01*
X73388095Y-81947761D01*
X73435714Y-81900142D01*
X79138095Y-92359380D02*
X79138095Y-91359380D01*
X78566666Y-92359380D02*
X78995238Y-91787952D01*
X78566666Y-91359380D02*
X79138095Y-91930809D01*
X77709523Y-91359380D02*
X77900000Y-91359380D01*
X77995238Y-91407000D01*
X78042857Y-91454619D01*
X78138095Y-91597476D01*
X78185714Y-91787952D01*
X78185714Y-92168904D01*
X78138095Y-92264142D01*
X78090476Y-92311761D01*
X77995238Y-92359380D01*
X77804761Y-92359380D01*
X77709523Y-92311761D01*
X77661904Y-92264142D01*
X77614285Y-92168904D01*
X77614285Y-91930809D01*
X77661904Y-91835571D01*
X77709523Y-91787952D01*
X77804761Y-91740333D01*
X77995238Y-91740333D01*
X78090476Y-91787952D01*
X78138095Y-91835571D01*
X78185714Y-91930809D01*
X79088095Y-120045380D02*
X79088095Y-119045380D01*
X78516666Y-120045380D02*
X78945238Y-119473952D01*
X78516666Y-119045380D02*
X79088095Y-119616809D01*
X78183333Y-119045380D02*
X77516666Y-119045380D01*
X77945238Y-120045380D01*
X95738095Y-63045380D02*
X95738095Y-62045380D01*
X95166666Y-63045380D02*
X95595238Y-62473952D01*
X95166666Y-62045380D02*
X95738095Y-62616809D01*
X94595238Y-62473952D02*
X94690476Y-62426333D01*
X94738095Y-62378714D01*
X94785714Y-62283476D01*
X94785714Y-62235857D01*
X94738095Y-62140619D01*
X94690476Y-62093000D01*
X94595238Y-62045380D01*
X94404761Y-62045380D01*
X94309523Y-62093000D01*
X94261904Y-62140619D01*
X94214285Y-62235857D01*
X94214285Y-62283476D01*
X94261904Y-62378714D01*
X94309523Y-62426333D01*
X94404761Y-62473952D01*
X94595238Y-62473952D01*
X94690476Y-62521571D01*
X94738095Y-62569190D01*
X94785714Y-62664428D01*
X94785714Y-62854904D01*
X94738095Y-62950142D01*
X94690476Y-62997761D01*
X94595238Y-63045380D01*
X94404761Y-63045380D01*
X94309523Y-62997761D01*
X94261904Y-62950142D01*
X94214285Y-62854904D01*
X94214285Y-62664428D01*
X94261904Y-62569190D01*
X94309523Y-62521571D01*
X94404761Y-62473952D01*
X100488095Y-82045380D02*
X100488095Y-81045380D01*
X99916666Y-82045380D02*
X100345238Y-81473952D01*
X99916666Y-81045380D02*
X100488095Y-81616809D01*
X99440476Y-82045380D02*
X99250000Y-82045380D01*
X99154761Y-81997761D01*
X99107142Y-81950142D01*
X99011904Y-81807285D01*
X98964285Y-81616809D01*
X98964285Y-81235857D01*
X99011904Y-81140619D01*
X99059523Y-81093000D01*
X99154761Y-81045380D01*
X99345238Y-81045380D01*
X99440476Y-81093000D01*
X99488095Y-81140619D01*
X99535714Y-81235857D01*
X99535714Y-81473952D01*
X99488095Y-81569190D01*
X99440476Y-81616809D01*
X99345238Y-81664428D01*
X99154761Y-81664428D01*
X99059523Y-81616809D01*
X99011904Y-81569190D01*
X98964285Y-81473952D01*
X110414285Y-101020380D02*
X110414285Y-100020380D01*
X109842857Y-101020380D02*
X110271428Y-100448952D01*
X109842857Y-100020380D02*
X110414285Y-100591809D01*
X108890476Y-101020380D02*
X109461904Y-101020380D01*
X109176190Y-101020380D02*
X109176190Y-100020380D01*
X109271428Y-100163238D01*
X109366666Y-100258476D01*
X109461904Y-100306095D01*
X108271428Y-100020380D02*
X108176190Y-100020380D01*
X108080952Y-100068000D01*
X108033333Y-100115619D01*
X107985714Y-100210857D01*
X107938095Y-100401333D01*
X107938095Y-100639428D01*
X107985714Y-100829904D01*
X108033333Y-100925142D01*
X108080952Y-100972761D01*
X108176190Y-101020380D01*
X108271428Y-101020380D01*
X108366666Y-100972761D01*
X108414285Y-100925142D01*
X108461904Y-100829904D01*
X108509523Y-100639428D01*
X108509523Y-100401333D01*
X108461904Y-100210857D01*
X108414285Y-100115619D01*
X108366666Y-100068000D01*
X108271428Y-100020380D01*
X103339285Y-119995380D02*
X103339285Y-118995380D01*
X102767857Y-119995380D02*
X103196428Y-119423952D01*
X102767857Y-118995380D02*
X103339285Y-119566809D01*
X101815476Y-119995380D02*
X102386904Y-119995380D01*
X102101190Y-119995380D02*
X102101190Y-118995380D01*
X102196428Y-119138238D01*
X102291666Y-119233476D01*
X102386904Y-119281095D01*
X100863095Y-119995380D02*
X101434523Y-119995380D01*
X101148809Y-119995380D02*
X101148809Y-118995380D01*
X101244047Y-119138238D01*
X101339285Y-119233476D01*
X101434523Y-119281095D01*
X115214285Y-62995380D02*
X115214285Y-61995380D01*
X114642857Y-62995380D02*
X115071428Y-62423952D01*
X114642857Y-61995380D02*
X115214285Y-62566809D01*
X113690476Y-62995380D02*
X114261904Y-62995380D01*
X113976190Y-62995380D02*
X113976190Y-61995380D01*
X114071428Y-62138238D01*
X114166666Y-62233476D01*
X114261904Y-62281095D01*
X113309523Y-62090619D02*
X113261904Y-62043000D01*
X113166666Y-61995380D01*
X112928571Y-61995380D01*
X112833333Y-62043000D01*
X112785714Y-62090619D01*
X112738095Y-62185857D01*
X112738095Y-62281095D01*
X112785714Y-62423952D01*
X113357142Y-62995380D01*
X112738095Y-62995380D01*
X119989285Y-81995380D02*
X119989285Y-80995380D01*
X119417857Y-81995380D02*
X119846428Y-81423952D01*
X119417857Y-80995380D02*
X119989285Y-81566809D01*
X118465476Y-81995380D02*
X119036904Y-81995380D01*
X118751190Y-81995380D02*
X118751190Y-80995380D01*
X118846428Y-81138238D01*
X118941666Y-81233476D01*
X119036904Y-81281095D01*
X118132142Y-80995380D02*
X117513095Y-80995380D01*
X117846428Y-81376333D01*
X117703571Y-81376333D01*
X117608333Y-81423952D01*
X117560714Y-81471571D01*
X117513095Y-81566809D01*
X117513095Y-81804904D01*
X117560714Y-81900142D01*
X117608333Y-81947761D01*
X117703571Y-81995380D01*
X117989285Y-81995380D01*
X118084523Y-81947761D01*
X118132142Y-81900142D01*
X129439285Y-101020380D02*
X129439285Y-100020380D01*
X128867857Y-101020380D02*
X129296428Y-100448952D01*
X128867857Y-100020380D02*
X129439285Y-100591809D01*
X127915476Y-101020380D02*
X128486904Y-101020380D01*
X128201190Y-101020380D02*
X128201190Y-100020380D01*
X128296428Y-100163238D01*
X128391666Y-100258476D01*
X128486904Y-100306095D01*
X127058333Y-100353714D02*
X127058333Y-101020380D01*
X127296428Y-99972761D02*
X127534523Y-100687047D01*
X126915476Y-100687047D01*
X127089285Y-120020380D02*
X127089285Y-119020380D01*
X126517857Y-120020380D02*
X126946428Y-119448952D01*
X126517857Y-119020380D02*
X127089285Y-119591809D01*
X125565476Y-120020380D02*
X126136904Y-120020380D01*
X125851190Y-120020380D02*
X125851190Y-119020380D01*
X125946428Y-119163238D01*
X126041666Y-119258476D01*
X126136904Y-119306095D01*
X124660714Y-119020380D02*
X125136904Y-119020380D01*
X125184523Y-119496571D01*
X125136904Y-119448952D01*
X125041666Y-119401333D01*
X124803571Y-119401333D01*
X124708333Y-119448952D01*
X124660714Y-119496571D01*
X124613095Y-119591809D01*
X124613095Y-119829904D01*
X124660714Y-119925142D01*
X124708333Y-119972761D01*
X124803571Y-120020380D01*
X125041666Y-120020380D01*
X125136904Y-119972761D01*
X125184523Y-119925142D01*
X124689285Y-43995380D02*
X124689285Y-42995380D01*
X124117857Y-43995380D02*
X124546428Y-43423952D01*
X124117857Y-42995380D02*
X124689285Y-43566809D01*
X123165476Y-43995380D02*
X123736904Y-43995380D01*
X123451190Y-43995380D02*
X123451190Y-42995380D01*
X123546428Y-43138238D01*
X123641666Y-43233476D01*
X123736904Y-43281095D01*
X122308333Y-42995380D02*
X122498809Y-42995380D01*
X122594047Y-43043000D01*
X122641666Y-43090619D01*
X122736904Y-43233476D01*
X122784523Y-43423952D01*
X122784523Y-43804904D01*
X122736904Y-43900142D01*
X122689285Y-43947761D01*
X122594047Y-43995380D01*
X122403571Y-43995380D01*
X122308333Y-43947761D01*
X122260714Y-43900142D01*
X122213095Y-43804904D01*
X122213095Y-43566809D01*
X122260714Y-43471571D01*
X122308333Y-43423952D01*
X122403571Y-43376333D01*
X122594047Y-43376333D01*
X122689285Y-43423952D01*
X122736904Y-43471571D01*
X122784523Y-43566809D01*
X134214285Y-63020380D02*
X134214285Y-62020380D01*
X133642857Y-63020380D02*
X134071428Y-62448952D01*
X133642857Y-62020380D02*
X134214285Y-62591809D01*
X132690476Y-63020380D02*
X133261904Y-63020380D01*
X132976190Y-63020380D02*
X132976190Y-62020380D01*
X133071428Y-62163238D01*
X133166666Y-62258476D01*
X133261904Y-62306095D01*
X132357142Y-62020380D02*
X131690476Y-62020380D01*
X132119047Y-63020380D01*
X139014285Y-82020380D02*
X139014285Y-81020380D01*
X138442857Y-82020380D02*
X138871428Y-81448952D01*
X138442857Y-81020380D02*
X139014285Y-81591809D01*
X137490476Y-82020380D02*
X138061904Y-82020380D01*
X137776190Y-82020380D02*
X137776190Y-81020380D01*
X137871428Y-81163238D01*
X137966666Y-81258476D01*
X138061904Y-81306095D01*
X136919047Y-81448952D02*
X137014285Y-81401333D01*
X137061904Y-81353714D01*
X137109523Y-81258476D01*
X137109523Y-81210857D01*
X137061904Y-81115619D01*
X137014285Y-81068000D01*
X136919047Y-81020380D01*
X136728571Y-81020380D01*
X136633333Y-81068000D01*
X136585714Y-81115619D01*
X136538095Y-81210857D01*
X136538095Y-81258476D01*
X136585714Y-81353714D01*
X136633333Y-81401333D01*
X136728571Y-81448952D01*
X136919047Y-81448952D01*
X137014285Y-81496571D01*
X137061904Y-81544190D01*
X137109523Y-81639428D01*
X137109523Y-81829904D01*
X137061904Y-81925142D01*
X137014285Y-81972761D01*
X136919047Y-82020380D01*
X136728571Y-82020380D01*
X136633333Y-81972761D01*
X136585714Y-81925142D01*
X136538095Y-81829904D01*
X136538095Y-81639428D01*
X136585714Y-81544190D01*
X136633333Y-81496571D01*
X136728571Y-81448952D01*
X148439285Y-101045380D02*
X148439285Y-100045380D01*
X147867857Y-101045380D02*
X148296428Y-100473952D01*
X147867857Y-100045380D02*
X148439285Y-100616809D01*
X146915476Y-101045380D02*
X147486904Y-101045380D01*
X147201190Y-101045380D02*
X147201190Y-100045380D01*
X147296428Y-100188238D01*
X147391666Y-100283476D01*
X147486904Y-100331095D01*
X146439285Y-101045380D02*
X146248809Y-101045380D01*
X146153571Y-100997761D01*
X146105952Y-100950142D01*
X146010714Y-100807285D01*
X145963095Y-100616809D01*
X145963095Y-100235857D01*
X146010714Y-100140619D01*
X146058333Y-100093000D01*
X146153571Y-100045380D01*
X146344047Y-100045380D01*
X146439285Y-100093000D01*
X146486904Y-100140619D01*
X146534523Y-100235857D01*
X146534523Y-100473952D01*
X146486904Y-100569190D01*
X146439285Y-100616809D01*
X146344047Y-100664428D01*
X146153571Y-100664428D01*
X146058333Y-100616809D01*
X146010714Y-100569190D01*
X145963095Y-100473952D01*
X160339285Y-120020380D02*
X160339285Y-119020380D01*
X159767857Y-120020380D02*
X160196428Y-119448952D01*
X159767857Y-119020380D02*
X160339285Y-119591809D01*
X159386904Y-119115619D02*
X159339285Y-119068000D01*
X159244047Y-119020380D01*
X159005952Y-119020380D01*
X158910714Y-119068000D01*
X158863095Y-119115619D01*
X158815476Y-119210857D01*
X158815476Y-119306095D01*
X158863095Y-119448952D01*
X159434523Y-120020380D01*
X158815476Y-120020380D01*
X158196428Y-119020380D02*
X158101190Y-119020380D01*
X158005952Y-119068000D01*
X157958333Y-119115619D01*
X157910714Y-119210857D01*
X157863095Y-119401333D01*
X157863095Y-119639428D01*
X157910714Y-119829904D01*
X157958333Y-119925142D01*
X158005952Y-119972761D01*
X158101190Y-120020380D01*
X158196428Y-120020380D01*
X158291666Y-119972761D01*
X158339285Y-119925142D01*
X158386904Y-119829904D01*
X158434523Y-119639428D01*
X158434523Y-119401333D01*
X158386904Y-119210857D01*
X158339285Y-119115619D01*
X158291666Y-119068000D01*
X158196428Y-119020380D01*
X143714285Y-44020380D02*
X143714285Y-43020380D01*
X143142857Y-44020380D02*
X143571428Y-43448952D01*
X143142857Y-43020380D02*
X143714285Y-43591809D01*
X142761904Y-43115619D02*
X142714285Y-43068000D01*
X142619047Y-43020380D01*
X142380952Y-43020380D01*
X142285714Y-43068000D01*
X142238095Y-43115619D01*
X142190476Y-43210857D01*
X142190476Y-43306095D01*
X142238095Y-43448952D01*
X142809523Y-44020380D01*
X142190476Y-44020380D01*
X141238095Y-44020380D02*
X141809523Y-44020380D01*
X141523809Y-44020380D02*
X141523809Y-43020380D01*
X141619047Y-43163238D01*
X141714285Y-43258476D01*
X141809523Y-43306095D01*
X153314285Y-63020380D02*
X153314285Y-62020380D01*
X152742857Y-63020380D02*
X153171428Y-62448952D01*
X152742857Y-62020380D02*
X153314285Y-62591809D01*
X152361904Y-62115619D02*
X152314285Y-62068000D01*
X152219047Y-62020380D01*
X151980952Y-62020380D01*
X151885714Y-62068000D01*
X151838095Y-62115619D01*
X151790476Y-62210857D01*
X151790476Y-62306095D01*
X151838095Y-62448952D01*
X152409523Y-63020380D01*
X151790476Y-63020380D01*
X151409523Y-62115619D02*
X151361904Y-62068000D01*
X151266666Y-62020380D01*
X151028571Y-62020380D01*
X150933333Y-62068000D01*
X150885714Y-62115619D01*
X150838095Y-62210857D01*
X150838095Y-62306095D01*
X150885714Y-62448952D01*
X151457142Y-63020380D01*
X150838095Y-63020380D01*
X158014285Y-81970380D02*
X158014285Y-80970380D01*
X157442857Y-81970380D02*
X157871428Y-81398952D01*
X157442857Y-80970380D02*
X158014285Y-81541809D01*
X157061904Y-81065619D02*
X157014285Y-81018000D01*
X156919047Y-80970380D01*
X156680952Y-80970380D01*
X156585714Y-81018000D01*
X156538095Y-81065619D01*
X156490476Y-81160857D01*
X156490476Y-81256095D01*
X156538095Y-81398952D01*
X157109523Y-81970380D01*
X156490476Y-81970380D01*
X156157142Y-80970380D02*
X155538095Y-80970380D01*
X155871428Y-81351333D01*
X155728571Y-81351333D01*
X155633333Y-81398952D01*
X155585714Y-81446571D01*
X155538095Y-81541809D01*
X155538095Y-81779904D01*
X155585714Y-81875142D01*
X155633333Y-81922761D01*
X155728571Y-81970380D01*
X156014285Y-81970380D01*
X156109523Y-81922761D01*
X156157142Y-81875142D01*
X167439285Y-101045380D02*
X167439285Y-100045380D01*
X166867857Y-101045380D02*
X167296428Y-100473952D01*
X166867857Y-100045380D02*
X167439285Y-100616809D01*
X166486904Y-100140619D02*
X166439285Y-100093000D01*
X166344047Y-100045380D01*
X166105952Y-100045380D01*
X166010714Y-100093000D01*
X165963095Y-100140619D01*
X165915476Y-100235857D01*
X165915476Y-100331095D01*
X165963095Y-100473952D01*
X166534523Y-101045380D01*
X165915476Y-101045380D01*
X165058333Y-100378714D02*
X165058333Y-101045380D01*
X165296428Y-99997761D02*
X165534523Y-100712047D01*
X164915476Y-100712047D01*
X162689285Y-43995380D02*
X162689285Y-42995380D01*
X162117857Y-43995380D02*
X162546428Y-43423952D01*
X162117857Y-42995380D02*
X162689285Y-43566809D01*
X161736904Y-43090619D02*
X161689285Y-43043000D01*
X161594047Y-42995380D01*
X161355952Y-42995380D01*
X161260714Y-43043000D01*
X161213095Y-43090619D01*
X161165476Y-43185857D01*
X161165476Y-43281095D01*
X161213095Y-43423952D01*
X161784523Y-43995380D01*
X161165476Y-43995380D01*
X160308333Y-42995380D02*
X160498809Y-42995380D01*
X160594047Y-43043000D01*
X160641666Y-43090619D01*
X160736904Y-43233476D01*
X160784523Y-43423952D01*
X160784523Y-43804904D01*
X160736904Y-43900142D01*
X160689285Y-43947761D01*
X160594047Y-43995380D01*
X160403571Y-43995380D01*
X160308333Y-43947761D01*
X160260714Y-43900142D01*
X160213095Y-43804904D01*
X160213095Y-43566809D01*
X160260714Y-43471571D01*
X160308333Y-43423952D01*
X160403571Y-43376333D01*
X160594047Y-43376333D01*
X160689285Y-43423952D01*
X160736904Y-43471571D01*
X160784523Y-43566809D01*
X172214285Y-63020380D02*
X172214285Y-62020380D01*
X171642857Y-63020380D02*
X172071428Y-62448952D01*
X171642857Y-62020380D02*
X172214285Y-62591809D01*
X171261904Y-62115619D02*
X171214285Y-62068000D01*
X171119047Y-62020380D01*
X170880952Y-62020380D01*
X170785714Y-62068000D01*
X170738095Y-62115619D01*
X170690476Y-62210857D01*
X170690476Y-62306095D01*
X170738095Y-62448952D01*
X171309523Y-63020380D01*
X170690476Y-63020380D01*
X170357142Y-62020380D02*
X169690476Y-62020380D01*
X170119047Y-63020380D01*
X176964285Y-82020380D02*
X176964285Y-81020380D01*
X176392857Y-82020380D02*
X176821428Y-81448952D01*
X176392857Y-81020380D02*
X176964285Y-81591809D01*
X176011904Y-81115619D02*
X175964285Y-81068000D01*
X175869047Y-81020380D01*
X175630952Y-81020380D01*
X175535714Y-81068000D01*
X175488095Y-81115619D01*
X175440476Y-81210857D01*
X175440476Y-81306095D01*
X175488095Y-81448952D01*
X176059523Y-82020380D01*
X175440476Y-82020380D01*
X174869047Y-81448952D02*
X174964285Y-81401333D01*
X175011904Y-81353714D01*
X175059523Y-81258476D01*
X175059523Y-81210857D01*
X175011904Y-81115619D01*
X174964285Y-81068000D01*
X174869047Y-81020380D01*
X174678571Y-81020380D01*
X174583333Y-81068000D01*
X174535714Y-81115619D01*
X174488095Y-81210857D01*
X174488095Y-81258476D01*
X174535714Y-81353714D01*
X174583333Y-81401333D01*
X174678571Y-81448952D01*
X174869047Y-81448952D01*
X174964285Y-81496571D01*
X175011904Y-81544190D01*
X175059523Y-81639428D01*
X175059523Y-81829904D01*
X175011904Y-81925142D01*
X174964285Y-81972761D01*
X174869047Y-82020380D01*
X174678571Y-82020380D01*
X174583333Y-81972761D01*
X174535714Y-81925142D01*
X174488095Y-81829904D01*
X174488095Y-81639428D01*
X174535714Y-81544190D01*
X174583333Y-81496571D01*
X174678571Y-81448952D01*
X186439285Y-101045380D02*
X186439285Y-100045380D01*
X185867857Y-101045380D02*
X186296428Y-100473952D01*
X185867857Y-100045380D02*
X186439285Y-100616809D01*
X185486904Y-100140619D02*
X185439285Y-100093000D01*
X185344047Y-100045380D01*
X185105952Y-100045380D01*
X185010714Y-100093000D01*
X184963095Y-100140619D01*
X184915476Y-100235857D01*
X184915476Y-100331095D01*
X184963095Y-100473952D01*
X185534523Y-101045380D01*
X184915476Y-101045380D01*
X184439285Y-101045380D02*
X184248809Y-101045380D01*
X184153571Y-100997761D01*
X184105952Y-100950142D01*
X184010714Y-100807285D01*
X183963095Y-100616809D01*
X183963095Y-100235857D01*
X184010714Y-100140619D01*
X184058333Y-100093000D01*
X184153571Y-100045380D01*
X184344047Y-100045380D01*
X184439285Y-100093000D01*
X184486904Y-100140619D01*
X184534523Y-100235857D01*
X184534523Y-100473952D01*
X184486904Y-100569190D01*
X184439285Y-100616809D01*
X184344047Y-100664428D01*
X184153571Y-100664428D01*
X184058333Y-100616809D01*
X184010714Y-100569190D01*
X183963095Y-100473952D01*
X181714285Y-44020380D02*
X181714285Y-43020380D01*
X181142857Y-44020380D02*
X181571428Y-43448952D01*
X181142857Y-43020380D02*
X181714285Y-43591809D01*
X180809523Y-43020380D02*
X180190476Y-43020380D01*
X180523809Y-43401333D01*
X180380952Y-43401333D01*
X180285714Y-43448952D01*
X180238095Y-43496571D01*
X180190476Y-43591809D01*
X180190476Y-43829904D01*
X180238095Y-43925142D01*
X180285714Y-43972761D01*
X180380952Y-44020380D01*
X180666666Y-44020380D01*
X180761904Y-43972761D01*
X180809523Y-43925142D01*
X179238095Y-44020380D02*
X179809523Y-44020380D01*
X179523809Y-44020380D02*
X179523809Y-43020380D01*
X179619047Y-43163238D01*
X179714285Y-43258476D01*
X179809523Y-43306095D01*
X191214285Y-63070380D02*
X191214285Y-62070380D01*
X190642857Y-63070380D02*
X191071428Y-62498952D01*
X190642857Y-62070380D02*
X191214285Y-62641809D01*
X190309523Y-62070380D02*
X189690476Y-62070380D01*
X190023809Y-62451333D01*
X189880952Y-62451333D01*
X189785714Y-62498952D01*
X189738095Y-62546571D01*
X189690476Y-62641809D01*
X189690476Y-62879904D01*
X189738095Y-62975142D01*
X189785714Y-63022761D01*
X189880952Y-63070380D01*
X190166666Y-63070380D01*
X190261904Y-63022761D01*
X190309523Y-62975142D01*
X189309523Y-62165619D02*
X189261904Y-62118000D01*
X189166666Y-62070380D01*
X188928571Y-62070380D01*
X188833333Y-62118000D01*
X188785714Y-62165619D01*
X188738095Y-62260857D01*
X188738095Y-62356095D01*
X188785714Y-62498952D01*
X189357142Y-63070380D01*
X188738095Y-63070380D01*
X195964285Y-81995380D02*
X195964285Y-80995380D01*
X195392857Y-81995380D02*
X195821428Y-81423952D01*
X195392857Y-80995380D02*
X195964285Y-81566809D01*
X195059523Y-80995380D02*
X194440476Y-80995380D01*
X194773809Y-81376333D01*
X194630952Y-81376333D01*
X194535714Y-81423952D01*
X194488095Y-81471571D01*
X194440476Y-81566809D01*
X194440476Y-81804904D01*
X194488095Y-81900142D01*
X194535714Y-81947761D01*
X194630952Y-81995380D01*
X194916666Y-81995380D01*
X195011904Y-81947761D01*
X195059523Y-81900142D01*
X194107142Y-80995380D02*
X193488095Y-80995380D01*
X193821428Y-81376333D01*
X193678571Y-81376333D01*
X193583333Y-81423952D01*
X193535714Y-81471571D01*
X193488095Y-81566809D01*
X193488095Y-81804904D01*
X193535714Y-81900142D01*
X193583333Y-81947761D01*
X193678571Y-81995380D01*
X193964285Y-81995380D01*
X194059523Y-81947761D01*
X194107142Y-81900142D01*
X205489285Y-100995380D02*
X205489285Y-99995380D01*
X204917857Y-100995380D02*
X205346428Y-100423952D01*
X204917857Y-99995380D02*
X205489285Y-100566809D01*
X204584523Y-99995380D02*
X203965476Y-99995380D01*
X204298809Y-100376333D01*
X204155952Y-100376333D01*
X204060714Y-100423952D01*
X204013095Y-100471571D01*
X203965476Y-100566809D01*
X203965476Y-100804904D01*
X204013095Y-100900142D01*
X204060714Y-100947761D01*
X204155952Y-100995380D01*
X204441666Y-100995380D01*
X204536904Y-100947761D01*
X204584523Y-100900142D01*
X203108333Y-100328714D02*
X203108333Y-100995380D01*
X203346428Y-99947761D02*
X203584523Y-100662047D01*
X202965476Y-100662047D01*
X180361825Y-123367183D02*
X180019804Y-124306876D01*
X180898792Y-123562623D02*
X180300626Y-123953011D01*
X180556772Y-124502316D02*
X180215245Y-123769909D01*
X180947323Y-124543115D02*
X180975784Y-124604149D01*
X181048992Y-124681469D01*
X181272728Y-124762903D01*
X181378509Y-124750729D01*
X181439543Y-124722268D01*
X181516864Y-124649060D01*
X181549437Y-124559566D01*
X181553550Y-124409037D01*
X181212023Y-123676630D01*
X181793737Y-123888357D01*
X182301915Y-125137496D02*
X181854442Y-124974630D01*
X181972562Y-124510870D01*
X182001022Y-124571904D01*
X182074230Y-124649225D01*
X182297967Y-124730658D01*
X182403748Y-124718484D01*
X182464782Y-124690024D01*
X182542102Y-124616816D01*
X182623536Y-124393079D01*
X182611362Y-124287298D01*
X182582901Y-124226264D01*
X182509693Y-124148944D01*
X182285957Y-124067510D01*
X182180176Y-124079684D01*
X182119142Y-124108145D01*
X195811825Y-136442183D02*
X195469804Y-137381876D01*
X196348792Y-136637623D02*
X195750626Y-137028011D01*
X196006772Y-137577316D02*
X195665245Y-136844909D01*
X196320003Y-137691323D02*
X196901717Y-137903049D01*
X196718780Y-137431065D01*
X196853021Y-137479925D01*
X196958803Y-137467751D01*
X197019836Y-137439290D01*
X197097157Y-137366082D01*
X197178590Y-137142346D01*
X197166417Y-137036565D01*
X197137956Y-136975531D01*
X197064748Y-136898210D01*
X196796264Y-136800490D01*
X196690483Y-136812664D01*
X196629449Y-136841125D01*
X197483431Y-138114776D02*
X197572926Y-138147350D01*
X197678707Y-138135176D01*
X197739741Y-138106715D01*
X197817062Y-138033507D01*
X197926956Y-137870805D01*
X198008389Y-137647068D01*
X198028789Y-137451793D01*
X198016615Y-137346011D01*
X197988154Y-137284978D01*
X197914946Y-137207657D01*
X197825452Y-137175084D01*
X197719670Y-137187258D01*
X197658636Y-137215718D01*
X197581316Y-137288926D01*
X197471422Y-137451628D01*
X197389989Y-137675365D01*
X197369589Y-137870640D01*
X197381763Y-137976422D01*
X197410224Y-138037456D01*
X197483431Y-138114776D01*
D12*
X83514047Y-57032380D02*
X83574523Y-57213809D01*
X83574523Y-57516190D01*
X83514047Y-57637142D01*
X83453571Y-57697619D01*
X83332619Y-57758095D01*
X83211666Y-57758095D01*
X83090714Y-57697619D01*
X83030238Y-57637142D01*
X82969761Y-57516190D01*
X82909285Y-57274285D01*
X82848809Y-57153333D01*
X82788333Y-57092857D01*
X82667380Y-57032380D01*
X82546428Y-57032380D01*
X82425476Y-57092857D01*
X82365000Y-57153333D01*
X82304523Y-57274285D01*
X82304523Y-57576666D01*
X82365000Y-57758095D01*
X83574523Y-58967619D02*
X83574523Y-58241904D01*
X83574523Y-58604761D02*
X82304523Y-58604761D01*
X82485952Y-58483809D01*
X82606904Y-58362857D01*
X82667380Y-58241904D01*
D13*
X38110000Y-66226750D02*
X38110000Y-35746750D01*
X53350000Y-35746750D02*
X53350000Y-38286750D01*
X55890000Y-66226750D02*
X38110000Y-66226750D01*
X38110000Y-33206750D02*
X55890000Y-33206750D01*
X55890000Y-35746750D02*
X55890000Y-66226750D01*
X55890000Y-33206750D02*
X55890000Y-35746750D01*
X38110000Y-35746750D02*
X38110000Y-33206750D01*
X53350000Y-35746750D02*
X55890000Y-35746750D01*
X53350000Y-38286750D02*
X55890000Y-38286750D01*
G36*
X42568432Y-41726110D02*
G01*
X42068432Y-41726110D01*
X42068432Y-41626110D01*
X42568432Y-41626110D01*
X42568432Y-41726110D01*
G37*
D10*
X42568432Y-41726110D02*
X42068432Y-41726110D01*
X42068432Y-41626110D01*
X42568432Y-41626110D01*
X42568432Y-41726110D01*
G36*
X42168432Y-41926110D02*
G01*
X42068432Y-41926110D01*
X42068432Y-41626110D01*
X42168432Y-41626110D01*
X42168432Y-41926110D01*
G37*
X42168432Y-41926110D02*
X42068432Y-41926110D01*
X42068432Y-41626110D01*
X42168432Y-41626110D01*
X42168432Y-41926110D01*
G36*
X42568432Y-42426110D02*
G01*
X42468432Y-42426110D01*
X42468432Y-41626110D01*
X42568432Y-41626110D01*
X42568432Y-42426110D01*
G37*
X42568432Y-42426110D02*
X42468432Y-42426110D01*
X42468432Y-41626110D01*
X42568432Y-41626110D01*
X42568432Y-42426110D01*
G36*
X42368432Y-42126110D02*
G01*
X42268432Y-42126110D01*
X42268432Y-42026110D01*
X42368432Y-42026110D01*
X42368432Y-42126110D01*
G37*
X42368432Y-42126110D02*
X42268432Y-42126110D01*
X42268432Y-42026110D01*
X42368432Y-42026110D01*
X42368432Y-42126110D01*
G36*
X42168432Y-42426110D02*
G01*
X42068432Y-42426110D01*
X42068432Y-42226110D01*
X42168432Y-42226110D01*
X42168432Y-42426110D01*
G37*
X42168432Y-42426110D02*
X42068432Y-42426110D01*
X42068432Y-42226110D01*
X42168432Y-42226110D01*
X42168432Y-42426110D01*
X190950000Y-30727500D02*
X190950000Y-42827500D01*
X190950000Y-30727500D02*
X197050000Y-30727500D01*
X197050000Y-30727500D02*
X197050000Y-42827500D01*
X190950000Y-42827500D02*
X197050000Y-42827500D01*
D14*
X86000000Y-61300000D02*
X86000000Y-55300000D01*
D11*
X80900000Y-52200000D02*
X80900000Y-52200000D01*
D14*
X80000000Y-61300000D02*
X86000000Y-61300000D01*
D11*
X80700000Y-52200000D02*
X80700000Y-52200000D01*
D14*
X80000000Y-55300000D02*
X80000000Y-61300000D01*
X86000000Y-55300000D02*
X80000000Y-55300000D01*
D11*
X80900000Y-52200000D02*
G75*
G03*
X80700000Y-52200000I-100000J0D01*
G01*
X80700000Y-52200000D02*
G75*
G03*
X80900000Y-52200000I100000J0D01*
G01*
D15*
X54620000Y-37016750D03*
D16*
X54620000Y-39556750D03*
X54620000Y-42096750D03*
X54620000Y-44636750D03*
X54620000Y-47176750D03*
X54620000Y-49716750D03*
X54620000Y-52256750D03*
X54620000Y-54796750D03*
X54620000Y-57336750D03*
X54620000Y-59876750D03*
X54620000Y-62416750D03*
X54620000Y-64956750D03*
X39380000Y-64956750D03*
X39380000Y-62416750D03*
X39380000Y-59876750D03*
X39380000Y-57336750D03*
X39380000Y-54796750D03*
X39380000Y-52256750D03*
X39380000Y-49716750D03*
X39380000Y-47176750D03*
X39380000Y-44636750D03*
X39380000Y-42096750D03*
X39380000Y-39556750D03*
X39380000Y-37016750D03*
%LPC*%
D17*
X54620000Y-37016750D03*
D18*
X54620000Y-39556750D03*
X54620000Y-42096750D03*
X54620000Y-44636750D03*
X54620000Y-47176750D03*
X54620000Y-49716750D03*
X54620000Y-52256750D03*
X54620000Y-54796750D03*
X54620000Y-57336750D03*
X54620000Y-59876750D03*
X54620000Y-62416750D03*
X54620000Y-64956750D03*
X39380000Y-64956750D03*
X39380000Y-62416750D03*
X39380000Y-59876750D03*
X39380000Y-57336750D03*
X39380000Y-54796750D03*
X39380000Y-52256750D03*
X39380000Y-49716750D03*
X39380000Y-47176750D03*
X39380000Y-44636750D03*
X39380000Y-42096750D03*
X39380000Y-39556750D03*
X39380000Y-37016750D03*
D19*
X76000000Y-41475000D03*
D20*
X76000000Y-33675000D03*
D19*
X95000000Y-41325000D03*
D20*
X95000000Y-33525000D03*
D19*
X114000000Y-41400000D03*
D20*
X114000000Y-33600000D03*
D21*
X75100000Y-48800000D03*
D20*
X67300000Y-48800000D03*
D21*
X77500000Y-67800000D03*
D20*
X69700000Y-67800000D03*
D21*
X82250000Y-86825000D03*
D20*
X74450000Y-86825000D03*
D21*
X82425000Y-105850000D03*
D20*
X74625000Y-105850000D03*
D21*
X103725000Y-67850000D03*
D20*
X95925000Y-67850000D03*
D21*
X106025000Y-105775000D03*
D20*
X98225000Y-105775000D03*
D21*
X118025000Y-48825000D03*
D20*
X110225000Y-48825000D03*
D21*
X122650000Y-67800000D03*
D20*
X114850000Y-67800000D03*
D21*
X132250000Y-86825000D03*
D20*
X124450000Y-86825000D03*
D21*
X129850000Y-105800000D03*
D20*
X122050000Y-105800000D03*
D19*
X133000000Y-41400000D03*
D20*
X133000000Y-33600000D03*
D21*
X136775000Y-48800000D03*
D20*
X128975000Y-48800000D03*
D21*
X141625000Y-67825000D03*
D20*
X133825000Y-67825000D03*
D21*
X151200000Y-86850000D03*
D20*
X143400000Y-86850000D03*
D21*
X163000000Y-105800000D03*
D20*
X155200000Y-105800000D03*
D19*
X151500000Y-41400000D03*
D20*
X151500000Y-33600000D03*
D21*
X156125000Y-48825000D03*
D20*
X148325000Y-48825000D03*
D21*
X160675000Y-67775000D03*
D20*
X152875000Y-67775000D03*
D21*
X170175000Y-86850000D03*
D20*
X162375000Y-86850000D03*
D19*
X171000000Y-41400000D03*
D20*
X171000000Y-33600000D03*
D21*
X174900000Y-49000000D03*
D20*
X167100000Y-49000000D03*
D21*
X179600000Y-67825000D03*
D20*
X171800000Y-67825000D03*
D21*
X189125000Y-86850000D03*
D20*
X181325000Y-86850000D03*
D22*
X205214801Y-125708879D03*
D20*
X197885199Y-123041121D03*
D21*
X185900000Y-49000000D03*
D20*
X178100000Y-49000000D03*
D19*
X180280000Y-62400000D03*
D20*
X180280000Y-54600000D03*
D21*
X195900000Y-67825000D03*
D20*
X188100000Y-67825000D03*
D23*
X63270000Y-35730000D03*
D24*
X69045000Y-34460000D03*
D23*
X82245000Y-35730000D03*
D24*
X88020000Y-34460000D03*
D23*
X101270000Y-35705000D03*
D24*
X107045000Y-34435000D03*
D23*
X68020000Y-54705000D03*
D24*
X73795000Y-53435000D03*
D23*
X70395000Y-73705000D03*
D24*
X76170000Y-72435000D03*
D25*
X81655000Y-99745000D03*
D26*
X75880000Y-101015000D03*
D23*
X75095000Y-111755000D03*
D24*
X80870000Y-110485000D03*
D23*
X91745000Y-54755000D03*
D24*
X97520000Y-53485000D03*
D23*
X96495000Y-73755000D03*
D24*
X102270000Y-72485000D03*
D23*
X105945000Y-92730000D03*
D24*
X111720000Y-91460000D03*
D23*
X98870000Y-111705000D03*
D24*
X104645000Y-110435000D03*
D23*
X110745000Y-54705000D03*
D24*
X116520000Y-53435000D03*
D23*
X115520000Y-73705000D03*
D24*
X121295000Y-72435000D03*
D23*
X124970000Y-92730000D03*
D24*
X130745000Y-91460000D03*
D23*
X122620000Y-111730000D03*
D24*
X128395000Y-110460000D03*
D23*
X120220000Y-35705000D03*
D24*
X125995000Y-34435000D03*
D23*
X129745000Y-54730000D03*
D24*
X135520000Y-53460000D03*
D23*
X134545000Y-73730000D03*
D24*
X140320000Y-72460000D03*
D23*
X143970000Y-92755000D03*
D24*
X149745000Y-91485000D03*
D23*
X155870000Y-111730000D03*
D24*
X161645000Y-110460000D03*
D23*
X139245000Y-35730000D03*
D24*
X145020000Y-34460000D03*
D23*
X148845000Y-54730000D03*
D24*
X154620000Y-53460000D03*
D23*
X153545000Y-73680000D03*
D24*
X159320000Y-72410000D03*
D23*
X162970000Y-92755000D03*
D24*
X168745000Y-91485000D03*
D23*
X158220000Y-35705000D03*
D24*
X163995000Y-34435000D03*
D23*
X167745000Y-54730000D03*
D24*
X173520000Y-53460000D03*
D23*
X172495000Y-73730000D03*
D24*
X178270000Y-72460000D03*
D23*
X181970000Y-92755000D03*
D24*
X187745000Y-91485000D03*
D23*
X177245000Y-35730000D03*
D24*
X183020000Y-34460000D03*
D23*
X186745000Y-54780000D03*
D24*
X192520000Y-53510000D03*
D23*
X191495000Y-73705000D03*
D24*
X197270000Y-72435000D03*
D23*
X201020000Y-92705000D03*
D24*
X206795000Y-91435000D03*
D27*
X180970211Y-115729006D03*
D28*
X186831302Y-116510763D03*
D27*
X196420211Y-128804006D03*
D28*
X202281302Y-129585763D03*
D21*
X113225000Y-86825000D03*
D20*
X105425000Y-86825000D03*
D21*
X98775000Y-48850000D03*
D20*
X90975000Y-48850000D03*
D21*
X200900000Y-86725000D03*
D20*
X193100000Y-86725000D03*
D22*
X189764801Y-112633879D03*
D20*
X182435199Y-109966121D03*
D19*
X60000000Y-80400000D03*
D20*
X60000000Y-72600000D03*
D29*
X53340000Y-83102500D03*
D30*
X53340000Y-78402500D03*
X53340000Y-73702500D03*
X40640000Y-80942500D03*
X40640000Y-75862500D03*
D19*
X60000000Y-98900000D03*
D20*
X60000000Y-91100000D03*
D29*
X53286250Y-100882500D03*
D30*
X53286250Y-96182500D03*
X53286250Y-91482500D03*
X40586250Y-98722500D03*
X40586250Y-93642500D03*
D31*
X194000000Y-32327500D03*
X194000000Y-39327500D03*
D32*
X196300000Y-42027500D03*
X191700000Y-40927500D03*
X191700000Y-36927500D03*
X191700000Y-33927500D03*
D33*
X80750000Y-53750000D03*
X80750000Y-62850000D03*
X85250000Y-53750000D03*
X85250000Y-62850000D03*
M02*
