M48
; DRILL file {KiCad (6.0.10-0)} date Sunday, December 25, 2022 at 07:17:08 PM
; FORMAT={-:-/ absolute / metric / decimal}
; #@! TF.CreationDate,2022-12-25T19:17:08-08:00
; #@! TF.GenerationSoftware,Kicad,Pcbnew,(6.0.10-0)
; #@! TF.FileFunction,Plated,1,2,PTH
FMAT,2
METRIC
; #@! TA.AperFunction,Plated,PTH,ViaDrill
T1C0.400
; #@! TA.AperFunction,Plated,PTH,ComponentDrill
T2C0.700
; #@! TA.AperFunction,Plated,PTH,ComponentDrill
T3C0.900
; #@! TA.AperFunction,Plated,PTH,ComponentDrill
T4C1.092
; #@! TA.AperFunction,Plated,PTH,ComponentDrill
T5C1.500
%
G90
G05
T1
X188.75Y-30.5
T2
X29.955Y-120.874
X31.68Y-43.91
X36.48Y-62.93
X37.285Y-118.206
X39.48Y-43.91
X44.28Y-62.93
X45.605Y-107.704
X45.98Y-81.94
X51.02Y-43.91
X52.935Y-105.036
X53.78Y-81.94
X54.75Y-28.6
X54.75Y-36.4
X55.45Y-62.93
X58.82Y-43.91
X63.25Y-62.93
X65.02Y-81.96
X69.87Y-43.89
X71.885Y-100.9
X72.82Y-81.96
X73.75Y-28.6
X73.75Y-36.4
X74.8Y-62.9
X77.67Y-43.89
X79.685Y-100.9
X82.6Y-62.9
X83.95Y-81.93
X88.95Y-43.94
X91.75Y-81.93
X92.5Y-28.6
X92.5Y-36.4
X93.57Y-62.94
X96.75Y-43.94
X101.37Y-62.94
X102.98Y-81.88
X107.96Y-43.94
X110.78Y-81.88
X111.75Y-28.6
X111.75Y-36.4
X112.53Y-62.91
X115.76Y-43.94
X120.33Y-62.91
X121.94Y-81.93
X122.2Y-100.91
X126.74Y-43.95
X129.74Y-81.93
X130.0Y-100.91
X130.5Y-28.6
X130.5Y-36.4
X131.58Y-62.91
X134.54Y-43.95
X139.38Y-62.91
X141.02Y-81.91
X143.41Y-100.9
X145.6Y-43.97
X148.82Y-81.91
X149.75Y-28.6
X149.75Y-36.4
X150.46Y-62.92
X151.21Y-100.9
X153.4Y-43.97
X158.26Y-62.92
X162.36Y-81.93
X164.73Y-100.69
X165.03Y-43.94
X168.5Y-28.6
X168.5Y-36.4
X170.16Y-81.93
X172.53Y-100.69
X172.83Y-43.94
X173.5Y-28.6
X173.5Y-36.4
X176.56Y-62.93
X183.67Y-81.68
X183.73Y-100.71
X183.83Y-43.93
X184.36Y-62.93
X191.47Y-81.68
X191.53Y-100.71
X191.63Y-43.93
X196.75Y-67.6
X196.75Y-75.4
X202.18Y-81.91
X202.66Y-100.67
X209.98Y-81.91
X210.46Y-100.67
T4
X199.15Y-33.115
X199.15Y-35.655
X199.15Y-38.195
X199.15Y-40.735
X199.15Y-43.275
X199.15Y-45.815
X199.15Y-48.355
X199.15Y-50.895
X199.15Y-53.435
X199.15Y-55.975
X199.15Y-58.515
X199.15Y-61.055
X214.39Y-33.115
X214.39Y-35.655
X214.39Y-38.195
X214.39Y-40.735
X214.39Y-43.275
X214.39Y-45.815
X214.39Y-48.355
X214.39Y-50.895
X214.39Y-53.435
X214.39Y-55.975
X214.39Y-58.515
X214.39Y-61.055
T3
X28.39Y-36.91G85X28.39Y-37.31
G05
X32.99Y-28.81G85X32.99Y-29.21
G05
X32.99Y-31.81G85X32.99Y-32.21
G05
X32.99Y-35.81G85X32.99Y-36.21
G05
T5
X31.318Y-127.711G85X31.876Y-127.55
G05
X33.009Y-48.861G85X31.801Y-50.759
G05
X33.667Y-132.379G85X35.864Y-132.866
G05
X37.769Y-67.871G85X36.561Y-69.769
G05
X38.2Y-48.251G85X38.16Y-48.829
G05
X42.529Y-29.871G85X41.321Y-31.769
G05
X42.96Y-67.261G85X42.92Y-67.839
G05
X47.299Y-86.881G85X46.091Y-88.779
G05
X46.798Y-114.591G85X47.356Y-114.43
G05
X47.72Y-29.261G85X47.68Y-29.839
G05
X49.147Y-119.259G85X51.344Y-119.746
G05
X52.029Y-48.861G85X50.821Y-50.759
G05
X52.49Y-86.271G85X52.45Y-86.849
G05
X56.749Y-67.881G85X55.541Y-69.779
G05
X57.22Y-48.251G85X57.18Y-48.829
G05
X61.529Y-29.871G85X60.321Y-31.769
G05
X61.94Y-67.271G85X61.9Y-67.849
G05
X66.259Y-86.891G85X65.051Y-88.789
G05
X66.72Y-29.261G85X66.68Y-29.839
G05
X71.049Y-48.861G85X69.841Y-50.759
G05
X71.45Y-86.281G85X71.41Y-86.859
G05
X73.389Y-105.861G85X72.181Y-107.759
G05
X75.809Y-67.861G85X74.601Y-69.759
G05
X76.24Y-48.251G85X76.2Y-48.829
G05
X78.58Y-105.251G85X78.54Y-105.829
G05
X80.549Y-29.891G85X79.341Y-31.789
G05
X81.0Y-67.251G85X80.96Y-67.829
G05
X85.279Y-86.871G85X84.071Y-88.769
G05
X85.74Y-29.281G85X85.7Y-29.859
G05
X90.059Y-48.871G85X88.851Y-50.769
G05
X90.47Y-86.261G85X90.43Y-86.839
G05
X94.779Y-67.861G85X93.571Y-69.759
G05
X95.25Y-48.261G85X95.21Y-48.839
G05
X99.539Y-29.911G85X98.331Y-31.809
G05
X99.97Y-67.251G85X99.93Y-67.829
G05
X104.269Y-86.861G85X103.061Y-88.759
G05
X104.73Y-29.301G85X104.69Y-29.879
G05
X109.019Y-48.881G85X107.811Y-50.779
G05
X109.46Y-86.251G85X109.42Y-86.829
G05
X113.779Y-67.871G85X112.571Y-69.769
G05
X114.21Y-48.271G85X114.17Y-48.849
G05
X118.549Y-29.861G85X117.341Y-31.759
G05
X118.97Y-67.261G85X118.93Y-67.839
G05
X123.279Y-86.861G85X122.071Y-88.759
G05
X123.389Y-105.861G85X122.181Y-107.759
G05
X123.74Y-29.251G85X123.7Y-29.829
G05
X128.019Y-48.891G85X126.811Y-50.789
G05
X128.47Y-86.251G85X128.43Y-86.829
G05
X128.58Y-105.251G85X128.54Y-105.829
G05
X132.789Y-67.871G85X131.581Y-69.769
G05
X133.21Y-48.281G85X133.17Y-48.859
G05
X137.549Y-29.871G85X136.341Y-31.769
G05
X137.98Y-67.261G85X137.94Y-67.839
G05
X142.289Y-86.881G85X141.081Y-88.779
G05
X142.74Y-29.261G85X142.7Y-29.839
G05
X144.629Y-105.851G85X143.421Y-107.749
G05
X147.029Y-48.901G85X145.821Y-50.799
G05
X147.48Y-86.271G85X147.44Y-86.849
G05
X149.82Y-105.241G85X149.78Y-105.819
G05
X151.789Y-67.871G85X150.581Y-69.769
G05
X152.22Y-48.291G85X152.18Y-48.869
G05
X156.524Y-29.871G85X155.316Y-31.769
G05
X156.98Y-67.261G85X156.94Y-67.839
G05
X161.715Y-29.261G85X161.675Y-29.839
G05
X163.659Y-86.881G85X162.451Y-88.779
G05
X165.819Y-105.641G85X164.611Y-107.539
G05
X166.029Y-48.891G85X164.821Y-50.789
G05
X168.85Y-86.271G85X168.81Y-86.849
G05
X171.01Y-105.031G85X170.97Y-105.609
G05
X171.22Y-48.281G85X171.18Y-48.859
G05
X177.909Y-67.851G85X176.701Y-69.749
G05
X180.279Y-29.891G85X179.071Y-31.789
G05
X183.1Y-67.241G85X183.06Y-67.819
G05
X184.829Y-86.631G85X183.621Y-88.529
G05
X184.829Y-105.641G85X183.621Y-107.539
G05
X185.039Y-48.871G85X183.831Y-50.769
G05
X185.47Y-29.281G85X185.43Y-29.859
G05
X190.02Y-86.021G85X189.98Y-86.599
G05
X190.02Y-105.031G85X189.98Y-105.609
G05
X190.23Y-48.261G85X190.19Y-48.839
G05
X203.549Y-86.871G85X202.341Y-88.769
G05
X203.559Y-67.841G85X202.351Y-69.739
G05
X203.829Y-105.631G85X202.621Y-107.529
G05
X208.74Y-86.261G85X208.7Y-86.839
G05
X208.75Y-67.231G85X208.71Y-67.809
G05
X209.02Y-105.021G85X208.98Y-105.599
G05
T0
M30
