M48
; DRILL file {KiCad (6.0.10-0)} date Sunday, December 25, 2022 at 07:17:08 PM
; FORMAT={-:-/ absolute / metric / decimal}
; #@! TF.CreationDate,2022-12-25T19:17:08-08:00
; #@! TF.GenerationSoftware,Kicad,Pcbnew,(6.0.10-0)
; #@! TF.FileFunction,NonPlated,1,2,NPTH
FMAT,2
METRIC
; #@! TA.AperFunction,NonPlated,NPTH,ComponentDrill
T1C0.800
; #@! TA.AperFunction,NonPlated,NPTH,ComponentDrill
T2C1.702
; #@! TA.AperFunction,NonPlated,NPTH,ComponentDrill
T3C3.988
%
G90
G05
T1
X30.69Y-27.41
X30.69Y-34.41
T2
X30.58Y-53.33
X35.223Y-123.586
X35.34Y-72.34
X38.697Y-133.134
X40.1Y-34.34
X40.74Y-53.33
X44.87Y-91.35
X45.5Y-72.34
X49.6Y-53.33
X50.26Y-34.34
X50.703Y-110.466
X54.177Y-120.014
X54.32Y-72.35
X55.03Y-91.35
X59.1Y-34.34
X59.76Y-53.33
X63.83Y-91.36
X64.48Y-72.35
X68.62Y-53.33
X69.26Y-34.34
X70.96Y-110.33
X73.38Y-72.33
X73.99Y-91.36
X78.12Y-34.36
X78.78Y-53.33
X81.12Y-110.33
X82.85Y-91.34
X83.54Y-72.33
X87.63Y-53.34
X88.28Y-34.36
X92.35Y-72.33
X93.01Y-91.34
X97.11Y-34.38
X97.79Y-53.34
X101.84Y-91.33
X102.51Y-72.33
X106.59Y-53.35
X107.27Y-34.38
X111.35Y-72.34
X112.0Y-91.33
X116.12Y-34.33
X116.75Y-53.35
X120.85Y-91.33
X120.96Y-110.33
X121.51Y-72.34
X125.59Y-53.36
X126.28Y-34.33
X130.36Y-72.34
X131.01Y-91.33
X131.12Y-110.33
X135.12Y-34.34
X135.75Y-53.36
X139.86Y-91.35
X140.52Y-72.34
X142.2Y-110.32
X144.6Y-53.37
X145.28Y-34.34
X149.36Y-72.34
X150.02Y-91.35
X152.36Y-110.32
X154.095Y-34.34
X154.76Y-53.37
X159.52Y-72.34
X161.23Y-91.35
X163.39Y-110.11
X163.6Y-53.36
X164.255Y-34.34
X171.39Y-91.35
X173.55Y-110.11
X173.76Y-53.36
X175.48Y-72.32
X177.85Y-34.36
X182.4Y-91.1
X182.4Y-110.11
X182.61Y-53.34
X185.64Y-72.32
X188.01Y-34.36
X192.56Y-91.1
X192.56Y-110.11
X192.77Y-53.34
X201.12Y-91.34
X201.13Y-72.31
X201.4Y-110.1
X211.28Y-91.34
X211.29Y-72.31
X211.56Y-110.1
T3
X35.66Y-53.33
X36.96Y-128.36
X40.42Y-72.34
X45.18Y-34.34
X49.95Y-91.35
X52.44Y-115.24
X54.68Y-53.33
X59.4Y-72.35
X64.18Y-34.34
X68.91Y-91.36
X73.7Y-53.33
X76.04Y-110.33
X78.46Y-72.33
X83.2Y-34.36
X87.93Y-91.34
X92.71Y-53.34
X97.43Y-72.33
X102.19Y-34.38
X106.92Y-91.33
X111.67Y-53.35
X116.43Y-72.34
X121.2Y-34.33
X125.93Y-91.33
X126.04Y-110.33
X130.67Y-53.36
X135.44Y-72.34
X140.2Y-34.34
X144.94Y-91.35
X147.28Y-110.32
X149.68Y-53.37
X154.44Y-72.34
X159.175Y-34.34
X166.31Y-91.35
X168.47Y-110.11
X168.68Y-53.36
X180.56Y-72.32
X182.93Y-34.36
X187.48Y-91.1
X187.48Y-110.11
X187.69Y-53.34
X206.2Y-91.34
X206.21Y-72.31
X206.48Y-110.1
T0
M30
