G04 #@! TF.GenerationSoftware,KiCad,Pcbnew,(6.0.10-0)*
G04 #@! TF.CreationDate,2022-12-25T19:45:21-08:00*
G04 #@! TF.ProjectId,right,72696768-742e-46b6-9963-61645f706362,rev?*
G04 #@! TF.SameCoordinates,Original*
G04 #@! TF.FileFunction,Paste,Top*
G04 #@! TF.FilePolarity,Positive*
%FSLAX46Y46*%
G04 Gerber Fmt 4.6, Leading zero omitted, Abs format (unit mm)*
G04 Created by KiCad (PCBNEW (6.0.10-0)) date 2022-12-25 19:45:21*
%MOMM*%
%LPD*%
G01*
G04 APERTURE LIST*
G04 Aperture macros list*
%AMRotRect*
0 Rectangle, with rotation*
0 The origin of the aperture is its center*
0 $1 length*
0 $2 width*
0 $3 Rotation angle, in degrees counterclockwise*
0 Add horizontal line*
21,1,$1,$2,0,0,$3*%
G04 Aperture macros list end*
%ADD10R,1.200000X1.200000*%
%ADD11RotRect,1.200000X1.200000X20.000000*%
G04 APERTURE END LIST*
D10*
X54750000Y-34075000D03*
X54750000Y-30925000D03*
X73750000Y-34075000D03*
X73750000Y-30925000D03*
X92500000Y-34075000D03*
X92500000Y-30925000D03*
X34005000Y-43910000D03*
X37155000Y-43910000D03*
X38805000Y-62930000D03*
X41955000Y-62930000D03*
X48305000Y-81940000D03*
X51455000Y-81940000D03*
D11*
X32139984Y-120078682D03*
X35100016Y-119001318D03*
D10*
X53345000Y-43910000D03*
X56495000Y-43910000D03*
X57775000Y-62930000D03*
X60925000Y-62930000D03*
X67345000Y-81960000D03*
X70495000Y-81960000D03*
D11*
X47789984Y-106908682D03*
X50750016Y-105831318D03*
D10*
X72195000Y-43890000D03*
X75345000Y-43890000D03*
X77125000Y-62900000D03*
X80275000Y-62900000D03*
X86275000Y-81930000D03*
X89425000Y-81930000D03*
X74210000Y-100900000D03*
X77360000Y-100900000D03*
X111750000Y-34075000D03*
X111750000Y-30925000D03*
X91275000Y-43940000D03*
X94425000Y-43940000D03*
X95895000Y-62940000D03*
X99045000Y-62940000D03*
X105305000Y-81880000D03*
X108455000Y-81880000D03*
X124525000Y-100910000D03*
X127675000Y-100910000D03*
X130500000Y-34075000D03*
X130500000Y-30925000D03*
X110285000Y-43940000D03*
X113435000Y-43940000D03*
X114855000Y-62910000D03*
X118005000Y-62910000D03*
X124265000Y-81930000D03*
X127415000Y-81930000D03*
X145735000Y-100900000D03*
X148885000Y-100900000D03*
X149750000Y-34075000D03*
X149750000Y-30925000D03*
X129065000Y-43950000D03*
X132215000Y-43950000D03*
X133905000Y-62910000D03*
X137055000Y-62910000D03*
X143345000Y-81910000D03*
X146495000Y-81910000D03*
X167055000Y-100690000D03*
X170205000Y-100690000D03*
X168500000Y-34075000D03*
X168500000Y-30925000D03*
X147925000Y-43970000D03*
X151075000Y-43970000D03*
X152785000Y-62920000D03*
X155935000Y-62920000D03*
X164685000Y-81930000D03*
X167835000Y-81930000D03*
X186055000Y-100710000D03*
X189205000Y-100710000D03*
X173500000Y-34075000D03*
X173500000Y-30925000D03*
X167355000Y-43940000D03*
X170505000Y-43940000D03*
X178885000Y-62930000D03*
X182035000Y-62930000D03*
X185995000Y-81680000D03*
X189145000Y-81680000D03*
X204985000Y-100670000D03*
X208135000Y-100670000D03*
X186155000Y-43930000D03*
X189305000Y-43930000D03*
X196750000Y-73075000D03*
X196750000Y-69925000D03*
X204505000Y-81910000D03*
X207655000Y-81910000D03*
M02*
