%TF.GenerationSoftware,KiCad,Pcbnew,(6.0.10-0)*%
%TF.CreationDate,2022-12-25T19:17:20-08:00*%
%TF.ProjectId,right,72696768-742e-46b6-9963-61645f706362,rev?*%
%TF.SameCoordinates,Original*%
%TF.FileFunction,Drillmap*%
%TF.FilePolarity,Positive*%
%FSLAX45Y45*%
G04 Gerber Fmt 4.5, Leading zero omitted, Abs format (unit mm)*
G04 Created by KiCad (PCBNEW (6.0.10-0)) date 2022-12-25 19:17:20*
%MOMM*%
%LPD*%
G01*
G04 APERTURE LIST*
%ADD10C,0.200000*%
%ADD11C,0.080000*%
%ADD12C,0.170180*%
%ADD13C,0.398780*%
G04 APERTURE END LIST*
D10*
X21542000Y-2480000D02*
X2692000Y-2480000D01*
X2692000Y-2480000D02*
G75*
G03*
X2617000Y-2555000I0J-75000D01*
G01*
X21617000Y-2555000D02*
G75*
G03*
X21542000Y-2480000I-75000J0D01*
G01*
X5645100Y-14095410D02*
G75*
G03*
X6756688Y-13581268I0J1458710D01*
G01*
X2617000Y-6205000D02*
G75*
G03*
X2692000Y-6280000I75000J0D01*
G01*
X3092000Y-8105000D02*
X3092000Y-6355000D01*
X3967000Y-8180000D02*
X3167000Y-8180000D01*
X4042000Y-8255000D02*
G75*
G03*
X3967000Y-8180000I-75000J0D01*
G01*
X4024153Y-10128565D02*
G75*
G03*
X4042000Y-10080000I-57153J48565D01*
G01*
X4042000Y-10080000D02*
X4042000Y-8255000D01*
X2545698Y-11868476D02*
X4024153Y-10128565D01*
X3125123Y-14046051D02*
X2475291Y-12260646D01*
X3092000Y-8105000D02*
G75*
G03*
X3167000Y-8180000I75000J0D01*
G01*
X2545698Y-11868476D02*
G75*
G03*
X2475291Y-12260646I302002J-256624D01*
G01*
X3195600Y-14095400D02*
X5645100Y-14095400D01*
X3092000Y-6355000D02*
G75*
G03*
X3017000Y-6280000I-75000J0D01*
G01*
X21617000Y-2555000D02*
X21617000Y-11905000D01*
X3125123Y-14046051D02*
G75*
G03*
X3195600Y-14095400I70477J25652D01*
G01*
X2617000Y-2555000D02*
X2617000Y-6205000D01*
X21542000Y-11980000D02*
X8792000Y-11980000D01*
X6756688Y-13581268D02*
X7680411Y-12494134D01*
X21542000Y-11980000D02*
G75*
G03*
X21617000Y-11905000I0J75000D01*
G01*
X3017000Y-6280000D02*
X2692000Y-6280000D01*
X8792000Y-11979990D02*
G75*
G03*
X7680411Y-12494134I0J-1458710D01*
G01*
D11*
X3029000Y-2701000D02*
X3109000Y-2781000D01*
X3109000Y-2701000D02*
X3029000Y-2781000D01*
X3029000Y-3401000D02*
X3109000Y-3481000D01*
X3109000Y-3401000D02*
X3029000Y-3481000D01*
D12*
X3143090Y-5333000D02*
G75*
G03*
X3143090Y-5333000I-85090J0D01*
G01*
X3607344Y-12358636D02*
G75*
G03*
X3607344Y-12358636I-85090J0D01*
G01*
X3619090Y-7234000D02*
G75*
G03*
X3619090Y-7234000I-85090J0D01*
G01*
X3954836Y-13313364D02*
G75*
G03*
X3954836Y-13313364I-85090J0D01*
G01*
X4095090Y-3434000D02*
G75*
G03*
X4095090Y-3434000I-85090J0D01*
G01*
X4159090Y-5333000D02*
G75*
G03*
X4159090Y-5333000I-85090J0D01*
G01*
X4572090Y-9135000D02*
G75*
G03*
X4572090Y-9135000I-85090J0D01*
G01*
X4635090Y-7234000D02*
G75*
G03*
X4635090Y-7234000I-85090J0D01*
G01*
X5045090Y-5333000D02*
G75*
G03*
X5045090Y-5333000I-85090J0D01*
G01*
X5111090Y-3434000D02*
G75*
G03*
X5111090Y-3434000I-85090J0D01*
G01*
X5155344Y-11046636D02*
G75*
G03*
X5155344Y-11046636I-85090J0D01*
G01*
X5502836Y-12001364D02*
G75*
G03*
X5502836Y-12001364I-85090J0D01*
G01*
X5517090Y-7235000D02*
G75*
G03*
X5517090Y-7235000I-85090J0D01*
G01*
X5588090Y-9135000D02*
G75*
G03*
X5588090Y-9135000I-85090J0D01*
G01*
X5995090Y-3434000D02*
G75*
G03*
X5995090Y-3434000I-85090J0D01*
G01*
X6061090Y-5333000D02*
G75*
G03*
X6061090Y-5333000I-85090J0D01*
G01*
X6468090Y-9136000D02*
G75*
G03*
X6468090Y-9136000I-85090J0D01*
G01*
X6533090Y-7235000D02*
G75*
G03*
X6533090Y-7235000I-85090J0D01*
G01*
X6947090Y-5333000D02*
G75*
G03*
X6947090Y-5333000I-85090J0D01*
G01*
X7011090Y-3434000D02*
G75*
G03*
X7011090Y-3434000I-85090J0D01*
G01*
X7181090Y-11033000D02*
G75*
G03*
X7181090Y-11033000I-85090J0D01*
G01*
X7423090Y-7233000D02*
G75*
G03*
X7423090Y-7233000I-85090J0D01*
G01*
X7484090Y-9136000D02*
G75*
G03*
X7484090Y-9136000I-85090J0D01*
G01*
X7897090Y-3436000D02*
G75*
G03*
X7897090Y-3436000I-85090J0D01*
G01*
X7963090Y-5333000D02*
G75*
G03*
X7963090Y-5333000I-85090J0D01*
G01*
X8197090Y-11033000D02*
G75*
G03*
X8197090Y-11033000I-85090J0D01*
G01*
X8370090Y-9134000D02*
G75*
G03*
X8370090Y-9134000I-85090J0D01*
G01*
X8439090Y-7233000D02*
G75*
G03*
X8439090Y-7233000I-85090J0D01*
G01*
X8848090Y-5334000D02*
G75*
G03*
X8848090Y-5334000I-85090J0D01*
G01*
X8913090Y-3436000D02*
G75*
G03*
X8913090Y-3436000I-85090J0D01*
G01*
X9320090Y-7233000D02*
G75*
G03*
X9320090Y-7233000I-85090J0D01*
G01*
X9386090Y-9134000D02*
G75*
G03*
X9386090Y-9134000I-85090J0D01*
G01*
X9796090Y-3438000D02*
G75*
G03*
X9796090Y-3438000I-85090J0D01*
G01*
X9864090Y-5334000D02*
G75*
G03*
X9864090Y-5334000I-85090J0D01*
G01*
X10269090Y-9133000D02*
G75*
G03*
X10269090Y-9133000I-85090J0D01*
G01*
X10336090Y-7233000D02*
G75*
G03*
X10336090Y-7233000I-85090J0D01*
G01*
X10744090Y-5335000D02*
G75*
G03*
X10744090Y-5335000I-85090J0D01*
G01*
X10812090Y-3438000D02*
G75*
G03*
X10812090Y-3438000I-85090J0D01*
G01*
X11220090Y-7234000D02*
G75*
G03*
X11220090Y-7234000I-85090J0D01*
G01*
X11285090Y-9133000D02*
G75*
G03*
X11285090Y-9133000I-85090J0D01*
G01*
X11697090Y-3433000D02*
G75*
G03*
X11697090Y-3433000I-85090J0D01*
G01*
X11760090Y-5335000D02*
G75*
G03*
X11760090Y-5335000I-85090J0D01*
G01*
X12170090Y-9133000D02*
G75*
G03*
X12170090Y-9133000I-85090J0D01*
G01*
X12181090Y-11033000D02*
G75*
G03*
X12181090Y-11033000I-85090J0D01*
G01*
X12236090Y-7234000D02*
G75*
G03*
X12236090Y-7234000I-85090J0D01*
G01*
X12644090Y-5336000D02*
G75*
G03*
X12644090Y-5336000I-85090J0D01*
G01*
X12713090Y-3433000D02*
G75*
G03*
X12713090Y-3433000I-85090J0D01*
G01*
X13121090Y-7234000D02*
G75*
G03*
X13121090Y-7234000I-85090J0D01*
G01*
X13186090Y-9133000D02*
G75*
G03*
X13186090Y-9133000I-85090J0D01*
G01*
X13197090Y-11033000D02*
G75*
G03*
X13197090Y-11033000I-85090J0D01*
G01*
X13597090Y-3434000D02*
G75*
G03*
X13597090Y-3434000I-85090J0D01*
G01*
X13660090Y-5336000D02*
G75*
G03*
X13660090Y-5336000I-85090J0D01*
G01*
X14071090Y-9135000D02*
G75*
G03*
X14071090Y-9135000I-85090J0D01*
G01*
X14137090Y-7234000D02*
G75*
G03*
X14137090Y-7234000I-85090J0D01*
G01*
X14305090Y-11032000D02*
G75*
G03*
X14305090Y-11032000I-85090J0D01*
G01*
X14545090Y-5337000D02*
G75*
G03*
X14545090Y-5337000I-85090J0D01*
G01*
X14613090Y-3434000D02*
G75*
G03*
X14613090Y-3434000I-85090J0D01*
G01*
X15021090Y-7234000D02*
G75*
G03*
X15021090Y-7234000I-85090J0D01*
G01*
X15087090Y-9135000D02*
G75*
G03*
X15087090Y-9135000I-85090J0D01*
G01*
X15321090Y-11032000D02*
G75*
G03*
X15321090Y-11032000I-85090J0D01*
G01*
X15494590Y-3434000D02*
G75*
G03*
X15494590Y-3434000I-85090J0D01*
G01*
X15561090Y-5337000D02*
G75*
G03*
X15561090Y-5337000I-85090J0D01*
G01*
X16037090Y-7234000D02*
G75*
G03*
X16037090Y-7234000I-85090J0D01*
G01*
X16208090Y-9135000D02*
G75*
G03*
X16208090Y-9135000I-85090J0D01*
G01*
X16424090Y-11011000D02*
G75*
G03*
X16424090Y-11011000I-85090J0D01*
G01*
X16445090Y-5336000D02*
G75*
G03*
X16445090Y-5336000I-85090J0D01*
G01*
X16510590Y-3434000D02*
G75*
G03*
X16510590Y-3434000I-85090J0D01*
G01*
X17224090Y-9135000D02*
G75*
G03*
X17224090Y-9135000I-85090J0D01*
G01*
X17440090Y-11011000D02*
G75*
G03*
X17440090Y-11011000I-85090J0D01*
G01*
X17461090Y-5336000D02*
G75*
G03*
X17461090Y-5336000I-85090J0D01*
G01*
X17633090Y-7232000D02*
G75*
G03*
X17633090Y-7232000I-85090J0D01*
G01*
X17870090Y-3436000D02*
G75*
G03*
X17870090Y-3436000I-85090J0D01*
G01*
X18325090Y-9110000D02*
G75*
G03*
X18325090Y-9110000I-85090J0D01*
G01*
X18325090Y-11011000D02*
G75*
G03*
X18325090Y-11011000I-85090J0D01*
G01*
X18346090Y-5334000D02*
G75*
G03*
X18346090Y-5334000I-85090J0D01*
G01*
X18649090Y-7232000D02*
G75*
G03*
X18649090Y-7232000I-85090J0D01*
G01*
X18886090Y-3436000D02*
G75*
G03*
X18886090Y-3436000I-85090J0D01*
G01*
X19341090Y-9110000D02*
G75*
G03*
X19341090Y-9110000I-85090J0D01*
G01*
X19341090Y-11011000D02*
G75*
G03*
X19341090Y-11011000I-85090J0D01*
G01*
X19362090Y-5334000D02*
G75*
G03*
X19362090Y-5334000I-85090J0D01*
G01*
X20197090Y-9134000D02*
G75*
G03*
X20197090Y-9134000I-85090J0D01*
G01*
X20198090Y-7231000D02*
G75*
G03*
X20198090Y-7231000I-85090J0D01*
G01*
X20225090Y-11010000D02*
G75*
G03*
X20225090Y-11010000I-85090J0D01*
G01*
X21213090Y-9134000D02*
G75*
G03*
X21213090Y-9134000I-85090J0D01*
G01*
X21214090Y-7231000D02*
G75*
G03*
X21214090Y-7231000I-85090J0D01*
G01*
X21241090Y-11010000D02*
G75*
G03*
X21241090Y-11010000I-85090J0D01*
G01*
D13*
X3566000Y-5133610D02*
X3566000Y-5532390D01*
X3366610Y-5333000D02*
X3765390Y-5333000D01*
X3696000Y-12636610D02*
X3696000Y-13035390D01*
X3496610Y-12836000D02*
X3895390Y-12836000D01*
X4042000Y-7034610D02*
X4042000Y-7433390D01*
X3842610Y-7234000D02*
X4241390Y-7234000D01*
X4518000Y-3234610D02*
X4518000Y-3633390D01*
X4318610Y-3434000D02*
X4717390Y-3434000D01*
X4995000Y-8935610D02*
X4995000Y-9334390D01*
X4795610Y-9135000D02*
X5194390Y-9135000D01*
X5244000Y-11324610D02*
X5244000Y-11723390D01*
X5044610Y-11524000D02*
X5443390Y-11524000D01*
X5468000Y-5133610D02*
X5468000Y-5532390D01*
X5268610Y-5333000D02*
X5667390Y-5333000D01*
X5940000Y-7035610D02*
X5940000Y-7434390D01*
X5740610Y-7235000D02*
X6139390Y-7235000D01*
X6418000Y-3234610D02*
X6418000Y-3633390D01*
X6218610Y-3434000D02*
X6617390Y-3434000D01*
X6891000Y-8936610D02*
X6891000Y-9335390D01*
X6691610Y-9136000D02*
X7090390Y-9136000D01*
X7370000Y-5133610D02*
X7370000Y-5532390D01*
X7170610Y-5333000D02*
X7569390Y-5333000D01*
X7604000Y-10833610D02*
X7604000Y-11232390D01*
X7404610Y-11033000D02*
X7803390Y-11033000D01*
X7846000Y-7033610D02*
X7846000Y-7432390D01*
X7646610Y-7233000D02*
X8045390Y-7233000D01*
X8320000Y-3236610D02*
X8320000Y-3635390D01*
X8120610Y-3436000D02*
X8519390Y-3436000D01*
X8793000Y-8934610D02*
X8793000Y-9333390D01*
X8593610Y-9134000D02*
X8992390Y-9134000D01*
X9271000Y-5134610D02*
X9271000Y-5533390D01*
X9071610Y-5334000D02*
X9470390Y-5334000D01*
X9743000Y-7033610D02*
X9743000Y-7432390D01*
X9543610Y-7233000D02*
X9942390Y-7233000D01*
X10219000Y-3238610D02*
X10219000Y-3637390D01*
X10019610Y-3438000D02*
X10418390Y-3438000D01*
X10692000Y-8933610D02*
X10692000Y-9332390D01*
X10492610Y-9133000D02*
X10891390Y-9133000D01*
X11167000Y-5135610D02*
X11167000Y-5534390D01*
X10967610Y-5335000D02*
X11366390Y-5335000D01*
X11643000Y-7034610D02*
X11643000Y-7433390D01*
X11443610Y-7234000D02*
X11842390Y-7234000D01*
X12120000Y-3233610D02*
X12120000Y-3632390D01*
X11920610Y-3433000D02*
X12319390Y-3433000D01*
X12593000Y-8933610D02*
X12593000Y-9332390D01*
X12393610Y-9133000D02*
X12792390Y-9133000D01*
X12604000Y-10833610D02*
X12604000Y-11232390D01*
X12404610Y-11033000D02*
X12803390Y-11033000D01*
X13067000Y-5136610D02*
X13067000Y-5535390D01*
X12867610Y-5336000D02*
X13266390Y-5336000D01*
X13544000Y-7034610D02*
X13544000Y-7433390D01*
X13344610Y-7234000D02*
X13743390Y-7234000D01*
X14020000Y-3234610D02*
X14020000Y-3633390D01*
X13820610Y-3434000D02*
X14219390Y-3434000D01*
X14494000Y-8935610D02*
X14494000Y-9334390D01*
X14294610Y-9135000D02*
X14693390Y-9135000D01*
X14728000Y-10832610D02*
X14728000Y-11231390D01*
X14528610Y-11032000D02*
X14927390Y-11032000D01*
X14968000Y-5137610D02*
X14968000Y-5536390D01*
X14768610Y-5337000D02*
X15167390Y-5337000D01*
X15444000Y-7034610D02*
X15444000Y-7433390D01*
X15244610Y-7234000D02*
X15643390Y-7234000D01*
X15917500Y-3234610D02*
X15917500Y-3633390D01*
X15718110Y-3434000D02*
X16116890Y-3434000D01*
X16631000Y-8935610D02*
X16631000Y-9334390D01*
X16431610Y-9135000D02*
X16830390Y-9135000D01*
X16847000Y-10811610D02*
X16847000Y-11210390D01*
X16647610Y-11011000D02*
X17046390Y-11011000D01*
X16868000Y-5136610D02*
X16868000Y-5535390D01*
X16668610Y-5336000D02*
X17067390Y-5336000D01*
X18056000Y-7032610D02*
X18056000Y-7431390D01*
X17856610Y-7232000D02*
X18255390Y-7232000D01*
X18293000Y-3236610D02*
X18293000Y-3635390D01*
X18093610Y-3436000D02*
X18492390Y-3436000D01*
X18748000Y-8910610D02*
X18748000Y-9309390D01*
X18548610Y-9110000D02*
X18947390Y-9110000D01*
X18748000Y-10811610D02*
X18748000Y-11210390D01*
X18548610Y-11011000D02*
X18947390Y-11011000D01*
X18769000Y-5134610D02*
X18769000Y-5533390D01*
X18569610Y-5334000D02*
X18968390Y-5334000D01*
X20620000Y-8934610D02*
X20620000Y-9333390D01*
X20420610Y-9134000D02*
X20819390Y-9134000D01*
X20621000Y-7031610D02*
X20621000Y-7430390D01*
X20421610Y-7231000D02*
X20820390Y-7231000D01*
X20648000Y-10810610D02*
X20648000Y-11209390D01*
X20448610Y-11010000D02*
X20847390Y-11010000D01*
D10*
X2699010Y-14415886D02*
X2699010Y-14215886D01*
X2746629Y-14215886D01*
X2775201Y-14225410D01*
X2794248Y-14244458D01*
X2803772Y-14263505D01*
X2813296Y-14301600D01*
X2813296Y-14330172D01*
X2803772Y-14368267D01*
X2794248Y-14387315D01*
X2775201Y-14406362D01*
X2746629Y-14415886D01*
X2699010Y-14415886D01*
X2899010Y-14415886D02*
X2899010Y-14282553D01*
X2899010Y-14320648D02*
X2908534Y-14301600D01*
X2918058Y-14292077D01*
X2937105Y-14282553D01*
X2956153Y-14282553D01*
X3022819Y-14415886D02*
X3022819Y-14282553D01*
X3022819Y-14215886D02*
X3013296Y-14225410D01*
X3022819Y-14234934D01*
X3032343Y-14225410D01*
X3022819Y-14215886D01*
X3022819Y-14234934D01*
X3146629Y-14415886D02*
X3127581Y-14406362D01*
X3118058Y-14387315D01*
X3118058Y-14215886D01*
X3251391Y-14415886D02*
X3232343Y-14406362D01*
X3222819Y-14387315D01*
X3222819Y-14215886D01*
X3479962Y-14415886D02*
X3479962Y-14215886D01*
X3546629Y-14358743D01*
X3613296Y-14215886D01*
X3613296Y-14415886D01*
X3794248Y-14415886D02*
X3794248Y-14311124D01*
X3784724Y-14292077D01*
X3765677Y-14282553D01*
X3727581Y-14282553D01*
X3708534Y-14292077D01*
X3794248Y-14406362D02*
X3775200Y-14415886D01*
X3727581Y-14415886D01*
X3708534Y-14406362D01*
X3699010Y-14387315D01*
X3699010Y-14368267D01*
X3708534Y-14349219D01*
X3727581Y-14339696D01*
X3775200Y-14339696D01*
X3794248Y-14330172D01*
X3889486Y-14282553D02*
X3889486Y-14482553D01*
X3889486Y-14292077D02*
X3908534Y-14282553D01*
X3946629Y-14282553D01*
X3965677Y-14292077D01*
X3975200Y-14301600D01*
X3984724Y-14320648D01*
X3984724Y-14377791D01*
X3975200Y-14396838D01*
X3965677Y-14406362D01*
X3946629Y-14415886D01*
X3908534Y-14415886D01*
X3889486Y-14406362D01*
X4070439Y-14396838D02*
X4079962Y-14406362D01*
X4070439Y-14415886D01*
X4060915Y-14406362D01*
X4070439Y-14396838D01*
X4070439Y-14415886D01*
X4070439Y-14292077D02*
X4079962Y-14301600D01*
X4070439Y-14311124D01*
X4060915Y-14301600D01*
X4070439Y-14292077D01*
X4070439Y-14311124D01*
D11*
X2361391Y-14705410D02*
X2441391Y-14785410D01*
X2441391Y-14705410D02*
X2361391Y-14785410D01*
D10*
X2737105Y-14635886D02*
X2756153Y-14635886D01*
X2775201Y-14645410D01*
X2784724Y-14654934D01*
X2794248Y-14673981D01*
X2803772Y-14712077D01*
X2803772Y-14759696D01*
X2794248Y-14797791D01*
X2784724Y-14816838D01*
X2775201Y-14826362D01*
X2756153Y-14835886D01*
X2737105Y-14835886D01*
X2718058Y-14826362D01*
X2708534Y-14816838D01*
X2699010Y-14797791D01*
X2689486Y-14759696D01*
X2689486Y-14712077D01*
X2699010Y-14673981D01*
X2708534Y-14654934D01*
X2718058Y-14645410D01*
X2737105Y-14635886D01*
X2889486Y-14816838D02*
X2899010Y-14826362D01*
X2889486Y-14835886D01*
X2879962Y-14826362D01*
X2889486Y-14816838D01*
X2889486Y-14835886D01*
X3013296Y-14721600D02*
X2994248Y-14712077D01*
X2984724Y-14702553D01*
X2975200Y-14683505D01*
X2975200Y-14673981D01*
X2984724Y-14654934D01*
X2994248Y-14645410D01*
X3013296Y-14635886D01*
X3051391Y-14635886D01*
X3070439Y-14645410D01*
X3079962Y-14654934D01*
X3089486Y-14673981D01*
X3089486Y-14683505D01*
X3079962Y-14702553D01*
X3070439Y-14712077D01*
X3051391Y-14721600D01*
X3013296Y-14721600D01*
X2994248Y-14731124D01*
X2984724Y-14740648D01*
X2975200Y-14759696D01*
X2975200Y-14797791D01*
X2984724Y-14816838D01*
X2994248Y-14826362D01*
X3013296Y-14835886D01*
X3051391Y-14835886D01*
X3070439Y-14826362D01*
X3079962Y-14816838D01*
X3089486Y-14797791D01*
X3089486Y-14759696D01*
X3079962Y-14740648D01*
X3070439Y-14731124D01*
X3051391Y-14721600D01*
X3213296Y-14635886D02*
X3232343Y-14635886D01*
X3251391Y-14645410D01*
X3260915Y-14654934D01*
X3270439Y-14673981D01*
X3279962Y-14712077D01*
X3279962Y-14759696D01*
X3270439Y-14797791D01*
X3260915Y-14816838D01*
X3251391Y-14826362D01*
X3232343Y-14835886D01*
X3213296Y-14835886D01*
X3194248Y-14826362D01*
X3184724Y-14816838D01*
X3175200Y-14797791D01*
X3165677Y-14759696D01*
X3165677Y-14712077D01*
X3175200Y-14673981D01*
X3184724Y-14654934D01*
X3194248Y-14645410D01*
X3213296Y-14635886D01*
X3403772Y-14635886D02*
X3422819Y-14635886D01*
X3441867Y-14645410D01*
X3451391Y-14654934D01*
X3460915Y-14673981D01*
X3470439Y-14712077D01*
X3470439Y-14759696D01*
X3460915Y-14797791D01*
X3451391Y-14816838D01*
X3441867Y-14826362D01*
X3422819Y-14835886D01*
X3403772Y-14835886D01*
X3384724Y-14826362D01*
X3375200Y-14816838D01*
X3365677Y-14797791D01*
X3356153Y-14759696D01*
X3356153Y-14712077D01*
X3365677Y-14673981D01*
X3375200Y-14654934D01*
X3384724Y-14645410D01*
X3403772Y-14635886D01*
X3556153Y-14835886D02*
X3556153Y-14702553D01*
X3556153Y-14721600D02*
X3565677Y-14712077D01*
X3584724Y-14702553D01*
X3613296Y-14702553D01*
X3632343Y-14712077D01*
X3641867Y-14731124D01*
X3641867Y-14835886D01*
X3641867Y-14731124D02*
X3651391Y-14712077D01*
X3670439Y-14702553D01*
X3699010Y-14702553D01*
X3718058Y-14712077D01*
X3727581Y-14731124D01*
X3727581Y-14835886D01*
X3822819Y-14835886D02*
X3822819Y-14702553D01*
X3822819Y-14721600D02*
X3832343Y-14712077D01*
X3851391Y-14702553D01*
X3879962Y-14702553D01*
X3899010Y-14712077D01*
X3908534Y-14731124D01*
X3908534Y-14835886D01*
X3908534Y-14731124D02*
X3918058Y-14712077D01*
X3937105Y-14702553D01*
X3965677Y-14702553D01*
X3984724Y-14712077D01*
X3994248Y-14731124D01*
X3994248Y-14835886D01*
X4384724Y-14626362D02*
X4213296Y-14883505D01*
X4641867Y-14635886D02*
X4660915Y-14635886D01*
X4679962Y-14645410D01*
X4689486Y-14654934D01*
X4699010Y-14673981D01*
X4708534Y-14712077D01*
X4708534Y-14759696D01*
X4699010Y-14797791D01*
X4689486Y-14816838D01*
X4679962Y-14826362D01*
X4660915Y-14835886D01*
X4641867Y-14835886D01*
X4622820Y-14826362D01*
X4613296Y-14816838D01*
X4603772Y-14797791D01*
X4594248Y-14759696D01*
X4594248Y-14712077D01*
X4603772Y-14673981D01*
X4613296Y-14654934D01*
X4622820Y-14645410D01*
X4641867Y-14635886D01*
X4794248Y-14816838D02*
X4803772Y-14826362D01*
X4794248Y-14835886D01*
X4784724Y-14826362D01*
X4794248Y-14816838D01*
X4794248Y-14835886D01*
X4927581Y-14635886D02*
X4946629Y-14635886D01*
X4965677Y-14645410D01*
X4975201Y-14654934D01*
X4984724Y-14673981D01*
X4994248Y-14712077D01*
X4994248Y-14759696D01*
X4984724Y-14797791D01*
X4975201Y-14816838D01*
X4965677Y-14826362D01*
X4946629Y-14835886D01*
X4927581Y-14835886D01*
X4908534Y-14826362D01*
X4899010Y-14816838D01*
X4889486Y-14797791D01*
X4879962Y-14759696D01*
X4879962Y-14712077D01*
X4889486Y-14673981D01*
X4899010Y-14654934D01*
X4908534Y-14645410D01*
X4927581Y-14635886D01*
X5060915Y-14635886D02*
X5184724Y-14635886D01*
X5118058Y-14712077D01*
X5146629Y-14712077D01*
X5165677Y-14721600D01*
X5175201Y-14731124D01*
X5184724Y-14750172D01*
X5184724Y-14797791D01*
X5175201Y-14816838D01*
X5165677Y-14826362D01*
X5146629Y-14835886D01*
X5089486Y-14835886D01*
X5070439Y-14826362D01*
X5060915Y-14816838D01*
X5375201Y-14835886D02*
X5260915Y-14835886D01*
X5318058Y-14835886D02*
X5318058Y-14635886D01*
X5299010Y-14664458D01*
X5279962Y-14683505D01*
X5260915Y-14693029D01*
X5556153Y-14635886D02*
X5460915Y-14635886D01*
X5451391Y-14731124D01*
X5460915Y-14721600D01*
X5479962Y-14712077D01*
X5527581Y-14712077D01*
X5546629Y-14721600D01*
X5556153Y-14731124D01*
X5565677Y-14750172D01*
X5565677Y-14797791D01*
X5556153Y-14816838D01*
X5546629Y-14826362D01*
X5527581Y-14835886D01*
X5479962Y-14835886D01*
X5460915Y-14826362D01*
X5451391Y-14816838D01*
X5641867Y-14635886D02*
X5641867Y-14673981D01*
X5718058Y-14635886D02*
X5718058Y-14673981D01*
X6013296Y-14912077D02*
X6003772Y-14902553D01*
X5984724Y-14873981D01*
X5975200Y-14854934D01*
X5965677Y-14826362D01*
X5956153Y-14778743D01*
X5956153Y-14740648D01*
X5965677Y-14693029D01*
X5975200Y-14664458D01*
X5984724Y-14645410D01*
X6003772Y-14616838D01*
X6013296Y-14607315D01*
X6079962Y-14654934D02*
X6089486Y-14645410D01*
X6108534Y-14635886D01*
X6156153Y-14635886D01*
X6175200Y-14645410D01*
X6184724Y-14654934D01*
X6194248Y-14673981D01*
X6194248Y-14693029D01*
X6184724Y-14721600D01*
X6070439Y-14835886D01*
X6194248Y-14835886D01*
X6432343Y-14835886D02*
X6432343Y-14635886D01*
X6518058Y-14835886D02*
X6518058Y-14731124D01*
X6508534Y-14712077D01*
X6489486Y-14702553D01*
X6460915Y-14702553D01*
X6441867Y-14712077D01*
X6432343Y-14721600D01*
X6641867Y-14835886D02*
X6622819Y-14826362D01*
X6613296Y-14816838D01*
X6603772Y-14797791D01*
X6603772Y-14740648D01*
X6613296Y-14721600D01*
X6622819Y-14712077D01*
X6641867Y-14702553D01*
X6670439Y-14702553D01*
X6689486Y-14712077D01*
X6699010Y-14721600D01*
X6708534Y-14740648D01*
X6708534Y-14797791D01*
X6699010Y-14816838D01*
X6689486Y-14826362D01*
X6670439Y-14835886D01*
X6641867Y-14835886D01*
X6822819Y-14835886D02*
X6803772Y-14826362D01*
X6794248Y-14807315D01*
X6794248Y-14635886D01*
X6975200Y-14826362D02*
X6956153Y-14835886D01*
X6918058Y-14835886D01*
X6899010Y-14826362D01*
X6889486Y-14807315D01*
X6889486Y-14731124D01*
X6899010Y-14712077D01*
X6918058Y-14702553D01*
X6956153Y-14702553D01*
X6975200Y-14712077D01*
X6984724Y-14731124D01*
X6984724Y-14750172D01*
X6889486Y-14769219D01*
X7060915Y-14826362D02*
X7079962Y-14835886D01*
X7118058Y-14835886D01*
X7137105Y-14826362D01*
X7146629Y-14807315D01*
X7146629Y-14797791D01*
X7137105Y-14778743D01*
X7118058Y-14769219D01*
X7089486Y-14769219D01*
X7070439Y-14759696D01*
X7060915Y-14740648D01*
X7060915Y-14731124D01*
X7070439Y-14712077D01*
X7089486Y-14702553D01*
X7118058Y-14702553D01*
X7137105Y-14712077D01*
X7213296Y-14912077D02*
X7222819Y-14902553D01*
X7241867Y-14873981D01*
X7251391Y-14854934D01*
X7260915Y-14826362D01*
X7270439Y-14778743D01*
X7270439Y-14740648D01*
X7260915Y-14693029D01*
X7251391Y-14664458D01*
X7241867Y-14645410D01*
X7222819Y-14616838D01*
X7213296Y-14607315D01*
X7575200Y-14912077D02*
X7565677Y-14902553D01*
X7546629Y-14873981D01*
X7537105Y-14854934D01*
X7527581Y-14826362D01*
X7518058Y-14778743D01*
X7518058Y-14740648D01*
X7527581Y-14693029D01*
X7537105Y-14664458D01*
X7546629Y-14645410D01*
X7565677Y-14616838D01*
X7575200Y-14607315D01*
X7651391Y-14702553D02*
X7651391Y-14835886D01*
X7651391Y-14721600D02*
X7660915Y-14712077D01*
X7679962Y-14702553D01*
X7708534Y-14702553D01*
X7727581Y-14712077D01*
X7737105Y-14731124D01*
X7737105Y-14835886D01*
X7860915Y-14835886D02*
X7841867Y-14826362D01*
X7832343Y-14816838D01*
X7822819Y-14797791D01*
X7822819Y-14740648D01*
X7832343Y-14721600D01*
X7841867Y-14712077D01*
X7860915Y-14702553D01*
X7889486Y-14702553D01*
X7908534Y-14712077D01*
X7918058Y-14721600D01*
X7927581Y-14740648D01*
X7927581Y-14797791D01*
X7918058Y-14816838D01*
X7908534Y-14826362D01*
X7889486Y-14835886D01*
X7860915Y-14835886D01*
X7984724Y-14702553D02*
X8060915Y-14702553D01*
X8013296Y-14635886D02*
X8013296Y-14807315D01*
X8022819Y-14826362D01*
X8041867Y-14835886D01*
X8060915Y-14835886D01*
X8279962Y-14702553D02*
X8279962Y-14902553D01*
X8279962Y-14712077D02*
X8299010Y-14702553D01*
X8337105Y-14702553D01*
X8356153Y-14712077D01*
X8365677Y-14721600D01*
X8375200Y-14740648D01*
X8375200Y-14797791D01*
X8365677Y-14816838D01*
X8356153Y-14826362D01*
X8337105Y-14835886D01*
X8299010Y-14835886D01*
X8279962Y-14826362D01*
X8489486Y-14835886D02*
X8470439Y-14826362D01*
X8460915Y-14807315D01*
X8460915Y-14635886D01*
X8651391Y-14835886D02*
X8651391Y-14731124D01*
X8641867Y-14712077D01*
X8622820Y-14702553D01*
X8584724Y-14702553D01*
X8565677Y-14712077D01*
X8651391Y-14826362D02*
X8632343Y-14835886D01*
X8584724Y-14835886D01*
X8565677Y-14826362D01*
X8556153Y-14807315D01*
X8556153Y-14788267D01*
X8565677Y-14769219D01*
X8584724Y-14759696D01*
X8632343Y-14759696D01*
X8651391Y-14750172D01*
X8718058Y-14702553D02*
X8794248Y-14702553D01*
X8746629Y-14635886D02*
X8746629Y-14807315D01*
X8756153Y-14826362D01*
X8775201Y-14835886D01*
X8794248Y-14835886D01*
X8937105Y-14826362D02*
X8918058Y-14835886D01*
X8879962Y-14835886D01*
X8860915Y-14826362D01*
X8851391Y-14807315D01*
X8851391Y-14731124D01*
X8860915Y-14712077D01*
X8879962Y-14702553D01*
X8918058Y-14702553D01*
X8937105Y-14712077D01*
X8946629Y-14731124D01*
X8946629Y-14750172D01*
X8851391Y-14769219D01*
X9118058Y-14835886D02*
X9118058Y-14635886D01*
X9118058Y-14826362D02*
X9099010Y-14835886D01*
X9060915Y-14835886D01*
X9041867Y-14826362D01*
X9032343Y-14816838D01*
X9022820Y-14797791D01*
X9022820Y-14740648D01*
X9032343Y-14721600D01*
X9041867Y-14712077D01*
X9060915Y-14702553D01*
X9099010Y-14702553D01*
X9118058Y-14712077D01*
X9194248Y-14912077D02*
X9203772Y-14902553D01*
X9222820Y-14873981D01*
X9232343Y-14854934D01*
X9241867Y-14826362D01*
X9251391Y-14778743D01*
X9251391Y-14740648D01*
X9241867Y-14693029D01*
X9232343Y-14664458D01*
X9222820Y-14645410D01*
X9203772Y-14616838D01*
X9194248Y-14607315D01*
D12*
X2441391Y-15009410D02*
G75*
G03*
X2441391Y-15009410I-85090J0D01*
G01*
D10*
X2803772Y-15099886D02*
X2689486Y-15099886D01*
X2746629Y-15099886D02*
X2746629Y-14899886D01*
X2727581Y-14928458D01*
X2708534Y-14947505D01*
X2689486Y-14957029D01*
X2889486Y-15080838D02*
X2899010Y-15090362D01*
X2889486Y-15099886D01*
X2879962Y-15090362D01*
X2889486Y-15080838D01*
X2889486Y-15099886D01*
X2965677Y-14899886D02*
X3099010Y-14899886D01*
X3013296Y-15099886D01*
X3213296Y-14899886D02*
X3232343Y-14899886D01*
X3251391Y-14909410D01*
X3260915Y-14918934D01*
X3270439Y-14937981D01*
X3279962Y-14976077D01*
X3279962Y-15023696D01*
X3270439Y-15061791D01*
X3260915Y-15080838D01*
X3251391Y-15090362D01*
X3232343Y-15099886D01*
X3213296Y-15099886D01*
X3194248Y-15090362D01*
X3184724Y-15080838D01*
X3175200Y-15061791D01*
X3165677Y-15023696D01*
X3165677Y-14976077D01*
X3175200Y-14937981D01*
X3184724Y-14918934D01*
X3194248Y-14909410D01*
X3213296Y-14899886D01*
X3356153Y-14918934D02*
X3365677Y-14909410D01*
X3384724Y-14899886D01*
X3432343Y-14899886D01*
X3451391Y-14909410D01*
X3460915Y-14918934D01*
X3470439Y-14937981D01*
X3470439Y-14957029D01*
X3460915Y-14985600D01*
X3346629Y-15099886D01*
X3470439Y-15099886D01*
X3556153Y-15099886D02*
X3556153Y-14966553D01*
X3556153Y-14985600D02*
X3565677Y-14976077D01*
X3584724Y-14966553D01*
X3613296Y-14966553D01*
X3632343Y-14976077D01*
X3641867Y-14995124D01*
X3641867Y-15099886D01*
X3641867Y-14995124D02*
X3651391Y-14976077D01*
X3670439Y-14966553D01*
X3699010Y-14966553D01*
X3718058Y-14976077D01*
X3727581Y-14995124D01*
X3727581Y-15099886D01*
X3822819Y-15099886D02*
X3822819Y-14966553D01*
X3822819Y-14985600D02*
X3832343Y-14976077D01*
X3851391Y-14966553D01*
X3879962Y-14966553D01*
X3899010Y-14976077D01*
X3908534Y-14995124D01*
X3908534Y-15099886D01*
X3908534Y-14995124D02*
X3918058Y-14976077D01*
X3937105Y-14966553D01*
X3965677Y-14966553D01*
X3984724Y-14976077D01*
X3994248Y-14995124D01*
X3994248Y-15099886D01*
X4384724Y-14890362D02*
X4213296Y-15147505D01*
X4641867Y-14899886D02*
X4660915Y-14899886D01*
X4679962Y-14909410D01*
X4689486Y-14918934D01*
X4699010Y-14937981D01*
X4708534Y-14976077D01*
X4708534Y-15023696D01*
X4699010Y-15061791D01*
X4689486Y-15080838D01*
X4679962Y-15090362D01*
X4660915Y-15099886D01*
X4641867Y-15099886D01*
X4622820Y-15090362D01*
X4613296Y-15080838D01*
X4603772Y-15061791D01*
X4594248Y-15023696D01*
X4594248Y-14976077D01*
X4603772Y-14937981D01*
X4613296Y-14918934D01*
X4622820Y-14909410D01*
X4641867Y-14899886D01*
X4794248Y-15080838D02*
X4803772Y-15090362D01*
X4794248Y-15099886D01*
X4784724Y-15090362D01*
X4794248Y-15080838D01*
X4794248Y-15099886D01*
X4927581Y-14899886D02*
X4946629Y-14899886D01*
X4965677Y-14909410D01*
X4975201Y-14918934D01*
X4984724Y-14937981D01*
X4994248Y-14976077D01*
X4994248Y-15023696D01*
X4984724Y-15061791D01*
X4975201Y-15080838D01*
X4965677Y-15090362D01*
X4946629Y-15099886D01*
X4927581Y-15099886D01*
X4908534Y-15090362D01*
X4899010Y-15080838D01*
X4889486Y-15061791D01*
X4879962Y-15023696D01*
X4879962Y-14976077D01*
X4889486Y-14937981D01*
X4899010Y-14918934D01*
X4908534Y-14909410D01*
X4927581Y-14899886D01*
X5165677Y-14899886D02*
X5127581Y-14899886D01*
X5108534Y-14909410D01*
X5099010Y-14918934D01*
X5079962Y-14947505D01*
X5070439Y-14985600D01*
X5070439Y-15061791D01*
X5079962Y-15080838D01*
X5089486Y-15090362D01*
X5108534Y-15099886D01*
X5146629Y-15099886D01*
X5165677Y-15090362D01*
X5175201Y-15080838D01*
X5184724Y-15061791D01*
X5184724Y-15014172D01*
X5175201Y-14995124D01*
X5165677Y-14985600D01*
X5146629Y-14976077D01*
X5108534Y-14976077D01*
X5089486Y-14985600D01*
X5079962Y-14995124D01*
X5070439Y-15014172D01*
X5251391Y-14899886D02*
X5384724Y-14899886D01*
X5299010Y-15099886D01*
X5499010Y-14899886D02*
X5518058Y-14899886D01*
X5537105Y-14909410D01*
X5546629Y-14918934D01*
X5556153Y-14937981D01*
X5565677Y-14976077D01*
X5565677Y-15023696D01*
X5556153Y-15061791D01*
X5546629Y-15080838D01*
X5537105Y-15090362D01*
X5518058Y-15099886D01*
X5499010Y-15099886D01*
X5479962Y-15090362D01*
X5470439Y-15080838D01*
X5460915Y-15061791D01*
X5451391Y-15023696D01*
X5451391Y-14976077D01*
X5460915Y-14937981D01*
X5470439Y-14918934D01*
X5479962Y-14909410D01*
X5499010Y-14899886D01*
X5641867Y-14899886D02*
X5641867Y-14937981D01*
X5718058Y-14899886D02*
X5718058Y-14937981D01*
X6013296Y-15176077D02*
X6003772Y-15166553D01*
X5984724Y-15137981D01*
X5975200Y-15118934D01*
X5965677Y-15090362D01*
X5956153Y-15042743D01*
X5956153Y-15004648D01*
X5965677Y-14957029D01*
X5975200Y-14928458D01*
X5984724Y-14909410D01*
X6003772Y-14880838D01*
X6013296Y-14871315D01*
X6118058Y-14985600D02*
X6099010Y-14976077D01*
X6089486Y-14966553D01*
X6079962Y-14947505D01*
X6079962Y-14937981D01*
X6089486Y-14918934D01*
X6099010Y-14909410D01*
X6118058Y-14899886D01*
X6156153Y-14899886D01*
X6175200Y-14909410D01*
X6184724Y-14918934D01*
X6194248Y-14937981D01*
X6194248Y-14947505D01*
X6184724Y-14966553D01*
X6175200Y-14976077D01*
X6156153Y-14985600D01*
X6118058Y-14985600D01*
X6099010Y-14995124D01*
X6089486Y-15004648D01*
X6079962Y-15023696D01*
X6079962Y-15061791D01*
X6089486Y-15080838D01*
X6099010Y-15090362D01*
X6118058Y-15099886D01*
X6156153Y-15099886D01*
X6175200Y-15090362D01*
X6184724Y-15080838D01*
X6194248Y-15061791D01*
X6194248Y-15023696D01*
X6184724Y-15004648D01*
X6175200Y-14995124D01*
X6156153Y-14985600D01*
X6365677Y-14899886D02*
X6327581Y-14899886D01*
X6308534Y-14909410D01*
X6299010Y-14918934D01*
X6279962Y-14947505D01*
X6270439Y-14985600D01*
X6270439Y-15061791D01*
X6279962Y-15080838D01*
X6289486Y-15090362D01*
X6308534Y-15099886D01*
X6346629Y-15099886D01*
X6365677Y-15090362D01*
X6375200Y-15080838D01*
X6384724Y-15061791D01*
X6384724Y-15014172D01*
X6375200Y-14995124D01*
X6365677Y-14985600D01*
X6346629Y-14976077D01*
X6308534Y-14976077D01*
X6289486Y-14985600D01*
X6279962Y-14995124D01*
X6270439Y-15014172D01*
X6622819Y-15099886D02*
X6622819Y-14899886D01*
X6708534Y-15099886D02*
X6708534Y-14995124D01*
X6699010Y-14976077D01*
X6679962Y-14966553D01*
X6651391Y-14966553D01*
X6632343Y-14976077D01*
X6622819Y-14985600D01*
X6832343Y-15099886D02*
X6813296Y-15090362D01*
X6803772Y-15080838D01*
X6794248Y-15061791D01*
X6794248Y-15004648D01*
X6803772Y-14985600D01*
X6813296Y-14976077D01*
X6832343Y-14966553D01*
X6860915Y-14966553D01*
X6879962Y-14976077D01*
X6889486Y-14985600D01*
X6899010Y-15004648D01*
X6899010Y-15061791D01*
X6889486Y-15080838D01*
X6879962Y-15090362D01*
X6860915Y-15099886D01*
X6832343Y-15099886D01*
X7013296Y-15099886D02*
X6994248Y-15090362D01*
X6984724Y-15071315D01*
X6984724Y-14899886D01*
X7165677Y-15090362D02*
X7146629Y-15099886D01*
X7108534Y-15099886D01*
X7089486Y-15090362D01*
X7079962Y-15071315D01*
X7079962Y-14995124D01*
X7089486Y-14976077D01*
X7108534Y-14966553D01*
X7146629Y-14966553D01*
X7165677Y-14976077D01*
X7175200Y-14995124D01*
X7175200Y-15014172D01*
X7079962Y-15033219D01*
X7251391Y-15090362D02*
X7270439Y-15099886D01*
X7308534Y-15099886D01*
X7327581Y-15090362D01*
X7337105Y-15071315D01*
X7337105Y-15061791D01*
X7327581Y-15042743D01*
X7308534Y-15033219D01*
X7279962Y-15033219D01*
X7260915Y-15023696D01*
X7251391Y-15004648D01*
X7251391Y-14995124D01*
X7260915Y-14976077D01*
X7279962Y-14966553D01*
X7308534Y-14966553D01*
X7327581Y-14976077D01*
X7403772Y-15176077D02*
X7413296Y-15166553D01*
X7432343Y-15137981D01*
X7441867Y-15118934D01*
X7451391Y-15090362D01*
X7460915Y-15042743D01*
X7460915Y-15004648D01*
X7451391Y-14957029D01*
X7441867Y-14928458D01*
X7432343Y-14909410D01*
X7413296Y-14880838D01*
X7403772Y-14871315D01*
X7765677Y-15176077D02*
X7756153Y-15166553D01*
X7737105Y-15137981D01*
X7727581Y-15118934D01*
X7718058Y-15090362D01*
X7708534Y-15042743D01*
X7708534Y-15004648D01*
X7718058Y-14957029D01*
X7727581Y-14928458D01*
X7737105Y-14909410D01*
X7756153Y-14880838D01*
X7765677Y-14871315D01*
X7841867Y-14966553D02*
X7841867Y-15099886D01*
X7841867Y-14985600D02*
X7851391Y-14976077D01*
X7870439Y-14966553D01*
X7899010Y-14966553D01*
X7918058Y-14976077D01*
X7927581Y-14995124D01*
X7927581Y-15099886D01*
X8051391Y-15099886D02*
X8032343Y-15090362D01*
X8022819Y-15080838D01*
X8013296Y-15061791D01*
X8013296Y-15004648D01*
X8022819Y-14985600D01*
X8032343Y-14976077D01*
X8051391Y-14966553D01*
X8079962Y-14966553D01*
X8099010Y-14976077D01*
X8108534Y-14985600D01*
X8118058Y-15004648D01*
X8118058Y-15061791D01*
X8108534Y-15080838D01*
X8099010Y-15090362D01*
X8079962Y-15099886D01*
X8051391Y-15099886D01*
X8175200Y-14966553D02*
X8251391Y-14966553D01*
X8203772Y-14899886D02*
X8203772Y-15071315D01*
X8213296Y-15090362D01*
X8232343Y-15099886D01*
X8251391Y-15099886D01*
X8470439Y-14966553D02*
X8470439Y-15166553D01*
X8470439Y-14976077D02*
X8489486Y-14966553D01*
X8527581Y-14966553D01*
X8546629Y-14976077D01*
X8556153Y-14985600D01*
X8565677Y-15004648D01*
X8565677Y-15061791D01*
X8556153Y-15080838D01*
X8546629Y-15090362D01*
X8527581Y-15099886D01*
X8489486Y-15099886D01*
X8470439Y-15090362D01*
X8679962Y-15099886D02*
X8660915Y-15090362D01*
X8651391Y-15071315D01*
X8651391Y-14899886D01*
X8841867Y-15099886D02*
X8841867Y-14995124D01*
X8832343Y-14976077D01*
X8813296Y-14966553D01*
X8775201Y-14966553D01*
X8756153Y-14976077D01*
X8841867Y-15090362D02*
X8822820Y-15099886D01*
X8775201Y-15099886D01*
X8756153Y-15090362D01*
X8746629Y-15071315D01*
X8746629Y-15052267D01*
X8756153Y-15033219D01*
X8775201Y-15023696D01*
X8822820Y-15023696D01*
X8841867Y-15014172D01*
X8908534Y-14966553D02*
X8984724Y-14966553D01*
X8937105Y-14899886D02*
X8937105Y-15071315D01*
X8946629Y-15090362D01*
X8965677Y-15099886D01*
X8984724Y-15099886D01*
X9127581Y-15090362D02*
X9108534Y-15099886D01*
X9070439Y-15099886D01*
X9051391Y-15090362D01*
X9041867Y-15071315D01*
X9041867Y-14995124D01*
X9051391Y-14976077D01*
X9070439Y-14966553D01*
X9108534Y-14966553D01*
X9127581Y-14976077D01*
X9137105Y-14995124D01*
X9137105Y-15014172D01*
X9041867Y-15033219D01*
X9308534Y-15099886D02*
X9308534Y-14899886D01*
X9308534Y-15090362D02*
X9289486Y-15099886D01*
X9251391Y-15099886D01*
X9232343Y-15090362D01*
X9222820Y-15080838D01*
X9213296Y-15061791D01*
X9213296Y-15004648D01*
X9222820Y-14985600D01*
X9232343Y-14976077D01*
X9251391Y-14966553D01*
X9289486Y-14966553D01*
X9308534Y-14976077D01*
X9384724Y-15176077D02*
X9394248Y-15166553D01*
X9413296Y-15137981D01*
X9422820Y-15118934D01*
X9432343Y-15090362D01*
X9441867Y-15042743D01*
X9441867Y-15004648D01*
X9432343Y-14957029D01*
X9422820Y-14928458D01*
X9413296Y-14909410D01*
X9394248Y-14880838D01*
X9384724Y-14871315D01*
X2341391Y-15199590D02*
X2341391Y-15399590D01*
X2241391Y-15299590D02*
X2441391Y-15299590D01*
X2679962Y-15190066D02*
X2803772Y-15190066D01*
X2737105Y-15266257D01*
X2765677Y-15266257D01*
X2784724Y-15275780D01*
X2794248Y-15285304D01*
X2803772Y-15304352D01*
X2803772Y-15351971D01*
X2794248Y-15371018D01*
X2784724Y-15380542D01*
X2765677Y-15390066D01*
X2708534Y-15390066D01*
X2689486Y-15380542D01*
X2679962Y-15371018D01*
X2889486Y-15371018D02*
X2899010Y-15380542D01*
X2889486Y-15390066D01*
X2879962Y-15380542D01*
X2889486Y-15371018D01*
X2889486Y-15390066D01*
X2994248Y-15390066D02*
X3032343Y-15390066D01*
X3051391Y-15380542D01*
X3060915Y-15371018D01*
X3079962Y-15342447D01*
X3089486Y-15304352D01*
X3089486Y-15228161D01*
X3079962Y-15209114D01*
X3070439Y-15199590D01*
X3051391Y-15190066D01*
X3013296Y-15190066D01*
X2994248Y-15199590D01*
X2984724Y-15209114D01*
X2975200Y-15228161D01*
X2975200Y-15275780D01*
X2984724Y-15294828D01*
X2994248Y-15304352D01*
X3013296Y-15313876D01*
X3051391Y-15313876D01*
X3070439Y-15304352D01*
X3079962Y-15294828D01*
X3089486Y-15275780D01*
X3203772Y-15275780D02*
X3184724Y-15266257D01*
X3175200Y-15256733D01*
X3165677Y-15237685D01*
X3165677Y-15228161D01*
X3175200Y-15209114D01*
X3184724Y-15199590D01*
X3203772Y-15190066D01*
X3241867Y-15190066D01*
X3260915Y-15199590D01*
X3270439Y-15209114D01*
X3279962Y-15228161D01*
X3279962Y-15237685D01*
X3270439Y-15256733D01*
X3260915Y-15266257D01*
X3241867Y-15275780D01*
X3203772Y-15275780D01*
X3184724Y-15285304D01*
X3175200Y-15294828D01*
X3165677Y-15313876D01*
X3165677Y-15351971D01*
X3175200Y-15371018D01*
X3184724Y-15380542D01*
X3203772Y-15390066D01*
X3241867Y-15390066D01*
X3260915Y-15380542D01*
X3270439Y-15371018D01*
X3279962Y-15351971D01*
X3279962Y-15313876D01*
X3270439Y-15294828D01*
X3260915Y-15285304D01*
X3241867Y-15275780D01*
X3394248Y-15275780D02*
X3375200Y-15266257D01*
X3365677Y-15256733D01*
X3356153Y-15237685D01*
X3356153Y-15228161D01*
X3365677Y-15209114D01*
X3375200Y-15199590D01*
X3394248Y-15190066D01*
X3432343Y-15190066D01*
X3451391Y-15199590D01*
X3460915Y-15209114D01*
X3470439Y-15228161D01*
X3470439Y-15237685D01*
X3460915Y-15256733D01*
X3451391Y-15266257D01*
X3432343Y-15275780D01*
X3394248Y-15275780D01*
X3375200Y-15285304D01*
X3365677Y-15294828D01*
X3356153Y-15313876D01*
X3356153Y-15351971D01*
X3365677Y-15371018D01*
X3375200Y-15380542D01*
X3394248Y-15390066D01*
X3432343Y-15390066D01*
X3451391Y-15380542D01*
X3460915Y-15371018D01*
X3470439Y-15351971D01*
X3470439Y-15313876D01*
X3460915Y-15294828D01*
X3451391Y-15285304D01*
X3432343Y-15275780D01*
X3556153Y-15390066D02*
X3556153Y-15256733D01*
X3556153Y-15275780D02*
X3565677Y-15266257D01*
X3584724Y-15256733D01*
X3613296Y-15256733D01*
X3632343Y-15266257D01*
X3641867Y-15285304D01*
X3641867Y-15390066D01*
X3641867Y-15285304D02*
X3651391Y-15266257D01*
X3670439Y-15256733D01*
X3699010Y-15256733D01*
X3718058Y-15266257D01*
X3727581Y-15285304D01*
X3727581Y-15390066D01*
X3822819Y-15390066D02*
X3822819Y-15256733D01*
X3822819Y-15275780D02*
X3832343Y-15266257D01*
X3851391Y-15256733D01*
X3879962Y-15256733D01*
X3899010Y-15266257D01*
X3908534Y-15285304D01*
X3908534Y-15390066D01*
X3908534Y-15285304D02*
X3918058Y-15266257D01*
X3937105Y-15256733D01*
X3965677Y-15256733D01*
X3984724Y-15266257D01*
X3994248Y-15285304D01*
X3994248Y-15390066D01*
X4384724Y-15180542D02*
X4213296Y-15437685D01*
X4641867Y-15190066D02*
X4660915Y-15190066D01*
X4679962Y-15199590D01*
X4689486Y-15209114D01*
X4699010Y-15228161D01*
X4708534Y-15266257D01*
X4708534Y-15313876D01*
X4699010Y-15351971D01*
X4689486Y-15371018D01*
X4679962Y-15380542D01*
X4660915Y-15390066D01*
X4641867Y-15390066D01*
X4622820Y-15380542D01*
X4613296Y-15371018D01*
X4603772Y-15351971D01*
X4594248Y-15313876D01*
X4594248Y-15266257D01*
X4603772Y-15228161D01*
X4613296Y-15209114D01*
X4622820Y-15199590D01*
X4641867Y-15190066D01*
X4794248Y-15371018D02*
X4803772Y-15380542D01*
X4794248Y-15390066D01*
X4784724Y-15380542D01*
X4794248Y-15371018D01*
X4794248Y-15390066D01*
X4994248Y-15390066D02*
X4879962Y-15390066D01*
X4937105Y-15390066D02*
X4937105Y-15190066D01*
X4918058Y-15218638D01*
X4899010Y-15237685D01*
X4879962Y-15247209D01*
X5175201Y-15190066D02*
X5079962Y-15190066D01*
X5070439Y-15285304D01*
X5079962Y-15275780D01*
X5099010Y-15266257D01*
X5146629Y-15266257D01*
X5165677Y-15275780D01*
X5175201Y-15285304D01*
X5184724Y-15304352D01*
X5184724Y-15351971D01*
X5175201Y-15371018D01*
X5165677Y-15380542D01*
X5146629Y-15390066D01*
X5099010Y-15390066D01*
X5079962Y-15380542D01*
X5070439Y-15371018D01*
X5251391Y-15190066D02*
X5384724Y-15190066D01*
X5299010Y-15390066D01*
X5499010Y-15190066D02*
X5518058Y-15190066D01*
X5537105Y-15199590D01*
X5546629Y-15209114D01*
X5556153Y-15228161D01*
X5565677Y-15266257D01*
X5565677Y-15313876D01*
X5556153Y-15351971D01*
X5546629Y-15371018D01*
X5537105Y-15380542D01*
X5518058Y-15390066D01*
X5499010Y-15390066D01*
X5479962Y-15380542D01*
X5470439Y-15371018D01*
X5460915Y-15351971D01*
X5451391Y-15313876D01*
X5451391Y-15266257D01*
X5460915Y-15228161D01*
X5470439Y-15209114D01*
X5479962Y-15199590D01*
X5499010Y-15190066D01*
X5641867Y-15190066D02*
X5641867Y-15228161D01*
X5718058Y-15190066D02*
X5718058Y-15228161D01*
X6013296Y-15466257D02*
X6003772Y-15456733D01*
X5984724Y-15428161D01*
X5975200Y-15409114D01*
X5965677Y-15380542D01*
X5956153Y-15332923D01*
X5956153Y-15294828D01*
X5965677Y-15247209D01*
X5975200Y-15218638D01*
X5984724Y-15199590D01*
X6003772Y-15171018D01*
X6013296Y-15161495D01*
X6175200Y-15256733D02*
X6175200Y-15390066D01*
X6127581Y-15180542D02*
X6079962Y-15323399D01*
X6203772Y-15323399D01*
X6260915Y-15190066D02*
X6384724Y-15190066D01*
X6318058Y-15266257D01*
X6346629Y-15266257D01*
X6365677Y-15275780D01*
X6375200Y-15285304D01*
X6384724Y-15304352D01*
X6384724Y-15351971D01*
X6375200Y-15371018D01*
X6365677Y-15380542D01*
X6346629Y-15390066D01*
X6289486Y-15390066D01*
X6270439Y-15380542D01*
X6260915Y-15371018D01*
X6622819Y-15390066D02*
X6622819Y-15190066D01*
X6708534Y-15390066D02*
X6708534Y-15285304D01*
X6699010Y-15266257D01*
X6679962Y-15256733D01*
X6651391Y-15256733D01*
X6632343Y-15266257D01*
X6622819Y-15275780D01*
X6832343Y-15390066D02*
X6813296Y-15380542D01*
X6803772Y-15371018D01*
X6794248Y-15351971D01*
X6794248Y-15294828D01*
X6803772Y-15275780D01*
X6813296Y-15266257D01*
X6832343Y-15256733D01*
X6860915Y-15256733D01*
X6879962Y-15266257D01*
X6889486Y-15275780D01*
X6899010Y-15294828D01*
X6899010Y-15351971D01*
X6889486Y-15371018D01*
X6879962Y-15380542D01*
X6860915Y-15390066D01*
X6832343Y-15390066D01*
X7013296Y-15390066D02*
X6994248Y-15380542D01*
X6984724Y-15361495D01*
X6984724Y-15190066D01*
X7165677Y-15380542D02*
X7146629Y-15390066D01*
X7108534Y-15390066D01*
X7089486Y-15380542D01*
X7079962Y-15361495D01*
X7079962Y-15285304D01*
X7089486Y-15266257D01*
X7108534Y-15256733D01*
X7146629Y-15256733D01*
X7165677Y-15266257D01*
X7175200Y-15285304D01*
X7175200Y-15304352D01*
X7079962Y-15323399D01*
X7251391Y-15380542D02*
X7270439Y-15390066D01*
X7308534Y-15390066D01*
X7327581Y-15380542D01*
X7337105Y-15361495D01*
X7337105Y-15351971D01*
X7327581Y-15332923D01*
X7308534Y-15323399D01*
X7279962Y-15323399D01*
X7260915Y-15313876D01*
X7251391Y-15294828D01*
X7251391Y-15285304D01*
X7260915Y-15266257D01*
X7279962Y-15256733D01*
X7308534Y-15256733D01*
X7327581Y-15266257D01*
X7403772Y-15466257D02*
X7413296Y-15456733D01*
X7432343Y-15428161D01*
X7441867Y-15409114D01*
X7451391Y-15380542D01*
X7460915Y-15332923D01*
X7460915Y-15294828D01*
X7451391Y-15247209D01*
X7441867Y-15218638D01*
X7432343Y-15199590D01*
X7413296Y-15171018D01*
X7403772Y-15161495D01*
X7765677Y-15466257D02*
X7756153Y-15456733D01*
X7737105Y-15428161D01*
X7727581Y-15409114D01*
X7718058Y-15380542D01*
X7708534Y-15332923D01*
X7708534Y-15294828D01*
X7718058Y-15247209D01*
X7727581Y-15218638D01*
X7737105Y-15199590D01*
X7756153Y-15171018D01*
X7765677Y-15161495D01*
X7841867Y-15256733D02*
X7841867Y-15390066D01*
X7841867Y-15275780D02*
X7851391Y-15266257D01*
X7870439Y-15256733D01*
X7899010Y-15256733D01*
X7918058Y-15266257D01*
X7927581Y-15285304D01*
X7927581Y-15390066D01*
X8051391Y-15390066D02*
X8032343Y-15380542D01*
X8022819Y-15371018D01*
X8013296Y-15351971D01*
X8013296Y-15294828D01*
X8022819Y-15275780D01*
X8032343Y-15266257D01*
X8051391Y-15256733D01*
X8079962Y-15256733D01*
X8099010Y-15266257D01*
X8108534Y-15275780D01*
X8118058Y-15294828D01*
X8118058Y-15351971D01*
X8108534Y-15371018D01*
X8099010Y-15380542D01*
X8079962Y-15390066D01*
X8051391Y-15390066D01*
X8175200Y-15256733D02*
X8251391Y-15256733D01*
X8203772Y-15190066D02*
X8203772Y-15361495D01*
X8213296Y-15380542D01*
X8232343Y-15390066D01*
X8251391Y-15390066D01*
X8470439Y-15256733D02*
X8470439Y-15456733D01*
X8470439Y-15266257D02*
X8489486Y-15256733D01*
X8527581Y-15256733D01*
X8546629Y-15266257D01*
X8556153Y-15275780D01*
X8565677Y-15294828D01*
X8565677Y-15351971D01*
X8556153Y-15371018D01*
X8546629Y-15380542D01*
X8527581Y-15390066D01*
X8489486Y-15390066D01*
X8470439Y-15380542D01*
X8679962Y-15390066D02*
X8660915Y-15380542D01*
X8651391Y-15361495D01*
X8651391Y-15190066D01*
X8841867Y-15390066D02*
X8841867Y-15285304D01*
X8832343Y-15266257D01*
X8813296Y-15256733D01*
X8775201Y-15256733D01*
X8756153Y-15266257D01*
X8841867Y-15380542D02*
X8822820Y-15390066D01*
X8775201Y-15390066D01*
X8756153Y-15380542D01*
X8746629Y-15361495D01*
X8746629Y-15342447D01*
X8756153Y-15323399D01*
X8775201Y-15313876D01*
X8822820Y-15313876D01*
X8841867Y-15304352D01*
X8908534Y-15256733D02*
X8984724Y-15256733D01*
X8937105Y-15190066D02*
X8937105Y-15361495D01*
X8946629Y-15380542D01*
X8965677Y-15390066D01*
X8984724Y-15390066D01*
X9127581Y-15380542D02*
X9108534Y-15390066D01*
X9070439Y-15390066D01*
X9051391Y-15380542D01*
X9041867Y-15361495D01*
X9041867Y-15285304D01*
X9051391Y-15266257D01*
X9070439Y-15256733D01*
X9108534Y-15256733D01*
X9127581Y-15266257D01*
X9137105Y-15285304D01*
X9137105Y-15304352D01*
X9041867Y-15323399D01*
X9308534Y-15390066D02*
X9308534Y-15190066D01*
X9308534Y-15380542D02*
X9289486Y-15390066D01*
X9251391Y-15390066D01*
X9232343Y-15380542D01*
X9222820Y-15371018D01*
X9213296Y-15351971D01*
X9213296Y-15294828D01*
X9222820Y-15275780D01*
X9232343Y-15266257D01*
X9251391Y-15256733D01*
X9289486Y-15256733D01*
X9308534Y-15266257D01*
X9384724Y-15466257D02*
X9394248Y-15456733D01*
X9413296Y-15428161D01*
X9422820Y-15409114D01*
X9432343Y-15380542D01*
X9441867Y-15332923D01*
X9441867Y-15294828D01*
X9432343Y-15247209D01*
X9422820Y-15218638D01*
X9413296Y-15199590D01*
X9394248Y-15171018D01*
X9384724Y-15161495D01*
M02*
