G04 #@! TF.GenerationSoftware,KiCad,Pcbnew,(6.0.10-0)*
G04 #@! TF.CreationDate,2022-12-25T19:45:21-08:00*
G04 #@! TF.ProjectId,right,72696768-742e-46b6-9963-61645f706362,rev?*
G04 #@! TF.SameCoordinates,Original*
G04 #@! TF.FileFunction,Profile,NP*
%FSLAX46Y46*%
G04 Gerber Fmt 4.6, Leading zero omitted, Abs format (unit mm)*
G04 Created by KiCad (PCBNEW (6.0.10-0)) date 2022-12-25 19:45:21*
%MOMM*%
%LPD*%
G01*
G04 APERTURE LIST*
G04 #@! TA.AperFunction,Profile*
%ADD10C,0.200000*%
G04 #@! TD*
G04 APERTURE END LIST*
D10*
X215420000Y-24800000D02*
X26920000Y-24800000D01*
X26920000Y-24800000D02*
G75*
G03*
X26170000Y-25550000I0J-750000D01*
G01*
X216170000Y-25550000D02*
G75*
G03*
X215420000Y-24800000I-750000J0D01*
G01*
X56451000Y-140954100D02*
G75*
G03*
X67566876Y-135812676I0J14587100D01*
G01*
X26170000Y-62050000D02*
G75*
G03*
X26920000Y-62800000I750000J0D01*
G01*
X30920000Y-81050000D02*
X30920000Y-63550000D01*
X39670000Y-81800000D02*
X31670000Y-81800000D01*
X40420000Y-82550000D02*
G75*
G03*
X39670000Y-81800000I-750000J0D01*
G01*
X40241526Y-101285652D02*
G75*
G03*
X40420000Y-100800000I-571526J485652D01*
G01*
X40420000Y-100800000D02*
X40420000Y-82550000D01*
X25456984Y-118684761D02*
X40241526Y-101285652D01*
X31251231Y-140460515D02*
X24752914Y-122606457D01*
X30920000Y-81050000D02*
G75*
G03*
X31670000Y-81800000I750000J0D01*
G01*
X25456984Y-118684761D02*
G75*
G03*
X24752914Y-122606457I3020016J-2566239D01*
G01*
X31956000Y-140954000D02*
X56451000Y-140954000D01*
X30920000Y-63550000D02*
G75*
G03*
X30170000Y-62800000I-750000J0D01*
G01*
X216170000Y-25550000D02*
X216170000Y-119050000D01*
X31251231Y-140460515D02*
G75*
G03*
X31956000Y-140954000I704769J256515D01*
G01*
X26170000Y-25550000D02*
X26170000Y-62050000D01*
X215420000Y-119800000D02*
X87920000Y-119800000D01*
X67566876Y-135812676D02*
X76804108Y-124941344D01*
X215420000Y-119800000D02*
G75*
G03*
X216170000Y-119050000I0J750000D01*
G01*
X30170000Y-62800000D02*
X26920000Y-62800000D01*
X87920000Y-119799900D02*
G75*
G03*
X76804108Y-124941344I0J-14587100D01*
G01*
M02*
