G04 #@! TF.GenerationSoftware,KiCad,Pcbnew,(6.0.10-0)*
G04 #@! TF.CreationDate,2022-12-25T19:45:21-08:00*
G04 #@! TF.ProjectId,right,72696768-742e-46b6-9963-61645f706362,rev?*
G04 #@! TF.SameCoordinates,Original*
G04 #@! TF.FileFunction,Copper,L2,Bot*
G04 #@! TF.FilePolarity,Positive*
%FSLAX46Y46*%
G04 Gerber Fmt 4.6, Leading zero omitted, Abs format (unit mm)*
G04 Created by KiCad (PCBNEW (6.0.10-0)) date 2022-12-25 19:45:21*
%MOMM*%
%LPD*%
G01*
G04 APERTURE LIST*
G04 Aperture macros list*
%AMHorizOval*
0 Thick line with rounded ends*
0 $1 width*
0 $2 $3 position (X,Y) of the first rounded end (center of the circle)*
0 $4 $5 position (X,Y) of the second rounded end (center of the circle)*
0 Add line between two ends*
20,1,$1,$2,$3,$4,$5,0*
0 Add two circle primitives to create the rounded ends*
1,1,$1,$2,$3*
1,1,$1,$4,$5*%
%AMRotRect*
0 Rectangle, with rotation*
0 The origin of the aperture is its center*
0 $1 length*
0 $2 width*
0 $3 Rotation angle, in degrees counterclockwise*
0 Add horizontal line*
21,1,$1,$2,0,0,$3*%
G04 Aperture macros list end*
G04 #@! TA.AperFunction,ComponentPad*
%ADD10R,1.600000X1.600000*%
G04 #@! TD*
G04 #@! TA.AperFunction,ComponentPad*
%ADD11C,1.600000*%
G04 #@! TD*
G04 #@! TA.AperFunction,ComponentPad*
%ADD12RotRect,1.600000X1.600000X20.000000*%
G04 #@! TD*
G04 #@! TA.AperFunction,ComponentPad*
%ADD13HorizOval,2.500000X-0.604462X-0.948815X0.604462X0.948815X0*%
G04 #@! TD*
G04 #@! TA.AperFunction,ComponentPad*
%ADD14HorizOval,2.500000X-0.019724X-0.289328X0.019724X0.289328X0*%
G04 #@! TD*
G04 #@! TA.AperFunction,ComponentPad*
%ADD15HorizOval,2.500000X-1.098333X0.243495X1.098333X-0.243495X0*%
G04 #@! TD*
G04 #@! TA.AperFunction,ComponentPad*
%ADD16HorizOval,2.500000X0.278626X0.080421X-0.278626X-0.080421X0*%
G04 #@! TD*
G04 #@! TA.AperFunction,ComponentPad*
%ADD17O,1.600000X2.000000*%
G04 #@! TD*
G04 #@! TA.AperFunction,ComponentPad*
%ADD18R,1.752600X1.752600*%
G04 #@! TD*
G04 #@! TA.AperFunction,ComponentPad*
%ADD19C,1.752600*%
G04 #@! TD*
G04 #@! TA.AperFunction,SMDPad,CuDef*
%ADD20R,1.400000X2.100000*%
G04 #@! TD*
G04 #@! TA.AperFunction,ViaPad*
%ADD21C,0.800000*%
G04 #@! TD*
G04 #@! TA.AperFunction,Conductor*
%ADD22C,0.250000*%
G04 #@! TD*
G04 APERTURE END LIST*
D10*
X54750000Y-36400000D03*
D11*
X54750000Y-28600000D03*
D10*
X73750000Y-36400000D03*
D11*
X73750000Y-28600000D03*
D10*
X92500000Y-36400000D03*
D11*
X92500000Y-28600000D03*
D10*
X31680000Y-43910000D03*
D11*
X39480000Y-43910000D03*
D10*
X36480000Y-62930000D03*
D11*
X44280000Y-62930000D03*
D10*
X45980000Y-81940000D03*
D11*
X53780000Y-81940000D03*
D12*
X29955199Y-120873879D03*
D11*
X37284801Y-118206121D03*
D10*
X51020000Y-43910000D03*
D11*
X58820000Y-43910000D03*
D10*
X55450000Y-62930000D03*
D11*
X63250000Y-62930000D03*
D10*
X65020000Y-81960000D03*
D11*
X72820000Y-81960000D03*
D12*
X45605199Y-107703879D03*
D11*
X52934801Y-105036121D03*
D10*
X69870000Y-43890000D03*
D11*
X77670000Y-43890000D03*
D10*
X74800000Y-62900000D03*
D11*
X82600000Y-62900000D03*
D10*
X83950000Y-81930000D03*
D11*
X91750000Y-81930000D03*
D10*
X71885000Y-100900000D03*
D11*
X79685000Y-100900000D03*
D10*
X111750000Y-36400000D03*
D11*
X111750000Y-28600000D03*
D10*
X88950000Y-43940000D03*
D11*
X96750000Y-43940000D03*
D10*
X93570000Y-62940000D03*
D11*
X101370000Y-62940000D03*
D10*
X102980000Y-81880000D03*
D11*
X110780000Y-81880000D03*
D10*
X122200000Y-100910000D03*
D11*
X130000000Y-100910000D03*
D10*
X130500000Y-36400000D03*
D11*
X130500000Y-28600000D03*
D10*
X107960000Y-43940000D03*
D11*
X115760000Y-43940000D03*
D10*
X112530000Y-62910000D03*
D11*
X120330000Y-62910000D03*
D10*
X121940000Y-81930000D03*
D11*
X129740000Y-81930000D03*
D10*
X143410000Y-100900000D03*
D11*
X151210000Y-100900000D03*
D10*
X149750000Y-36400000D03*
D11*
X149750000Y-28600000D03*
D10*
X126740000Y-43950000D03*
D11*
X134540000Y-43950000D03*
D10*
X131580000Y-62910000D03*
D11*
X139380000Y-62910000D03*
D10*
X141020000Y-81910000D03*
D11*
X148820000Y-81910000D03*
D10*
X164730000Y-100690000D03*
D11*
X172530000Y-100690000D03*
D10*
X168500000Y-36400000D03*
D11*
X168500000Y-28600000D03*
D10*
X145600000Y-43970000D03*
D11*
X153400000Y-43970000D03*
D10*
X150460000Y-62920000D03*
D11*
X158260000Y-62920000D03*
D10*
X162360000Y-81930000D03*
D11*
X170160000Y-81930000D03*
D10*
X183730000Y-100710000D03*
D11*
X191530000Y-100710000D03*
D10*
X173500000Y-36400000D03*
D11*
X173500000Y-28600000D03*
D10*
X165030000Y-43940000D03*
D11*
X172830000Y-43940000D03*
D10*
X176560000Y-62930000D03*
D11*
X184360000Y-62930000D03*
D10*
X183670000Y-81680000D03*
D11*
X191470000Y-81680000D03*
D10*
X202660000Y-100670000D03*
D11*
X210460000Y-100670000D03*
D10*
X183830000Y-43930000D03*
D11*
X191630000Y-43930000D03*
D13*
X60925000Y-30820000D03*
D14*
X66700000Y-29550000D03*
D13*
X79945000Y-30840000D03*
D14*
X85720000Y-29570000D03*
D13*
X32405000Y-49810000D03*
D14*
X38180000Y-48540000D03*
D13*
X37165000Y-68820000D03*
D14*
X42940000Y-67550000D03*
D13*
X46695000Y-87830000D03*
D14*
X52470000Y-86560000D03*
D15*
X34765558Y-132622610D03*
D16*
X31596982Y-127630251D03*
D13*
X51425000Y-49810000D03*
D14*
X57200000Y-48540000D03*
D13*
X56145000Y-68830000D03*
D14*
X61920000Y-67560000D03*
D13*
X65655000Y-87840000D03*
D14*
X71430000Y-86570000D03*
D13*
X70445000Y-49810000D03*
D14*
X76220000Y-48540000D03*
D13*
X75205000Y-68810000D03*
D14*
X80980000Y-67540000D03*
D13*
X84675000Y-87820000D03*
D14*
X90450000Y-86550000D03*
D13*
X72785000Y-106810000D03*
D14*
X78560000Y-105540000D03*
D13*
X98935000Y-30860000D03*
D14*
X104710000Y-29590000D03*
D13*
X89455000Y-49820000D03*
D14*
X95230000Y-48550000D03*
D13*
X94175000Y-68810000D03*
D14*
X99950000Y-67540000D03*
D13*
X103665000Y-87810000D03*
D14*
X109440000Y-86540000D03*
D13*
X117945000Y-30810000D03*
D14*
X123720000Y-29540000D03*
D13*
X108415000Y-49830000D03*
D14*
X114190000Y-48560000D03*
D13*
X113175000Y-68820000D03*
D14*
X118950000Y-67550000D03*
D13*
X122675000Y-87810000D03*
D14*
X128450000Y-86540000D03*
D13*
X144025000Y-106800000D03*
D14*
X149800000Y-105530000D03*
D13*
X136945000Y-30820000D03*
D14*
X142720000Y-29550000D03*
D13*
X127415000Y-49840000D03*
D14*
X133190000Y-48570000D03*
D13*
X132185000Y-68820000D03*
D14*
X137960000Y-67550000D03*
D13*
X141685000Y-87830000D03*
D14*
X147460000Y-86560000D03*
D13*
X165215000Y-106590000D03*
D14*
X170990000Y-105320000D03*
D13*
X155920000Y-30820000D03*
D14*
X161695000Y-29550000D03*
D13*
X146425000Y-49850000D03*
D14*
X152200000Y-48580000D03*
D13*
X151185000Y-68820000D03*
D14*
X156960000Y-67550000D03*
D13*
X163055000Y-87830000D03*
D14*
X168830000Y-86560000D03*
D13*
X184225000Y-106590000D03*
D14*
X190000000Y-105320000D03*
D13*
X179675000Y-30840000D03*
D14*
X185450000Y-29570000D03*
D13*
X165425000Y-49840000D03*
D14*
X171200000Y-48570000D03*
D13*
X177305000Y-68800000D03*
D14*
X183080000Y-67530000D03*
D13*
X203225000Y-106580000D03*
D14*
X209000000Y-105310000D03*
D13*
X184435000Y-49820000D03*
D14*
X190210000Y-48550000D03*
D17*
X28390000Y-37110000D03*
X32990000Y-36010000D03*
X32990000Y-32010000D03*
X32990000Y-29010000D03*
D13*
X122785000Y-106810000D03*
D14*
X128560000Y-105540000D03*
D13*
X41925000Y-30820000D03*
D14*
X47700000Y-29550000D03*
D15*
X50245558Y-119502610D03*
D16*
X47076982Y-114510251D03*
D10*
X196750000Y-75400000D03*
D11*
X196750000Y-67600000D03*
D10*
X202180000Y-81910000D03*
D11*
X209980000Y-81910000D03*
D13*
X202955000Y-68790000D03*
D14*
X208730000Y-67520000D03*
D13*
X184225000Y-87580000D03*
D14*
X190000000Y-86310000D03*
D13*
X202945000Y-87820000D03*
D14*
X208720000Y-86550000D03*
D18*
X214390000Y-33114750D03*
D19*
X214390000Y-35654750D03*
X214390000Y-38194750D03*
X214390000Y-40734750D03*
X214390000Y-43274750D03*
X214390000Y-45814750D03*
X214390000Y-48354750D03*
X214390000Y-50894750D03*
X214390000Y-53434750D03*
X214390000Y-55974750D03*
X214390000Y-58514750D03*
X214390000Y-61054750D03*
X199150000Y-61054750D03*
X199150000Y-58514750D03*
X199150000Y-55974750D03*
X199150000Y-53434750D03*
X199150000Y-50894750D03*
X199150000Y-48354750D03*
X199150000Y-45814750D03*
X199150000Y-43274750D03*
X199150000Y-40734750D03*
X199150000Y-38194750D03*
X199150000Y-35654750D03*
X199150000Y-33114750D03*
D20*
X195750000Y-39550000D03*
X195750000Y-30450000D03*
X191250000Y-39550000D03*
X191250000Y-30450000D03*
D21*
X188750000Y-30500000D03*
D22*
X38180000Y-48540000D02*
X47700000Y-39020000D01*
X207000000Y-25250000D02*
X52000000Y-25250000D01*
X48500000Y-80750000D02*
X48500000Y-68750000D01*
X52470000Y-84720000D02*
X48500000Y-80750000D01*
X42500000Y-104000000D02*
X52470000Y-94030000D01*
X52470000Y-86560000D02*
X52470000Y-84720000D01*
X47300000Y-67550000D02*
X42940000Y-67550000D01*
X52000000Y-25250000D02*
X47700000Y-29550000D01*
X47700000Y-39020000D02*
X47700000Y-29550000D01*
X214390000Y-43274750D02*
X209500000Y-38384750D01*
X209500000Y-38384750D02*
X209500000Y-27750000D01*
X42500000Y-118042585D02*
X42500000Y-104000000D01*
X48500000Y-68750000D02*
X47300000Y-67550000D01*
X42940000Y-67550000D02*
X42940000Y-53300000D01*
X209500000Y-27750000D02*
X207000000Y-25250000D01*
X32912334Y-127630251D02*
X42500000Y-118042585D01*
X52470000Y-94030000D02*
X52470000Y-86560000D01*
X42940000Y-53300000D02*
X38180000Y-48540000D01*
X31596982Y-127630251D02*
X32912334Y-127630251D01*
X209000000Y-28250000D02*
X206450000Y-25700000D01*
X214390000Y-45814750D02*
X209000000Y-40424750D01*
X71430000Y-77070000D02*
X61920000Y-67560000D01*
X209000000Y-40424750D02*
X209000000Y-28250000D01*
X71430000Y-92190133D02*
X71430000Y-86570000D01*
X66700000Y-39040000D02*
X66700000Y-29550000D01*
X206450000Y-25700000D02*
X70550000Y-25700000D01*
X47076982Y-114510251D02*
X49109882Y-114510251D01*
X71430000Y-86570000D02*
X71430000Y-77070000D01*
X49109882Y-114510251D02*
X71430000Y-92190133D01*
X61920000Y-67560000D02*
X61920000Y-53260000D01*
X70550000Y-25700000D02*
X66700000Y-29550000D01*
X57200000Y-48540000D02*
X66700000Y-39040000D01*
X61920000Y-53260000D02*
X57200000Y-48540000D01*
X90450000Y-93650000D02*
X90450000Y-86550000D01*
X208500000Y-28386396D02*
X206263604Y-26150000D01*
X78710000Y-48540000D02*
X85720000Y-41530000D01*
X78560000Y-105540000D02*
X90450000Y-93650000D01*
X76220000Y-48540000D02*
X78710000Y-48540000D01*
X90450000Y-77506314D02*
X80980000Y-68036314D01*
X88330000Y-29570000D02*
X85720000Y-29570000D01*
X80980000Y-68036314D02*
X80980000Y-67540000D01*
X208500000Y-42464750D02*
X208500000Y-28386396D01*
X90450000Y-86550000D02*
X90450000Y-77506314D01*
X85720000Y-41530000D02*
X85720000Y-29570000D01*
X91750000Y-26150000D02*
X88330000Y-29570000D01*
X80980000Y-53796314D02*
X76220000Y-49036314D01*
X80980000Y-67540000D02*
X80980000Y-53796314D01*
X76220000Y-49036314D02*
X76220000Y-48540000D01*
X206263604Y-26150000D02*
X91750000Y-26150000D01*
X214390000Y-48354750D02*
X208500000Y-42464750D01*
X109440000Y-77030000D02*
X99950000Y-67540000D01*
X99950000Y-53270000D02*
X95230000Y-48550000D01*
X208000000Y-29250000D02*
X205350000Y-26600000D01*
X214390000Y-50894750D02*
X208000000Y-44504750D01*
X128560000Y-105540000D02*
X128560000Y-103750672D01*
X111349328Y-86540000D02*
X109440000Y-86540000D01*
X95230000Y-48550000D02*
X104710000Y-39070000D01*
X128560000Y-103750672D02*
X111349328Y-86540000D01*
X109440000Y-86540000D02*
X109440000Y-77030000D01*
X99950000Y-67540000D02*
X99950000Y-53270000D01*
X205350000Y-26600000D02*
X107700000Y-26600000D01*
X107700000Y-26600000D02*
X104710000Y-29590000D01*
X104710000Y-39070000D02*
X104710000Y-29590000D01*
X208000000Y-44504750D02*
X208000000Y-29250000D01*
X122639867Y-29540000D02*
X123720000Y-29540000D01*
X214390000Y-53434750D02*
X207431802Y-46476552D01*
X129000000Y-27050000D02*
X126510000Y-29540000D01*
X128450000Y-77546314D02*
X118950000Y-68046314D01*
X118950000Y-68046314D02*
X118950000Y-67550000D01*
X114190000Y-48560000D02*
X118831099Y-43918901D01*
X149800000Y-105530000D02*
X149800000Y-105220948D01*
X205163604Y-27050000D02*
X129000000Y-27050000D01*
X149800000Y-105220948D02*
X131119052Y-86540000D01*
X118831099Y-43918901D02*
X118831099Y-33348768D01*
X207431802Y-46476552D02*
X207431802Y-29318198D01*
X118831099Y-33348768D02*
X122639867Y-29540000D01*
X118950000Y-53320000D02*
X114190000Y-48560000D01*
X128450000Y-86540000D02*
X128450000Y-77546314D01*
X207431802Y-29318198D02*
X205163604Y-27050000D01*
X118950000Y-67550000D02*
X118950000Y-53320000D01*
X126510000Y-29540000D02*
X123720000Y-29540000D01*
X131119052Y-86540000D02*
X128450000Y-86540000D01*
X213188700Y-59716050D02*
X213188700Y-115061300D01*
X213188700Y-115061300D02*
X211000000Y-117250000D01*
X154019328Y-86560000D02*
X147460000Y-86560000D01*
X211000000Y-117250000D02*
X182920000Y-117250000D01*
X170990000Y-103530672D02*
X154019328Y-86560000D01*
X147460000Y-86560000D02*
X147460000Y-77050000D01*
X137960000Y-67550000D02*
X137960000Y-53340000D01*
X142720000Y-39040000D02*
X142720000Y-29550000D01*
X182920000Y-117250000D02*
X170990000Y-105320000D01*
X133190000Y-48570000D02*
X142720000Y-39040000D01*
X170990000Y-105320000D02*
X170990000Y-103530672D01*
X137960000Y-53340000D02*
X133190000Y-48570000D01*
X214390000Y-58514750D02*
X213188700Y-59716050D01*
X147460000Y-77050000D02*
X137960000Y-67550000D01*
X168830000Y-86560000D02*
X168830000Y-79420000D01*
X190000000Y-105320000D02*
X190000000Y-103530672D01*
X152200000Y-48580000D02*
X161695000Y-39085000D01*
X209500000Y-110426314D02*
X209500000Y-113750000D01*
X156960000Y-53340000D02*
X152200000Y-48580000D01*
X200180000Y-115500000D02*
X190000000Y-105320000D01*
X161695000Y-39085000D02*
X161695000Y-29550000D01*
X168830000Y-79420000D02*
X156960000Y-67550000D01*
X207750000Y-115500000D02*
X200180000Y-115500000D01*
X212738700Y-107187614D02*
X209500000Y-110426314D01*
X190000000Y-103530672D02*
X173029328Y-86560000D01*
X156960000Y-67550000D02*
X156960000Y-53340000D01*
X209500000Y-113750000D02*
X207750000Y-115500000D01*
X173029328Y-86560000D02*
X168830000Y-86560000D01*
X212738700Y-57626050D02*
X212738700Y-107187614D01*
X214390000Y-55974750D02*
X212738700Y-57626050D01*
X199150000Y-61054750D02*
X195695250Y-61054750D01*
X172680276Y-48570000D02*
X185450000Y-35800276D01*
X195695250Y-61054750D02*
X189220000Y-67530000D01*
X183080000Y-78840000D02*
X190000000Y-85760000D01*
X183080000Y-67530000D02*
X183080000Y-60946314D01*
X189220000Y-67530000D02*
X183080000Y-67530000D01*
X183080000Y-60946314D02*
X171200000Y-49066314D01*
X183080000Y-67530000D02*
X183080000Y-78840000D01*
X171200000Y-48570000D02*
X172680276Y-48570000D01*
X185450000Y-35800276D02*
X185450000Y-29570000D01*
X171200000Y-49066314D02*
X171200000Y-48570000D01*
X190000000Y-85760000D02*
X190000000Y-86310000D01*
X195250000Y-56750000D02*
X197014750Y-58514750D01*
X195250000Y-53899052D02*
X195250000Y-56750000D01*
X190210000Y-48859052D02*
X195250000Y-53899052D01*
X208155250Y-67520000D02*
X208730000Y-67520000D01*
X190210000Y-48550000D02*
X190210000Y-48859052D01*
X208720000Y-86550000D02*
X208720000Y-105030000D01*
X199150000Y-58514750D02*
X208155250Y-67520000D01*
X208730000Y-67520000D02*
X208730000Y-86540000D01*
X208730000Y-86540000D02*
X208720000Y-86550000D01*
X197014750Y-58514750D02*
X199150000Y-58514750D01*
X208720000Y-105030000D02*
X209000000Y-105310000D01*
X195750000Y-34794750D02*
X195750000Y-30450000D01*
X199150000Y-38194750D02*
X195750000Y-34794750D01*
X191250000Y-30450000D02*
X188800000Y-30450000D01*
X188800000Y-30450000D02*
X188750000Y-30500000D01*
X202955000Y-72545000D02*
X202955000Y-68790000D01*
X200100000Y-75400000D02*
X202955000Y-72545000D01*
X196750000Y-75400000D02*
X200100000Y-75400000D01*
M02*
