G04 #@! TF.GenerationSoftware,KiCad,Pcbnew,(6.0.10-0)*
G04 #@! TF.CreationDate,2022-12-25T19:45:21-08:00*
G04 #@! TF.ProjectId,right,72696768-742e-46b6-9963-61645f706362,rev?*
G04 #@! TF.SameCoordinates,Original*
G04 #@! TF.FileFunction,Soldermask,Top*
G04 #@! TF.FilePolarity,Negative*
%FSLAX46Y46*%
G04 Gerber Fmt 4.6, Leading zero omitted, Abs format (unit mm)*
G04 Created by KiCad (PCBNEW (6.0.10-0)) date 2022-12-25 19:45:21*
%MOMM*%
%LPD*%
G01*
G04 APERTURE LIST*
G04 Aperture macros list*
%AMHorizOval*
0 Thick line with rounded ends*
0 $1 width*
0 $2 $3 position (X,Y) of the first rounded end (center of the circle)*
0 $4 $5 position (X,Y) of the second rounded end (center of the circle)*
0 Add line between two ends*
20,1,$1,$2,$3,$4,$5,0*
0 Add two circle primitives to create the rounded ends*
1,1,$1,$2,$3*
1,1,$1,$4,$5*%
%AMRotRect*
0 Rectangle, with rotation*
0 The origin of the aperture is its center*
0 $1 length*
0 $2 width*
0 $3 Rotation angle, in degrees counterclockwise*
0 Add horizontal line*
21,1,$1,$2,0,0,$3*%
G04 Aperture macros list end*
%ADD10R,1.600000X1.600000*%
%ADD11R,1.200000X1.200000*%
%ADD12C,1.600000*%
%ADD13RotRect,1.600000X1.600000X20.000000*%
%ADD14RotRect,1.200000X1.200000X20.000000*%
%ADD15HorizOval,2.500000X-0.604462X-0.948815X0.604462X0.948815X0*%
%ADD16HorizOval,2.500000X-0.019724X-0.289328X0.019724X0.289328X0*%
%ADD17HorizOval,2.500000X-1.098333X0.243495X1.098333X-0.243495X0*%
%ADD18HorizOval,2.500000X0.278626X0.080421X-0.278626X-0.080421X0*%
%ADD19C,0.800000*%
%ADD20O,1.600000X2.000000*%
%ADD21R,1.752600X1.752600*%
%ADD22C,1.752600*%
G04 APERTURE END LIST*
D10*
X54750000Y-36400000D03*
D11*
X54750000Y-34075000D03*
X54750000Y-30925000D03*
D12*
X54750000Y-28600000D03*
D10*
X73750000Y-36400000D03*
D11*
X73750000Y-34075000D03*
D12*
X73750000Y-28600000D03*
D11*
X73750000Y-30925000D03*
X92500000Y-34075000D03*
D10*
X92500000Y-36400000D03*
D11*
X92500000Y-30925000D03*
D12*
X92500000Y-28600000D03*
D11*
X34005000Y-43910000D03*
D10*
X31680000Y-43910000D03*
D11*
X37155000Y-43910000D03*
D12*
X39480000Y-43910000D03*
D10*
X36480000Y-62930000D03*
D11*
X38805000Y-62930000D03*
D12*
X44280000Y-62930000D03*
D11*
X41955000Y-62930000D03*
D10*
X45980000Y-81940000D03*
D11*
X48305000Y-81940000D03*
D12*
X53780000Y-81940000D03*
D11*
X51455000Y-81940000D03*
D13*
X29955199Y-120873879D03*
D14*
X32139984Y-120078682D03*
X35100016Y-119001318D03*
D12*
X37284801Y-118206121D03*
D11*
X53345000Y-43910000D03*
D10*
X51020000Y-43910000D03*
D11*
X56495000Y-43910000D03*
D12*
X58820000Y-43910000D03*
D10*
X55450000Y-62930000D03*
D11*
X57775000Y-62930000D03*
D12*
X63250000Y-62930000D03*
D11*
X60925000Y-62930000D03*
X67345000Y-81960000D03*
D10*
X65020000Y-81960000D03*
D11*
X70495000Y-81960000D03*
D12*
X72820000Y-81960000D03*
D14*
X47789984Y-106908682D03*
D13*
X45605199Y-107703879D03*
D14*
X50750016Y-105831318D03*
D12*
X52934801Y-105036121D03*
D10*
X69870000Y-43890000D03*
D11*
X72195000Y-43890000D03*
X75345000Y-43890000D03*
D12*
X77670000Y-43890000D03*
D10*
X74800000Y-62900000D03*
D11*
X77125000Y-62900000D03*
X80275000Y-62900000D03*
D12*
X82600000Y-62900000D03*
D11*
X86275000Y-81930000D03*
D10*
X83950000Y-81930000D03*
D11*
X89425000Y-81930000D03*
D12*
X91750000Y-81930000D03*
D11*
X74210000Y-100900000D03*
D10*
X71885000Y-100900000D03*
D12*
X79685000Y-100900000D03*
D11*
X77360000Y-100900000D03*
X111750000Y-34075000D03*
D10*
X111750000Y-36400000D03*
D11*
X111750000Y-30925000D03*
D12*
X111750000Y-28600000D03*
D11*
X91275000Y-43940000D03*
D10*
X88950000Y-43940000D03*
D11*
X94425000Y-43940000D03*
D12*
X96750000Y-43940000D03*
D10*
X93570000Y-62940000D03*
D11*
X95895000Y-62940000D03*
X99045000Y-62940000D03*
D12*
X101370000Y-62940000D03*
D10*
X102980000Y-81880000D03*
D11*
X105305000Y-81880000D03*
D12*
X110780000Y-81880000D03*
D11*
X108455000Y-81880000D03*
D10*
X122200000Y-100910000D03*
D11*
X124525000Y-100910000D03*
D12*
X130000000Y-100910000D03*
D11*
X127675000Y-100910000D03*
X130500000Y-34075000D03*
D10*
X130500000Y-36400000D03*
D12*
X130500000Y-28600000D03*
D11*
X130500000Y-30925000D03*
D10*
X107960000Y-43940000D03*
D11*
X110285000Y-43940000D03*
X113435000Y-43940000D03*
D12*
X115760000Y-43940000D03*
D11*
X114855000Y-62910000D03*
D10*
X112530000Y-62910000D03*
D11*
X118005000Y-62910000D03*
D12*
X120330000Y-62910000D03*
D10*
X121940000Y-81930000D03*
D11*
X124265000Y-81930000D03*
D12*
X129740000Y-81930000D03*
D11*
X127415000Y-81930000D03*
D10*
X143410000Y-100900000D03*
D11*
X145735000Y-100900000D03*
X148885000Y-100900000D03*
D12*
X151210000Y-100900000D03*
D10*
X149750000Y-36400000D03*
D11*
X149750000Y-34075000D03*
X149750000Y-30925000D03*
D12*
X149750000Y-28600000D03*
D11*
X129065000Y-43950000D03*
D10*
X126740000Y-43950000D03*
D11*
X132215000Y-43950000D03*
D12*
X134540000Y-43950000D03*
D10*
X131580000Y-62910000D03*
D11*
X133905000Y-62910000D03*
X137055000Y-62910000D03*
D12*
X139380000Y-62910000D03*
D11*
X143345000Y-81910000D03*
D10*
X141020000Y-81910000D03*
D11*
X146495000Y-81910000D03*
D12*
X148820000Y-81910000D03*
D10*
X164730000Y-100690000D03*
D11*
X167055000Y-100690000D03*
X170205000Y-100690000D03*
D12*
X172530000Y-100690000D03*
D10*
X168500000Y-36400000D03*
D11*
X168500000Y-34075000D03*
X168500000Y-30925000D03*
D12*
X168500000Y-28600000D03*
D11*
X147925000Y-43970000D03*
D10*
X145600000Y-43970000D03*
D12*
X153400000Y-43970000D03*
D11*
X151075000Y-43970000D03*
D10*
X150460000Y-62920000D03*
D11*
X152785000Y-62920000D03*
X155935000Y-62920000D03*
D12*
X158260000Y-62920000D03*
D11*
X164685000Y-81930000D03*
D10*
X162360000Y-81930000D03*
D12*
X170160000Y-81930000D03*
D11*
X167835000Y-81930000D03*
D10*
X183730000Y-100710000D03*
D11*
X186055000Y-100710000D03*
X189205000Y-100710000D03*
D12*
X191530000Y-100710000D03*
D11*
X173500000Y-34075000D03*
D10*
X173500000Y-36400000D03*
D11*
X173500000Y-30925000D03*
D12*
X173500000Y-28600000D03*
D11*
X167355000Y-43940000D03*
D10*
X165030000Y-43940000D03*
D11*
X170505000Y-43940000D03*
D12*
X172830000Y-43940000D03*
D11*
X178885000Y-62930000D03*
D10*
X176560000Y-62930000D03*
D11*
X182035000Y-62930000D03*
D12*
X184360000Y-62930000D03*
D10*
X183670000Y-81680000D03*
D11*
X185995000Y-81680000D03*
D12*
X191470000Y-81680000D03*
D11*
X189145000Y-81680000D03*
X204985000Y-100670000D03*
D10*
X202660000Y-100670000D03*
D11*
X208135000Y-100670000D03*
D12*
X210460000Y-100670000D03*
D10*
X183830000Y-43930000D03*
D11*
X186155000Y-43930000D03*
X189305000Y-43930000D03*
D12*
X191630000Y-43930000D03*
D15*
X60925000Y-30820000D03*
D16*
X66700000Y-29550000D03*
D15*
X79945000Y-30840000D03*
D16*
X85720000Y-29570000D03*
D15*
X32405000Y-49810000D03*
D16*
X38180000Y-48540000D03*
D15*
X37165000Y-68820000D03*
D16*
X42940000Y-67550000D03*
D15*
X46695000Y-87830000D03*
D16*
X52470000Y-86560000D03*
D17*
X34765558Y-132622610D03*
D18*
X31596982Y-127630251D03*
D15*
X51425000Y-49810000D03*
D16*
X57200000Y-48540000D03*
D15*
X56145000Y-68830000D03*
D16*
X61920000Y-67560000D03*
D15*
X65655000Y-87840000D03*
D16*
X71430000Y-86570000D03*
D15*
X70445000Y-49810000D03*
D16*
X76220000Y-48540000D03*
D15*
X75205000Y-68810000D03*
D16*
X80980000Y-67540000D03*
D15*
X84675000Y-87820000D03*
D16*
X90450000Y-86550000D03*
D15*
X72785000Y-106810000D03*
D16*
X78560000Y-105540000D03*
D15*
X98935000Y-30860000D03*
D16*
X104710000Y-29590000D03*
D15*
X89455000Y-49820000D03*
D16*
X95230000Y-48550000D03*
D15*
X94175000Y-68810000D03*
D16*
X99950000Y-67540000D03*
D15*
X103665000Y-87810000D03*
D16*
X109440000Y-86540000D03*
D15*
X117945000Y-30810000D03*
D16*
X123720000Y-29540000D03*
D15*
X108415000Y-49830000D03*
D16*
X114190000Y-48560000D03*
D15*
X113175000Y-68820000D03*
D16*
X118950000Y-67550000D03*
D15*
X122675000Y-87810000D03*
D16*
X128450000Y-86540000D03*
D15*
X144025000Y-106800000D03*
D16*
X149800000Y-105530000D03*
D15*
X136945000Y-30820000D03*
D16*
X142720000Y-29550000D03*
D15*
X127415000Y-49840000D03*
D16*
X133190000Y-48570000D03*
D15*
X132185000Y-68820000D03*
D16*
X137960000Y-67550000D03*
D15*
X141685000Y-87830000D03*
D16*
X147460000Y-86560000D03*
D15*
X165215000Y-106590000D03*
D16*
X170990000Y-105320000D03*
D15*
X155920000Y-30820000D03*
D16*
X161695000Y-29550000D03*
D15*
X146425000Y-49850000D03*
D16*
X152200000Y-48580000D03*
D15*
X151185000Y-68820000D03*
D16*
X156960000Y-67550000D03*
D15*
X163055000Y-87830000D03*
D16*
X168830000Y-86560000D03*
D15*
X184225000Y-106590000D03*
D16*
X190000000Y-105320000D03*
D15*
X179675000Y-30840000D03*
D16*
X185450000Y-29570000D03*
D15*
X165425000Y-49840000D03*
D16*
X171200000Y-48570000D03*
D15*
X177305000Y-68800000D03*
D16*
X183080000Y-67530000D03*
D15*
X203225000Y-106580000D03*
D16*
X209000000Y-105310000D03*
D15*
X184435000Y-49820000D03*
D16*
X190210000Y-48550000D03*
D19*
X30690000Y-34410000D03*
X30690000Y-27410000D03*
D20*
X28390000Y-37110000D03*
X32990000Y-36010000D03*
X32990000Y-32010000D03*
X32990000Y-29010000D03*
D15*
X122785000Y-106810000D03*
D16*
X128560000Y-105540000D03*
D15*
X41925000Y-30820000D03*
D16*
X47700000Y-29550000D03*
D17*
X50245558Y-119502610D03*
D18*
X47076982Y-114510251D03*
D10*
X196750000Y-75400000D03*
D11*
X196750000Y-73075000D03*
X196750000Y-69925000D03*
D12*
X196750000Y-67600000D03*
D11*
X204505000Y-81910000D03*
D10*
X202180000Y-81910000D03*
D12*
X209980000Y-81910000D03*
D11*
X207655000Y-81910000D03*
D15*
X202955000Y-68790000D03*
D16*
X208730000Y-67520000D03*
D15*
X184225000Y-87580000D03*
D16*
X190000000Y-86310000D03*
D15*
X202945000Y-87820000D03*
D16*
X208720000Y-86550000D03*
D21*
X214390000Y-33114750D03*
D22*
X214390000Y-35654750D03*
X214390000Y-38194750D03*
X214390000Y-40734750D03*
X214390000Y-43274750D03*
X214390000Y-45814750D03*
X214390000Y-48354750D03*
X214390000Y-50894750D03*
X214390000Y-53434750D03*
X214390000Y-55974750D03*
X214390000Y-58514750D03*
X214390000Y-61054750D03*
X199150000Y-61054750D03*
X199150000Y-58514750D03*
X199150000Y-55974750D03*
X199150000Y-53434750D03*
X199150000Y-50894750D03*
X199150000Y-48354750D03*
X199150000Y-45814750D03*
X199150000Y-43274750D03*
X199150000Y-40734750D03*
X199150000Y-38194750D03*
X199150000Y-35654750D03*
X199150000Y-33114750D03*
M02*
