G04 #@! TF.GenerationSoftware,KiCad,Pcbnew,(6.0.10-0)*
G04 #@! TF.CreationDate,2022-12-25T19:45:21-08:00*
G04 #@! TF.ProjectId,right,72696768-742e-46b6-9963-61645f706362,rev?*
G04 #@! TF.SameCoordinates,Original*
G04 #@! TF.FileFunction,Legend,Top*
G04 #@! TF.FilePolarity,Positive*
%FSLAX46Y46*%
G04 Gerber Fmt 4.6, Leading zero omitted, Abs format (unit mm)*
G04 Created by KiCad (PCBNEW (6.0.10-0)) date 2022-12-25 19:45:21*
%MOMM*%
%LPD*%
G01*
G04 APERTURE LIST*
G04 Aperture macros list*
%AMHorizOval*
0 Thick line with rounded ends*
0 $1 width*
0 $2 $3 position (X,Y) of the first rounded end (center of the circle)*
0 $4 $5 position (X,Y) of the second rounded end (center of the circle)*
0 Add line between two ends*
20,1,$1,$2,$3,$4,$5,0*
0 Add two circle primitives to create the rounded ends*
1,1,$1,$2,$3*
1,1,$1,$4,$5*%
%AMRotRect*
0 Rectangle, with rotation*
0 The origin of the aperture is its center*
0 $1 length*
0 $2 width*
0 $3 Rotation angle, in degrees counterclockwise*
0 Add horizontal line*
21,1,$1,$2,0,0,$3*%
G04 Aperture macros list end*
%ADD10C,0.150000*%
%ADD11C,0.200000*%
%ADD12C,0.381000*%
%ADD13R,1.600000X1.600000*%
%ADD14C,1.600000*%
%ADD15RotRect,1.600000X1.600000X20.000000*%
%ADD16HorizOval,2.500000X-0.604462X-0.948815X0.604462X0.948815X0*%
%ADD17HorizOval,2.500000X-0.019724X-0.289328X0.019724X0.289328X0*%
%ADD18HorizOval,2.500000X-1.098333X0.243495X1.098333X-0.243495X0*%
%ADD19HorizOval,2.500000X0.278626X0.080421X-0.278626X-0.080421X0*%
%ADD20R,1.752600X1.752600*%
%ADD21C,1.752600*%
%ADD22R,1.200000X1.200000*%
%ADD23RotRect,1.200000X1.200000X20.000000*%
%ADD24C,0.800000*%
%ADD25O,1.600000X2.000000*%
G04 APERTURE END LIST*
D10*
X57036904Y-33090476D02*
X56236904Y-33090476D01*
X56236904Y-32900000D01*
X56275000Y-32785714D01*
X56351190Y-32709523D01*
X56427380Y-32671428D01*
X56579761Y-32633333D01*
X56694047Y-32633333D01*
X56846428Y-32671428D01*
X56922619Y-32709523D01*
X56998809Y-32785714D01*
X57036904Y-32900000D01*
X57036904Y-33090476D01*
X57036904Y-31871428D02*
X57036904Y-32328571D01*
X57036904Y-32100000D02*
X56236904Y-32100000D01*
X56351190Y-32176190D01*
X56427380Y-32252380D01*
X56465476Y-32328571D01*
X76036904Y-33090476D02*
X75236904Y-33090476D01*
X75236904Y-32900000D01*
X75275000Y-32785714D01*
X75351190Y-32709523D01*
X75427380Y-32671428D01*
X75579761Y-32633333D01*
X75694047Y-32633333D01*
X75846428Y-32671428D01*
X75922619Y-32709523D01*
X75998809Y-32785714D01*
X76036904Y-32900000D01*
X76036904Y-33090476D01*
X75313095Y-32328571D02*
X75275000Y-32290476D01*
X75236904Y-32214285D01*
X75236904Y-32023809D01*
X75275000Y-31947619D01*
X75313095Y-31909523D01*
X75389285Y-31871428D01*
X75465476Y-31871428D01*
X75579761Y-31909523D01*
X76036904Y-32366666D01*
X76036904Y-31871428D01*
X94786904Y-33090476D02*
X93986904Y-33090476D01*
X93986904Y-32900000D01*
X94025000Y-32785714D01*
X94101190Y-32709523D01*
X94177380Y-32671428D01*
X94329761Y-32633333D01*
X94444047Y-32633333D01*
X94596428Y-32671428D01*
X94672619Y-32709523D01*
X94748809Y-32785714D01*
X94786904Y-32900000D01*
X94786904Y-33090476D01*
X93986904Y-32366666D02*
X93986904Y-31871428D01*
X94291666Y-32138095D01*
X94291666Y-32023809D01*
X94329761Y-31947619D01*
X94367857Y-31909523D01*
X94444047Y-31871428D01*
X94634523Y-31871428D01*
X94710714Y-31909523D01*
X94748809Y-31947619D01*
X94786904Y-32023809D01*
X94786904Y-32252380D01*
X94748809Y-32328571D01*
X94710714Y-32366666D01*
X34989523Y-46196904D02*
X34989523Y-45396904D01*
X35180000Y-45396904D01*
X35294285Y-45435000D01*
X35370476Y-45511190D01*
X35408571Y-45587380D01*
X35446666Y-45739761D01*
X35446666Y-45854047D01*
X35408571Y-46006428D01*
X35370476Y-46082619D01*
X35294285Y-46158809D01*
X35180000Y-46196904D01*
X34989523Y-46196904D01*
X36132380Y-45663571D02*
X36132380Y-46196904D01*
X35941904Y-45358809D02*
X35751428Y-45930238D01*
X36246666Y-45930238D01*
X39789523Y-65216904D02*
X39789523Y-64416904D01*
X39980000Y-64416904D01*
X40094285Y-64455000D01*
X40170476Y-64531190D01*
X40208571Y-64607380D01*
X40246666Y-64759761D01*
X40246666Y-64874047D01*
X40208571Y-65026428D01*
X40170476Y-65102619D01*
X40094285Y-65178809D01*
X39980000Y-65216904D01*
X39789523Y-65216904D01*
X40970476Y-64416904D02*
X40589523Y-64416904D01*
X40551428Y-64797857D01*
X40589523Y-64759761D01*
X40665714Y-64721666D01*
X40856190Y-64721666D01*
X40932380Y-64759761D01*
X40970476Y-64797857D01*
X41008571Y-64874047D01*
X41008571Y-65064523D01*
X40970476Y-65140714D01*
X40932380Y-65178809D01*
X40856190Y-65216904D01*
X40665714Y-65216904D01*
X40589523Y-65178809D01*
X40551428Y-65140714D01*
X49289523Y-84226904D02*
X49289523Y-83426904D01*
X49480000Y-83426904D01*
X49594285Y-83465000D01*
X49670476Y-83541190D01*
X49708571Y-83617380D01*
X49746666Y-83769761D01*
X49746666Y-83884047D01*
X49708571Y-84036428D01*
X49670476Y-84112619D01*
X49594285Y-84188809D01*
X49480000Y-84226904D01*
X49289523Y-84226904D01*
X50432380Y-83426904D02*
X50280000Y-83426904D01*
X50203809Y-83465000D01*
X50165714Y-83503095D01*
X50089523Y-83617380D01*
X50051428Y-83769761D01*
X50051428Y-84074523D01*
X50089523Y-84150714D01*
X50127619Y-84188809D01*
X50203809Y-84226904D01*
X50356190Y-84226904D01*
X50432380Y-84188809D01*
X50470476Y-84150714D01*
X50508571Y-84074523D01*
X50508571Y-83884047D01*
X50470476Y-83807857D01*
X50432380Y-83769761D01*
X50356190Y-83731666D01*
X50203809Y-83731666D01*
X50127619Y-83769761D01*
X50089523Y-83807857D01*
X50051428Y-83884047D01*
X33847301Y-121890941D02*
X33573685Y-121139187D01*
X33752674Y-121074041D01*
X33873097Y-121070750D01*
X33970751Y-121116287D01*
X34032608Y-121174854D01*
X34120523Y-121305016D01*
X34159611Y-121412409D01*
X34175930Y-121568630D01*
X34166191Y-121653255D01*
X34120654Y-121750909D01*
X34026290Y-121825795D01*
X33847301Y-121890941D01*
X34253843Y-120891630D02*
X34755013Y-120709219D01*
X34706449Y-121578237D01*
X54329523Y-46196904D02*
X54329523Y-45396904D01*
X54520000Y-45396904D01*
X54634285Y-45435000D01*
X54710476Y-45511190D01*
X54748571Y-45587380D01*
X54786666Y-45739761D01*
X54786666Y-45854047D01*
X54748571Y-46006428D01*
X54710476Y-46082619D01*
X54634285Y-46158809D01*
X54520000Y-46196904D01*
X54329523Y-46196904D01*
X55243809Y-45739761D02*
X55167619Y-45701666D01*
X55129523Y-45663571D01*
X55091428Y-45587380D01*
X55091428Y-45549285D01*
X55129523Y-45473095D01*
X55167619Y-45435000D01*
X55243809Y-45396904D01*
X55396190Y-45396904D01*
X55472380Y-45435000D01*
X55510476Y-45473095D01*
X55548571Y-45549285D01*
X55548571Y-45587380D01*
X55510476Y-45663571D01*
X55472380Y-45701666D01*
X55396190Y-45739761D01*
X55243809Y-45739761D01*
X55167619Y-45777857D01*
X55129523Y-45815952D01*
X55091428Y-45892142D01*
X55091428Y-46044523D01*
X55129523Y-46120714D01*
X55167619Y-46158809D01*
X55243809Y-46196904D01*
X55396190Y-46196904D01*
X55472380Y-46158809D01*
X55510476Y-46120714D01*
X55548571Y-46044523D01*
X55548571Y-45892142D01*
X55510476Y-45815952D01*
X55472380Y-45777857D01*
X55396190Y-45739761D01*
X58759523Y-65216904D02*
X58759523Y-64416904D01*
X58950000Y-64416904D01*
X59064285Y-64455000D01*
X59140476Y-64531190D01*
X59178571Y-64607380D01*
X59216666Y-64759761D01*
X59216666Y-64874047D01*
X59178571Y-65026428D01*
X59140476Y-65102619D01*
X59064285Y-65178809D01*
X58950000Y-65216904D01*
X58759523Y-65216904D01*
X59597619Y-65216904D02*
X59750000Y-65216904D01*
X59826190Y-65178809D01*
X59864285Y-65140714D01*
X59940476Y-65026428D01*
X59978571Y-64874047D01*
X59978571Y-64569285D01*
X59940476Y-64493095D01*
X59902380Y-64455000D01*
X59826190Y-64416904D01*
X59673809Y-64416904D01*
X59597619Y-64455000D01*
X59559523Y-64493095D01*
X59521428Y-64569285D01*
X59521428Y-64759761D01*
X59559523Y-64835952D01*
X59597619Y-64874047D01*
X59673809Y-64912142D01*
X59826190Y-64912142D01*
X59902380Y-64874047D01*
X59940476Y-64835952D01*
X59978571Y-64759761D01*
X67948571Y-84246904D02*
X67948571Y-83446904D01*
X68139047Y-83446904D01*
X68253333Y-83485000D01*
X68329523Y-83561190D01*
X68367619Y-83637380D01*
X68405714Y-83789761D01*
X68405714Y-83904047D01*
X68367619Y-84056428D01*
X68329523Y-84132619D01*
X68253333Y-84208809D01*
X68139047Y-84246904D01*
X67948571Y-84246904D01*
X69167619Y-84246904D02*
X68710476Y-84246904D01*
X68939047Y-84246904D02*
X68939047Y-83446904D01*
X68862857Y-83561190D01*
X68786666Y-83637380D01*
X68710476Y-83675476D01*
X69662857Y-83446904D02*
X69739047Y-83446904D01*
X69815238Y-83485000D01*
X69853333Y-83523095D01*
X69891428Y-83599285D01*
X69929523Y-83751666D01*
X69929523Y-83942142D01*
X69891428Y-84094523D01*
X69853333Y-84170714D01*
X69815238Y-84208809D01*
X69739047Y-84246904D01*
X69662857Y-84246904D01*
X69586666Y-84208809D01*
X69548571Y-84170714D01*
X69510476Y-84094523D01*
X69472380Y-83942142D01*
X69472380Y-83751666D01*
X69510476Y-83599285D01*
X69548571Y-83523095D01*
X69586666Y-83485000D01*
X69662857Y-83446904D01*
X49139323Y-108851235D02*
X48865707Y-108099481D01*
X49044696Y-108034334D01*
X49165119Y-108031044D01*
X49262773Y-108076581D01*
X49324629Y-108135147D01*
X49412545Y-108265309D01*
X49451633Y-108372702D01*
X49467952Y-108528923D01*
X49458213Y-108613548D01*
X49412676Y-108711202D01*
X49318312Y-108786088D01*
X49139323Y-108851235D01*
X50284853Y-108434296D02*
X49855279Y-108590648D01*
X50070066Y-108512472D02*
X49796450Y-107760718D01*
X49763942Y-107894170D01*
X49718405Y-107991824D01*
X49659839Y-108053681D01*
X51000809Y-108173709D02*
X50571236Y-108330061D01*
X50786022Y-108251885D02*
X50512406Y-107500131D01*
X50479899Y-107633583D01*
X50434362Y-107731238D01*
X50375795Y-107793094D01*
X72798571Y-46176904D02*
X72798571Y-45376904D01*
X72989047Y-45376904D01*
X73103333Y-45415000D01*
X73179523Y-45491190D01*
X73217619Y-45567380D01*
X73255714Y-45719761D01*
X73255714Y-45834047D01*
X73217619Y-45986428D01*
X73179523Y-46062619D01*
X73103333Y-46138809D01*
X72989047Y-46176904D01*
X72798571Y-46176904D01*
X74017619Y-46176904D02*
X73560476Y-46176904D01*
X73789047Y-46176904D02*
X73789047Y-45376904D01*
X73712857Y-45491190D01*
X73636666Y-45567380D01*
X73560476Y-45605476D01*
X74322380Y-45453095D02*
X74360476Y-45415000D01*
X74436666Y-45376904D01*
X74627142Y-45376904D01*
X74703333Y-45415000D01*
X74741428Y-45453095D01*
X74779523Y-45529285D01*
X74779523Y-45605476D01*
X74741428Y-45719761D01*
X74284285Y-46176904D01*
X74779523Y-46176904D01*
X77728571Y-65186904D02*
X77728571Y-64386904D01*
X77919047Y-64386904D01*
X78033333Y-64425000D01*
X78109523Y-64501190D01*
X78147619Y-64577380D01*
X78185714Y-64729761D01*
X78185714Y-64844047D01*
X78147619Y-64996428D01*
X78109523Y-65072619D01*
X78033333Y-65148809D01*
X77919047Y-65186904D01*
X77728571Y-65186904D01*
X78947619Y-65186904D02*
X78490476Y-65186904D01*
X78719047Y-65186904D02*
X78719047Y-64386904D01*
X78642857Y-64501190D01*
X78566666Y-64577380D01*
X78490476Y-64615476D01*
X79214285Y-64386904D02*
X79709523Y-64386904D01*
X79442857Y-64691666D01*
X79557142Y-64691666D01*
X79633333Y-64729761D01*
X79671428Y-64767857D01*
X79709523Y-64844047D01*
X79709523Y-65034523D01*
X79671428Y-65110714D01*
X79633333Y-65148809D01*
X79557142Y-65186904D01*
X79328571Y-65186904D01*
X79252380Y-65148809D01*
X79214285Y-65110714D01*
X86878571Y-84216904D02*
X86878571Y-83416904D01*
X87069047Y-83416904D01*
X87183333Y-83455000D01*
X87259523Y-83531190D01*
X87297619Y-83607380D01*
X87335714Y-83759761D01*
X87335714Y-83874047D01*
X87297619Y-84026428D01*
X87259523Y-84102619D01*
X87183333Y-84178809D01*
X87069047Y-84216904D01*
X86878571Y-84216904D01*
X88097619Y-84216904D02*
X87640476Y-84216904D01*
X87869047Y-84216904D02*
X87869047Y-83416904D01*
X87792857Y-83531190D01*
X87716666Y-83607380D01*
X87640476Y-83645476D01*
X88783333Y-83683571D02*
X88783333Y-84216904D01*
X88592857Y-83378809D02*
X88402380Y-83950238D01*
X88897619Y-83950238D01*
X74813571Y-103186904D02*
X74813571Y-102386904D01*
X75004047Y-102386904D01*
X75118333Y-102425000D01*
X75194523Y-102501190D01*
X75232619Y-102577380D01*
X75270714Y-102729761D01*
X75270714Y-102844047D01*
X75232619Y-102996428D01*
X75194523Y-103072619D01*
X75118333Y-103148809D01*
X75004047Y-103186904D01*
X74813571Y-103186904D01*
X76032619Y-103186904D02*
X75575476Y-103186904D01*
X75804047Y-103186904D02*
X75804047Y-102386904D01*
X75727857Y-102501190D01*
X75651666Y-102577380D01*
X75575476Y-102615476D01*
X76756428Y-102386904D02*
X76375476Y-102386904D01*
X76337380Y-102767857D01*
X76375476Y-102729761D01*
X76451666Y-102691666D01*
X76642142Y-102691666D01*
X76718333Y-102729761D01*
X76756428Y-102767857D01*
X76794523Y-102844047D01*
X76794523Y-103034523D01*
X76756428Y-103110714D01*
X76718333Y-103148809D01*
X76642142Y-103186904D01*
X76451666Y-103186904D01*
X76375476Y-103148809D01*
X76337380Y-103110714D01*
X114036904Y-33471428D02*
X113236904Y-33471428D01*
X113236904Y-33280952D01*
X113275000Y-33166666D01*
X113351190Y-33090476D01*
X113427380Y-33052380D01*
X113579761Y-33014285D01*
X113694047Y-33014285D01*
X113846428Y-33052380D01*
X113922619Y-33090476D01*
X113998809Y-33166666D01*
X114036904Y-33280952D01*
X114036904Y-33471428D01*
X114036904Y-32252380D02*
X114036904Y-32709523D01*
X114036904Y-32480952D02*
X113236904Y-32480952D01*
X113351190Y-32557142D01*
X113427380Y-32633333D01*
X113465476Y-32709523D01*
X113236904Y-31566666D02*
X113236904Y-31719047D01*
X113275000Y-31795238D01*
X113313095Y-31833333D01*
X113427380Y-31909523D01*
X113579761Y-31947619D01*
X113884523Y-31947619D01*
X113960714Y-31909523D01*
X113998809Y-31871428D01*
X114036904Y-31795238D01*
X114036904Y-31642857D01*
X113998809Y-31566666D01*
X113960714Y-31528571D01*
X113884523Y-31490476D01*
X113694047Y-31490476D01*
X113617857Y-31528571D01*
X113579761Y-31566666D01*
X113541666Y-31642857D01*
X113541666Y-31795238D01*
X113579761Y-31871428D01*
X113617857Y-31909523D01*
X113694047Y-31947619D01*
X91878571Y-46226904D02*
X91878571Y-45426904D01*
X92069047Y-45426904D01*
X92183333Y-45465000D01*
X92259523Y-45541190D01*
X92297619Y-45617380D01*
X92335714Y-45769761D01*
X92335714Y-45884047D01*
X92297619Y-46036428D01*
X92259523Y-46112619D01*
X92183333Y-46188809D01*
X92069047Y-46226904D01*
X91878571Y-46226904D01*
X93097619Y-46226904D02*
X92640476Y-46226904D01*
X92869047Y-46226904D02*
X92869047Y-45426904D01*
X92792857Y-45541190D01*
X92716666Y-45617380D01*
X92640476Y-45655476D01*
X93364285Y-45426904D02*
X93897619Y-45426904D01*
X93554761Y-46226904D01*
X96498571Y-65226904D02*
X96498571Y-64426904D01*
X96689047Y-64426904D01*
X96803333Y-64465000D01*
X96879523Y-64541190D01*
X96917619Y-64617380D01*
X96955714Y-64769761D01*
X96955714Y-64884047D01*
X96917619Y-65036428D01*
X96879523Y-65112619D01*
X96803333Y-65188809D01*
X96689047Y-65226904D01*
X96498571Y-65226904D01*
X97717619Y-65226904D02*
X97260476Y-65226904D01*
X97489047Y-65226904D02*
X97489047Y-64426904D01*
X97412857Y-64541190D01*
X97336666Y-64617380D01*
X97260476Y-64655476D01*
X98174761Y-64769761D02*
X98098571Y-64731666D01*
X98060476Y-64693571D01*
X98022380Y-64617380D01*
X98022380Y-64579285D01*
X98060476Y-64503095D01*
X98098571Y-64465000D01*
X98174761Y-64426904D01*
X98327142Y-64426904D01*
X98403333Y-64465000D01*
X98441428Y-64503095D01*
X98479523Y-64579285D01*
X98479523Y-64617380D01*
X98441428Y-64693571D01*
X98403333Y-64731666D01*
X98327142Y-64769761D01*
X98174761Y-64769761D01*
X98098571Y-64807857D01*
X98060476Y-64845952D01*
X98022380Y-64922142D01*
X98022380Y-65074523D01*
X98060476Y-65150714D01*
X98098571Y-65188809D01*
X98174761Y-65226904D01*
X98327142Y-65226904D01*
X98403333Y-65188809D01*
X98441428Y-65150714D01*
X98479523Y-65074523D01*
X98479523Y-64922142D01*
X98441428Y-64845952D01*
X98403333Y-64807857D01*
X98327142Y-64769761D01*
X105908571Y-84166904D02*
X105908571Y-83366904D01*
X106099047Y-83366904D01*
X106213333Y-83405000D01*
X106289523Y-83481190D01*
X106327619Y-83557380D01*
X106365714Y-83709761D01*
X106365714Y-83824047D01*
X106327619Y-83976428D01*
X106289523Y-84052619D01*
X106213333Y-84128809D01*
X106099047Y-84166904D01*
X105908571Y-84166904D01*
X107127619Y-84166904D02*
X106670476Y-84166904D01*
X106899047Y-84166904D02*
X106899047Y-83366904D01*
X106822857Y-83481190D01*
X106746666Y-83557380D01*
X106670476Y-83595476D01*
X107508571Y-84166904D02*
X107660952Y-84166904D01*
X107737142Y-84128809D01*
X107775238Y-84090714D01*
X107851428Y-83976428D01*
X107889523Y-83824047D01*
X107889523Y-83519285D01*
X107851428Y-83443095D01*
X107813333Y-83405000D01*
X107737142Y-83366904D01*
X107584761Y-83366904D01*
X107508571Y-83405000D01*
X107470476Y-83443095D01*
X107432380Y-83519285D01*
X107432380Y-83709761D01*
X107470476Y-83785952D01*
X107508571Y-83824047D01*
X107584761Y-83862142D01*
X107737142Y-83862142D01*
X107813333Y-83824047D01*
X107851428Y-83785952D01*
X107889523Y-83709761D01*
X125128571Y-103196904D02*
X125128571Y-102396904D01*
X125319047Y-102396904D01*
X125433333Y-102435000D01*
X125509523Y-102511190D01*
X125547619Y-102587380D01*
X125585714Y-102739761D01*
X125585714Y-102854047D01*
X125547619Y-103006428D01*
X125509523Y-103082619D01*
X125433333Y-103158809D01*
X125319047Y-103196904D01*
X125128571Y-103196904D01*
X125890476Y-102473095D02*
X125928571Y-102435000D01*
X126004761Y-102396904D01*
X126195238Y-102396904D01*
X126271428Y-102435000D01*
X126309523Y-102473095D01*
X126347619Y-102549285D01*
X126347619Y-102625476D01*
X126309523Y-102739761D01*
X125852380Y-103196904D01*
X126347619Y-103196904D01*
X126842857Y-102396904D02*
X126919047Y-102396904D01*
X126995238Y-102435000D01*
X127033333Y-102473095D01*
X127071428Y-102549285D01*
X127109523Y-102701666D01*
X127109523Y-102892142D01*
X127071428Y-103044523D01*
X127033333Y-103120714D01*
X126995238Y-103158809D01*
X126919047Y-103196904D01*
X126842857Y-103196904D01*
X126766666Y-103158809D01*
X126728571Y-103120714D01*
X126690476Y-103044523D01*
X126652380Y-102892142D01*
X126652380Y-102701666D01*
X126690476Y-102549285D01*
X126728571Y-102473095D01*
X126766666Y-102435000D01*
X126842857Y-102396904D01*
X132786904Y-33471428D02*
X131986904Y-33471428D01*
X131986904Y-33280952D01*
X132025000Y-33166666D01*
X132101190Y-33090476D01*
X132177380Y-33052380D01*
X132329761Y-33014285D01*
X132444047Y-33014285D01*
X132596428Y-33052380D01*
X132672619Y-33090476D01*
X132748809Y-33166666D01*
X132786904Y-33280952D01*
X132786904Y-33471428D01*
X132063095Y-32709523D02*
X132025000Y-32671428D01*
X131986904Y-32595238D01*
X131986904Y-32404761D01*
X132025000Y-32328571D01*
X132063095Y-32290476D01*
X132139285Y-32252380D01*
X132215476Y-32252380D01*
X132329761Y-32290476D01*
X132786904Y-32747619D01*
X132786904Y-32252380D01*
X132786904Y-31490476D02*
X132786904Y-31947619D01*
X132786904Y-31719047D02*
X131986904Y-31719047D01*
X132101190Y-31795238D01*
X132177380Y-31871428D01*
X132215476Y-31947619D01*
X110888571Y-46226904D02*
X110888571Y-45426904D01*
X111079047Y-45426904D01*
X111193333Y-45465000D01*
X111269523Y-45541190D01*
X111307619Y-45617380D01*
X111345714Y-45769761D01*
X111345714Y-45884047D01*
X111307619Y-46036428D01*
X111269523Y-46112619D01*
X111193333Y-46188809D01*
X111079047Y-46226904D01*
X110888571Y-46226904D01*
X111650476Y-45503095D02*
X111688571Y-45465000D01*
X111764761Y-45426904D01*
X111955238Y-45426904D01*
X112031428Y-45465000D01*
X112069523Y-45503095D01*
X112107619Y-45579285D01*
X112107619Y-45655476D01*
X112069523Y-45769761D01*
X111612380Y-46226904D01*
X112107619Y-46226904D01*
X112412380Y-45503095D02*
X112450476Y-45465000D01*
X112526666Y-45426904D01*
X112717142Y-45426904D01*
X112793333Y-45465000D01*
X112831428Y-45503095D01*
X112869523Y-45579285D01*
X112869523Y-45655476D01*
X112831428Y-45769761D01*
X112374285Y-46226904D01*
X112869523Y-46226904D01*
X115458571Y-65196904D02*
X115458571Y-64396904D01*
X115649047Y-64396904D01*
X115763333Y-64435000D01*
X115839523Y-64511190D01*
X115877619Y-64587380D01*
X115915714Y-64739761D01*
X115915714Y-64854047D01*
X115877619Y-65006428D01*
X115839523Y-65082619D01*
X115763333Y-65158809D01*
X115649047Y-65196904D01*
X115458571Y-65196904D01*
X116220476Y-64473095D02*
X116258571Y-64435000D01*
X116334761Y-64396904D01*
X116525238Y-64396904D01*
X116601428Y-64435000D01*
X116639523Y-64473095D01*
X116677619Y-64549285D01*
X116677619Y-64625476D01*
X116639523Y-64739761D01*
X116182380Y-65196904D01*
X116677619Y-65196904D01*
X116944285Y-64396904D02*
X117439523Y-64396904D01*
X117172857Y-64701666D01*
X117287142Y-64701666D01*
X117363333Y-64739761D01*
X117401428Y-64777857D01*
X117439523Y-64854047D01*
X117439523Y-65044523D01*
X117401428Y-65120714D01*
X117363333Y-65158809D01*
X117287142Y-65196904D01*
X117058571Y-65196904D01*
X116982380Y-65158809D01*
X116944285Y-65120714D01*
X124868571Y-84216904D02*
X124868571Y-83416904D01*
X125059047Y-83416904D01*
X125173333Y-83455000D01*
X125249523Y-83531190D01*
X125287619Y-83607380D01*
X125325714Y-83759761D01*
X125325714Y-83874047D01*
X125287619Y-84026428D01*
X125249523Y-84102619D01*
X125173333Y-84178809D01*
X125059047Y-84216904D01*
X124868571Y-84216904D01*
X125630476Y-83493095D02*
X125668571Y-83455000D01*
X125744761Y-83416904D01*
X125935238Y-83416904D01*
X126011428Y-83455000D01*
X126049523Y-83493095D01*
X126087619Y-83569285D01*
X126087619Y-83645476D01*
X126049523Y-83759761D01*
X125592380Y-84216904D01*
X126087619Y-84216904D01*
X126773333Y-83683571D02*
X126773333Y-84216904D01*
X126582857Y-83378809D02*
X126392380Y-83950238D01*
X126887619Y-83950238D01*
X146338571Y-103186904D02*
X146338571Y-102386904D01*
X146529047Y-102386904D01*
X146643333Y-102425000D01*
X146719523Y-102501190D01*
X146757619Y-102577380D01*
X146795714Y-102729761D01*
X146795714Y-102844047D01*
X146757619Y-102996428D01*
X146719523Y-103072619D01*
X146643333Y-103148809D01*
X146529047Y-103186904D01*
X146338571Y-103186904D01*
X147100476Y-102463095D02*
X147138571Y-102425000D01*
X147214761Y-102386904D01*
X147405238Y-102386904D01*
X147481428Y-102425000D01*
X147519523Y-102463095D01*
X147557619Y-102539285D01*
X147557619Y-102615476D01*
X147519523Y-102729761D01*
X147062380Y-103186904D01*
X147557619Y-103186904D01*
X148281428Y-102386904D02*
X147900476Y-102386904D01*
X147862380Y-102767857D01*
X147900476Y-102729761D01*
X147976666Y-102691666D01*
X148167142Y-102691666D01*
X148243333Y-102729761D01*
X148281428Y-102767857D01*
X148319523Y-102844047D01*
X148319523Y-103034523D01*
X148281428Y-103110714D01*
X148243333Y-103148809D01*
X148167142Y-103186904D01*
X147976666Y-103186904D01*
X147900476Y-103148809D01*
X147862380Y-103110714D01*
X152036904Y-33471428D02*
X151236904Y-33471428D01*
X151236904Y-33280952D01*
X151275000Y-33166666D01*
X151351190Y-33090476D01*
X151427380Y-33052380D01*
X151579761Y-33014285D01*
X151694047Y-33014285D01*
X151846428Y-33052380D01*
X151922619Y-33090476D01*
X151998809Y-33166666D01*
X152036904Y-33280952D01*
X152036904Y-33471428D01*
X151313095Y-32709523D02*
X151275000Y-32671428D01*
X151236904Y-32595238D01*
X151236904Y-32404761D01*
X151275000Y-32328571D01*
X151313095Y-32290476D01*
X151389285Y-32252380D01*
X151465476Y-32252380D01*
X151579761Y-32290476D01*
X152036904Y-32747619D01*
X152036904Y-32252380D01*
X151236904Y-31566666D02*
X151236904Y-31719047D01*
X151275000Y-31795238D01*
X151313095Y-31833333D01*
X151427380Y-31909523D01*
X151579761Y-31947619D01*
X151884523Y-31947619D01*
X151960714Y-31909523D01*
X151998809Y-31871428D01*
X152036904Y-31795238D01*
X152036904Y-31642857D01*
X151998809Y-31566666D01*
X151960714Y-31528571D01*
X151884523Y-31490476D01*
X151694047Y-31490476D01*
X151617857Y-31528571D01*
X151579761Y-31566666D01*
X151541666Y-31642857D01*
X151541666Y-31795238D01*
X151579761Y-31871428D01*
X151617857Y-31909523D01*
X151694047Y-31947619D01*
X129668571Y-46236904D02*
X129668571Y-45436904D01*
X129859047Y-45436904D01*
X129973333Y-45475000D01*
X130049523Y-45551190D01*
X130087619Y-45627380D01*
X130125714Y-45779761D01*
X130125714Y-45894047D01*
X130087619Y-46046428D01*
X130049523Y-46122619D01*
X129973333Y-46198809D01*
X129859047Y-46236904D01*
X129668571Y-46236904D01*
X130430476Y-45513095D02*
X130468571Y-45475000D01*
X130544761Y-45436904D01*
X130735238Y-45436904D01*
X130811428Y-45475000D01*
X130849523Y-45513095D01*
X130887619Y-45589285D01*
X130887619Y-45665476D01*
X130849523Y-45779761D01*
X130392380Y-46236904D01*
X130887619Y-46236904D01*
X131154285Y-45436904D02*
X131687619Y-45436904D01*
X131344761Y-46236904D01*
X134508571Y-65196904D02*
X134508571Y-64396904D01*
X134699047Y-64396904D01*
X134813333Y-64435000D01*
X134889523Y-64511190D01*
X134927619Y-64587380D01*
X134965714Y-64739761D01*
X134965714Y-64854047D01*
X134927619Y-65006428D01*
X134889523Y-65082619D01*
X134813333Y-65158809D01*
X134699047Y-65196904D01*
X134508571Y-65196904D01*
X135270476Y-64473095D02*
X135308571Y-64435000D01*
X135384761Y-64396904D01*
X135575238Y-64396904D01*
X135651428Y-64435000D01*
X135689523Y-64473095D01*
X135727619Y-64549285D01*
X135727619Y-64625476D01*
X135689523Y-64739761D01*
X135232380Y-65196904D01*
X135727619Y-65196904D01*
X136184761Y-64739761D02*
X136108571Y-64701666D01*
X136070476Y-64663571D01*
X136032380Y-64587380D01*
X136032380Y-64549285D01*
X136070476Y-64473095D01*
X136108571Y-64435000D01*
X136184761Y-64396904D01*
X136337142Y-64396904D01*
X136413333Y-64435000D01*
X136451428Y-64473095D01*
X136489523Y-64549285D01*
X136489523Y-64587380D01*
X136451428Y-64663571D01*
X136413333Y-64701666D01*
X136337142Y-64739761D01*
X136184761Y-64739761D01*
X136108571Y-64777857D01*
X136070476Y-64815952D01*
X136032380Y-64892142D01*
X136032380Y-65044523D01*
X136070476Y-65120714D01*
X136108571Y-65158809D01*
X136184761Y-65196904D01*
X136337142Y-65196904D01*
X136413333Y-65158809D01*
X136451428Y-65120714D01*
X136489523Y-65044523D01*
X136489523Y-64892142D01*
X136451428Y-64815952D01*
X136413333Y-64777857D01*
X136337142Y-64739761D01*
X143948571Y-84196904D02*
X143948571Y-83396904D01*
X144139047Y-83396904D01*
X144253333Y-83435000D01*
X144329523Y-83511190D01*
X144367619Y-83587380D01*
X144405714Y-83739761D01*
X144405714Y-83854047D01*
X144367619Y-84006428D01*
X144329523Y-84082619D01*
X144253333Y-84158809D01*
X144139047Y-84196904D01*
X143948571Y-84196904D01*
X144710476Y-83473095D02*
X144748571Y-83435000D01*
X144824761Y-83396904D01*
X145015238Y-83396904D01*
X145091428Y-83435000D01*
X145129523Y-83473095D01*
X145167619Y-83549285D01*
X145167619Y-83625476D01*
X145129523Y-83739761D01*
X144672380Y-84196904D01*
X145167619Y-84196904D01*
X145548571Y-84196904D02*
X145700952Y-84196904D01*
X145777142Y-84158809D01*
X145815238Y-84120714D01*
X145891428Y-84006428D01*
X145929523Y-83854047D01*
X145929523Y-83549285D01*
X145891428Y-83473095D01*
X145853333Y-83435000D01*
X145777142Y-83396904D01*
X145624761Y-83396904D01*
X145548571Y-83435000D01*
X145510476Y-83473095D01*
X145472380Y-83549285D01*
X145472380Y-83739761D01*
X145510476Y-83815952D01*
X145548571Y-83854047D01*
X145624761Y-83892142D01*
X145777142Y-83892142D01*
X145853333Y-83854047D01*
X145891428Y-83815952D01*
X145929523Y-83739761D01*
X167658571Y-102976904D02*
X167658571Y-102176904D01*
X167849047Y-102176904D01*
X167963333Y-102215000D01*
X168039523Y-102291190D01*
X168077619Y-102367380D01*
X168115714Y-102519761D01*
X168115714Y-102634047D01*
X168077619Y-102786428D01*
X168039523Y-102862619D01*
X167963333Y-102938809D01*
X167849047Y-102976904D01*
X167658571Y-102976904D01*
X168382380Y-102176904D02*
X168877619Y-102176904D01*
X168610952Y-102481666D01*
X168725238Y-102481666D01*
X168801428Y-102519761D01*
X168839523Y-102557857D01*
X168877619Y-102634047D01*
X168877619Y-102824523D01*
X168839523Y-102900714D01*
X168801428Y-102938809D01*
X168725238Y-102976904D01*
X168496666Y-102976904D01*
X168420476Y-102938809D01*
X168382380Y-102900714D01*
X169372857Y-102176904D02*
X169449047Y-102176904D01*
X169525238Y-102215000D01*
X169563333Y-102253095D01*
X169601428Y-102329285D01*
X169639523Y-102481666D01*
X169639523Y-102672142D01*
X169601428Y-102824523D01*
X169563333Y-102900714D01*
X169525238Y-102938809D01*
X169449047Y-102976904D01*
X169372857Y-102976904D01*
X169296666Y-102938809D01*
X169258571Y-102900714D01*
X169220476Y-102824523D01*
X169182380Y-102672142D01*
X169182380Y-102481666D01*
X169220476Y-102329285D01*
X169258571Y-102253095D01*
X169296666Y-102215000D01*
X169372857Y-102176904D01*
X170786904Y-33471428D02*
X169986904Y-33471428D01*
X169986904Y-33280952D01*
X170025000Y-33166666D01*
X170101190Y-33090476D01*
X170177380Y-33052380D01*
X170329761Y-33014285D01*
X170444047Y-33014285D01*
X170596428Y-33052380D01*
X170672619Y-33090476D01*
X170748809Y-33166666D01*
X170786904Y-33280952D01*
X170786904Y-33471428D01*
X169986904Y-32747619D02*
X169986904Y-32252380D01*
X170291666Y-32519047D01*
X170291666Y-32404761D01*
X170329761Y-32328571D01*
X170367857Y-32290476D01*
X170444047Y-32252380D01*
X170634523Y-32252380D01*
X170710714Y-32290476D01*
X170748809Y-32328571D01*
X170786904Y-32404761D01*
X170786904Y-32633333D01*
X170748809Y-32709523D01*
X170710714Y-32747619D01*
X170786904Y-31490476D02*
X170786904Y-31947619D01*
X170786904Y-31719047D02*
X169986904Y-31719047D01*
X170101190Y-31795238D01*
X170177380Y-31871428D01*
X170215476Y-31947619D01*
X148528571Y-46256904D02*
X148528571Y-45456904D01*
X148719047Y-45456904D01*
X148833333Y-45495000D01*
X148909523Y-45571190D01*
X148947619Y-45647380D01*
X148985714Y-45799761D01*
X148985714Y-45914047D01*
X148947619Y-46066428D01*
X148909523Y-46142619D01*
X148833333Y-46218809D01*
X148719047Y-46256904D01*
X148528571Y-46256904D01*
X149252380Y-45456904D02*
X149747619Y-45456904D01*
X149480952Y-45761666D01*
X149595238Y-45761666D01*
X149671428Y-45799761D01*
X149709523Y-45837857D01*
X149747619Y-45914047D01*
X149747619Y-46104523D01*
X149709523Y-46180714D01*
X149671428Y-46218809D01*
X149595238Y-46256904D01*
X149366666Y-46256904D01*
X149290476Y-46218809D01*
X149252380Y-46180714D01*
X150052380Y-45533095D02*
X150090476Y-45495000D01*
X150166666Y-45456904D01*
X150357142Y-45456904D01*
X150433333Y-45495000D01*
X150471428Y-45533095D01*
X150509523Y-45609285D01*
X150509523Y-45685476D01*
X150471428Y-45799761D01*
X150014285Y-46256904D01*
X150509523Y-46256904D01*
X153388571Y-65206904D02*
X153388571Y-64406904D01*
X153579047Y-64406904D01*
X153693333Y-64445000D01*
X153769523Y-64521190D01*
X153807619Y-64597380D01*
X153845714Y-64749761D01*
X153845714Y-64864047D01*
X153807619Y-65016428D01*
X153769523Y-65092619D01*
X153693333Y-65168809D01*
X153579047Y-65206904D01*
X153388571Y-65206904D01*
X154112380Y-64406904D02*
X154607619Y-64406904D01*
X154340952Y-64711666D01*
X154455238Y-64711666D01*
X154531428Y-64749761D01*
X154569523Y-64787857D01*
X154607619Y-64864047D01*
X154607619Y-65054523D01*
X154569523Y-65130714D01*
X154531428Y-65168809D01*
X154455238Y-65206904D01*
X154226666Y-65206904D01*
X154150476Y-65168809D01*
X154112380Y-65130714D01*
X154874285Y-64406904D02*
X155369523Y-64406904D01*
X155102857Y-64711666D01*
X155217142Y-64711666D01*
X155293333Y-64749761D01*
X155331428Y-64787857D01*
X155369523Y-64864047D01*
X155369523Y-65054523D01*
X155331428Y-65130714D01*
X155293333Y-65168809D01*
X155217142Y-65206904D01*
X154988571Y-65206904D01*
X154912380Y-65168809D01*
X154874285Y-65130714D01*
X165288571Y-84216904D02*
X165288571Y-83416904D01*
X165479047Y-83416904D01*
X165593333Y-83455000D01*
X165669523Y-83531190D01*
X165707619Y-83607380D01*
X165745714Y-83759761D01*
X165745714Y-83874047D01*
X165707619Y-84026428D01*
X165669523Y-84102619D01*
X165593333Y-84178809D01*
X165479047Y-84216904D01*
X165288571Y-84216904D01*
X166012380Y-83416904D02*
X166507619Y-83416904D01*
X166240952Y-83721666D01*
X166355238Y-83721666D01*
X166431428Y-83759761D01*
X166469523Y-83797857D01*
X166507619Y-83874047D01*
X166507619Y-84064523D01*
X166469523Y-84140714D01*
X166431428Y-84178809D01*
X166355238Y-84216904D01*
X166126666Y-84216904D01*
X166050476Y-84178809D01*
X166012380Y-84140714D01*
X167193333Y-83683571D02*
X167193333Y-84216904D01*
X167002857Y-83378809D02*
X166812380Y-83950238D01*
X167307619Y-83950238D01*
X186658571Y-102996904D02*
X186658571Y-102196904D01*
X186849047Y-102196904D01*
X186963333Y-102235000D01*
X187039523Y-102311190D01*
X187077619Y-102387380D01*
X187115714Y-102539761D01*
X187115714Y-102654047D01*
X187077619Y-102806428D01*
X187039523Y-102882619D01*
X186963333Y-102958809D01*
X186849047Y-102996904D01*
X186658571Y-102996904D01*
X187382380Y-102196904D02*
X187877619Y-102196904D01*
X187610952Y-102501666D01*
X187725238Y-102501666D01*
X187801428Y-102539761D01*
X187839523Y-102577857D01*
X187877619Y-102654047D01*
X187877619Y-102844523D01*
X187839523Y-102920714D01*
X187801428Y-102958809D01*
X187725238Y-102996904D01*
X187496666Y-102996904D01*
X187420476Y-102958809D01*
X187382380Y-102920714D01*
X188601428Y-102196904D02*
X188220476Y-102196904D01*
X188182380Y-102577857D01*
X188220476Y-102539761D01*
X188296666Y-102501666D01*
X188487142Y-102501666D01*
X188563333Y-102539761D01*
X188601428Y-102577857D01*
X188639523Y-102654047D01*
X188639523Y-102844523D01*
X188601428Y-102920714D01*
X188563333Y-102958809D01*
X188487142Y-102996904D01*
X188296666Y-102996904D01*
X188220476Y-102958809D01*
X188182380Y-102920714D01*
X175786904Y-33471428D02*
X174986904Y-33471428D01*
X174986904Y-33280952D01*
X175025000Y-33166666D01*
X175101190Y-33090476D01*
X175177380Y-33052380D01*
X175329761Y-33014285D01*
X175444047Y-33014285D01*
X175596428Y-33052380D01*
X175672619Y-33090476D01*
X175748809Y-33166666D01*
X175786904Y-33280952D01*
X175786904Y-33471428D01*
X174986904Y-32747619D02*
X174986904Y-32252380D01*
X175291666Y-32519047D01*
X175291666Y-32404761D01*
X175329761Y-32328571D01*
X175367857Y-32290476D01*
X175444047Y-32252380D01*
X175634523Y-32252380D01*
X175710714Y-32290476D01*
X175748809Y-32328571D01*
X175786904Y-32404761D01*
X175786904Y-32633333D01*
X175748809Y-32709523D01*
X175710714Y-32747619D01*
X174986904Y-31566666D02*
X174986904Y-31719047D01*
X175025000Y-31795238D01*
X175063095Y-31833333D01*
X175177380Y-31909523D01*
X175329761Y-31947619D01*
X175634523Y-31947619D01*
X175710714Y-31909523D01*
X175748809Y-31871428D01*
X175786904Y-31795238D01*
X175786904Y-31642857D01*
X175748809Y-31566666D01*
X175710714Y-31528571D01*
X175634523Y-31490476D01*
X175444047Y-31490476D01*
X175367857Y-31528571D01*
X175329761Y-31566666D01*
X175291666Y-31642857D01*
X175291666Y-31795238D01*
X175329761Y-31871428D01*
X175367857Y-31909523D01*
X175444047Y-31947619D01*
X167958571Y-46226904D02*
X167958571Y-45426904D01*
X168149047Y-45426904D01*
X168263333Y-45465000D01*
X168339523Y-45541190D01*
X168377619Y-45617380D01*
X168415714Y-45769761D01*
X168415714Y-45884047D01*
X168377619Y-46036428D01*
X168339523Y-46112619D01*
X168263333Y-46188809D01*
X168149047Y-46226904D01*
X167958571Y-46226904D01*
X168682380Y-45426904D02*
X169177619Y-45426904D01*
X168910952Y-45731666D01*
X169025238Y-45731666D01*
X169101428Y-45769761D01*
X169139523Y-45807857D01*
X169177619Y-45884047D01*
X169177619Y-46074523D01*
X169139523Y-46150714D01*
X169101428Y-46188809D01*
X169025238Y-46226904D01*
X168796666Y-46226904D01*
X168720476Y-46188809D01*
X168682380Y-46150714D01*
X169444285Y-45426904D02*
X169977619Y-45426904D01*
X169634761Y-46226904D01*
X179488571Y-65216904D02*
X179488571Y-64416904D01*
X179679047Y-64416904D01*
X179793333Y-64455000D01*
X179869523Y-64531190D01*
X179907619Y-64607380D01*
X179945714Y-64759761D01*
X179945714Y-64874047D01*
X179907619Y-65026428D01*
X179869523Y-65102619D01*
X179793333Y-65178809D01*
X179679047Y-65216904D01*
X179488571Y-65216904D01*
X180212380Y-64416904D02*
X180707619Y-64416904D01*
X180440952Y-64721666D01*
X180555238Y-64721666D01*
X180631428Y-64759761D01*
X180669523Y-64797857D01*
X180707619Y-64874047D01*
X180707619Y-65064523D01*
X180669523Y-65140714D01*
X180631428Y-65178809D01*
X180555238Y-65216904D01*
X180326666Y-65216904D01*
X180250476Y-65178809D01*
X180212380Y-65140714D01*
X181164761Y-64759761D02*
X181088571Y-64721666D01*
X181050476Y-64683571D01*
X181012380Y-64607380D01*
X181012380Y-64569285D01*
X181050476Y-64493095D01*
X181088571Y-64455000D01*
X181164761Y-64416904D01*
X181317142Y-64416904D01*
X181393333Y-64455000D01*
X181431428Y-64493095D01*
X181469523Y-64569285D01*
X181469523Y-64607380D01*
X181431428Y-64683571D01*
X181393333Y-64721666D01*
X181317142Y-64759761D01*
X181164761Y-64759761D01*
X181088571Y-64797857D01*
X181050476Y-64835952D01*
X181012380Y-64912142D01*
X181012380Y-65064523D01*
X181050476Y-65140714D01*
X181088571Y-65178809D01*
X181164761Y-65216904D01*
X181317142Y-65216904D01*
X181393333Y-65178809D01*
X181431428Y-65140714D01*
X181469523Y-65064523D01*
X181469523Y-64912142D01*
X181431428Y-64835952D01*
X181393333Y-64797857D01*
X181317142Y-64759761D01*
X186598571Y-83966904D02*
X186598571Y-83166904D01*
X186789047Y-83166904D01*
X186903333Y-83205000D01*
X186979523Y-83281190D01*
X187017619Y-83357380D01*
X187055714Y-83509761D01*
X187055714Y-83624047D01*
X187017619Y-83776428D01*
X186979523Y-83852619D01*
X186903333Y-83928809D01*
X186789047Y-83966904D01*
X186598571Y-83966904D01*
X187322380Y-83166904D02*
X187817619Y-83166904D01*
X187550952Y-83471666D01*
X187665238Y-83471666D01*
X187741428Y-83509761D01*
X187779523Y-83547857D01*
X187817619Y-83624047D01*
X187817619Y-83814523D01*
X187779523Y-83890714D01*
X187741428Y-83928809D01*
X187665238Y-83966904D01*
X187436666Y-83966904D01*
X187360476Y-83928809D01*
X187322380Y-83890714D01*
X188198571Y-83966904D02*
X188350952Y-83966904D01*
X188427142Y-83928809D01*
X188465238Y-83890714D01*
X188541428Y-83776428D01*
X188579523Y-83624047D01*
X188579523Y-83319285D01*
X188541428Y-83243095D01*
X188503333Y-83205000D01*
X188427142Y-83166904D01*
X188274761Y-83166904D01*
X188198571Y-83205000D01*
X188160476Y-83243095D01*
X188122380Y-83319285D01*
X188122380Y-83509761D01*
X188160476Y-83585952D01*
X188198571Y-83624047D01*
X188274761Y-83662142D01*
X188427142Y-83662142D01*
X188503333Y-83624047D01*
X188541428Y-83585952D01*
X188579523Y-83509761D01*
X205588571Y-102956904D02*
X205588571Y-102156904D01*
X205779047Y-102156904D01*
X205893333Y-102195000D01*
X205969523Y-102271190D01*
X206007619Y-102347380D01*
X206045714Y-102499761D01*
X206045714Y-102614047D01*
X206007619Y-102766428D01*
X205969523Y-102842619D01*
X205893333Y-102918809D01*
X205779047Y-102956904D01*
X205588571Y-102956904D01*
X206731428Y-102423571D02*
X206731428Y-102956904D01*
X206540952Y-102118809D02*
X206350476Y-102690238D01*
X206845714Y-102690238D01*
X207302857Y-102156904D02*
X207379047Y-102156904D01*
X207455238Y-102195000D01*
X207493333Y-102233095D01*
X207531428Y-102309285D01*
X207569523Y-102461666D01*
X207569523Y-102652142D01*
X207531428Y-102804523D01*
X207493333Y-102880714D01*
X207455238Y-102918809D01*
X207379047Y-102956904D01*
X207302857Y-102956904D01*
X207226666Y-102918809D01*
X207188571Y-102880714D01*
X207150476Y-102804523D01*
X207112380Y-102652142D01*
X207112380Y-102461666D01*
X207150476Y-102309285D01*
X207188571Y-102233095D01*
X207226666Y-102195000D01*
X207302857Y-102156904D01*
X186758571Y-46216904D02*
X186758571Y-45416904D01*
X186949047Y-45416904D01*
X187063333Y-45455000D01*
X187139523Y-45531190D01*
X187177619Y-45607380D01*
X187215714Y-45759761D01*
X187215714Y-45874047D01*
X187177619Y-46026428D01*
X187139523Y-46102619D01*
X187063333Y-46178809D01*
X186949047Y-46216904D01*
X186758571Y-46216904D01*
X187901428Y-45683571D02*
X187901428Y-46216904D01*
X187710952Y-45378809D02*
X187520476Y-45950238D01*
X188015714Y-45950238D01*
X188739523Y-46216904D02*
X188282380Y-46216904D01*
X188510952Y-46216904D02*
X188510952Y-45416904D01*
X188434761Y-45531190D01*
X188358571Y-45607380D01*
X188282380Y-45645476D01*
X199036904Y-72471428D02*
X198236904Y-72471428D01*
X198236904Y-72280952D01*
X198275000Y-72166666D01*
X198351190Y-72090476D01*
X198427380Y-72052380D01*
X198579761Y-72014285D01*
X198694047Y-72014285D01*
X198846428Y-72052380D01*
X198922619Y-72090476D01*
X198998809Y-72166666D01*
X199036904Y-72280952D01*
X199036904Y-72471428D01*
X198503571Y-71328571D02*
X199036904Y-71328571D01*
X198198809Y-71519047D02*
X198770238Y-71709523D01*
X198770238Y-71214285D01*
X198313095Y-70947619D02*
X198275000Y-70909523D01*
X198236904Y-70833333D01*
X198236904Y-70642857D01*
X198275000Y-70566666D01*
X198313095Y-70528571D01*
X198389285Y-70490476D01*
X198465476Y-70490476D01*
X198579761Y-70528571D01*
X199036904Y-70985714D01*
X199036904Y-70490476D01*
X205108571Y-84196904D02*
X205108571Y-83396904D01*
X205299047Y-83396904D01*
X205413333Y-83435000D01*
X205489523Y-83511190D01*
X205527619Y-83587380D01*
X205565714Y-83739761D01*
X205565714Y-83854047D01*
X205527619Y-84006428D01*
X205489523Y-84082619D01*
X205413333Y-84158809D01*
X205299047Y-84196904D01*
X205108571Y-84196904D01*
X206251428Y-83663571D02*
X206251428Y-84196904D01*
X206060952Y-83358809D02*
X205870476Y-83930238D01*
X206365714Y-83930238D01*
X206594285Y-83396904D02*
X207089523Y-83396904D01*
X206822857Y-83701666D01*
X206937142Y-83701666D01*
X207013333Y-83739761D01*
X207051428Y-83777857D01*
X207089523Y-83854047D01*
X207089523Y-84044523D01*
X207051428Y-84120714D01*
X207013333Y-84158809D01*
X206937142Y-84196904D01*
X206708571Y-84196904D01*
X206632380Y-84158809D01*
X206594285Y-84120714D01*
X211964333Y-55536654D02*
X212497666Y-55536654D01*
X212154809Y-56336654D01*
X212383380Y-48183321D02*
X212383380Y-48716654D01*
X212192904Y-47878559D02*
X212002428Y-48449988D01*
X212497666Y-48449988D01*
X201196666Y-38498559D02*
X201310952Y-38536654D01*
X201501428Y-38536654D01*
X201577619Y-38498559D01*
X201615714Y-38460464D01*
X201653809Y-38384273D01*
X201653809Y-38308083D01*
X201615714Y-38231892D01*
X201577619Y-38193797D01*
X201501428Y-38155702D01*
X201349047Y-38117607D01*
X201272857Y-38079511D01*
X201234761Y-38041416D01*
X201196666Y-37965226D01*
X201196666Y-37889035D01*
X201234761Y-37812845D01*
X201272857Y-37774750D01*
X201349047Y-37736654D01*
X201539523Y-37736654D01*
X201653809Y-37774750D01*
X201882380Y-37736654D02*
X202339523Y-37736654D01*
X202110952Y-38536654D02*
X202110952Y-37736654D01*
X212078619Y-61416654D02*
X212231000Y-61416654D01*
X212307190Y-61378559D01*
X212345285Y-61340464D01*
X212421476Y-61226178D01*
X212459571Y-61073797D01*
X212459571Y-60769035D01*
X212421476Y-60692845D01*
X212383380Y-60654750D01*
X212307190Y-60616654D01*
X212154809Y-60616654D01*
X212078619Y-60654750D01*
X212040523Y-60692845D01*
X212002428Y-60769035D01*
X212002428Y-60959511D01*
X212040523Y-61035702D01*
X212078619Y-61073797D01*
X212154809Y-61111892D01*
X212307190Y-61111892D01*
X212383380Y-61073797D01*
X212421476Y-61035702D01*
X212459571Y-60959511D01*
X212002428Y-42912845D02*
X212040523Y-42874750D01*
X212116714Y-42836654D01*
X212307190Y-42836654D01*
X212383380Y-42874750D01*
X212421476Y-42912845D01*
X212459571Y-42989035D01*
X212459571Y-43065226D01*
X212421476Y-43179511D01*
X211964333Y-43636654D01*
X212459571Y-43636654D01*
X200699476Y-35254750D02*
X200623285Y-35216654D01*
X200509000Y-35216654D01*
X200394714Y-35254750D01*
X200318523Y-35330940D01*
X200280428Y-35407130D01*
X200242333Y-35559511D01*
X200242333Y-35673797D01*
X200280428Y-35826178D01*
X200318523Y-35902369D01*
X200394714Y-35978559D01*
X200509000Y-36016654D01*
X200585190Y-36016654D01*
X200699476Y-35978559D01*
X200737571Y-35940464D01*
X200737571Y-35673797D01*
X200585190Y-35673797D01*
X201080428Y-36016654D02*
X201080428Y-35216654D01*
X201537571Y-36016654D01*
X201537571Y-35216654D01*
X201918523Y-36016654D02*
X201918523Y-35216654D01*
X202109000Y-35216654D01*
X202223285Y-35254750D01*
X202299476Y-35330940D01*
X202337571Y-35407130D01*
X202375666Y-35559511D01*
X202375666Y-35673797D01*
X202337571Y-35826178D01*
X202299476Y-35902369D01*
X202223285Y-35978559D01*
X202109000Y-36016654D01*
X201918523Y-36016654D01*
X211964333Y-45376654D02*
X212459571Y-45376654D01*
X212192904Y-45681416D01*
X212307190Y-45681416D01*
X212383380Y-45719511D01*
X212421476Y-45757607D01*
X212459571Y-45833797D01*
X212459571Y-46024273D01*
X212421476Y-46100464D01*
X212383380Y-46138559D01*
X212307190Y-46176654D01*
X212078619Y-46176654D01*
X212002428Y-46138559D01*
X211964333Y-46100464D01*
X211621476Y-40334750D02*
X211545285Y-40296654D01*
X211431000Y-40296654D01*
X211316714Y-40334750D01*
X211240523Y-40410940D01*
X211202428Y-40487130D01*
X211164333Y-40639511D01*
X211164333Y-40753797D01*
X211202428Y-40906178D01*
X211240523Y-40982369D01*
X211316714Y-41058559D01*
X211431000Y-41096654D01*
X211507190Y-41096654D01*
X211621476Y-41058559D01*
X211659571Y-41020464D01*
X211659571Y-40753797D01*
X211507190Y-40753797D01*
X212002428Y-41096654D02*
X212002428Y-40296654D01*
X212459571Y-41096654D01*
X212459571Y-40296654D01*
X212840523Y-41096654D02*
X212840523Y-40296654D01*
X213031000Y-40296654D01*
X213145285Y-40334750D01*
X213221476Y-40410940D01*
X213259571Y-40487130D01*
X213297666Y-40639511D01*
X213297666Y-40753797D01*
X213259571Y-40906178D01*
X213221476Y-40982369D01*
X213145285Y-41058559D01*
X213031000Y-41096654D01*
X212840523Y-41096654D01*
X212421476Y-50456654D02*
X212040523Y-50456654D01*
X212002428Y-50837607D01*
X212040523Y-50799511D01*
X212116714Y-50761416D01*
X212307190Y-50761416D01*
X212383380Y-50799511D01*
X212421476Y-50837607D01*
X212459571Y-50913797D01*
X212459571Y-51104273D01*
X212421476Y-51180464D01*
X212383380Y-51218559D01*
X212307190Y-51256654D01*
X212116714Y-51256654D01*
X212040523Y-51218559D01*
X212002428Y-51180464D01*
X201156619Y-61416654D02*
X200699476Y-61416654D01*
X200928047Y-61416654D02*
X200928047Y-60616654D01*
X200851857Y-60730940D01*
X200775666Y-60807130D01*
X200699476Y-60845226D01*
X201651857Y-60616654D02*
X201728047Y-60616654D01*
X201804238Y-60654750D01*
X201842333Y-60692845D01*
X201880428Y-60769035D01*
X201918523Y-60921416D01*
X201918523Y-61111892D01*
X201880428Y-61264273D01*
X201842333Y-61340464D01*
X201804238Y-61378559D01*
X201728047Y-61416654D01*
X201651857Y-61416654D01*
X201575666Y-61378559D01*
X201537571Y-61340464D01*
X201499476Y-61264273D01*
X201461380Y-61111892D01*
X201461380Y-60921416D01*
X201499476Y-60769035D01*
X201537571Y-60692845D01*
X201575666Y-60654750D01*
X201651857Y-60616654D01*
X201156619Y-56336654D02*
X200699476Y-56336654D01*
X200928047Y-56336654D02*
X200928047Y-55536654D01*
X200851857Y-55650940D01*
X200775666Y-55727130D01*
X200699476Y-55765226D01*
X201842333Y-55803321D02*
X201842333Y-56336654D01*
X201651857Y-55498559D02*
X201461380Y-56069988D01*
X201956619Y-56069988D01*
X200737571Y-45948083D02*
X201118523Y-45948083D01*
X200661380Y-46176654D02*
X200928047Y-45376654D01*
X201194714Y-46176654D01*
X201423285Y-45452845D02*
X201461380Y-45414750D01*
X201537571Y-45376654D01*
X201728047Y-45376654D01*
X201804238Y-45414750D01*
X201842333Y-45452845D01*
X201880428Y-45529035D01*
X201880428Y-45605226D01*
X201842333Y-45719511D01*
X201385190Y-46176654D01*
X201880428Y-46176654D01*
X200242333Y-40296654D02*
X200509000Y-41096654D01*
X200775666Y-40296654D01*
X201499476Y-41020464D02*
X201461380Y-41058559D01*
X201347095Y-41096654D01*
X201270904Y-41096654D01*
X201156619Y-41058559D01*
X201080428Y-40982369D01*
X201042333Y-40906178D01*
X201004238Y-40753797D01*
X201004238Y-40639511D01*
X201042333Y-40487130D01*
X201080428Y-40410940D01*
X201156619Y-40334750D01*
X201270904Y-40296654D01*
X201347095Y-40296654D01*
X201461380Y-40334750D01*
X201499476Y-40372845D01*
X202299476Y-41020464D02*
X202261380Y-41058559D01*
X202147095Y-41096654D01*
X202070904Y-41096654D01*
X201956619Y-41058559D01*
X201880428Y-40982369D01*
X201842333Y-40906178D01*
X201804238Y-40753797D01*
X201804238Y-40639511D01*
X201842333Y-40487130D01*
X201880428Y-40410940D01*
X201956619Y-40334750D01*
X202070904Y-40296654D01*
X202147095Y-40296654D01*
X202261380Y-40334750D01*
X202299476Y-40372845D01*
X200756619Y-33476654D02*
X200489952Y-33095702D01*
X200299476Y-33476654D02*
X200299476Y-32676654D01*
X200604238Y-32676654D01*
X200680428Y-32714750D01*
X200718523Y-32752845D01*
X200756619Y-32829035D01*
X200756619Y-32943321D01*
X200718523Y-33019511D01*
X200680428Y-33057607D01*
X200604238Y-33095702D01*
X200299476Y-33095702D01*
X201061380Y-33248083D02*
X201442333Y-33248083D01*
X200985190Y-33476654D02*
X201251857Y-32676654D01*
X201518523Y-33476654D01*
X201709000Y-32676654D02*
X201899476Y-33476654D01*
X202051857Y-32905226D01*
X202204238Y-33476654D01*
X202394714Y-32676654D01*
X211621476Y-37794750D02*
X211545285Y-37756654D01*
X211431000Y-37756654D01*
X211316714Y-37794750D01*
X211240523Y-37870940D01*
X211202428Y-37947130D01*
X211164333Y-38099511D01*
X211164333Y-38213797D01*
X211202428Y-38366178D01*
X211240523Y-38442369D01*
X211316714Y-38518559D01*
X211431000Y-38556654D01*
X211507190Y-38556654D01*
X211621476Y-38518559D01*
X211659571Y-38480464D01*
X211659571Y-38213797D01*
X211507190Y-38213797D01*
X212002428Y-38556654D02*
X212002428Y-37756654D01*
X212459571Y-38556654D01*
X212459571Y-37756654D01*
X212840523Y-38556654D02*
X212840523Y-37756654D01*
X213031000Y-37756654D01*
X213145285Y-37794750D01*
X213221476Y-37870940D01*
X213259571Y-37947130D01*
X213297666Y-38099511D01*
X213297666Y-38213797D01*
X213259571Y-38366178D01*
X213221476Y-38442369D01*
X213145285Y-38518559D01*
X213031000Y-38556654D01*
X212840523Y-38556654D01*
X212383380Y-52996654D02*
X212231000Y-52996654D01*
X212154809Y-53034750D01*
X212116714Y-53072845D01*
X212040523Y-53187130D01*
X212002428Y-53339511D01*
X212002428Y-53644273D01*
X212040523Y-53720464D01*
X212078619Y-53758559D01*
X212154809Y-53796654D01*
X212307190Y-53796654D01*
X212383380Y-53758559D01*
X212421476Y-53720464D01*
X212459571Y-53644273D01*
X212459571Y-53453797D01*
X212421476Y-53377607D01*
X212383380Y-53339511D01*
X212307190Y-53301416D01*
X212154809Y-53301416D01*
X212078619Y-53339511D01*
X212040523Y-53377607D01*
X212002428Y-53453797D01*
X201156619Y-53796654D02*
X200699476Y-53796654D01*
X200928047Y-53796654D02*
X200928047Y-52996654D01*
X200851857Y-53110940D01*
X200775666Y-53187130D01*
X200699476Y-53225226D01*
X201880428Y-52996654D02*
X201499476Y-52996654D01*
X201461380Y-53377607D01*
X201499476Y-53339511D01*
X201575666Y-53301416D01*
X201766142Y-53301416D01*
X201842333Y-53339511D01*
X201880428Y-53377607D01*
X201918523Y-53453797D01*
X201918523Y-53644273D01*
X201880428Y-53720464D01*
X201842333Y-53758559D01*
X201766142Y-53796654D01*
X201575666Y-53796654D01*
X201499476Y-53758559D01*
X201461380Y-53720464D01*
X211716714Y-36016654D02*
X211450047Y-35635702D01*
X211259571Y-36016654D02*
X211259571Y-35216654D01*
X211564333Y-35216654D01*
X211640523Y-35254750D01*
X211678619Y-35292845D01*
X211716714Y-35369035D01*
X211716714Y-35483321D01*
X211678619Y-35559511D01*
X211640523Y-35597607D01*
X211564333Y-35635702D01*
X211259571Y-35635702D01*
X211983380Y-35216654D02*
X212516714Y-36016654D01*
X212516714Y-35216654D02*
X211983380Y-36016654D01*
X213240523Y-36016654D02*
X212783380Y-36016654D01*
X213011952Y-36016654D02*
X213011952Y-35216654D01*
X212935761Y-35330940D01*
X212859571Y-35407130D01*
X212783380Y-35445226D01*
X208151395Y-32676654D02*
X208608538Y-32676654D01*
X208379967Y-33476654D02*
X208379967Y-32676654D01*
X208799014Y-32676654D02*
X209332348Y-33476654D01*
X209332348Y-32676654D02*
X208799014Y-33476654D01*
X209789491Y-32676654D02*
X209865681Y-32676654D01*
X209941872Y-32714750D01*
X209979967Y-32752845D01*
X210018062Y-32829035D01*
X210056157Y-32981416D01*
X210056157Y-33171892D01*
X210018062Y-33324273D01*
X209979967Y-33400464D01*
X209941872Y-33438559D01*
X209865681Y-33476654D01*
X209789491Y-33476654D01*
X209713300Y-33438559D01*
X209675205Y-33400464D01*
X209637110Y-33324273D01*
X209599014Y-33171892D01*
X209599014Y-32981416D01*
X209637110Y-32829035D01*
X209675205Y-32752845D01*
X209713300Y-32714750D01*
X209789491Y-32676654D01*
X210970443Y-32638559D02*
X210284729Y-33667130D01*
X211237110Y-33476654D02*
X211237110Y-32676654D01*
X211427586Y-32676654D01*
X211541872Y-32714750D01*
X211618062Y-32790940D01*
X211656157Y-32867130D01*
X211694252Y-33019511D01*
X211694252Y-33133797D01*
X211656157Y-33286178D01*
X211618062Y-33362369D01*
X211541872Y-33438559D01*
X211427586Y-33476654D01*
X211237110Y-33476654D01*
X211960919Y-32676654D02*
X212456157Y-32676654D01*
X212189491Y-32981416D01*
X212303776Y-32981416D01*
X212379967Y-33019511D01*
X212418062Y-33057607D01*
X212456157Y-33133797D01*
X212456157Y-33324273D01*
X212418062Y-33400464D01*
X212379967Y-33438559D01*
X212303776Y-33476654D01*
X212075205Y-33476654D01*
X211999014Y-33438559D01*
X211960919Y-33400464D01*
X200737571Y-51028083D02*
X201118523Y-51028083D01*
X200661380Y-51256654D02*
X200928047Y-50456654D01*
X201194714Y-51256654D01*
X201613761Y-50456654D02*
X201689952Y-50456654D01*
X201766142Y-50494750D01*
X201804238Y-50532845D01*
X201842333Y-50609035D01*
X201880428Y-50761416D01*
X201880428Y-50951892D01*
X201842333Y-51104273D01*
X201804238Y-51180464D01*
X201766142Y-51218559D01*
X201689952Y-51256654D01*
X201613761Y-51256654D01*
X201537571Y-51218559D01*
X201499476Y-51180464D01*
X201461380Y-51104273D01*
X201423285Y-50951892D01*
X201423285Y-50761416D01*
X201461380Y-50609035D01*
X201499476Y-50532845D01*
X201537571Y-50494750D01*
X201613761Y-50456654D01*
X212154809Y-58419511D02*
X212078619Y-58381416D01*
X212040523Y-58343321D01*
X212002428Y-58267130D01*
X212002428Y-58229035D01*
X212040523Y-58152845D01*
X212078619Y-58114750D01*
X212154809Y-58076654D01*
X212307190Y-58076654D01*
X212383380Y-58114750D01*
X212421476Y-58152845D01*
X212459571Y-58229035D01*
X212459571Y-58267130D01*
X212421476Y-58343321D01*
X212383380Y-58381416D01*
X212307190Y-58419511D01*
X212154809Y-58419511D01*
X212078619Y-58457607D01*
X212040523Y-58495702D01*
X212002428Y-58571892D01*
X212002428Y-58724273D01*
X212040523Y-58800464D01*
X212078619Y-58838559D01*
X212154809Y-58876654D01*
X212307190Y-58876654D01*
X212383380Y-58838559D01*
X212421476Y-58800464D01*
X212459571Y-58724273D01*
X212459571Y-58571892D01*
X212421476Y-58495702D01*
X212383380Y-58457607D01*
X212307190Y-58419511D01*
X201156619Y-58876654D02*
X200699476Y-58876654D01*
X200928047Y-58876654D02*
X200928047Y-58076654D01*
X200851857Y-58190940D01*
X200775666Y-58267130D01*
X200699476Y-58305226D01*
X201842333Y-58076654D02*
X201689952Y-58076654D01*
X201613761Y-58114750D01*
X201575666Y-58152845D01*
X201499476Y-58267130D01*
X201461380Y-58419511D01*
X201461380Y-58724273D01*
X201499476Y-58800464D01*
X201537571Y-58838559D01*
X201613761Y-58876654D01*
X201766142Y-58876654D01*
X201842333Y-58838559D01*
X201880428Y-58800464D01*
X201918523Y-58724273D01*
X201918523Y-58533797D01*
X201880428Y-58457607D01*
X201842333Y-58419511D01*
X201766142Y-58381416D01*
X201613761Y-58381416D01*
X201537571Y-58419511D01*
X201499476Y-58457607D01*
X201461380Y-58533797D01*
X200737571Y-43408083D02*
X201118523Y-43408083D01*
X200661380Y-43636654D02*
X200928047Y-42836654D01*
X201194714Y-43636654D01*
X201385190Y-42836654D02*
X201880428Y-42836654D01*
X201613761Y-43141416D01*
X201728047Y-43141416D01*
X201804238Y-43179511D01*
X201842333Y-43217607D01*
X201880428Y-43293797D01*
X201880428Y-43484273D01*
X201842333Y-43560464D01*
X201804238Y-43598559D01*
X201728047Y-43636654D01*
X201499476Y-43636654D01*
X201423285Y-43598559D01*
X201385190Y-43560464D01*
X200737571Y-48488083D02*
X201118523Y-48488083D01*
X200661380Y-48716654D02*
X200928047Y-47916654D01*
X201194714Y-48716654D01*
X201880428Y-48716654D02*
X201423285Y-48716654D01*
X201651857Y-48716654D02*
X201651857Y-47916654D01*
X201575666Y-48030940D01*
X201499476Y-48107130D01*
X201423285Y-48145226D01*
D11*
X53550000Y-34955000D02*
X55950000Y-34955000D01*
X55950000Y-35180000D02*
X53550000Y-35180000D01*
X53550000Y-35080000D02*
X55950000Y-35080000D01*
X53550000Y-34780000D02*
X55950000Y-34780000D01*
X53550000Y-35180000D02*
X53560000Y-29900000D01*
X53560000Y-29900000D02*
X55960000Y-29900000D01*
X55960000Y-29900000D02*
X55950000Y-35180000D01*
X72550000Y-34780000D02*
X74950000Y-34780000D01*
X72550000Y-34955000D02*
X74950000Y-34955000D01*
X72560000Y-29900000D02*
X74960000Y-29900000D01*
X74950000Y-35180000D02*
X72550000Y-35180000D01*
X72550000Y-35080000D02*
X74950000Y-35080000D01*
X74960000Y-29900000D02*
X74950000Y-35180000D01*
X72550000Y-35180000D02*
X72560000Y-29900000D01*
X91310000Y-29900000D02*
X93710000Y-29900000D01*
X91300000Y-34780000D02*
X93700000Y-34780000D01*
X91300000Y-34955000D02*
X93700000Y-34955000D01*
X91300000Y-35180000D02*
X91310000Y-29900000D01*
X93700000Y-35180000D02*
X91300000Y-35180000D01*
X93710000Y-29900000D02*
X93700000Y-35180000D01*
X91300000Y-35080000D02*
X93700000Y-35080000D01*
X32900000Y-42710000D02*
X38180000Y-42720000D01*
X33300000Y-42710000D02*
X33300000Y-45110000D01*
X38180000Y-42720000D02*
X38180000Y-45120000D01*
X32900000Y-45110000D02*
X32900000Y-42710000D01*
X38180000Y-45120000D02*
X32900000Y-45110000D01*
X33000000Y-42710000D02*
X33000000Y-45110000D01*
X33125000Y-42710000D02*
X33125000Y-45110000D01*
X37800000Y-61730000D02*
X37800000Y-64130000D01*
X37700000Y-61730000D02*
X42980000Y-61740000D01*
X37700000Y-64130000D02*
X37700000Y-61730000D01*
X42980000Y-64140000D02*
X37700000Y-64130000D01*
X42980000Y-61740000D02*
X42980000Y-64140000D01*
X38100000Y-61730000D02*
X38100000Y-64130000D01*
X37925000Y-61730000D02*
X37925000Y-64130000D01*
X47600000Y-80740000D02*
X47600000Y-83140000D01*
X47425000Y-80740000D02*
X47425000Y-83140000D01*
X52480000Y-80750000D02*
X52480000Y-83150000D01*
X47300000Y-80740000D02*
X47300000Y-83140000D01*
X52480000Y-83150000D02*
X47200000Y-83140000D01*
X47200000Y-80740000D02*
X52480000Y-80750000D01*
X47200000Y-83140000D02*
X47200000Y-80740000D01*
X30691200Y-119328983D02*
X35656197Y-117532513D01*
X30902630Y-119252028D02*
X31723479Y-121507291D01*
X31512048Y-121584245D02*
X30691200Y-119328983D01*
X35656197Y-117532513D02*
X36477045Y-119787776D01*
X36477045Y-119787776D02*
X31512048Y-121584245D01*
X31067077Y-119192175D02*
X31887925Y-121447437D01*
X30785169Y-119294781D02*
X31606017Y-121550043D01*
X52465000Y-42710000D02*
X52465000Y-45110000D01*
X57520000Y-45120000D02*
X52240000Y-45110000D01*
X57520000Y-42720000D02*
X57520000Y-45120000D01*
X52340000Y-42710000D02*
X52340000Y-45110000D01*
X52240000Y-45110000D02*
X52240000Y-42710000D01*
X52640000Y-42710000D02*
X52640000Y-45110000D01*
X52240000Y-42710000D02*
X57520000Y-42720000D01*
X56670000Y-64130000D02*
X56670000Y-61730000D01*
X56670000Y-61730000D02*
X61950000Y-61740000D01*
X56895000Y-61730000D02*
X56895000Y-64130000D01*
X61950000Y-61740000D02*
X61950000Y-64140000D01*
X56770000Y-61730000D02*
X56770000Y-64130000D01*
X57070000Y-61730000D02*
X57070000Y-64130000D01*
X61950000Y-64140000D02*
X56670000Y-64130000D01*
X66640000Y-80760000D02*
X66640000Y-83160000D01*
X66240000Y-83160000D02*
X66240000Y-80760000D01*
X66465000Y-80760000D02*
X66465000Y-83160000D01*
X66240000Y-80760000D02*
X71520000Y-80770000D01*
X71520000Y-83170000D02*
X66240000Y-83160000D01*
X71520000Y-80770000D02*
X71520000Y-83170000D01*
X66340000Y-80760000D02*
X66340000Y-83160000D01*
X51306197Y-104362513D02*
X52127045Y-106617776D01*
X46341200Y-106158983D02*
X51306197Y-104362513D01*
X46717077Y-106022175D02*
X47537925Y-108277437D01*
X52127045Y-106617776D02*
X47162048Y-108414245D01*
X46435169Y-106124781D02*
X47256017Y-108380043D01*
X46552630Y-106082028D02*
X47373479Y-108337291D01*
X47162048Y-108414245D02*
X46341200Y-106158983D01*
X71490000Y-42690000D02*
X71490000Y-45090000D01*
X76370000Y-45100000D02*
X71090000Y-45090000D01*
X71090000Y-45090000D02*
X71090000Y-42690000D01*
X71315000Y-42690000D02*
X71315000Y-45090000D01*
X76370000Y-42700000D02*
X76370000Y-45100000D01*
X71090000Y-42690000D02*
X76370000Y-42700000D01*
X71190000Y-42690000D02*
X71190000Y-45090000D01*
X76020000Y-61700000D02*
X81300000Y-61710000D01*
X81300000Y-61710000D02*
X81300000Y-64110000D01*
X76245000Y-61700000D02*
X76245000Y-64100000D01*
X81300000Y-64110000D02*
X76020000Y-64100000D01*
X76020000Y-64100000D02*
X76020000Y-61700000D01*
X76420000Y-61700000D02*
X76420000Y-64100000D01*
X76120000Y-61700000D02*
X76120000Y-64100000D01*
X85270000Y-80730000D02*
X85270000Y-83130000D01*
X90450000Y-83140000D02*
X85170000Y-83130000D01*
X85570000Y-80730000D02*
X85570000Y-83130000D01*
X85395000Y-80730000D02*
X85395000Y-83130000D01*
X85170000Y-83130000D02*
X85170000Y-80730000D01*
X85170000Y-80730000D02*
X90450000Y-80740000D01*
X90450000Y-80740000D02*
X90450000Y-83140000D01*
X78385000Y-99710000D02*
X78385000Y-102110000D01*
X73105000Y-99700000D02*
X78385000Y-99710000D01*
X73205000Y-99700000D02*
X73205000Y-102100000D01*
X73330000Y-99700000D02*
X73330000Y-102100000D01*
X78385000Y-102110000D02*
X73105000Y-102100000D01*
X73505000Y-99700000D02*
X73505000Y-102100000D01*
X73105000Y-102100000D02*
X73105000Y-99700000D01*
X110550000Y-34780000D02*
X112950000Y-34780000D01*
X112950000Y-35180000D02*
X110550000Y-35180000D01*
X110560000Y-29900000D02*
X112960000Y-29900000D01*
X110550000Y-35080000D02*
X112950000Y-35080000D01*
X110550000Y-34955000D02*
X112950000Y-34955000D01*
X112960000Y-29900000D02*
X112950000Y-35180000D01*
X110550000Y-35180000D02*
X110560000Y-29900000D01*
X90270000Y-42740000D02*
X90270000Y-45140000D01*
X95450000Y-42750000D02*
X95450000Y-45150000D01*
X90570000Y-42740000D02*
X90570000Y-45140000D01*
X95450000Y-45150000D02*
X90170000Y-45140000D01*
X90170000Y-45140000D02*
X90170000Y-42740000D01*
X90170000Y-42740000D02*
X95450000Y-42750000D01*
X90395000Y-42740000D02*
X90395000Y-45140000D01*
X94790000Y-61740000D02*
X100070000Y-61750000D01*
X100070000Y-64150000D02*
X94790000Y-64140000D01*
X95015000Y-61740000D02*
X95015000Y-64140000D01*
X100070000Y-61750000D02*
X100070000Y-64150000D01*
X94790000Y-64140000D02*
X94790000Y-61740000D01*
X94890000Y-61740000D02*
X94890000Y-64140000D01*
X95190000Y-61740000D02*
X95190000Y-64140000D01*
X104300000Y-80680000D02*
X104300000Y-83080000D01*
X104425000Y-80680000D02*
X104425000Y-83080000D01*
X109480000Y-80690000D02*
X109480000Y-83090000D01*
X104200000Y-80680000D02*
X109480000Y-80690000D01*
X104600000Y-80680000D02*
X104600000Y-83080000D01*
X104200000Y-83080000D02*
X104200000Y-80680000D01*
X109480000Y-83090000D02*
X104200000Y-83080000D01*
X128700000Y-102120000D02*
X123420000Y-102110000D01*
X123420000Y-102110000D02*
X123420000Y-99710000D01*
X128700000Y-99720000D02*
X128700000Y-102120000D01*
X123820000Y-99710000D02*
X123820000Y-102110000D01*
X123420000Y-99710000D02*
X128700000Y-99720000D01*
X123520000Y-99710000D02*
X123520000Y-102110000D01*
X123645000Y-99710000D02*
X123645000Y-102110000D01*
X129300000Y-34780000D02*
X131700000Y-34780000D01*
X131710000Y-29900000D02*
X131700000Y-35180000D01*
X129310000Y-29900000D02*
X131710000Y-29900000D01*
X129300000Y-35180000D02*
X129310000Y-29900000D01*
X131700000Y-35180000D02*
X129300000Y-35180000D01*
X129300000Y-35080000D02*
X131700000Y-35080000D01*
X129300000Y-34955000D02*
X131700000Y-34955000D01*
X114460000Y-45150000D02*
X109180000Y-45140000D01*
X109280000Y-42740000D02*
X109280000Y-45140000D01*
X114460000Y-42750000D02*
X114460000Y-45150000D01*
X109405000Y-42740000D02*
X109405000Y-45140000D01*
X109180000Y-45140000D02*
X109180000Y-42740000D01*
X109180000Y-42740000D02*
X114460000Y-42750000D01*
X109580000Y-42740000D02*
X109580000Y-45140000D01*
X119030000Y-64120000D02*
X113750000Y-64110000D01*
X119030000Y-61720000D02*
X119030000Y-64120000D01*
X113750000Y-61710000D02*
X119030000Y-61720000D01*
X113975000Y-61710000D02*
X113975000Y-64110000D01*
X113750000Y-64110000D02*
X113750000Y-61710000D01*
X113850000Y-61710000D02*
X113850000Y-64110000D01*
X114150000Y-61710000D02*
X114150000Y-64110000D01*
X123160000Y-83130000D02*
X123160000Y-80730000D01*
X123560000Y-80730000D02*
X123560000Y-83130000D01*
X123160000Y-80730000D02*
X128440000Y-80740000D01*
X128440000Y-83140000D02*
X123160000Y-83130000D01*
X123385000Y-80730000D02*
X123385000Y-83130000D01*
X128440000Y-80740000D02*
X128440000Y-83140000D01*
X123260000Y-80730000D02*
X123260000Y-83130000D01*
X149910000Y-99710000D02*
X149910000Y-102110000D01*
X144630000Y-99700000D02*
X149910000Y-99710000D01*
X145030000Y-99700000D02*
X145030000Y-102100000D01*
X144730000Y-99700000D02*
X144730000Y-102100000D01*
X144630000Y-102100000D02*
X144630000Y-99700000D01*
X144855000Y-99700000D02*
X144855000Y-102100000D01*
X149910000Y-102110000D02*
X144630000Y-102100000D01*
X150950000Y-35180000D02*
X148550000Y-35180000D01*
X150960000Y-29900000D02*
X150950000Y-35180000D01*
X148560000Y-29900000D02*
X150960000Y-29900000D01*
X148550000Y-35180000D02*
X148560000Y-29900000D01*
X148550000Y-34780000D02*
X150950000Y-34780000D01*
X148550000Y-35080000D02*
X150950000Y-35080000D01*
X148550000Y-34955000D02*
X150950000Y-34955000D01*
X127960000Y-45150000D02*
X127960000Y-42750000D01*
X133240000Y-45160000D02*
X127960000Y-45150000D01*
X128060000Y-42750000D02*
X128060000Y-45150000D01*
X127960000Y-42750000D02*
X133240000Y-42760000D01*
X128360000Y-42750000D02*
X128360000Y-45150000D01*
X133240000Y-42760000D02*
X133240000Y-45160000D01*
X128185000Y-42750000D02*
X128185000Y-45150000D01*
X138080000Y-64120000D02*
X132800000Y-64110000D01*
X132900000Y-61710000D02*
X132900000Y-64110000D01*
X138080000Y-61720000D02*
X138080000Y-64120000D01*
X133200000Y-61710000D02*
X133200000Y-64110000D01*
X132800000Y-61710000D02*
X138080000Y-61720000D01*
X132800000Y-64110000D02*
X132800000Y-61710000D01*
X133025000Y-61710000D02*
X133025000Y-64110000D01*
X147520000Y-83120000D02*
X142240000Y-83110000D01*
X142640000Y-80710000D02*
X142640000Y-83110000D01*
X142240000Y-83110000D02*
X142240000Y-80710000D01*
X142340000Y-80710000D02*
X142340000Y-83110000D01*
X142465000Y-80710000D02*
X142465000Y-83110000D01*
X147520000Y-80720000D02*
X147520000Y-83120000D01*
X142240000Y-80710000D02*
X147520000Y-80720000D01*
X171230000Y-101900000D02*
X165950000Y-101890000D01*
X165950000Y-101890000D02*
X165950000Y-99490000D01*
X166175000Y-99490000D02*
X166175000Y-101890000D01*
X171230000Y-99500000D02*
X171230000Y-101900000D01*
X166050000Y-99490000D02*
X166050000Y-101890000D01*
X165950000Y-99490000D02*
X171230000Y-99500000D01*
X166350000Y-99490000D02*
X166350000Y-101890000D01*
X169700000Y-35180000D02*
X167300000Y-35180000D01*
X167310000Y-29900000D02*
X169710000Y-29900000D01*
X167300000Y-34780000D02*
X169700000Y-34780000D01*
X169710000Y-29900000D02*
X169700000Y-35180000D01*
X167300000Y-34955000D02*
X169700000Y-34955000D01*
X167300000Y-35180000D02*
X167310000Y-29900000D01*
X167300000Y-35080000D02*
X169700000Y-35080000D01*
X147220000Y-42770000D02*
X147220000Y-45170000D01*
X146820000Y-42770000D02*
X152100000Y-42780000D01*
X147045000Y-42770000D02*
X147045000Y-45170000D01*
X152100000Y-45180000D02*
X146820000Y-45170000D01*
X152100000Y-42780000D02*
X152100000Y-45180000D01*
X146820000Y-45170000D02*
X146820000Y-42770000D01*
X146920000Y-42770000D02*
X146920000Y-45170000D01*
X152080000Y-61720000D02*
X152080000Y-64120000D01*
X156960000Y-61730000D02*
X156960000Y-64130000D01*
X151780000Y-61720000D02*
X151780000Y-64120000D01*
X151680000Y-64120000D02*
X151680000Y-61720000D01*
X151680000Y-61720000D02*
X156960000Y-61730000D01*
X151905000Y-61720000D02*
X151905000Y-64120000D01*
X156960000Y-64130000D02*
X151680000Y-64120000D01*
X163580000Y-83130000D02*
X163580000Y-80730000D01*
X168860000Y-80740000D02*
X168860000Y-83140000D01*
X163680000Y-80730000D02*
X163680000Y-83130000D01*
X168860000Y-83140000D02*
X163580000Y-83130000D01*
X163980000Y-80730000D02*
X163980000Y-83130000D01*
X163580000Y-80730000D02*
X168860000Y-80740000D01*
X163805000Y-80730000D02*
X163805000Y-83130000D01*
X184950000Y-99510000D02*
X190230000Y-99520000D01*
X185050000Y-99510000D02*
X185050000Y-101910000D01*
X185350000Y-99510000D02*
X185350000Y-101910000D01*
X190230000Y-99520000D02*
X190230000Y-101920000D01*
X184950000Y-101910000D02*
X184950000Y-99510000D01*
X185175000Y-99510000D02*
X185175000Y-101910000D01*
X190230000Y-101920000D02*
X184950000Y-101910000D01*
X172310000Y-29900000D02*
X174710000Y-29900000D01*
X174700000Y-35180000D02*
X172300000Y-35180000D01*
X172300000Y-34780000D02*
X174700000Y-34780000D01*
X172300000Y-35080000D02*
X174700000Y-35080000D01*
X172300000Y-34955000D02*
X174700000Y-34955000D01*
X172300000Y-35180000D02*
X172310000Y-29900000D01*
X174710000Y-29900000D02*
X174700000Y-35180000D01*
X166250000Y-45140000D02*
X166250000Y-42740000D01*
X166350000Y-42740000D02*
X166350000Y-45140000D01*
X171530000Y-45150000D02*
X166250000Y-45140000D01*
X166250000Y-42740000D02*
X171530000Y-42750000D01*
X171530000Y-42750000D02*
X171530000Y-45150000D01*
X166650000Y-42740000D02*
X166650000Y-45140000D01*
X166475000Y-42740000D02*
X166475000Y-45140000D01*
X177780000Y-61730000D02*
X183060000Y-61740000D01*
X177780000Y-64130000D02*
X177780000Y-61730000D01*
X178180000Y-61730000D02*
X178180000Y-64130000D01*
X177880000Y-61730000D02*
X177880000Y-64130000D01*
X178005000Y-61730000D02*
X178005000Y-64130000D01*
X183060000Y-64140000D02*
X177780000Y-64130000D01*
X183060000Y-61740000D02*
X183060000Y-64140000D01*
X185290000Y-80480000D02*
X185290000Y-82880000D01*
X184890000Y-80480000D02*
X190170000Y-80490000D01*
X185115000Y-80480000D02*
X185115000Y-82880000D01*
X184890000Y-82880000D02*
X184890000Y-80480000D01*
X184990000Y-80480000D02*
X184990000Y-82880000D01*
X190170000Y-80490000D02*
X190170000Y-82890000D01*
X190170000Y-82890000D02*
X184890000Y-82880000D01*
X203980000Y-99470000D02*
X203980000Y-101870000D01*
X203880000Y-99470000D02*
X209160000Y-99480000D01*
X209160000Y-101880000D02*
X203880000Y-101870000D01*
X203880000Y-101870000D02*
X203880000Y-99470000D01*
X204105000Y-99470000D02*
X204105000Y-101870000D01*
X209160000Y-99480000D02*
X209160000Y-101880000D01*
X204280000Y-99470000D02*
X204280000Y-101870000D01*
X185050000Y-42730000D02*
X190330000Y-42740000D01*
X190330000Y-42740000D02*
X190330000Y-45140000D01*
X185050000Y-45130000D02*
X185050000Y-42730000D01*
X185275000Y-42730000D02*
X185275000Y-45130000D01*
X185150000Y-42730000D02*
X185150000Y-45130000D01*
X185450000Y-42730000D02*
X185450000Y-45130000D01*
X190330000Y-45140000D02*
X185050000Y-45130000D01*
D12*
X70530000Y-40690000D02*
X68752000Y-40690000D01*
X57830000Y-27990000D02*
X59608000Y-27990000D01*
X57830000Y-40690000D02*
X57830000Y-38912000D01*
X68752000Y-27990000D02*
X70530000Y-27990000D01*
X57830000Y-29768000D02*
X57830000Y-27990000D01*
X70530000Y-38912000D02*
X70530000Y-40690000D01*
X70530000Y-27990000D02*
X70530000Y-29768000D01*
X59608000Y-40690000D02*
X57830000Y-40690000D01*
X89550000Y-28010000D02*
X89550000Y-29788000D01*
X89550000Y-38932000D02*
X89550000Y-40710000D01*
X87772000Y-28010000D02*
X89550000Y-28010000D01*
X89550000Y-40710000D02*
X87772000Y-40710000D01*
X76850000Y-29788000D02*
X76850000Y-28010000D01*
X76850000Y-28010000D02*
X78628000Y-28010000D01*
X76850000Y-40710000D02*
X76850000Y-38932000D01*
X78628000Y-40710000D02*
X76850000Y-40710000D01*
X40232000Y-46980000D02*
X42010000Y-46980000D01*
X42010000Y-57902000D02*
X42010000Y-59680000D01*
X42010000Y-46980000D02*
X42010000Y-48758000D01*
X29310000Y-59680000D02*
X29310000Y-57902000D01*
X31088000Y-59680000D02*
X29310000Y-59680000D01*
X42010000Y-59680000D02*
X40232000Y-59680000D01*
X29310000Y-48758000D02*
X29310000Y-46980000D01*
X29310000Y-46980000D02*
X31088000Y-46980000D01*
X46770000Y-78690000D02*
X44992000Y-78690000D01*
X46770000Y-65990000D02*
X46770000Y-67768000D01*
X44992000Y-65990000D02*
X46770000Y-65990000D01*
X34070000Y-78690000D02*
X34070000Y-76912000D01*
X34070000Y-65990000D02*
X35848000Y-65990000D01*
X34070000Y-67768000D02*
X34070000Y-65990000D01*
X46770000Y-76912000D02*
X46770000Y-78690000D01*
X35848000Y-78690000D02*
X34070000Y-78690000D01*
X56300000Y-97700000D02*
X54522000Y-97700000D01*
X45378000Y-97700000D02*
X43600000Y-97700000D01*
X56300000Y-85000000D02*
X56300000Y-86778000D01*
X43600000Y-86778000D02*
X43600000Y-85000000D01*
X56300000Y-95922000D02*
X56300000Y-97700000D01*
X54522000Y-85000000D02*
X56300000Y-85000000D01*
X43600000Y-85000000D02*
X45378000Y-85000000D01*
X43600000Y-97700000D02*
X43600000Y-95922000D01*
X45098876Y-132155220D02*
X43428103Y-132763332D01*
X44490764Y-130484447D02*
X45098876Y-132155220D01*
X39084447Y-120829236D02*
X40755220Y-120221124D01*
X28821124Y-124564780D02*
X30491897Y-123956668D01*
X34835553Y-135890764D02*
X33164780Y-136498876D01*
X33164780Y-136498876D02*
X32556668Y-134828103D01*
X29429236Y-126235553D02*
X28821124Y-124564780D01*
X40755220Y-120221124D02*
X41363332Y-121891897D01*
X61030000Y-57902000D02*
X61030000Y-59680000D01*
X59252000Y-46980000D02*
X61030000Y-46980000D01*
X48330000Y-46980000D02*
X50108000Y-46980000D01*
X48330000Y-59680000D02*
X48330000Y-57902000D01*
X48330000Y-48758000D02*
X48330000Y-46980000D01*
X50108000Y-59680000D02*
X48330000Y-59680000D01*
X61030000Y-59680000D02*
X59252000Y-59680000D01*
X61030000Y-46980000D02*
X61030000Y-48758000D01*
X54828000Y-78700000D02*
X53050000Y-78700000D01*
X63972000Y-66000000D02*
X65750000Y-66000000D01*
X53050000Y-66000000D02*
X54828000Y-66000000D01*
X65750000Y-78700000D02*
X63972000Y-78700000D01*
X53050000Y-67778000D02*
X53050000Y-66000000D01*
X65750000Y-76922000D02*
X65750000Y-78700000D01*
X53050000Y-78700000D02*
X53050000Y-76922000D01*
X65750000Y-66000000D02*
X65750000Y-67778000D01*
X64338000Y-97710000D02*
X62560000Y-97710000D01*
X62560000Y-85010000D02*
X64338000Y-85010000D01*
X75260000Y-95932000D02*
X75260000Y-97710000D01*
X62560000Y-86788000D02*
X62560000Y-85010000D01*
X73482000Y-85010000D02*
X75260000Y-85010000D01*
X75260000Y-97710000D02*
X73482000Y-97710000D01*
X75260000Y-85010000D02*
X75260000Y-86788000D01*
X62560000Y-97710000D02*
X62560000Y-95932000D01*
X67350000Y-59680000D02*
X67350000Y-57902000D01*
X80050000Y-46980000D02*
X80050000Y-48758000D01*
X80050000Y-59680000D02*
X78272000Y-59680000D01*
X67350000Y-48758000D02*
X67350000Y-46980000D01*
X69128000Y-59680000D02*
X67350000Y-59680000D01*
X78272000Y-46980000D02*
X80050000Y-46980000D01*
X67350000Y-46980000D02*
X69128000Y-46980000D01*
X80050000Y-57902000D02*
X80050000Y-59680000D01*
X84810000Y-76902000D02*
X84810000Y-78680000D01*
X84810000Y-65980000D02*
X84810000Y-67758000D01*
X84810000Y-78680000D02*
X83032000Y-78680000D01*
X72110000Y-67758000D02*
X72110000Y-65980000D01*
X72110000Y-65980000D02*
X73888000Y-65980000D01*
X83032000Y-65980000D02*
X84810000Y-65980000D01*
X73888000Y-78680000D02*
X72110000Y-78680000D01*
X72110000Y-78680000D02*
X72110000Y-76902000D01*
X92502000Y-84990000D02*
X94280000Y-84990000D01*
X94280000Y-95912000D02*
X94280000Y-97690000D01*
X81580000Y-97690000D02*
X81580000Y-95912000D01*
X94280000Y-97690000D02*
X92502000Y-97690000D01*
X81580000Y-84990000D02*
X83358000Y-84990000D01*
X81580000Y-86768000D02*
X81580000Y-84990000D01*
X83358000Y-97690000D02*
X81580000Y-97690000D01*
X94280000Y-84990000D02*
X94280000Y-86768000D01*
X69690000Y-103980000D02*
X71468000Y-103980000D01*
X71468000Y-116680000D02*
X69690000Y-116680000D01*
X80612000Y-103980000D02*
X82390000Y-103980000D01*
X69690000Y-116680000D02*
X69690000Y-114902000D01*
X82390000Y-116680000D02*
X80612000Y-116680000D01*
X69690000Y-105758000D02*
X69690000Y-103980000D01*
X82390000Y-114902000D02*
X82390000Y-116680000D01*
X82390000Y-103980000D02*
X82390000Y-105758000D01*
X108540000Y-38952000D02*
X108540000Y-40730000D01*
X108540000Y-28030000D02*
X108540000Y-29808000D01*
X106762000Y-28030000D02*
X108540000Y-28030000D01*
X95840000Y-29808000D02*
X95840000Y-28030000D01*
X97618000Y-40730000D02*
X95840000Y-40730000D01*
X95840000Y-40730000D02*
X95840000Y-38952000D01*
X108540000Y-40730000D02*
X106762000Y-40730000D01*
X95840000Y-28030000D02*
X97618000Y-28030000D01*
X97282000Y-46990000D02*
X99060000Y-46990000D01*
X86360000Y-46990000D02*
X88138000Y-46990000D01*
X86360000Y-59690000D02*
X86360000Y-57912000D01*
X99060000Y-57912000D02*
X99060000Y-59690000D01*
X99060000Y-59690000D02*
X97282000Y-59690000D01*
X99060000Y-46990000D02*
X99060000Y-48768000D01*
X86360000Y-48768000D02*
X86360000Y-46990000D01*
X88138000Y-59690000D02*
X86360000Y-59690000D01*
X102002000Y-65980000D02*
X103780000Y-65980000D01*
X103780000Y-65980000D02*
X103780000Y-67758000D01*
X91080000Y-65980000D02*
X92858000Y-65980000D01*
X91080000Y-67758000D02*
X91080000Y-65980000D01*
X103780000Y-78680000D02*
X102002000Y-78680000D01*
X103780000Y-76902000D02*
X103780000Y-78680000D01*
X91080000Y-78680000D02*
X91080000Y-76902000D01*
X92858000Y-78680000D02*
X91080000Y-78680000D01*
X100570000Y-84980000D02*
X102348000Y-84980000D01*
X113270000Y-84980000D02*
X113270000Y-86758000D01*
X102348000Y-97680000D02*
X100570000Y-97680000D01*
X113270000Y-95902000D02*
X113270000Y-97680000D01*
X113270000Y-97680000D02*
X111492000Y-97680000D01*
X100570000Y-97680000D02*
X100570000Y-95902000D01*
X100570000Y-86758000D02*
X100570000Y-84980000D01*
X111492000Y-84980000D02*
X113270000Y-84980000D01*
X114850000Y-40680000D02*
X114850000Y-38902000D01*
X114850000Y-27980000D02*
X116628000Y-27980000D01*
X127550000Y-38902000D02*
X127550000Y-40680000D01*
X125772000Y-27980000D02*
X127550000Y-27980000D01*
X127550000Y-27980000D02*
X127550000Y-29758000D01*
X114850000Y-29758000D02*
X114850000Y-27980000D01*
X127550000Y-40680000D02*
X125772000Y-40680000D01*
X116628000Y-40680000D02*
X114850000Y-40680000D01*
X107098000Y-59700000D02*
X105320000Y-59700000D01*
X118020000Y-59700000D02*
X116242000Y-59700000D01*
X105320000Y-59700000D02*
X105320000Y-57922000D01*
X118020000Y-57922000D02*
X118020000Y-59700000D01*
X105320000Y-47000000D02*
X107098000Y-47000000D01*
X116242000Y-47000000D02*
X118020000Y-47000000D01*
X118020000Y-47000000D02*
X118020000Y-48778000D01*
X105320000Y-48778000D02*
X105320000Y-47000000D01*
X110080000Y-67768000D02*
X110080000Y-65990000D01*
X121002000Y-65990000D02*
X122780000Y-65990000D01*
X122780000Y-78690000D02*
X121002000Y-78690000D01*
X110080000Y-78690000D02*
X110080000Y-76912000D01*
X122780000Y-76912000D02*
X122780000Y-78690000D01*
X122780000Y-65990000D02*
X122780000Y-67768000D01*
X110080000Y-65990000D02*
X111858000Y-65990000D01*
X111858000Y-78690000D02*
X110080000Y-78690000D01*
X130502000Y-84980000D02*
X132280000Y-84980000D01*
X132280000Y-95902000D02*
X132280000Y-97680000D01*
X119580000Y-86758000D02*
X119580000Y-84980000D01*
X121358000Y-97680000D02*
X119580000Y-97680000D01*
X132280000Y-84980000D02*
X132280000Y-86758000D01*
X132280000Y-97680000D02*
X130502000Y-97680000D01*
X119580000Y-97680000D02*
X119580000Y-95902000D01*
X119580000Y-84980000D02*
X121358000Y-84980000D01*
X140930000Y-116670000D02*
X140930000Y-114892000D01*
X140930000Y-105748000D02*
X140930000Y-103970000D01*
X153630000Y-114892000D02*
X153630000Y-116670000D01*
X151852000Y-103970000D02*
X153630000Y-103970000D01*
X140930000Y-103970000D02*
X142708000Y-103970000D01*
X142708000Y-116670000D02*
X140930000Y-116670000D01*
X153630000Y-103970000D02*
X153630000Y-105748000D01*
X153630000Y-116670000D02*
X151852000Y-116670000D01*
X133850000Y-40690000D02*
X133850000Y-38912000D01*
X146550000Y-38912000D02*
X146550000Y-40690000D01*
X144772000Y-27990000D02*
X146550000Y-27990000D01*
X133850000Y-29768000D02*
X133850000Y-27990000D01*
X146550000Y-27990000D02*
X146550000Y-29768000D01*
X135628000Y-40690000D02*
X133850000Y-40690000D01*
X133850000Y-27990000D02*
X135628000Y-27990000D01*
X146550000Y-40690000D02*
X144772000Y-40690000D01*
X124320000Y-48788000D02*
X124320000Y-47010000D01*
X124320000Y-47010000D02*
X126098000Y-47010000D01*
X137020000Y-47010000D02*
X137020000Y-48788000D01*
X135242000Y-47010000D02*
X137020000Y-47010000D01*
X126098000Y-59710000D02*
X124320000Y-59710000D01*
X137020000Y-57932000D02*
X137020000Y-59710000D01*
X124320000Y-59710000D02*
X124320000Y-57932000D01*
X137020000Y-59710000D02*
X135242000Y-59710000D01*
X141790000Y-65990000D02*
X141790000Y-67768000D01*
X141790000Y-76912000D02*
X141790000Y-78690000D01*
X129090000Y-67768000D02*
X129090000Y-65990000D01*
X130868000Y-78690000D02*
X129090000Y-78690000D01*
X129090000Y-78690000D02*
X129090000Y-76912000D01*
X141790000Y-78690000D02*
X140012000Y-78690000D01*
X129090000Y-65990000D02*
X130868000Y-65990000D01*
X140012000Y-65990000D02*
X141790000Y-65990000D01*
X138590000Y-85000000D02*
X140368000Y-85000000D01*
X151290000Y-95922000D02*
X151290000Y-97700000D01*
X149512000Y-85000000D02*
X151290000Y-85000000D01*
X151290000Y-85000000D02*
X151290000Y-86778000D01*
X140368000Y-97700000D02*
X138590000Y-97700000D01*
X138590000Y-97700000D02*
X138590000Y-95922000D01*
X151290000Y-97700000D02*
X149512000Y-97700000D01*
X138590000Y-86778000D02*
X138590000Y-85000000D01*
X162120000Y-116460000D02*
X162120000Y-114682000D01*
X162120000Y-103760000D02*
X163898000Y-103760000D01*
X173042000Y-103760000D02*
X174820000Y-103760000D01*
X174820000Y-114682000D02*
X174820000Y-116460000D01*
X174820000Y-103760000D02*
X174820000Y-105538000D01*
X163898000Y-116460000D02*
X162120000Y-116460000D01*
X174820000Y-116460000D02*
X173042000Y-116460000D01*
X162120000Y-105538000D02*
X162120000Y-103760000D01*
X152825000Y-27990000D02*
X154603000Y-27990000D01*
X165525000Y-40690000D02*
X163747000Y-40690000D01*
X154603000Y-40690000D02*
X152825000Y-40690000D01*
X163747000Y-27990000D02*
X165525000Y-27990000D01*
X152825000Y-29768000D02*
X152825000Y-27990000D01*
X165525000Y-38912000D02*
X165525000Y-40690000D01*
X152825000Y-40690000D02*
X152825000Y-38912000D01*
X165525000Y-27990000D02*
X165525000Y-29768000D01*
X156030000Y-59720000D02*
X154252000Y-59720000D01*
X143330000Y-48798000D02*
X143330000Y-47020000D01*
X143330000Y-47020000D02*
X145108000Y-47020000D01*
X154252000Y-47020000D02*
X156030000Y-47020000D01*
X143330000Y-59720000D02*
X143330000Y-57942000D01*
X156030000Y-57942000D02*
X156030000Y-59720000D01*
X156030000Y-47020000D02*
X156030000Y-48798000D01*
X145108000Y-59720000D02*
X143330000Y-59720000D01*
X148090000Y-65990000D02*
X149868000Y-65990000D01*
X148090000Y-67768000D02*
X148090000Y-65990000D01*
X159012000Y-65990000D02*
X160790000Y-65990000D01*
X148090000Y-78690000D02*
X148090000Y-76912000D01*
X160790000Y-65990000D02*
X160790000Y-67768000D01*
X160790000Y-76912000D02*
X160790000Y-78690000D01*
X160790000Y-78690000D02*
X159012000Y-78690000D01*
X149868000Y-78690000D02*
X148090000Y-78690000D01*
X172660000Y-85000000D02*
X172660000Y-86778000D01*
X161738000Y-97700000D02*
X159960000Y-97700000D01*
X172660000Y-97700000D02*
X170882000Y-97700000D01*
X159960000Y-86778000D02*
X159960000Y-85000000D01*
X170882000Y-85000000D02*
X172660000Y-85000000D01*
X172660000Y-95922000D02*
X172660000Y-97700000D01*
X159960000Y-97700000D02*
X159960000Y-95922000D01*
X159960000Y-85000000D02*
X161738000Y-85000000D01*
X192052000Y-103760000D02*
X193830000Y-103760000D01*
X182908000Y-116460000D02*
X181130000Y-116460000D01*
X181130000Y-105538000D02*
X181130000Y-103760000D01*
X193830000Y-114682000D02*
X193830000Y-116460000D01*
X181130000Y-103760000D02*
X182908000Y-103760000D01*
X193830000Y-116460000D02*
X192052000Y-116460000D01*
X193830000Y-103760000D02*
X193830000Y-105538000D01*
X181130000Y-116460000D02*
X181130000Y-114682000D01*
X176580000Y-29788000D02*
X176580000Y-28010000D01*
X189280000Y-40710000D02*
X187502000Y-40710000D01*
X178358000Y-40710000D02*
X176580000Y-40710000D01*
X187502000Y-28010000D02*
X189280000Y-28010000D01*
X189280000Y-28010000D02*
X189280000Y-29788000D01*
X189280000Y-38932000D02*
X189280000Y-40710000D01*
X176580000Y-40710000D02*
X176580000Y-38932000D01*
X176580000Y-28010000D02*
X178358000Y-28010000D01*
X162330000Y-59710000D02*
X162330000Y-57932000D01*
X173252000Y-47010000D02*
X175030000Y-47010000D01*
X162330000Y-48788000D02*
X162330000Y-47010000D01*
X175030000Y-47010000D02*
X175030000Y-48788000D01*
X175030000Y-57932000D02*
X175030000Y-59710000D01*
X175030000Y-59710000D02*
X173252000Y-59710000D01*
X162330000Y-47010000D02*
X164108000Y-47010000D01*
X164108000Y-59710000D02*
X162330000Y-59710000D01*
X186910000Y-78670000D02*
X185132000Y-78670000D01*
X174210000Y-78670000D02*
X174210000Y-76892000D01*
X174210000Y-67748000D02*
X174210000Y-65970000D01*
X186910000Y-76892000D02*
X186910000Y-78670000D01*
X186910000Y-65970000D02*
X186910000Y-67748000D01*
X185132000Y-65970000D02*
X186910000Y-65970000D01*
X174210000Y-65970000D02*
X175988000Y-65970000D01*
X175988000Y-78670000D02*
X174210000Y-78670000D01*
X212830000Y-103750000D02*
X212830000Y-105528000D01*
X201908000Y-116450000D02*
X200130000Y-116450000D01*
X212830000Y-116450000D02*
X211052000Y-116450000D01*
X200130000Y-103750000D02*
X201908000Y-103750000D01*
X200130000Y-116450000D02*
X200130000Y-114672000D01*
X212830000Y-114672000D02*
X212830000Y-116450000D01*
X211052000Y-103750000D02*
X212830000Y-103750000D01*
X200130000Y-105528000D02*
X200130000Y-103750000D01*
X194040000Y-46990000D02*
X194040000Y-48768000D01*
X194040000Y-59690000D02*
X192262000Y-59690000D01*
X181340000Y-59690000D02*
X181340000Y-57912000D01*
X181340000Y-48768000D02*
X181340000Y-46990000D01*
X194040000Y-57912000D02*
X194040000Y-59690000D01*
X183118000Y-59690000D02*
X181340000Y-59690000D01*
X192262000Y-46990000D02*
X194040000Y-46990000D01*
X181340000Y-46990000D02*
X183118000Y-46990000D01*
D10*
X33740000Y-25810000D02*
X27640000Y-25810000D01*
X33740000Y-25810000D02*
X33740000Y-37910000D01*
X27640000Y-25810000D02*
X27640000Y-37910000D01*
X33740000Y-37910000D02*
X27640000Y-37910000D01*
D12*
X119690000Y-103980000D02*
X121468000Y-103980000D01*
X119690000Y-116680000D02*
X119690000Y-114902000D01*
X132390000Y-103980000D02*
X132390000Y-105758000D01*
X132390000Y-116680000D02*
X130612000Y-116680000D01*
X121468000Y-116680000D02*
X119690000Y-116680000D01*
X132390000Y-114902000D02*
X132390000Y-116680000D01*
X119690000Y-105758000D02*
X119690000Y-103980000D01*
X130612000Y-103980000D02*
X132390000Y-103980000D01*
X51530000Y-40690000D02*
X49752000Y-40690000D01*
X49752000Y-27990000D02*
X51530000Y-27990000D01*
X38830000Y-27990000D02*
X40608000Y-27990000D01*
X38830000Y-29768000D02*
X38830000Y-27990000D01*
X40608000Y-40690000D02*
X38830000Y-40690000D01*
X51530000Y-27990000D02*
X51530000Y-29768000D01*
X38830000Y-40690000D02*
X38830000Y-38912000D01*
X51530000Y-38912000D02*
X51530000Y-40690000D01*
X44909236Y-113115553D02*
X44301124Y-111444780D01*
X59970764Y-117364447D02*
X60578876Y-119035220D01*
X44301124Y-111444780D02*
X45971897Y-110836668D01*
X60578876Y-119035220D02*
X58908103Y-119643332D01*
X56235220Y-107101124D02*
X56843332Y-108771897D01*
X50315553Y-122770764D02*
X48644780Y-123378876D01*
X54564447Y-107709236D02*
X56235220Y-107101124D01*
X48644780Y-123378876D02*
X48036668Y-121708103D01*
D11*
X195560000Y-68900000D02*
X197960000Y-68900000D01*
X197950000Y-74180000D02*
X195550000Y-74180000D01*
X195550000Y-73780000D02*
X197950000Y-73780000D01*
X195550000Y-74180000D02*
X195560000Y-68900000D01*
X197960000Y-68900000D02*
X197950000Y-74180000D01*
X195550000Y-74080000D02*
X197950000Y-74080000D01*
X195550000Y-73955000D02*
X197950000Y-73955000D01*
X208680000Y-83120000D02*
X203400000Y-83110000D01*
X203500000Y-80710000D02*
X203500000Y-83110000D01*
X203625000Y-80710000D02*
X203625000Y-83110000D01*
X203400000Y-80710000D02*
X208680000Y-80720000D01*
X208680000Y-80720000D02*
X208680000Y-83120000D01*
X203400000Y-83110000D02*
X203400000Y-80710000D01*
X203800000Y-80710000D02*
X203800000Y-83110000D01*
D12*
X199860000Y-65960000D02*
X201638000Y-65960000D01*
X212560000Y-65960000D02*
X212560000Y-67738000D01*
X199860000Y-67738000D02*
X199860000Y-65960000D01*
X201638000Y-78660000D02*
X199860000Y-78660000D01*
X199860000Y-78660000D02*
X199860000Y-76882000D01*
X210782000Y-65960000D02*
X212560000Y-65960000D01*
X212560000Y-76882000D02*
X212560000Y-78660000D01*
X212560000Y-78660000D02*
X210782000Y-78660000D01*
X182908000Y-97450000D02*
X181130000Y-97450000D01*
X181130000Y-86528000D02*
X181130000Y-84750000D01*
X192052000Y-84750000D02*
X193830000Y-84750000D01*
X193830000Y-84750000D02*
X193830000Y-86528000D01*
X181130000Y-84750000D02*
X182908000Y-84750000D01*
X181130000Y-97450000D02*
X181130000Y-95672000D01*
X193830000Y-95672000D02*
X193830000Y-97450000D01*
X193830000Y-97450000D02*
X192052000Y-97450000D01*
X210772000Y-84990000D02*
X212550000Y-84990000D01*
X199850000Y-86768000D02*
X199850000Y-84990000D01*
X212550000Y-95912000D02*
X212550000Y-97690000D01*
X212550000Y-97690000D02*
X210772000Y-97690000D01*
X199850000Y-97690000D02*
X199850000Y-95912000D01*
X212550000Y-84990000D02*
X212550000Y-86768000D01*
X199850000Y-84990000D02*
X201628000Y-84990000D01*
X201628000Y-97690000D02*
X199850000Y-97690000D01*
X197880000Y-25309750D02*
X215660000Y-25309750D01*
X213120000Y-31844750D02*
X213120000Y-34384750D01*
X213120000Y-34384750D02*
X215660000Y-34384750D01*
X215660000Y-62324750D02*
X197880000Y-62324750D01*
X215660000Y-25309750D02*
X215660000Y-29304750D01*
X213120000Y-31844750D02*
X215660000Y-31844750D01*
X197880000Y-25309750D02*
X197880000Y-29304750D01*
X215660000Y-29304750D02*
X215660000Y-62324750D01*
X197880000Y-62324750D02*
X197880000Y-29304750D01*
G36*
X200925365Y-37833780D02*
G01*
X200425365Y-37833780D01*
X200425365Y-37733780D01*
X200925365Y-37733780D01*
X200925365Y-37833780D01*
G37*
D10*
X200925365Y-37833780D02*
X200425365Y-37833780D01*
X200425365Y-37733780D01*
X200925365Y-37733780D01*
X200925365Y-37833780D01*
G36*
X200725365Y-38233780D02*
G01*
X200625365Y-38233780D01*
X200625365Y-38133780D01*
X200725365Y-38133780D01*
X200725365Y-38233780D01*
G37*
X200725365Y-38233780D02*
X200625365Y-38233780D01*
X200625365Y-38133780D01*
X200725365Y-38133780D01*
X200725365Y-38233780D01*
G36*
X200925365Y-38533780D02*
G01*
X200825365Y-38533780D01*
X200825365Y-38333780D01*
X200925365Y-38333780D01*
X200925365Y-38533780D01*
G37*
X200925365Y-38533780D02*
X200825365Y-38533780D01*
X200825365Y-38333780D01*
X200925365Y-38333780D01*
X200925365Y-38533780D01*
G36*
X200925365Y-38033780D02*
G01*
X200825365Y-38033780D01*
X200825365Y-37733780D01*
X200925365Y-37733780D01*
X200925365Y-38033780D01*
G37*
X200925365Y-38033780D02*
X200825365Y-38033780D01*
X200825365Y-37733780D01*
X200925365Y-37733780D01*
X200925365Y-38033780D01*
G36*
X200525365Y-38533780D02*
G01*
X200425365Y-38533780D01*
X200425365Y-37733780D01*
X200525365Y-37733780D01*
X200525365Y-38533780D01*
G37*
X200525365Y-38533780D02*
X200425365Y-38533780D01*
X200425365Y-37733780D01*
X200525365Y-37733780D01*
X200525365Y-38533780D01*
D13*
X54750000Y-36400000D03*
D14*
X54750000Y-28600000D03*
D13*
X73750000Y-36400000D03*
D14*
X73750000Y-28600000D03*
D13*
X92500000Y-36400000D03*
D14*
X92500000Y-28600000D03*
D13*
X31680000Y-43910000D03*
D14*
X39480000Y-43910000D03*
D13*
X36480000Y-62930000D03*
D14*
X44280000Y-62930000D03*
D13*
X45980000Y-81940000D03*
D14*
X53780000Y-81940000D03*
D15*
X29955199Y-120873879D03*
D14*
X37284801Y-118206121D03*
D13*
X51020000Y-43910000D03*
D14*
X58820000Y-43910000D03*
D13*
X55450000Y-62930000D03*
D14*
X63250000Y-62930000D03*
D13*
X65020000Y-81960000D03*
D14*
X72820000Y-81960000D03*
D15*
X45605199Y-107703879D03*
D14*
X52934801Y-105036121D03*
D13*
X69870000Y-43890000D03*
D14*
X77670000Y-43890000D03*
D13*
X74800000Y-62900000D03*
D14*
X82600000Y-62900000D03*
D13*
X83950000Y-81930000D03*
D14*
X91750000Y-81930000D03*
D13*
X71885000Y-100900000D03*
D14*
X79685000Y-100900000D03*
D13*
X111750000Y-36400000D03*
D14*
X111750000Y-28600000D03*
D13*
X88950000Y-43940000D03*
D14*
X96750000Y-43940000D03*
D13*
X93570000Y-62940000D03*
D14*
X101370000Y-62940000D03*
D13*
X102980000Y-81880000D03*
D14*
X110780000Y-81880000D03*
D13*
X122200000Y-100910000D03*
D14*
X130000000Y-100910000D03*
D13*
X130500000Y-36400000D03*
D14*
X130500000Y-28600000D03*
D13*
X107960000Y-43940000D03*
D14*
X115760000Y-43940000D03*
D13*
X112530000Y-62910000D03*
D14*
X120330000Y-62910000D03*
D13*
X121940000Y-81930000D03*
D14*
X129740000Y-81930000D03*
D13*
X143410000Y-100900000D03*
D14*
X151210000Y-100900000D03*
D13*
X149750000Y-36400000D03*
D14*
X149750000Y-28600000D03*
D13*
X126740000Y-43950000D03*
D14*
X134540000Y-43950000D03*
D13*
X131580000Y-62910000D03*
D14*
X139380000Y-62910000D03*
D13*
X141020000Y-81910000D03*
D14*
X148820000Y-81910000D03*
D13*
X164730000Y-100690000D03*
D14*
X172530000Y-100690000D03*
D13*
X168500000Y-36400000D03*
D14*
X168500000Y-28600000D03*
D13*
X145600000Y-43970000D03*
D14*
X153400000Y-43970000D03*
D13*
X150460000Y-62920000D03*
D14*
X158260000Y-62920000D03*
D13*
X162360000Y-81930000D03*
D14*
X170160000Y-81930000D03*
D13*
X183730000Y-100710000D03*
D14*
X191530000Y-100710000D03*
D13*
X173500000Y-36400000D03*
D14*
X173500000Y-28600000D03*
D13*
X165030000Y-43940000D03*
D14*
X172830000Y-43940000D03*
D13*
X176560000Y-62930000D03*
D14*
X184360000Y-62930000D03*
D13*
X183670000Y-81680000D03*
D14*
X191470000Y-81680000D03*
D13*
X202660000Y-100670000D03*
D14*
X210460000Y-100670000D03*
D13*
X183830000Y-43930000D03*
D14*
X191630000Y-43930000D03*
D16*
X60925000Y-30820000D03*
D17*
X66700000Y-29550000D03*
D16*
X79945000Y-30840000D03*
D17*
X85720000Y-29570000D03*
D16*
X32405000Y-49810000D03*
D17*
X38180000Y-48540000D03*
D16*
X37165000Y-68820000D03*
D17*
X42940000Y-67550000D03*
D16*
X46695000Y-87830000D03*
D17*
X52470000Y-86560000D03*
D18*
X34765558Y-132622610D03*
D19*
X31596982Y-127630251D03*
D16*
X51425000Y-49810000D03*
D17*
X57200000Y-48540000D03*
D16*
X56145000Y-68830000D03*
D17*
X61920000Y-67560000D03*
D16*
X65655000Y-87840000D03*
D17*
X71430000Y-86570000D03*
D16*
X70445000Y-49810000D03*
D17*
X76220000Y-48540000D03*
D16*
X75205000Y-68810000D03*
D17*
X80980000Y-67540000D03*
D16*
X84675000Y-87820000D03*
D17*
X90450000Y-86550000D03*
D16*
X72785000Y-106810000D03*
D17*
X78560000Y-105540000D03*
D16*
X98935000Y-30860000D03*
D17*
X104710000Y-29590000D03*
D16*
X89455000Y-49820000D03*
D17*
X95230000Y-48550000D03*
D16*
X94175000Y-68810000D03*
D17*
X99950000Y-67540000D03*
D16*
X103665000Y-87810000D03*
D17*
X109440000Y-86540000D03*
D16*
X117945000Y-30810000D03*
D17*
X123720000Y-29540000D03*
D16*
X108415000Y-49830000D03*
D17*
X114190000Y-48560000D03*
D16*
X113175000Y-68820000D03*
D17*
X118950000Y-67550000D03*
D16*
X122675000Y-87810000D03*
D17*
X128450000Y-86540000D03*
D16*
X144025000Y-106800000D03*
D17*
X149800000Y-105530000D03*
D16*
X136945000Y-30820000D03*
D17*
X142720000Y-29550000D03*
D16*
X127415000Y-49840000D03*
D17*
X133190000Y-48570000D03*
D16*
X132185000Y-68820000D03*
D17*
X137960000Y-67550000D03*
D16*
X141685000Y-87830000D03*
D17*
X147460000Y-86560000D03*
D16*
X165215000Y-106590000D03*
D17*
X170990000Y-105320000D03*
D16*
X155920000Y-30820000D03*
D17*
X161695000Y-29550000D03*
D16*
X146425000Y-49850000D03*
D17*
X152200000Y-48580000D03*
D16*
X151185000Y-68820000D03*
D17*
X156960000Y-67550000D03*
D16*
X163055000Y-87830000D03*
D17*
X168830000Y-86560000D03*
D16*
X184225000Y-106590000D03*
D17*
X190000000Y-105320000D03*
D16*
X179675000Y-30840000D03*
D17*
X185450000Y-29570000D03*
D16*
X165425000Y-49840000D03*
D17*
X171200000Y-48570000D03*
D16*
X177305000Y-68800000D03*
D17*
X183080000Y-67530000D03*
D16*
X203225000Y-106580000D03*
D17*
X209000000Y-105310000D03*
D16*
X184435000Y-49820000D03*
D17*
X190210000Y-48550000D03*
D16*
X122785000Y-106810000D03*
D17*
X128560000Y-105540000D03*
D16*
X41925000Y-30820000D03*
D17*
X47700000Y-29550000D03*
D18*
X50245558Y-119502610D03*
D19*
X47076982Y-114510251D03*
D13*
X196750000Y-75400000D03*
D14*
X196750000Y-67600000D03*
D13*
X202180000Y-81910000D03*
D14*
X209980000Y-81910000D03*
D16*
X202955000Y-68790000D03*
D17*
X208730000Y-67520000D03*
D16*
X184225000Y-87580000D03*
D17*
X190000000Y-86310000D03*
D16*
X202945000Y-87820000D03*
D17*
X208720000Y-86550000D03*
D20*
X214390000Y-33114750D03*
D21*
X214390000Y-35654750D03*
X214390000Y-38194750D03*
X214390000Y-40734750D03*
X214390000Y-43274750D03*
X214390000Y-45814750D03*
X214390000Y-48354750D03*
X214390000Y-50894750D03*
X214390000Y-53434750D03*
X214390000Y-55974750D03*
X214390000Y-58514750D03*
X214390000Y-61054750D03*
X199150000Y-61054750D03*
X199150000Y-58514750D03*
X199150000Y-55974750D03*
X199150000Y-53434750D03*
X199150000Y-50894750D03*
X199150000Y-48354750D03*
X199150000Y-45814750D03*
X199150000Y-43274750D03*
X199150000Y-40734750D03*
X199150000Y-38194750D03*
X199150000Y-35654750D03*
X199150000Y-33114750D03*
%LPC*%
D13*
X54750000Y-36400000D03*
D22*
X54750000Y-34075000D03*
X54750000Y-30925000D03*
D14*
X54750000Y-28600000D03*
D13*
X73750000Y-36400000D03*
D22*
X73750000Y-34075000D03*
D14*
X73750000Y-28600000D03*
D22*
X73750000Y-30925000D03*
X92500000Y-34075000D03*
D13*
X92500000Y-36400000D03*
D22*
X92500000Y-30925000D03*
D14*
X92500000Y-28600000D03*
D22*
X34005000Y-43910000D03*
D13*
X31680000Y-43910000D03*
D22*
X37155000Y-43910000D03*
D14*
X39480000Y-43910000D03*
D13*
X36480000Y-62930000D03*
D22*
X38805000Y-62930000D03*
D14*
X44280000Y-62930000D03*
D22*
X41955000Y-62930000D03*
D13*
X45980000Y-81940000D03*
D22*
X48305000Y-81940000D03*
D14*
X53780000Y-81940000D03*
D22*
X51455000Y-81940000D03*
D15*
X29955199Y-120873879D03*
D23*
X32139984Y-120078682D03*
X35100016Y-119001318D03*
D14*
X37284801Y-118206121D03*
D22*
X53345000Y-43910000D03*
D13*
X51020000Y-43910000D03*
D22*
X56495000Y-43910000D03*
D14*
X58820000Y-43910000D03*
D13*
X55450000Y-62930000D03*
D22*
X57775000Y-62930000D03*
D14*
X63250000Y-62930000D03*
D22*
X60925000Y-62930000D03*
X67345000Y-81960000D03*
D13*
X65020000Y-81960000D03*
D22*
X70495000Y-81960000D03*
D14*
X72820000Y-81960000D03*
D23*
X47789984Y-106908682D03*
D15*
X45605199Y-107703879D03*
D23*
X50750016Y-105831318D03*
D14*
X52934801Y-105036121D03*
D13*
X69870000Y-43890000D03*
D22*
X72195000Y-43890000D03*
X75345000Y-43890000D03*
D14*
X77670000Y-43890000D03*
D13*
X74800000Y-62900000D03*
D22*
X77125000Y-62900000D03*
X80275000Y-62900000D03*
D14*
X82600000Y-62900000D03*
D22*
X86275000Y-81930000D03*
D13*
X83950000Y-81930000D03*
D22*
X89425000Y-81930000D03*
D14*
X91750000Y-81930000D03*
D22*
X74210000Y-100900000D03*
D13*
X71885000Y-100900000D03*
D14*
X79685000Y-100900000D03*
D22*
X77360000Y-100900000D03*
X111750000Y-34075000D03*
D13*
X111750000Y-36400000D03*
D22*
X111750000Y-30925000D03*
D14*
X111750000Y-28600000D03*
D22*
X91275000Y-43940000D03*
D13*
X88950000Y-43940000D03*
D22*
X94425000Y-43940000D03*
D14*
X96750000Y-43940000D03*
D13*
X93570000Y-62940000D03*
D22*
X95895000Y-62940000D03*
X99045000Y-62940000D03*
D14*
X101370000Y-62940000D03*
D13*
X102980000Y-81880000D03*
D22*
X105305000Y-81880000D03*
D14*
X110780000Y-81880000D03*
D22*
X108455000Y-81880000D03*
D13*
X122200000Y-100910000D03*
D22*
X124525000Y-100910000D03*
D14*
X130000000Y-100910000D03*
D22*
X127675000Y-100910000D03*
X130500000Y-34075000D03*
D13*
X130500000Y-36400000D03*
D14*
X130500000Y-28600000D03*
D22*
X130500000Y-30925000D03*
D13*
X107960000Y-43940000D03*
D22*
X110285000Y-43940000D03*
X113435000Y-43940000D03*
D14*
X115760000Y-43940000D03*
D22*
X114855000Y-62910000D03*
D13*
X112530000Y-62910000D03*
D22*
X118005000Y-62910000D03*
D14*
X120330000Y-62910000D03*
D13*
X121940000Y-81930000D03*
D22*
X124265000Y-81930000D03*
D14*
X129740000Y-81930000D03*
D22*
X127415000Y-81930000D03*
D13*
X143410000Y-100900000D03*
D22*
X145735000Y-100900000D03*
X148885000Y-100900000D03*
D14*
X151210000Y-100900000D03*
D13*
X149750000Y-36400000D03*
D22*
X149750000Y-34075000D03*
X149750000Y-30925000D03*
D14*
X149750000Y-28600000D03*
D22*
X129065000Y-43950000D03*
D13*
X126740000Y-43950000D03*
D22*
X132215000Y-43950000D03*
D14*
X134540000Y-43950000D03*
D13*
X131580000Y-62910000D03*
D22*
X133905000Y-62910000D03*
X137055000Y-62910000D03*
D14*
X139380000Y-62910000D03*
D22*
X143345000Y-81910000D03*
D13*
X141020000Y-81910000D03*
D22*
X146495000Y-81910000D03*
D14*
X148820000Y-81910000D03*
D13*
X164730000Y-100690000D03*
D22*
X167055000Y-100690000D03*
X170205000Y-100690000D03*
D14*
X172530000Y-100690000D03*
D13*
X168500000Y-36400000D03*
D22*
X168500000Y-34075000D03*
X168500000Y-30925000D03*
D14*
X168500000Y-28600000D03*
D22*
X147925000Y-43970000D03*
D13*
X145600000Y-43970000D03*
D14*
X153400000Y-43970000D03*
D22*
X151075000Y-43970000D03*
D13*
X150460000Y-62920000D03*
D22*
X152785000Y-62920000D03*
X155935000Y-62920000D03*
D14*
X158260000Y-62920000D03*
D22*
X164685000Y-81930000D03*
D13*
X162360000Y-81930000D03*
D14*
X170160000Y-81930000D03*
D22*
X167835000Y-81930000D03*
D13*
X183730000Y-100710000D03*
D22*
X186055000Y-100710000D03*
X189205000Y-100710000D03*
D14*
X191530000Y-100710000D03*
D22*
X173500000Y-34075000D03*
D13*
X173500000Y-36400000D03*
D22*
X173500000Y-30925000D03*
D14*
X173500000Y-28600000D03*
D22*
X167355000Y-43940000D03*
D13*
X165030000Y-43940000D03*
D22*
X170505000Y-43940000D03*
D14*
X172830000Y-43940000D03*
D22*
X178885000Y-62930000D03*
D13*
X176560000Y-62930000D03*
D22*
X182035000Y-62930000D03*
D14*
X184360000Y-62930000D03*
D13*
X183670000Y-81680000D03*
D22*
X185995000Y-81680000D03*
D14*
X191470000Y-81680000D03*
D22*
X189145000Y-81680000D03*
X204985000Y-100670000D03*
D13*
X202660000Y-100670000D03*
D22*
X208135000Y-100670000D03*
D14*
X210460000Y-100670000D03*
D13*
X183830000Y-43930000D03*
D22*
X186155000Y-43930000D03*
X189305000Y-43930000D03*
D14*
X191630000Y-43930000D03*
D16*
X60925000Y-30820000D03*
D17*
X66700000Y-29550000D03*
D16*
X79945000Y-30840000D03*
D17*
X85720000Y-29570000D03*
D16*
X32405000Y-49810000D03*
D17*
X38180000Y-48540000D03*
D16*
X37165000Y-68820000D03*
D17*
X42940000Y-67550000D03*
D16*
X46695000Y-87830000D03*
D17*
X52470000Y-86560000D03*
D18*
X34765558Y-132622610D03*
D19*
X31596982Y-127630251D03*
D16*
X51425000Y-49810000D03*
D17*
X57200000Y-48540000D03*
D16*
X56145000Y-68830000D03*
D17*
X61920000Y-67560000D03*
D16*
X65655000Y-87840000D03*
D17*
X71430000Y-86570000D03*
D16*
X70445000Y-49810000D03*
D17*
X76220000Y-48540000D03*
D16*
X75205000Y-68810000D03*
D17*
X80980000Y-67540000D03*
D16*
X84675000Y-87820000D03*
D17*
X90450000Y-86550000D03*
D16*
X72785000Y-106810000D03*
D17*
X78560000Y-105540000D03*
D16*
X98935000Y-30860000D03*
D17*
X104710000Y-29590000D03*
D16*
X89455000Y-49820000D03*
D17*
X95230000Y-48550000D03*
D16*
X94175000Y-68810000D03*
D17*
X99950000Y-67540000D03*
D16*
X103665000Y-87810000D03*
D17*
X109440000Y-86540000D03*
D16*
X117945000Y-30810000D03*
D17*
X123720000Y-29540000D03*
D16*
X108415000Y-49830000D03*
D17*
X114190000Y-48560000D03*
D16*
X113175000Y-68820000D03*
D17*
X118950000Y-67550000D03*
D16*
X122675000Y-87810000D03*
D17*
X128450000Y-86540000D03*
D16*
X144025000Y-106800000D03*
D17*
X149800000Y-105530000D03*
D16*
X136945000Y-30820000D03*
D17*
X142720000Y-29550000D03*
D16*
X127415000Y-49840000D03*
D17*
X133190000Y-48570000D03*
D16*
X132185000Y-68820000D03*
D17*
X137960000Y-67550000D03*
D16*
X141685000Y-87830000D03*
D17*
X147460000Y-86560000D03*
D16*
X165215000Y-106590000D03*
D17*
X170990000Y-105320000D03*
D16*
X155920000Y-30820000D03*
D17*
X161695000Y-29550000D03*
D16*
X146425000Y-49850000D03*
D17*
X152200000Y-48580000D03*
D16*
X151185000Y-68820000D03*
D17*
X156960000Y-67550000D03*
D16*
X163055000Y-87830000D03*
D17*
X168830000Y-86560000D03*
D16*
X184225000Y-106590000D03*
D17*
X190000000Y-105320000D03*
D16*
X179675000Y-30840000D03*
D17*
X185450000Y-29570000D03*
D16*
X165425000Y-49840000D03*
D17*
X171200000Y-48570000D03*
D16*
X177305000Y-68800000D03*
D17*
X183080000Y-67530000D03*
D16*
X203225000Y-106580000D03*
D17*
X209000000Y-105310000D03*
D16*
X184435000Y-49820000D03*
D17*
X190210000Y-48550000D03*
D24*
X30690000Y-34410000D03*
X30690000Y-27410000D03*
D25*
X28390000Y-37110000D03*
X32990000Y-36010000D03*
X32990000Y-32010000D03*
X32990000Y-29010000D03*
D16*
X122785000Y-106810000D03*
D17*
X128560000Y-105540000D03*
D16*
X41925000Y-30820000D03*
D17*
X47700000Y-29550000D03*
D18*
X50245558Y-119502610D03*
D19*
X47076982Y-114510251D03*
D13*
X196750000Y-75400000D03*
D22*
X196750000Y-73075000D03*
X196750000Y-69925000D03*
D14*
X196750000Y-67600000D03*
D22*
X204505000Y-81910000D03*
D13*
X202180000Y-81910000D03*
D14*
X209980000Y-81910000D03*
D22*
X207655000Y-81910000D03*
D16*
X202955000Y-68790000D03*
D17*
X208730000Y-67520000D03*
D16*
X184225000Y-87580000D03*
D17*
X190000000Y-86310000D03*
D16*
X202945000Y-87820000D03*
D17*
X208720000Y-86550000D03*
D20*
X214390000Y-33114750D03*
D21*
X214390000Y-35654750D03*
X214390000Y-38194750D03*
X214390000Y-40734750D03*
X214390000Y-43274750D03*
X214390000Y-45814750D03*
X214390000Y-48354750D03*
X214390000Y-50894750D03*
X214390000Y-53434750D03*
X214390000Y-55974750D03*
X214390000Y-58514750D03*
X214390000Y-61054750D03*
X199150000Y-61054750D03*
X199150000Y-58514750D03*
X199150000Y-55974750D03*
X199150000Y-53434750D03*
X199150000Y-50894750D03*
X199150000Y-48354750D03*
X199150000Y-45814750D03*
X199150000Y-43274750D03*
X199150000Y-40734750D03*
X199150000Y-38194750D03*
X199150000Y-35654750D03*
X199150000Y-33114750D03*
M02*
