G04 #@! TF.GenerationSoftware,KiCad,Pcbnew,(6.0.10-0)*
G04 #@! TF.CreationDate,2022-12-25T19:45:21-08:00*
G04 #@! TF.ProjectId,right,72696768-742e-46b6-9963-61645f706362,rev?*
G04 #@! TF.SameCoordinates,Original*
G04 #@! TF.FileFunction,Legend,Bot*
G04 #@! TF.FilePolarity,Positive*
%FSLAX46Y46*%
G04 Gerber Fmt 4.6, Leading zero omitted, Abs format (unit mm)*
G04 Created by KiCad (PCBNEW (6.0.10-0)) date 2022-12-25 19:45:21*
%MOMM*%
%LPD*%
G01*
G04 APERTURE LIST*
G04 Aperture macros list*
%AMHorizOval*
0 Thick line with rounded ends*
0 $1 width*
0 $2 $3 position (X,Y) of the first rounded end (center of the circle)*
0 $4 $5 position (X,Y) of the second rounded end (center of the circle)*
0 Add line between two ends*
20,1,$1,$2,$3,$4,$5,0*
0 Add two circle primitives to create the rounded ends*
1,1,$1,$2,$3*
1,1,$1,$4,$5*%
%AMRotRect*
0 Rectangle, with rotation*
0 The origin of the aperture is its center*
0 $1 length*
0 $2 width*
0 $3 Rotation angle, in degrees counterclockwise*
0 Add horizontal line*
21,1,$1,$2,0,0,$3*%
G04 Aperture macros list end*
%ADD10C,0.150000*%
%ADD11C,0.250000*%
%ADD12C,0.200000*%
%ADD13C,0.254000*%
%ADD14C,0.010000*%
%ADD15C,0.381000*%
%ADD16C,0.100000*%
%ADD17R,1.752600X1.752600*%
%ADD18C,1.752600*%
%ADD19R,1.600000X1.600000*%
%ADD20C,1.600000*%
%ADD21RotRect,1.600000X1.600000X20.000000*%
%ADD22HorizOval,2.500000X-0.604462X-0.948815X0.604462X0.948815X0*%
%ADD23HorizOval,2.500000X-0.019724X-0.289328X0.019724X0.289328X0*%
%ADD24HorizOval,2.500000X-1.098333X0.243495X1.098333X-0.243495X0*%
%ADD25HorizOval,2.500000X0.278626X0.080421X-0.278626X-0.080421X0*%
%ADD26C,0.800000*%
%ADD27O,1.600000X2.000000*%
%ADD28R,1.400000X2.100000*%
G04 APERTURE END LIST*
D10*
X51619047Y-138452380D02*
X51619047Y-139166666D01*
X51666666Y-139309523D01*
X51761904Y-139404761D01*
X51904761Y-139452380D01*
X52000000Y-139452380D01*
X50666666Y-139452380D02*
X51142857Y-139452380D01*
X51142857Y-138452380D01*
X49761904Y-139357142D02*
X49809523Y-139404761D01*
X49952380Y-139452380D01*
X50047619Y-139452380D01*
X50190476Y-139404761D01*
X50285714Y-139309523D01*
X50333333Y-139214285D01*
X50380952Y-139023809D01*
X50380952Y-138880952D01*
X50333333Y-138690476D01*
X50285714Y-138595238D01*
X50190476Y-138500000D01*
X50047619Y-138452380D01*
X49952380Y-138452380D01*
X49809523Y-138500000D01*
X49761904Y-138547619D01*
X49047619Y-138452380D02*
X49047619Y-139166666D01*
X49095238Y-139309523D01*
X49190476Y-139404761D01*
X49333333Y-139452380D01*
X49428571Y-139452380D01*
X48095238Y-139452380D02*
X48571428Y-139452380D01*
X48571428Y-138452380D01*
X47190476Y-139357142D02*
X47238095Y-139404761D01*
X47380952Y-139452380D01*
X47476190Y-139452380D01*
X47619047Y-139404761D01*
X47714285Y-139309523D01*
X47761904Y-139214285D01*
X47809523Y-139023809D01*
X47809523Y-138880952D01*
X47761904Y-138690476D01*
X47714285Y-138595238D01*
X47619047Y-138500000D01*
X47476190Y-138452380D01*
X47380952Y-138452380D01*
X47238095Y-138500000D01*
X47190476Y-138547619D01*
X46476190Y-138452380D02*
X46476190Y-139166666D01*
X46523809Y-139309523D01*
X46619047Y-139404761D01*
X46761904Y-139452380D01*
X46857142Y-139452380D01*
X45523809Y-139452380D02*
X46000000Y-139452380D01*
X46000000Y-138452380D01*
X44619047Y-139357142D02*
X44666666Y-139404761D01*
X44809523Y-139452380D01*
X44904761Y-139452380D01*
X45047619Y-139404761D01*
X45142857Y-139309523D01*
X45190476Y-139214285D01*
X45238095Y-139023809D01*
X45238095Y-138880952D01*
X45190476Y-138690476D01*
X45142857Y-138595238D01*
X45047619Y-138500000D01*
X44904761Y-138452380D01*
X44809523Y-138452380D01*
X44666666Y-138500000D01*
X44619047Y-138547619D01*
X43904761Y-138452380D02*
X43904761Y-139166666D01*
X43952380Y-139309523D01*
X44047619Y-139404761D01*
X44190476Y-139452380D01*
X44285714Y-139452380D01*
X42952380Y-139452380D02*
X43428571Y-139452380D01*
X43428571Y-138452380D01*
X42047619Y-139357142D02*
X42095238Y-139404761D01*
X42238095Y-139452380D01*
X42333333Y-139452380D01*
X42476190Y-139404761D01*
X42571428Y-139309523D01*
X42619047Y-139214285D01*
X42666666Y-139023809D01*
X42666666Y-138880952D01*
X42619047Y-138690476D01*
X42571428Y-138595238D01*
X42476190Y-138500000D01*
X42333333Y-138452380D01*
X42238095Y-138452380D01*
X42095238Y-138500000D01*
X42047619Y-138547619D01*
D11*
X108069047Y-115469523D02*
X108259523Y-115564761D01*
X108640476Y-115564761D01*
X108830952Y-115469523D01*
X108926190Y-115279047D01*
X108926190Y-114517142D01*
X108830952Y-114326666D01*
X108640476Y-114231428D01*
X108259523Y-114231428D01*
X108069047Y-114326666D01*
X107973809Y-114517142D01*
X107973809Y-114707619D01*
X108926190Y-114898095D01*
X106830952Y-115564761D02*
X107021428Y-115469523D01*
X107116666Y-115279047D01*
X107116666Y-113564761D01*
X105783333Y-115564761D02*
X105973809Y-115469523D01*
X106069047Y-115279047D01*
X106069047Y-113564761D01*
X105021428Y-115564761D02*
X105021428Y-114231428D01*
X105021428Y-113564761D02*
X105116666Y-113660000D01*
X105021428Y-113755238D01*
X104926190Y-113660000D01*
X105021428Y-113564761D01*
X105021428Y-113755238D01*
X104069047Y-114231428D02*
X104069047Y-116231428D01*
X104069047Y-114326666D02*
X103878571Y-114231428D01*
X103497619Y-114231428D01*
X103307142Y-114326666D01*
X103211904Y-114421904D01*
X103116666Y-114612380D01*
X103116666Y-115183809D01*
X103211904Y-115374285D01*
X103307142Y-115469523D01*
X103497619Y-115564761D01*
X103878571Y-115564761D01*
X104069047Y-115469523D01*
X102354761Y-115469523D02*
X102164285Y-115564761D01*
X101783333Y-115564761D01*
X101592857Y-115469523D01*
X101497619Y-115279047D01*
X101497619Y-115183809D01*
X101592857Y-114993333D01*
X101783333Y-114898095D01*
X102069047Y-114898095D01*
X102259523Y-114802857D01*
X102354761Y-114612380D01*
X102354761Y-114517142D01*
X102259523Y-114326666D01*
X102069047Y-114231428D01*
X101783333Y-114231428D01*
X101592857Y-114326666D01*
X100640476Y-115564761D02*
X100640476Y-114231428D01*
X100640476Y-113564761D02*
X100735714Y-113660000D01*
X100640476Y-113755238D01*
X100545238Y-113660000D01*
X100640476Y-113564761D01*
X100640476Y-113755238D01*
X99783333Y-115469523D02*
X99592857Y-115564761D01*
X99211904Y-115564761D01*
X99021428Y-115469523D01*
X98926190Y-115279047D01*
X98926190Y-115183809D01*
X99021428Y-114993333D01*
X99211904Y-114898095D01*
X99497619Y-114898095D01*
X99688095Y-114802857D01*
X99783333Y-114612380D01*
X99783333Y-114517142D01*
X99688095Y-114326666D01*
X99497619Y-114231428D01*
X99211904Y-114231428D01*
X99021428Y-114326666D01*
X96735714Y-114231428D02*
X96259523Y-115564761D01*
X95783333Y-114231428D01*
X95116666Y-113755238D02*
X95021428Y-113660000D01*
X94830952Y-113564761D01*
X94354761Y-113564761D01*
X94164285Y-113660000D01*
X94069047Y-113755238D01*
X93973809Y-113945714D01*
X93973809Y-114136190D01*
X94069047Y-114421904D01*
X95211904Y-115564761D01*
X93973809Y-115564761D01*
D12*
X64918095Y-39110380D02*
X64918095Y-38110380D01*
X64346666Y-39110380D02*
X64775238Y-38538952D01*
X64346666Y-38110380D02*
X64918095Y-38681809D01*
X63965714Y-38205619D02*
X63918095Y-38158000D01*
X63822857Y-38110380D01*
X63584761Y-38110380D01*
X63489523Y-38158000D01*
X63441904Y-38205619D01*
X63394285Y-38300857D01*
X63394285Y-38396095D01*
X63441904Y-38538952D01*
X64013333Y-39110380D01*
X63394285Y-39110380D01*
X83938095Y-39130380D02*
X83938095Y-38130380D01*
X83366666Y-39130380D02*
X83795238Y-38558952D01*
X83366666Y-38130380D02*
X83938095Y-38701809D01*
X83033333Y-38130380D02*
X82414285Y-38130380D01*
X82747619Y-38511333D01*
X82604761Y-38511333D01*
X82509523Y-38558952D01*
X82461904Y-38606571D01*
X82414285Y-38701809D01*
X82414285Y-38939904D01*
X82461904Y-39035142D01*
X82509523Y-39082761D01*
X82604761Y-39130380D01*
X82890476Y-39130380D01*
X82985714Y-39082761D01*
X83033333Y-39035142D01*
X36398095Y-58100380D02*
X36398095Y-57100380D01*
X35826666Y-58100380D02*
X36255238Y-57528952D01*
X35826666Y-57100380D02*
X36398095Y-57671809D01*
X34969523Y-57433714D02*
X34969523Y-58100380D01*
X35207619Y-57052761D02*
X35445714Y-57767047D01*
X34826666Y-57767047D01*
X41158095Y-77110380D02*
X41158095Y-76110380D01*
X40586666Y-77110380D02*
X41015238Y-76538952D01*
X40586666Y-76110380D02*
X41158095Y-76681809D01*
X39681904Y-76110380D02*
X40158095Y-76110380D01*
X40205714Y-76586571D01*
X40158095Y-76538952D01*
X40062857Y-76491333D01*
X39824761Y-76491333D01*
X39729523Y-76538952D01*
X39681904Y-76586571D01*
X39634285Y-76681809D01*
X39634285Y-76919904D01*
X39681904Y-77015142D01*
X39729523Y-77062761D01*
X39824761Y-77110380D01*
X40062857Y-77110380D01*
X40158095Y-77062761D01*
X40205714Y-77015142D01*
X50688095Y-96120380D02*
X50688095Y-95120380D01*
X50116666Y-96120380D02*
X50545238Y-95548952D01*
X50116666Y-95120380D02*
X50688095Y-95691809D01*
X49259523Y-95120380D02*
X49450000Y-95120380D01*
X49545238Y-95168000D01*
X49592857Y-95215619D01*
X49688095Y-95358476D01*
X49735714Y-95548952D01*
X49735714Y-95929904D01*
X49688095Y-96025142D01*
X49640476Y-96072761D01*
X49545238Y-96120380D01*
X49354761Y-96120380D01*
X49259523Y-96072761D01*
X49211904Y-96025142D01*
X49164285Y-95929904D01*
X49164285Y-95691809D01*
X49211904Y-95596571D01*
X49259523Y-95548952D01*
X49354761Y-95501333D01*
X49545238Y-95501333D01*
X49640476Y-95548952D01*
X49688095Y-95596571D01*
X49735714Y-95691809D01*
X41190248Y-126034850D02*
X40250555Y-126376871D01*
X41385688Y-126571818D02*
X40702141Y-126364532D01*
X40445996Y-126913838D02*
X40787523Y-126181431D01*
X40560002Y-127227069D02*
X40788016Y-127853530D01*
X41581128Y-127108785D01*
X55418095Y-58100380D02*
X55418095Y-57100380D01*
X54846666Y-58100380D02*
X55275238Y-57528952D01*
X54846666Y-57100380D02*
X55418095Y-57671809D01*
X54275238Y-57528952D02*
X54370476Y-57481333D01*
X54418095Y-57433714D01*
X54465714Y-57338476D01*
X54465714Y-57290857D01*
X54418095Y-57195619D01*
X54370476Y-57148000D01*
X54275238Y-57100380D01*
X54084761Y-57100380D01*
X53989523Y-57148000D01*
X53941904Y-57195619D01*
X53894285Y-57290857D01*
X53894285Y-57338476D01*
X53941904Y-57433714D01*
X53989523Y-57481333D01*
X54084761Y-57528952D01*
X54275238Y-57528952D01*
X54370476Y-57576571D01*
X54418095Y-57624190D01*
X54465714Y-57719428D01*
X54465714Y-57909904D01*
X54418095Y-58005142D01*
X54370476Y-58052761D01*
X54275238Y-58100380D01*
X54084761Y-58100380D01*
X53989523Y-58052761D01*
X53941904Y-58005142D01*
X53894285Y-57909904D01*
X53894285Y-57719428D01*
X53941904Y-57624190D01*
X53989523Y-57576571D01*
X54084761Y-57528952D01*
X60138095Y-77120380D02*
X60138095Y-76120380D01*
X59566666Y-77120380D02*
X59995238Y-76548952D01*
X59566666Y-76120380D02*
X60138095Y-76691809D01*
X59090476Y-77120380D02*
X58900000Y-77120380D01*
X58804761Y-77072761D01*
X58757142Y-77025142D01*
X58661904Y-76882285D01*
X58614285Y-76691809D01*
X58614285Y-76310857D01*
X58661904Y-76215619D01*
X58709523Y-76168000D01*
X58804761Y-76120380D01*
X58995238Y-76120380D01*
X59090476Y-76168000D01*
X59138095Y-76215619D01*
X59185714Y-76310857D01*
X59185714Y-76548952D01*
X59138095Y-76644190D01*
X59090476Y-76691809D01*
X58995238Y-76739428D01*
X58804761Y-76739428D01*
X58709523Y-76691809D01*
X58661904Y-76644190D01*
X58614285Y-76548952D01*
X70124285Y-96130380D02*
X70124285Y-95130380D01*
X69552857Y-96130380D02*
X69981428Y-95558952D01*
X69552857Y-95130380D02*
X70124285Y-95701809D01*
X68600476Y-96130380D02*
X69171904Y-96130380D01*
X68886190Y-96130380D02*
X68886190Y-95130380D01*
X68981428Y-95273238D01*
X69076666Y-95368476D01*
X69171904Y-95416095D01*
X67981428Y-95130380D02*
X67886190Y-95130380D01*
X67790952Y-95178000D01*
X67743333Y-95225619D01*
X67695714Y-95320857D01*
X67648095Y-95511333D01*
X67648095Y-95749428D01*
X67695714Y-95939904D01*
X67743333Y-96035142D01*
X67790952Y-96082761D01*
X67886190Y-96130380D01*
X67981428Y-96130380D01*
X68076666Y-96082761D01*
X68124285Y-96035142D01*
X68171904Y-95939904D01*
X68219523Y-95749428D01*
X68219523Y-95511333D01*
X68171904Y-95320857D01*
X68124285Y-95225619D01*
X68076666Y-95178000D01*
X67981428Y-95130380D01*
X74914285Y-58100380D02*
X74914285Y-57100380D01*
X74342857Y-58100380D02*
X74771428Y-57528952D01*
X74342857Y-57100380D02*
X74914285Y-57671809D01*
X73390476Y-58100380D02*
X73961904Y-58100380D01*
X73676190Y-58100380D02*
X73676190Y-57100380D01*
X73771428Y-57243238D01*
X73866666Y-57338476D01*
X73961904Y-57386095D01*
X73009523Y-57195619D02*
X72961904Y-57148000D01*
X72866666Y-57100380D01*
X72628571Y-57100380D01*
X72533333Y-57148000D01*
X72485714Y-57195619D01*
X72438095Y-57290857D01*
X72438095Y-57386095D01*
X72485714Y-57528952D01*
X73057142Y-58100380D01*
X72438095Y-58100380D01*
X79674285Y-77100380D02*
X79674285Y-76100380D01*
X79102857Y-77100380D02*
X79531428Y-76528952D01*
X79102857Y-76100380D02*
X79674285Y-76671809D01*
X78150476Y-77100380D02*
X78721904Y-77100380D01*
X78436190Y-77100380D02*
X78436190Y-76100380D01*
X78531428Y-76243238D01*
X78626666Y-76338476D01*
X78721904Y-76386095D01*
X77817142Y-76100380D02*
X77198095Y-76100380D01*
X77531428Y-76481333D01*
X77388571Y-76481333D01*
X77293333Y-76528952D01*
X77245714Y-76576571D01*
X77198095Y-76671809D01*
X77198095Y-76909904D01*
X77245714Y-77005142D01*
X77293333Y-77052761D01*
X77388571Y-77100380D01*
X77674285Y-77100380D01*
X77769523Y-77052761D01*
X77817142Y-77005142D01*
X89144285Y-96110380D02*
X89144285Y-95110380D01*
X88572857Y-96110380D02*
X89001428Y-95538952D01*
X88572857Y-95110380D02*
X89144285Y-95681809D01*
X87620476Y-96110380D02*
X88191904Y-96110380D01*
X87906190Y-96110380D02*
X87906190Y-95110380D01*
X88001428Y-95253238D01*
X88096666Y-95348476D01*
X88191904Y-95396095D01*
X86763333Y-95443714D02*
X86763333Y-96110380D01*
X87001428Y-95062761D02*
X87239523Y-95777047D01*
X86620476Y-95777047D01*
X77254285Y-115100380D02*
X77254285Y-114100380D01*
X76682857Y-115100380D02*
X77111428Y-114528952D01*
X76682857Y-114100380D02*
X77254285Y-114671809D01*
X75730476Y-115100380D02*
X76301904Y-115100380D01*
X76016190Y-115100380D02*
X76016190Y-114100380D01*
X76111428Y-114243238D01*
X76206666Y-114338476D01*
X76301904Y-114386095D01*
X74825714Y-114100380D02*
X75301904Y-114100380D01*
X75349523Y-114576571D01*
X75301904Y-114528952D01*
X75206666Y-114481333D01*
X74968571Y-114481333D01*
X74873333Y-114528952D01*
X74825714Y-114576571D01*
X74778095Y-114671809D01*
X74778095Y-114909904D01*
X74825714Y-115005142D01*
X74873333Y-115052761D01*
X74968571Y-115100380D01*
X75206666Y-115100380D01*
X75301904Y-115052761D01*
X75349523Y-115005142D01*
X103404285Y-39150380D02*
X103404285Y-38150380D01*
X102832857Y-39150380D02*
X103261428Y-38578952D01*
X102832857Y-38150380D02*
X103404285Y-38721809D01*
X101880476Y-39150380D02*
X102451904Y-39150380D01*
X102166190Y-39150380D02*
X102166190Y-38150380D01*
X102261428Y-38293238D01*
X102356666Y-38388476D01*
X102451904Y-38436095D01*
X101023333Y-38150380D02*
X101213809Y-38150380D01*
X101309047Y-38198000D01*
X101356666Y-38245619D01*
X101451904Y-38388476D01*
X101499523Y-38578952D01*
X101499523Y-38959904D01*
X101451904Y-39055142D01*
X101404285Y-39102761D01*
X101309047Y-39150380D01*
X101118571Y-39150380D01*
X101023333Y-39102761D01*
X100975714Y-39055142D01*
X100928095Y-38959904D01*
X100928095Y-38721809D01*
X100975714Y-38626571D01*
X101023333Y-38578952D01*
X101118571Y-38531333D01*
X101309047Y-38531333D01*
X101404285Y-38578952D01*
X101451904Y-38626571D01*
X101499523Y-38721809D01*
X93924285Y-58110380D02*
X93924285Y-57110380D01*
X93352857Y-58110380D02*
X93781428Y-57538952D01*
X93352857Y-57110380D02*
X93924285Y-57681809D01*
X92400476Y-58110380D02*
X92971904Y-58110380D01*
X92686190Y-58110380D02*
X92686190Y-57110380D01*
X92781428Y-57253238D01*
X92876666Y-57348476D01*
X92971904Y-57396095D01*
X92067142Y-57110380D02*
X91400476Y-57110380D01*
X91829047Y-58110380D01*
X98644285Y-77100380D02*
X98644285Y-76100380D01*
X98072857Y-77100380D02*
X98501428Y-76528952D01*
X98072857Y-76100380D02*
X98644285Y-76671809D01*
X97120476Y-77100380D02*
X97691904Y-77100380D01*
X97406190Y-77100380D02*
X97406190Y-76100380D01*
X97501428Y-76243238D01*
X97596666Y-76338476D01*
X97691904Y-76386095D01*
X96549047Y-76528952D02*
X96644285Y-76481333D01*
X96691904Y-76433714D01*
X96739523Y-76338476D01*
X96739523Y-76290857D01*
X96691904Y-76195619D01*
X96644285Y-76148000D01*
X96549047Y-76100380D01*
X96358571Y-76100380D01*
X96263333Y-76148000D01*
X96215714Y-76195619D01*
X96168095Y-76290857D01*
X96168095Y-76338476D01*
X96215714Y-76433714D01*
X96263333Y-76481333D01*
X96358571Y-76528952D01*
X96549047Y-76528952D01*
X96644285Y-76576571D01*
X96691904Y-76624190D01*
X96739523Y-76719428D01*
X96739523Y-76909904D01*
X96691904Y-77005142D01*
X96644285Y-77052761D01*
X96549047Y-77100380D01*
X96358571Y-77100380D01*
X96263333Y-77052761D01*
X96215714Y-77005142D01*
X96168095Y-76909904D01*
X96168095Y-76719428D01*
X96215714Y-76624190D01*
X96263333Y-76576571D01*
X96358571Y-76528952D01*
X108134285Y-96100380D02*
X108134285Y-95100380D01*
X107562857Y-96100380D02*
X107991428Y-95528952D01*
X107562857Y-95100380D02*
X108134285Y-95671809D01*
X106610476Y-96100380D02*
X107181904Y-96100380D01*
X106896190Y-96100380D02*
X106896190Y-95100380D01*
X106991428Y-95243238D01*
X107086666Y-95338476D01*
X107181904Y-95386095D01*
X106134285Y-96100380D02*
X105943809Y-96100380D01*
X105848571Y-96052761D01*
X105800952Y-96005142D01*
X105705714Y-95862285D01*
X105658095Y-95671809D01*
X105658095Y-95290857D01*
X105705714Y-95195619D01*
X105753333Y-95148000D01*
X105848571Y-95100380D01*
X106039047Y-95100380D01*
X106134285Y-95148000D01*
X106181904Y-95195619D01*
X106229523Y-95290857D01*
X106229523Y-95528952D01*
X106181904Y-95624190D01*
X106134285Y-95671809D01*
X106039047Y-95719428D01*
X105848571Y-95719428D01*
X105753333Y-95671809D01*
X105705714Y-95624190D01*
X105658095Y-95528952D01*
X122414285Y-39100380D02*
X122414285Y-38100380D01*
X121842857Y-39100380D02*
X122271428Y-38528952D01*
X121842857Y-38100380D02*
X122414285Y-38671809D01*
X121461904Y-38195619D02*
X121414285Y-38148000D01*
X121319047Y-38100380D01*
X121080952Y-38100380D01*
X120985714Y-38148000D01*
X120938095Y-38195619D01*
X120890476Y-38290857D01*
X120890476Y-38386095D01*
X120938095Y-38528952D01*
X121509523Y-39100380D01*
X120890476Y-39100380D01*
X119938095Y-39100380D02*
X120509523Y-39100380D01*
X120223809Y-39100380D02*
X120223809Y-38100380D01*
X120319047Y-38243238D01*
X120414285Y-38338476D01*
X120509523Y-38386095D01*
X112884285Y-58120380D02*
X112884285Y-57120380D01*
X112312857Y-58120380D02*
X112741428Y-57548952D01*
X112312857Y-57120380D02*
X112884285Y-57691809D01*
X111931904Y-57215619D02*
X111884285Y-57168000D01*
X111789047Y-57120380D01*
X111550952Y-57120380D01*
X111455714Y-57168000D01*
X111408095Y-57215619D01*
X111360476Y-57310857D01*
X111360476Y-57406095D01*
X111408095Y-57548952D01*
X111979523Y-58120380D01*
X111360476Y-58120380D01*
X110979523Y-57215619D02*
X110931904Y-57168000D01*
X110836666Y-57120380D01*
X110598571Y-57120380D01*
X110503333Y-57168000D01*
X110455714Y-57215619D01*
X110408095Y-57310857D01*
X110408095Y-57406095D01*
X110455714Y-57548952D01*
X111027142Y-58120380D01*
X110408095Y-58120380D01*
X117644285Y-77110380D02*
X117644285Y-76110380D01*
X117072857Y-77110380D02*
X117501428Y-76538952D01*
X117072857Y-76110380D02*
X117644285Y-76681809D01*
X116691904Y-76205619D02*
X116644285Y-76158000D01*
X116549047Y-76110380D01*
X116310952Y-76110380D01*
X116215714Y-76158000D01*
X116168095Y-76205619D01*
X116120476Y-76300857D01*
X116120476Y-76396095D01*
X116168095Y-76538952D01*
X116739523Y-77110380D01*
X116120476Y-77110380D01*
X115787142Y-76110380D02*
X115168095Y-76110380D01*
X115501428Y-76491333D01*
X115358571Y-76491333D01*
X115263333Y-76538952D01*
X115215714Y-76586571D01*
X115168095Y-76681809D01*
X115168095Y-76919904D01*
X115215714Y-77015142D01*
X115263333Y-77062761D01*
X115358571Y-77110380D01*
X115644285Y-77110380D01*
X115739523Y-77062761D01*
X115787142Y-77015142D01*
X127144285Y-96100380D02*
X127144285Y-95100380D01*
X126572857Y-96100380D02*
X127001428Y-95528952D01*
X126572857Y-95100380D02*
X127144285Y-95671809D01*
X126191904Y-95195619D02*
X126144285Y-95148000D01*
X126049047Y-95100380D01*
X125810952Y-95100380D01*
X125715714Y-95148000D01*
X125668095Y-95195619D01*
X125620476Y-95290857D01*
X125620476Y-95386095D01*
X125668095Y-95528952D01*
X126239523Y-96100380D01*
X125620476Y-96100380D01*
X124763333Y-95433714D02*
X124763333Y-96100380D01*
X125001428Y-95052761D02*
X125239523Y-95767047D01*
X124620476Y-95767047D01*
X148494285Y-115090380D02*
X148494285Y-114090380D01*
X147922857Y-115090380D02*
X148351428Y-114518952D01*
X147922857Y-114090380D02*
X148494285Y-114661809D01*
X147541904Y-114185619D02*
X147494285Y-114138000D01*
X147399047Y-114090380D01*
X147160952Y-114090380D01*
X147065714Y-114138000D01*
X147018095Y-114185619D01*
X146970476Y-114280857D01*
X146970476Y-114376095D01*
X147018095Y-114518952D01*
X147589523Y-115090380D01*
X146970476Y-115090380D01*
X146065714Y-114090380D02*
X146541904Y-114090380D01*
X146589523Y-114566571D01*
X146541904Y-114518952D01*
X146446666Y-114471333D01*
X146208571Y-114471333D01*
X146113333Y-114518952D01*
X146065714Y-114566571D01*
X146018095Y-114661809D01*
X146018095Y-114899904D01*
X146065714Y-114995142D01*
X146113333Y-115042761D01*
X146208571Y-115090380D01*
X146446666Y-115090380D01*
X146541904Y-115042761D01*
X146589523Y-114995142D01*
X141414285Y-39110380D02*
X141414285Y-38110380D01*
X140842857Y-39110380D02*
X141271428Y-38538952D01*
X140842857Y-38110380D02*
X141414285Y-38681809D01*
X140461904Y-38205619D02*
X140414285Y-38158000D01*
X140319047Y-38110380D01*
X140080952Y-38110380D01*
X139985714Y-38158000D01*
X139938095Y-38205619D01*
X139890476Y-38300857D01*
X139890476Y-38396095D01*
X139938095Y-38538952D01*
X140509523Y-39110380D01*
X139890476Y-39110380D01*
X139033333Y-38110380D02*
X139223809Y-38110380D01*
X139319047Y-38158000D01*
X139366666Y-38205619D01*
X139461904Y-38348476D01*
X139509523Y-38538952D01*
X139509523Y-38919904D01*
X139461904Y-39015142D01*
X139414285Y-39062761D01*
X139319047Y-39110380D01*
X139128571Y-39110380D01*
X139033333Y-39062761D01*
X138985714Y-39015142D01*
X138938095Y-38919904D01*
X138938095Y-38681809D01*
X138985714Y-38586571D01*
X139033333Y-38538952D01*
X139128571Y-38491333D01*
X139319047Y-38491333D01*
X139414285Y-38538952D01*
X139461904Y-38586571D01*
X139509523Y-38681809D01*
X131884285Y-58130380D02*
X131884285Y-57130380D01*
X131312857Y-58130380D02*
X131741428Y-57558952D01*
X131312857Y-57130380D02*
X131884285Y-57701809D01*
X130931904Y-57225619D02*
X130884285Y-57178000D01*
X130789047Y-57130380D01*
X130550952Y-57130380D01*
X130455714Y-57178000D01*
X130408095Y-57225619D01*
X130360476Y-57320857D01*
X130360476Y-57416095D01*
X130408095Y-57558952D01*
X130979523Y-58130380D01*
X130360476Y-58130380D01*
X130027142Y-57130380D02*
X129360476Y-57130380D01*
X129789047Y-58130380D01*
X136654285Y-77110380D02*
X136654285Y-76110380D01*
X136082857Y-77110380D02*
X136511428Y-76538952D01*
X136082857Y-76110380D02*
X136654285Y-76681809D01*
X135701904Y-76205619D02*
X135654285Y-76158000D01*
X135559047Y-76110380D01*
X135320952Y-76110380D01*
X135225714Y-76158000D01*
X135178095Y-76205619D01*
X135130476Y-76300857D01*
X135130476Y-76396095D01*
X135178095Y-76538952D01*
X135749523Y-77110380D01*
X135130476Y-77110380D01*
X134559047Y-76538952D02*
X134654285Y-76491333D01*
X134701904Y-76443714D01*
X134749523Y-76348476D01*
X134749523Y-76300857D01*
X134701904Y-76205619D01*
X134654285Y-76158000D01*
X134559047Y-76110380D01*
X134368571Y-76110380D01*
X134273333Y-76158000D01*
X134225714Y-76205619D01*
X134178095Y-76300857D01*
X134178095Y-76348476D01*
X134225714Y-76443714D01*
X134273333Y-76491333D01*
X134368571Y-76538952D01*
X134559047Y-76538952D01*
X134654285Y-76586571D01*
X134701904Y-76634190D01*
X134749523Y-76729428D01*
X134749523Y-76919904D01*
X134701904Y-77015142D01*
X134654285Y-77062761D01*
X134559047Y-77110380D01*
X134368571Y-77110380D01*
X134273333Y-77062761D01*
X134225714Y-77015142D01*
X134178095Y-76919904D01*
X134178095Y-76729428D01*
X134225714Y-76634190D01*
X134273333Y-76586571D01*
X134368571Y-76538952D01*
X146154285Y-96120380D02*
X146154285Y-95120380D01*
X145582857Y-96120380D02*
X146011428Y-95548952D01*
X145582857Y-95120380D02*
X146154285Y-95691809D01*
X145201904Y-95215619D02*
X145154285Y-95168000D01*
X145059047Y-95120380D01*
X144820952Y-95120380D01*
X144725714Y-95168000D01*
X144678095Y-95215619D01*
X144630476Y-95310857D01*
X144630476Y-95406095D01*
X144678095Y-95548952D01*
X145249523Y-96120380D01*
X144630476Y-96120380D01*
X144154285Y-96120380D02*
X143963809Y-96120380D01*
X143868571Y-96072761D01*
X143820952Y-96025142D01*
X143725714Y-95882285D01*
X143678095Y-95691809D01*
X143678095Y-95310857D01*
X143725714Y-95215619D01*
X143773333Y-95168000D01*
X143868571Y-95120380D01*
X144059047Y-95120380D01*
X144154285Y-95168000D01*
X144201904Y-95215619D01*
X144249523Y-95310857D01*
X144249523Y-95548952D01*
X144201904Y-95644190D01*
X144154285Y-95691809D01*
X144059047Y-95739428D01*
X143868571Y-95739428D01*
X143773333Y-95691809D01*
X143725714Y-95644190D01*
X143678095Y-95548952D01*
X169684285Y-114880380D02*
X169684285Y-113880380D01*
X169112857Y-114880380D02*
X169541428Y-114308952D01*
X169112857Y-113880380D02*
X169684285Y-114451809D01*
X168779523Y-113880380D02*
X168160476Y-113880380D01*
X168493809Y-114261333D01*
X168350952Y-114261333D01*
X168255714Y-114308952D01*
X168208095Y-114356571D01*
X168160476Y-114451809D01*
X168160476Y-114689904D01*
X168208095Y-114785142D01*
X168255714Y-114832761D01*
X168350952Y-114880380D01*
X168636666Y-114880380D01*
X168731904Y-114832761D01*
X168779523Y-114785142D01*
X167541428Y-113880380D02*
X167446190Y-113880380D01*
X167350952Y-113928000D01*
X167303333Y-113975619D01*
X167255714Y-114070857D01*
X167208095Y-114261333D01*
X167208095Y-114499428D01*
X167255714Y-114689904D01*
X167303333Y-114785142D01*
X167350952Y-114832761D01*
X167446190Y-114880380D01*
X167541428Y-114880380D01*
X167636666Y-114832761D01*
X167684285Y-114785142D01*
X167731904Y-114689904D01*
X167779523Y-114499428D01*
X167779523Y-114261333D01*
X167731904Y-114070857D01*
X167684285Y-113975619D01*
X167636666Y-113928000D01*
X167541428Y-113880380D01*
X160389285Y-39110380D02*
X160389285Y-38110380D01*
X159817857Y-39110380D02*
X160246428Y-38538952D01*
X159817857Y-38110380D02*
X160389285Y-38681809D01*
X159484523Y-38110380D02*
X158865476Y-38110380D01*
X159198809Y-38491333D01*
X159055952Y-38491333D01*
X158960714Y-38538952D01*
X158913095Y-38586571D01*
X158865476Y-38681809D01*
X158865476Y-38919904D01*
X158913095Y-39015142D01*
X158960714Y-39062761D01*
X159055952Y-39110380D01*
X159341666Y-39110380D01*
X159436904Y-39062761D01*
X159484523Y-39015142D01*
X157913095Y-39110380D02*
X158484523Y-39110380D01*
X158198809Y-39110380D02*
X158198809Y-38110380D01*
X158294047Y-38253238D01*
X158389285Y-38348476D01*
X158484523Y-38396095D01*
X150894285Y-58140380D02*
X150894285Y-57140380D01*
X150322857Y-58140380D02*
X150751428Y-57568952D01*
X150322857Y-57140380D02*
X150894285Y-57711809D01*
X149989523Y-57140380D02*
X149370476Y-57140380D01*
X149703809Y-57521333D01*
X149560952Y-57521333D01*
X149465714Y-57568952D01*
X149418095Y-57616571D01*
X149370476Y-57711809D01*
X149370476Y-57949904D01*
X149418095Y-58045142D01*
X149465714Y-58092761D01*
X149560952Y-58140380D01*
X149846666Y-58140380D01*
X149941904Y-58092761D01*
X149989523Y-58045142D01*
X148989523Y-57235619D02*
X148941904Y-57188000D01*
X148846666Y-57140380D01*
X148608571Y-57140380D01*
X148513333Y-57188000D01*
X148465714Y-57235619D01*
X148418095Y-57330857D01*
X148418095Y-57426095D01*
X148465714Y-57568952D01*
X149037142Y-58140380D01*
X148418095Y-58140380D01*
X155654285Y-77110380D02*
X155654285Y-76110380D01*
X155082857Y-77110380D02*
X155511428Y-76538952D01*
X155082857Y-76110380D02*
X155654285Y-76681809D01*
X154749523Y-76110380D02*
X154130476Y-76110380D01*
X154463809Y-76491333D01*
X154320952Y-76491333D01*
X154225714Y-76538952D01*
X154178095Y-76586571D01*
X154130476Y-76681809D01*
X154130476Y-76919904D01*
X154178095Y-77015142D01*
X154225714Y-77062761D01*
X154320952Y-77110380D01*
X154606666Y-77110380D01*
X154701904Y-77062761D01*
X154749523Y-77015142D01*
X153797142Y-76110380D02*
X153178095Y-76110380D01*
X153511428Y-76491333D01*
X153368571Y-76491333D01*
X153273333Y-76538952D01*
X153225714Y-76586571D01*
X153178095Y-76681809D01*
X153178095Y-76919904D01*
X153225714Y-77015142D01*
X153273333Y-77062761D01*
X153368571Y-77110380D01*
X153654285Y-77110380D01*
X153749523Y-77062761D01*
X153797142Y-77015142D01*
X167524285Y-96120380D02*
X167524285Y-95120380D01*
X166952857Y-96120380D02*
X167381428Y-95548952D01*
X166952857Y-95120380D02*
X167524285Y-95691809D01*
X166619523Y-95120380D02*
X166000476Y-95120380D01*
X166333809Y-95501333D01*
X166190952Y-95501333D01*
X166095714Y-95548952D01*
X166048095Y-95596571D01*
X166000476Y-95691809D01*
X166000476Y-95929904D01*
X166048095Y-96025142D01*
X166095714Y-96072761D01*
X166190952Y-96120380D01*
X166476666Y-96120380D01*
X166571904Y-96072761D01*
X166619523Y-96025142D01*
X165143333Y-95453714D02*
X165143333Y-96120380D01*
X165381428Y-95072761D02*
X165619523Y-95787047D01*
X165000476Y-95787047D01*
X188694285Y-114880380D02*
X188694285Y-113880380D01*
X188122857Y-114880380D02*
X188551428Y-114308952D01*
X188122857Y-113880380D02*
X188694285Y-114451809D01*
X187789523Y-113880380D02*
X187170476Y-113880380D01*
X187503809Y-114261333D01*
X187360952Y-114261333D01*
X187265714Y-114308952D01*
X187218095Y-114356571D01*
X187170476Y-114451809D01*
X187170476Y-114689904D01*
X187218095Y-114785142D01*
X187265714Y-114832761D01*
X187360952Y-114880380D01*
X187646666Y-114880380D01*
X187741904Y-114832761D01*
X187789523Y-114785142D01*
X186265714Y-113880380D02*
X186741904Y-113880380D01*
X186789523Y-114356571D01*
X186741904Y-114308952D01*
X186646666Y-114261333D01*
X186408571Y-114261333D01*
X186313333Y-114308952D01*
X186265714Y-114356571D01*
X186218095Y-114451809D01*
X186218095Y-114689904D01*
X186265714Y-114785142D01*
X186313333Y-114832761D01*
X186408571Y-114880380D01*
X186646666Y-114880380D01*
X186741904Y-114832761D01*
X186789523Y-114785142D01*
X184144285Y-39130380D02*
X184144285Y-38130380D01*
X183572857Y-39130380D02*
X184001428Y-38558952D01*
X183572857Y-38130380D02*
X184144285Y-38701809D01*
X183239523Y-38130380D02*
X182620476Y-38130380D01*
X182953809Y-38511333D01*
X182810952Y-38511333D01*
X182715714Y-38558952D01*
X182668095Y-38606571D01*
X182620476Y-38701809D01*
X182620476Y-38939904D01*
X182668095Y-39035142D01*
X182715714Y-39082761D01*
X182810952Y-39130380D01*
X183096666Y-39130380D01*
X183191904Y-39082761D01*
X183239523Y-39035142D01*
X181763333Y-38130380D02*
X181953809Y-38130380D01*
X182049047Y-38178000D01*
X182096666Y-38225619D01*
X182191904Y-38368476D01*
X182239523Y-38558952D01*
X182239523Y-38939904D01*
X182191904Y-39035142D01*
X182144285Y-39082761D01*
X182049047Y-39130380D01*
X181858571Y-39130380D01*
X181763333Y-39082761D01*
X181715714Y-39035142D01*
X181668095Y-38939904D01*
X181668095Y-38701809D01*
X181715714Y-38606571D01*
X181763333Y-38558952D01*
X181858571Y-38511333D01*
X182049047Y-38511333D01*
X182144285Y-38558952D01*
X182191904Y-38606571D01*
X182239523Y-38701809D01*
X169894285Y-58130380D02*
X169894285Y-57130380D01*
X169322857Y-58130380D02*
X169751428Y-57558952D01*
X169322857Y-57130380D02*
X169894285Y-57701809D01*
X168989523Y-57130380D02*
X168370476Y-57130380D01*
X168703809Y-57511333D01*
X168560952Y-57511333D01*
X168465714Y-57558952D01*
X168418095Y-57606571D01*
X168370476Y-57701809D01*
X168370476Y-57939904D01*
X168418095Y-58035142D01*
X168465714Y-58082761D01*
X168560952Y-58130380D01*
X168846666Y-58130380D01*
X168941904Y-58082761D01*
X168989523Y-58035142D01*
X168037142Y-57130380D02*
X167370476Y-57130380D01*
X167799047Y-58130380D01*
X181774285Y-77090380D02*
X181774285Y-76090380D01*
X181202857Y-77090380D02*
X181631428Y-76518952D01*
X181202857Y-76090380D02*
X181774285Y-76661809D01*
X180869523Y-76090380D02*
X180250476Y-76090380D01*
X180583809Y-76471333D01*
X180440952Y-76471333D01*
X180345714Y-76518952D01*
X180298095Y-76566571D01*
X180250476Y-76661809D01*
X180250476Y-76899904D01*
X180298095Y-76995142D01*
X180345714Y-77042761D01*
X180440952Y-77090380D01*
X180726666Y-77090380D01*
X180821904Y-77042761D01*
X180869523Y-76995142D01*
X179679047Y-76518952D02*
X179774285Y-76471333D01*
X179821904Y-76423714D01*
X179869523Y-76328476D01*
X179869523Y-76280857D01*
X179821904Y-76185619D01*
X179774285Y-76138000D01*
X179679047Y-76090380D01*
X179488571Y-76090380D01*
X179393333Y-76138000D01*
X179345714Y-76185619D01*
X179298095Y-76280857D01*
X179298095Y-76328476D01*
X179345714Y-76423714D01*
X179393333Y-76471333D01*
X179488571Y-76518952D01*
X179679047Y-76518952D01*
X179774285Y-76566571D01*
X179821904Y-76614190D01*
X179869523Y-76709428D01*
X179869523Y-76899904D01*
X179821904Y-76995142D01*
X179774285Y-77042761D01*
X179679047Y-77090380D01*
X179488571Y-77090380D01*
X179393333Y-77042761D01*
X179345714Y-76995142D01*
X179298095Y-76899904D01*
X179298095Y-76709428D01*
X179345714Y-76614190D01*
X179393333Y-76566571D01*
X179488571Y-76518952D01*
X207694285Y-114870380D02*
X207694285Y-113870380D01*
X207122857Y-114870380D02*
X207551428Y-114298952D01*
X207122857Y-113870380D02*
X207694285Y-114441809D01*
X206265714Y-114203714D02*
X206265714Y-114870380D01*
X206503809Y-113822761D02*
X206741904Y-114537047D01*
X206122857Y-114537047D01*
X205551428Y-113870380D02*
X205456190Y-113870380D01*
X205360952Y-113918000D01*
X205313333Y-113965619D01*
X205265714Y-114060857D01*
X205218095Y-114251333D01*
X205218095Y-114489428D01*
X205265714Y-114679904D01*
X205313333Y-114775142D01*
X205360952Y-114822761D01*
X205456190Y-114870380D01*
X205551428Y-114870380D01*
X205646666Y-114822761D01*
X205694285Y-114775142D01*
X205741904Y-114679904D01*
X205789523Y-114489428D01*
X205789523Y-114251333D01*
X205741904Y-114060857D01*
X205694285Y-113965619D01*
X205646666Y-113918000D01*
X205551428Y-113870380D01*
X188904285Y-58110380D02*
X188904285Y-57110380D01*
X188332857Y-58110380D02*
X188761428Y-57538952D01*
X188332857Y-57110380D02*
X188904285Y-57681809D01*
X187475714Y-57443714D02*
X187475714Y-58110380D01*
X187713809Y-57062761D02*
X187951904Y-57777047D01*
X187332857Y-57777047D01*
X186428095Y-58110380D02*
X186999523Y-58110380D01*
X186713809Y-58110380D02*
X186713809Y-57110380D01*
X186809047Y-57253238D01*
X186904285Y-57348476D01*
X186999523Y-57396095D01*
X127254285Y-115100380D02*
X127254285Y-114100380D01*
X126682857Y-115100380D02*
X127111428Y-114528952D01*
X126682857Y-114100380D02*
X127254285Y-114671809D01*
X126301904Y-114195619D02*
X126254285Y-114148000D01*
X126159047Y-114100380D01*
X125920952Y-114100380D01*
X125825714Y-114148000D01*
X125778095Y-114195619D01*
X125730476Y-114290857D01*
X125730476Y-114386095D01*
X125778095Y-114528952D01*
X126349523Y-115100380D01*
X125730476Y-115100380D01*
X125111428Y-114100380D02*
X125016190Y-114100380D01*
X124920952Y-114148000D01*
X124873333Y-114195619D01*
X124825714Y-114290857D01*
X124778095Y-114481333D01*
X124778095Y-114719428D01*
X124825714Y-114909904D01*
X124873333Y-115005142D01*
X124920952Y-115052761D01*
X125016190Y-115100380D01*
X125111428Y-115100380D01*
X125206666Y-115052761D01*
X125254285Y-115005142D01*
X125301904Y-114909904D01*
X125349523Y-114719428D01*
X125349523Y-114481333D01*
X125301904Y-114290857D01*
X125254285Y-114195619D01*
X125206666Y-114148000D01*
X125111428Y-114100380D01*
X45918095Y-39110380D02*
X45918095Y-38110380D01*
X45346666Y-39110380D02*
X45775238Y-38538952D01*
X45346666Y-38110380D02*
X45918095Y-38681809D01*
X44394285Y-39110380D02*
X44965714Y-39110380D01*
X44680000Y-39110380D02*
X44680000Y-38110380D01*
X44775238Y-38253238D01*
X44870476Y-38348476D01*
X44965714Y-38396095D01*
X56507381Y-112467378D02*
X55567689Y-112809398D01*
X56702821Y-113004345D02*
X56019274Y-112797060D01*
X55763129Y-113346365D02*
X56104656Y-112613958D01*
X57028555Y-113899290D02*
X56833115Y-113362323D01*
X56930835Y-113630807D02*
X55991142Y-113972827D01*
X56092811Y-113834472D01*
X56149732Y-113712404D01*
X56161906Y-113606623D01*
X57354288Y-114794236D02*
X57158848Y-114257268D01*
X57256568Y-114525752D02*
X56316876Y-114867772D01*
X56418544Y-114729418D01*
X56475465Y-114607350D01*
X56487639Y-114501569D01*
X207424285Y-77080380D02*
X207424285Y-76080380D01*
X206852857Y-77080380D02*
X207281428Y-76508952D01*
X206852857Y-76080380D02*
X207424285Y-76651809D01*
X205995714Y-76413714D02*
X205995714Y-77080380D01*
X206233809Y-76032761D02*
X206471904Y-76747047D01*
X205852857Y-76747047D01*
X205519523Y-76175619D02*
X205471904Y-76128000D01*
X205376666Y-76080380D01*
X205138571Y-76080380D01*
X205043333Y-76128000D01*
X204995714Y-76175619D01*
X204948095Y-76270857D01*
X204948095Y-76366095D01*
X204995714Y-76508952D01*
X205567142Y-77080380D01*
X204948095Y-77080380D01*
X188694285Y-95870380D02*
X188694285Y-94870380D01*
X188122857Y-95870380D02*
X188551428Y-95298952D01*
X188122857Y-94870380D02*
X188694285Y-95441809D01*
X187789523Y-94870380D02*
X187170476Y-94870380D01*
X187503809Y-95251333D01*
X187360952Y-95251333D01*
X187265714Y-95298952D01*
X187218095Y-95346571D01*
X187170476Y-95441809D01*
X187170476Y-95679904D01*
X187218095Y-95775142D01*
X187265714Y-95822761D01*
X187360952Y-95870380D01*
X187646666Y-95870380D01*
X187741904Y-95822761D01*
X187789523Y-95775142D01*
X186694285Y-95870380D02*
X186503809Y-95870380D01*
X186408571Y-95822761D01*
X186360952Y-95775142D01*
X186265714Y-95632285D01*
X186218095Y-95441809D01*
X186218095Y-95060857D01*
X186265714Y-94965619D01*
X186313333Y-94918000D01*
X186408571Y-94870380D01*
X186599047Y-94870380D01*
X186694285Y-94918000D01*
X186741904Y-94965619D01*
X186789523Y-95060857D01*
X186789523Y-95298952D01*
X186741904Y-95394190D01*
X186694285Y-95441809D01*
X186599047Y-95489428D01*
X186408571Y-95489428D01*
X186313333Y-95441809D01*
X186265714Y-95394190D01*
X186218095Y-95298952D01*
X207414285Y-96110380D02*
X207414285Y-95110380D01*
X206842857Y-96110380D02*
X207271428Y-95538952D01*
X206842857Y-95110380D02*
X207414285Y-95681809D01*
X205985714Y-95443714D02*
X205985714Y-96110380D01*
X206223809Y-95062761D02*
X206461904Y-95777047D01*
X205842857Y-95777047D01*
X205557142Y-95110380D02*
X204938095Y-95110380D01*
X205271428Y-95491333D01*
X205128571Y-95491333D01*
X205033333Y-95538952D01*
X204985714Y-95586571D01*
X204938095Y-95681809D01*
X204938095Y-95919904D01*
X204985714Y-96015142D01*
X205033333Y-96062761D01*
X205128571Y-96110380D01*
X205414285Y-96110380D01*
X205509523Y-96062761D01*
X205557142Y-96015142D01*
D10*
X201461380Y-58876654D02*
X201918523Y-58876654D01*
X201689952Y-58876654D02*
X201689952Y-58076654D01*
X201766142Y-58190940D01*
X201842333Y-58267130D01*
X201918523Y-58305226D01*
X200775666Y-58076654D02*
X200928047Y-58076654D01*
X201004238Y-58114750D01*
X201042333Y-58152845D01*
X201118523Y-58267130D01*
X201156619Y-58419511D01*
X201156619Y-58724273D01*
X201118523Y-58800464D01*
X201080428Y-58838559D01*
X201004238Y-58876654D01*
X200851857Y-58876654D01*
X200775666Y-58838559D01*
X200737571Y-58800464D01*
X200699476Y-58724273D01*
X200699476Y-58533797D01*
X200737571Y-58457607D01*
X200775666Y-58419511D01*
X200851857Y-58381416D01*
X201004238Y-58381416D01*
X201080428Y-58419511D01*
X201118523Y-58457607D01*
X201156619Y-58533797D01*
X201461380Y-56336654D02*
X201918523Y-56336654D01*
X201689952Y-56336654D02*
X201689952Y-55536654D01*
X201766142Y-55650940D01*
X201842333Y-55727130D01*
X201918523Y-55765226D01*
X200775666Y-55803321D02*
X200775666Y-56336654D01*
X200966142Y-55498559D02*
X201156619Y-56069988D01*
X200661380Y-56069988D01*
X201880428Y-51028083D02*
X201499476Y-51028083D01*
X201956619Y-51256654D02*
X201689952Y-50456654D01*
X201423285Y-51256654D01*
X201004238Y-50456654D02*
X200928047Y-50456654D01*
X200851857Y-50494750D01*
X200813761Y-50532845D01*
X200775666Y-50609035D01*
X200737571Y-50761416D01*
X200737571Y-50951892D01*
X200775666Y-51104273D01*
X200813761Y-51180464D01*
X200851857Y-51218559D01*
X200928047Y-51256654D01*
X201004238Y-51256654D01*
X201080428Y-51218559D01*
X201118523Y-51180464D01*
X201156619Y-51104273D01*
X201194714Y-50951892D01*
X201194714Y-50761416D01*
X201156619Y-50609035D01*
X201118523Y-50532845D01*
X201080428Y-50494750D01*
X201004238Y-50456654D01*
X201570213Y-38488559D02*
X201455927Y-38526654D01*
X201265451Y-38526654D01*
X201189260Y-38488559D01*
X201151165Y-38450464D01*
X201113070Y-38374273D01*
X201113070Y-38298083D01*
X201151165Y-38221892D01*
X201189260Y-38183797D01*
X201265451Y-38145702D01*
X201417832Y-38107607D01*
X201494022Y-38069511D01*
X201532118Y-38031416D01*
X201570213Y-37955226D01*
X201570213Y-37879035D01*
X201532118Y-37802845D01*
X201494022Y-37764750D01*
X201417832Y-37726654D01*
X201227356Y-37726654D01*
X201113070Y-37764750D01*
X200884499Y-37726654D02*
X200427356Y-37726654D01*
X200655927Y-38526654D02*
X200655927Y-37726654D01*
X212078619Y-52996654D02*
X212231000Y-52996654D01*
X212307190Y-53034750D01*
X212345285Y-53072845D01*
X212421476Y-53187130D01*
X212459571Y-53339511D01*
X212459571Y-53644273D01*
X212421476Y-53720464D01*
X212383380Y-53758559D01*
X212307190Y-53796654D01*
X212154809Y-53796654D01*
X212078619Y-53758559D01*
X212040523Y-53720464D01*
X212002428Y-53644273D01*
X212002428Y-53453797D01*
X212040523Y-53377607D01*
X212078619Y-53339511D01*
X212154809Y-53301416D01*
X212307190Y-53301416D01*
X212383380Y-53339511D01*
X212421476Y-53377607D01*
X212459571Y-53453797D01*
X212459571Y-42912845D02*
X212421476Y-42874750D01*
X212345285Y-42836654D01*
X212154809Y-42836654D01*
X212078619Y-42874750D01*
X212040523Y-42912845D01*
X212002428Y-42989035D01*
X212002428Y-43065226D01*
X212040523Y-43179511D01*
X212497666Y-43636654D01*
X212002428Y-43636654D01*
X212307190Y-58419511D02*
X212383380Y-58381416D01*
X212421476Y-58343321D01*
X212459571Y-58267130D01*
X212459571Y-58229035D01*
X212421476Y-58152845D01*
X212383380Y-58114750D01*
X212307190Y-58076654D01*
X212154809Y-58076654D01*
X212078619Y-58114750D01*
X212040523Y-58152845D01*
X212002428Y-58229035D01*
X212002428Y-58267130D01*
X212040523Y-58343321D01*
X212078619Y-58381416D01*
X212154809Y-58419511D01*
X212307190Y-58419511D01*
X212383380Y-58457607D01*
X212421476Y-58495702D01*
X212459571Y-58571892D01*
X212459571Y-58724273D01*
X212421476Y-58800464D01*
X212383380Y-58838559D01*
X212307190Y-58876654D01*
X212154809Y-58876654D01*
X212078619Y-58838559D01*
X212040523Y-58800464D01*
X212002428Y-58724273D01*
X212002428Y-58571892D01*
X212040523Y-58495702D01*
X212078619Y-58457607D01*
X212154809Y-58419511D01*
X201880428Y-45948083D02*
X201499476Y-45948083D01*
X201956619Y-46176654D02*
X201689952Y-45376654D01*
X201423285Y-46176654D01*
X201194714Y-45452845D02*
X201156619Y-45414750D01*
X201080428Y-45376654D01*
X200889952Y-45376654D01*
X200813761Y-45414750D01*
X200775666Y-45452845D01*
X200737571Y-45529035D01*
X200737571Y-45605226D01*
X200775666Y-45719511D01*
X201232809Y-46176654D01*
X200737571Y-46176654D01*
X212840523Y-40334750D02*
X212916714Y-40296654D01*
X213031000Y-40296654D01*
X213145285Y-40334750D01*
X213221476Y-40410940D01*
X213259571Y-40487130D01*
X213297666Y-40639511D01*
X213297666Y-40753797D01*
X213259571Y-40906178D01*
X213221476Y-40982369D01*
X213145285Y-41058559D01*
X213031000Y-41096654D01*
X212954809Y-41096654D01*
X212840523Y-41058559D01*
X212802428Y-41020464D01*
X212802428Y-40753797D01*
X212954809Y-40753797D01*
X212459571Y-41096654D02*
X212459571Y-40296654D01*
X212002428Y-41096654D01*
X212002428Y-40296654D01*
X211621476Y-41096654D02*
X211621476Y-40296654D01*
X211431000Y-40296654D01*
X211316714Y-40334750D01*
X211240523Y-40410940D01*
X211202428Y-40487130D01*
X211164333Y-40639511D01*
X211164333Y-40753797D01*
X211202428Y-40906178D01*
X211240523Y-40982369D01*
X211316714Y-41058559D01*
X211431000Y-41096654D01*
X211621476Y-41096654D01*
X201461380Y-53796654D02*
X201918523Y-53796654D01*
X201689952Y-53796654D02*
X201689952Y-52996654D01*
X201766142Y-53110940D01*
X201842333Y-53187130D01*
X201918523Y-53225226D01*
X200737571Y-52996654D02*
X201118523Y-52996654D01*
X201156619Y-53377607D01*
X201118523Y-53339511D01*
X201042333Y-53301416D01*
X200851857Y-53301416D01*
X200775666Y-53339511D01*
X200737571Y-53377607D01*
X200699476Y-53453797D01*
X200699476Y-53644273D01*
X200737571Y-53720464D01*
X200775666Y-53758559D01*
X200851857Y-53796654D01*
X201042333Y-53796654D01*
X201118523Y-53758559D01*
X201156619Y-53720464D01*
X212040523Y-50456654D02*
X212421476Y-50456654D01*
X212459571Y-50837607D01*
X212421476Y-50799511D01*
X212345285Y-50761416D01*
X212154809Y-50761416D01*
X212078619Y-50799511D01*
X212040523Y-50837607D01*
X212002428Y-50913797D01*
X212002428Y-51104273D01*
X212040523Y-51180464D01*
X212078619Y-51218559D01*
X212154809Y-51256654D01*
X212345285Y-51256654D01*
X212421476Y-51218559D01*
X212459571Y-51180464D01*
X201880428Y-43408083D02*
X201499476Y-43408083D01*
X201956619Y-43636654D02*
X201689952Y-42836654D01*
X201423285Y-43636654D01*
X201232809Y-42836654D02*
X200737571Y-42836654D01*
X201004238Y-43141416D01*
X200889952Y-43141416D01*
X200813761Y-43179511D01*
X200775666Y-43217607D01*
X200737571Y-43293797D01*
X200737571Y-43484273D01*
X200775666Y-43560464D01*
X200813761Y-43598559D01*
X200889952Y-43636654D01*
X201118523Y-43636654D01*
X201194714Y-43598559D01*
X201232809Y-43560464D01*
X201461380Y-61416654D02*
X201918523Y-61416654D01*
X201689952Y-61416654D02*
X201689952Y-60616654D01*
X201766142Y-60730940D01*
X201842333Y-60807130D01*
X201918523Y-60845226D01*
X200966142Y-60616654D02*
X200889952Y-60616654D01*
X200813761Y-60654750D01*
X200775666Y-60692845D01*
X200737571Y-60769035D01*
X200699476Y-60921416D01*
X200699476Y-61111892D01*
X200737571Y-61264273D01*
X200775666Y-61340464D01*
X200813761Y-61378559D01*
X200889952Y-61416654D01*
X200966142Y-61416654D01*
X201042333Y-61378559D01*
X201080428Y-61340464D01*
X201118523Y-61264273D01*
X201156619Y-61111892D01*
X201156619Y-60921416D01*
X201118523Y-60769035D01*
X201080428Y-60692845D01*
X201042333Y-60654750D01*
X200966142Y-60616654D01*
X212497666Y-45376654D02*
X212002428Y-45376654D01*
X212269095Y-45681416D01*
X212154809Y-45681416D01*
X212078619Y-45719511D01*
X212040523Y-45757607D01*
X212002428Y-45833797D01*
X212002428Y-46024273D01*
X212040523Y-46100464D01*
X212078619Y-46138559D01*
X212154809Y-46176654D01*
X212383380Y-46176654D01*
X212459571Y-46138559D01*
X212497666Y-46100464D01*
X201880428Y-48488083D02*
X201499476Y-48488083D01*
X201956619Y-48716654D02*
X201689952Y-47916654D01*
X201423285Y-48716654D01*
X200737571Y-48716654D02*
X201194714Y-48716654D01*
X200966142Y-48716654D02*
X200966142Y-47916654D01*
X201042333Y-48030940D01*
X201118523Y-48107130D01*
X201194714Y-48145226D01*
X212745285Y-36016654D02*
X213011952Y-35635702D01*
X213202428Y-36016654D02*
X213202428Y-35216654D01*
X212897666Y-35216654D01*
X212821476Y-35254750D01*
X212783380Y-35292845D01*
X212745285Y-35369035D01*
X212745285Y-35483321D01*
X212783380Y-35559511D01*
X212821476Y-35597607D01*
X212897666Y-35635702D01*
X213202428Y-35635702D01*
X212478619Y-35216654D02*
X211945285Y-36016654D01*
X211945285Y-35216654D02*
X212478619Y-36016654D01*
X211221476Y-36016654D02*
X211678619Y-36016654D01*
X211450047Y-36016654D02*
X211450047Y-35216654D01*
X211526238Y-35330940D01*
X211602428Y-35407130D01*
X211678619Y-35445226D01*
X201861380Y-33476654D02*
X202128047Y-33095702D01*
X202318523Y-33476654D02*
X202318523Y-32676654D01*
X202013761Y-32676654D01*
X201937571Y-32714750D01*
X201899476Y-32752845D01*
X201861380Y-32829035D01*
X201861380Y-32943321D01*
X201899476Y-33019511D01*
X201937571Y-33057607D01*
X202013761Y-33095702D01*
X202318523Y-33095702D01*
X201556619Y-33248083D02*
X201175666Y-33248083D01*
X201632809Y-33476654D02*
X201366142Y-32676654D01*
X201099476Y-33476654D01*
X200909000Y-32676654D02*
X200718523Y-33476654D01*
X200566142Y-32905226D01*
X200413761Y-33476654D01*
X200223285Y-32676654D01*
X212078619Y-48183321D02*
X212078619Y-48716654D01*
X212269095Y-47878559D02*
X212459571Y-48449988D01*
X211964333Y-48449988D01*
X201918523Y-35254750D02*
X201994714Y-35216654D01*
X202109000Y-35216654D01*
X202223285Y-35254750D01*
X202299476Y-35330940D01*
X202337571Y-35407130D01*
X202375666Y-35559511D01*
X202375666Y-35673797D01*
X202337571Y-35826178D01*
X202299476Y-35902369D01*
X202223285Y-35978559D01*
X202109000Y-36016654D01*
X202032809Y-36016654D01*
X201918523Y-35978559D01*
X201880428Y-35940464D01*
X201880428Y-35673797D01*
X202032809Y-35673797D01*
X201537571Y-36016654D02*
X201537571Y-35216654D01*
X201080428Y-36016654D01*
X201080428Y-35216654D01*
X200699476Y-36016654D02*
X200699476Y-35216654D01*
X200509000Y-35216654D01*
X200394714Y-35254750D01*
X200318523Y-35330940D01*
X200280428Y-35407130D01*
X200242333Y-35559511D01*
X200242333Y-35673797D01*
X200280428Y-35826178D01*
X200318523Y-35902369D01*
X200394714Y-35978559D01*
X200509000Y-36016654D01*
X200699476Y-36016654D01*
X212840523Y-37794750D02*
X212916714Y-37756654D01*
X213031000Y-37756654D01*
X213145285Y-37794750D01*
X213221476Y-37870940D01*
X213259571Y-37947130D01*
X213297666Y-38099511D01*
X213297666Y-38213797D01*
X213259571Y-38366178D01*
X213221476Y-38442369D01*
X213145285Y-38518559D01*
X213031000Y-38556654D01*
X212954809Y-38556654D01*
X212840523Y-38518559D01*
X212802428Y-38480464D01*
X212802428Y-38213797D01*
X212954809Y-38213797D01*
X212459571Y-38556654D02*
X212459571Y-37756654D01*
X212002428Y-38556654D01*
X212002428Y-37756654D01*
X211621476Y-38556654D02*
X211621476Y-37756654D01*
X211431000Y-37756654D01*
X211316714Y-37794750D01*
X211240523Y-37870940D01*
X211202428Y-37947130D01*
X211164333Y-38099511D01*
X211164333Y-38213797D01*
X211202428Y-38366178D01*
X211240523Y-38442369D01*
X211316714Y-38518559D01*
X211431000Y-38556654D01*
X211621476Y-38556654D01*
X202375666Y-40296654D02*
X202109000Y-41096654D01*
X201842333Y-40296654D01*
X201118523Y-41020464D02*
X201156619Y-41058559D01*
X201270904Y-41096654D01*
X201347095Y-41096654D01*
X201461380Y-41058559D01*
X201537571Y-40982369D01*
X201575666Y-40906178D01*
X201613761Y-40753797D01*
X201613761Y-40639511D01*
X201575666Y-40487130D01*
X201537571Y-40410940D01*
X201461380Y-40334750D01*
X201347095Y-40296654D01*
X201270904Y-40296654D01*
X201156619Y-40334750D01*
X201118523Y-40372845D01*
X200318523Y-41020464D02*
X200356619Y-41058559D01*
X200470904Y-41096654D01*
X200547095Y-41096654D01*
X200661380Y-41058559D01*
X200737571Y-40982369D01*
X200775666Y-40906178D01*
X200813761Y-40753797D01*
X200813761Y-40639511D01*
X200775666Y-40487130D01*
X200737571Y-40410940D01*
X200661380Y-40334750D01*
X200547095Y-40296654D01*
X200470904Y-40296654D01*
X200356619Y-40334750D01*
X200318523Y-40372845D01*
X212383380Y-61416654D02*
X212231000Y-61416654D01*
X212154809Y-61378559D01*
X212116714Y-61340464D01*
X212040523Y-61226178D01*
X212002428Y-61073797D01*
X212002428Y-60769035D01*
X212040523Y-60692845D01*
X212078619Y-60654750D01*
X212154809Y-60616654D01*
X212307190Y-60616654D01*
X212383380Y-60654750D01*
X212421476Y-60692845D01*
X212459571Y-60769035D01*
X212459571Y-60959511D01*
X212421476Y-61035702D01*
X212383380Y-61073797D01*
X212307190Y-61111892D01*
X212154809Y-61111892D01*
X212078619Y-61073797D01*
X212040523Y-61035702D01*
X212002428Y-60959511D01*
X212497666Y-55536654D02*
X211964333Y-55536654D01*
X212307190Y-56336654D01*
X212532348Y-32676654D02*
X212075205Y-32676654D01*
X212303776Y-33476654D02*
X212303776Y-32676654D01*
X211884729Y-32676654D02*
X211351395Y-33476654D01*
X211351395Y-32676654D02*
X211884729Y-33476654D01*
X210894252Y-32676654D02*
X210818062Y-32676654D01*
X210741872Y-32714750D01*
X210703776Y-32752845D01*
X210665681Y-32829035D01*
X210627586Y-32981416D01*
X210627586Y-33171892D01*
X210665681Y-33324273D01*
X210703776Y-33400464D01*
X210741872Y-33438559D01*
X210818062Y-33476654D01*
X210894252Y-33476654D01*
X210970443Y-33438559D01*
X211008538Y-33400464D01*
X211046633Y-33324273D01*
X211084729Y-33171892D01*
X211084729Y-32981416D01*
X211046633Y-32829035D01*
X211008538Y-32752845D01*
X210970443Y-32714750D01*
X210894252Y-32676654D01*
X209713300Y-32638559D02*
X210399014Y-33667130D01*
X209446633Y-33476654D02*
X209446633Y-32676654D01*
X209256157Y-32676654D01*
X209141872Y-32714750D01*
X209065681Y-32790940D01*
X209027586Y-32867130D01*
X208989491Y-33019511D01*
X208989491Y-33133797D01*
X209027586Y-33286178D01*
X209065681Y-33362369D01*
X209141872Y-33438559D01*
X209256157Y-33476654D01*
X209446633Y-33476654D01*
X208722824Y-32676654D02*
X208227586Y-32676654D01*
X208494252Y-32981416D01*
X208379967Y-32981416D01*
X208303776Y-33019511D01*
X208265681Y-33057607D01*
X208227586Y-33133797D01*
X208227586Y-33324273D01*
X208265681Y-33400464D01*
X208303776Y-33438559D01*
X208379967Y-33476654D01*
X208608538Y-33476654D01*
X208684729Y-33438559D01*
X208722824Y-33400464D01*
D13*
X194014047Y-34332380D02*
X194074523Y-34513809D01*
X194074523Y-34816190D01*
X194014047Y-34937142D01*
X193953571Y-34997619D01*
X193832619Y-35058095D01*
X193711666Y-35058095D01*
X193590714Y-34997619D01*
X193530238Y-34937142D01*
X193469761Y-34816190D01*
X193409285Y-34574285D01*
X193348809Y-34453333D01*
X193288333Y-34392857D01*
X193167380Y-34332380D01*
X193046428Y-34332380D01*
X192925476Y-34392857D01*
X192865000Y-34453333D01*
X192804523Y-34574285D01*
X192804523Y-34876666D01*
X192865000Y-35058095D01*
X194074523Y-36267619D02*
X194074523Y-35541904D01*
X194074523Y-35904761D02*
X192804523Y-35904761D01*
X192985952Y-35783809D01*
X193106904Y-35662857D01*
X193167380Y-35541904D01*
G36*
X102583915Y-108545603D02*
G01*
X102580977Y-108550310D01*
X102473359Y-108573313D01*
X102233778Y-108591988D01*
X101893628Y-108604522D01*
X101484302Y-108609103D01*
X101402938Y-108609006D01*
X101004149Y-108605512D01*
X100680377Y-108597747D01*
X100463060Y-108586728D01*
X100383635Y-108573474D01*
X100383784Y-108572123D01*
X100428087Y-108479007D01*
X100537403Y-108277531D01*
X100541383Y-108270437D01*
X100884497Y-108270437D01*
X102083607Y-108270437D01*
X101805121Y-107766182D01*
X101772954Y-107708037D01*
X101632210Y-107470528D01*
X101524957Y-107363504D01*
X101422099Y-107391258D01*
X101294539Y-107558082D01*
X101113181Y-107868270D01*
X100884497Y-108270437D01*
X100541383Y-108270437D01*
X100691493Y-108002874D01*
X100870119Y-107690213D01*
X101053041Y-107374727D01*
X101220020Y-107091594D01*
X101350818Y-106875992D01*
X101425195Y-106763098D01*
X101446397Y-106747218D01*
X101521033Y-106776955D01*
X101638600Y-106913844D01*
X101810388Y-107172474D01*
X102047687Y-107567432D01*
X102066360Y-107599383D01*
X102267724Y-107948983D01*
X102432103Y-108243283D01*
X102446518Y-108270437D01*
X102542999Y-108452189D01*
X102583915Y-108545603D01*
G37*
D14*
X102583915Y-108545603D02*
X102580977Y-108550310D01*
X102473359Y-108573313D01*
X102233778Y-108591988D01*
X101893628Y-108604522D01*
X101484302Y-108609103D01*
X101402938Y-108609006D01*
X101004149Y-108605512D01*
X100680377Y-108597747D01*
X100463060Y-108586728D01*
X100383635Y-108573474D01*
X100383784Y-108572123D01*
X100428087Y-108479007D01*
X100537403Y-108277531D01*
X100541383Y-108270437D01*
X100884497Y-108270437D01*
X102083607Y-108270437D01*
X101805121Y-107766182D01*
X101772954Y-107708037D01*
X101632210Y-107470528D01*
X101524957Y-107363504D01*
X101422099Y-107391258D01*
X101294539Y-107558082D01*
X101113181Y-107868270D01*
X100884497Y-108270437D01*
X100541383Y-108270437D01*
X100691493Y-108002874D01*
X100870119Y-107690213D01*
X101053041Y-107374727D01*
X101220020Y-107091594D01*
X101350818Y-106875992D01*
X101425195Y-106763098D01*
X101446397Y-106747218D01*
X101521033Y-106776955D01*
X101638600Y-106913844D01*
X101810388Y-107172474D01*
X102047687Y-107567432D01*
X102066360Y-107599383D01*
X102267724Y-107948983D01*
X102432103Y-108243283D01*
X102446518Y-108270437D01*
X102542999Y-108452189D01*
X102583915Y-108545603D01*
G36*
X104281873Y-108964841D02*
G01*
X104259236Y-109022648D01*
X103944670Y-109591318D01*
X103503507Y-110096890D01*
X102972446Y-110504219D01*
X102388189Y-110778163D01*
X102172360Y-110831240D01*
X101695281Y-110875408D01*
X101171142Y-110854690D01*
X100668681Y-110773645D01*
X100256635Y-110636831D01*
X99846923Y-110383696D01*
X99420585Y-110014487D01*
X99044896Y-109588755D01*
X98773014Y-109159437D01*
X98752445Y-109116748D01*
X98657015Y-108883556D01*
X98600057Y-108644601D01*
X98572337Y-108345476D01*
X98564616Y-107931770D01*
X98564730Y-107899824D01*
X98828290Y-107899824D01*
X98892914Y-108495047D01*
X99089333Y-109061872D01*
X99412192Y-109575700D01*
X99856136Y-110011931D01*
X100415808Y-110345967D01*
X100457612Y-110364238D01*
X101099314Y-110553829D01*
X101739619Y-110581956D01*
X102356540Y-110453022D01*
X102928089Y-110171435D01*
X103432280Y-109741597D01*
X103632715Y-109507256D01*
X103929743Y-109034598D01*
X104093037Y-108526710D01*
X104142946Y-107931770D01*
X104130323Y-107620054D01*
X104016392Y-107045517D01*
X103769478Y-106537343D01*
X103371970Y-106052604D01*
X103157532Y-105851817D01*
X102667209Y-105522030D01*
X102121308Y-105333372D01*
X101483814Y-105270931D01*
X101150704Y-105286108D01*
X100541629Y-105424374D01*
X99998846Y-105713198D01*
X99504615Y-106160554D01*
X99478739Y-106189747D01*
X99115846Y-106722574D01*
X98900815Y-107300800D01*
X98828290Y-107899824D01*
X98564730Y-107899824D01*
X98565340Y-107728491D01*
X98578042Y-107384616D01*
X98614469Y-107127226D01*
X98684966Y-106899765D01*
X98799881Y-106645676D01*
X99040920Y-106253319D01*
X99452350Y-105789633D01*
X99937776Y-105402138D01*
X100447418Y-105136437D01*
X100550197Y-105099394D01*
X100863276Y-105014128D01*
X101191783Y-104978975D01*
X101611302Y-104984041D01*
X102001653Y-105022257D01*
X102682193Y-105206147D01*
X103273570Y-105532306D01*
X103769428Y-105996721D01*
X104163410Y-106595378D01*
X104204513Y-106680827D01*
X104373287Y-107215154D01*
X104444538Y-107815942D01*
X104438898Y-107931770D01*
X104415117Y-108420175D01*
X104281873Y-108964841D01*
G37*
X104281873Y-108964841D02*
X104259236Y-109022648D01*
X103944670Y-109591318D01*
X103503507Y-110096890D01*
X102972446Y-110504219D01*
X102388189Y-110778163D01*
X102172360Y-110831240D01*
X101695281Y-110875408D01*
X101171142Y-110854690D01*
X100668681Y-110773645D01*
X100256635Y-110636831D01*
X99846923Y-110383696D01*
X99420585Y-110014487D01*
X99044896Y-109588755D01*
X98773014Y-109159437D01*
X98752445Y-109116748D01*
X98657015Y-108883556D01*
X98600057Y-108644601D01*
X98572337Y-108345476D01*
X98564616Y-107931770D01*
X98564730Y-107899824D01*
X98828290Y-107899824D01*
X98892914Y-108495047D01*
X99089333Y-109061872D01*
X99412192Y-109575700D01*
X99856136Y-110011931D01*
X100415808Y-110345967D01*
X100457612Y-110364238D01*
X101099314Y-110553829D01*
X101739619Y-110581956D01*
X102356540Y-110453022D01*
X102928089Y-110171435D01*
X103432280Y-109741597D01*
X103632715Y-109507256D01*
X103929743Y-109034598D01*
X104093037Y-108526710D01*
X104142946Y-107931770D01*
X104130323Y-107620054D01*
X104016392Y-107045517D01*
X103769478Y-106537343D01*
X103371970Y-106052604D01*
X103157532Y-105851817D01*
X102667209Y-105522030D01*
X102121308Y-105333372D01*
X101483814Y-105270931D01*
X101150704Y-105286108D01*
X100541629Y-105424374D01*
X99998846Y-105713198D01*
X99504615Y-106160554D01*
X99478739Y-106189747D01*
X99115846Y-106722574D01*
X98900815Y-107300800D01*
X98828290Y-107899824D01*
X98564730Y-107899824D01*
X98565340Y-107728491D01*
X98578042Y-107384616D01*
X98614469Y-107127226D01*
X98684966Y-106899765D01*
X98799881Y-106645676D01*
X99040920Y-106253319D01*
X99452350Y-105789633D01*
X99937776Y-105402138D01*
X100447418Y-105136437D01*
X100550197Y-105099394D01*
X100863276Y-105014128D01*
X101191783Y-104978975D01*
X101611302Y-104984041D01*
X102001653Y-105022257D01*
X102682193Y-105206147D01*
X103273570Y-105532306D01*
X103769428Y-105996721D01*
X104163410Y-106595378D01*
X104204513Y-106680827D01*
X104373287Y-107215154D01*
X104444538Y-107815942D01*
X104438898Y-107931770D01*
X104415117Y-108420175D01*
X104281873Y-108964841D01*
G36*
X105079536Y-108867334D02*
G01*
X104807025Y-109606127D01*
X104689381Y-109824242D01*
X104256512Y-110403635D01*
X103704890Y-110899252D01*
X103066494Y-111285712D01*
X102373302Y-111537636D01*
X102270592Y-111561589D01*
X101523625Y-111645356D01*
X100801367Y-111577310D01*
X100119767Y-111372188D01*
X99494773Y-111044727D01*
X98942333Y-110609665D01*
X98478396Y-110081739D01*
X98118910Y-109475686D01*
X97879823Y-108806245D01*
X97777083Y-108088153D01*
X97787271Y-107933550D01*
X98139969Y-107933550D01*
X98140000Y-107990000D01*
X98144811Y-108385765D01*
X98164724Y-108670547D01*
X98209607Y-108896491D01*
X98289326Y-109115746D01*
X98413749Y-109380458D01*
X98599646Y-109704724D01*
X99027995Y-110243748D01*
X99546476Y-110705445D01*
X100108245Y-111043830D01*
X100292562Y-111122777D01*
X100587746Y-111214826D01*
X100920852Y-111267012D01*
X101357302Y-111292353D01*
X101372973Y-111292841D01*
X101892342Y-111289414D01*
X102317789Y-111233297D01*
X102718717Y-111109546D01*
X103164530Y-110903219D01*
X103253773Y-110855020D01*
X103780644Y-110465722D01*
X104224616Y-109957221D01*
X104570243Y-109361625D01*
X104802082Y-108711040D01*
X104904686Y-108037571D01*
X104862611Y-107373326D01*
X104733235Y-106867996D01*
X104421756Y-106182566D01*
X103980898Y-105594916D01*
X103423803Y-105118075D01*
X102763613Y-104765069D01*
X102013469Y-104548927D01*
X101880303Y-104527936D01*
X101185122Y-104515616D01*
X100503226Y-104655880D01*
X99859627Y-104935362D01*
X99279338Y-105340695D01*
X98787370Y-105858511D01*
X98408734Y-106475443D01*
X98402436Y-106488753D01*
X98281840Y-106757868D01*
X98205085Y-106983790D01*
X98162383Y-107219634D01*
X98143941Y-107518516D01*
X98139969Y-107933550D01*
X97787271Y-107933550D01*
X97826639Y-107336147D01*
X97854716Y-107188548D01*
X98092332Y-106434606D01*
X98462208Y-105769812D01*
X98948363Y-105206871D01*
X99534818Y-104758489D01*
X100205593Y-104437370D01*
X100944708Y-104256220D01*
X101736185Y-104227744D01*
X101790657Y-104231599D01*
X102574685Y-104372973D01*
X103289345Y-104667039D01*
X103923842Y-105108017D01*
X104467382Y-105690126D01*
X104638566Y-105936438D01*
X104974183Y-106616209D01*
X105160976Y-107347720D01*
X105193561Y-108037571D01*
X105196807Y-108106313D01*
X105079536Y-108867334D01*
G37*
X105079536Y-108867334D02*
X104807025Y-109606127D01*
X104689381Y-109824242D01*
X104256512Y-110403635D01*
X103704890Y-110899252D01*
X103066494Y-111285712D01*
X102373302Y-111537636D01*
X102270592Y-111561589D01*
X101523625Y-111645356D01*
X100801367Y-111577310D01*
X100119767Y-111372188D01*
X99494773Y-111044727D01*
X98942333Y-110609665D01*
X98478396Y-110081739D01*
X98118910Y-109475686D01*
X97879823Y-108806245D01*
X97777083Y-108088153D01*
X97787271Y-107933550D01*
X98139969Y-107933550D01*
X98140000Y-107990000D01*
X98144811Y-108385765D01*
X98164724Y-108670547D01*
X98209607Y-108896491D01*
X98289326Y-109115746D01*
X98413749Y-109380458D01*
X98599646Y-109704724D01*
X99027995Y-110243748D01*
X99546476Y-110705445D01*
X100108245Y-111043830D01*
X100292562Y-111122777D01*
X100587746Y-111214826D01*
X100920852Y-111267012D01*
X101357302Y-111292353D01*
X101372973Y-111292841D01*
X101892342Y-111289414D01*
X102317789Y-111233297D01*
X102718717Y-111109546D01*
X103164530Y-110903219D01*
X103253773Y-110855020D01*
X103780644Y-110465722D01*
X104224616Y-109957221D01*
X104570243Y-109361625D01*
X104802082Y-108711040D01*
X104904686Y-108037571D01*
X104862611Y-107373326D01*
X104733235Y-106867996D01*
X104421756Y-106182566D01*
X103980898Y-105594916D01*
X103423803Y-105118075D01*
X102763613Y-104765069D01*
X102013469Y-104548927D01*
X101880303Y-104527936D01*
X101185122Y-104515616D01*
X100503226Y-104655880D01*
X99859627Y-104935362D01*
X99279338Y-105340695D01*
X98787370Y-105858511D01*
X98408734Y-106475443D01*
X98402436Y-106488753D01*
X98281840Y-106757868D01*
X98205085Y-106983790D01*
X98162383Y-107219634D01*
X98143941Y-107518516D01*
X98139969Y-107933550D01*
X97787271Y-107933550D01*
X97826639Y-107336147D01*
X97854716Y-107188548D01*
X98092332Y-106434606D01*
X98462208Y-105769812D01*
X98948363Y-105206871D01*
X99534818Y-104758489D01*
X100205593Y-104437370D01*
X100944708Y-104256220D01*
X101736185Y-104227744D01*
X101790657Y-104231599D01*
X102574685Y-104372973D01*
X103289345Y-104667039D01*
X103923842Y-105108017D01*
X104467382Y-105690126D01*
X104638566Y-105936438D01*
X104974183Y-106616209D01*
X105160976Y-107347720D01*
X105193561Y-108037571D01*
X105196807Y-108106313D01*
X105079536Y-108867334D01*
D15*
X213120000Y-34384750D02*
X215660000Y-34384750D01*
X215660000Y-31844750D02*
X215660000Y-25309750D01*
X197880000Y-25309750D02*
X215660000Y-25309750D01*
X213120000Y-31844750D02*
X215660000Y-31844750D01*
X197880000Y-25309750D02*
X197880000Y-31844750D01*
X197880000Y-62324750D02*
X197880000Y-31844750D01*
X213120000Y-31844750D02*
X213120000Y-34384750D01*
X215660000Y-31844750D02*
X215660000Y-62324750D01*
X215660000Y-62324750D02*
X197880000Y-62324750D01*
G36*
X202138432Y-38224110D02*
G01*
X202038432Y-38224110D01*
X202038432Y-38124110D01*
X202138432Y-38124110D01*
X202138432Y-38224110D01*
G37*
D10*
X202138432Y-38224110D02*
X202038432Y-38224110D01*
X202038432Y-38124110D01*
X202138432Y-38124110D01*
X202138432Y-38224110D01*
G36*
X201938432Y-38024110D02*
G01*
X201838432Y-38024110D01*
X201838432Y-37724110D01*
X201938432Y-37724110D01*
X201938432Y-38024110D01*
G37*
X201938432Y-38024110D02*
X201838432Y-38024110D01*
X201838432Y-37724110D01*
X201938432Y-37724110D01*
X201938432Y-38024110D01*
G36*
X202338432Y-37824110D02*
G01*
X201838432Y-37824110D01*
X201838432Y-37724110D01*
X202338432Y-37724110D01*
X202338432Y-37824110D01*
G37*
X202338432Y-37824110D02*
X201838432Y-37824110D01*
X201838432Y-37724110D01*
X202338432Y-37724110D01*
X202338432Y-37824110D01*
G36*
X202338432Y-38524110D02*
G01*
X202238432Y-38524110D01*
X202238432Y-37724110D01*
X202338432Y-37724110D01*
X202338432Y-38524110D01*
G37*
X202338432Y-38524110D02*
X202238432Y-38524110D01*
X202238432Y-37724110D01*
X202338432Y-37724110D01*
X202338432Y-38524110D01*
G36*
X201938432Y-38524110D02*
G01*
X201838432Y-38524110D01*
X201838432Y-38324110D01*
X201938432Y-38324110D01*
X201938432Y-38524110D01*
G37*
X201938432Y-38524110D02*
X201838432Y-38524110D01*
X201838432Y-38324110D01*
X201938432Y-38324110D01*
X201938432Y-38524110D01*
D16*
X196500000Y-32000000D02*
X190500000Y-32000000D01*
X196500000Y-38000000D02*
X196500000Y-32000000D01*
X190500000Y-32000000D02*
X190500000Y-38000000D01*
D12*
X195800000Y-41100000D02*
X195800000Y-41100000D01*
X195600000Y-41100000D02*
X195600000Y-41100000D01*
D16*
X190500000Y-38000000D02*
X196500000Y-38000000D01*
D12*
X195600000Y-41100000D02*
G75*
G03*
X195800000Y-41100000I100000J0D01*
G01*
X195800000Y-41100000D02*
G75*
G03*
X195600000Y-41100000I-100000J0D01*
G01*
D17*
X214390000Y-33114750D03*
D18*
X214390000Y-35654750D03*
X214390000Y-38194750D03*
X214390000Y-40734750D03*
X214390000Y-43274750D03*
X214390000Y-45814750D03*
X214390000Y-48354750D03*
X214390000Y-50894750D03*
X214390000Y-53434750D03*
X214390000Y-55974750D03*
X214390000Y-58514750D03*
X214390000Y-61054750D03*
X199150000Y-61054750D03*
X199150000Y-58514750D03*
X199150000Y-55974750D03*
X199150000Y-53434750D03*
X199150000Y-50894750D03*
X199150000Y-48354750D03*
X199150000Y-45814750D03*
X199150000Y-43274750D03*
X199150000Y-40734750D03*
X199150000Y-38194750D03*
X199150000Y-35654750D03*
X199150000Y-33114750D03*
%LPC*%
D19*
X54750000Y-36400000D03*
D20*
X54750000Y-28600000D03*
D19*
X73750000Y-36400000D03*
D20*
X73750000Y-28600000D03*
D19*
X92500000Y-36400000D03*
D20*
X92500000Y-28600000D03*
D19*
X31680000Y-43910000D03*
D20*
X39480000Y-43910000D03*
D19*
X36480000Y-62930000D03*
D20*
X44280000Y-62930000D03*
D19*
X45980000Y-81940000D03*
D20*
X53780000Y-81940000D03*
D21*
X29955199Y-120873879D03*
D20*
X37284801Y-118206121D03*
D19*
X51020000Y-43910000D03*
D20*
X58820000Y-43910000D03*
D19*
X55450000Y-62930000D03*
D20*
X63250000Y-62930000D03*
D19*
X65020000Y-81960000D03*
D20*
X72820000Y-81960000D03*
D21*
X45605199Y-107703879D03*
D20*
X52934801Y-105036121D03*
D19*
X69870000Y-43890000D03*
D20*
X77670000Y-43890000D03*
D19*
X74800000Y-62900000D03*
D20*
X82600000Y-62900000D03*
D19*
X83950000Y-81930000D03*
D20*
X91750000Y-81930000D03*
D19*
X71885000Y-100900000D03*
D20*
X79685000Y-100900000D03*
D19*
X111750000Y-36400000D03*
D20*
X111750000Y-28600000D03*
D19*
X88950000Y-43940000D03*
D20*
X96750000Y-43940000D03*
D19*
X93570000Y-62940000D03*
D20*
X101370000Y-62940000D03*
D19*
X102980000Y-81880000D03*
D20*
X110780000Y-81880000D03*
D19*
X122200000Y-100910000D03*
D20*
X130000000Y-100910000D03*
D19*
X130500000Y-36400000D03*
D20*
X130500000Y-28600000D03*
D19*
X107960000Y-43940000D03*
D20*
X115760000Y-43940000D03*
D19*
X112530000Y-62910000D03*
D20*
X120330000Y-62910000D03*
D19*
X121940000Y-81930000D03*
D20*
X129740000Y-81930000D03*
D19*
X143410000Y-100900000D03*
D20*
X151210000Y-100900000D03*
D19*
X149750000Y-36400000D03*
D20*
X149750000Y-28600000D03*
D19*
X126740000Y-43950000D03*
D20*
X134540000Y-43950000D03*
D19*
X131580000Y-62910000D03*
D20*
X139380000Y-62910000D03*
D19*
X141020000Y-81910000D03*
D20*
X148820000Y-81910000D03*
D19*
X164730000Y-100690000D03*
D20*
X172530000Y-100690000D03*
D19*
X168500000Y-36400000D03*
D20*
X168500000Y-28600000D03*
D19*
X145600000Y-43970000D03*
D20*
X153400000Y-43970000D03*
D19*
X150460000Y-62920000D03*
D20*
X158260000Y-62920000D03*
D19*
X162360000Y-81930000D03*
D20*
X170160000Y-81930000D03*
D19*
X183730000Y-100710000D03*
D20*
X191530000Y-100710000D03*
D19*
X173500000Y-36400000D03*
D20*
X173500000Y-28600000D03*
D19*
X165030000Y-43940000D03*
D20*
X172830000Y-43940000D03*
D19*
X176560000Y-62930000D03*
D20*
X184360000Y-62930000D03*
D19*
X183670000Y-81680000D03*
D20*
X191470000Y-81680000D03*
D19*
X202660000Y-100670000D03*
D20*
X210460000Y-100670000D03*
D19*
X183830000Y-43930000D03*
D20*
X191630000Y-43930000D03*
D22*
X60925000Y-30820000D03*
D23*
X66700000Y-29550000D03*
D22*
X79945000Y-30840000D03*
D23*
X85720000Y-29570000D03*
D22*
X32405000Y-49810000D03*
D23*
X38180000Y-48540000D03*
D22*
X37165000Y-68820000D03*
D23*
X42940000Y-67550000D03*
D22*
X46695000Y-87830000D03*
D23*
X52470000Y-86560000D03*
D24*
X34765558Y-132622610D03*
D25*
X31596982Y-127630251D03*
D22*
X51425000Y-49810000D03*
D23*
X57200000Y-48540000D03*
D22*
X56145000Y-68830000D03*
D23*
X61920000Y-67560000D03*
D22*
X65655000Y-87840000D03*
D23*
X71430000Y-86570000D03*
D22*
X70445000Y-49810000D03*
D23*
X76220000Y-48540000D03*
D22*
X75205000Y-68810000D03*
D23*
X80980000Y-67540000D03*
D22*
X84675000Y-87820000D03*
D23*
X90450000Y-86550000D03*
D22*
X72785000Y-106810000D03*
D23*
X78560000Y-105540000D03*
D22*
X98935000Y-30860000D03*
D23*
X104710000Y-29590000D03*
D22*
X89455000Y-49820000D03*
D23*
X95230000Y-48550000D03*
D22*
X94175000Y-68810000D03*
D23*
X99950000Y-67540000D03*
D22*
X103665000Y-87810000D03*
D23*
X109440000Y-86540000D03*
D22*
X117945000Y-30810000D03*
D23*
X123720000Y-29540000D03*
D22*
X108415000Y-49830000D03*
D23*
X114190000Y-48560000D03*
D22*
X113175000Y-68820000D03*
D23*
X118950000Y-67550000D03*
D22*
X122675000Y-87810000D03*
D23*
X128450000Y-86540000D03*
D22*
X144025000Y-106800000D03*
D23*
X149800000Y-105530000D03*
D22*
X136945000Y-30820000D03*
D23*
X142720000Y-29550000D03*
D22*
X127415000Y-49840000D03*
D23*
X133190000Y-48570000D03*
D22*
X132185000Y-68820000D03*
D23*
X137960000Y-67550000D03*
D22*
X141685000Y-87830000D03*
D23*
X147460000Y-86560000D03*
D22*
X165215000Y-106590000D03*
D23*
X170990000Y-105320000D03*
D22*
X155920000Y-30820000D03*
D23*
X161695000Y-29550000D03*
D22*
X146425000Y-49850000D03*
D23*
X152200000Y-48580000D03*
D22*
X151185000Y-68820000D03*
D23*
X156960000Y-67550000D03*
D22*
X163055000Y-87830000D03*
D23*
X168830000Y-86560000D03*
D22*
X184225000Y-106590000D03*
D23*
X190000000Y-105320000D03*
D22*
X179675000Y-30840000D03*
D23*
X185450000Y-29570000D03*
D22*
X165425000Y-49840000D03*
D23*
X171200000Y-48570000D03*
D22*
X177305000Y-68800000D03*
D23*
X183080000Y-67530000D03*
D22*
X203225000Y-106580000D03*
D23*
X209000000Y-105310000D03*
D22*
X184435000Y-49820000D03*
D23*
X190210000Y-48550000D03*
D26*
X30690000Y-34410000D03*
X30690000Y-27410000D03*
D27*
X28390000Y-37110000D03*
X32990000Y-36010000D03*
X32990000Y-32010000D03*
X32990000Y-29010000D03*
D22*
X122785000Y-106810000D03*
D23*
X128560000Y-105540000D03*
D22*
X41925000Y-30820000D03*
D23*
X47700000Y-29550000D03*
D24*
X50245558Y-119502610D03*
D25*
X47076982Y-114510251D03*
D19*
X196750000Y-75400000D03*
D20*
X196750000Y-67600000D03*
D19*
X202180000Y-81910000D03*
D20*
X209980000Y-81910000D03*
D22*
X202955000Y-68790000D03*
D23*
X208730000Y-67520000D03*
D22*
X184225000Y-87580000D03*
D23*
X190000000Y-86310000D03*
D22*
X202945000Y-87820000D03*
D23*
X208720000Y-86550000D03*
D17*
X214390000Y-33114750D03*
D18*
X214390000Y-35654750D03*
X214390000Y-38194750D03*
X214390000Y-40734750D03*
X214390000Y-43274750D03*
X214390000Y-45814750D03*
X214390000Y-48354750D03*
X214390000Y-50894750D03*
X214390000Y-53434750D03*
X214390000Y-55974750D03*
X214390000Y-58514750D03*
X214390000Y-61054750D03*
X199150000Y-61054750D03*
X199150000Y-58514750D03*
X199150000Y-55974750D03*
X199150000Y-53434750D03*
X199150000Y-50894750D03*
X199150000Y-48354750D03*
X199150000Y-45814750D03*
X199150000Y-43274750D03*
X199150000Y-40734750D03*
X199150000Y-38194750D03*
X199150000Y-35654750D03*
X199150000Y-33114750D03*
D28*
X195750000Y-39550000D03*
X195750000Y-30450000D03*
X191250000Y-39550000D03*
X191250000Y-30450000D03*
M02*
