G04 #@! TF.GenerationSoftware,KiCad,Pcbnew,(5.1.5)-3*
G04 #@! TF.CreationDate,2020-05-03T23:14:43-07:00*
G04 #@! TF.ProjectId,right,72696768-742e-46b6-9963-61645f706362,rev?*
G04 #@! TF.SameCoordinates,Original*
G04 #@! TF.FileFunction,Paste,Top*
G04 #@! TF.FilePolarity,Positive*
%FSLAX46Y46*%
G04 Gerber Fmt 4.6, Leading zero omitted, Abs format (unit mm)*
G04 Created by KiCad (PCBNEW (5.1.5)-3) date 2020-05-03 23:14:43*
%MOMM*%
%LPD*%
G04 APERTURE LIST*
%ADD10R,1.200000X1.200000*%
%ADD11C,0.100000*%
G04 APERTURE END LIST*
D10*
X43645000Y-24940000D03*
X46795000Y-24940000D03*
X62995000Y-24930000D03*
X66145000Y-24930000D03*
X84730000Y-24930000D03*
X81580000Y-24930000D03*
X37155000Y-43910000D03*
X34005000Y-43910000D03*
X38805000Y-62930000D03*
X41955000Y-62930000D03*
X51455000Y-81940000D03*
X48305000Y-81940000D03*
D11*
G36*
X34741413Y-119770346D02*
G01*
X34330988Y-118642715D01*
X35458619Y-118232290D01*
X35869044Y-119359921D01*
X34741413Y-119770346D01*
G37*
G36*
X31781381Y-120847710D02*
G01*
X31370956Y-119720079D01*
X32498587Y-119309654D01*
X32909012Y-120437285D01*
X31781381Y-120847710D01*
G37*
D10*
X56495000Y-43910000D03*
X53345000Y-43910000D03*
X60925000Y-62930000D03*
X57775000Y-62930000D03*
X67345000Y-81960000D03*
X70495000Y-81960000D03*
D11*
G36*
X50391413Y-106600346D02*
G01*
X49980988Y-105472715D01*
X51108619Y-105062290D01*
X51519044Y-106189921D01*
X50391413Y-106600346D01*
G37*
G36*
X47431381Y-107677710D02*
G01*
X47020956Y-106550079D01*
X48148587Y-106139654D01*
X48559012Y-107267285D01*
X47431381Y-107677710D01*
G37*
D10*
X75345000Y-43890000D03*
X72195000Y-43890000D03*
X77125000Y-62900000D03*
X80275000Y-62900000D03*
X89425000Y-81930000D03*
X86275000Y-81930000D03*
X74210000Y-100900000D03*
X77360000Y-100900000D03*
X100485000Y-24960000D03*
X103635000Y-24960000D03*
X91275000Y-43940000D03*
X94425000Y-43940000D03*
X99045000Y-62940000D03*
X95895000Y-62940000D03*
X105305000Y-81880000D03*
X108455000Y-81880000D03*
X125175000Y-100910000D03*
X122025000Y-100910000D03*
X122785000Y-24950000D03*
X119635000Y-24950000D03*
X110285000Y-43940000D03*
X113435000Y-43940000D03*
X114855000Y-62910000D03*
X118005000Y-62910000D03*
X127415000Y-81930000D03*
X124265000Y-81930000D03*
X145735000Y-100900000D03*
X148885000Y-100900000D03*
X138665000Y-24930000D03*
X141815000Y-24930000D03*
X129065000Y-43950000D03*
X132215000Y-43950000D03*
X137055000Y-62910000D03*
X133905000Y-62910000D03*
X143345000Y-81910000D03*
X146495000Y-81910000D03*
X175205000Y-105690000D03*
X172055000Y-105690000D03*
X160725000Y-24900000D03*
X157575000Y-24900000D03*
X151075000Y-43970000D03*
X147925000Y-43970000D03*
X152785000Y-62920000D03*
X155935000Y-62920000D03*
X167835000Y-81930000D03*
X164685000Y-81930000D03*
X194205000Y-105710000D03*
X191055000Y-105710000D03*
X181425000Y-24930000D03*
X184575000Y-24930000D03*
X170505000Y-43940000D03*
X167355000Y-43940000D03*
X178885000Y-62930000D03*
X182035000Y-62930000D03*
X194145000Y-86680000D03*
X190995000Y-86680000D03*
X209985000Y-105670000D03*
X213135000Y-105670000D03*
X186155000Y-43930000D03*
X189305000Y-43930000D03*
X214625000Y-62890000D03*
X217775000Y-62890000D03*
X217655000Y-81910000D03*
X214505000Y-81910000D03*
M02*
