G04 #@! TF.GenerationSoftware,KiCad,Pcbnew,(5.1.5)-3*
G04 #@! TF.CreationDate,2020-05-03T23:14:43-07:00*
G04 #@! TF.ProjectId,right,72696768-742e-46b6-9963-61645f706362,rev?*
G04 #@! TF.SameCoordinates,Original*
G04 #@! TF.FileFunction,Soldermask,Bot*
G04 #@! TF.FilePolarity,Negative*
%FSLAX46Y46*%
G04 Gerber Fmt 4.6, Leading zero omitted, Abs format (unit mm)*
G04 Created by KiCad (PCBNEW (5.1.5)-3) date 2020-05-03 23:14:43*
%MOMM*%
%LPD*%
G04 APERTURE LIST*
%ADD10C,0.100000*%
G04 APERTURE END LIST*
D10*
G36*
X24247536Y-139472827D02*
G01*
X24382839Y-139499740D01*
X24765197Y-139658118D01*
X25109310Y-139888047D01*
X25401953Y-140180690D01*
X25631882Y-140524803D01*
X25790260Y-140907161D01*
X25871000Y-141313070D01*
X25871000Y-141726930D01*
X25790260Y-142132839D01*
X25631882Y-142515197D01*
X25401953Y-142859310D01*
X25109310Y-143151953D01*
X24765197Y-143381882D01*
X24382839Y-143540260D01*
X24247536Y-143567173D01*
X23976932Y-143621000D01*
X23563068Y-143621000D01*
X23292464Y-143567173D01*
X23157161Y-143540260D01*
X22774803Y-143381882D01*
X22430690Y-143151953D01*
X22138047Y-142859310D01*
X21908118Y-142515197D01*
X21749740Y-142132839D01*
X21669000Y-141726930D01*
X21669000Y-141313070D01*
X21749740Y-140907161D01*
X21908118Y-140524803D01*
X22138047Y-140180690D01*
X22430690Y-139888047D01*
X22774803Y-139658118D01*
X23157161Y-139499740D01*
X23292464Y-139472827D01*
X23563068Y-139419000D01*
X23976932Y-139419000D01*
X24247536Y-139472827D01*
G37*
G36*
X33886423Y-131095123D02*
G01*
X35418483Y-131434773D01*
X36207875Y-131609777D01*
X36390399Y-131669524D01*
X36613724Y-131795233D01*
X36680598Y-131852602D01*
X36808233Y-131962095D01*
X36966450Y-132163694D01*
X36999993Y-132229883D01*
X37082299Y-132392291D01*
X37151324Y-132639095D01*
X37167683Y-132852926D01*
X37170873Y-132894625D01*
X37140197Y-133149052D01*
X37060470Y-133392618D01*
X36934764Y-133615936D01*
X36767901Y-133810447D01*
X36566301Y-133968664D01*
X36450492Y-134027354D01*
X36337703Y-134084513D01*
X36090899Y-134153538D01*
X35835371Y-134173088D01*
X35644692Y-134150097D01*
X34093370Y-133806177D01*
X33323241Y-133635443D01*
X33140717Y-133575696D01*
X32917394Y-133449988D01*
X32917392Y-133449987D01*
X32722883Y-133283125D01*
X32564666Y-133081525D01*
X32525366Y-133003977D01*
X32448817Y-132852928D01*
X32379792Y-132606124D01*
X32360242Y-132350596D01*
X32382777Y-132163698D01*
X32390919Y-132096168D01*
X32470646Y-131852602D01*
X32596352Y-131629284D01*
X32596353Y-131629282D01*
X32763215Y-131434773D01*
X32964815Y-131276556D01*
X33042363Y-131237256D01*
X33193412Y-131160707D01*
X33440216Y-131091682D01*
X33695744Y-131072132D01*
X33886423Y-131095123D01*
G37*
G36*
X32014756Y-126250595D02*
G01*
X32021334Y-126250684D01*
X32168980Y-126282135D01*
X32271983Y-126304076D01*
X32342790Y-126334534D01*
X32507400Y-126405341D01*
X32718540Y-126550589D01*
X32806734Y-126641203D01*
X32897285Y-126734237D01*
X33036769Y-126949228D01*
X33131629Y-127187300D01*
X33178221Y-127439303D01*
X33176521Y-127564946D01*
X33174754Y-127695557D01*
X33121362Y-127946204D01*
X33020097Y-128181622D01*
X32874849Y-128392762D01*
X32784235Y-128480956D01*
X32691201Y-128571507D01*
X32476210Y-128710991D01*
X32301191Y-128780727D01*
X32297786Y-128782084D01*
X31617747Y-128978367D01*
X31505445Y-128999130D01*
X31428883Y-129013285D01*
X31179208Y-129009907D01*
X31172630Y-129009818D01*
X31005531Y-128974223D01*
X30921981Y-128956426D01*
X30851174Y-128925968D01*
X30686564Y-128855161D01*
X30475424Y-128709913D01*
X30387230Y-128619299D01*
X30296679Y-128526265D01*
X30157195Y-128311274D01*
X30062335Y-128073202D01*
X30015743Y-127821199D01*
X30019210Y-127564948D01*
X30072602Y-127314297D01*
X30126366Y-127189309D01*
X30173867Y-127078880D01*
X30319115Y-126867740D01*
X30409729Y-126779546D01*
X30502763Y-126688995D01*
X30717754Y-126549511D01*
X30896173Y-126478420D01*
X30896177Y-126478419D01*
X30896179Y-126478418D01*
X31576216Y-126282135D01*
X31688518Y-126261372D01*
X31765080Y-126247217D01*
X32014756Y-126250595D01*
G37*
G36*
X227167536Y-123802827D02*
G01*
X227302839Y-123829740D01*
X227685197Y-123988118D01*
X228029310Y-124218047D01*
X228321953Y-124510690D01*
X228551882Y-124854803D01*
X228710260Y-125237161D01*
X228791000Y-125643070D01*
X228791000Y-126056930D01*
X228710260Y-126462839D01*
X228551882Y-126845197D01*
X228321953Y-127189310D01*
X228029310Y-127481953D01*
X227685197Y-127711882D01*
X227302839Y-127870260D01*
X227167536Y-127897173D01*
X226896932Y-127951000D01*
X226483068Y-127951000D01*
X226212464Y-127897173D01*
X226077161Y-127870260D01*
X225694803Y-127711882D01*
X225350690Y-127481953D01*
X225058047Y-127189310D01*
X224828118Y-126845197D01*
X224669740Y-126462839D01*
X224589000Y-126056930D01*
X224589000Y-125643070D01*
X224669740Y-125237161D01*
X224828118Y-124854803D01*
X225058047Y-124510690D01*
X225350690Y-124218047D01*
X225694803Y-123988118D01*
X226077161Y-123829740D01*
X226212464Y-123802827D01*
X226483068Y-123749000D01*
X226896932Y-123749000D01*
X227167536Y-123802827D01*
G37*
G36*
X31045937Y-121382498D02*
G01*
X29446580Y-121964617D01*
X28864461Y-120365260D01*
X30463818Y-119783141D01*
X31045937Y-121382498D01*
G37*
G36*
X49366423Y-117975123D02*
G01*
X50786450Y-118289936D01*
X51687875Y-118489777D01*
X51870399Y-118549524D01*
X52093724Y-118675233D01*
X52160598Y-118732602D01*
X52288233Y-118842095D01*
X52446450Y-119043694D01*
X52453254Y-119057121D01*
X52562299Y-119272291D01*
X52631324Y-119519095D01*
X52647683Y-119732926D01*
X52650873Y-119774625D01*
X52620197Y-120029052D01*
X52540470Y-120272618D01*
X52414764Y-120495936D01*
X52247901Y-120690447D01*
X52046301Y-120848664D01*
X51930492Y-120907354D01*
X51817703Y-120964513D01*
X51570899Y-121033538D01*
X51315371Y-121053088D01*
X51124692Y-121030097D01*
X49573371Y-120686177D01*
X48803241Y-120515443D01*
X48620717Y-120455696D01*
X48397394Y-120329988D01*
X48397392Y-120329987D01*
X48202883Y-120163125D01*
X48044666Y-119961525D01*
X47954265Y-119783142D01*
X47928817Y-119732928D01*
X47859792Y-119486124D01*
X47840242Y-119230596D01*
X47862777Y-119043698D01*
X47870919Y-118976168D01*
X47914805Y-118842095D01*
X47950644Y-118732607D01*
X47950645Y-118732605D01*
X47950646Y-118732602D01*
X48076352Y-118509284D01*
X48076353Y-118509282D01*
X48243215Y-118314773D01*
X48274861Y-118289937D01*
X48444815Y-118156556D01*
X48522363Y-118117256D01*
X48673412Y-118040707D01*
X48920216Y-117971682D01*
X49175744Y-117952132D01*
X49366423Y-117975123D01*
G37*
G36*
X37533029Y-117387824D02*
G01*
X37687901Y-117451974D01*
X37827282Y-117545106D01*
X37945816Y-117663640D01*
X38038948Y-117803021D01*
X38103098Y-117957893D01*
X38135801Y-118122305D01*
X38135801Y-118289937D01*
X38103098Y-118454349D01*
X38038948Y-118609221D01*
X37945816Y-118748602D01*
X37827282Y-118867136D01*
X37687901Y-118960268D01*
X37533029Y-119024418D01*
X37368617Y-119057121D01*
X37200985Y-119057121D01*
X37036573Y-119024418D01*
X36881701Y-118960268D01*
X36742320Y-118867136D01*
X36623786Y-118748602D01*
X36530654Y-118609221D01*
X36466504Y-118454349D01*
X36433801Y-118289937D01*
X36433801Y-118122305D01*
X36466504Y-117957893D01*
X36530654Y-117803021D01*
X36623786Y-117663640D01*
X36742320Y-117545106D01*
X36881701Y-117451974D01*
X37036573Y-117387824D01*
X37200985Y-117355121D01*
X37368617Y-117355121D01*
X37533029Y-117387824D01*
G37*
G36*
X47494756Y-113130595D02*
G01*
X47501334Y-113130684D01*
X47648980Y-113162135D01*
X47751983Y-113184076D01*
X47822790Y-113214534D01*
X47987400Y-113285341D01*
X48198540Y-113430589D01*
X48239968Y-113473154D01*
X48377285Y-113614237D01*
X48516769Y-113829228D01*
X48611629Y-114067300D01*
X48658221Y-114319303D01*
X48656521Y-114444946D01*
X48654754Y-114575557D01*
X48601362Y-114826204D01*
X48500097Y-115061622D01*
X48354849Y-115272762D01*
X48264235Y-115360956D01*
X48171201Y-115451507D01*
X47956210Y-115590991D01*
X47781191Y-115660727D01*
X47777786Y-115662084D01*
X47097747Y-115858367D01*
X46985445Y-115879130D01*
X46908883Y-115893285D01*
X46659208Y-115889907D01*
X46652630Y-115889818D01*
X46485531Y-115854223D01*
X46401981Y-115836426D01*
X46331174Y-115805968D01*
X46166564Y-115735161D01*
X45955424Y-115589913D01*
X45867230Y-115499299D01*
X45776679Y-115406265D01*
X45637195Y-115191274D01*
X45542335Y-114953202D01*
X45495743Y-114701199D01*
X45499210Y-114444948D01*
X45552602Y-114194297D01*
X45583060Y-114123490D01*
X45653867Y-113958880D01*
X45799115Y-113747740D01*
X45908398Y-113641375D01*
X45982763Y-113568995D01*
X46197754Y-113429511D01*
X46376173Y-113358420D01*
X46376177Y-113358419D01*
X46376179Y-113358418D01*
X47056216Y-113162135D01*
X47168518Y-113141372D01*
X47245080Y-113127217D01*
X47494756Y-113130595D01*
G37*
G36*
X189971294Y-109347236D02*
G01*
X190056471Y-109353753D01*
X190096253Y-109364879D01*
X190303275Y-109422777D01*
X190531870Y-109538625D01*
X190733472Y-109696843D01*
X190900334Y-109891353D01*
X191026043Y-110114678D01*
X191102494Y-110348236D01*
X191105768Y-110358239D01*
X191131854Y-110574599D01*
X191136444Y-110612667D01*
X191116895Y-110868195D01*
X191093741Y-110950983D01*
X191047870Y-111115000D01*
X191009559Y-111190596D01*
X190961050Y-111286316D01*
X189683454Y-113291738D01*
X189683452Y-113291740D01*
X189564880Y-113442826D01*
X189370373Y-113609686D01*
X189233755Y-113686587D01*
X189147045Y-113735396D01*
X188934037Y-113805120D01*
X188903484Y-113815121D01*
X188649057Y-113845797D01*
X188649056Y-113845797D01*
X188393529Y-113826248D01*
X188146725Y-113757223D01*
X188146724Y-113757223D01*
X188146722Y-113757222D01*
X187918135Y-113641378D01*
X187918133Y-113641377D01*
X187918130Y-113641375D01*
X187716528Y-113483157D01*
X187716524Y-113483154D01*
X187549667Y-113288650D01*
X187423958Y-113065323D01*
X187423957Y-113065322D01*
X187344233Y-112821764D01*
X187344232Y-112821761D01*
X187313556Y-112567334D01*
X187314321Y-112557333D01*
X187333105Y-112311806D01*
X187402130Y-112065002D01*
X187402130Y-112065001D01*
X187482770Y-111905880D01*
X187488950Y-111893685D01*
X188766545Y-109888262D01*
X188885119Y-109737175D01*
X189029052Y-109613701D01*
X189079630Y-109570312D01*
X189302948Y-109444606D01*
X189333504Y-109434604D01*
X189546511Y-109364880D01*
X189546512Y-109364880D01*
X189546515Y-109364879D01*
X189800941Y-109334203D01*
X189800943Y-109334203D01*
X189971294Y-109347236D01*
G37*
G36*
X170961294Y-109347236D02*
G01*
X171046471Y-109353753D01*
X171086253Y-109364879D01*
X171293275Y-109422777D01*
X171521870Y-109538625D01*
X171723472Y-109696843D01*
X171890334Y-109891353D01*
X172016043Y-110114678D01*
X172092494Y-110348236D01*
X172095768Y-110358239D01*
X172121854Y-110574599D01*
X172126444Y-110612667D01*
X172106895Y-110868195D01*
X172083741Y-110950983D01*
X172037870Y-111115000D01*
X171999559Y-111190596D01*
X171951050Y-111286316D01*
X170673454Y-113291738D01*
X170673452Y-113291740D01*
X170554880Y-113442826D01*
X170360373Y-113609686D01*
X170223755Y-113686587D01*
X170137045Y-113735396D01*
X169924037Y-113805120D01*
X169893484Y-113815121D01*
X169639057Y-113845797D01*
X169639056Y-113845797D01*
X169383529Y-113826248D01*
X169136725Y-113757223D01*
X169136724Y-113757223D01*
X169136722Y-113757222D01*
X168908135Y-113641378D01*
X168908133Y-113641377D01*
X168908130Y-113641375D01*
X168706528Y-113483157D01*
X168706524Y-113483154D01*
X168539667Y-113288650D01*
X168413958Y-113065323D01*
X168413957Y-113065322D01*
X168334233Y-112821764D01*
X168334232Y-112821761D01*
X168303556Y-112567334D01*
X168304321Y-112557333D01*
X168323105Y-112311806D01*
X168392130Y-112065002D01*
X168392130Y-112065001D01*
X168472770Y-111905880D01*
X168478950Y-111893685D01*
X169756545Y-109888262D01*
X169875119Y-109737175D01*
X170019052Y-109613701D01*
X170069630Y-109570312D01*
X170292948Y-109444606D01*
X170323504Y-109434604D01*
X170536511Y-109364880D01*
X170536512Y-109364880D01*
X170536515Y-109364879D01*
X170790941Y-109334203D01*
X170790943Y-109334203D01*
X170961294Y-109347236D01*
G37*
G36*
X208931647Y-109334203D02*
G01*
X209056471Y-109343753D01*
X209096253Y-109354879D01*
X209303275Y-109412777D01*
X209531870Y-109528625D01*
X209733472Y-109686843D01*
X209900334Y-109881353D01*
X210026043Y-110104678D01*
X210104358Y-110343931D01*
X210105768Y-110348239D01*
X210133060Y-110574599D01*
X210136444Y-110602667D01*
X210116895Y-110858195D01*
X210093741Y-110940983D01*
X210047870Y-111105000D01*
X210009559Y-111180596D01*
X209961050Y-111276316D01*
X208683454Y-113281738D01*
X208678029Y-113288650D01*
X208564880Y-113432826D01*
X208370373Y-113599686D01*
X208233755Y-113676587D01*
X208147045Y-113725396D01*
X207909834Y-113803042D01*
X207903484Y-113805121D01*
X207649057Y-113835797D01*
X207649056Y-113835797D01*
X207393529Y-113816248D01*
X207146725Y-113747223D01*
X207146724Y-113747223D01*
X207146722Y-113747222D01*
X206918135Y-113631378D01*
X206918133Y-113631377D01*
X206918130Y-113631375D01*
X206716528Y-113473157D01*
X206716524Y-113473154D01*
X206549667Y-113278650D01*
X206464427Y-113127218D01*
X206423957Y-113055322D01*
X206344233Y-112811764D01*
X206344232Y-112811761D01*
X206313556Y-112557334D01*
X206313556Y-112557333D01*
X206333105Y-112301806D01*
X206399333Y-112065002D01*
X206402130Y-112055001D01*
X206483882Y-111893686D01*
X206488950Y-111883685D01*
X207766545Y-109878262D01*
X207885119Y-109727175D01*
X208017395Y-109613701D01*
X208079630Y-109560312D01*
X208302948Y-109434606D01*
X208302954Y-109434604D01*
X208546511Y-109354880D01*
X208546512Y-109354880D01*
X208546515Y-109354879D01*
X208800941Y-109324203D01*
X208800943Y-109324203D01*
X208931647Y-109334203D01*
G37*
G36*
X176351379Y-108768813D02*
G01*
X176590991Y-108859713D01*
X176727979Y-108945396D01*
X176808265Y-108995613D01*
X176994852Y-109171288D01*
X177103824Y-109324203D01*
X177143580Y-109379990D01*
X177248735Y-109613697D01*
X177248736Y-109613701D01*
X177306276Y-109863428D01*
X177312058Y-110055394D01*
X177312057Y-110055402D01*
X177263916Y-110761571D01*
X177232135Y-110950983D01*
X177141235Y-111190595D01*
X177011590Y-111397869D01*
X177005335Y-111407869D01*
X176829660Y-111594456D01*
X176673398Y-111705813D01*
X176620958Y-111743184D01*
X176387251Y-111848339D01*
X176387247Y-111848340D01*
X176137521Y-111905880D01*
X175881366Y-111913594D01*
X175881362Y-111913594D01*
X175628621Y-111871187D01*
X175389009Y-111780287D01*
X175171735Y-111644387D01*
X175118703Y-111594456D01*
X174985148Y-111468712D01*
X174855166Y-111286315D01*
X174836420Y-111260010D01*
X174731265Y-111026303D01*
X174673724Y-110776571D01*
X174672971Y-110751571D01*
X174667942Y-110584608D01*
X174716084Y-109878428D01*
X174741463Y-109727175D01*
X174747865Y-109689017D01*
X174838765Y-109449405D01*
X174974665Y-109232131D01*
X175031950Y-109171288D01*
X175150340Y-109045544D01*
X175306602Y-108934187D01*
X175359042Y-108896816D01*
X175592749Y-108791661D01*
X175592753Y-108791660D01*
X175842479Y-108734120D01*
X176098634Y-108726406D01*
X176098638Y-108726406D01*
X176351379Y-108768813D01*
G37*
G36*
X195361379Y-108768813D02*
G01*
X195600991Y-108859713D01*
X195737979Y-108945396D01*
X195818265Y-108995613D01*
X196004852Y-109171288D01*
X196113824Y-109324203D01*
X196153580Y-109379990D01*
X196258735Y-109613697D01*
X196258736Y-109613701D01*
X196316276Y-109863428D01*
X196322058Y-110055394D01*
X196322057Y-110055402D01*
X196273916Y-110761571D01*
X196242135Y-110950983D01*
X196151235Y-111190595D01*
X196021590Y-111397869D01*
X196015335Y-111407869D01*
X195839660Y-111594456D01*
X195683398Y-111705813D01*
X195630958Y-111743184D01*
X195397251Y-111848339D01*
X195397247Y-111848340D01*
X195147521Y-111905880D01*
X194891366Y-111913594D01*
X194891362Y-111913594D01*
X194638621Y-111871187D01*
X194399009Y-111780287D01*
X194181735Y-111644387D01*
X194128703Y-111594456D01*
X193995148Y-111468712D01*
X193865166Y-111286315D01*
X193846420Y-111260010D01*
X193741265Y-111026303D01*
X193683724Y-110776571D01*
X193682971Y-110751571D01*
X193677942Y-110584608D01*
X193726084Y-109878428D01*
X193751463Y-109727175D01*
X193757865Y-109689017D01*
X193848765Y-109449405D01*
X193984665Y-109232131D01*
X194041950Y-109171288D01*
X194160340Y-109045544D01*
X194316602Y-108934187D01*
X194369042Y-108896816D01*
X194602749Y-108791661D01*
X194602753Y-108791660D01*
X194852479Y-108734120D01*
X195108634Y-108726406D01*
X195108638Y-108726406D01*
X195361379Y-108768813D01*
G37*
G36*
X214361379Y-108758813D02*
G01*
X214600991Y-108849713D01*
X214676298Y-108896816D01*
X214818265Y-108985613D01*
X215004852Y-109161288D01*
X215116209Y-109317550D01*
X215153580Y-109369990D01*
X215258735Y-109603697D01*
X215258736Y-109603701D01*
X215316276Y-109853428D01*
X215322058Y-110045394D01*
X215305455Y-110288928D01*
X215273916Y-110751571D01*
X215242135Y-110940983D01*
X215151235Y-111180595D01*
X215085109Y-111286316D01*
X215015335Y-111397869D01*
X214839660Y-111584456D01*
X214683398Y-111695813D01*
X214630958Y-111733184D01*
X214397251Y-111838339D01*
X214397247Y-111838340D01*
X214147521Y-111895880D01*
X213891366Y-111903594D01*
X213891362Y-111903594D01*
X213638621Y-111861187D01*
X213399009Y-111770287D01*
X213181735Y-111634387D01*
X213128703Y-111584456D01*
X212995148Y-111458712D01*
X212872293Y-111286316D01*
X212846420Y-111250010D01*
X212741265Y-111016303D01*
X212741264Y-111016299D01*
X212683724Y-110766572D01*
X212677942Y-110574608D01*
X212726084Y-109868428D01*
X212749785Y-109727175D01*
X212757865Y-109679017D01*
X212848765Y-109439405D01*
X212984665Y-109222131D01*
X213041950Y-109161288D01*
X213160340Y-109035544D01*
X213355010Y-108896816D01*
X213369042Y-108886816D01*
X213602749Y-108781661D01*
X213602753Y-108781660D01*
X213852479Y-108724120D01*
X214108634Y-108716406D01*
X214108638Y-108716406D01*
X214361379Y-108758813D01*
G37*
G36*
X73531294Y-104567236D02*
G01*
X73616471Y-104573753D01*
X73656253Y-104584879D01*
X73863275Y-104642777D01*
X74091870Y-104758625D01*
X74091872Y-104758626D01*
X74091873Y-104758627D01*
X74235957Y-104871705D01*
X74293472Y-104916843D01*
X74460334Y-105111353D01*
X74586043Y-105334678D01*
X74662494Y-105568236D01*
X74665768Y-105578239D01*
X74691332Y-105790268D01*
X74696444Y-105832667D01*
X74676895Y-106088195D01*
X74630948Y-106252481D01*
X74607870Y-106335000D01*
X74569559Y-106410596D01*
X74521050Y-106506316D01*
X73243454Y-108511738D01*
X73243452Y-108511740D01*
X73124880Y-108662826D01*
X72930373Y-108829686D01*
X72811114Y-108896816D01*
X72707045Y-108955396D01*
X72494037Y-109025120D01*
X72463484Y-109035121D01*
X72209057Y-109065797D01*
X72209056Y-109065797D01*
X71953529Y-109046248D01*
X71706725Y-108977223D01*
X71706724Y-108977223D01*
X71706722Y-108977222D01*
X71478135Y-108861378D01*
X71478133Y-108861377D01*
X71478130Y-108861375D01*
X71276528Y-108703157D01*
X71276524Y-108703154D01*
X71109667Y-108508650D01*
X70983958Y-108285323D01*
X70983957Y-108285322D01*
X70904233Y-108041764D01*
X70904232Y-108041761D01*
X70873556Y-107787334D01*
X70874321Y-107777333D01*
X70893105Y-107531806D01*
X70962130Y-107285002D01*
X70962130Y-107285001D01*
X71042770Y-107125880D01*
X71048950Y-107113685D01*
X72326545Y-105108262D01*
X72445119Y-104957175D01*
X72589052Y-104833701D01*
X72639630Y-104790312D01*
X72862948Y-104664606D01*
X72893504Y-104654604D01*
X73106511Y-104584880D01*
X73106512Y-104584880D01*
X73106515Y-104584879D01*
X73360941Y-104554203D01*
X73360943Y-104554203D01*
X73531294Y-104567236D01*
G37*
G36*
X121031294Y-104567236D02*
G01*
X121116471Y-104573753D01*
X121156253Y-104584879D01*
X121363275Y-104642777D01*
X121591870Y-104758625D01*
X121591872Y-104758626D01*
X121591873Y-104758627D01*
X121735957Y-104871705D01*
X121793472Y-104916843D01*
X121960334Y-105111353D01*
X122086043Y-105334678D01*
X122162494Y-105568236D01*
X122165768Y-105578239D01*
X122191332Y-105790268D01*
X122196444Y-105832667D01*
X122176895Y-106088195D01*
X122130948Y-106252481D01*
X122107870Y-106335000D01*
X122069559Y-106410596D01*
X122021050Y-106506316D01*
X120743454Y-108511738D01*
X120743452Y-108511740D01*
X120624880Y-108662826D01*
X120430373Y-108829686D01*
X120311114Y-108896816D01*
X120207045Y-108955396D01*
X119994037Y-109025120D01*
X119963484Y-109035121D01*
X119709057Y-109065797D01*
X119709056Y-109065797D01*
X119453529Y-109046248D01*
X119206725Y-108977223D01*
X119206724Y-108977223D01*
X119206722Y-108977222D01*
X118978135Y-108861378D01*
X118978133Y-108861377D01*
X118978130Y-108861375D01*
X118776528Y-108703157D01*
X118776524Y-108703154D01*
X118609667Y-108508650D01*
X118483958Y-108285323D01*
X118483957Y-108285322D01*
X118404233Y-108041764D01*
X118404232Y-108041761D01*
X118373556Y-107787334D01*
X118374321Y-107777333D01*
X118393105Y-107531806D01*
X118462130Y-107285002D01*
X118462130Y-107285001D01*
X118542770Y-107125880D01*
X118548950Y-107113685D01*
X119826545Y-105108262D01*
X119945119Y-104957175D01*
X120089052Y-104833701D01*
X120139630Y-104790312D01*
X120362948Y-104664606D01*
X120393504Y-104654604D01*
X120606511Y-104584880D01*
X120606512Y-104584880D01*
X120606515Y-104584879D01*
X120860941Y-104554203D01*
X120860943Y-104554203D01*
X121031294Y-104567236D01*
G37*
G36*
X144731647Y-104554203D02*
G01*
X144856471Y-104563753D01*
X144896253Y-104574879D01*
X145103275Y-104632777D01*
X145331870Y-104748625D01*
X145331872Y-104748626D01*
X145331873Y-104748627D01*
X145488699Y-104871705D01*
X145533472Y-104906843D01*
X145700334Y-105101353D01*
X145826043Y-105324678D01*
X145870918Y-105461772D01*
X145905768Y-105568239D01*
X145933060Y-105794599D01*
X145936444Y-105822667D01*
X145916895Y-106078195D01*
X145873745Y-106232480D01*
X145847870Y-106325000D01*
X145809559Y-106400596D01*
X145761050Y-106496316D01*
X144483454Y-108501738D01*
X144478029Y-108508650D01*
X144364880Y-108652826D01*
X144170373Y-108819686D01*
X144051114Y-108886816D01*
X143947045Y-108945396D01*
X143793631Y-108995613D01*
X143703484Y-109025121D01*
X143449057Y-109055797D01*
X143449056Y-109055797D01*
X143193529Y-109036248D01*
X142946725Y-108967223D01*
X142946724Y-108967223D01*
X142946722Y-108967222D01*
X142718135Y-108851378D01*
X142718133Y-108851377D01*
X142718130Y-108851375D01*
X142516528Y-108693157D01*
X142516524Y-108693154D01*
X142349667Y-108498650D01*
X142223958Y-108275323D01*
X142223957Y-108275322D01*
X142144233Y-108031764D01*
X142144232Y-108031761D01*
X142113556Y-107777334D01*
X142113556Y-107777333D01*
X142133105Y-107521806D01*
X142199333Y-107285002D01*
X142202130Y-107275001D01*
X142283882Y-107113686D01*
X142288950Y-107103685D01*
X143566545Y-105098262D01*
X143685119Y-104947175D01*
X143817395Y-104833701D01*
X143879630Y-104780312D01*
X144102948Y-104654606D01*
X144102954Y-104654604D01*
X144346511Y-104574880D01*
X144346512Y-104574880D01*
X144346515Y-104574879D01*
X144600941Y-104544203D01*
X144600943Y-104544203D01*
X144731647Y-104554203D01*
G37*
G36*
X46695937Y-108212498D02*
G01*
X45096580Y-108794617D01*
X44514461Y-107195260D01*
X46113818Y-106613141D01*
X46695937Y-108212498D01*
G37*
G36*
X78921379Y-103988813D02*
G01*
X79160991Y-104079713D01*
X79329515Y-104185121D01*
X79378265Y-104215613D01*
X79564852Y-104391288D01*
X79673824Y-104544203D01*
X79713580Y-104599990D01*
X79818735Y-104833697D01*
X79818736Y-104833701D01*
X79876276Y-105083428D01*
X79882058Y-105275394D01*
X79881273Y-105286903D01*
X79833916Y-105981571D01*
X79802135Y-106170983D01*
X79711235Y-106410595D01*
X79617160Y-106561000D01*
X79575335Y-106627869D01*
X79399660Y-106814456D01*
X79243398Y-106925813D01*
X79190958Y-106963184D01*
X78957251Y-107068339D01*
X78957247Y-107068340D01*
X78707521Y-107125880D01*
X78451366Y-107133594D01*
X78451362Y-107133594D01*
X78198621Y-107091187D01*
X77959009Y-107000287D01*
X77741735Y-106864387D01*
X77688703Y-106814456D01*
X77555148Y-106688712D01*
X77435631Y-106521000D01*
X77406420Y-106480010D01*
X77301265Y-106246303D01*
X77281606Y-106160983D01*
X77243724Y-105996572D01*
X77237942Y-105804608D01*
X77286084Y-105098428D01*
X77309785Y-104957175D01*
X77317865Y-104909017D01*
X77408765Y-104669405D01*
X77544665Y-104452131D01*
X77601950Y-104391288D01*
X77720340Y-104265544D01*
X77876602Y-104154187D01*
X77929042Y-104116816D01*
X78162749Y-104011661D01*
X78162753Y-104011660D01*
X78412479Y-103954120D01*
X78668634Y-103946406D01*
X78668638Y-103946406D01*
X78921379Y-103988813D01*
G37*
G36*
X126421379Y-103988813D02*
G01*
X126660991Y-104079713D01*
X126829515Y-104185121D01*
X126878265Y-104215613D01*
X127064852Y-104391288D01*
X127173824Y-104544203D01*
X127213580Y-104599990D01*
X127318735Y-104833697D01*
X127318736Y-104833701D01*
X127376276Y-105083428D01*
X127382058Y-105275394D01*
X127381273Y-105286903D01*
X127333916Y-105981571D01*
X127302135Y-106170983D01*
X127211235Y-106410595D01*
X127117160Y-106561000D01*
X127075335Y-106627869D01*
X126899660Y-106814456D01*
X126743398Y-106925813D01*
X126690958Y-106963184D01*
X126457251Y-107068339D01*
X126457247Y-107068340D01*
X126207521Y-107125880D01*
X125951366Y-107133594D01*
X125951362Y-107133594D01*
X125698621Y-107091187D01*
X125459009Y-107000287D01*
X125241735Y-106864387D01*
X125188703Y-106814456D01*
X125055148Y-106688712D01*
X124935631Y-106521000D01*
X124906420Y-106480010D01*
X124801265Y-106246303D01*
X124781606Y-106160983D01*
X124743724Y-105996572D01*
X124737942Y-105804608D01*
X124786084Y-105098428D01*
X124809785Y-104957175D01*
X124817865Y-104909017D01*
X124908765Y-104669405D01*
X125044665Y-104452131D01*
X125101950Y-104391288D01*
X125220340Y-104265544D01*
X125376602Y-104154187D01*
X125429042Y-104116816D01*
X125662749Y-104011661D01*
X125662753Y-104011660D01*
X125912479Y-103954120D01*
X126168634Y-103946406D01*
X126168638Y-103946406D01*
X126421379Y-103988813D01*
G37*
G36*
X150161379Y-103978813D02*
G01*
X150400991Y-104069713D01*
X150476298Y-104116816D01*
X150618265Y-104205613D01*
X150804852Y-104381288D01*
X150884917Y-104493640D01*
X150953580Y-104589990D01*
X151058735Y-104823697D01*
X151058736Y-104823701D01*
X151116276Y-105073428D01*
X151122058Y-105265394D01*
X151108670Y-105461771D01*
X151073916Y-105971571D01*
X151042135Y-106160983D01*
X150951235Y-106400595D01*
X150871360Y-106528297D01*
X150815335Y-106617869D01*
X150639660Y-106804456D01*
X150483398Y-106915813D01*
X150430958Y-106953184D01*
X150197251Y-107058339D01*
X150197247Y-107058340D01*
X149947521Y-107115880D01*
X149691366Y-107123594D01*
X149691362Y-107123594D01*
X149438621Y-107081187D01*
X149199009Y-106990287D01*
X148981735Y-106854387D01*
X148928703Y-106804456D01*
X148795148Y-106678712D01*
X148673705Y-106508297D01*
X148646420Y-106470010D01*
X148541265Y-106236303D01*
X148535776Y-106212480D01*
X148483724Y-105986572D01*
X148477942Y-105794608D01*
X148526084Y-105088428D01*
X148548924Y-104952306D01*
X148557865Y-104899017D01*
X148648765Y-104659405D01*
X148784665Y-104442131D01*
X148841950Y-104381288D01*
X148960340Y-104255544D01*
X149155010Y-104116816D01*
X149169042Y-104106816D01*
X149402749Y-104001661D01*
X149402753Y-104001660D01*
X149652479Y-103944120D01*
X149908634Y-103936406D01*
X149908638Y-103936406D01*
X150161379Y-103978813D01*
G37*
G36*
X189581000Y-106561000D02*
G01*
X187879000Y-106561000D01*
X187879000Y-104859000D01*
X189581000Y-104859000D01*
X189581000Y-106561000D01*
G37*
G36*
X196778228Y-104891703D02*
G01*
X196933100Y-104955853D01*
X197072481Y-105048985D01*
X197191015Y-105167519D01*
X197284147Y-105306900D01*
X197348297Y-105461772D01*
X197381000Y-105626184D01*
X197381000Y-105793816D01*
X197348297Y-105958228D01*
X197284147Y-106113100D01*
X197191015Y-106252481D01*
X197072481Y-106371015D01*
X196933100Y-106464147D01*
X196778228Y-106528297D01*
X196613816Y-106561000D01*
X196446184Y-106561000D01*
X196281772Y-106528297D01*
X196126900Y-106464147D01*
X195987519Y-106371015D01*
X195868985Y-106252481D01*
X195775853Y-106113100D01*
X195711703Y-105958228D01*
X195679000Y-105793816D01*
X195679000Y-105626184D01*
X195711703Y-105461772D01*
X195775853Y-105306900D01*
X195868985Y-105167519D01*
X195987519Y-105048985D01*
X196126900Y-104955853D01*
X196281772Y-104891703D01*
X196446184Y-104859000D01*
X196613816Y-104859000D01*
X196778228Y-104891703D01*
G37*
G36*
X177778228Y-104871703D02*
G01*
X177933100Y-104935853D01*
X178072481Y-105028985D01*
X178191015Y-105147519D01*
X178284147Y-105286900D01*
X178348297Y-105441772D01*
X178381000Y-105606184D01*
X178381000Y-105773816D01*
X178348297Y-105938228D01*
X178284147Y-106093100D01*
X178191015Y-106232481D01*
X178072481Y-106351015D01*
X177933100Y-106444147D01*
X177778228Y-106508297D01*
X177613816Y-106541000D01*
X177446184Y-106541000D01*
X177281772Y-106508297D01*
X177126900Y-106444147D01*
X176987519Y-106351015D01*
X176868985Y-106232481D01*
X176775853Y-106093100D01*
X176711703Y-105938228D01*
X176679000Y-105773816D01*
X176679000Y-105606184D01*
X176711703Y-105441772D01*
X176775853Y-105286900D01*
X176868985Y-105147519D01*
X176987519Y-105028985D01*
X177126900Y-104935853D01*
X177281772Y-104871703D01*
X177446184Y-104839000D01*
X177613816Y-104839000D01*
X177778228Y-104871703D01*
G37*
G36*
X170581000Y-106541000D02*
G01*
X168879000Y-106541000D01*
X168879000Y-104839000D01*
X170581000Y-104839000D01*
X170581000Y-106541000D01*
G37*
G36*
X215708228Y-104851703D02*
G01*
X215863100Y-104915853D01*
X216002481Y-105008985D01*
X216121015Y-105127519D01*
X216214147Y-105266900D01*
X216278297Y-105421772D01*
X216311000Y-105586184D01*
X216311000Y-105753816D01*
X216278297Y-105918228D01*
X216214147Y-106073100D01*
X216121015Y-106212481D01*
X216002481Y-106331015D01*
X215863100Y-106424147D01*
X215708228Y-106488297D01*
X215543816Y-106521000D01*
X215376184Y-106521000D01*
X215211772Y-106488297D01*
X215056900Y-106424147D01*
X214917519Y-106331015D01*
X214798985Y-106212481D01*
X214705853Y-106073100D01*
X214641703Y-105918228D01*
X214609000Y-105753816D01*
X214609000Y-105586184D01*
X214641703Y-105421772D01*
X214705853Y-105266900D01*
X214798985Y-105127519D01*
X214917519Y-105008985D01*
X215056900Y-104915853D01*
X215211772Y-104851703D01*
X215376184Y-104819000D01*
X215543816Y-104819000D01*
X215708228Y-104851703D01*
G37*
G36*
X208511000Y-106521000D02*
G01*
X206809000Y-106521000D01*
X206809000Y-104819000D01*
X208511000Y-104819000D01*
X208511000Y-106521000D01*
G37*
G36*
X53183029Y-104217824D02*
G01*
X53337901Y-104281974D01*
X53477282Y-104375106D01*
X53595816Y-104493640D01*
X53688948Y-104633021D01*
X53753098Y-104787893D01*
X53785801Y-104952305D01*
X53785801Y-105119937D01*
X53753098Y-105284349D01*
X53688948Y-105439221D01*
X53595816Y-105578602D01*
X53477282Y-105697136D01*
X53337901Y-105790268D01*
X53183029Y-105854418D01*
X53018617Y-105887121D01*
X52850985Y-105887121D01*
X52686573Y-105854418D01*
X52531701Y-105790268D01*
X52392320Y-105697136D01*
X52273786Y-105578602D01*
X52180654Y-105439221D01*
X52116504Y-105284349D01*
X52083801Y-105119937D01*
X52083801Y-104952305D01*
X52116504Y-104787893D01*
X52180654Y-104633021D01*
X52273786Y-104493640D01*
X52392320Y-104375106D01*
X52531701Y-104281974D01*
X52686573Y-104217824D01*
X52850985Y-104185121D01*
X53018617Y-104185121D01*
X53183029Y-104217824D01*
G37*
G36*
X127748228Y-100091703D02*
G01*
X127903100Y-100155853D01*
X128042481Y-100248985D01*
X128161015Y-100367519D01*
X128254147Y-100506900D01*
X128318297Y-100661772D01*
X128351000Y-100826184D01*
X128351000Y-100993816D01*
X128318297Y-101158228D01*
X128254147Y-101313100D01*
X128161015Y-101452481D01*
X128042481Y-101571015D01*
X127903100Y-101664147D01*
X127748228Y-101728297D01*
X127583816Y-101761000D01*
X127416184Y-101761000D01*
X127251772Y-101728297D01*
X127096900Y-101664147D01*
X126957519Y-101571015D01*
X126838985Y-101452481D01*
X126745853Y-101313100D01*
X126681703Y-101158228D01*
X126649000Y-100993816D01*
X126649000Y-100826184D01*
X126681703Y-100661772D01*
X126745853Y-100506900D01*
X126838985Y-100367519D01*
X126957519Y-100248985D01*
X127096900Y-100155853D01*
X127251772Y-100091703D01*
X127416184Y-100059000D01*
X127583816Y-100059000D01*
X127748228Y-100091703D01*
G37*
G36*
X120551000Y-101761000D02*
G01*
X118849000Y-101761000D01*
X118849000Y-100059000D01*
X120551000Y-100059000D01*
X120551000Y-101761000D01*
G37*
G36*
X151458228Y-100081703D02*
G01*
X151613100Y-100145853D01*
X151752481Y-100238985D01*
X151871015Y-100357519D01*
X151964147Y-100496900D01*
X152028297Y-100651772D01*
X152061000Y-100816184D01*
X152061000Y-100983816D01*
X152028297Y-101148228D01*
X151964147Y-101303100D01*
X151871015Y-101442481D01*
X151752481Y-101561015D01*
X151613100Y-101654147D01*
X151458228Y-101718297D01*
X151293816Y-101751000D01*
X151126184Y-101751000D01*
X150961772Y-101718297D01*
X150806900Y-101654147D01*
X150667519Y-101561015D01*
X150548985Y-101442481D01*
X150455853Y-101303100D01*
X150391703Y-101148228D01*
X150359000Y-100983816D01*
X150359000Y-100816184D01*
X150391703Y-100651772D01*
X150455853Y-100496900D01*
X150548985Y-100357519D01*
X150667519Y-100238985D01*
X150806900Y-100145853D01*
X150961772Y-100081703D01*
X151126184Y-100049000D01*
X151293816Y-100049000D01*
X151458228Y-100081703D01*
G37*
G36*
X144261000Y-101751000D02*
G01*
X142559000Y-101751000D01*
X142559000Y-100049000D01*
X144261000Y-100049000D01*
X144261000Y-101751000D01*
G37*
G36*
X79933228Y-100081703D02*
G01*
X80088100Y-100145853D01*
X80227481Y-100238985D01*
X80346015Y-100357519D01*
X80439147Y-100496900D01*
X80503297Y-100651772D01*
X80536000Y-100816184D01*
X80536000Y-100983816D01*
X80503297Y-101148228D01*
X80439147Y-101303100D01*
X80346015Y-101442481D01*
X80227481Y-101561015D01*
X80088100Y-101654147D01*
X79933228Y-101718297D01*
X79768816Y-101751000D01*
X79601184Y-101751000D01*
X79436772Y-101718297D01*
X79281900Y-101654147D01*
X79142519Y-101561015D01*
X79023985Y-101442481D01*
X78930853Y-101303100D01*
X78866703Y-101148228D01*
X78834000Y-100983816D01*
X78834000Y-100816184D01*
X78866703Y-100651772D01*
X78930853Y-100496900D01*
X79023985Y-100357519D01*
X79142519Y-100238985D01*
X79281900Y-100145853D01*
X79436772Y-100081703D01*
X79601184Y-100049000D01*
X79768816Y-100049000D01*
X79933228Y-100081703D01*
G37*
G36*
X72736000Y-101751000D02*
G01*
X71034000Y-101751000D01*
X71034000Y-100049000D01*
X72736000Y-100049000D01*
X72736000Y-101751000D01*
G37*
G36*
X189971294Y-90337236D02*
G01*
X190056471Y-90343753D01*
X190096253Y-90354879D01*
X190303275Y-90412777D01*
X190531870Y-90528625D01*
X190733472Y-90686843D01*
X190900334Y-90881353D01*
X191026043Y-91104678D01*
X191104358Y-91343931D01*
X191105768Y-91348239D01*
X191133060Y-91574599D01*
X191136444Y-91602667D01*
X191116895Y-91858195D01*
X191093741Y-91940983D01*
X191047870Y-92105000D01*
X191009559Y-92180596D01*
X190961050Y-92276316D01*
X189683454Y-94281738D01*
X189683452Y-94281740D01*
X189564880Y-94432826D01*
X189370373Y-94599686D01*
X189233755Y-94676587D01*
X189147045Y-94725396D01*
X188909834Y-94803042D01*
X188903484Y-94805121D01*
X188649057Y-94835797D01*
X188649056Y-94835797D01*
X188393529Y-94816248D01*
X188146725Y-94747223D01*
X188146724Y-94747223D01*
X188146722Y-94747222D01*
X187918135Y-94631378D01*
X187918133Y-94631377D01*
X187918130Y-94631375D01*
X187716528Y-94473157D01*
X187716524Y-94473154D01*
X187549667Y-94278650D01*
X187423958Y-94055323D01*
X187423957Y-94055322D01*
X187344233Y-93811764D01*
X187344232Y-93811761D01*
X187313556Y-93557334D01*
X187313556Y-93557333D01*
X187333105Y-93301806D01*
X187402130Y-93055002D01*
X187402130Y-93055001D01*
X187482770Y-92895880D01*
X187488950Y-92883685D01*
X188766545Y-90878262D01*
X188885119Y-90727175D01*
X189029052Y-90603701D01*
X189079630Y-90560312D01*
X189302948Y-90434606D01*
X189302954Y-90434604D01*
X189546511Y-90354880D01*
X189546512Y-90354880D01*
X189546515Y-90354879D01*
X189800941Y-90324203D01*
X189800943Y-90324203D01*
X189971294Y-90337236D01*
G37*
G36*
X195361379Y-89758813D02*
G01*
X195600991Y-89849713D01*
X195667599Y-89891375D01*
X195818265Y-89985613D01*
X196004852Y-90161288D01*
X196116209Y-90317550D01*
X196153580Y-90369990D01*
X196258735Y-90603697D01*
X196258736Y-90603701D01*
X196316276Y-90853428D01*
X196322058Y-91045394D01*
X196322057Y-91045402D01*
X196273916Y-91751571D01*
X196242135Y-91940983D01*
X196151235Y-92180595D01*
X196015335Y-92397869D01*
X195839660Y-92584456D01*
X195683398Y-92695813D01*
X195630958Y-92733184D01*
X195397251Y-92838339D01*
X195397247Y-92838340D01*
X195147521Y-92895880D01*
X194891366Y-92903594D01*
X194891362Y-92903594D01*
X194638621Y-92861187D01*
X194399009Y-92770287D01*
X194181735Y-92634387D01*
X194128703Y-92584456D01*
X193995148Y-92458712D01*
X193865166Y-92276315D01*
X193846420Y-92250010D01*
X193741265Y-92016303D01*
X193683724Y-91766571D01*
X193683272Y-91751571D01*
X193677942Y-91574608D01*
X193726084Y-90868428D01*
X193749785Y-90727175D01*
X193757865Y-90679017D01*
X193848765Y-90439405D01*
X193984665Y-90222131D01*
X194041950Y-90161288D01*
X194160340Y-90035544D01*
X194316602Y-89924187D01*
X194369042Y-89886816D01*
X194602749Y-89781661D01*
X194602753Y-89781660D01*
X194852479Y-89724120D01*
X195108634Y-89716406D01*
X195108638Y-89716406D01*
X195361379Y-89758813D01*
G37*
G36*
X66370483Y-85594879D02*
G01*
X66486471Y-85603753D01*
X66526253Y-85614879D01*
X66733275Y-85672777D01*
X66961870Y-85788625D01*
X66961872Y-85788626D01*
X66961873Y-85788627D01*
X67137988Y-85926843D01*
X67163472Y-85946843D01*
X67330334Y-86141353D01*
X67456043Y-86364678D01*
X67525947Y-86578236D01*
X67535768Y-86608239D01*
X67564033Y-86842667D01*
X67566444Y-86862667D01*
X67546895Y-87118195D01*
X67505474Y-87266299D01*
X67477870Y-87365000D01*
X67439559Y-87440596D01*
X67391050Y-87536316D01*
X66113454Y-89541738D01*
X66113452Y-89541740D01*
X65994880Y-89692826D01*
X65800373Y-89859686D01*
X65663755Y-89936587D01*
X65577045Y-89985396D01*
X65394587Y-90045120D01*
X65333484Y-90065121D01*
X65079057Y-90095797D01*
X65079056Y-90095797D01*
X64823529Y-90076248D01*
X64576725Y-90007223D01*
X64576724Y-90007223D01*
X64576722Y-90007222D01*
X64348135Y-89891378D01*
X64348133Y-89891377D01*
X64348130Y-89891375D01*
X64146528Y-89733157D01*
X64146524Y-89733154D01*
X63979667Y-89538650D01*
X63853958Y-89315323D01*
X63853957Y-89315322D01*
X63774233Y-89071764D01*
X63774232Y-89071761D01*
X63743556Y-88817334D01*
X63745851Y-88787333D01*
X63763105Y-88561806D01*
X63832130Y-88315002D01*
X63832130Y-88315001D01*
X63912770Y-88155880D01*
X63918950Y-88143685D01*
X65196545Y-86138262D01*
X65315119Y-85987175D01*
X65459052Y-85863701D01*
X65509630Y-85820312D01*
X65732948Y-85694606D01*
X65794054Y-85674604D01*
X65976511Y-85614880D01*
X65976512Y-85614880D01*
X65976515Y-85614879D01*
X66230941Y-85584203D01*
X66230943Y-85584203D01*
X66370483Y-85594879D01*
G37*
G36*
X47401647Y-85584203D02*
G01*
X47526471Y-85593753D01*
X47566253Y-85604879D01*
X47773275Y-85662777D01*
X48001870Y-85778625D01*
X48001872Y-85778626D01*
X48001873Y-85778627D01*
X48190730Y-85926843D01*
X48203472Y-85936843D01*
X48370334Y-86131353D01*
X48496043Y-86354678D01*
X48521278Y-86431772D01*
X48575768Y-86598239D01*
X48604033Y-86832667D01*
X48606444Y-86852667D01*
X48586895Y-87108195D01*
X48545474Y-87256299D01*
X48517870Y-87355000D01*
X48479559Y-87430596D01*
X48431050Y-87526316D01*
X47153454Y-89531738D01*
X47148029Y-89538650D01*
X47034880Y-89682826D01*
X46840373Y-89849686D01*
X46703755Y-89926587D01*
X46617045Y-89975396D01*
X46404037Y-90045120D01*
X46373484Y-90055121D01*
X46119057Y-90085797D01*
X46119056Y-90085797D01*
X45863529Y-90066248D01*
X45616725Y-89997223D01*
X45616724Y-89997223D01*
X45616722Y-89997222D01*
X45388135Y-89881378D01*
X45388133Y-89881377D01*
X45388130Y-89881375D01*
X45186528Y-89723157D01*
X45186524Y-89723154D01*
X45019667Y-89528650D01*
X44893958Y-89305323D01*
X44893957Y-89305322D01*
X44814233Y-89061764D01*
X44814232Y-89061761D01*
X44783556Y-88807334D01*
X44785086Y-88787333D01*
X44803105Y-88551806D01*
X44869333Y-88315002D01*
X44872130Y-88305001D01*
X44953882Y-88143686D01*
X44958950Y-88133685D01*
X46236545Y-86128262D01*
X46355119Y-85977175D01*
X46487395Y-85863701D01*
X46549630Y-85810312D01*
X46772948Y-85684606D01*
X46803504Y-85674604D01*
X47016511Y-85604880D01*
X47016512Y-85604880D01*
X47016515Y-85604879D01*
X47270941Y-85574203D01*
X47270943Y-85574203D01*
X47401647Y-85584203D01*
G37*
G36*
X142391647Y-85584203D02*
G01*
X142516471Y-85593753D01*
X142556253Y-85604879D01*
X142763275Y-85662777D01*
X142991870Y-85778625D01*
X142991872Y-85778626D01*
X142991873Y-85778627D01*
X143180730Y-85926843D01*
X143193472Y-85936843D01*
X143360334Y-86131353D01*
X143486043Y-86354678D01*
X143511278Y-86431772D01*
X143565768Y-86598239D01*
X143594033Y-86832667D01*
X143596444Y-86852667D01*
X143576895Y-87108195D01*
X143535474Y-87256299D01*
X143507870Y-87355000D01*
X143469559Y-87430596D01*
X143421050Y-87526316D01*
X142143454Y-89531738D01*
X142138029Y-89538650D01*
X142024880Y-89682826D01*
X141830373Y-89849686D01*
X141693755Y-89926587D01*
X141607045Y-89975396D01*
X141394037Y-90045120D01*
X141363484Y-90055121D01*
X141109057Y-90085797D01*
X141109056Y-90085797D01*
X140853529Y-90066248D01*
X140606725Y-89997223D01*
X140606724Y-89997223D01*
X140606722Y-89997222D01*
X140378135Y-89881378D01*
X140378133Y-89881377D01*
X140378130Y-89881375D01*
X140176528Y-89723157D01*
X140176524Y-89723154D01*
X140009667Y-89528650D01*
X139883958Y-89305323D01*
X139883957Y-89305322D01*
X139804233Y-89061764D01*
X139804232Y-89061761D01*
X139773556Y-88807334D01*
X139775086Y-88787333D01*
X139793105Y-88551806D01*
X139859333Y-88315002D01*
X139862130Y-88305001D01*
X139943882Y-88143686D01*
X139948950Y-88133685D01*
X141226545Y-86128262D01*
X141345119Y-85977175D01*
X141477395Y-85863701D01*
X141539630Y-85810312D01*
X141762948Y-85684606D01*
X141793504Y-85674604D01*
X142006511Y-85604880D01*
X142006512Y-85604880D01*
X142006515Y-85604879D01*
X142260941Y-85574203D01*
X142260943Y-85574203D01*
X142391647Y-85584203D01*
G37*
G36*
X163761647Y-85584203D02*
G01*
X163886471Y-85593753D01*
X163926253Y-85604879D01*
X164133275Y-85662777D01*
X164361870Y-85778625D01*
X164361872Y-85778626D01*
X164361873Y-85778627D01*
X164550730Y-85926843D01*
X164563472Y-85936843D01*
X164730334Y-86131353D01*
X164856043Y-86354678D01*
X164881278Y-86431772D01*
X164935768Y-86598239D01*
X164964033Y-86832667D01*
X164966444Y-86852667D01*
X164946895Y-87108195D01*
X164905474Y-87256299D01*
X164877870Y-87355000D01*
X164839559Y-87430596D01*
X164791050Y-87526316D01*
X163513454Y-89531738D01*
X163508029Y-89538650D01*
X163394880Y-89682826D01*
X163200373Y-89849686D01*
X163063755Y-89926587D01*
X162977045Y-89975396D01*
X162764037Y-90045120D01*
X162733484Y-90055121D01*
X162479057Y-90085797D01*
X162479056Y-90085797D01*
X162223529Y-90066248D01*
X161976725Y-89997223D01*
X161976724Y-89997223D01*
X161976722Y-89997222D01*
X161748135Y-89881378D01*
X161748133Y-89881377D01*
X161748130Y-89881375D01*
X161546528Y-89723157D01*
X161546524Y-89723154D01*
X161379667Y-89528650D01*
X161253958Y-89305323D01*
X161253957Y-89305322D01*
X161174233Y-89061764D01*
X161174232Y-89061761D01*
X161143556Y-88807334D01*
X161145086Y-88787333D01*
X161163105Y-88551806D01*
X161229333Y-88315002D01*
X161232130Y-88305001D01*
X161313882Y-88143686D01*
X161318950Y-88133685D01*
X162596545Y-86128262D01*
X162715119Y-85977175D01*
X162847395Y-85863701D01*
X162909630Y-85810312D01*
X163132948Y-85684606D01*
X163163504Y-85674604D01*
X163376511Y-85604880D01*
X163376512Y-85604880D01*
X163376515Y-85604879D01*
X163630941Y-85574203D01*
X163630943Y-85574203D01*
X163761647Y-85584203D01*
G37*
G36*
X213651647Y-85574203D02*
G01*
X213776471Y-85583753D01*
X213816253Y-85594879D01*
X214023275Y-85652777D01*
X214251870Y-85768625D01*
X214251872Y-85768626D01*
X214251873Y-85768627D01*
X214370473Y-85861705D01*
X214453472Y-85926843D01*
X214620334Y-86121353D01*
X214746043Y-86344678D01*
X214822494Y-86578236D01*
X214825768Y-86588239D01*
X214828179Y-86608239D01*
X214856444Y-86842667D01*
X214836895Y-87098195D01*
X214802135Y-87222481D01*
X214767870Y-87345000D01*
X214729559Y-87420596D01*
X214681050Y-87516316D01*
X213403454Y-89521738D01*
X213390181Y-89538650D01*
X213284880Y-89672826D01*
X213090373Y-89839686D01*
X213006641Y-89886818D01*
X212867045Y-89965396D01*
X212654037Y-90035120D01*
X212623484Y-90045121D01*
X212369057Y-90075797D01*
X212369056Y-90075797D01*
X212113529Y-90056248D01*
X211866725Y-89987223D01*
X211866724Y-89987223D01*
X211866722Y-89987222D01*
X211638135Y-89871378D01*
X211638133Y-89871377D01*
X211638130Y-89871375D01*
X211436528Y-89713157D01*
X211436524Y-89713154D01*
X211269667Y-89518650D01*
X211143958Y-89295323D01*
X211143957Y-89295322D01*
X211064233Y-89051764D01*
X211064232Y-89051761D01*
X211033556Y-88797334D01*
X211034321Y-88787333D01*
X211053105Y-88541806D01*
X211119333Y-88305002D01*
X211122130Y-88295001D01*
X211188725Y-88163594D01*
X211208950Y-88123685D01*
X212486545Y-86118262D01*
X212605119Y-85967175D01*
X212737395Y-85853701D01*
X212799630Y-85800312D01*
X213022948Y-85674606D01*
X213022954Y-85674604D01*
X213266511Y-85594880D01*
X213266512Y-85594880D01*
X213266515Y-85594879D01*
X213520941Y-85564203D01*
X213520943Y-85564203D01*
X213651647Y-85574203D01*
G37*
G36*
X85381647Y-85574203D02*
G01*
X85506471Y-85583753D01*
X85546253Y-85594879D01*
X85753275Y-85652777D01*
X85981870Y-85768625D01*
X85981872Y-85768626D01*
X85981873Y-85768627D01*
X86100473Y-85861705D01*
X86183472Y-85926843D01*
X86350334Y-86121353D01*
X86476043Y-86344678D01*
X86552494Y-86578236D01*
X86555768Y-86588239D01*
X86558179Y-86608239D01*
X86586444Y-86842667D01*
X86566895Y-87098195D01*
X86532135Y-87222481D01*
X86497870Y-87345000D01*
X86459559Y-87420596D01*
X86411050Y-87516316D01*
X85133454Y-89521738D01*
X85120181Y-89538650D01*
X85014880Y-89672826D01*
X84820373Y-89839686D01*
X84736641Y-89886818D01*
X84597045Y-89965396D01*
X84384037Y-90035120D01*
X84353484Y-90045121D01*
X84099057Y-90075797D01*
X84099056Y-90075797D01*
X83843529Y-90056248D01*
X83596725Y-89987223D01*
X83596724Y-89987223D01*
X83596722Y-89987222D01*
X83368135Y-89871378D01*
X83368133Y-89871377D01*
X83368130Y-89871375D01*
X83166528Y-89713157D01*
X83166524Y-89713154D01*
X82999667Y-89518650D01*
X82873958Y-89295323D01*
X82873957Y-89295322D01*
X82794233Y-89051764D01*
X82794232Y-89051761D01*
X82763556Y-88797334D01*
X82764321Y-88787333D01*
X82783105Y-88541806D01*
X82849333Y-88305002D01*
X82852130Y-88295001D01*
X82918725Y-88163594D01*
X82938950Y-88123685D01*
X84216545Y-86118262D01*
X84335119Y-85967175D01*
X84467395Y-85853701D01*
X84529630Y-85800312D01*
X84752948Y-85674606D01*
X84752954Y-85674604D01*
X84996511Y-85594880D01*
X84996512Y-85594880D01*
X84996515Y-85594879D01*
X85250941Y-85564203D01*
X85250943Y-85564203D01*
X85381647Y-85574203D01*
G37*
G36*
X104371647Y-85564203D02*
G01*
X104496471Y-85573753D01*
X104536253Y-85584879D01*
X104743275Y-85642777D01*
X104971870Y-85758625D01*
X104971872Y-85758626D01*
X104971873Y-85758627D01*
X105103215Y-85861705D01*
X105173472Y-85916843D01*
X105340334Y-86111353D01*
X105466043Y-86334678D01*
X105544358Y-86573931D01*
X105545768Y-86578239D01*
X105568143Y-86763816D01*
X105576444Y-86832667D01*
X105556895Y-87088195D01*
X105512677Y-87246299D01*
X105487870Y-87335000D01*
X105449559Y-87410596D01*
X105401050Y-87506316D01*
X104123454Y-89511738D01*
X104102333Y-89538650D01*
X104004880Y-89662826D01*
X103810373Y-89829686D01*
X103673755Y-89906587D01*
X103587045Y-89955396D01*
X103349834Y-90033042D01*
X103343484Y-90035121D01*
X103089057Y-90065797D01*
X103089056Y-90065797D01*
X102833529Y-90046248D01*
X102586725Y-89977223D01*
X102586724Y-89977223D01*
X102586722Y-89977222D01*
X102358135Y-89861378D01*
X102358133Y-89861377D01*
X102358130Y-89861375D01*
X102156528Y-89703157D01*
X102156524Y-89703154D01*
X101989667Y-89508650D01*
X101912766Y-89372032D01*
X101863957Y-89285322D01*
X101784233Y-89041764D01*
X101784232Y-89041761D01*
X101753556Y-88787334D01*
X101753556Y-88787333D01*
X101773105Y-88531806D01*
X101839333Y-88295002D01*
X101842130Y-88285001D01*
X101903657Y-88163594D01*
X101928950Y-88113685D01*
X103206545Y-86108262D01*
X103325119Y-85957175D01*
X103457395Y-85843701D01*
X103519630Y-85790312D01*
X103742948Y-85664606D01*
X103742954Y-85664604D01*
X103986511Y-85584880D01*
X103986512Y-85584880D01*
X103986515Y-85584879D01*
X104240941Y-85554203D01*
X104240943Y-85554203D01*
X104371647Y-85564203D01*
G37*
G36*
X123381647Y-85564203D02*
G01*
X123506471Y-85573753D01*
X123546253Y-85584879D01*
X123753275Y-85642777D01*
X123981870Y-85758625D01*
X123981872Y-85758626D01*
X123981873Y-85758627D01*
X124113215Y-85861705D01*
X124183472Y-85916843D01*
X124350334Y-86111353D01*
X124476043Y-86334678D01*
X124554358Y-86573931D01*
X124555768Y-86578239D01*
X124578143Y-86763816D01*
X124586444Y-86832667D01*
X124566895Y-87088195D01*
X124522677Y-87246299D01*
X124497870Y-87335000D01*
X124459559Y-87410596D01*
X124411050Y-87506316D01*
X123133454Y-89511738D01*
X123112333Y-89538650D01*
X123014880Y-89662826D01*
X122820373Y-89829686D01*
X122683755Y-89906587D01*
X122597045Y-89955396D01*
X122359834Y-90033042D01*
X122353484Y-90035121D01*
X122099057Y-90065797D01*
X122099056Y-90065797D01*
X121843529Y-90046248D01*
X121596725Y-89977223D01*
X121596724Y-89977223D01*
X121596722Y-89977222D01*
X121368135Y-89861378D01*
X121368133Y-89861377D01*
X121368130Y-89861375D01*
X121166528Y-89703157D01*
X121166524Y-89703154D01*
X120999667Y-89508650D01*
X120922766Y-89372032D01*
X120873957Y-89285322D01*
X120794233Y-89041764D01*
X120794232Y-89041761D01*
X120763556Y-88787334D01*
X120763556Y-88787333D01*
X120783105Y-88531806D01*
X120849333Y-88295002D01*
X120852130Y-88285001D01*
X120913657Y-88163594D01*
X120938950Y-88113685D01*
X122216545Y-86108262D01*
X122335119Y-85957175D01*
X122467395Y-85843701D01*
X122529630Y-85790312D01*
X122752948Y-85664606D01*
X122752954Y-85664604D01*
X122996511Y-85584880D01*
X122996512Y-85584880D01*
X122996515Y-85584879D01*
X123250941Y-85554203D01*
X123250943Y-85554203D01*
X123381647Y-85564203D01*
G37*
G36*
X71791379Y-85018813D02*
G01*
X72030991Y-85109713D01*
X72200302Y-85215613D01*
X72248265Y-85245613D01*
X72434852Y-85421288D01*
X72543503Y-85573753D01*
X72583580Y-85629990D01*
X72688735Y-85863697D01*
X72688736Y-85863701D01*
X72746276Y-86113428D01*
X72752058Y-86305394D01*
X72748698Y-86354678D01*
X72703916Y-87011571D01*
X72672135Y-87200983D01*
X72581235Y-87440595D01*
X72464099Y-87627869D01*
X72445335Y-87657869D01*
X72269660Y-87844456D01*
X72113398Y-87955813D01*
X72060958Y-87993184D01*
X71827251Y-88098339D01*
X71827247Y-88098340D01*
X71577521Y-88155880D01*
X71321366Y-88163594D01*
X71321362Y-88163594D01*
X71068621Y-88121187D01*
X70829009Y-88030287D01*
X70611735Y-87894387D01*
X70558703Y-87844456D01*
X70425148Y-87718712D01*
X70295166Y-87536315D01*
X70276420Y-87510010D01*
X70171265Y-87276303D01*
X70158864Y-87222481D01*
X70113724Y-87026572D01*
X70107942Y-86834608D01*
X70156084Y-86128428D01*
X70161957Y-86093428D01*
X70187865Y-85939017D01*
X70278765Y-85699405D01*
X70414665Y-85482131D01*
X70424080Y-85472131D01*
X70590340Y-85295544D01*
X70746602Y-85184187D01*
X70799042Y-85146816D01*
X71032749Y-85041661D01*
X71032753Y-85041660D01*
X71282479Y-84984120D01*
X71538634Y-84976406D01*
X71538638Y-84976406D01*
X71791379Y-85018813D01*
G37*
G36*
X147821379Y-85008813D02*
G01*
X148060991Y-85099713D01*
X148136298Y-85146816D01*
X148278265Y-85235613D01*
X148464852Y-85411288D01*
X148573824Y-85564203D01*
X148613580Y-85619990D01*
X148718735Y-85853697D01*
X148718736Y-85853701D01*
X148776276Y-86103428D01*
X148782058Y-86295394D01*
X148765455Y-86538928D01*
X148733916Y-87001571D01*
X148702135Y-87190983D01*
X148611235Y-87430595D01*
X148545109Y-87536316D01*
X148475335Y-87647869D01*
X148299660Y-87834456D01*
X148143398Y-87945813D01*
X148090958Y-87983184D01*
X147857251Y-88088339D01*
X147857247Y-88088340D01*
X147607521Y-88145880D01*
X147351366Y-88153594D01*
X147351362Y-88153594D01*
X147098621Y-88111187D01*
X146859009Y-88020287D01*
X146641735Y-87884387D01*
X146588703Y-87834456D01*
X146455148Y-87708712D01*
X146332293Y-87536316D01*
X146306420Y-87500010D01*
X146201265Y-87266303D01*
X146191168Y-87222480D01*
X146143724Y-87016572D01*
X146137942Y-86824608D01*
X146186084Y-86118428D01*
X146191957Y-86083428D01*
X146217865Y-85929017D01*
X146308765Y-85689405D01*
X146444665Y-85472131D01*
X146454080Y-85462131D01*
X146620340Y-85285544D01*
X146815010Y-85146816D01*
X146829042Y-85136816D01*
X147062749Y-85031661D01*
X147062753Y-85031660D01*
X147312479Y-84974120D01*
X147568634Y-84966406D01*
X147568638Y-84966406D01*
X147821379Y-85008813D01*
G37*
G36*
X52831379Y-85008813D02*
G01*
X53070991Y-85099713D01*
X53146298Y-85146816D01*
X53288265Y-85235613D01*
X53474852Y-85411288D01*
X53583824Y-85564203D01*
X53623580Y-85619990D01*
X53728735Y-85853697D01*
X53728736Y-85853701D01*
X53786276Y-86103428D01*
X53792058Y-86295394D01*
X53775455Y-86538928D01*
X53743916Y-87001571D01*
X53712135Y-87190983D01*
X53621235Y-87430595D01*
X53555109Y-87536316D01*
X53485335Y-87647869D01*
X53309660Y-87834456D01*
X53153398Y-87945813D01*
X53100958Y-87983184D01*
X52867251Y-88088339D01*
X52867247Y-88088340D01*
X52617521Y-88145880D01*
X52361366Y-88153594D01*
X52361362Y-88153594D01*
X52108621Y-88111187D01*
X51869009Y-88020287D01*
X51651735Y-87884387D01*
X51598703Y-87834456D01*
X51465148Y-87708712D01*
X51342293Y-87536316D01*
X51316420Y-87500010D01*
X51211265Y-87266303D01*
X51201168Y-87222480D01*
X51153724Y-87016572D01*
X51147942Y-86824608D01*
X51196084Y-86118428D01*
X51201957Y-86083428D01*
X51227865Y-85929017D01*
X51318765Y-85689405D01*
X51454665Y-85472131D01*
X51464080Y-85462131D01*
X51630340Y-85285544D01*
X51825010Y-85146816D01*
X51839042Y-85136816D01*
X52072749Y-85031661D01*
X52072753Y-85031660D01*
X52322479Y-84974120D01*
X52578634Y-84966406D01*
X52578638Y-84966406D01*
X52831379Y-85008813D01*
G37*
G36*
X169191379Y-85008813D02*
G01*
X169430991Y-85099713D01*
X169506298Y-85146816D01*
X169648265Y-85235613D01*
X169834852Y-85411288D01*
X169943824Y-85564203D01*
X169983580Y-85619990D01*
X170088735Y-85853697D01*
X170088736Y-85853701D01*
X170146276Y-86103428D01*
X170152058Y-86295394D01*
X170135455Y-86538928D01*
X170103916Y-87001571D01*
X170072135Y-87190983D01*
X169981235Y-87430595D01*
X169915109Y-87536316D01*
X169845335Y-87647869D01*
X169669660Y-87834456D01*
X169513398Y-87945813D01*
X169460958Y-87983184D01*
X169227251Y-88088339D01*
X169227247Y-88088340D01*
X168977521Y-88145880D01*
X168721366Y-88153594D01*
X168721362Y-88153594D01*
X168468621Y-88111187D01*
X168229009Y-88020287D01*
X168011735Y-87884387D01*
X167958703Y-87834456D01*
X167825148Y-87708712D01*
X167702293Y-87536316D01*
X167676420Y-87500010D01*
X167571265Y-87266303D01*
X167561168Y-87222480D01*
X167513724Y-87016572D01*
X167507942Y-86824608D01*
X167556084Y-86118428D01*
X167561957Y-86083428D01*
X167587865Y-85929017D01*
X167678765Y-85689405D01*
X167814665Y-85472131D01*
X167824080Y-85462131D01*
X167990340Y-85285544D01*
X168185010Y-85146816D01*
X168199042Y-85136816D01*
X168432749Y-85031661D01*
X168432753Y-85031660D01*
X168682479Y-84974120D01*
X168938634Y-84966406D01*
X168938638Y-84966406D01*
X169191379Y-85008813D01*
G37*
G36*
X90811379Y-84998813D02*
G01*
X91050991Y-85089713D01*
X91126298Y-85136816D01*
X91268265Y-85225613D01*
X91454852Y-85401288D01*
X91563824Y-85554203D01*
X91603580Y-85609990D01*
X91708735Y-85843697D01*
X91708736Y-85843701D01*
X91766276Y-86093428D01*
X91772058Y-86285394D01*
X91766653Y-86364678D01*
X91723916Y-86991571D01*
X91692135Y-87180983D01*
X91601235Y-87420595D01*
X91535109Y-87526316D01*
X91465335Y-87637869D01*
X91289660Y-87824456D01*
X91133398Y-87935813D01*
X91080958Y-87973184D01*
X90847251Y-88078339D01*
X90847247Y-88078340D01*
X90597521Y-88135880D01*
X90341366Y-88143594D01*
X90341362Y-88143594D01*
X90088621Y-88101187D01*
X89849009Y-88010287D01*
X89631735Y-87874387D01*
X89578703Y-87824456D01*
X89445148Y-87698712D01*
X89322293Y-87526316D01*
X89296420Y-87490010D01*
X89191265Y-87256303D01*
X89178519Y-87200983D01*
X89133724Y-87006572D01*
X89127942Y-86814608D01*
X89176084Y-86108428D01*
X89191092Y-86018985D01*
X89207865Y-85919017D01*
X89298765Y-85679405D01*
X89434665Y-85462131D01*
X89444080Y-85452131D01*
X89610340Y-85275544D01*
X89790975Y-85146818D01*
X89819042Y-85126816D01*
X90052749Y-85021661D01*
X90065105Y-85018814D01*
X90302479Y-84964120D01*
X90558634Y-84956406D01*
X90558638Y-84956406D01*
X90811379Y-84998813D01*
G37*
G36*
X219081379Y-84998813D02*
G01*
X219320991Y-85089713D01*
X219396298Y-85136816D01*
X219538265Y-85225613D01*
X219724852Y-85401288D01*
X219833824Y-85554203D01*
X219873580Y-85609990D01*
X219978735Y-85843697D01*
X219978736Y-85843701D01*
X220036276Y-86093428D01*
X220042058Y-86285394D01*
X220036653Y-86364678D01*
X219993916Y-86991571D01*
X219962135Y-87180983D01*
X219871235Y-87420595D01*
X219805109Y-87526316D01*
X219735335Y-87637869D01*
X219559660Y-87824456D01*
X219403398Y-87935813D01*
X219350958Y-87973184D01*
X219117251Y-88078339D01*
X219117247Y-88078340D01*
X218867521Y-88135880D01*
X218611366Y-88143594D01*
X218611362Y-88143594D01*
X218358621Y-88101187D01*
X218119009Y-88010287D01*
X217901735Y-87874387D01*
X217848703Y-87824456D01*
X217715148Y-87698712D01*
X217592293Y-87526316D01*
X217566420Y-87490010D01*
X217461265Y-87256303D01*
X217448519Y-87200983D01*
X217403724Y-87006572D01*
X217397942Y-86814608D01*
X217446084Y-86108428D01*
X217461092Y-86018985D01*
X217477865Y-85919017D01*
X217568765Y-85679405D01*
X217704665Y-85462131D01*
X217714080Y-85452131D01*
X217880340Y-85275544D01*
X218060975Y-85146818D01*
X218089042Y-85126816D01*
X218322749Y-85021661D01*
X218335105Y-85018814D01*
X218572479Y-84964120D01*
X218828634Y-84956406D01*
X218828638Y-84956406D01*
X219081379Y-84998813D01*
G37*
G36*
X109801379Y-84988813D02*
G01*
X110040991Y-85079713D01*
X110116298Y-85126816D01*
X110258265Y-85215613D01*
X110444852Y-85391288D01*
X110509589Y-85482131D01*
X110593580Y-85599990D01*
X110698735Y-85833697D01*
X110698736Y-85833701D01*
X110756276Y-86083428D01*
X110762058Y-86275394D01*
X110756653Y-86354678D01*
X110713916Y-86981571D01*
X110682135Y-87170983D01*
X110591235Y-87410595D01*
X110525109Y-87516316D01*
X110455335Y-87627869D01*
X110279660Y-87814456D01*
X110123398Y-87925813D01*
X110070958Y-87963184D01*
X109837251Y-88068339D01*
X109837247Y-88068340D01*
X109587521Y-88125880D01*
X109331366Y-88133594D01*
X109331362Y-88133594D01*
X109078621Y-88091187D01*
X108839009Y-88000287D01*
X108621735Y-87864387D01*
X108568703Y-87814456D01*
X108435148Y-87688712D01*
X108312293Y-87516316D01*
X108286420Y-87480010D01*
X108181265Y-87246303D01*
X108168519Y-87190983D01*
X108123724Y-86996572D01*
X108117942Y-86804608D01*
X108166084Y-86098428D01*
X108179414Y-86018985D01*
X108197865Y-85909017D01*
X108288765Y-85669405D01*
X108424665Y-85452131D01*
X108600340Y-85265544D01*
X108780975Y-85136818D01*
X108809042Y-85116816D01*
X109042749Y-85011661D01*
X109055105Y-85008814D01*
X109292479Y-84954120D01*
X109548634Y-84946406D01*
X109548638Y-84946406D01*
X109801379Y-84988813D01*
G37*
G36*
X128811379Y-84988813D02*
G01*
X129050991Y-85079713D01*
X129126298Y-85126816D01*
X129268265Y-85215613D01*
X129454852Y-85391288D01*
X129519589Y-85482131D01*
X129603580Y-85599990D01*
X129708735Y-85833697D01*
X129708736Y-85833701D01*
X129766276Y-86083428D01*
X129772058Y-86275394D01*
X129766653Y-86354678D01*
X129723916Y-86981571D01*
X129692135Y-87170983D01*
X129601235Y-87410595D01*
X129535109Y-87516316D01*
X129465335Y-87627869D01*
X129289660Y-87814456D01*
X129133398Y-87925813D01*
X129080958Y-87963184D01*
X128847251Y-88068339D01*
X128847247Y-88068340D01*
X128597521Y-88125880D01*
X128341366Y-88133594D01*
X128341362Y-88133594D01*
X128088621Y-88091187D01*
X127849009Y-88000287D01*
X127631735Y-87864387D01*
X127578703Y-87814456D01*
X127445148Y-87688712D01*
X127322293Y-87516316D01*
X127296420Y-87480010D01*
X127191265Y-87246303D01*
X127178519Y-87190983D01*
X127133724Y-86996572D01*
X127127942Y-86804608D01*
X127176084Y-86098428D01*
X127189414Y-86018985D01*
X127207865Y-85909017D01*
X127298765Y-85669405D01*
X127434665Y-85452131D01*
X127610340Y-85265544D01*
X127790975Y-85136818D01*
X127819042Y-85116816D01*
X128052749Y-85011661D01*
X128065105Y-85008814D01*
X128302479Y-84954120D01*
X128558634Y-84946406D01*
X128558638Y-84946406D01*
X128811379Y-84988813D01*
G37*
G36*
X196718228Y-85861703D02*
G01*
X196873100Y-85925853D01*
X197012481Y-86018985D01*
X197131015Y-86137519D01*
X197224147Y-86276900D01*
X197288297Y-86431772D01*
X197321000Y-86596184D01*
X197321000Y-86763816D01*
X197288297Y-86928228D01*
X197224147Y-87083100D01*
X197131015Y-87222481D01*
X197012481Y-87341015D01*
X196873100Y-87434147D01*
X196718228Y-87498297D01*
X196553816Y-87531000D01*
X196386184Y-87531000D01*
X196221772Y-87498297D01*
X196066900Y-87434147D01*
X195927519Y-87341015D01*
X195808985Y-87222481D01*
X195715853Y-87083100D01*
X195651703Y-86928228D01*
X195619000Y-86763816D01*
X195619000Y-86596184D01*
X195651703Y-86431772D01*
X195715853Y-86276900D01*
X195808985Y-86137519D01*
X195927519Y-86018985D01*
X196066900Y-85925853D01*
X196221772Y-85861703D01*
X196386184Y-85829000D01*
X196553816Y-85829000D01*
X196718228Y-85861703D01*
G37*
G36*
X189521000Y-87531000D02*
G01*
X187819000Y-87531000D01*
X187819000Y-85829000D01*
X189521000Y-85829000D01*
X189521000Y-87531000D01*
G37*
G36*
X65871000Y-82811000D02*
G01*
X64169000Y-82811000D01*
X64169000Y-81109000D01*
X65871000Y-81109000D01*
X65871000Y-82811000D01*
G37*
G36*
X73068228Y-81141703D02*
G01*
X73223100Y-81205853D01*
X73362481Y-81298985D01*
X73481015Y-81417519D01*
X73574147Y-81556900D01*
X73638297Y-81711772D01*
X73671000Y-81876184D01*
X73671000Y-82043816D01*
X73638297Y-82208228D01*
X73574147Y-82363100D01*
X73481015Y-82502481D01*
X73362481Y-82621015D01*
X73223100Y-82714147D01*
X73068228Y-82778297D01*
X72903816Y-82811000D01*
X72736184Y-82811000D01*
X72571772Y-82778297D01*
X72416900Y-82714147D01*
X72277519Y-82621015D01*
X72158985Y-82502481D01*
X72065853Y-82363100D01*
X72001703Y-82208228D01*
X71969000Y-82043816D01*
X71969000Y-81876184D01*
X72001703Y-81711772D01*
X72065853Y-81556900D01*
X72158985Y-81417519D01*
X72277519Y-81298985D01*
X72416900Y-81205853D01*
X72571772Y-81141703D01*
X72736184Y-81109000D01*
X72903816Y-81109000D01*
X73068228Y-81141703D01*
G37*
G36*
X46831000Y-82791000D02*
G01*
X45129000Y-82791000D01*
X45129000Y-81089000D01*
X46831000Y-81089000D01*
X46831000Y-82791000D01*
G37*
G36*
X54028228Y-81121703D02*
G01*
X54183100Y-81185853D01*
X54322481Y-81278985D01*
X54441015Y-81397519D01*
X54534147Y-81536900D01*
X54598297Y-81691772D01*
X54631000Y-81856184D01*
X54631000Y-82023816D01*
X54598297Y-82188228D01*
X54534147Y-82343100D01*
X54441015Y-82482481D01*
X54322481Y-82601015D01*
X54183100Y-82694147D01*
X54028228Y-82758297D01*
X53863816Y-82791000D01*
X53696184Y-82791000D01*
X53531772Y-82758297D01*
X53376900Y-82694147D01*
X53237519Y-82601015D01*
X53118985Y-82482481D01*
X53025853Y-82343100D01*
X52961703Y-82188228D01*
X52929000Y-82023816D01*
X52929000Y-81856184D01*
X52961703Y-81691772D01*
X53025853Y-81536900D01*
X53118985Y-81397519D01*
X53237519Y-81278985D01*
X53376900Y-81185853D01*
X53531772Y-81121703D01*
X53696184Y-81089000D01*
X53863816Y-81089000D01*
X54028228Y-81121703D01*
G37*
G36*
X84801000Y-82781000D02*
G01*
X83099000Y-82781000D01*
X83099000Y-81079000D01*
X84801000Y-81079000D01*
X84801000Y-82781000D01*
G37*
G36*
X91998228Y-81111703D02*
G01*
X92153100Y-81175853D01*
X92292481Y-81268985D01*
X92411015Y-81387519D01*
X92504147Y-81526900D01*
X92568297Y-81681772D01*
X92601000Y-81846184D01*
X92601000Y-82013816D01*
X92568297Y-82178228D01*
X92504147Y-82333100D01*
X92411015Y-82472481D01*
X92292481Y-82591015D01*
X92153100Y-82684147D01*
X91998228Y-82748297D01*
X91833816Y-82781000D01*
X91666184Y-82781000D01*
X91501772Y-82748297D01*
X91346900Y-82684147D01*
X91207519Y-82591015D01*
X91088985Y-82472481D01*
X90995853Y-82333100D01*
X90931703Y-82178228D01*
X90899000Y-82013816D01*
X90899000Y-81846184D01*
X90931703Y-81681772D01*
X90995853Y-81526900D01*
X91088985Y-81387519D01*
X91207519Y-81268985D01*
X91346900Y-81175853D01*
X91501772Y-81111703D01*
X91666184Y-81079000D01*
X91833816Y-81079000D01*
X91998228Y-81111703D01*
G37*
G36*
X122791000Y-82781000D02*
G01*
X121089000Y-82781000D01*
X121089000Y-81079000D01*
X122791000Y-81079000D01*
X122791000Y-82781000D01*
G37*
G36*
X129988228Y-81111703D02*
G01*
X130143100Y-81175853D01*
X130282481Y-81268985D01*
X130401015Y-81387519D01*
X130494147Y-81526900D01*
X130558297Y-81681772D01*
X130591000Y-81846184D01*
X130591000Y-82013816D01*
X130558297Y-82178228D01*
X130494147Y-82333100D01*
X130401015Y-82472481D01*
X130282481Y-82591015D01*
X130143100Y-82684147D01*
X129988228Y-82748297D01*
X129823816Y-82781000D01*
X129656184Y-82781000D01*
X129491772Y-82748297D01*
X129336900Y-82684147D01*
X129197519Y-82591015D01*
X129078985Y-82472481D01*
X128985853Y-82333100D01*
X128921703Y-82178228D01*
X128889000Y-82013816D01*
X128889000Y-81846184D01*
X128921703Y-81681772D01*
X128985853Y-81526900D01*
X129078985Y-81387519D01*
X129197519Y-81268985D01*
X129336900Y-81175853D01*
X129491772Y-81111703D01*
X129656184Y-81079000D01*
X129823816Y-81079000D01*
X129988228Y-81111703D01*
G37*
G36*
X163211000Y-82781000D02*
G01*
X161509000Y-82781000D01*
X161509000Y-81079000D01*
X163211000Y-81079000D01*
X163211000Y-82781000D01*
G37*
G36*
X170408228Y-81111703D02*
G01*
X170563100Y-81175853D01*
X170702481Y-81268985D01*
X170821015Y-81387519D01*
X170914147Y-81526900D01*
X170978297Y-81681772D01*
X171011000Y-81846184D01*
X171011000Y-82013816D01*
X170978297Y-82178228D01*
X170914147Y-82333100D01*
X170821015Y-82472481D01*
X170702481Y-82591015D01*
X170563100Y-82684147D01*
X170408228Y-82748297D01*
X170243816Y-82781000D01*
X170076184Y-82781000D01*
X169911772Y-82748297D01*
X169756900Y-82684147D01*
X169617519Y-82591015D01*
X169498985Y-82472481D01*
X169405853Y-82333100D01*
X169341703Y-82178228D01*
X169309000Y-82013816D01*
X169309000Y-81846184D01*
X169341703Y-81681772D01*
X169405853Y-81526900D01*
X169498985Y-81387519D01*
X169617519Y-81268985D01*
X169756900Y-81175853D01*
X169911772Y-81111703D01*
X170076184Y-81079000D01*
X170243816Y-81079000D01*
X170408228Y-81111703D01*
G37*
G36*
X220228228Y-81091703D02*
G01*
X220383100Y-81155853D01*
X220522481Y-81248985D01*
X220641015Y-81367519D01*
X220734147Y-81506900D01*
X220798297Y-81661772D01*
X220831000Y-81826184D01*
X220831000Y-81993816D01*
X220798297Y-82158228D01*
X220734147Y-82313100D01*
X220641015Y-82452481D01*
X220522481Y-82571015D01*
X220383100Y-82664147D01*
X220228228Y-82728297D01*
X220063816Y-82761000D01*
X219896184Y-82761000D01*
X219731772Y-82728297D01*
X219576900Y-82664147D01*
X219437519Y-82571015D01*
X219318985Y-82452481D01*
X219225853Y-82313100D01*
X219161703Y-82158228D01*
X219129000Y-81993816D01*
X219129000Y-81826184D01*
X219161703Y-81661772D01*
X219225853Y-81506900D01*
X219318985Y-81367519D01*
X219437519Y-81248985D01*
X219576900Y-81155853D01*
X219731772Y-81091703D01*
X219896184Y-81059000D01*
X220063816Y-81059000D01*
X220228228Y-81091703D01*
G37*
G36*
X149068228Y-81091703D02*
G01*
X149223100Y-81155853D01*
X149362481Y-81248985D01*
X149481015Y-81367519D01*
X149574147Y-81506900D01*
X149638297Y-81661772D01*
X149671000Y-81826184D01*
X149671000Y-81993816D01*
X149638297Y-82158228D01*
X149574147Y-82313100D01*
X149481015Y-82452481D01*
X149362481Y-82571015D01*
X149223100Y-82664147D01*
X149068228Y-82728297D01*
X148903816Y-82761000D01*
X148736184Y-82761000D01*
X148571772Y-82728297D01*
X148416900Y-82664147D01*
X148277519Y-82571015D01*
X148158985Y-82452481D01*
X148065853Y-82313100D01*
X148001703Y-82158228D01*
X147969000Y-81993816D01*
X147969000Y-81826184D01*
X148001703Y-81661772D01*
X148065853Y-81506900D01*
X148158985Y-81367519D01*
X148277519Y-81248985D01*
X148416900Y-81155853D01*
X148571772Y-81091703D01*
X148736184Y-81059000D01*
X148903816Y-81059000D01*
X149068228Y-81091703D01*
G37*
G36*
X213031000Y-82761000D02*
G01*
X211329000Y-82761000D01*
X211329000Y-81059000D01*
X213031000Y-81059000D01*
X213031000Y-82761000D01*
G37*
G36*
X141871000Y-82761000D02*
G01*
X140169000Y-82761000D01*
X140169000Y-81059000D01*
X141871000Y-81059000D01*
X141871000Y-82761000D01*
G37*
G36*
X103831000Y-82731000D02*
G01*
X102129000Y-82731000D01*
X102129000Y-81029000D01*
X103831000Y-81029000D01*
X103831000Y-82731000D01*
G37*
G36*
X111028228Y-81061703D02*
G01*
X111183100Y-81125853D01*
X111322481Y-81218985D01*
X111441015Y-81337519D01*
X111534147Y-81476900D01*
X111598297Y-81631772D01*
X111631000Y-81796184D01*
X111631000Y-81963816D01*
X111598297Y-82128228D01*
X111534147Y-82283100D01*
X111441015Y-82422481D01*
X111322481Y-82541015D01*
X111183100Y-82634147D01*
X111028228Y-82698297D01*
X110863816Y-82731000D01*
X110696184Y-82731000D01*
X110531772Y-82698297D01*
X110376900Y-82634147D01*
X110237519Y-82541015D01*
X110118985Y-82422481D01*
X110025853Y-82283100D01*
X109961703Y-82128228D01*
X109929000Y-81963816D01*
X109929000Y-81796184D01*
X109961703Y-81631772D01*
X110025853Y-81476900D01*
X110118985Y-81337519D01*
X110237519Y-81218985D01*
X110376900Y-81125853D01*
X110531772Y-81061703D01*
X110696184Y-81029000D01*
X110863816Y-81029000D01*
X111028228Y-81061703D01*
G37*
G36*
X167967536Y-70312827D02*
G01*
X168102839Y-70339740D01*
X168373206Y-70451730D01*
X168469800Y-70491740D01*
X168485197Y-70498118D01*
X168530891Y-70528650D01*
X168829309Y-70728046D01*
X169121954Y-71020691D01*
X169165456Y-71085797D01*
X169351882Y-71364803D01*
X169510260Y-71747161D01*
X169591000Y-72153070D01*
X169591000Y-72566930D01*
X169510260Y-72972839D01*
X169351882Y-73355197D01*
X169121953Y-73699310D01*
X168829310Y-73991953D01*
X168485197Y-74221882D01*
X168102839Y-74380260D01*
X167967536Y-74407173D01*
X167696932Y-74461000D01*
X167283068Y-74461000D01*
X167012464Y-74407173D01*
X166877161Y-74380260D01*
X166494803Y-74221882D01*
X166150690Y-73991953D01*
X165858047Y-73699310D01*
X165628118Y-73355197D01*
X165469740Y-72972839D01*
X165389000Y-72566930D01*
X165389000Y-72153070D01*
X165469740Y-71747161D01*
X165628118Y-71364803D01*
X165814544Y-71085797D01*
X165858046Y-71020691D01*
X166150691Y-70728046D01*
X166449109Y-70528650D01*
X166494803Y-70498118D01*
X166510201Y-70491740D01*
X166606794Y-70451730D01*
X166877161Y-70339740D01*
X167012464Y-70312827D01*
X167283068Y-70259000D01*
X167696932Y-70259000D01*
X167967536Y-70312827D01*
G37*
G36*
X56860483Y-66584879D02*
G01*
X56976471Y-66593753D01*
X57016253Y-66604879D01*
X57223275Y-66662777D01*
X57451870Y-66778625D01*
X57653472Y-66936843D01*
X57820334Y-67131353D01*
X57946043Y-67354678D01*
X58012674Y-67558236D01*
X58025768Y-67598239D01*
X58054033Y-67832667D01*
X58056444Y-67852667D01*
X58036895Y-68108195D01*
X57995474Y-68256299D01*
X57967870Y-68355000D01*
X57929559Y-68430596D01*
X57881050Y-68526316D01*
X56603454Y-70531738D01*
X56603452Y-70531740D01*
X56484880Y-70682826D01*
X56290373Y-70849686D01*
X56153755Y-70926587D01*
X56067045Y-70975396D01*
X55915137Y-71025120D01*
X55823484Y-71055121D01*
X55569057Y-71085797D01*
X55569056Y-71085797D01*
X55313529Y-71066248D01*
X55066725Y-70997223D01*
X55066724Y-70997223D01*
X55066722Y-70997222D01*
X54838135Y-70881378D01*
X54838133Y-70881377D01*
X54838130Y-70881375D01*
X54642759Y-70728047D01*
X54636524Y-70723154D01*
X54469667Y-70528650D01*
X54343958Y-70305323D01*
X54343957Y-70305322D01*
X54264233Y-70061764D01*
X54264232Y-70061761D01*
X54233556Y-69807334D01*
X54236616Y-69767333D01*
X54253105Y-69551806D01*
X54322130Y-69305002D01*
X54322130Y-69305001D01*
X54402770Y-69145880D01*
X54408950Y-69133685D01*
X55686545Y-67128262D01*
X55805119Y-66977175D01*
X55896227Y-66899017D01*
X55999630Y-66810312D01*
X56222948Y-66684606D01*
X56284054Y-66664604D01*
X56466511Y-66604880D01*
X56466512Y-66604880D01*
X56466515Y-66604879D01*
X56720941Y-66574203D01*
X56720943Y-66574203D01*
X56860483Y-66584879D01*
G37*
G36*
X37871647Y-66574203D02*
G01*
X37996471Y-66583753D01*
X38036253Y-66594879D01*
X38243275Y-66652777D01*
X38471870Y-66768625D01*
X38673472Y-66926843D01*
X38840334Y-67121353D01*
X38966043Y-67344678D01*
X39035947Y-67558236D01*
X39045768Y-67588239D01*
X39074033Y-67822667D01*
X39076444Y-67842667D01*
X39056895Y-68098195D01*
X39015474Y-68246299D01*
X38987870Y-68345000D01*
X38949559Y-68420596D01*
X38901050Y-68516316D01*
X37623454Y-70521738D01*
X37618029Y-70528650D01*
X37504880Y-70672826D01*
X37310373Y-70839686D01*
X37173755Y-70916587D01*
X37087045Y-70965396D01*
X36904587Y-71025120D01*
X36843484Y-71045121D01*
X36589057Y-71075797D01*
X36589056Y-71075797D01*
X36333529Y-71056248D01*
X36086725Y-70987223D01*
X36086724Y-70987223D01*
X36086722Y-70987222D01*
X35858135Y-70871378D01*
X35858133Y-70871377D01*
X35858130Y-70871375D01*
X35656528Y-70713157D01*
X35656524Y-70713154D01*
X35489667Y-70518650D01*
X35363958Y-70295323D01*
X35363957Y-70295322D01*
X35284233Y-70051764D01*
X35284232Y-70051761D01*
X35253556Y-69797334D01*
X35255851Y-69767333D01*
X35273105Y-69541806D01*
X35339333Y-69305002D01*
X35342130Y-69295001D01*
X35423882Y-69133686D01*
X35428950Y-69123685D01*
X36706545Y-67118262D01*
X36825119Y-66967175D01*
X36957395Y-66853701D01*
X37019630Y-66800312D01*
X37242948Y-66674606D01*
X37273504Y-66664604D01*
X37486511Y-66594880D01*
X37486512Y-66594880D01*
X37486515Y-66594879D01*
X37740941Y-66564203D01*
X37740943Y-66564203D01*
X37871647Y-66574203D01*
G37*
G36*
X132891647Y-66574203D02*
G01*
X133016471Y-66583753D01*
X133056253Y-66594879D01*
X133263275Y-66652777D01*
X133491870Y-66768625D01*
X133693472Y-66926843D01*
X133860334Y-67121353D01*
X133986043Y-67344678D01*
X134055947Y-67558236D01*
X134065768Y-67588239D01*
X134094033Y-67822667D01*
X134096444Y-67842667D01*
X134076895Y-68098195D01*
X134035474Y-68246299D01*
X134007870Y-68345000D01*
X133969559Y-68420596D01*
X133921050Y-68516316D01*
X132643454Y-70521738D01*
X132638029Y-70528650D01*
X132524880Y-70672826D01*
X132330373Y-70839686D01*
X132193755Y-70916587D01*
X132107045Y-70965396D01*
X131924587Y-71025120D01*
X131863484Y-71045121D01*
X131609057Y-71075797D01*
X131609056Y-71075797D01*
X131353529Y-71056248D01*
X131106725Y-70987223D01*
X131106724Y-70987223D01*
X131106722Y-70987222D01*
X130878135Y-70871378D01*
X130878133Y-70871377D01*
X130878130Y-70871375D01*
X130676528Y-70713157D01*
X130676524Y-70713154D01*
X130509667Y-70518650D01*
X130383958Y-70295323D01*
X130383957Y-70295322D01*
X130304233Y-70051764D01*
X130304232Y-70051761D01*
X130273556Y-69797334D01*
X130275851Y-69767333D01*
X130293105Y-69541806D01*
X130359333Y-69305002D01*
X130362130Y-69295001D01*
X130443882Y-69133686D01*
X130448950Y-69123685D01*
X131726545Y-67118262D01*
X131845119Y-66967175D01*
X131977395Y-66853701D01*
X132039630Y-66800312D01*
X132262948Y-66674606D01*
X132293504Y-66664604D01*
X132506511Y-66594880D01*
X132506512Y-66594880D01*
X132506515Y-66594879D01*
X132760941Y-66564203D01*
X132760943Y-66564203D01*
X132891647Y-66574203D01*
G37*
G36*
X113881647Y-66574203D02*
G01*
X114006471Y-66583753D01*
X114046253Y-66594879D01*
X114253275Y-66652777D01*
X114481870Y-66768625D01*
X114683472Y-66926843D01*
X114850334Y-67121353D01*
X114976043Y-67344678D01*
X115045947Y-67558236D01*
X115055768Y-67588239D01*
X115084033Y-67822667D01*
X115086444Y-67842667D01*
X115066895Y-68098195D01*
X115025474Y-68246299D01*
X114997870Y-68345000D01*
X114959559Y-68420596D01*
X114911050Y-68516316D01*
X113633454Y-70521738D01*
X113628029Y-70528650D01*
X113514880Y-70672826D01*
X113320373Y-70839686D01*
X113183755Y-70916587D01*
X113097045Y-70965396D01*
X112914587Y-71025120D01*
X112853484Y-71045121D01*
X112599057Y-71075797D01*
X112599056Y-71075797D01*
X112343529Y-71056248D01*
X112096725Y-70987223D01*
X112096724Y-70987223D01*
X112096722Y-70987222D01*
X111868135Y-70871378D01*
X111868133Y-70871377D01*
X111868130Y-70871375D01*
X111666528Y-70713157D01*
X111666524Y-70713154D01*
X111499667Y-70518650D01*
X111373958Y-70295323D01*
X111373957Y-70295322D01*
X111294233Y-70051764D01*
X111294232Y-70051761D01*
X111263556Y-69797334D01*
X111265851Y-69767333D01*
X111283105Y-69541806D01*
X111349333Y-69305002D01*
X111352130Y-69295001D01*
X111433882Y-69133686D01*
X111438950Y-69123685D01*
X112716545Y-67118262D01*
X112835119Y-66967175D01*
X112967395Y-66853701D01*
X113029630Y-66800312D01*
X113252948Y-66674606D01*
X113283504Y-66664604D01*
X113496511Y-66594880D01*
X113496512Y-66594880D01*
X113496515Y-66594879D01*
X113750941Y-66564203D01*
X113750943Y-66564203D01*
X113881647Y-66574203D01*
G37*
G36*
X151891647Y-66574203D02*
G01*
X152016471Y-66583753D01*
X152056253Y-66594879D01*
X152263275Y-66652777D01*
X152491870Y-66768625D01*
X152693472Y-66926843D01*
X152860334Y-67121353D01*
X152986043Y-67344678D01*
X153055947Y-67558236D01*
X153065768Y-67588239D01*
X153094033Y-67822667D01*
X153096444Y-67842667D01*
X153076895Y-68098195D01*
X153035474Y-68246299D01*
X153007870Y-68345000D01*
X152969559Y-68420596D01*
X152921050Y-68516316D01*
X151643454Y-70521738D01*
X151638029Y-70528650D01*
X151524880Y-70672826D01*
X151330373Y-70839686D01*
X151193755Y-70916587D01*
X151107045Y-70965396D01*
X150924587Y-71025120D01*
X150863484Y-71045121D01*
X150609057Y-71075797D01*
X150609056Y-71075797D01*
X150353529Y-71056248D01*
X150106725Y-70987223D01*
X150106724Y-70987223D01*
X150106722Y-70987222D01*
X149878135Y-70871378D01*
X149878133Y-70871377D01*
X149878130Y-70871375D01*
X149676528Y-70713157D01*
X149676524Y-70713154D01*
X149509667Y-70518650D01*
X149383958Y-70295323D01*
X149383957Y-70295322D01*
X149304233Y-70051764D01*
X149304232Y-70051761D01*
X149273556Y-69797334D01*
X149275851Y-69767333D01*
X149293105Y-69541806D01*
X149359333Y-69305002D01*
X149362130Y-69295001D01*
X149443882Y-69133686D01*
X149448950Y-69123685D01*
X150726545Y-67118262D01*
X150845119Y-66967175D01*
X150977395Y-66853701D01*
X151039630Y-66800312D01*
X151262948Y-66674606D01*
X151293504Y-66664604D01*
X151506511Y-66594880D01*
X151506512Y-66594880D01*
X151506515Y-66594879D01*
X151760941Y-66564203D01*
X151760943Y-66564203D01*
X151891647Y-66574203D01*
G37*
G36*
X75911647Y-66564203D02*
G01*
X76036471Y-66573753D01*
X76076253Y-66584879D01*
X76283275Y-66642777D01*
X76511870Y-66758625D01*
X76713472Y-66916843D01*
X76880334Y-67111353D01*
X77006043Y-67334678D01*
X77079220Y-67558236D01*
X77085768Y-67578239D01*
X77114033Y-67812667D01*
X77116444Y-67832667D01*
X77096895Y-68088195D01*
X77055474Y-68236299D01*
X77027870Y-68335000D01*
X76989559Y-68410596D01*
X76941050Y-68506316D01*
X75663454Y-70511738D01*
X75650181Y-70528650D01*
X75544880Y-70662826D01*
X75350373Y-70829686D01*
X75258545Y-70881375D01*
X75127045Y-70955396D01*
X74914037Y-71025120D01*
X74883484Y-71035121D01*
X74629057Y-71065797D01*
X74629056Y-71065797D01*
X74373529Y-71046248D01*
X74126725Y-70977223D01*
X74126724Y-70977223D01*
X74126722Y-70977222D01*
X73898135Y-70861378D01*
X73898133Y-70861377D01*
X73898130Y-70861375D01*
X73696528Y-70703157D01*
X73696524Y-70703154D01*
X73529667Y-70508650D01*
X73403958Y-70285323D01*
X73403957Y-70285322D01*
X73324233Y-70041764D01*
X73324232Y-70041761D01*
X73293556Y-69787334D01*
X73295086Y-69767333D01*
X73313105Y-69531806D01*
X73379333Y-69295002D01*
X73382130Y-69285001D01*
X73448725Y-69153594D01*
X73468950Y-69113685D01*
X74746545Y-67108262D01*
X74865119Y-66957175D01*
X74997395Y-66843701D01*
X75059630Y-66790312D01*
X75282948Y-66664606D01*
X75282954Y-66664604D01*
X75526511Y-66584880D01*
X75526512Y-66584880D01*
X75526515Y-66584879D01*
X75780941Y-66554203D01*
X75780943Y-66554203D01*
X75911647Y-66564203D01*
G37*
G36*
X94881647Y-66564203D02*
G01*
X95006471Y-66573753D01*
X95046253Y-66584879D01*
X95253275Y-66642777D01*
X95481870Y-66758625D01*
X95683472Y-66916843D01*
X95850334Y-67111353D01*
X95976043Y-67334678D01*
X96049220Y-67558236D01*
X96055768Y-67578239D01*
X96084033Y-67812667D01*
X96086444Y-67832667D01*
X96066895Y-68088195D01*
X96025474Y-68236299D01*
X95997870Y-68335000D01*
X95959559Y-68410596D01*
X95911050Y-68506316D01*
X94633454Y-70511738D01*
X94620181Y-70528650D01*
X94514880Y-70662826D01*
X94320373Y-70829686D01*
X94228545Y-70881375D01*
X94097045Y-70955396D01*
X93884037Y-71025120D01*
X93853484Y-71035121D01*
X93599057Y-71065797D01*
X93599056Y-71065797D01*
X93343529Y-71046248D01*
X93096725Y-70977223D01*
X93096724Y-70977223D01*
X93096722Y-70977222D01*
X92868135Y-70861378D01*
X92868133Y-70861377D01*
X92868130Y-70861375D01*
X92666528Y-70703157D01*
X92666524Y-70703154D01*
X92499667Y-70508650D01*
X92373958Y-70285323D01*
X92373957Y-70285322D01*
X92294233Y-70041764D01*
X92294232Y-70041761D01*
X92263556Y-69787334D01*
X92265086Y-69767333D01*
X92283105Y-69531806D01*
X92349333Y-69295002D01*
X92352130Y-69285001D01*
X92418725Y-69153594D01*
X92438950Y-69113685D01*
X93716545Y-67108262D01*
X93835119Y-66957175D01*
X93967395Y-66843701D01*
X94029630Y-66790312D01*
X94252948Y-66664606D01*
X94252954Y-66664604D01*
X94496511Y-66584880D01*
X94496512Y-66584880D01*
X94496515Y-66584879D01*
X94750941Y-66554203D01*
X94750943Y-66554203D01*
X94881647Y-66564203D01*
G37*
G36*
X178011647Y-66554203D02*
G01*
X178136471Y-66563753D01*
X178176253Y-66574879D01*
X178383275Y-66632777D01*
X178611870Y-66748625D01*
X178813472Y-66906843D01*
X178980334Y-67101353D01*
X179106043Y-67324678D01*
X179182494Y-67558236D01*
X179185768Y-67568239D01*
X179211854Y-67784599D01*
X179216444Y-67822667D01*
X179196895Y-68078195D01*
X179165351Y-68190983D01*
X179127870Y-68325000D01*
X179089559Y-68400596D01*
X179041050Y-68496316D01*
X177763454Y-70501738D01*
X177742333Y-70528650D01*
X177644880Y-70652826D01*
X177450373Y-70819686D01*
X177313755Y-70896587D01*
X177227045Y-70945396D01*
X177014037Y-71015120D01*
X176983484Y-71025121D01*
X176729057Y-71055797D01*
X176729056Y-71055797D01*
X176473529Y-71036248D01*
X176226725Y-70967223D01*
X176226724Y-70967223D01*
X176226722Y-70967222D01*
X175998135Y-70851378D01*
X175998133Y-70851377D01*
X175998130Y-70851375D01*
X175796528Y-70693157D01*
X175796524Y-70693154D01*
X175629667Y-70498650D01*
X175540218Y-70339740D01*
X175503957Y-70275322D01*
X175424233Y-70031764D01*
X175424232Y-70031761D01*
X175393556Y-69777334D01*
X175394321Y-69767333D01*
X175413105Y-69521806D01*
X175479333Y-69285002D01*
X175482130Y-69275001D01*
X175543657Y-69153594D01*
X175568950Y-69103685D01*
X176846545Y-67098262D01*
X176965119Y-66947175D01*
X177097395Y-66833701D01*
X177159630Y-66780312D01*
X177382948Y-66654606D01*
X177382954Y-66654604D01*
X177626511Y-66574880D01*
X177626512Y-66574880D01*
X177626515Y-66574879D01*
X177880941Y-66544203D01*
X177880943Y-66544203D01*
X178011647Y-66554203D01*
G37*
G36*
X213661647Y-66544203D02*
G01*
X213786471Y-66553753D01*
X213826253Y-66564879D01*
X214033275Y-66622777D01*
X214261870Y-66738625D01*
X214463472Y-66896843D01*
X214630334Y-67091353D01*
X214756043Y-67314678D01*
X214834358Y-67553931D01*
X214835768Y-67558239D01*
X214863060Y-67784599D01*
X214866444Y-67812667D01*
X214846895Y-68068195D01*
X214815351Y-68180983D01*
X214777870Y-68315000D01*
X214739559Y-68390596D01*
X214691050Y-68486316D01*
X213413454Y-70491738D01*
X213384485Y-70528650D01*
X213294880Y-70642826D01*
X213100373Y-70809686D01*
X212973015Y-70881375D01*
X212877045Y-70935396D01*
X212639834Y-71013042D01*
X212633484Y-71015121D01*
X212379057Y-71045797D01*
X212379056Y-71045797D01*
X212123529Y-71026248D01*
X211876725Y-70957223D01*
X211876724Y-70957223D01*
X211876722Y-70957222D01*
X211648135Y-70841378D01*
X211648133Y-70841377D01*
X211648130Y-70841375D01*
X211446528Y-70683157D01*
X211446524Y-70683154D01*
X211279667Y-70488650D01*
X211195847Y-70339740D01*
X211153957Y-70265322D01*
X211074233Y-70021764D01*
X211074232Y-70021761D01*
X211043556Y-69767334D01*
X211043556Y-69767333D01*
X211063105Y-69511806D01*
X211129333Y-69275002D01*
X211132130Y-69265001D01*
X211193657Y-69143594D01*
X211218950Y-69093685D01*
X212496545Y-67088262D01*
X212615119Y-66937175D01*
X212747395Y-66823701D01*
X212809630Y-66770312D01*
X213032948Y-66644606D01*
X213032954Y-66644604D01*
X213276511Y-66564880D01*
X213276512Y-66564880D01*
X213276515Y-66564879D01*
X213530941Y-66534203D01*
X213530943Y-66534203D01*
X213661647Y-66544203D01*
G37*
G36*
X62281379Y-66008813D02*
G01*
X62520991Y-66099713D01*
X62674314Y-66195613D01*
X62738265Y-66235613D01*
X62924852Y-66411288D01*
X63033503Y-66563753D01*
X63073580Y-66619990D01*
X63178735Y-66853697D01*
X63178736Y-66853701D01*
X63236276Y-67103428D01*
X63242058Y-67295394D01*
X63238698Y-67344678D01*
X63193916Y-68001571D01*
X63162135Y-68190983D01*
X63071235Y-68430595D01*
X62960354Y-68607869D01*
X62935335Y-68647869D01*
X62759660Y-68834456D01*
X62607090Y-68943182D01*
X62550958Y-68983184D01*
X62317251Y-69088339D01*
X62317247Y-69088340D01*
X62067521Y-69145880D01*
X61811366Y-69153594D01*
X61811362Y-69153594D01*
X61558621Y-69111187D01*
X61319009Y-69020287D01*
X61101735Y-68884387D01*
X61069872Y-68854387D01*
X60915148Y-68708712D01*
X60785166Y-68526315D01*
X60766420Y-68500010D01*
X60661265Y-68266303D01*
X60654352Y-68236299D01*
X60603724Y-68016572D01*
X60597942Y-67824608D01*
X60646084Y-67118428D01*
X60652796Y-67078428D01*
X60677865Y-66929017D01*
X60768765Y-66689405D01*
X60904665Y-66472131D01*
X60914080Y-66462131D01*
X61080340Y-66285544D01*
X61236602Y-66174187D01*
X61289042Y-66136816D01*
X61522749Y-66031661D01*
X61522753Y-66031660D01*
X61772479Y-65974120D01*
X62028634Y-65966406D01*
X62028638Y-65966406D01*
X62281379Y-66008813D01*
G37*
G36*
X43301379Y-65998813D02*
G01*
X43540991Y-66089713D01*
X43616298Y-66136816D01*
X43758265Y-66225613D01*
X43944852Y-66401288D01*
X44053503Y-66553753D01*
X44093580Y-66609990D01*
X44198735Y-66843697D01*
X44198736Y-66843701D01*
X44256276Y-67093428D01*
X44262058Y-67285394D01*
X44245455Y-67528928D01*
X44213916Y-67991571D01*
X44182135Y-68180983D01*
X44091235Y-68420595D01*
X44025109Y-68526316D01*
X43955335Y-68637869D01*
X43779660Y-68824456D01*
X43623398Y-68935813D01*
X43570958Y-68973184D01*
X43337251Y-69078339D01*
X43337247Y-69078340D01*
X43087521Y-69135880D01*
X42831366Y-69143594D01*
X42831362Y-69143594D01*
X42578621Y-69101187D01*
X42339009Y-69010287D01*
X42121735Y-68874387D01*
X42068703Y-68824456D01*
X41935148Y-68698712D01*
X41812293Y-68526316D01*
X41786420Y-68490010D01*
X41681265Y-68256303D01*
X41674352Y-68226299D01*
X41623724Y-68006572D01*
X41617942Y-67814608D01*
X41666084Y-67108428D01*
X41671957Y-67073428D01*
X41697865Y-66919017D01*
X41788765Y-66679405D01*
X41924665Y-66462131D01*
X41934080Y-66452131D01*
X42100340Y-66275544D01*
X42295010Y-66136816D01*
X42309042Y-66126816D01*
X42542749Y-66021661D01*
X42542753Y-66021660D01*
X42792479Y-65964120D01*
X43048634Y-65956406D01*
X43048638Y-65956406D01*
X43301379Y-65998813D01*
G37*
G36*
X119311379Y-65998813D02*
G01*
X119550991Y-66089713D01*
X119626298Y-66136816D01*
X119768265Y-66225613D01*
X119954852Y-66401288D01*
X120063503Y-66553753D01*
X120103580Y-66609990D01*
X120208735Y-66843697D01*
X120208736Y-66843701D01*
X120266276Y-67093428D01*
X120272058Y-67285394D01*
X120255455Y-67528928D01*
X120223916Y-67991571D01*
X120192135Y-68180983D01*
X120101235Y-68420595D01*
X120035109Y-68526316D01*
X119965335Y-68637869D01*
X119789660Y-68824456D01*
X119633398Y-68935813D01*
X119580958Y-68973184D01*
X119347251Y-69078339D01*
X119347247Y-69078340D01*
X119097521Y-69135880D01*
X118841366Y-69143594D01*
X118841362Y-69143594D01*
X118588621Y-69101187D01*
X118349009Y-69010287D01*
X118131735Y-68874387D01*
X118078703Y-68824456D01*
X117945148Y-68698712D01*
X117822293Y-68526316D01*
X117796420Y-68490010D01*
X117691265Y-68256303D01*
X117684352Y-68226299D01*
X117633724Y-68006572D01*
X117627942Y-67814608D01*
X117676084Y-67108428D01*
X117681957Y-67073428D01*
X117707865Y-66919017D01*
X117798765Y-66679405D01*
X117934665Y-66462131D01*
X117944080Y-66452131D01*
X118110340Y-66275544D01*
X118305010Y-66136816D01*
X118319042Y-66126816D01*
X118552749Y-66021661D01*
X118552753Y-66021660D01*
X118802479Y-65964120D01*
X119058634Y-65956406D01*
X119058638Y-65956406D01*
X119311379Y-65998813D01*
G37*
G36*
X138321379Y-65998813D02*
G01*
X138560991Y-66089713D01*
X138636298Y-66136816D01*
X138778265Y-66225613D01*
X138964852Y-66401288D01*
X139073503Y-66553753D01*
X139113580Y-66609990D01*
X139218735Y-66843697D01*
X139218736Y-66843701D01*
X139276276Y-67093428D01*
X139282058Y-67285394D01*
X139265455Y-67528928D01*
X139233916Y-67991571D01*
X139202135Y-68180983D01*
X139111235Y-68420595D01*
X139045109Y-68526316D01*
X138975335Y-68637869D01*
X138799660Y-68824456D01*
X138643398Y-68935813D01*
X138590958Y-68973184D01*
X138357251Y-69078339D01*
X138357247Y-69078340D01*
X138107521Y-69135880D01*
X137851366Y-69143594D01*
X137851362Y-69143594D01*
X137598621Y-69101187D01*
X137359009Y-69010287D01*
X137141735Y-68874387D01*
X137088703Y-68824456D01*
X136955148Y-68698712D01*
X136832293Y-68526316D01*
X136806420Y-68490010D01*
X136701265Y-68256303D01*
X136694352Y-68226299D01*
X136643724Y-68006572D01*
X136637942Y-67814608D01*
X136686084Y-67108428D01*
X136691957Y-67073428D01*
X136717865Y-66919017D01*
X136808765Y-66679405D01*
X136944665Y-66462131D01*
X136954080Y-66452131D01*
X137120340Y-66275544D01*
X137315010Y-66136816D01*
X137329042Y-66126816D01*
X137562749Y-66021661D01*
X137562753Y-66021660D01*
X137812479Y-65964120D01*
X138068634Y-65956406D01*
X138068638Y-65956406D01*
X138321379Y-65998813D01*
G37*
G36*
X157321379Y-65998813D02*
G01*
X157560991Y-66089713D01*
X157636298Y-66136816D01*
X157778265Y-66225613D01*
X157964852Y-66401288D01*
X158073503Y-66553753D01*
X158113580Y-66609990D01*
X158218735Y-66843697D01*
X158218736Y-66843701D01*
X158276276Y-67093428D01*
X158282058Y-67285394D01*
X158265455Y-67528928D01*
X158233916Y-67991571D01*
X158202135Y-68180983D01*
X158111235Y-68420595D01*
X158045109Y-68526316D01*
X157975335Y-68637869D01*
X157799660Y-68824456D01*
X157643398Y-68935813D01*
X157590958Y-68973184D01*
X157357251Y-69078339D01*
X157357247Y-69078340D01*
X157107521Y-69135880D01*
X156851366Y-69143594D01*
X156851362Y-69143594D01*
X156598621Y-69101187D01*
X156359009Y-69010287D01*
X156141735Y-68874387D01*
X156088703Y-68824456D01*
X155955148Y-68698712D01*
X155832293Y-68526316D01*
X155806420Y-68490010D01*
X155701265Y-68256303D01*
X155694352Y-68226299D01*
X155643724Y-68006572D01*
X155637942Y-67814608D01*
X155686084Y-67108428D01*
X155691957Y-67073428D01*
X155717865Y-66919017D01*
X155808765Y-66679405D01*
X155944665Y-66462131D01*
X155954080Y-66452131D01*
X156120340Y-66275544D01*
X156315010Y-66136816D01*
X156329042Y-66126816D01*
X156562749Y-66021661D01*
X156562753Y-66021660D01*
X156812479Y-65964120D01*
X157068634Y-65956406D01*
X157068638Y-65956406D01*
X157321379Y-65998813D01*
G37*
G36*
X100311379Y-65988813D02*
G01*
X100550991Y-66079713D01*
X100626298Y-66126816D01*
X100768265Y-66215613D01*
X100954852Y-66391288D01*
X101063824Y-66544203D01*
X101103580Y-66599990D01*
X101208735Y-66833697D01*
X101208736Y-66833701D01*
X101266276Y-67083428D01*
X101272058Y-67275394D01*
X101266653Y-67354678D01*
X101223916Y-67981571D01*
X101192135Y-68170983D01*
X101101235Y-68410595D01*
X101035109Y-68516316D01*
X100965335Y-68627869D01*
X100789660Y-68814456D01*
X100633398Y-68925813D01*
X100580958Y-68963184D01*
X100347251Y-69068339D01*
X100347247Y-69068340D01*
X100097521Y-69125880D01*
X99841366Y-69133594D01*
X99841362Y-69133594D01*
X99588621Y-69091187D01*
X99349009Y-69000287D01*
X99131735Y-68864387D01*
X99078703Y-68814456D01*
X98945148Y-68688712D01*
X98822293Y-68516316D01*
X98796420Y-68480010D01*
X98691265Y-68246303D01*
X98678519Y-68190983D01*
X98633724Y-67996572D01*
X98627942Y-67804608D01*
X98676084Y-67098428D01*
X98681957Y-67063428D01*
X98707865Y-66909017D01*
X98798765Y-66669405D01*
X98934665Y-66452131D01*
X98944080Y-66442131D01*
X99110340Y-66265544D01*
X99290975Y-66136818D01*
X99319042Y-66116816D01*
X99552749Y-66011661D01*
X99565105Y-66008814D01*
X99802479Y-65954120D01*
X100058634Y-65946406D01*
X100058638Y-65946406D01*
X100311379Y-65988813D01*
G37*
G36*
X81341379Y-65988813D02*
G01*
X81580991Y-66079713D01*
X81656298Y-66126816D01*
X81798265Y-66215613D01*
X81984852Y-66391288D01*
X82093824Y-66544203D01*
X82133580Y-66599990D01*
X82238735Y-66833697D01*
X82238736Y-66833701D01*
X82296276Y-67083428D01*
X82302058Y-67275394D01*
X82296653Y-67354678D01*
X82253916Y-67981571D01*
X82222135Y-68170983D01*
X82131235Y-68410595D01*
X82065109Y-68516316D01*
X81995335Y-68627869D01*
X81819660Y-68814456D01*
X81663398Y-68925813D01*
X81610958Y-68963184D01*
X81377251Y-69068339D01*
X81377247Y-69068340D01*
X81127521Y-69125880D01*
X80871366Y-69133594D01*
X80871362Y-69133594D01*
X80618621Y-69091187D01*
X80379009Y-69000287D01*
X80161735Y-68864387D01*
X80108703Y-68814456D01*
X79975148Y-68688712D01*
X79852293Y-68516316D01*
X79826420Y-68480010D01*
X79721265Y-68246303D01*
X79708519Y-68190983D01*
X79663724Y-67996572D01*
X79657942Y-67804608D01*
X79706084Y-67098428D01*
X79711957Y-67063428D01*
X79737865Y-66909017D01*
X79828765Y-66669405D01*
X79964665Y-66452131D01*
X79974080Y-66442131D01*
X80140340Y-66265544D01*
X80320975Y-66136818D01*
X80349042Y-66116816D01*
X80582749Y-66011661D01*
X80595105Y-66008814D01*
X80832479Y-65954120D01*
X81088634Y-65946406D01*
X81088638Y-65946406D01*
X81341379Y-65988813D01*
G37*
G36*
X183441379Y-65978813D02*
G01*
X183680991Y-66069713D01*
X183756298Y-66116816D01*
X183898265Y-66205613D01*
X184084852Y-66381288D01*
X184149589Y-66472131D01*
X184233580Y-66589990D01*
X184338735Y-66823697D01*
X184338736Y-66823701D01*
X184396276Y-67073428D01*
X184402058Y-67265394D01*
X184396653Y-67344678D01*
X184353916Y-67971571D01*
X184322135Y-68160983D01*
X184231235Y-68400595D01*
X184165109Y-68506316D01*
X184095335Y-68617869D01*
X183919660Y-68804456D01*
X183763398Y-68915813D01*
X183710958Y-68953184D01*
X183477251Y-69058339D01*
X183477247Y-69058340D01*
X183227521Y-69115880D01*
X182971366Y-69123594D01*
X182971362Y-69123594D01*
X182718621Y-69081187D01*
X182479009Y-68990287D01*
X182261735Y-68854387D01*
X182208703Y-68804456D01*
X182075148Y-68678712D01*
X181952293Y-68506316D01*
X181926420Y-68470010D01*
X181821265Y-68236303D01*
X181808519Y-68180983D01*
X181763724Y-67986572D01*
X181757942Y-67794608D01*
X181806084Y-67088428D01*
X181810650Y-67061213D01*
X181837865Y-66899017D01*
X181928765Y-66659405D01*
X182064665Y-66442131D01*
X182074080Y-66432131D01*
X182240340Y-66255544D01*
X182420975Y-66126818D01*
X182449042Y-66106816D01*
X182682749Y-66001661D01*
X182695105Y-65998814D01*
X182932479Y-65944120D01*
X183188634Y-65936406D01*
X183188638Y-65936406D01*
X183441379Y-65978813D01*
G37*
G36*
X219091379Y-65968813D02*
G01*
X219330991Y-66059713D01*
X219454265Y-66136818D01*
X219548265Y-66195613D01*
X219734852Y-66371288D01*
X219846209Y-66527550D01*
X219883580Y-66579990D01*
X219988735Y-66813697D01*
X219988736Y-66813701D01*
X220046276Y-67063428D01*
X220052058Y-67255394D01*
X220046653Y-67334678D01*
X220003916Y-67961571D01*
X219972135Y-68150983D01*
X219881235Y-68390595D01*
X219745335Y-68607869D01*
X219569660Y-68794456D01*
X219443464Y-68884387D01*
X219360958Y-68943184D01*
X219127251Y-69048339D01*
X219127247Y-69048340D01*
X218877521Y-69105880D01*
X218621366Y-69113594D01*
X218621362Y-69113594D01*
X218368621Y-69071187D01*
X218129009Y-68980287D01*
X217911735Y-68844387D01*
X217858703Y-68794456D01*
X217725148Y-68668712D01*
X217602293Y-68496316D01*
X217576420Y-68460010D01*
X217471265Y-68226303D01*
X217458519Y-68170983D01*
X217413724Y-67976572D01*
X217407942Y-67784608D01*
X217456084Y-67078428D01*
X217460650Y-67051213D01*
X217487865Y-66889017D01*
X217578765Y-66649405D01*
X217714665Y-66432131D01*
X217734289Y-66411288D01*
X217890340Y-66245544D01*
X218070975Y-66116818D01*
X218099042Y-66096816D01*
X218332749Y-65991661D01*
X218345105Y-65988814D01*
X218582479Y-65934120D01*
X218838634Y-65926406D01*
X218838638Y-65926406D01*
X219091379Y-65968813D01*
G37*
G36*
X101618228Y-62121703D02*
G01*
X101773100Y-62185853D01*
X101912481Y-62278985D01*
X102031015Y-62397519D01*
X102124147Y-62536900D01*
X102188297Y-62691772D01*
X102221000Y-62856184D01*
X102221000Y-63023816D01*
X102188297Y-63188228D01*
X102124147Y-63343100D01*
X102031015Y-63482481D01*
X101912481Y-63601015D01*
X101773100Y-63694147D01*
X101618228Y-63758297D01*
X101453816Y-63791000D01*
X101286184Y-63791000D01*
X101121772Y-63758297D01*
X100966900Y-63694147D01*
X100827519Y-63601015D01*
X100708985Y-63482481D01*
X100615853Y-63343100D01*
X100551703Y-63188228D01*
X100519000Y-63023816D01*
X100519000Y-62856184D01*
X100551703Y-62691772D01*
X100615853Y-62536900D01*
X100708985Y-62397519D01*
X100827519Y-62278985D01*
X100966900Y-62185853D01*
X101121772Y-62121703D01*
X101286184Y-62089000D01*
X101453816Y-62089000D01*
X101618228Y-62121703D01*
G37*
G36*
X94421000Y-63791000D02*
G01*
X92719000Y-63791000D01*
X92719000Y-62089000D01*
X94421000Y-62089000D01*
X94421000Y-63791000D01*
G37*
G36*
X37331000Y-63781000D02*
G01*
X35629000Y-63781000D01*
X35629000Y-62079000D01*
X37331000Y-62079000D01*
X37331000Y-63781000D01*
G37*
G36*
X184608228Y-62111703D02*
G01*
X184763100Y-62175853D01*
X184902481Y-62268985D01*
X185021015Y-62387519D01*
X185114147Y-62526900D01*
X185178297Y-62681772D01*
X185211000Y-62846184D01*
X185211000Y-63013816D01*
X185178297Y-63178228D01*
X185114147Y-63333100D01*
X185021015Y-63472481D01*
X184902481Y-63591015D01*
X184763100Y-63684147D01*
X184608228Y-63748297D01*
X184443816Y-63781000D01*
X184276184Y-63781000D01*
X184111772Y-63748297D01*
X183956900Y-63684147D01*
X183817519Y-63591015D01*
X183698985Y-63472481D01*
X183605853Y-63333100D01*
X183541703Y-63178228D01*
X183509000Y-63013816D01*
X183509000Y-62846184D01*
X183541703Y-62681772D01*
X183605853Y-62526900D01*
X183698985Y-62387519D01*
X183817519Y-62268985D01*
X183956900Y-62175853D01*
X184111772Y-62111703D01*
X184276184Y-62079000D01*
X184443816Y-62079000D01*
X184608228Y-62111703D01*
G37*
G36*
X177411000Y-63781000D02*
G01*
X175709000Y-63781000D01*
X175709000Y-62079000D01*
X177411000Y-62079000D01*
X177411000Y-63781000D01*
G37*
G36*
X44528228Y-62111703D02*
G01*
X44683100Y-62175853D01*
X44822481Y-62268985D01*
X44941015Y-62387519D01*
X45034147Y-62526900D01*
X45098297Y-62681772D01*
X45131000Y-62846184D01*
X45131000Y-63013816D01*
X45098297Y-63178228D01*
X45034147Y-63333100D01*
X44941015Y-63472481D01*
X44822481Y-63591015D01*
X44683100Y-63684147D01*
X44528228Y-63748297D01*
X44363816Y-63781000D01*
X44196184Y-63781000D01*
X44031772Y-63748297D01*
X43876900Y-63684147D01*
X43737519Y-63591015D01*
X43618985Y-63472481D01*
X43525853Y-63333100D01*
X43461703Y-63178228D01*
X43429000Y-63013816D01*
X43429000Y-62846184D01*
X43461703Y-62681772D01*
X43525853Y-62526900D01*
X43618985Y-62387519D01*
X43737519Y-62268985D01*
X43876900Y-62175853D01*
X44031772Y-62111703D01*
X44196184Y-62079000D01*
X44363816Y-62079000D01*
X44528228Y-62111703D01*
G37*
G36*
X56301000Y-63781000D02*
G01*
X54599000Y-63781000D01*
X54599000Y-62079000D01*
X56301000Y-62079000D01*
X56301000Y-63781000D01*
G37*
G36*
X63498228Y-62111703D02*
G01*
X63653100Y-62175853D01*
X63792481Y-62268985D01*
X63911015Y-62387519D01*
X64004147Y-62526900D01*
X64068297Y-62681772D01*
X64101000Y-62846184D01*
X64101000Y-63013816D01*
X64068297Y-63178228D01*
X64004147Y-63333100D01*
X63911015Y-63472481D01*
X63792481Y-63591015D01*
X63653100Y-63684147D01*
X63498228Y-63748297D01*
X63333816Y-63781000D01*
X63166184Y-63781000D01*
X63001772Y-63748297D01*
X62846900Y-63684147D01*
X62707519Y-63591015D01*
X62588985Y-63472481D01*
X62495853Y-63333100D01*
X62431703Y-63178228D01*
X62399000Y-63013816D01*
X62399000Y-62846184D01*
X62431703Y-62681772D01*
X62495853Y-62526900D01*
X62588985Y-62387519D01*
X62707519Y-62268985D01*
X62846900Y-62175853D01*
X63001772Y-62111703D01*
X63166184Y-62079000D01*
X63333816Y-62079000D01*
X63498228Y-62111703D01*
G37*
G36*
X158508228Y-62101703D02*
G01*
X158663100Y-62165853D01*
X158802481Y-62258985D01*
X158921015Y-62377519D01*
X159014147Y-62516900D01*
X159078297Y-62671772D01*
X159111000Y-62836184D01*
X159111000Y-63003816D01*
X159078297Y-63168228D01*
X159014147Y-63323100D01*
X158921015Y-63462481D01*
X158802481Y-63581015D01*
X158663100Y-63674147D01*
X158508228Y-63738297D01*
X158343816Y-63771000D01*
X158176184Y-63771000D01*
X158011772Y-63738297D01*
X157856900Y-63674147D01*
X157717519Y-63581015D01*
X157598985Y-63462481D01*
X157505853Y-63323100D01*
X157441703Y-63168228D01*
X157409000Y-63003816D01*
X157409000Y-62836184D01*
X157441703Y-62671772D01*
X157505853Y-62516900D01*
X157598985Y-62377519D01*
X157717519Y-62258985D01*
X157856900Y-62165853D01*
X158011772Y-62101703D01*
X158176184Y-62069000D01*
X158343816Y-62069000D01*
X158508228Y-62101703D01*
G37*
G36*
X151311000Y-63771000D02*
G01*
X149609000Y-63771000D01*
X149609000Y-62069000D01*
X151311000Y-62069000D01*
X151311000Y-63771000D01*
G37*
G36*
X132431000Y-63761000D02*
G01*
X130729000Y-63761000D01*
X130729000Y-62059000D01*
X132431000Y-62059000D01*
X132431000Y-63761000D01*
G37*
G36*
X139628228Y-62091703D02*
G01*
X139783100Y-62155853D01*
X139922481Y-62248985D01*
X140041015Y-62367519D01*
X140134147Y-62506900D01*
X140198297Y-62661772D01*
X140231000Y-62826184D01*
X140231000Y-62993816D01*
X140198297Y-63158228D01*
X140134147Y-63313100D01*
X140041015Y-63452481D01*
X139922481Y-63571015D01*
X139783100Y-63664147D01*
X139628228Y-63728297D01*
X139463816Y-63761000D01*
X139296184Y-63761000D01*
X139131772Y-63728297D01*
X138976900Y-63664147D01*
X138837519Y-63571015D01*
X138718985Y-63452481D01*
X138625853Y-63313100D01*
X138561703Y-63158228D01*
X138529000Y-62993816D01*
X138529000Y-62826184D01*
X138561703Y-62661772D01*
X138625853Y-62506900D01*
X138718985Y-62367519D01*
X138837519Y-62248985D01*
X138976900Y-62155853D01*
X139131772Y-62091703D01*
X139296184Y-62059000D01*
X139463816Y-62059000D01*
X139628228Y-62091703D01*
G37*
G36*
X113381000Y-63761000D02*
G01*
X111679000Y-63761000D01*
X111679000Y-62059000D01*
X113381000Y-62059000D01*
X113381000Y-63761000D01*
G37*
G36*
X120578228Y-62091703D02*
G01*
X120733100Y-62155853D01*
X120872481Y-62248985D01*
X120991015Y-62367519D01*
X121084147Y-62506900D01*
X121148297Y-62661772D01*
X121181000Y-62826184D01*
X121181000Y-62993816D01*
X121148297Y-63158228D01*
X121084147Y-63313100D01*
X120991015Y-63452481D01*
X120872481Y-63571015D01*
X120733100Y-63664147D01*
X120578228Y-63728297D01*
X120413816Y-63761000D01*
X120246184Y-63761000D01*
X120081772Y-63728297D01*
X119926900Y-63664147D01*
X119787519Y-63571015D01*
X119668985Y-63452481D01*
X119575853Y-63313100D01*
X119511703Y-63158228D01*
X119479000Y-62993816D01*
X119479000Y-62826184D01*
X119511703Y-62661772D01*
X119575853Y-62506900D01*
X119668985Y-62367519D01*
X119787519Y-62248985D01*
X119926900Y-62155853D01*
X120081772Y-62091703D01*
X120246184Y-62059000D01*
X120413816Y-62059000D01*
X120578228Y-62091703D01*
G37*
G36*
X82848228Y-62081703D02*
G01*
X83003100Y-62145853D01*
X83142481Y-62238985D01*
X83261015Y-62357519D01*
X83354147Y-62496900D01*
X83418297Y-62651772D01*
X83451000Y-62816184D01*
X83451000Y-62983816D01*
X83418297Y-63148228D01*
X83354147Y-63303100D01*
X83261015Y-63442481D01*
X83142481Y-63561015D01*
X83003100Y-63654147D01*
X82848228Y-63718297D01*
X82683816Y-63751000D01*
X82516184Y-63751000D01*
X82351772Y-63718297D01*
X82196900Y-63654147D01*
X82057519Y-63561015D01*
X81938985Y-63442481D01*
X81845853Y-63303100D01*
X81781703Y-63148228D01*
X81749000Y-62983816D01*
X81749000Y-62816184D01*
X81781703Y-62651772D01*
X81845853Y-62496900D01*
X81938985Y-62357519D01*
X82057519Y-62238985D01*
X82196900Y-62145853D01*
X82351772Y-62081703D01*
X82516184Y-62049000D01*
X82683816Y-62049000D01*
X82848228Y-62081703D01*
G37*
G36*
X75651000Y-63751000D02*
G01*
X73949000Y-63751000D01*
X73949000Y-62049000D01*
X75651000Y-62049000D01*
X75651000Y-63751000D01*
G37*
G36*
X213151000Y-63741000D02*
G01*
X211449000Y-63741000D01*
X211449000Y-62039000D01*
X213151000Y-62039000D01*
X213151000Y-63741000D01*
G37*
G36*
X220348228Y-62071703D02*
G01*
X220503100Y-62135853D01*
X220642481Y-62228985D01*
X220761015Y-62347519D01*
X220854147Y-62486900D01*
X220918297Y-62641772D01*
X220951000Y-62806184D01*
X220951000Y-62973816D01*
X220918297Y-63138228D01*
X220854147Y-63293100D01*
X220761015Y-63432481D01*
X220642481Y-63551015D01*
X220503100Y-63644147D01*
X220348228Y-63708297D01*
X220183816Y-63741000D01*
X220016184Y-63741000D01*
X219851772Y-63708297D01*
X219696900Y-63644147D01*
X219557519Y-63551015D01*
X219438985Y-63432481D01*
X219345853Y-63293100D01*
X219281703Y-63138228D01*
X219249000Y-62973816D01*
X219249000Y-62806184D01*
X219281703Y-62641772D01*
X219345853Y-62486900D01*
X219438985Y-62347519D01*
X219557519Y-62228985D01*
X219696900Y-62135853D01*
X219851772Y-62071703D01*
X220016184Y-62039000D01*
X220183816Y-62039000D01*
X220348228Y-62071703D01*
G37*
G36*
X197140483Y-50888335D02*
G01*
X197309240Y-50958236D01*
X197461118Y-51059718D01*
X197590282Y-51188882D01*
X197691764Y-51340760D01*
X197761665Y-51509517D01*
X197797300Y-51688668D01*
X197797300Y-51871332D01*
X197761665Y-52050483D01*
X197691764Y-52219240D01*
X197590282Y-52371118D01*
X197461118Y-52500282D01*
X197309240Y-52601764D01*
X197140483Y-52671665D01*
X196961332Y-52707300D01*
X196778668Y-52707300D01*
X196599517Y-52671665D01*
X196430760Y-52601764D01*
X196278882Y-52500282D01*
X196149718Y-52371118D01*
X196048236Y-52219240D01*
X195978335Y-52050483D01*
X195942700Y-51871332D01*
X195942700Y-51688668D01*
X195978335Y-51509517D01*
X196048236Y-51340760D01*
X196149718Y-51188882D01*
X196278882Y-51059718D01*
X196430760Y-50958236D01*
X196599517Y-50888335D01*
X196778668Y-50852700D01*
X196961332Y-50852700D01*
X197140483Y-50888335D01*
G37*
G36*
X212380483Y-50888335D02*
G01*
X212549240Y-50958236D01*
X212701118Y-51059718D01*
X212830282Y-51188882D01*
X212931764Y-51340760D01*
X213001665Y-51509517D01*
X213037300Y-51688668D01*
X213037300Y-51871332D01*
X213001665Y-52050483D01*
X212931764Y-52219240D01*
X212830282Y-52371118D01*
X212701118Y-52500282D01*
X212549240Y-52601764D01*
X212380483Y-52671665D01*
X212201332Y-52707300D01*
X212018668Y-52707300D01*
X211839517Y-52671665D01*
X211670760Y-52601764D01*
X211518882Y-52500282D01*
X211389718Y-52371118D01*
X211288236Y-52219240D01*
X211218335Y-52050483D01*
X211182700Y-51871332D01*
X211182700Y-51688668D01*
X211218335Y-51509517D01*
X211288236Y-51340760D01*
X211389718Y-51188882D01*
X211518882Y-51059718D01*
X211670760Y-50958236D01*
X211839517Y-50888335D01*
X212018668Y-50852700D01*
X212201332Y-50852700D01*
X212380483Y-50888335D01*
G37*
G36*
X217761000Y-52141000D02*
G01*
X216259000Y-52141000D01*
X216259000Y-49939000D01*
X217761000Y-49939000D01*
X217761000Y-52141000D01*
G37*
G36*
X222261000Y-52141000D02*
G01*
X220759000Y-52141000D01*
X220759000Y-49939000D01*
X222261000Y-49939000D01*
X222261000Y-52141000D01*
G37*
G36*
X147140483Y-47604879D02*
G01*
X147256471Y-47613753D01*
X147296253Y-47624879D01*
X147503275Y-47682777D01*
X147731870Y-47798625D01*
X147933472Y-47956843D01*
X148100334Y-48151353D01*
X148226043Y-48374678D01*
X148273519Y-48519718D01*
X148305768Y-48618239D01*
X148334033Y-48852667D01*
X148336444Y-48872667D01*
X148316895Y-49128195D01*
X148275474Y-49276299D01*
X148247870Y-49375000D01*
X148209559Y-49450596D01*
X148161050Y-49546316D01*
X146883454Y-51551738D01*
X146883452Y-51551740D01*
X146764880Y-51702826D01*
X146570373Y-51869686D01*
X146433755Y-51946587D01*
X146347045Y-51995396D01*
X146195137Y-52045120D01*
X146103484Y-52075121D01*
X145849057Y-52105797D01*
X145849056Y-52105797D01*
X145593529Y-52086248D01*
X145346725Y-52017223D01*
X145346724Y-52017223D01*
X145346722Y-52017222D01*
X145118135Y-51901378D01*
X145118133Y-51901377D01*
X145118130Y-51901375D01*
X144916528Y-51743157D01*
X144916524Y-51743154D01*
X144749667Y-51548650D01*
X144632647Y-51340760D01*
X144623957Y-51325322D01*
X144544233Y-51081764D01*
X144544232Y-51081761D01*
X144513556Y-50827334D01*
X144516616Y-50787333D01*
X144533105Y-50571806D01*
X144602130Y-50325002D01*
X144602130Y-50325001D01*
X144678861Y-50173594D01*
X144688950Y-50153685D01*
X145966545Y-48148262D01*
X146085119Y-47997175D01*
X146176227Y-47919017D01*
X146279630Y-47830312D01*
X146502948Y-47704606D01*
X146564054Y-47684604D01*
X146746511Y-47624880D01*
X146746512Y-47624880D01*
X146746515Y-47624879D01*
X147000941Y-47594203D01*
X147000943Y-47594203D01*
X147140483Y-47604879D01*
G37*
G36*
X128121647Y-47594203D02*
G01*
X128246471Y-47603753D01*
X128286253Y-47614879D01*
X128493275Y-47672777D01*
X128721870Y-47788625D01*
X128923472Y-47946843D01*
X129090334Y-48141353D01*
X129216043Y-48364678D01*
X129285947Y-48578236D01*
X129295768Y-48608239D01*
X129324033Y-48842667D01*
X129326444Y-48862667D01*
X129306895Y-49118195D01*
X129265474Y-49266299D01*
X129237870Y-49365000D01*
X129199559Y-49440596D01*
X129151050Y-49536316D01*
X127873454Y-51541738D01*
X127868029Y-51548650D01*
X127754880Y-51692826D01*
X127560373Y-51859686D01*
X127423755Y-51936587D01*
X127337045Y-51985396D01*
X127185137Y-52035120D01*
X127093484Y-52065121D01*
X126839057Y-52095797D01*
X126839056Y-52095797D01*
X126583529Y-52076248D01*
X126336725Y-52007223D01*
X126336724Y-52007223D01*
X126336722Y-52007222D01*
X126108135Y-51891378D01*
X126108133Y-51891377D01*
X126108130Y-51891375D01*
X125906528Y-51733157D01*
X125906524Y-51733154D01*
X125739667Y-51538650D01*
X125628276Y-51340760D01*
X125613957Y-51315322D01*
X125534233Y-51071764D01*
X125534232Y-51071761D01*
X125503556Y-50817334D01*
X125505851Y-50787333D01*
X125523105Y-50561806D01*
X125589333Y-50325002D01*
X125592130Y-50315001D01*
X125663793Y-50173594D01*
X125678950Y-50143685D01*
X126956545Y-48138262D01*
X127075119Y-47987175D01*
X127207395Y-47873701D01*
X127269630Y-47820312D01*
X127492948Y-47694606D01*
X127523504Y-47684604D01*
X127736511Y-47614880D01*
X127736512Y-47614880D01*
X127736515Y-47614879D01*
X127990941Y-47584203D01*
X127990943Y-47584203D01*
X128121647Y-47594203D01*
G37*
G36*
X166131647Y-47594203D02*
G01*
X166256471Y-47603753D01*
X166296253Y-47614879D01*
X166503275Y-47672777D01*
X166731870Y-47788625D01*
X166933472Y-47946843D01*
X167100334Y-48141353D01*
X167226043Y-48364678D01*
X167295947Y-48578236D01*
X167305768Y-48608239D01*
X167334033Y-48842667D01*
X167336444Y-48862667D01*
X167316895Y-49118195D01*
X167275474Y-49266299D01*
X167247870Y-49365000D01*
X167209559Y-49440596D01*
X167161050Y-49536316D01*
X165883454Y-51541738D01*
X165878029Y-51548650D01*
X165764880Y-51692826D01*
X165570373Y-51859686D01*
X165433755Y-51936587D01*
X165347045Y-51985396D01*
X165195137Y-52035120D01*
X165103484Y-52065121D01*
X164849057Y-52095797D01*
X164849056Y-52095797D01*
X164593529Y-52076248D01*
X164346725Y-52007223D01*
X164346724Y-52007223D01*
X164346722Y-52007222D01*
X164118135Y-51891378D01*
X164118133Y-51891377D01*
X164118130Y-51891375D01*
X163916528Y-51733157D01*
X163916524Y-51733154D01*
X163749667Y-51538650D01*
X163638276Y-51340760D01*
X163623957Y-51315322D01*
X163544233Y-51071764D01*
X163544232Y-51071761D01*
X163513556Y-50817334D01*
X163515851Y-50787333D01*
X163533105Y-50561806D01*
X163599333Y-50325002D01*
X163602130Y-50315001D01*
X163673793Y-50173594D01*
X163688950Y-50143685D01*
X164966545Y-48138262D01*
X165085119Y-47987175D01*
X165217395Y-47873701D01*
X165279630Y-47820312D01*
X165502948Y-47694606D01*
X165533504Y-47684604D01*
X165746511Y-47614880D01*
X165746512Y-47614880D01*
X165746515Y-47614879D01*
X166000941Y-47584203D01*
X166000943Y-47584203D01*
X166131647Y-47594203D01*
G37*
G36*
X109121647Y-47584203D02*
G01*
X109246471Y-47593753D01*
X109286253Y-47604879D01*
X109493275Y-47662777D01*
X109721870Y-47778625D01*
X109923472Y-47936843D01*
X110090334Y-48131353D01*
X110216043Y-48354678D01*
X110270066Y-48519719D01*
X110295768Y-48598239D01*
X110324033Y-48832667D01*
X110326444Y-48852667D01*
X110306895Y-49108195D01*
X110265474Y-49256299D01*
X110237870Y-49355000D01*
X110199559Y-49430596D01*
X110151050Y-49526316D01*
X108873454Y-51531738D01*
X108860181Y-51548650D01*
X108754880Y-51682826D01*
X108560373Y-51849686D01*
X108468545Y-51901375D01*
X108337045Y-51975396D01*
X108154587Y-52035120D01*
X108093484Y-52055121D01*
X107839057Y-52085797D01*
X107839056Y-52085797D01*
X107583529Y-52066248D01*
X107336725Y-51997223D01*
X107336724Y-51997223D01*
X107336722Y-51997222D01*
X107108135Y-51881378D01*
X107108133Y-51881377D01*
X107108130Y-51881375D01*
X106906528Y-51723157D01*
X106906524Y-51723154D01*
X106739667Y-51528650D01*
X106633905Y-51340760D01*
X106613957Y-51305322D01*
X106534233Y-51061764D01*
X106534232Y-51061761D01*
X106503556Y-50807334D01*
X106505086Y-50787333D01*
X106523105Y-50551806D01*
X106589333Y-50315002D01*
X106592130Y-50305001D01*
X106661915Y-50167300D01*
X106678950Y-50133685D01*
X107956545Y-48128262D01*
X108075119Y-47977175D01*
X108207395Y-47863701D01*
X108269630Y-47810312D01*
X108492948Y-47684606D01*
X108492954Y-47684604D01*
X108736511Y-47604880D01*
X108736512Y-47604880D01*
X108736515Y-47604879D01*
X108990941Y-47574203D01*
X108990943Y-47574203D01*
X109121647Y-47584203D01*
G37*
G36*
X90161647Y-47574203D02*
G01*
X90286471Y-47583753D01*
X90326253Y-47594879D01*
X90533275Y-47652777D01*
X90761870Y-47768625D01*
X90963472Y-47926843D01*
X91130334Y-48121353D01*
X91256043Y-48344678D01*
X91313339Y-48519718D01*
X91335768Y-48588239D01*
X91361391Y-48800759D01*
X91366444Y-48842667D01*
X91346895Y-49098195D01*
X91315351Y-49210983D01*
X91277870Y-49345000D01*
X91239559Y-49420596D01*
X91191050Y-49516316D01*
X89913454Y-51521738D01*
X89892333Y-51548650D01*
X89794880Y-51672826D01*
X89600373Y-51839686D01*
X89463755Y-51916587D01*
X89377045Y-51965396D01*
X89164037Y-52035120D01*
X89133484Y-52045121D01*
X88879057Y-52075797D01*
X88879056Y-52075797D01*
X88623529Y-52056248D01*
X88376725Y-51987223D01*
X88376724Y-51987223D01*
X88376722Y-51987222D01*
X88148135Y-51871378D01*
X88148133Y-51871377D01*
X88148130Y-51871375D01*
X87946528Y-51713157D01*
X87946524Y-51713154D01*
X87779667Y-51518650D01*
X87679534Y-51340760D01*
X87653957Y-51295322D01*
X87574233Y-51051764D01*
X87574232Y-51051761D01*
X87543556Y-50797334D01*
X87544321Y-50787333D01*
X87563105Y-50541806D01*
X87629333Y-50305002D01*
X87632130Y-50295001D01*
X87696847Y-50167300D01*
X87718950Y-50123685D01*
X88996545Y-48118262D01*
X89115119Y-47967175D01*
X89247395Y-47853701D01*
X89309630Y-47800312D01*
X89532948Y-47674606D01*
X89532954Y-47674604D01*
X89776511Y-47594880D01*
X89776512Y-47594880D01*
X89776515Y-47594879D01*
X90030941Y-47564203D01*
X90030943Y-47564203D01*
X90161647Y-47574203D01*
G37*
G36*
X185141647Y-47574203D02*
G01*
X185266471Y-47583753D01*
X185306253Y-47594879D01*
X185513275Y-47652777D01*
X185741870Y-47768625D01*
X185943472Y-47926843D01*
X186110334Y-48121353D01*
X186236043Y-48344678D01*
X186293339Y-48519718D01*
X186315768Y-48588239D01*
X186341391Y-48800759D01*
X186346444Y-48842667D01*
X186326895Y-49098195D01*
X186295351Y-49210983D01*
X186257870Y-49345000D01*
X186219559Y-49420596D01*
X186171050Y-49516316D01*
X184893454Y-51521738D01*
X184872333Y-51548650D01*
X184774880Y-51672826D01*
X184580373Y-51839686D01*
X184443755Y-51916587D01*
X184357045Y-51965396D01*
X184144037Y-52035120D01*
X184113484Y-52045121D01*
X183859057Y-52075797D01*
X183859056Y-52075797D01*
X183603529Y-52056248D01*
X183356725Y-51987223D01*
X183356724Y-51987223D01*
X183356722Y-51987222D01*
X183128135Y-51871378D01*
X183128133Y-51871377D01*
X183128130Y-51871375D01*
X182926528Y-51713157D01*
X182926524Y-51713154D01*
X182759667Y-51518650D01*
X182659534Y-51340760D01*
X182633957Y-51295322D01*
X182554233Y-51051764D01*
X182554232Y-51051761D01*
X182523556Y-50797334D01*
X182524321Y-50787333D01*
X182543105Y-50541806D01*
X182609333Y-50305002D01*
X182612130Y-50295001D01*
X182676847Y-50167300D01*
X182698950Y-50123685D01*
X183976545Y-48118262D01*
X184095119Y-47967175D01*
X184227395Y-47853701D01*
X184289630Y-47800312D01*
X184512948Y-47674606D01*
X184512954Y-47674604D01*
X184756511Y-47594880D01*
X184756512Y-47594880D01*
X184756515Y-47594879D01*
X185010941Y-47564203D01*
X185010943Y-47564203D01*
X185141647Y-47574203D01*
G37*
G36*
X52131647Y-47564203D02*
G01*
X52256471Y-47573753D01*
X52296253Y-47584879D01*
X52503275Y-47642777D01*
X52731870Y-47758625D01*
X52933472Y-47916843D01*
X53100334Y-48111353D01*
X53226043Y-48334678D01*
X53304358Y-48573931D01*
X53305768Y-48578239D01*
X53314285Y-48648881D01*
X53336444Y-48832667D01*
X53316895Y-49088195D01*
X53285351Y-49200983D01*
X53247870Y-49335000D01*
X53209559Y-49410596D01*
X53161050Y-49506316D01*
X51883454Y-51511738D01*
X51854485Y-51548650D01*
X51764880Y-51662826D01*
X51570373Y-51829686D01*
X51443015Y-51901375D01*
X51347045Y-51955396D01*
X51109834Y-52033042D01*
X51103484Y-52035121D01*
X50849057Y-52065797D01*
X50849056Y-52065797D01*
X50593529Y-52046248D01*
X50346725Y-51977223D01*
X50346724Y-51977223D01*
X50346722Y-51977222D01*
X50118135Y-51861378D01*
X50118133Y-51861377D01*
X50118130Y-51861375D01*
X49916528Y-51703157D01*
X49916524Y-51703154D01*
X49749667Y-51508650D01*
X49655162Y-51340759D01*
X49623957Y-51285322D01*
X49544233Y-51041764D01*
X49544232Y-51041761D01*
X49513556Y-50787334D01*
X49513556Y-50787333D01*
X49533105Y-50531806D01*
X49599333Y-50295002D01*
X49602130Y-50285001D01*
X49663657Y-50163594D01*
X49688950Y-50113685D01*
X50966545Y-48108262D01*
X51085119Y-47957175D01*
X51217395Y-47843701D01*
X51279630Y-47790312D01*
X51502948Y-47664606D01*
X51502954Y-47664604D01*
X51746511Y-47584880D01*
X51746512Y-47584880D01*
X51746515Y-47584879D01*
X52000941Y-47554203D01*
X52000943Y-47554203D01*
X52131647Y-47564203D01*
G37*
G36*
X33111647Y-47564203D02*
G01*
X33236471Y-47573753D01*
X33276253Y-47584879D01*
X33483275Y-47642777D01*
X33711870Y-47758625D01*
X33913472Y-47916843D01*
X34080334Y-48111353D01*
X34206043Y-48334678D01*
X34284358Y-48573931D01*
X34285768Y-48578239D01*
X34294285Y-48648881D01*
X34316444Y-48832667D01*
X34296895Y-49088195D01*
X34265351Y-49200983D01*
X34227870Y-49335000D01*
X34189559Y-49410596D01*
X34141050Y-49506316D01*
X32863454Y-51511738D01*
X32834485Y-51548650D01*
X32744880Y-51662826D01*
X32550373Y-51829686D01*
X32423015Y-51901375D01*
X32327045Y-51955396D01*
X32089834Y-52033042D01*
X32083484Y-52035121D01*
X31829057Y-52065797D01*
X31829056Y-52065797D01*
X31573529Y-52046248D01*
X31326725Y-51977223D01*
X31326724Y-51977223D01*
X31326722Y-51977222D01*
X31098135Y-51861378D01*
X31098133Y-51861377D01*
X31098130Y-51861375D01*
X30896528Y-51703157D01*
X30896524Y-51703154D01*
X30729667Y-51508650D01*
X30635162Y-51340759D01*
X30603957Y-51285322D01*
X30524233Y-51041764D01*
X30524232Y-51041761D01*
X30493556Y-50787334D01*
X30493556Y-50787333D01*
X30513105Y-50531806D01*
X30579333Y-50295002D01*
X30582130Y-50285001D01*
X30643657Y-50163594D01*
X30668950Y-50113685D01*
X31946545Y-48108262D01*
X32065119Y-47957175D01*
X32197395Y-47843701D01*
X32259630Y-47790312D01*
X32482948Y-47664606D01*
X32482954Y-47664604D01*
X32726511Y-47584880D01*
X32726512Y-47584880D01*
X32726515Y-47584879D01*
X32980941Y-47554203D01*
X32980943Y-47554203D01*
X33111647Y-47564203D01*
G37*
G36*
X71151647Y-47564203D02*
G01*
X71276471Y-47573753D01*
X71316253Y-47584879D01*
X71523275Y-47642777D01*
X71751870Y-47758625D01*
X71953472Y-47916843D01*
X72120334Y-48111353D01*
X72246043Y-48334678D01*
X72324358Y-48573931D01*
X72325768Y-48578239D01*
X72334285Y-48648881D01*
X72356444Y-48832667D01*
X72336895Y-49088195D01*
X72305351Y-49200983D01*
X72267870Y-49335000D01*
X72229559Y-49410596D01*
X72181050Y-49506316D01*
X70903454Y-51511738D01*
X70874485Y-51548650D01*
X70784880Y-51662826D01*
X70590373Y-51829686D01*
X70463015Y-51901375D01*
X70367045Y-51955396D01*
X70129834Y-52033042D01*
X70123484Y-52035121D01*
X69869057Y-52065797D01*
X69869056Y-52065797D01*
X69613529Y-52046248D01*
X69366725Y-51977223D01*
X69366724Y-51977223D01*
X69366722Y-51977222D01*
X69138135Y-51861378D01*
X69138133Y-51861377D01*
X69138130Y-51861375D01*
X68936528Y-51703157D01*
X68936524Y-51703154D01*
X68769667Y-51508650D01*
X68675162Y-51340759D01*
X68643957Y-51285322D01*
X68564233Y-51041764D01*
X68564232Y-51041761D01*
X68533556Y-50787334D01*
X68533556Y-50787333D01*
X68553105Y-50531806D01*
X68619333Y-50295002D01*
X68622130Y-50285001D01*
X68683657Y-50163594D01*
X68708950Y-50113685D01*
X69986545Y-48108262D01*
X70105119Y-47957175D01*
X70237395Y-47843701D01*
X70299630Y-47790312D01*
X70522948Y-47664606D01*
X70522954Y-47664604D01*
X70766511Y-47584880D01*
X70766512Y-47584880D01*
X70766515Y-47584879D01*
X71020941Y-47554203D01*
X71020943Y-47554203D01*
X71151647Y-47564203D01*
G37*
G36*
X152561379Y-47028813D02*
G01*
X152800991Y-47119713D01*
X152954314Y-47215613D01*
X153018265Y-47255613D01*
X153204852Y-47431288D01*
X153313503Y-47583753D01*
X153353580Y-47639990D01*
X153458735Y-47873697D01*
X153458736Y-47873701D01*
X153516276Y-48123428D01*
X153522058Y-48315394D01*
X153518698Y-48364678D01*
X153473916Y-49021571D01*
X153442135Y-49210983D01*
X153351235Y-49450595D01*
X153240354Y-49627869D01*
X153215335Y-49667869D01*
X153039660Y-49854456D01*
X152921023Y-49939000D01*
X152830958Y-50003184D01*
X152597251Y-50108339D01*
X152597247Y-50108340D01*
X152347521Y-50165880D01*
X152091366Y-50173594D01*
X152091362Y-50173594D01*
X151838621Y-50131187D01*
X151599009Y-50040287D01*
X151381735Y-49904387D01*
X151349872Y-49874387D01*
X151195148Y-49728712D01*
X151065166Y-49546315D01*
X151046420Y-49520010D01*
X150941265Y-49286303D01*
X150934352Y-49256299D01*
X150883724Y-49036572D01*
X150877942Y-48844608D01*
X150926084Y-48138428D01*
X150932796Y-48098428D01*
X150957865Y-47949017D01*
X151048765Y-47709405D01*
X151184665Y-47492131D01*
X151194080Y-47482131D01*
X151360340Y-47305544D01*
X151516602Y-47194187D01*
X151569042Y-47156816D01*
X151802749Y-47051661D01*
X151802753Y-47051660D01*
X152052479Y-46994120D01*
X152308634Y-46986406D01*
X152308638Y-46986406D01*
X152561379Y-47028813D01*
G37*
G36*
X212380483Y-48348335D02*
G01*
X212549240Y-48418236D01*
X212701118Y-48519718D01*
X212830282Y-48648882D01*
X212931764Y-48800760D01*
X213001665Y-48969517D01*
X213037300Y-49148668D01*
X213037300Y-49331332D01*
X213001665Y-49510483D01*
X212931764Y-49679240D01*
X212830282Y-49831118D01*
X212701118Y-49960282D01*
X212549240Y-50061764D01*
X212380483Y-50131665D01*
X212201332Y-50167300D01*
X212018668Y-50167300D01*
X211839517Y-50131665D01*
X211670760Y-50061764D01*
X211518882Y-49960282D01*
X211389718Y-49831118D01*
X211288236Y-49679240D01*
X211218335Y-49510483D01*
X211182700Y-49331332D01*
X211182700Y-49148668D01*
X211218335Y-48969517D01*
X211288236Y-48800760D01*
X211389718Y-48648882D01*
X211518882Y-48519718D01*
X211670760Y-48418236D01*
X211839517Y-48348335D01*
X212018668Y-48312700D01*
X212201332Y-48312700D01*
X212380483Y-48348335D01*
G37*
G36*
X197140483Y-48348335D02*
G01*
X197309240Y-48418236D01*
X197461118Y-48519718D01*
X197590282Y-48648882D01*
X197691764Y-48800760D01*
X197761665Y-48969517D01*
X197797300Y-49148668D01*
X197797300Y-49331332D01*
X197761665Y-49510483D01*
X197691764Y-49679240D01*
X197590282Y-49831118D01*
X197461118Y-49960282D01*
X197309240Y-50061764D01*
X197140483Y-50131665D01*
X196961332Y-50167300D01*
X196778668Y-50167300D01*
X196599517Y-50131665D01*
X196430760Y-50061764D01*
X196278882Y-49960282D01*
X196149718Y-49831118D01*
X196048236Y-49679240D01*
X195978335Y-49510483D01*
X195942700Y-49331332D01*
X195942700Y-49148668D01*
X195978335Y-48969517D01*
X196048236Y-48800760D01*
X196149718Y-48648882D01*
X196278882Y-48519718D01*
X196430760Y-48418236D01*
X196599517Y-48348335D01*
X196778668Y-48312700D01*
X196961332Y-48312700D01*
X197140483Y-48348335D01*
G37*
G36*
X171561379Y-47018813D02*
G01*
X171800991Y-47109713D01*
X171876298Y-47156816D01*
X172018265Y-47245613D01*
X172204852Y-47421288D01*
X172313503Y-47573753D01*
X172353580Y-47629990D01*
X172458735Y-47863697D01*
X172458736Y-47863701D01*
X172516276Y-48113428D01*
X172522058Y-48305394D01*
X172514365Y-48418236D01*
X172473916Y-49011571D01*
X172442135Y-49200983D01*
X172351235Y-49440595D01*
X172285109Y-49546316D01*
X172215335Y-49657869D01*
X172039660Y-49844456D01*
X171906991Y-49939000D01*
X171830958Y-49993184D01*
X171597251Y-50098339D01*
X171597247Y-50098340D01*
X171347521Y-50155880D01*
X171091366Y-50163594D01*
X171091362Y-50163594D01*
X170838621Y-50121187D01*
X170599009Y-50030287D01*
X170381735Y-49894387D01*
X170328703Y-49844456D01*
X170195148Y-49718712D01*
X170072293Y-49546316D01*
X170046420Y-49510010D01*
X169941265Y-49276303D01*
X169934352Y-49246299D01*
X169883724Y-49026572D01*
X169877942Y-48834608D01*
X169926084Y-48128428D01*
X169931957Y-48093428D01*
X169957865Y-47939017D01*
X170048765Y-47699405D01*
X170184665Y-47482131D01*
X170194080Y-47472131D01*
X170360340Y-47295544D01*
X170555010Y-47156816D01*
X170569042Y-47146816D01*
X170802749Y-47041661D01*
X170802753Y-47041660D01*
X171052479Y-46984120D01*
X171308634Y-46976406D01*
X171308638Y-46976406D01*
X171561379Y-47018813D01*
G37*
G36*
X133551379Y-47018813D02*
G01*
X133790991Y-47109713D01*
X133866298Y-47156816D01*
X134008265Y-47245613D01*
X134194852Y-47421288D01*
X134303503Y-47573753D01*
X134343580Y-47629990D01*
X134448735Y-47863697D01*
X134448736Y-47863701D01*
X134506276Y-48113428D01*
X134512058Y-48305394D01*
X134504365Y-48418236D01*
X134463916Y-49011571D01*
X134432135Y-49200983D01*
X134341235Y-49440595D01*
X134275109Y-49546316D01*
X134205335Y-49657869D01*
X134029660Y-49844456D01*
X133896991Y-49939000D01*
X133820958Y-49993184D01*
X133587251Y-50098339D01*
X133587247Y-50098340D01*
X133337521Y-50155880D01*
X133081366Y-50163594D01*
X133081362Y-50163594D01*
X132828621Y-50121187D01*
X132589009Y-50030287D01*
X132371735Y-49894387D01*
X132318703Y-49844456D01*
X132185148Y-49718712D01*
X132062293Y-49546316D01*
X132036420Y-49510010D01*
X131931265Y-49276303D01*
X131924352Y-49246299D01*
X131873724Y-49026572D01*
X131867942Y-48834608D01*
X131916084Y-48128428D01*
X131921957Y-48093428D01*
X131947865Y-47939017D01*
X132038765Y-47699405D01*
X132174665Y-47482131D01*
X132184080Y-47472131D01*
X132350340Y-47295544D01*
X132545010Y-47156816D01*
X132559042Y-47146816D01*
X132792749Y-47041661D01*
X132792753Y-47041660D01*
X133042479Y-46984120D01*
X133298634Y-46976406D01*
X133298638Y-46976406D01*
X133551379Y-47018813D01*
G37*
G36*
X114551379Y-47008813D02*
G01*
X114790991Y-47099713D01*
X114866298Y-47146816D01*
X115008265Y-47235613D01*
X115194852Y-47411288D01*
X115303824Y-47564203D01*
X115343580Y-47619990D01*
X115448735Y-47853697D01*
X115448736Y-47853701D01*
X115506276Y-48103428D01*
X115512058Y-48295394D01*
X115506653Y-48374678D01*
X115463916Y-49001571D01*
X115432135Y-49190983D01*
X115341235Y-49430595D01*
X115275109Y-49536316D01*
X115205335Y-49647869D01*
X115029660Y-49834456D01*
X114882958Y-49939000D01*
X114820958Y-49983184D01*
X114587251Y-50088339D01*
X114587247Y-50088340D01*
X114337521Y-50145880D01*
X114081366Y-50153594D01*
X114081362Y-50153594D01*
X113828621Y-50111187D01*
X113589009Y-50020287D01*
X113371735Y-49884387D01*
X113318703Y-49834456D01*
X113185148Y-49708712D01*
X113062293Y-49536316D01*
X113036420Y-49500010D01*
X112931265Y-49266303D01*
X112918519Y-49210983D01*
X112873724Y-49016572D01*
X112867942Y-48824608D01*
X112916084Y-48118428D01*
X112921957Y-48083428D01*
X112947865Y-47929017D01*
X113038765Y-47689405D01*
X113174665Y-47472131D01*
X113184080Y-47462131D01*
X113350340Y-47285544D01*
X113530975Y-47156818D01*
X113559042Y-47136816D01*
X113792749Y-47031661D01*
X113805105Y-47028814D01*
X114042479Y-46974120D01*
X114298634Y-46966406D01*
X114298638Y-46966406D01*
X114551379Y-47008813D01*
G37*
G36*
X190571379Y-46998813D02*
G01*
X190810991Y-47089713D01*
X190890175Y-47139241D01*
X191028265Y-47225613D01*
X191214852Y-47401288D01*
X191323824Y-47554203D01*
X191363580Y-47609990D01*
X191468735Y-47843697D01*
X191468736Y-47843701D01*
X191526276Y-48093428D01*
X191532058Y-48285394D01*
X191516083Y-48519718D01*
X191483916Y-48991571D01*
X191452135Y-49180983D01*
X191361235Y-49420595D01*
X191295109Y-49526316D01*
X191225335Y-49637869D01*
X191049660Y-49824456D01*
X190893398Y-49935813D01*
X190840958Y-49973184D01*
X190607251Y-50078339D01*
X190607247Y-50078340D01*
X190357521Y-50135880D01*
X190101366Y-50143594D01*
X190101362Y-50143594D01*
X189848621Y-50101187D01*
X189609009Y-50010287D01*
X189391735Y-49874387D01*
X189349323Y-49834455D01*
X189205148Y-49698712D01*
X189082293Y-49526316D01*
X189056420Y-49490010D01*
X188951265Y-49256303D01*
X188938519Y-49200983D01*
X188893724Y-49006572D01*
X188887942Y-48814608D01*
X188936084Y-48108428D01*
X188940650Y-48081213D01*
X188967865Y-47919017D01*
X189058765Y-47679405D01*
X189194665Y-47462131D01*
X189204080Y-47452131D01*
X189370340Y-47275544D01*
X189550975Y-47146818D01*
X189579042Y-47126816D01*
X189812749Y-47021661D01*
X189825105Y-47018814D01*
X190062479Y-46964120D01*
X190318634Y-46956406D01*
X190318638Y-46956406D01*
X190571379Y-46998813D01*
G37*
G36*
X95591379Y-46998813D02*
G01*
X95830991Y-47089713D01*
X95910175Y-47139241D01*
X96048265Y-47225613D01*
X96234852Y-47401288D01*
X96343824Y-47554203D01*
X96383580Y-47609990D01*
X96488735Y-47843697D01*
X96488736Y-47843701D01*
X96546276Y-48093428D01*
X96552058Y-48285394D01*
X96536083Y-48519718D01*
X96503916Y-48991571D01*
X96472135Y-49180983D01*
X96381235Y-49420595D01*
X96315109Y-49526316D01*
X96245335Y-49637869D01*
X96069660Y-49824456D01*
X95913398Y-49935813D01*
X95860958Y-49973184D01*
X95627251Y-50078339D01*
X95627247Y-50078340D01*
X95377521Y-50135880D01*
X95121366Y-50143594D01*
X95121362Y-50143594D01*
X94868621Y-50101187D01*
X94629009Y-50010287D01*
X94411735Y-49874387D01*
X94369323Y-49834455D01*
X94225148Y-49698712D01*
X94102293Y-49526316D01*
X94076420Y-49490010D01*
X93971265Y-49256303D01*
X93958519Y-49200983D01*
X93913724Y-49006572D01*
X93907942Y-48814608D01*
X93956084Y-48108428D01*
X93960650Y-48081213D01*
X93987865Y-47919017D01*
X94078765Y-47679405D01*
X94214665Y-47462131D01*
X94224080Y-47452131D01*
X94390340Y-47275544D01*
X94570975Y-47146818D01*
X94599042Y-47126816D01*
X94832749Y-47021661D01*
X94845105Y-47018814D01*
X95082479Y-46964120D01*
X95338634Y-46956406D01*
X95338638Y-46956406D01*
X95591379Y-46998813D01*
G37*
G36*
X57561379Y-46988813D02*
G01*
X57800991Y-47079713D01*
X57924265Y-47156818D01*
X58018265Y-47215613D01*
X58204852Y-47391288D01*
X58297832Y-47521763D01*
X58353580Y-47599990D01*
X58458735Y-47833697D01*
X58458736Y-47833701D01*
X58516276Y-48083428D01*
X58522058Y-48275394D01*
X58517085Y-48348335D01*
X58473916Y-48981571D01*
X58442135Y-49170983D01*
X58351235Y-49410595D01*
X58215335Y-49627869D01*
X58039660Y-49814456D01*
X57913464Y-49904387D01*
X57830958Y-49963184D01*
X57597251Y-50068339D01*
X57597247Y-50068340D01*
X57347521Y-50125880D01*
X57091366Y-50133594D01*
X57091362Y-50133594D01*
X56838621Y-50091187D01*
X56599009Y-50000287D01*
X56381735Y-49864387D01*
X56328703Y-49814456D01*
X56195148Y-49688712D01*
X56072293Y-49516316D01*
X56046420Y-49480010D01*
X55941265Y-49246303D01*
X55928519Y-49190983D01*
X55883724Y-48996572D01*
X55877942Y-48804608D01*
X55926084Y-48098428D01*
X55930650Y-48071213D01*
X55957865Y-47909017D01*
X56048765Y-47669405D01*
X56184665Y-47452131D01*
X56204289Y-47431288D01*
X56360340Y-47265544D01*
X56540975Y-47136818D01*
X56569042Y-47116816D01*
X56802749Y-47011661D01*
X56815105Y-47008814D01*
X57052479Y-46954120D01*
X57308634Y-46946406D01*
X57308638Y-46946406D01*
X57561379Y-46988813D01*
G37*
G36*
X38541379Y-46988813D02*
G01*
X38780991Y-47079713D01*
X38904265Y-47156818D01*
X38998265Y-47215613D01*
X39184852Y-47391288D01*
X39277832Y-47521763D01*
X39333580Y-47599990D01*
X39438735Y-47833697D01*
X39438736Y-47833701D01*
X39496276Y-48083428D01*
X39502058Y-48275394D01*
X39497085Y-48348335D01*
X39453916Y-48981571D01*
X39422135Y-49170983D01*
X39331235Y-49410595D01*
X39195335Y-49627869D01*
X39019660Y-49814456D01*
X38893464Y-49904387D01*
X38810958Y-49963184D01*
X38577251Y-50068339D01*
X38577247Y-50068340D01*
X38327521Y-50125880D01*
X38071366Y-50133594D01*
X38071362Y-50133594D01*
X37818621Y-50091187D01*
X37579009Y-50000287D01*
X37361735Y-49864387D01*
X37308703Y-49814456D01*
X37175148Y-49688712D01*
X37052293Y-49516316D01*
X37026420Y-49480010D01*
X36921265Y-49246303D01*
X36908519Y-49190983D01*
X36863724Y-48996572D01*
X36857942Y-48804608D01*
X36906084Y-48098428D01*
X36910650Y-48071213D01*
X36937865Y-47909017D01*
X37028765Y-47669405D01*
X37164665Y-47452131D01*
X37184289Y-47431288D01*
X37340340Y-47265544D01*
X37520975Y-47136818D01*
X37549042Y-47116816D01*
X37782749Y-47011661D01*
X37795105Y-47008814D01*
X38032479Y-46954120D01*
X38288634Y-46946406D01*
X38288638Y-46946406D01*
X38541379Y-46988813D01*
G37*
G36*
X76581379Y-46988813D02*
G01*
X76820991Y-47079713D01*
X76944265Y-47156818D01*
X77038265Y-47215613D01*
X77224852Y-47391288D01*
X77317832Y-47521763D01*
X77373580Y-47599990D01*
X77478735Y-47833697D01*
X77478736Y-47833701D01*
X77536276Y-48083428D01*
X77542058Y-48275394D01*
X77537085Y-48348335D01*
X77493916Y-48981571D01*
X77462135Y-49170983D01*
X77371235Y-49410595D01*
X77235335Y-49627869D01*
X77059660Y-49814456D01*
X76933464Y-49904387D01*
X76850958Y-49963184D01*
X76617251Y-50068339D01*
X76617247Y-50068340D01*
X76367521Y-50125880D01*
X76111366Y-50133594D01*
X76111362Y-50133594D01*
X75858621Y-50091187D01*
X75619009Y-50000287D01*
X75401735Y-49864387D01*
X75348703Y-49814456D01*
X75215148Y-49688712D01*
X75092293Y-49516316D01*
X75066420Y-49480010D01*
X74961265Y-49246303D01*
X74948519Y-49190983D01*
X74903724Y-48996572D01*
X74897942Y-48804608D01*
X74946084Y-48098428D01*
X74950650Y-48071213D01*
X74977865Y-47909017D01*
X75068765Y-47669405D01*
X75204665Y-47452131D01*
X75224289Y-47431288D01*
X75380340Y-47265544D01*
X75560975Y-47136818D01*
X75589042Y-47116816D01*
X75822749Y-47011661D01*
X75835105Y-47008814D01*
X76072479Y-46954120D01*
X76328634Y-46946406D01*
X76328638Y-46946406D01*
X76581379Y-46988813D01*
G37*
G36*
X197140483Y-45808335D02*
G01*
X197309240Y-45878236D01*
X197461118Y-45979718D01*
X197590282Y-46108882D01*
X197691764Y-46260760D01*
X197761665Y-46429517D01*
X197797300Y-46608668D01*
X197797300Y-46791332D01*
X197761665Y-46970483D01*
X197691764Y-47139240D01*
X197590282Y-47291118D01*
X197461118Y-47420282D01*
X197309240Y-47521764D01*
X197140483Y-47591665D01*
X196961332Y-47627300D01*
X196778668Y-47627300D01*
X196599517Y-47591665D01*
X196430760Y-47521764D01*
X196278882Y-47420282D01*
X196149718Y-47291118D01*
X196048236Y-47139240D01*
X195978335Y-46970483D01*
X195942700Y-46791332D01*
X195942700Y-46608668D01*
X195978335Y-46429517D01*
X196048236Y-46260760D01*
X196149718Y-46108882D01*
X196278882Y-45979718D01*
X196430760Y-45878236D01*
X196599517Y-45808335D01*
X196778668Y-45772700D01*
X196961332Y-45772700D01*
X197140483Y-45808335D01*
G37*
G36*
X212380483Y-45808335D02*
G01*
X212549240Y-45878236D01*
X212701118Y-45979718D01*
X212830282Y-46108882D01*
X212931764Y-46260760D01*
X213001665Y-46429517D01*
X213037300Y-46608668D01*
X213037300Y-46791332D01*
X213001665Y-46970483D01*
X212931764Y-47139240D01*
X212830282Y-47291118D01*
X212701118Y-47420282D01*
X212549240Y-47521764D01*
X212380483Y-47591665D01*
X212201332Y-47627300D01*
X212018668Y-47627300D01*
X211839517Y-47591665D01*
X211670760Y-47521764D01*
X211518882Y-47420282D01*
X211389718Y-47291118D01*
X211288236Y-47139240D01*
X211218335Y-46970483D01*
X211182700Y-46791332D01*
X211182700Y-46608668D01*
X211218335Y-46429517D01*
X211288236Y-46260760D01*
X211389718Y-46108882D01*
X211518882Y-45979718D01*
X211670760Y-45878236D01*
X211839517Y-45808335D01*
X212018668Y-45772700D01*
X212201332Y-45772700D01*
X212380483Y-45808335D01*
G37*
G36*
X212380483Y-43268335D02*
G01*
X212549240Y-43338236D01*
X212701118Y-43439718D01*
X212830282Y-43568882D01*
X212931764Y-43720760D01*
X213001665Y-43889517D01*
X213037300Y-44068668D01*
X213037300Y-44251332D01*
X213001665Y-44430483D01*
X212931764Y-44599240D01*
X212830282Y-44751118D01*
X212701118Y-44880282D01*
X212549240Y-44981764D01*
X212380483Y-45051665D01*
X212201332Y-45087300D01*
X212018668Y-45087300D01*
X211839517Y-45051665D01*
X211670760Y-44981764D01*
X211518882Y-44880282D01*
X211389718Y-44751118D01*
X211288236Y-44599240D01*
X211218335Y-44430483D01*
X211182700Y-44251332D01*
X211182700Y-44068668D01*
X211218335Y-43889517D01*
X211288236Y-43720760D01*
X211389718Y-43568882D01*
X211518882Y-43439718D01*
X211670760Y-43338236D01*
X211839517Y-43268335D01*
X212018668Y-43232700D01*
X212201332Y-43232700D01*
X212380483Y-43268335D01*
G37*
G36*
X197140483Y-43268335D02*
G01*
X197309240Y-43338236D01*
X197461118Y-43439718D01*
X197590282Y-43568882D01*
X197691764Y-43720760D01*
X197761665Y-43889517D01*
X197797300Y-44068668D01*
X197797300Y-44251332D01*
X197761665Y-44430483D01*
X197691764Y-44599240D01*
X197590282Y-44751118D01*
X197461118Y-44880282D01*
X197309240Y-44981764D01*
X197140483Y-45051665D01*
X196961332Y-45087300D01*
X196778668Y-45087300D01*
X196599517Y-45051665D01*
X196430760Y-44981764D01*
X196278882Y-44880282D01*
X196149718Y-44751118D01*
X196048236Y-44599240D01*
X195978335Y-44430483D01*
X195942700Y-44251332D01*
X195942700Y-44068668D01*
X195978335Y-43889517D01*
X196048236Y-43720760D01*
X196149718Y-43568882D01*
X196278882Y-43439718D01*
X196430760Y-43338236D01*
X196599517Y-43268335D01*
X196778668Y-43232700D01*
X196961332Y-43232700D01*
X197140483Y-43268335D01*
G37*
G36*
X153648228Y-43151703D02*
G01*
X153803100Y-43215853D01*
X153942481Y-43308985D01*
X154061015Y-43427519D01*
X154154147Y-43566900D01*
X154218297Y-43721772D01*
X154251000Y-43886184D01*
X154251000Y-44053816D01*
X154218297Y-44218228D01*
X154154147Y-44373100D01*
X154061015Y-44512481D01*
X153942481Y-44631015D01*
X153803100Y-44724147D01*
X153648228Y-44788297D01*
X153483816Y-44821000D01*
X153316184Y-44821000D01*
X153151772Y-44788297D01*
X152996900Y-44724147D01*
X152857519Y-44631015D01*
X152738985Y-44512481D01*
X152645853Y-44373100D01*
X152581703Y-44218228D01*
X152549000Y-44053816D01*
X152549000Y-43886184D01*
X152581703Y-43721772D01*
X152645853Y-43566900D01*
X152738985Y-43427519D01*
X152857519Y-43308985D01*
X152996900Y-43215853D01*
X153151772Y-43151703D01*
X153316184Y-43119000D01*
X153483816Y-43119000D01*
X153648228Y-43151703D01*
G37*
G36*
X146451000Y-44821000D02*
G01*
X144749000Y-44821000D01*
X144749000Y-43119000D01*
X146451000Y-43119000D01*
X146451000Y-44821000D01*
G37*
G36*
X134788228Y-43131703D02*
G01*
X134943100Y-43195853D01*
X135082481Y-43288985D01*
X135201015Y-43407519D01*
X135294147Y-43546900D01*
X135358297Y-43701772D01*
X135391000Y-43866184D01*
X135391000Y-44033816D01*
X135358297Y-44198228D01*
X135294147Y-44353100D01*
X135201015Y-44492481D01*
X135082481Y-44611015D01*
X134943100Y-44704147D01*
X134788228Y-44768297D01*
X134623816Y-44801000D01*
X134456184Y-44801000D01*
X134291772Y-44768297D01*
X134136900Y-44704147D01*
X133997519Y-44611015D01*
X133878985Y-44492481D01*
X133785853Y-44353100D01*
X133721703Y-44198228D01*
X133689000Y-44033816D01*
X133689000Y-43866184D01*
X133721703Y-43701772D01*
X133785853Y-43546900D01*
X133878985Y-43407519D01*
X133997519Y-43288985D01*
X134136900Y-43195853D01*
X134291772Y-43131703D01*
X134456184Y-43099000D01*
X134623816Y-43099000D01*
X134788228Y-43131703D01*
G37*
G36*
X127591000Y-44801000D02*
G01*
X125889000Y-44801000D01*
X125889000Y-43099000D01*
X127591000Y-43099000D01*
X127591000Y-44801000D01*
G37*
G36*
X96998228Y-43121703D02*
G01*
X97153100Y-43185853D01*
X97292481Y-43278985D01*
X97411015Y-43397519D01*
X97504147Y-43536900D01*
X97568297Y-43691772D01*
X97601000Y-43856184D01*
X97601000Y-44023816D01*
X97568297Y-44188228D01*
X97504147Y-44343100D01*
X97411015Y-44482481D01*
X97292481Y-44601015D01*
X97153100Y-44694147D01*
X96998228Y-44758297D01*
X96833816Y-44791000D01*
X96666184Y-44791000D01*
X96501772Y-44758297D01*
X96346900Y-44694147D01*
X96207519Y-44601015D01*
X96088985Y-44482481D01*
X95995853Y-44343100D01*
X95931703Y-44188228D01*
X95899000Y-44023816D01*
X95899000Y-43856184D01*
X95931703Y-43691772D01*
X95995853Y-43536900D01*
X96088985Y-43397519D01*
X96207519Y-43278985D01*
X96346900Y-43185853D01*
X96501772Y-43121703D01*
X96666184Y-43089000D01*
X96833816Y-43089000D01*
X96998228Y-43121703D01*
G37*
G36*
X173078228Y-43121703D02*
G01*
X173233100Y-43185853D01*
X173372481Y-43278985D01*
X173491015Y-43397519D01*
X173584147Y-43536900D01*
X173648297Y-43691772D01*
X173681000Y-43856184D01*
X173681000Y-44023816D01*
X173648297Y-44188228D01*
X173584147Y-44343100D01*
X173491015Y-44482481D01*
X173372481Y-44601015D01*
X173233100Y-44694147D01*
X173078228Y-44758297D01*
X172913816Y-44791000D01*
X172746184Y-44791000D01*
X172581772Y-44758297D01*
X172426900Y-44694147D01*
X172287519Y-44601015D01*
X172168985Y-44482481D01*
X172075853Y-44343100D01*
X172011703Y-44188228D01*
X171979000Y-44023816D01*
X171979000Y-43856184D01*
X172011703Y-43691772D01*
X172075853Y-43536900D01*
X172168985Y-43397519D01*
X172287519Y-43278985D01*
X172426900Y-43185853D01*
X172581772Y-43121703D01*
X172746184Y-43089000D01*
X172913816Y-43089000D01*
X173078228Y-43121703D01*
G37*
G36*
X165881000Y-44791000D02*
G01*
X164179000Y-44791000D01*
X164179000Y-43089000D01*
X165881000Y-43089000D01*
X165881000Y-44791000D01*
G37*
G36*
X108811000Y-44791000D02*
G01*
X107109000Y-44791000D01*
X107109000Y-43089000D01*
X108811000Y-43089000D01*
X108811000Y-44791000D01*
G37*
G36*
X116008228Y-43121703D02*
G01*
X116163100Y-43185853D01*
X116302481Y-43278985D01*
X116421015Y-43397519D01*
X116514147Y-43536900D01*
X116578297Y-43691772D01*
X116611000Y-43856184D01*
X116611000Y-44023816D01*
X116578297Y-44188228D01*
X116514147Y-44343100D01*
X116421015Y-44482481D01*
X116302481Y-44601015D01*
X116163100Y-44694147D01*
X116008228Y-44758297D01*
X115843816Y-44791000D01*
X115676184Y-44791000D01*
X115511772Y-44758297D01*
X115356900Y-44694147D01*
X115217519Y-44601015D01*
X115098985Y-44482481D01*
X115005853Y-44343100D01*
X114941703Y-44188228D01*
X114909000Y-44023816D01*
X114909000Y-43856184D01*
X114941703Y-43691772D01*
X115005853Y-43536900D01*
X115098985Y-43397519D01*
X115217519Y-43278985D01*
X115356900Y-43185853D01*
X115511772Y-43121703D01*
X115676184Y-43089000D01*
X115843816Y-43089000D01*
X116008228Y-43121703D01*
G37*
G36*
X89801000Y-44791000D02*
G01*
X88099000Y-44791000D01*
X88099000Y-43089000D01*
X89801000Y-43089000D01*
X89801000Y-44791000D01*
G37*
G36*
X184681000Y-44781000D02*
G01*
X182979000Y-44781000D01*
X182979000Y-43079000D01*
X184681000Y-43079000D01*
X184681000Y-44781000D01*
G37*
G36*
X191878228Y-43111703D02*
G01*
X192033100Y-43175853D01*
X192172481Y-43268985D01*
X192291015Y-43387519D01*
X192384147Y-43526900D01*
X192448297Y-43681772D01*
X192481000Y-43846184D01*
X192481000Y-44013816D01*
X192448297Y-44178228D01*
X192384147Y-44333100D01*
X192291015Y-44472481D01*
X192172481Y-44591015D01*
X192033100Y-44684147D01*
X191878228Y-44748297D01*
X191713816Y-44781000D01*
X191546184Y-44781000D01*
X191381772Y-44748297D01*
X191226900Y-44684147D01*
X191087519Y-44591015D01*
X190968985Y-44472481D01*
X190875853Y-44333100D01*
X190811703Y-44178228D01*
X190779000Y-44013816D01*
X190779000Y-43846184D01*
X190811703Y-43681772D01*
X190875853Y-43526900D01*
X190968985Y-43387519D01*
X191087519Y-43268985D01*
X191226900Y-43175853D01*
X191381772Y-43111703D01*
X191546184Y-43079000D01*
X191713816Y-43079000D01*
X191878228Y-43111703D01*
G37*
G36*
X51871000Y-44761000D02*
G01*
X50169000Y-44761000D01*
X50169000Y-43059000D01*
X51871000Y-43059000D01*
X51871000Y-44761000D01*
G37*
G36*
X32531000Y-44761000D02*
G01*
X30829000Y-44761000D01*
X30829000Y-43059000D01*
X32531000Y-43059000D01*
X32531000Y-44761000D01*
G37*
G36*
X59068228Y-43091703D02*
G01*
X59223100Y-43155853D01*
X59362481Y-43248985D01*
X59481015Y-43367519D01*
X59574147Y-43506900D01*
X59638297Y-43661772D01*
X59671000Y-43826184D01*
X59671000Y-43993816D01*
X59638297Y-44158228D01*
X59574147Y-44313100D01*
X59481015Y-44452481D01*
X59362481Y-44571015D01*
X59223100Y-44664147D01*
X59068228Y-44728297D01*
X58903816Y-44761000D01*
X58736184Y-44761000D01*
X58571772Y-44728297D01*
X58416900Y-44664147D01*
X58277519Y-44571015D01*
X58158985Y-44452481D01*
X58065853Y-44313100D01*
X58001703Y-44158228D01*
X57969000Y-43993816D01*
X57969000Y-43826184D01*
X58001703Y-43661772D01*
X58065853Y-43506900D01*
X58158985Y-43367519D01*
X58277519Y-43248985D01*
X58416900Y-43155853D01*
X58571772Y-43091703D01*
X58736184Y-43059000D01*
X58903816Y-43059000D01*
X59068228Y-43091703D01*
G37*
G36*
X39728228Y-43091703D02*
G01*
X39883100Y-43155853D01*
X40022481Y-43248985D01*
X40141015Y-43367519D01*
X40234147Y-43506900D01*
X40298297Y-43661772D01*
X40331000Y-43826184D01*
X40331000Y-43993816D01*
X40298297Y-44158228D01*
X40234147Y-44313100D01*
X40141015Y-44452481D01*
X40022481Y-44571015D01*
X39883100Y-44664147D01*
X39728228Y-44728297D01*
X39563816Y-44761000D01*
X39396184Y-44761000D01*
X39231772Y-44728297D01*
X39076900Y-44664147D01*
X38937519Y-44571015D01*
X38818985Y-44452481D01*
X38725853Y-44313100D01*
X38661703Y-44158228D01*
X38629000Y-43993816D01*
X38629000Y-43826184D01*
X38661703Y-43661772D01*
X38725853Y-43506900D01*
X38818985Y-43367519D01*
X38937519Y-43248985D01*
X39076900Y-43155853D01*
X39231772Y-43091703D01*
X39396184Y-43059000D01*
X39563816Y-43059000D01*
X39728228Y-43091703D01*
G37*
G36*
X70721000Y-44741000D02*
G01*
X69019000Y-44741000D01*
X69019000Y-43039000D01*
X70721000Y-43039000D01*
X70721000Y-44741000D01*
G37*
G36*
X77918228Y-43071703D02*
G01*
X78073100Y-43135853D01*
X78212481Y-43228985D01*
X78331015Y-43347519D01*
X78424147Y-43486900D01*
X78488297Y-43641772D01*
X78521000Y-43806184D01*
X78521000Y-43973816D01*
X78488297Y-44138228D01*
X78424147Y-44293100D01*
X78331015Y-44432481D01*
X78212481Y-44551015D01*
X78073100Y-44644147D01*
X77918228Y-44708297D01*
X77753816Y-44741000D01*
X77586184Y-44741000D01*
X77421772Y-44708297D01*
X77266900Y-44644147D01*
X77127519Y-44551015D01*
X77008985Y-44432481D01*
X76915853Y-44293100D01*
X76851703Y-44138228D01*
X76819000Y-43973816D01*
X76819000Y-43806184D01*
X76851703Y-43641772D01*
X76915853Y-43486900D01*
X77008985Y-43347519D01*
X77127519Y-43228985D01*
X77266900Y-43135853D01*
X77421772Y-43071703D01*
X77586184Y-43039000D01*
X77753816Y-43039000D01*
X77918228Y-43071703D01*
G37*
G36*
X217761000Y-43041000D02*
G01*
X216259000Y-43041000D01*
X216259000Y-40839000D01*
X217761000Y-40839000D01*
X217761000Y-43041000D01*
G37*
G36*
X222261000Y-43041000D02*
G01*
X220759000Y-43041000D01*
X220759000Y-40839000D01*
X222261000Y-40839000D01*
X222261000Y-43041000D01*
G37*
G36*
X197140483Y-40728335D02*
G01*
X197309240Y-40798236D01*
X197461118Y-40899718D01*
X197590282Y-41028882D01*
X197691764Y-41180760D01*
X197761665Y-41349517D01*
X197797300Y-41528668D01*
X197797300Y-41711332D01*
X197761665Y-41890483D01*
X197691764Y-42059240D01*
X197590282Y-42211118D01*
X197461118Y-42340282D01*
X197309240Y-42441764D01*
X197140483Y-42511665D01*
X196961332Y-42547300D01*
X196778668Y-42547300D01*
X196599517Y-42511665D01*
X196430760Y-42441764D01*
X196278882Y-42340282D01*
X196149718Y-42211118D01*
X196048236Y-42059240D01*
X195978335Y-41890483D01*
X195942700Y-41711332D01*
X195942700Y-41528668D01*
X195978335Y-41349517D01*
X196048236Y-41180760D01*
X196149718Y-41028882D01*
X196278882Y-40899718D01*
X196430760Y-40798236D01*
X196599517Y-40728335D01*
X196778668Y-40692700D01*
X196961332Y-40692700D01*
X197140483Y-40728335D01*
G37*
G36*
X212380483Y-40728335D02*
G01*
X212549240Y-40798236D01*
X212701118Y-40899718D01*
X212830282Y-41028882D01*
X212931764Y-41180760D01*
X213001665Y-41349517D01*
X213037300Y-41528668D01*
X213037300Y-41711332D01*
X213001665Y-41890483D01*
X212931764Y-42059240D01*
X212830282Y-42211118D01*
X212701118Y-42340282D01*
X212549240Y-42441764D01*
X212380483Y-42511665D01*
X212201332Y-42547300D01*
X212018668Y-42547300D01*
X211839517Y-42511665D01*
X211670760Y-42441764D01*
X211518882Y-42340282D01*
X211389718Y-42211118D01*
X211288236Y-42059240D01*
X211218335Y-41890483D01*
X211182700Y-41711332D01*
X211182700Y-41528668D01*
X211218335Y-41349517D01*
X211288236Y-41180760D01*
X211389718Y-41028882D01*
X211518882Y-40899718D01*
X211670760Y-40798236D01*
X211839517Y-40728335D01*
X212018668Y-40692700D01*
X212201332Y-40692700D01*
X212380483Y-40728335D01*
G37*
G36*
X212380483Y-38188335D02*
G01*
X212549240Y-38258236D01*
X212701118Y-38359718D01*
X212830282Y-38488882D01*
X212931764Y-38640760D01*
X213001665Y-38809517D01*
X213037300Y-38988668D01*
X213037300Y-39171332D01*
X213001665Y-39350483D01*
X212931764Y-39519240D01*
X212830282Y-39671118D01*
X212701118Y-39800282D01*
X212549240Y-39901764D01*
X212380483Y-39971665D01*
X212201332Y-40007300D01*
X212018668Y-40007300D01*
X211839517Y-39971665D01*
X211670760Y-39901764D01*
X211518882Y-39800282D01*
X211389718Y-39671118D01*
X211288236Y-39519240D01*
X211218335Y-39350483D01*
X211182700Y-39171332D01*
X211182700Y-38988668D01*
X211218335Y-38809517D01*
X211288236Y-38640760D01*
X211389718Y-38488882D01*
X211518882Y-38359718D01*
X211670760Y-38258236D01*
X211839517Y-38188335D01*
X212018668Y-38152700D01*
X212201332Y-38152700D01*
X212380483Y-38188335D01*
G37*
G36*
X197140483Y-38188335D02*
G01*
X197309240Y-38258236D01*
X197461118Y-38359718D01*
X197590282Y-38488882D01*
X197691764Y-38640760D01*
X197761665Y-38809517D01*
X197797300Y-38988668D01*
X197797300Y-39171332D01*
X197761665Y-39350483D01*
X197691764Y-39519240D01*
X197590282Y-39671118D01*
X197461118Y-39800282D01*
X197309240Y-39901764D01*
X197140483Y-39971665D01*
X196961332Y-40007300D01*
X196778668Y-40007300D01*
X196599517Y-39971665D01*
X196430760Y-39901764D01*
X196278882Y-39800282D01*
X196149718Y-39671118D01*
X196048236Y-39519240D01*
X195978335Y-39350483D01*
X195942700Y-39171332D01*
X195942700Y-38988668D01*
X195978335Y-38809517D01*
X196048236Y-38640760D01*
X196149718Y-38488882D01*
X196278882Y-38359718D01*
X196430760Y-38258236D01*
X196599517Y-38188335D01*
X196778668Y-38152700D01*
X196961332Y-38152700D01*
X197140483Y-38188335D01*
G37*
G36*
X197140483Y-35648335D02*
G01*
X197309240Y-35718236D01*
X197461118Y-35819718D01*
X197590282Y-35948882D01*
X197691764Y-36100760D01*
X197761665Y-36269517D01*
X197797300Y-36448668D01*
X197797300Y-36631332D01*
X197761665Y-36810483D01*
X197691764Y-36979240D01*
X197590282Y-37131118D01*
X197461118Y-37260282D01*
X197309240Y-37361764D01*
X197140483Y-37431665D01*
X196961332Y-37467300D01*
X196778668Y-37467300D01*
X196599517Y-37431665D01*
X196430760Y-37361764D01*
X196278882Y-37260282D01*
X196149718Y-37131118D01*
X196048236Y-36979240D01*
X195978335Y-36810483D01*
X195942700Y-36631332D01*
X195942700Y-36448668D01*
X195978335Y-36269517D01*
X196048236Y-36100760D01*
X196149718Y-35948882D01*
X196278882Y-35819718D01*
X196430760Y-35718236D01*
X196599517Y-35648335D01*
X196778668Y-35612700D01*
X196961332Y-35612700D01*
X197140483Y-35648335D01*
G37*
G36*
X212380483Y-35648335D02*
G01*
X212549240Y-35718236D01*
X212701118Y-35819718D01*
X212830282Y-35948882D01*
X212931764Y-36100760D01*
X213001665Y-36269517D01*
X213037300Y-36448668D01*
X213037300Y-36631332D01*
X213001665Y-36810483D01*
X212931764Y-36979240D01*
X212830282Y-37131118D01*
X212701118Y-37260282D01*
X212549240Y-37361764D01*
X212380483Y-37431665D01*
X212201332Y-37467300D01*
X212018668Y-37467300D01*
X211839517Y-37431665D01*
X211670760Y-37361764D01*
X211518882Y-37260282D01*
X211389718Y-37131118D01*
X211288236Y-36979240D01*
X211218335Y-36810483D01*
X211182700Y-36631332D01*
X211182700Y-36448668D01*
X211218335Y-36269517D01*
X211288236Y-36100760D01*
X211389718Y-35948882D01*
X211518882Y-35819718D01*
X211670760Y-35718236D01*
X211839517Y-35648335D01*
X212018668Y-35612700D01*
X212201332Y-35612700D01*
X212380483Y-35648335D01*
G37*
G36*
X212380483Y-33108335D02*
G01*
X212549240Y-33178236D01*
X212701118Y-33279718D01*
X212830282Y-33408882D01*
X212931764Y-33560760D01*
X213001665Y-33729517D01*
X213037300Y-33908668D01*
X213037300Y-34091332D01*
X213001665Y-34270483D01*
X212931764Y-34439240D01*
X212830282Y-34591118D01*
X212701118Y-34720282D01*
X212549240Y-34821764D01*
X212380483Y-34891665D01*
X212201332Y-34927300D01*
X212018668Y-34927300D01*
X211839517Y-34891665D01*
X211670760Y-34821764D01*
X211518882Y-34720282D01*
X211389718Y-34591118D01*
X211288236Y-34439240D01*
X211218335Y-34270483D01*
X211182700Y-34091332D01*
X211182700Y-33908668D01*
X211218335Y-33729517D01*
X211288236Y-33560760D01*
X211389718Y-33408882D01*
X211518882Y-33279718D01*
X211670760Y-33178236D01*
X211839517Y-33108335D01*
X212018668Y-33072700D01*
X212201332Y-33072700D01*
X212380483Y-33108335D01*
G37*
G36*
X197140483Y-33108335D02*
G01*
X197309240Y-33178236D01*
X197461118Y-33279718D01*
X197590282Y-33408882D01*
X197691764Y-33560760D01*
X197761665Y-33729517D01*
X197797300Y-33908668D01*
X197797300Y-34091332D01*
X197761665Y-34270483D01*
X197691764Y-34439240D01*
X197590282Y-34591118D01*
X197461118Y-34720282D01*
X197309240Y-34821764D01*
X197140483Y-34891665D01*
X196961332Y-34927300D01*
X196778668Y-34927300D01*
X196599517Y-34891665D01*
X196430760Y-34821764D01*
X196278882Y-34720282D01*
X196149718Y-34591118D01*
X196048236Y-34439240D01*
X195978335Y-34270483D01*
X195942700Y-34091332D01*
X195942700Y-33908668D01*
X195978335Y-33729517D01*
X196048236Y-33560760D01*
X196149718Y-33408882D01*
X196278882Y-33279718D01*
X196430760Y-33178236D01*
X196599517Y-33108335D01*
X196778668Y-33072700D01*
X196961332Y-33072700D01*
X197140483Y-33108335D01*
G37*
G36*
X36446823Y-32161313D02*
G01*
X36607242Y-32209976D01*
X36739906Y-32280886D01*
X36755078Y-32288996D01*
X36884659Y-32395341D01*
X36991004Y-32524922D01*
X36991005Y-32524924D01*
X37070024Y-32672758D01*
X37070025Y-32672761D01*
X37082178Y-32712825D01*
X37118687Y-32833178D01*
X37131000Y-32958197D01*
X37131000Y-33441804D01*
X37118687Y-33566823D01*
X37070024Y-33727242D01*
X36999114Y-33859906D01*
X36991004Y-33875078D01*
X36963437Y-33908668D01*
X36884659Y-34004659D01*
X36755077Y-34111005D01*
X36607241Y-34190024D01*
X36446822Y-34238687D01*
X36280000Y-34255117D01*
X36113177Y-34238687D01*
X35952758Y-34190024D01*
X35804924Y-34111005D01*
X35804922Y-34111004D01*
X35675341Y-34004659D01*
X35568995Y-33875077D01*
X35489976Y-33727241D01*
X35441313Y-33566822D01*
X35429000Y-33441803D01*
X35429000Y-32958196D01*
X35441313Y-32833177D01*
X35489976Y-32672758D01*
X35568995Y-32524924D01*
X35568996Y-32524922D01*
X35675342Y-32395341D01*
X35804923Y-32288996D01*
X35820095Y-32280886D01*
X35952759Y-32209976D01*
X36113178Y-32161313D01*
X36280000Y-32144883D01*
X36446823Y-32161313D01*
G37*
G36*
X31846823Y-31061313D02*
G01*
X32007242Y-31109976D01*
X32093122Y-31155880D01*
X32155078Y-31188996D01*
X32284659Y-31295341D01*
X32391004Y-31424922D01*
X32391005Y-31424924D01*
X32470024Y-31572758D01*
X32518687Y-31733178D01*
X32531000Y-31858197D01*
X32531000Y-32341804D01*
X32518687Y-32466823D01*
X32470024Y-32627242D01*
X32424279Y-32712825D01*
X32391004Y-32775078D01*
X32311972Y-32871378D01*
X32284659Y-32904659D01*
X32155077Y-33011005D01*
X32007241Y-33090024D01*
X31846822Y-33138687D01*
X31680000Y-33155117D01*
X31513177Y-33138687D01*
X31352758Y-33090024D01*
X31204924Y-33011005D01*
X31204922Y-33011004D01*
X31075341Y-32904659D01*
X30968995Y-32775077D01*
X30889976Y-32627241D01*
X30841313Y-32466822D01*
X30829000Y-32341803D01*
X30829000Y-31858196D01*
X30841313Y-31733177D01*
X30889976Y-31572758D01*
X30968995Y-31424924D01*
X30968996Y-31424922D01*
X31075342Y-31295341D01*
X31204923Y-31188996D01*
X31266879Y-31155880D01*
X31352759Y-31109976D01*
X31513178Y-31061313D01*
X31680000Y-31044883D01*
X31846823Y-31061313D01*
G37*
G36*
X99650483Y-28614879D02*
G01*
X99766471Y-28623753D01*
X99806253Y-28634879D01*
X100013275Y-28692777D01*
X100241870Y-28808625D01*
X100241872Y-28808626D01*
X100241873Y-28808627D01*
X100273817Y-28833697D01*
X100443472Y-28966843D01*
X100610334Y-29161353D01*
X100736043Y-29384678D01*
X100777431Y-29511119D01*
X100815768Y-29628239D01*
X100844033Y-29862667D01*
X100846444Y-29882667D01*
X100826895Y-30138195D01*
X100785454Y-30286371D01*
X100757870Y-30385000D01*
X100719559Y-30460596D01*
X100671050Y-30556316D01*
X99393454Y-32561738D01*
X99393452Y-32561740D01*
X99274880Y-32712826D01*
X99080373Y-32879686D01*
X98945873Y-32955395D01*
X98857045Y-33005396D01*
X98701694Y-33056247D01*
X98613484Y-33085121D01*
X98359057Y-33115797D01*
X98359056Y-33115797D01*
X98103529Y-33096248D01*
X97856725Y-33027223D01*
X97856724Y-33027223D01*
X97856722Y-33027222D01*
X97628135Y-32911378D01*
X97628133Y-32911377D01*
X97628130Y-32911375D01*
X97426528Y-32753157D01*
X97426524Y-32753154D01*
X97259667Y-32558650D01*
X97163215Y-32387300D01*
X97133957Y-32335322D01*
X97054233Y-32091764D01*
X97054232Y-32091761D01*
X97023556Y-31837334D01*
X97027381Y-31787333D01*
X97043105Y-31581806D01*
X97112130Y-31335002D01*
X97112130Y-31335001D01*
X97186123Y-31188996D01*
X97198950Y-31163685D01*
X98476545Y-29158262D01*
X98595119Y-29007175D01*
X98674570Y-28939017D01*
X98789630Y-28840312D01*
X99012948Y-28714606D01*
X99074054Y-28694604D01*
X99256511Y-28634880D01*
X99256512Y-28634880D01*
X99256515Y-28634879D01*
X99510941Y-28604203D01*
X99510943Y-28604203D01*
X99650483Y-28614879D01*
G37*
G36*
X80660483Y-28594879D02*
G01*
X80776471Y-28603753D01*
X80816253Y-28614879D01*
X81023275Y-28672777D01*
X81251870Y-28788625D01*
X81251872Y-28788626D01*
X81251873Y-28788627D01*
X81309301Y-28833697D01*
X81453472Y-28946843D01*
X81620334Y-29141353D01*
X81746043Y-29364678D01*
X81815947Y-29578236D01*
X81825768Y-29608239D01*
X81854033Y-29842667D01*
X81856444Y-29862667D01*
X81836895Y-30118195D01*
X81792677Y-30276299D01*
X81767870Y-30365000D01*
X81729559Y-30440596D01*
X81681050Y-30536316D01*
X80403454Y-32541738D01*
X80390181Y-32558650D01*
X80284880Y-32692826D01*
X80090373Y-32859686D01*
X79998545Y-32911375D01*
X79867045Y-32985396D01*
X79715137Y-33035120D01*
X79623484Y-33065121D01*
X79369057Y-33095797D01*
X79369056Y-33095797D01*
X79113529Y-33076248D01*
X78866725Y-33007223D01*
X78866724Y-33007223D01*
X78866722Y-33007222D01*
X78638135Y-32891378D01*
X78638133Y-32891377D01*
X78638130Y-32891375D01*
X78436528Y-32733157D01*
X78436524Y-32733154D01*
X78269667Y-32538650D01*
X78184473Y-32387300D01*
X78143957Y-32315322D01*
X78064233Y-32071764D01*
X78064232Y-32071761D01*
X78033556Y-31817334D01*
X78035851Y-31787333D01*
X78053105Y-31561806D01*
X78122130Y-31315002D01*
X78122130Y-31315001D01*
X78208950Y-31143685D01*
X79486545Y-29138262D01*
X79605119Y-28987175D01*
X79749052Y-28863701D01*
X79799630Y-28820312D01*
X80022948Y-28694606D01*
X80022954Y-28694604D01*
X80266511Y-28614880D01*
X80266512Y-28614880D01*
X80266515Y-28614879D01*
X80520941Y-28584203D01*
X80520943Y-28584203D01*
X80660483Y-28594879D01*
G37*
G36*
X180390483Y-28594879D02*
G01*
X180506471Y-28603753D01*
X180546253Y-28614879D01*
X180753275Y-28672777D01*
X180981870Y-28788625D01*
X180981872Y-28788626D01*
X180981873Y-28788627D01*
X181039301Y-28833697D01*
X181183472Y-28946843D01*
X181350334Y-29141353D01*
X181476043Y-29364678D01*
X181545947Y-29578236D01*
X181555768Y-29608239D01*
X181584033Y-29842667D01*
X181586444Y-29862667D01*
X181566895Y-30118195D01*
X181522677Y-30276299D01*
X181497870Y-30365000D01*
X181459559Y-30440596D01*
X181411050Y-30536316D01*
X180133454Y-32541738D01*
X180120181Y-32558650D01*
X180014880Y-32692826D01*
X179820373Y-32859686D01*
X179728545Y-32911375D01*
X179597045Y-32985396D01*
X179445137Y-33035120D01*
X179353484Y-33065121D01*
X179099057Y-33095797D01*
X179099056Y-33095797D01*
X178843529Y-33076248D01*
X178596725Y-33007223D01*
X178596724Y-33007223D01*
X178596722Y-33007222D01*
X178368135Y-32891378D01*
X178368133Y-32891377D01*
X178368130Y-32891375D01*
X178166528Y-32733157D01*
X178166524Y-32733154D01*
X177999667Y-32538650D01*
X177914473Y-32387300D01*
X177873957Y-32315322D01*
X177794233Y-32071764D01*
X177794232Y-32071761D01*
X177763556Y-31817334D01*
X177765851Y-31787333D01*
X177783105Y-31561806D01*
X177852130Y-31315002D01*
X177852130Y-31315001D01*
X177895540Y-31229344D01*
X177938950Y-31143685D01*
X179216545Y-29138262D01*
X179335119Y-28987175D01*
X179479052Y-28863701D01*
X179529630Y-28820312D01*
X179752948Y-28694606D01*
X179752954Y-28694604D01*
X179996511Y-28614880D01*
X179996512Y-28614880D01*
X179996515Y-28614879D01*
X180250941Y-28584203D01*
X180250943Y-28584203D01*
X180390483Y-28594879D01*
G37*
G36*
X156666294Y-28577236D02*
G01*
X156751471Y-28583753D01*
X156791253Y-28594879D01*
X156998275Y-28652777D01*
X157226870Y-28768625D01*
X157226872Y-28768626D01*
X157226873Y-28768627D01*
X157309785Y-28833697D01*
X157428472Y-28926843D01*
X157595334Y-29121353D01*
X157721043Y-29344678D01*
X157775524Y-29511118D01*
X157800768Y-29588239D01*
X157819278Y-29741763D01*
X157831444Y-29842667D01*
X157811895Y-30098195D01*
X157779925Y-30212505D01*
X157742870Y-30345000D01*
X157704559Y-30420596D01*
X157656050Y-30516316D01*
X156378454Y-32521738D01*
X156349485Y-32558650D01*
X156259880Y-32672826D01*
X156065373Y-32839686D01*
X155973545Y-32891375D01*
X155842045Y-32965396D01*
X155629037Y-33035120D01*
X155598484Y-33045121D01*
X155344057Y-33075797D01*
X155344056Y-33075797D01*
X155088529Y-33056248D01*
X154841725Y-32987223D01*
X154841724Y-32987223D01*
X154841722Y-32987222D01*
X154613135Y-32871378D01*
X154613133Y-32871377D01*
X154613130Y-32871375D01*
X154411528Y-32713157D01*
X154411524Y-32713154D01*
X154244667Y-32518650D01*
X154145121Y-32341803D01*
X154118957Y-32295322D01*
X154039233Y-32051764D01*
X154039232Y-32051761D01*
X154008556Y-31797334D01*
X154013464Y-31733178D01*
X154028105Y-31541806D01*
X154097130Y-31295002D01*
X154097130Y-31295001D01*
X154157499Y-31175880D01*
X154183950Y-31123685D01*
X155461545Y-29118262D01*
X155580119Y-28967175D01*
X155647913Y-28909017D01*
X155774630Y-28800312D01*
X155997948Y-28674606D01*
X155997954Y-28674604D01*
X156241511Y-28594880D01*
X156241512Y-28594880D01*
X156241515Y-28594879D01*
X156495941Y-28564203D01*
X156495943Y-28564203D01*
X156666294Y-28577236D01*
G37*
G36*
X137691294Y-28577236D02*
G01*
X137776471Y-28583753D01*
X137816253Y-28594879D01*
X138023275Y-28652777D01*
X138251870Y-28768625D01*
X138251872Y-28768626D01*
X138251873Y-28768627D01*
X138334785Y-28833697D01*
X138453472Y-28926843D01*
X138620334Y-29121353D01*
X138746043Y-29344678D01*
X138800524Y-29511118D01*
X138825768Y-29588239D01*
X138844278Y-29741763D01*
X138856444Y-29842667D01*
X138836895Y-30098195D01*
X138804925Y-30212505D01*
X138767870Y-30345000D01*
X138729559Y-30420596D01*
X138681050Y-30516316D01*
X137403454Y-32521738D01*
X137374485Y-32558650D01*
X137284880Y-32672826D01*
X137090373Y-32839686D01*
X136998545Y-32891375D01*
X136867045Y-32965396D01*
X136654037Y-33035120D01*
X136623484Y-33045121D01*
X136369057Y-33075797D01*
X136369056Y-33075797D01*
X136113529Y-33056248D01*
X135866725Y-32987223D01*
X135866724Y-32987223D01*
X135866722Y-32987222D01*
X135638135Y-32871378D01*
X135638133Y-32871377D01*
X135638130Y-32871375D01*
X135436528Y-32713157D01*
X135436524Y-32713154D01*
X135269667Y-32518650D01*
X135170121Y-32341803D01*
X135143957Y-32295322D01*
X135064233Y-32051764D01*
X135064232Y-32051761D01*
X135033556Y-31797334D01*
X135038464Y-31733178D01*
X135053105Y-31541806D01*
X135122130Y-31295002D01*
X135122130Y-31295001D01*
X135182499Y-31175880D01*
X135208950Y-31123685D01*
X136486545Y-29118262D01*
X136605119Y-28967175D01*
X136672913Y-28909017D01*
X136799630Y-28800312D01*
X137022948Y-28674606D01*
X137022954Y-28674604D01*
X137266511Y-28594880D01*
X137266512Y-28594880D01*
X137266515Y-28594879D01*
X137520941Y-28564203D01*
X137520943Y-28564203D01*
X137691294Y-28577236D01*
G37*
G36*
X61671294Y-28577236D02*
G01*
X61756471Y-28583753D01*
X61796253Y-28594879D01*
X62003275Y-28652777D01*
X62231870Y-28768625D01*
X62231872Y-28768626D01*
X62231873Y-28768627D01*
X62314785Y-28833697D01*
X62433472Y-28926843D01*
X62600334Y-29121353D01*
X62726043Y-29344678D01*
X62780524Y-29511118D01*
X62805768Y-29588239D01*
X62824278Y-29741763D01*
X62836444Y-29842667D01*
X62816895Y-30098195D01*
X62784925Y-30212505D01*
X62747870Y-30345000D01*
X62709559Y-30420596D01*
X62661050Y-30516316D01*
X61383454Y-32521738D01*
X61354485Y-32558650D01*
X61264880Y-32672826D01*
X61070373Y-32839686D01*
X60978545Y-32891375D01*
X60847045Y-32965396D01*
X60634037Y-33035120D01*
X60603484Y-33045121D01*
X60349057Y-33075797D01*
X60349056Y-33075797D01*
X60093529Y-33056248D01*
X59846725Y-32987223D01*
X59846724Y-32987223D01*
X59846722Y-32987222D01*
X59618135Y-32871378D01*
X59618133Y-32871377D01*
X59618130Y-32871375D01*
X59416528Y-32713157D01*
X59416524Y-32713154D01*
X59249667Y-32518650D01*
X59150121Y-32341803D01*
X59123957Y-32295322D01*
X59044233Y-32051764D01*
X59044232Y-32051761D01*
X59013556Y-31797334D01*
X59018464Y-31733178D01*
X59033105Y-31541806D01*
X59102130Y-31295002D01*
X59102130Y-31295001D01*
X59162499Y-31175880D01*
X59188950Y-31123685D01*
X60466545Y-29118262D01*
X60585119Y-28967175D01*
X60652913Y-28909017D01*
X60779630Y-28800312D01*
X61002948Y-28674606D01*
X61002954Y-28674604D01*
X61246511Y-28594880D01*
X61246512Y-28594880D01*
X61246515Y-28594879D01*
X61500941Y-28564203D01*
X61500943Y-28564203D01*
X61671294Y-28577236D01*
G37*
G36*
X42671294Y-28577236D02*
G01*
X42756471Y-28583753D01*
X42796253Y-28594879D01*
X43003275Y-28652777D01*
X43231870Y-28768625D01*
X43231872Y-28768626D01*
X43231873Y-28768627D01*
X43314785Y-28833697D01*
X43433472Y-28926843D01*
X43600334Y-29121353D01*
X43726043Y-29344678D01*
X43780524Y-29511118D01*
X43805768Y-29588239D01*
X43824278Y-29741763D01*
X43836444Y-29842667D01*
X43816895Y-30098195D01*
X43784925Y-30212505D01*
X43747870Y-30345000D01*
X43709559Y-30420596D01*
X43661050Y-30516316D01*
X42383454Y-32521738D01*
X42354485Y-32558650D01*
X42264880Y-32672826D01*
X42070373Y-32839686D01*
X41978545Y-32891375D01*
X41847045Y-32965396D01*
X41634037Y-33035120D01*
X41603484Y-33045121D01*
X41349057Y-33075797D01*
X41349056Y-33075797D01*
X41093529Y-33056248D01*
X40846725Y-32987223D01*
X40846724Y-32987223D01*
X40846722Y-32987222D01*
X40618135Y-32871378D01*
X40618133Y-32871377D01*
X40618130Y-32871375D01*
X40416528Y-32713157D01*
X40416524Y-32713154D01*
X40249667Y-32518650D01*
X40150121Y-32341803D01*
X40123957Y-32295322D01*
X40044233Y-32051764D01*
X40044232Y-32051761D01*
X40013556Y-31797334D01*
X40018464Y-31733178D01*
X40033105Y-31541806D01*
X40102130Y-31295002D01*
X40102130Y-31295001D01*
X40162499Y-31175880D01*
X40188950Y-31123685D01*
X41466545Y-29118262D01*
X41585119Y-28967175D01*
X41652913Y-28909017D01*
X41779630Y-28800312D01*
X42002948Y-28674606D01*
X42002954Y-28674604D01*
X42246511Y-28594880D01*
X42246512Y-28594880D01*
X42246515Y-28594879D01*
X42500941Y-28564203D01*
X42500943Y-28564203D01*
X42671294Y-28577236D01*
G37*
G36*
X118651647Y-28564203D02*
G01*
X118776471Y-28573753D01*
X118816253Y-28584879D01*
X119023275Y-28642777D01*
X119251870Y-28758625D01*
X119251872Y-28758626D01*
X119251873Y-28758627D01*
X119347527Y-28833697D01*
X119453472Y-28916843D01*
X119620334Y-29111353D01*
X119746043Y-29334678D01*
X119824358Y-29573931D01*
X119825768Y-29578239D01*
X119831796Y-29628236D01*
X119856444Y-29832667D01*
X119836895Y-30088195D01*
X119799757Y-30220983D01*
X119767870Y-30335000D01*
X119729559Y-30410596D01*
X119681050Y-30506316D01*
X118403454Y-32511738D01*
X118366637Y-32558650D01*
X118284880Y-32662826D01*
X118090373Y-32829686D01*
X117953755Y-32906587D01*
X117867045Y-32955396D01*
X117647612Y-33027223D01*
X117623484Y-33035121D01*
X117369057Y-33065797D01*
X117369056Y-33065797D01*
X117113529Y-33046248D01*
X116866725Y-32977223D01*
X116866724Y-32977223D01*
X116866722Y-32977222D01*
X116638135Y-32861378D01*
X116638133Y-32861377D01*
X116638130Y-32861375D01*
X116436528Y-32703157D01*
X116436524Y-32703154D01*
X116269667Y-32508650D01*
X116175748Y-32341799D01*
X116143957Y-32285322D01*
X116064233Y-32041764D01*
X116064232Y-32041761D01*
X116033556Y-31787334D01*
X116037699Y-31733177D01*
X116053105Y-31531806D01*
X116108146Y-31335002D01*
X116122130Y-31285001D01*
X116183657Y-31163594D01*
X116208950Y-31113685D01*
X117486545Y-29108262D01*
X117605119Y-28957175D01*
X117737395Y-28843701D01*
X117799630Y-28790312D01*
X118022948Y-28664606D01*
X118022954Y-28664604D01*
X118266511Y-28584880D01*
X118266512Y-28584880D01*
X118266515Y-28584879D01*
X118520941Y-28554203D01*
X118520943Y-28554203D01*
X118651647Y-28564203D01*
G37*
G36*
X197140483Y-30568335D02*
G01*
X197309240Y-30638236D01*
X197461118Y-30739718D01*
X197590282Y-30868882D01*
X197691764Y-31020760D01*
X197761665Y-31189517D01*
X197797300Y-31368668D01*
X197797300Y-31551332D01*
X197761665Y-31730483D01*
X197691764Y-31899240D01*
X197590282Y-32051118D01*
X197461118Y-32180282D01*
X197309240Y-32281764D01*
X197140483Y-32351665D01*
X196961332Y-32387300D01*
X196778668Y-32387300D01*
X196599517Y-32351665D01*
X196430760Y-32281764D01*
X196278882Y-32180282D01*
X196149718Y-32051118D01*
X196048236Y-31899240D01*
X195978335Y-31730483D01*
X195942700Y-31551332D01*
X195942700Y-31368668D01*
X195978335Y-31189517D01*
X196048236Y-31020760D01*
X196149718Y-30868882D01*
X196278882Y-30739718D01*
X196430760Y-30638236D01*
X196599517Y-30568335D01*
X196778668Y-30532700D01*
X196961332Y-30532700D01*
X197140483Y-30568335D01*
G37*
G36*
X212380483Y-30568335D02*
G01*
X212549240Y-30638236D01*
X212701118Y-30739718D01*
X212830282Y-30868882D01*
X212931764Y-31020760D01*
X213001665Y-31189517D01*
X213037300Y-31368668D01*
X213037300Y-31551332D01*
X213001665Y-31730483D01*
X212931764Y-31899240D01*
X212830282Y-32051118D01*
X212701118Y-32180282D01*
X212549240Y-32281764D01*
X212380483Y-32351665D01*
X212201332Y-32387300D01*
X212018668Y-32387300D01*
X211839517Y-32351665D01*
X211670760Y-32281764D01*
X211518882Y-32180282D01*
X211389718Y-32051118D01*
X211288236Y-31899240D01*
X211218335Y-31730483D01*
X211182700Y-31551332D01*
X211182700Y-31368668D01*
X211218335Y-31189517D01*
X211288236Y-31020760D01*
X211389718Y-30868882D01*
X211518882Y-30739718D01*
X211670760Y-30638236D01*
X211839517Y-30568335D01*
X212018668Y-30532700D01*
X212201332Y-30532700D01*
X212380483Y-30568335D01*
G37*
G36*
X105071379Y-28038813D02*
G01*
X105310991Y-28129713D01*
X105422913Y-28199718D01*
X105528265Y-28265613D01*
X105714852Y-28441288D01*
X105817179Y-28584879D01*
X105863580Y-28649990D01*
X105968735Y-28883697D01*
X105968736Y-28883701D01*
X106026276Y-29133428D01*
X106032058Y-29325394D01*
X106028016Y-29384678D01*
X105983916Y-30031571D01*
X105952135Y-30220983D01*
X105861235Y-30460595D01*
X105750124Y-30638237D01*
X105725335Y-30677869D01*
X105549660Y-30864456D01*
X105411120Y-30963184D01*
X105340958Y-31013184D01*
X105107251Y-31118339D01*
X105107247Y-31118340D01*
X104857521Y-31175880D01*
X104601366Y-31183594D01*
X104601362Y-31183594D01*
X104348621Y-31141187D01*
X104109009Y-31050287D01*
X103891735Y-30914387D01*
X103870493Y-30894387D01*
X103705148Y-30738712D01*
X103566690Y-30544421D01*
X103556420Y-30530010D01*
X103451265Y-30296303D01*
X103448977Y-30286373D01*
X103393724Y-30046572D01*
X103387942Y-29854608D01*
X103436084Y-29148428D01*
X103442824Y-29108260D01*
X103467865Y-28959017D01*
X103558765Y-28719405D01*
X103694665Y-28502131D01*
X103870340Y-28315544D01*
X104032873Y-28199718D01*
X104079042Y-28166816D01*
X104312749Y-28061661D01*
X104312753Y-28061660D01*
X104562479Y-28004120D01*
X104818634Y-27996406D01*
X104818638Y-27996406D01*
X105071379Y-28038813D01*
G37*
G36*
X185811379Y-28018813D02*
G01*
X186050991Y-28109713D01*
X186220302Y-28215613D01*
X186268265Y-28245613D01*
X186454852Y-28421288D01*
X186563503Y-28573753D01*
X186603580Y-28629990D01*
X186708735Y-28863697D01*
X186708736Y-28863701D01*
X186766276Y-29113428D01*
X186772058Y-29305394D01*
X186768387Y-29359240D01*
X186723916Y-30011571D01*
X186692135Y-30200983D01*
X186601235Y-30440595D01*
X186484099Y-30627869D01*
X186465335Y-30657869D01*
X186289660Y-30844456D01*
X186140152Y-30951000D01*
X186080958Y-30993184D01*
X185847251Y-31098339D01*
X185847247Y-31098340D01*
X185597521Y-31155880D01*
X185341366Y-31163594D01*
X185341362Y-31163594D01*
X185088621Y-31121187D01*
X184849009Y-31030287D01*
X184631735Y-30894387D01*
X184599872Y-30864387D01*
X184445148Y-30718712D01*
X184312590Y-30532700D01*
X184296420Y-30510010D01*
X184191265Y-30276303D01*
X184154835Y-30118195D01*
X184133724Y-30026572D01*
X184127942Y-29834608D01*
X184176084Y-29128428D01*
X184182528Y-29090024D01*
X184207865Y-28939017D01*
X184298765Y-28699405D01*
X184434665Y-28482131D01*
X184449079Y-28466822D01*
X184610340Y-28295544D01*
X184790975Y-28166818D01*
X184819042Y-28146816D01*
X185052749Y-28041661D01*
X185065105Y-28038814D01*
X185302479Y-27984120D01*
X185558634Y-27976406D01*
X185558638Y-27976406D01*
X185811379Y-28018813D01*
G37*
G36*
X86081379Y-28018813D02*
G01*
X86320991Y-28109713D01*
X86490302Y-28215613D01*
X86538265Y-28245613D01*
X86724852Y-28421288D01*
X86833503Y-28573753D01*
X86873580Y-28629990D01*
X86978735Y-28863697D01*
X86978736Y-28863701D01*
X87036276Y-29113428D01*
X87042058Y-29305394D01*
X87038387Y-29359240D01*
X86993916Y-30011571D01*
X86962135Y-30200983D01*
X86871235Y-30440595D01*
X86754099Y-30627869D01*
X86735335Y-30657869D01*
X86559660Y-30844456D01*
X86410152Y-30951000D01*
X86350958Y-30993184D01*
X86117251Y-31098339D01*
X86117247Y-31098340D01*
X85867521Y-31155880D01*
X85611366Y-31163594D01*
X85611362Y-31163594D01*
X85358621Y-31121187D01*
X85119009Y-31030287D01*
X84901735Y-30894387D01*
X84869872Y-30864387D01*
X84715148Y-30718712D01*
X84582590Y-30532700D01*
X84566420Y-30510010D01*
X84461265Y-30276303D01*
X84424835Y-30118195D01*
X84403724Y-30026572D01*
X84397942Y-29834608D01*
X84446084Y-29128428D01*
X84452528Y-29090024D01*
X84477865Y-28939017D01*
X84568765Y-28699405D01*
X84704665Y-28482131D01*
X84719079Y-28466822D01*
X84880340Y-28295544D01*
X85060975Y-28166818D01*
X85089042Y-28146816D01*
X85322749Y-28041661D01*
X85335105Y-28038814D01*
X85572479Y-27984120D01*
X85828634Y-27976406D01*
X85828638Y-27976406D01*
X86081379Y-28018813D01*
G37*
G36*
X143081379Y-27998813D02*
G01*
X143320991Y-28089713D01*
X143444265Y-28166818D01*
X143538265Y-28225613D01*
X143724852Y-28401288D01*
X143833824Y-28554203D01*
X143873580Y-28609990D01*
X143978735Y-28843697D01*
X143978736Y-28843701D01*
X144036276Y-29093428D01*
X144042058Y-29285394D01*
X144026669Y-29511119D01*
X143993916Y-29991571D01*
X143962135Y-30180983D01*
X143871235Y-30420595D01*
X143778827Y-30568335D01*
X143735335Y-30637869D01*
X143559660Y-30824456D01*
X143433464Y-30914387D01*
X143350958Y-30973184D01*
X143117251Y-31078339D01*
X143117247Y-31078340D01*
X142867521Y-31135880D01*
X142611366Y-31143594D01*
X142611362Y-31143594D01*
X142358621Y-31101187D01*
X142119009Y-31010287D01*
X141901735Y-30874387D01*
X141848703Y-30824456D01*
X141715148Y-30698712D01*
X141585166Y-30516315D01*
X141566420Y-30490010D01*
X141461265Y-30256303D01*
X141436699Y-30149685D01*
X141403724Y-30006572D01*
X141397942Y-29814608D01*
X141446084Y-29108428D01*
X141462431Y-29011004D01*
X141477865Y-28919017D01*
X141568765Y-28679405D01*
X141704665Y-28462131D01*
X141724289Y-28441288D01*
X141880340Y-28275544D01*
X142060975Y-28146818D01*
X142089042Y-28126816D01*
X142322749Y-28021661D01*
X142335105Y-28018814D01*
X142572479Y-27964120D01*
X142828634Y-27956406D01*
X142828638Y-27956406D01*
X143081379Y-27998813D01*
G37*
G36*
X162056379Y-27998813D02*
G01*
X162295991Y-28089713D01*
X162419265Y-28166818D01*
X162513265Y-28225613D01*
X162699852Y-28401288D01*
X162808824Y-28554203D01*
X162848580Y-28609990D01*
X162953735Y-28843697D01*
X162953736Y-28843701D01*
X163011276Y-29093428D01*
X163017058Y-29285394D01*
X163001669Y-29511119D01*
X162968916Y-29991571D01*
X162937135Y-30180983D01*
X162846235Y-30420595D01*
X162753827Y-30568335D01*
X162710335Y-30637869D01*
X162534660Y-30824456D01*
X162408464Y-30914387D01*
X162325958Y-30973184D01*
X162092251Y-31078339D01*
X162092247Y-31078340D01*
X161842521Y-31135880D01*
X161586366Y-31143594D01*
X161586362Y-31143594D01*
X161333621Y-31101187D01*
X161094009Y-31010287D01*
X160876735Y-30874387D01*
X160823703Y-30824456D01*
X160690148Y-30698712D01*
X160560166Y-30516315D01*
X160541420Y-30490010D01*
X160436265Y-30256303D01*
X160411699Y-30149685D01*
X160378724Y-30006572D01*
X160372942Y-29814608D01*
X160421084Y-29108428D01*
X160437431Y-29011004D01*
X160452865Y-28919017D01*
X160543765Y-28679405D01*
X160679665Y-28462131D01*
X160699289Y-28441288D01*
X160855340Y-28275544D01*
X161035975Y-28146818D01*
X161064042Y-28126816D01*
X161297749Y-28021661D01*
X161310105Y-28018814D01*
X161547479Y-27964120D01*
X161803634Y-27956406D01*
X161803638Y-27956406D01*
X162056379Y-27998813D01*
G37*
G36*
X48061379Y-27998813D02*
G01*
X48300991Y-28089713D01*
X48424265Y-28166818D01*
X48518265Y-28225613D01*
X48704852Y-28401288D01*
X48813824Y-28554203D01*
X48853580Y-28609990D01*
X48958735Y-28843697D01*
X48958736Y-28843701D01*
X49016276Y-29093428D01*
X49022058Y-29285394D01*
X49006669Y-29511119D01*
X48973916Y-29991571D01*
X48942135Y-30180983D01*
X48851235Y-30420595D01*
X48758827Y-30568335D01*
X48715335Y-30637869D01*
X48539660Y-30824456D01*
X48413464Y-30914387D01*
X48330958Y-30973184D01*
X48097251Y-31078339D01*
X48097247Y-31078340D01*
X47847521Y-31135880D01*
X47591366Y-31143594D01*
X47591362Y-31143594D01*
X47338621Y-31101187D01*
X47099009Y-31010287D01*
X46881735Y-30874387D01*
X46828703Y-30824456D01*
X46695148Y-30698712D01*
X46565166Y-30516315D01*
X46546420Y-30490010D01*
X46441265Y-30256303D01*
X46416699Y-30149685D01*
X46383724Y-30006572D01*
X46377942Y-29814608D01*
X46426084Y-29108428D01*
X46442431Y-29011004D01*
X46457865Y-28919017D01*
X46548765Y-28679405D01*
X46684665Y-28462131D01*
X46704289Y-28441288D01*
X46860340Y-28275544D01*
X47040975Y-28146818D01*
X47069042Y-28126816D01*
X47302749Y-28021661D01*
X47315105Y-28018814D01*
X47552479Y-27964120D01*
X47808634Y-27956406D01*
X47808638Y-27956406D01*
X48061379Y-27998813D01*
G37*
G36*
X67061379Y-27998813D02*
G01*
X67300991Y-28089713D01*
X67424265Y-28166818D01*
X67518265Y-28225613D01*
X67704852Y-28401288D01*
X67813824Y-28554203D01*
X67853580Y-28609990D01*
X67958735Y-28843697D01*
X67958736Y-28843701D01*
X68016276Y-29093428D01*
X68022058Y-29285394D01*
X68006669Y-29511119D01*
X67973916Y-29991571D01*
X67942135Y-30180983D01*
X67851235Y-30420595D01*
X67758827Y-30568335D01*
X67715335Y-30637869D01*
X67539660Y-30824456D01*
X67413464Y-30914387D01*
X67330958Y-30973184D01*
X67097251Y-31078339D01*
X67097247Y-31078340D01*
X66847521Y-31135880D01*
X66591366Y-31143594D01*
X66591362Y-31143594D01*
X66338621Y-31101187D01*
X66099009Y-31010287D01*
X65881735Y-30874387D01*
X65828703Y-30824456D01*
X65695148Y-30698712D01*
X65565166Y-30516315D01*
X65546420Y-30490010D01*
X65441265Y-30256303D01*
X65416699Y-30149685D01*
X65383724Y-30006572D01*
X65377942Y-29814608D01*
X65426084Y-29108428D01*
X65442431Y-29011004D01*
X65457865Y-28919017D01*
X65548765Y-28679405D01*
X65684665Y-28462131D01*
X65704289Y-28441288D01*
X65860340Y-28275544D01*
X66040975Y-28146818D01*
X66069042Y-28126816D01*
X66302749Y-28021661D01*
X66315105Y-28018814D01*
X66552479Y-27964120D01*
X66808634Y-27956406D01*
X66808638Y-27956406D01*
X67061379Y-27998813D01*
G37*
G36*
X124081379Y-27988813D02*
G01*
X124320991Y-28079713D01*
X124512852Y-28199718D01*
X124538265Y-28215613D01*
X124724852Y-28391288D01*
X124788612Y-28480760D01*
X124873580Y-28599990D01*
X124978735Y-28833697D01*
X124978736Y-28833701D01*
X125036276Y-29083428D01*
X125042058Y-29275394D01*
X125025988Y-29511118D01*
X124993916Y-29981571D01*
X124962135Y-30170983D01*
X124871235Y-30410595D01*
X124796542Y-30530012D01*
X124735335Y-30627869D01*
X124559660Y-30814456D01*
X124403398Y-30925813D01*
X124350958Y-30963184D01*
X124117251Y-31068339D01*
X124117247Y-31068340D01*
X123867521Y-31125880D01*
X123611366Y-31133594D01*
X123611362Y-31133594D01*
X123358621Y-31091187D01*
X123119009Y-31000287D01*
X122901735Y-30864387D01*
X122848703Y-30814456D01*
X122715148Y-30688712D01*
X122592293Y-30516316D01*
X122566420Y-30480010D01*
X122461265Y-30246303D01*
X122455431Y-30220983D01*
X122403724Y-29996572D01*
X122397942Y-29804608D01*
X122446084Y-29098428D01*
X122460753Y-29011004D01*
X122477865Y-28909017D01*
X122568765Y-28669405D01*
X122704665Y-28452131D01*
X122714874Y-28441288D01*
X122880340Y-28265544D01*
X123046945Y-28146816D01*
X123089042Y-28116816D01*
X123322749Y-28011661D01*
X123355477Y-28004120D01*
X123572479Y-27954120D01*
X123828634Y-27946406D01*
X123828638Y-27946406D01*
X124081379Y-27988813D01*
G37*
G36*
X34111552Y-30066331D02*
G01*
X34193627Y-30100328D01*
X34193629Y-30100329D01*
X34267496Y-30149686D01*
X34330314Y-30212504D01*
X34372944Y-30276303D01*
X34379672Y-30286373D01*
X34413669Y-30368448D01*
X34431000Y-30455579D01*
X34431000Y-30544421D01*
X34413669Y-30631552D01*
X34389992Y-30688712D01*
X34379671Y-30713629D01*
X34362911Y-30738712D01*
X34330315Y-30787495D01*
X34267495Y-30850315D01*
X34231469Y-30874387D01*
X34193629Y-30899671D01*
X34193628Y-30899672D01*
X34193627Y-30899672D01*
X34111552Y-30933669D01*
X34024421Y-30951000D01*
X33935579Y-30951000D01*
X33848448Y-30933669D01*
X33766373Y-30899672D01*
X33766372Y-30899672D01*
X33766371Y-30899671D01*
X33728531Y-30874387D01*
X33692505Y-30850315D01*
X33629685Y-30787495D01*
X33597089Y-30738712D01*
X33580329Y-30713629D01*
X33570008Y-30688712D01*
X33546331Y-30631552D01*
X33529000Y-30544421D01*
X33529000Y-30455579D01*
X33546331Y-30368448D01*
X33580328Y-30286373D01*
X33587057Y-30276303D01*
X33629686Y-30212504D01*
X33692504Y-30149686D01*
X33766371Y-30100329D01*
X33766373Y-30100328D01*
X33848448Y-30066331D01*
X33935579Y-30049000D01*
X34024421Y-30049000D01*
X34111552Y-30066331D01*
G37*
G36*
X197140483Y-28028335D02*
G01*
X197309240Y-28098236D01*
X197461118Y-28199718D01*
X197590282Y-28328882D01*
X197691764Y-28480760D01*
X197761665Y-28649517D01*
X197797300Y-28828668D01*
X197797300Y-29011332D01*
X197761665Y-29190483D01*
X197691764Y-29359240D01*
X197590282Y-29511118D01*
X197461118Y-29640282D01*
X197309240Y-29741764D01*
X197140483Y-29811665D01*
X196961332Y-29847300D01*
X196778668Y-29847300D01*
X196599517Y-29811665D01*
X196430760Y-29741764D01*
X196278882Y-29640282D01*
X196149718Y-29511118D01*
X196048236Y-29359240D01*
X195978335Y-29190483D01*
X195942700Y-29011332D01*
X195942700Y-28828668D01*
X195978335Y-28649517D01*
X196048236Y-28480760D01*
X196149718Y-28328882D01*
X196278882Y-28199718D01*
X196430760Y-28098236D01*
X196599517Y-28028335D01*
X196778668Y-27992700D01*
X196961332Y-27992700D01*
X197140483Y-28028335D01*
G37*
G36*
X212380483Y-28028335D02*
G01*
X212549240Y-28098236D01*
X212701118Y-28199718D01*
X212830282Y-28328882D01*
X212931764Y-28480760D01*
X213001665Y-28649517D01*
X213037300Y-28828668D01*
X213037300Y-29011332D01*
X213001665Y-29190483D01*
X212931764Y-29359240D01*
X212830282Y-29511118D01*
X212701118Y-29640282D01*
X212549240Y-29741764D01*
X212380483Y-29811665D01*
X212201332Y-29847300D01*
X212018668Y-29847300D01*
X211839517Y-29811665D01*
X211670760Y-29741764D01*
X211518882Y-29640282D01*
X211389718Y-29511118D01*
X211288236Y-29359240D01*
X211218335Y-29190483D01*
X211182700Y-29011332D01*
X211182700Y-28828668D01*
X211218335Y-28649517D01*
X211288236Y-28480760D01*
X211389718Y-28328882D01*
X211518882Y-28199718D01*
X211670760Y-28098236D01*
X211839517Y-28028335D01*
X212018668Y-27992700D01*
X212201332Y-27992700D01*
X212380483Y-28028335D01*
G37*
G36*
X31846823Y-27061313D02*
G01*
X32007242Y-27109976D01*
X32139906Y-27180886D01*
X32155078Y-27188996D01*
X32284659Y-27295341D01*
X32391004Y-27424922D01*
X32391005Y-27424924D01*
X32470024Y-27572758D01*
X32518687Y-27733178D01*
X32531000Y-27858197D01*
X32531000Y-28341804D01*
X32518687Y-28466823D01*
X32470024Y-28627242D01*
X32431452Y-28699405D01*
X32391004Y-28775078D01*
X32301862Y-28883697D01*
X32284659Y-28904659D01*
X32155077Y-29011005D01*
X32007241Y-29090024D01*
X32007238Y-29090025D01*
X31979537Y-29098428D01*
X31846822Y-29138687D01*
X31680000Y-29155117D01*
X31513177Y-29138687D01*
X31380462Y-29098428D01*
X31352761Y-29090025D01*
X31352758Y-29090024D01*
X31204924Y-29011005D01*
X31204922Y-29011004D01*
X31075341Y-28904659D01*
X31058138Y-28883697D01*
X30968995Y-28775077D01*
X30889976Y-28627241D01*
X30841313Y-28466822D01*
X30829000Y-28341803D01*
X30829000Y-27858196D01*
X30841313Y-27733177D01*
X30889976Y-27572758D01*
X30968995Y-27424924D01*
X30968996Y-27424922D01*
X31075342Y-27295341D01*
X31204923Y-27188996D01*
X31220095Y-27180886D01*
X31352759Y-27109976D01*
X31513178Y-27061313D01*
X31680000Y-27044883D01*
X31846823Y-27061313D01*
G37*
G36*
X212380483Y-25488335D02*
G01*
X212549240Y-25558236D01*
X212701118Y-25659718D01*
X212830282Y-25788882D01*
X212931764Y-25940760D01*
X213001665Y-26109517D01*
X213037300Y-26288668D01*
X213037300Y-26471332D01*
X213001665Y-26650483D01*
X212931764Y-26819240D01*
X212830282Y-26971118D01*
X212701118Y-27100282D01*
X212549240Y-27201764D01*
X212380483Y-27271665D01*
X212201332Y-27307300D01*
X212018668Y-27307300D01*
X211839517Y-27271665D01*
X211670760Y-27201764D01*
X211518882Y-27100282D01*
X211389718Y-26971118D01*
X211288236Y-26819240D01*
X211218335Y-26650483D01*
X211182700Y-26471332D01*
X211182700Y-26288668D01*
X211218335Y-26109517D01*
X211288236Y-25940760D01*
X211389718Y-25788882D01*
X211518882Y-25659718D01*
X211670760Y-25558236D01*
X211839517Y-25488335D01*
X212018668Y-25452700D01*
X212201332Y-25452700D01*
X212380483Y-25488335D01*
G37*
G36*
X197140483Y-25488335D02*
G01*
X197309240Y-25558236D01*
X197461118Y-25659718D01*
X197590282Y-25788882D01*
X197691764Y-25940760D01*
X197761665Y-26109517D01*
X197797300Y-26288668D01*
X197797300Y-26471332D01*
X197761665Y-26650483D01*
X197691764Y-26819240D01*
X197590282Y-26971118D01*
X197461118Y-27100282D01*
X197309240Y-27201764D01*
X197140483Y-27271665D01*
X196961332Y-27307300D01*
X196778668Y-27307300D01*
X196599517Y-27271665D01*
X196430760Y-27201764D01*
X196278882Y-27100282D01*
X196149718Y-26971118D01*
X196048236Y-26819240D01*
X195978335Y-26650483D01*
X195942700Y-26471332D01*
X195942700Y-26288668D01*
X195978335Y-26109517D01*
X196048236Y-25940760D01*
X196149718Y-25788882D01*
X196278882Y-25659718D01*
X196430760Y-25558236D01*
X196599517Y-25488335D01*
X196778668Y-25452700D01*
X196961332Y-25452700D01*
X197140483Y-25488335D01*
G37*
G36*
X31846823Y-24061313D02*
G01*
X31938094Y-24089000D01*
X31997208Y-24106932D01*
X32007242Y-24109976D01*
X32074361Y-24145852D01*
X32155078Y-24188996D01*
X32284659Y-24295341D01*
X32391004Y-24424922D01*
X32391005Y-24424924D01*
X32470024Y-24572758D01*
X32518687Y-24733178D01*
X32531000Y-24858197D01*
X32531000Y-25341804D01*
X32518687Y-25466823D01*
X32470024Y-25627242D01*
X32439607Y-25684148D01*
X32391004Y-25775078D01*
X32379676Y-25788881D01*
X32284659Y-25904659D01*
X32155077Y-26011005D01*
X32007241Y-26090024D01*
X31846822Y-26138687D01*
X31680000Y-26155117D01*
X31513177Y-26138687D01*
X31352758Y-26090024D01*
X31204924Y-26011005D01*
X31204922Y-26011004D01*
X31075341Y-25904659D01*
X31055317Y-25880260D01*
X30968995Y-25775077D01*
X30889976Y-25627241D01*
X30841313Y-25466822D01*
X30829000Y-25341803D01*
X30829000Y-24858196D01*
X30841313Y-24733177D01*
X30889976Y-24572758D01*
X30968995Y-24424924D01*
X30968996Y-24424922D01*
X31075342Y-24295341D01*
X31204923Y-24188996D01*
X31285640Y-24145852D01*
X31352759Y-24109976D01*
X31362794Y-24106932D01*
X31421907Y-24089000D01*
X31513178Y-24061313D01*
X31680000Y-24044883D01*
X31846823Y-24061313D01*
G37*
G36*
X227111745Y-21839740D02*
G01*
X227312839Y-21879740D01*
X227695197Y-22038118D01*
X227868420Y-22153862D01*
X227979445Y-22228046D01*
X228039310Y-22268047D01*
X228331953Y-22560690D01*
X228561882Y-22904803D01*
X228719934Y-23286373D01*
X228720260Y-23287162D01*
X228801000Y-23693068D01*
X228801000Y-24106932D01*
X228766776Y-24278985D01*
X228720260Y-24512839D01*
X228614859Y-24767300D01*
X228569758Y-24876184D01*
X228561882Y-24895197D01*
X228469260Y-25033815D01*
X228331954Y-25239309D01*
X228039309Y-25531954D01*
X227896700Y-25627242D01*
X227695197Y-25761882D01*
X227695196Y-25761883D01*
X227695195Y-25761883D01*
X227663339Y-25775078D01*
X227312839Y-25920260D01*
X227209783Y-25940759D01*
X226906932Y-26001000D01*
X226493068Y-26001000D01*
X226190217Y-25940759D01*
X226087161Y-25920260D01*
X225736661Y-25775078D01*
X225704805Y-25761883D01*
X225704804Y-25761883D01*
X225704803Y-25761882D01*
X225503300Y-25627242D01*
X225360691Y-25531954D01*
X225068046Y-25239309D01*
X224930740Y-25033815D01*
X224838118Y-24895197D01*
X224830243Y-24876184D01*
X224785141Y-24767300D01*
X224679740Y-24512839D01*
X224633224Y-24278985D01*
X224599000Y-24106932D01*
X224599000Y-23693068D01*
X224679740Y-23287162D01*
X224680067Y-23286373D01*
X224838118Y-22904803D01*
X225068047Y-22560690D01*
X225360690Y-22268047D01*
X225420556Y-22228046D01*
X225531580Y-22153862D01*
X225704803Y-22038118D01*
X226087161Y-21879740D01*
X226288255Y-21839740D01*
X226493068Y-21799000D01*
X226906932Y-21799000D01*
X227111745Y-21839740D01*
G37*
G36*
X24247536Y-21812827D02*
G01*
X24382839Y-21839740D01*
X24765197Y-21998118D01*
X25109310Y-22228047D01*
X25401953Y-22520690D01*
X25631882Y-22864803D01*
X25775905Y-23212504D01*
X25790260Y-23247162D01*
X25871000Y-23653068D01*
X25871000Y-24066932D01*
X25849334Y-24175852D01*
X25790260Y-24472839D01*
X25631882Y-24855197D01*
X25525897Y-25013815D01*
X25401954Y-25199309D01*
X25109309Y-25491954D01*
X24961053Y-25591015D01*
X24765197Y-25721882D01*
X24765196Y-25721883D01*
X24765195Y-25721883D01*
X24668629Y-25761882D01*
X24382839Y-25880260D01*
X24260176Y-25904659D01*
X23976932Y-25961000D01*
X23563068Y-25961000D01*
X23279824Y-25904659D01*
X23157161Y-25880260D01*
X22871371Y-25761882D01*
X22774805Y-25721883D01*
X22774804Y-25721883D01*
X22774803Y-25721882D01*
X22578947Y-25591015D01*
X22430691Y-25491954D01*
X22138046Y-25199309D01*
X22014103Y-25013815D01*
X21908118Y-24855197D01*
X21749740Y-24472839D01*
X21690666Y-24175852D01*
X21669000Y-24066932D01*
X21669000Y-23653068D01*
X21749740Y-23247162D01*
X21764096Y-23212504D01*
X21908118Y-22864803D01*
X22138047Y-22520690D01*
X22430690Y-22228047D01*
X22774803Y-21998118D01*
X23157161Y-21839740D01*
X23292464Y-21812827D01*
X23563068Y-21759000D01*
X23976932Y-21759000D01*
X24247536Y-21812827D01*
G37*
G36*
X106208228Y-24141703D02*
G01*
X106363100Y-24205853D01*
X106502481Y-24298985D01*
X106621015Y-24417519D01*
X106714147Y-24556900D01*
X106778297Y-24711772D01*
X106811000Y-24876184D01*
X106811000Y-25043816D01*
X106778297Y-25208228D01*
X106714147Y-25363100D01*
X106621015Y-25502481D01*
X106502481Y-25621015D01*
X106363100Y-25714147D01*
X106208228Y-25778297D01*
X106043816Y-25811000D01*
X105876184Y-25811000D01*
X105711772Y-25778297D01*
X105556900Y-25714147D01*
X105417519Y-25621015D01*
X105298985Y-25502481D01*
X105205853Y-25363100D01*
X105141703Y-25208228D01*
X105109000Y-25043816D01*
X105109000Y-24876184D01*
X105141703Y-24711772D01*
X105205853Y-24556900D01*
X105298985Y-24417519D01*
X105417519Y-24298985D01*
X105556900Y-24205853D01*
X105711772Y-24141703D01*
X105876184Y-24109000D01*
X106043816Y-24109000D01*
X106208228Y-24141703D01*
G37*
G36*
X99011000Y-25811000D02*
G01*
X97309000Y-25811000D01*
X97309000Y-24109000D01*
X99011000Y-24109000D01*
X99011000Y-25811000D01*
G37*
G36*
X125358228Y-24131703D02*
G01*
X125513100Y-24195853D01*
X125652481Y-24288985D01*
X125771015Y-24407519D01*
X125864147Y-24546900D01*
X125928297Y-24701772D01*
X125961000Y-24866184D01*
X125961000Y-25033816D01*
X125928297Y-25198228D01*
X125864147Y-25353100D01*
X125771015Y-25492481D01*
X125652481Y-25611015D01*
X125513100Y-25704147D01*
X125358228Y-25768297D01*
X125193816Y-25801000D01*
X125026184Y-25801000D01*
X124861772Y-25768297D01*
X124706900Y-25704147D01*
X124567519Y-25611015D01*
X124448985Y-25492481D01*
X124355853Y-25353100D01*
X124291703Y-25198228D01*
X124259000Y-25033816D01*
X124259000Y-24866184D01*
X124291703Y-24701772D01*
X124355853Y-24546900D01*
X124448985Y-24407519D01*
X124567519Y-24288985D01*
X124706900Y-24195853D01*
X124861772Y-24131703D01*
X125026184Y-24099000D01*
X125193816Y-24099000D01*
X125358228Y-24131703D01*
G37*
G36*
X118161000Y-25801000D02*
G01*
X116459000Y-25801000D01*
X116459000Y-24099000D01*
X118161000Y-24099000D01*
X118161000Y-25801000D01*
G37*
G36*
X42171000Y-25791000D02*
G01*
X40469000Y-25791000D01*
X40469000Y-24089000D01*
X42171000Y-24089000D01*
X42171000Y-25791000D01*
G37*
G36*
X49368228Y-24121703D02*
G01*
X49523100Y-24185853D01*
X49662481Y-24278985D01*
X49781015Y-24397519D01*
X49874147Y-24536900D01*
X49938297Y-24691772D01*
X49971000Y-24856184D01*
X49971000Y-25023816D01*
X49938297Y-25188228D01*
X49874147Y-25343100D01*
X49781015Y-25482481D01*
X49662481Y-25601015D01*
X49523100Y-25694147D01*
X49368228Y-25758297D01*
X49203816Y-25791000D01*
X49036184Y-25791000D01*
X48871772Y-25758297D01*
X48716900Y-25694147D01*
X48577519Y-25601015D01*
X48458985Y-25482481D01*
X48365853Y-25343100D01*
X48301703Y-25188228D01*
X48269000Y-25023816D01*
X48269000Y-24856184D01*
X48301703Y-24691772D01*
X48365853Y-24536900D01*
X48458985Y-24397519D01*
X48577519Y-24278985D01*
X48716900Y-24185853D01*
X48871772Y-24121703D01*
X49036184Y-24089000D01*
X49203816Y-24089000D01*
X49368228Y-24121703D01*
G37*
G36*
X144388228Y-24111703D02*
G01*
X144543100Y-24175853D01*
X144682481Y-24268985D01*
X144801015Y-24387519D01*
X144894147Y-24526900D01*
X144958297Y-24681772D01*
X144991000Y-24846184D01*
X144991000Y-25013816D01*
X144958297Y-25178228D01*
X144894147Y-25333100D01*
X144801015Y-25472481D01*
X144682481Y-25591015D01*
X144543100Y-25684147D01*
X144388228Y-25748297D01*
X144223816Y-25781000D01*
X144056184Y-25781000D01*
X143891772Y-25748297D01*
X143736900Y-25684147D01*
X143597519Y-25591015D01*
X143478985Y-25472481D01*
X143385853Y-25333100D01*
X143321703Y-25178228D01*
X143289000Y-25013816D01*
X143289000Y-24846184D01*
X143321703Y-24681772D01*
X143385853Y-24526900D01*
X143478985Y-24387519D01*
X143597519Y-24268985D01*
X143736900Y-24175853D01*
X143891772Y-24111703D01*
X144056184Y-24079000D01*
X144223816Y-24079000D01*
X144388228Y-24111703D01*
G37*
G36*
X61521000Y-25781000D02*
G01*
X59819000Y-25781000D01*
X59819000Y-24079000D01*
X61521000Y-24079000D01*
X61521000Y-25781000D01*
G37*
G36*
X187148228Y-24111703D02*
G01*
X187303100Y-24175853D01*
X187442481Y-24268985D01*
X187561015Y-24387519D01*
X187654147Y-24526900D01*
X187718297Y-24681772D01*
X187751000Y-24846184D01*
X187751000Y-25013816D01*
X187718297Y-25178228D01*
X187654147Y-25333100D01*
X187561015Y-25472481D01*
X187442481Y-25591015D01*
X187303100Y-25684147D01*
X187148228Y-25748297D01*
X186983816Y-25781000D01*
X186816184Y-25781000D01*
X186651772Y-25748297D01*
X186496900Y-25684147D01*
X186357519Y-25591015D01*
X186238985Y-25472481D01*
X186145853Y-25333100D01*
X186081703Y-25178228D01*
X186049000Y-25013816D01*
X186049000Y-24846184D01*
X186081703Y-24681772D01*
X186145853Y-24526900D01*
X186238985Y-24387519D01*
X186357519Y-24268985D01*
X186496900Y-24175853D01*
X186651772Y-24111703D01*
X186816184Y-24079000D01*
X186983816Y-24079000D01*
X187148228Y-24111703D01*
G37*
G36*
X87303228Y-24111703D02*
G01*
X87458100Y-24175853D01*
X87597481Y-24268985D01*
X87716015Y-24387519D01*
X87809147Y-24526900D01*
X87873297Y-24681772D01*
X87906000Y-24846184D01*
X87906000Y-25013816D01*
X87873297Y-25178228D01*
X87809147Y-25333100D01*
X87716015Y-25472481D01*
X87597481Y-25591015D01*
X87458100Y-25684147D01*
X87303228Y-25748297D01*
X87138816Y-25781000D01*
X86971184Y-25781000D01*
X86806772Y-25748297D01*
X86651900Y-25684147D01*
X86512519Y-25591015D01*
X86393985Y-25472481D01*
X86300853Y-25333100D01*
X86236703Y-25178228D01*
X86204000Y-25013816D01*
X86204000Y-24846184D01*
X86236703Y-24681772D01*
X86300853Y-24526900D01*
X86393985Y-24387519D01*
X86512519Y-24268985D01*
X86651900Y-24175853D01*
X86806772Y-24111703D01*
X86971184Y-24079000D01*
X87138816Y-24079000D01*
X87303228Y-24111703D01*
G37*
G36*
X179951000Y-25781000D02*
G01*
X178249000Y-25781000D01*
X178249000Y-24079000D01*
X179951000Y-24079000D01*
X179951000Y-25781000D01*
G37*
G36*
X137191000Y-25781000D02*
G01*
X135489000Y-25781000D01*
X135489000Y-24079000D01*
X137191000Y-24079000D01*
X137191000Y-25781000D01*
G37*
G36*
X80106000Y-25781000D02*
G01*
X78404000Y-25781000D01*
X78404000Y-24079000D01*
X80106000Y-24079000D01*
X80106000Y-25781000D01*
G37*
G36*
X68718228Y-24111703D02*
G01*
X68873100Y-24175853D01*
X69012481Y-24268985D01*
X69131015Y-24387519D01*
X69224147Y-24526900D01*
X69288297Y-24681772D01*
X69321000Y-24846184D01*
X69321000Y-25013816D01*
X69288297Y-25178228D01*
X69224147Y-25333100D01*
X69131015Y-25472481D01*
X69012481Y-25591015D01*
X68873100Y-25684147D01*
X68718228Y-25748297D01*
X68553816Y-25781000D01*
X68386184Y-25781000D01*
X68221772Y-25748297D01*
X68066900Y-25684147D01*
X67927519Y-25591015D01*
X67808985Y-25472481D01*
X67715853Y-25333100D01*
X67651703Y-25178228D01*
X67619000Y-25013816D01*
X67619000Y-24846184D01*
X67651703Y-24681772D01*
X67715853Y-24526900D01*
X67808985Y-24387519D01*
X67927519Y-24268985D01*
X68066900Y-24175853D01*
X68221772Y-24111703D01*
X68386184Y-24079000D01*
X68553816Y-24079000D01*
X68718228Y-24111703D01*
G37*
G36*
X156101000Y-25751000D02*
G01*
X154399000Y-25751000D01*
X154399000Y-24049000D01*
X156101000Y-24049000D01*
X156101000Y-25751000D01*
G37*
G36*
X163298228Y-24081703D02*
G01*
X163453100Y-24145853D01*
X163592481Y-24238985D01*
X163711015Y-24357519D01*
X163804147Y-24496900D01*
X163868297Y-24651772D01*
X163901000Y-24816184D01*
X163901000Y-24983816D01*
X163868297Y-25148228D01*
X163804147Y-25303100D01*
X163711015Y-25442481D01*
X163592481Y-25561015D01*
X163453100Y-25654147D01*
X163298228Y-25718297D01*
X163133816Y-25751000D01*
X162966184Y-25751000D01*
X162801772Y-25718297D01*
X162646900Y-25654147D01*
X162507519Y-25561015D01*
X162388985Y-25442481D01*
X162295853Y-25303100D01*
X162231703Y-25148228D01*
X162199000Y-24983816D01*
X162199000Y-24816184D01*
X162231703Y-24651772D01*
X162295853Y-24496900D01*
X162388985Y-24357519D01*
X162507519Y-24238985D01*
X162646900Y-24145853D01*
X162801772Y-24081703D01*
X162966184Y-24049000D01*
X163133816Y-24049000D01*
X163298228Y-24081703D01*
G37*
G36*
X212380483Y-22948335D02*
G01*
X212549240Y-23018236D01*
X212701118Y-23119718D01*
X212830282Y-23248882D01*
X212931764Y-23400760D01*
X213001665Y-23569517D01*
X213037300Y-23748668D01*
X213037300Y-23931332D01*
X213001665Y-24110483D01*
X212931764Y-24279240D01*
X212830282Y-24431118D01*
X212701118Y-24560282D01*
X212549240Y-24661764D01*
X212380483Y-24731665D01*
X212201332Y-24767300D01*
X212018668Y-24767300D01*
X211839517Y-24731665D01*
X211670760Y-24661764D01*
X211518882Y-24560282D01*
X211389718Y-24431118D01*
X211288236Y-24279240D01*
X211218335Y-24110483D01*
X211182700Y-23931332D01*
X211182700Y-23748668D01*
X211218335Y-23569517D01*
X211288236Y-23400760D01*
X211389718Y-23248882D01*
X211518882Y-23119718D01*
X211670760Y-23018236D01*
X211839517Y-22948335D01*
X212018668Y-22912700D01*
X212201332Y-22912700D01*
X212380483Y-22948335D01*
G37*
G36*
X197797300Y-24767300D02*
G01*
X195942700Y-24767300D01*
X195942700Y-22912700D01*
X197797300Y-22912700D01*
X197797300Y-24767300D01*
G37*
G36*
X34111552Y-23066331D02*
G01*
X34193627Y-23100328D01*
X34193629Y-23100329D01*
X34222646Y-23119718D01*
X34267495Y-23149685D01*
X34330315Y-23212505D01*
X34379672Y-23286373D01*
X34413669Y-23368448D01*
X34431000Y-23455579D01*
X34431000Y-23544421D01*
X34413669Y-23631552D01*
X34388188Y-23693068D01*
X34379671Y-23713629D01*
X34330314Y-23787496D01*
X34267496Y-23850314D01*
X34193629Y-23899671D01*
X34193628Y-23899672D01*
X34193627Y-23899672D01*
X34111552Y-23933669D01*
X34024421Y-23951000D01*
X33935579Y-23951000D01*
X33848448Y-23933669D01*
X33766373Y-23899672D01*
X33766372Y-23899672D01*
X33766371Y-23899671D01*
X33692504Y-23850314D01*
X33629686Y-23787496D01*
X33580329Y-23713629D01*
X33571812Y-23693068D01*
X33546331Y-23631552D01*
X33529000Y-23544421D01*
X33529000Y-23455579D01*
X33546331Y-23368448D01*
X33580328Y-23286373D01*
X33629685Y-23212505D01*
X33692505Y-23149685D01*
X33737354Y-23119718D01*
X33766371Y-23100329D01*
X33766373Y-23100328D01*
X33848448Y-23066331D01*
X33935579Y-23049000D01*
X34024421Y-23049000D01*
X34111552Y-23066331D01*
G37*
M02*
