M48
; DRILL file {KiCad (6.0.10-0)} date Sunday, December 25, 2022 at 07:18:41 PM
; FORMAT={-:-/ absolute / metric / decimal}
; #@! TF.CreationDate,2022-12-25T19:18:41-08:00
; #@! TF.GenerationSoftware,Kicad,Pcbnew,(6.0.10-0)
; #@! TF.FileFunction,Plated,1,2,PTH
FMAT,2
METRIC
; #@! TA.AperFunction,Plated,PTH,ViaDrill
T1C0.400
; #@! TA.AperFunction,Plated,PTH,ComponentDrill
T2C0.700
; #@! TA.AperFunction,Plated,PTH,ComponentDrill
T3C0.900
; #@! TA.AperFunction,Plated,PTH,ComponentDrill
T4C1.092
; #@! TA.AperFunction,Plated,PTH,ComponentDrill
T5C1.500
; #@! TA.AperFunction,Plated,PTH,ComponentDrill
T6C1.850
%
G90
G05
T1
X44.25Y-43.25
X47.5Y-56.5
X56.75Y-35.75
X56.75Y-49.25
X62.75Y-61.75
X63.25Y-66.0
X65.25Y-85.0
X191.0Y-37.0
T2
X60.0Y-72.6
X60.0Y-80.4
X60.0Y-91.1
X60.0Y-98.9
X67.3Y-48.8
X69.7Y-67.8
X74.45Y-86.825
X74.625Y-105.85
X75.1Y-48.8
X76.0Y-33.675
X76.0Y-41.475
X77.5Y-67.8
X82.25Y-86.825
X82.425Y-105.85
X90.975Y-48.85
X95.0Y-33.525
X95.0Y-41.325
X95.925Y-67.85
X98.225Y-105.775
X98.775Y-48.85
X103.725Y-67.85
X105.425Y-86.825
X106.025Y-105.775
X110.225Y-48.825
X113.225Y-86.825
X114.0Y-33.6
X114.0Y-41.4
X114.85Y-67.8
X118.025Y-48.825
X122.05Y-105.8
X122.65Y-67.8
X124.45Y-86.825
X128.975Y-48.8
X129.85Y-105.8
X132.25Y-86.825
X133.0Y-33.6
X133.0Y-41.4
X133.825Y-67.825
X136.775Y-48.8
X141.625Y-67.825
X143.4Y-86.85
X148.325Y-48.825
X151.2Y-86.85
X151.5Y-33.6
X151.5Y-41.4
X152.875Y-67.775
X155.2Y-105.8
X156.125Y-48.825
X160.675Y-67.775
X162.375Y-86.85
X163.0Y-105.8
X167.1Y-49.0
X170.175Y-86.85
X171.0Y-33.6
X171.0Y-41.4
X171.8Y-67.825
X174.9Y-49.0
X178.1Y-49.0
X179.6Y-67.825
X180.28Y-54.6
X180.28Y-62.4
X181.325Y-86.85
X182.435Y-109.966
X185.9Y-49.0
X188.1Y-67.825
X189.125Y-86.85
X189.765Y-112.634
X193.1Y-86.725
X195.9Y-67.825
X197.885Y-123.041
X200.9Y-86.725
X205.215Y-125.709
T4
X39.88Y-38.03
X39.88Y-40.57
X39.88Y-43.11
X39.88Y-45.65
X39.88Y-48.19
X39.88Y-50.73
X39.88Y-53.27
X39.88Y-55.81
X39.88Y-58.35
X39.88Y-60.89
X39.88Y-63.43
X39.88Y-65.97
X55.12Y-38.03
X55.12Y-40.57
X55.12Y-43.11
X55.12Y-45.65
X55.12Y-48.19
X55.12Y-50.73
X55.12Y-53.27
X55.12Y-55.81
X55.12Y-58.35
X55.12Y-60.89
X55.12Y-63.43
X55.12Y-65.97
T6
X41.086Y-93.71
X41.086Y-98.79
X41.14Y-74.71
X41.14Y-79.79
X53.786Y-91.55
X53.786Y-96.25
X53.786Y-100.95
X53.84Y-72.55
X53.84Y-77.25
X53.84Y-81.95
T3
X192.7Y-41.828G85X192.7Y-42.227
G05
X197.3Y-33.727G85X197.3Y-34.127
G05
X197.3Y-36.727G85X197.3Y-37.127
G05
X197.3Y-40.727G85X197.3Y-41.127
G05
T5
X63.874Y-34.781G85X62.666Y-36.679
G05
X68.624Y-53.756G85X67.416Y-55.654
G05
X69.065Y-34.171G85X69.025Y-34.749
G05
X70.999Y-72.756G85X69.791Y-74.654
G05
X73.815Y-53.146G85X73.775Y-53.724
G05
X75.699Y-110.806G85X74.491Y-112.704
G05
X75.86Y-101.304G85X75.9Y-100.726
G05
X76.19Y-72.146G85X76.15Y-72.724
G05
X80.89Y-110.196G85X80.85Y-110.774
G05
X81.051Y-100.694G85X82.259Y-98.796
G05
X82.849Y-34.781G85X81.641Y-36.679
G05
X88.04Y-34.171G85X88.0Y-34.749
G05
X92.349Y-53.806G85X91.141Y-55.704
G05
X97.099Y-72.806G85X95.891Y-74.704
G05
X97.54Y-53.196G85X97.5Y-53.774
G05
X99.474Y-110.756G85X98.266Y-112.654
G05
X101.874Y-34.756G85X100.666Y-36.654
G05
X102.29Y-72.196G85X102.25Y-72.774
G05
X104.665Y-110.146G85X104.625Y-110.724
G05
X106.549Y-91.781G85X105.341Y-93.679
G05
X107.065Y-34.146G85X107.025Y-34.724
G05
X111.349Y-53.756G85X110.141Y-55.654
G05
X111.74Y-91.171G85X111.7Y-91.749
G05
X116.124Y-72.756G85X114.916Y-74.654
G05
X116.54Y-53.146G85X116.5Y-53.724
G05
X120.824Y-34.756G85X119.616Y-36.654
G05
X121.315Y-72.146G85X121.275Y-72.724
G05
X123.224Y-110.781G85X122.016Y-112.679
G05
X125.574Y-91.781G85X124.366Y-93.679
G05
X126.015Y-34.146G85X125.975Y-34.724
G05
X128.415Y-110.171G85X128.375Y-110.749
G05
X130.349Y-53.781G85X129.141Y-55.679
G05
X130.765Y-91.171G85X130.725Y-91.749
G05
X135.149Y-72.781G85X133.941Y-74.679
G05
X135.54Y-53.171G85X135.5Y-53.749
G05
X139.849Y-34.781G85X138.641Y-36.679
G05
X140.34Y-72.171G85X140.3Y-72.749
G05
X144.574Y-91.806G85X143.366Y-93.704
G05
X145.04Y-34.171G85X145.0Y-34.749
G05
X149.449Y-53.781G85X148.241Y-55.679
G05
X149.765Y-91.196G85X149.725Y-91.774
G05
X154.149Y-72.731G85X152.941Y-74.629
G05
X154.64Y-53.171G85X154.6Y-53.749
G05
X156.474Y-110.781G85X155.266Y-112.679
G05
X158.824Y-34.756G85X157.616Y-36.654
G05
X159.34Y-72.121G85X159.3Y-72.699
G05
X161.665Y-110.171G85X161.625Y-110.749
G05
X163.574Y-91.806G85X162.366Y-93.704
G05
X164.015Y-34.146G85X163.975Y-34.724
G05
X168.349Y-53.781G85X167.141Y-55.679
G05
X168.765Y-91.196G85X168.725Y-91.774
G05
X173.099Y-72.781G85X171.891Y-74.679
G05
X173.54Y-53.171G85X173.5Y-53.749
G05
X177.849Y-34.781G85X176.641Y-36.679
G05
X178.29Y-72.171G85X178.25Y-72.749
G05
X181.863Y-115.044G85X180.078Y-116.414
G05
X182.574Y-91.806G85X181.366Y-93.704
G05
X183.04Y-34.171G85X183.0Y-34.749
G05
X187.349Y-53.831G85X186.141Y-55.729
G05
X186.949Y-116.246G85X186.714Y-116.776
G05
X187.765Y-91.196G85X187.725Y-91.774
G05
X192.099Y-72.756G85X190.891Y-74.654
G05
X192.54Y-53.221G85X192.5Y-53.799
G05
X197.313Y-128.119G85X195.528Y-129.489
G05
X197.29Y-72.146G85X197.25Y-72.724
G05
X201.624Y-91.756G85X200.416Y-93.654
G05
X202.399Y-129.321G85X202.164Y-129.851
G05
X206.815Y-91.146G85X206.775Y-91.724
G05
T0
M30
