G04 #@! TF.GenerationSoftware,KiCad,Pcbnew,(6.0.10-0)*
G04 #@! TF.CreationDate,2022-12-25T19:45:41-08:00*
G04 #@! TF.ProjectId,left,6c656674-2e6b-4696-9361-645f70636258,rev?*
G04 #@! TF.SameCoordinates,Original*
G04 #@! TF.FileFunction,Legend,Top*
G04 #@! TF.FilePolarity,Positive*
%FSLAX46Y46*%
G04 Gerber Fmt 4.6, Leading zero omitted, Abs format (unit mm)*
G04 Created by KiCad (PCBNEW (6.0.10-0)) date 2022-12-25 19:45:41*
%MOMM*%
%LPD*%
G01*
G04 APERTURE LIST*
G04 Aperture macros list*
%AMRoundRect*
0 Rectangle with rounded corners*
0 $1 Rounding radius*
0 $2 $3 $4 $5 $6 $7 $8 $9 X,Y pos of 4 corners*
0 Add a 4 corners polygon primitive as box body*
4,1,4,$2,$3,$4,$5,$6,$7,$8,$9,$2,$3,0*
0 Add four circle primitives for the rounded corners*
1,1,$1+$1,$2,$3*
1,1,$1+$1,$4,$5*
1,1,$1+$1,$6,$7*
1,1,$1+$1,$8,$9*
0 Add four rect primitives between the rounded corners*
20,1,$1+$1,$2,$3,$4,$5,0*
20,1,$1+$1,$4,$5,$6,$7,0*
20,1,$1+$1,$6,$7,$8,$9,0*
20,1,$1+$1,$8,$9,$2,$3,0*%
%AMHorizOval*
0 Thick line with rounded ends*
0 $1 width*
0 $2 $3 position (X,Y) of the first rounded end (center of the circle)*
0 $4 $5 position (X,Y) of the second rounded end (center of the circle)*
0 Add line between two ends*
20,1,$1,$2,$3,$4,$5,0*
0 Add two circle primitives to create the rounded ends*
1,1,$1,$2,$3*
1,1,$1,$4,$5*%
%AMRotRect*
0 Rectangle, with rotation*
0 The origin of the aperture is its center*
0 $1 length*
0 $2 width*
0 $3 Rotation angle, in degrees counterclockwise*
0 Add horizontal line*
21,1,$1,$2,0,0,$3*%
G04 Aperture macros list end*
%ADD10C,0.150000*%
%ADD11C,0.250000*%
%ADD12C,0.200000*%
%ADD13C,0.381000*%
%ADD14C,0.127000*%
%ADD15C,0.010000*%
%ADD16R,1.600000X1.600000*%
%ADD17C,1.600000*%
%ADD18RotRect,1.600000X1.600000X160.000000*%
%ADD19HorizOval,2.500000X-0.604462X-0.948815X0.604462X0.948815X0*%
%ADD20HorizOval,2.500000X-0.019724X-0.289328X0.019724X0.289328X0*%
%ADD21HorizOval,2.500000X0.604462X0.948815X-0.604462X-0.948815X0*%
%ADD22HorizOval,2.500000X0.019724X0.289328X-0.019724X-0.289328X0*%
%ADD23HorizOval,2.500000X-0.892523X-0.684857X0.892523X0.684857X0*%
%ADD24HorizOval,2.500000X-0.117491X-0.265134X0.117491X0.265134X0*%
%ADD25R,1.752600X1.752600*%
%ADD26C,1.752600*%
%ADD27RoundRect,0.051000X0.600000X-0.600000X0.600000X0.600000X-0.600000X0.600000X-0.600000X-0.600000X0*%
%ADD28RoundRect,0.051000X0.800000X-0.800000X0.800000X0.800000X-0.800000X0.800000X-0.800000X-0.800000X0*%
%ADD29C,1.702000*%
%ADD30RoundRect,0.051000X0.800000X0.800000X-0.800000X0.800000X-0.800000X-0.800000X0.800000X-0.800000X0*%
%ADD31RoundRect,0.051000X0.600000X0.600000X-0.600000X0.600000X-0.600000X-0.600000X0.600000X-0.600000X0*%
%ADD32RoundRect,0.051000X0.769028X0.358603X-0.358603X0.769028X-0.769028X-0.358603X0.358603X-0.769028X0*%
%ADD33RoundRect,0.051000X1.025370X0.478138X-0.478138X1.025370X-1.025370X-0.478138X0.478138X-1.025370X0*%
%ADD34HorizOval,2.602000X-0.604462X-0.948815X0.604462X0.948815X0*%
%ADD35HorizOval,2.602000X-0.019724X-0.289328X0.019724X0.289328X0*%
%ADD36HorizOval,2.602000X0.604462X0.948815X-0.604462X-0.948815X0*%
%ADD37HorizOval,2.602000X0.019724X0.289328X-0.019724X-0.289328X0*%
%ADD38C,0.902000*%
%ADD39O,1.702000X2.102000*%
%ADD40HorizOval,2.602000X-0.892523X-0.684857X0.892523X0.684857X0*%
%ADD41HorizOval,2.602000X-0.117491X-0.265134X0.117491X0.265134X0*%
%ADD42RoundRect,0.051000X1.387500X-1.387500X1.387500X1.387500X-1.387500X1.387500X-1.387500X-1.387500X0*%
%ADD43C,2.877000*%
%ADD44RoundRect,0.051000X-0.876300X0.876300X-0.876300X-0.876300X0.876300X-0.876300X0.876300X0.876300X0*%
%ADD45C,1.854600*%
G04 APERTURE END LIST*
D10*
X78286904Y-38165476D02*
X77486904Y-38165476D01*
X77486904Y-37975000D01*
X77525000Y-37860714D01*
X77601190Y-37784523D01*
X77677380Y-37746428D01*
X77829761Y-37708333D01*
X77944047Y-37708333D01*
X78096428Y-37746428D01*
X78172619Y-37784523D01*
X78248809Y-37860714D01*
X78286904Y-37975000D01*
X78286904Y-38165476D01*
X78286904Y-36946428D02*
X78286904Y-37403571D01*
X78286904Y-37175000D02*
X77486904Y-37175000D01*
X77601190Y-37251190D01*
X77677380Y-37327380D01*
X77715476Y-37403571D01*
X97286904Y-38015476D02*
X96486904Y-38015476D01*
X96486904Y-37825000D01*
X96525000Y-37710714D01*
X96601190Y-37634523D01*
X96677380Y-37596428D01*
X96829761Y-37558333D01*
X96944047Y-37558333D01*
X97096428Y-37596428D01*
X97172619Y-37634523D01*
X97248809Y-37710714D01*
X97286904Y-37825000D01*
X97286904Y-38015476D01*
X96563095Y-37253571D02*
X96525000Y-37215476D01*
X96486904Y-37139285D01*
X96486904Y-36948809D01*
X96525000Y-36872619D01*
X96563095Y-36834523D01*
X96639285Y-36796428D01*
X96715476Y-36796428D01*
X96829761Y-36834523D01*
X97286904Y-37291666D01*
X97286904Y-36796428D01*
X116286904Y-38090476D02*
X115486904Y-38090476D01*
X115486904Y-37900000D01*
X115525000Y-37785714D01*
X115601190Y-37709523D01*
X115677380Y-37671428D01*
X115829761Y-37633333D01*
X115944047Y-37633333D01*
X116096428Y-37671428D01*
X116172619Y-37709523D01*
X116248809Y-37785714D01*
X116286904Y-37900000D01*
X116286904Y-38090476D01*
X115486904Y-37366666D02*
X115486904Y-36871428D01*
X115791666Y-37138095D01*
X115791666Y-37023809D01*
X115829761Y-36947619D01*
X115867857Y-36909523D01*
X115944047Y-36871428D01*
X116134523Y-36871428D01*
X116210714Y-36909523D01*
X116248809Y-36947619D01*
X116286904Y-37023809D01*
X116286904Y-37252380D01*
X116248809Y-37328571D01*
X116210714Y-37366666D01*
X70609523Y-47236904D02*
X70609523Y-46436904D01*
X70800000Y-46436904D01*
X70914285Y-46475000D01*
X70990476Y-46551190D01*
X71028571Y-46627380D01*
X71066666Y-46779761D01*
X71066666Y-46894047D01*
X71028571Y-47046428D01*
X70990476Y-47122619D01*
X70914285Y-47198809D01*
X70800000Y-47236904D01*
X70609523Y-47236904D01*
X71752380Y-46703571D02*
X71752380Y-47236904D01*
X71561904Y-46398809D02*
X71371428Y-46970238D01*
X71866666Y-46970238D01*
X73009523Y-66236904D02*
X73009523Y-65436904D01*
X73200000Y-65436904D01*
X73314285Y-65475000D01*
X73390476Y-65551190D01*
X73428571Y-65627380D01*
X73466666Y-65779761D01*
X73466666Y-65894047D01*
X73428571Y-66046428D01*
X73390476Y-66122619D01*
X73314285Y-66198809D01*
X73200000Y-66236904D01*
X73009523Y-66236904D01*
X74190476Y-65436904D02*
X73809523Y-65436904D01*
X73771428Y-65817857D01*
X73809523Y-65779761D01*
X73885714Y-65741666D01*
X74076190Y-65741666D01*
X74152380Y-65779761D01*
X74190476Y-65817857D01*
X74228571Y-65894047D01*
X74228571Y-66084523D01*
X74190476Y-66160714D01*
X74152380Y-66198809D01*
X74076190Y-66236904D01*
X73885714Y-66236904D01*
X73809523Y-66198809D01*
X73771428Y-66160714D01*
X77759523Y-85261904D02*
X77759523Y-84461904D01*
X77950000Y-84461904D01*
X78064285Y-84500000D01*
X78140476Y-84576190D01*
X78178571Y-84652380D01*
X78216666Y-84804761D01*
X78216666Y-84919047D01*
X78178571Y-85071428D01*
X78140476Y-85147619D01*
X78064285Y-85223809D01*
X77950000Y-85261904D01*
X77759523Y-85261904D01*
X78902380Y-84461904D02*
X78750000Y-84461904D01*
X78673809Y-84500000D01*
X78635714Y-84538095D01*
X78559523Y-84652380D01*
X78521428Y-84804761D01*
X78521428Y-85109523D01*
X78559523Y-85185714D01*
X78597619Y-85223809D01*
X78673809Y-85261904D01*
X78826190Y-85261904D01*
X78902380Y-85223809D01*
X78940476Y-85185714D01*
X78978571Y-85109523D01*
X78978571Y-84919047D01*
X78940476Y-84842857D01*
X78902380Y-84804761D01*
X78826190Y-84766666D01*
X78673809Y-84766666D01*
X78597619Y-84804761D01*
X78559523Y-84842857D01*
X78521428Y-84919047D01*
X77934523Y-104286904D02*
X77934523Y-103486904D01*
X78125000Y-103486904D01*
X78239285Y-103525000D01*
X78315476Y-103601190D01*
X78353571Y-103677380D01*
X78391666Y-103829761D01*
X78391666Y-103944047D01*
X78353571Y-104096428D01*
X78315476Y-104172619D01*
X78239285Y-104248809D01*
X78125000Y-104286904D01*
X77934523Y-104286904D01*
X78658333Y-103486904D02*
X79191666Y-103486904D01*
X78848809Y-104286904D01*
X99234523Y-66286904D02*
X99234523Y-65486904D01*
X99425000Y-65486904D01*
X99539285Y-65525000D01*
X99615476Y-65601190D01*
X99653571Y-65677380D01*
X99691666Y-65829761D01*
X99691666Y-65944047D01*
X99653571Y-66096428D01*
X99615476Y-66172619D01*
X99539285Y-66248809D01*
X99425000Y-66286904D01*
X99234523Y-66286904D01*
X100072619Y-66286904D02*
X100225000Y-66286904D01*
X100301190Y-66248809D01*
X100339285Y-66210714D01*
X100415476Y-66096428D01*
X100453571Y-65944047D01*
X100453571Y-65639285D01*
X100415476Y-65563095D01*
X100377380Y-65525000D01*
X100301190Y-65486904D01*
X100148809Y-65486904D01*
X100072619Y-65525000D01*
X100034523Y-65563095D01*
X99996428Y-65639285D01*
X99996428Y-65829761D01*
X100034523Y-65905952D01*
X100072619Y-65944047D01*
X100148809Y-65982142D01*
X100301190Y-65982142D01*
X100377380Y-65944047D01*
X100415476Y-65905952D01*
X100453571Y-65829761D01*
X101153571Y-104211904D02*
X101153571Y-103411904D01*
X101344047Y-103411904D01*
X101458333Y-103450000D01*
X101534523Y-103526190D01*
X101572619Y-103602380D01*
X101610714Y-103754761D01*
X101610714Y-103869047D01*
X101572619Y-104021428D01*
X101534523Y-104097619D01*
X101458333Y-104173809D01*
X101344047Y-104211904D01*
X101153571Y-104211904D01*
X102372619Y-104211904D02*
X101915476Y-104211904D01*
X102144047Y-104211904D02*
X102144047Y-103411904D01*
X102067857Y-103526190D01*
X101991666Y-103602380D01*
X101915476Y-103640476D01*
X103134523Y-104211904D02*
X102677380Y-104211904D01*
X102905952Y-104211904D02*
X102905952Y-103411904D01*
X102829761Y-103526190D01*
X102753571Y-103602380D01*
X102677380Y-103640476D01*
X113153571Y-47261904D02*
X113153571Y-46461904D01*
X113344047Y-46461904D01*
X113458333Y-46500000D01*
X113534523Y-46576190D01*
X113572619Y-46652380D01*
X113610714Y-46804761D01*
X113610714Y-46919047D01*
X113572619Y-47071428D01*
X113534523Y-47147619D01*
X113458333Y-47223809D01*
X113344047Y-47261904D01*
X113153571Y-47261904D01*
X114372619Y-47261904D02*
X113915476Y-47261904D01*
X114144047Y-47261904D02*
X114144047Y-46461904D01*
X114067857Y-46576190D01*
X113991666Y-46652380D01*
X113915476Y-46690476D01*
X114677380Y-46538095D02*
X114715476Y-46500000D01*
X114791666Y-46461904D01*
X114982142Y-46461904D01*
X115058333Y-46500000D01*
X115096428Y-46538095D01*
X115134523Y-46614285D01*
X115134523Y-46690476D01*
X115096428Y-46804761D01*
X114639285Y-47261904D01*
X115134523Y-47261904D01*
X117778571Y-66236904D02*
X117778571Y-65436904D01*
X117969047Y-65436904D01*
X118083333Y-65475000D01*
X118159523Y-65551190D01*
X118197619Y-65627380D01*
X118235714Y-65779761D01*
X118235714Y-65894047D01*
X118197619Y-66046428D01*
X118159523Y-66122619D01*
X118083333Y-66198809D01*
X117969047Y-66236904D01*
X117778571Y-66236904D01*
X118997619Y-66236904D02*
X118540476Y-66236904D01*
X118769047Y-66236904D02*
X118769047Y-65436904D01*
X118692857Y-65551190D01*
X118616666Y-65627380D01*
X118540476Y-65665476D01*
X119264285Y-65436904D02*
X119759523Y-65436904D01*
X119492857Y-65741666D01*
X119607142Y-65741666D01*
X119683333Y-65779761D01*
X119721428Y-65817857D01*
X119759523Y-65894047D01*
X119759523Y-66084523D01*
X119721428Y-66160714D01*
X119683333Y-66198809D01*
X119607142Y-66236904D01*
X119378571Y-66236904D01*
X119302380Y-66198809D01*
X119264285Y-66160714D01*
X127378571Y-85261904D02*
X127378571Y-84461904D01*
X127569047Y-84461904D01*
X127683333Y-84500000D01*
X127759523Y-84576190D01*
X127797619Y-84652380D01*
X127835714Y-84804761D01*
X127835714Y-84919047D01*
X127797619Y-85071428D01*
X127759523Y-85147619D01*
X127683333Y-85223809D01*
X127569047Y-85261904D01*
X127378571Y-85261904D01*
X128597619Y-85261904D02*
X128140476Y-85261904D01*
X128369047Y-85261904D02*
X128369047Y-84461904D01*
X128292857Y-84576190D01*
X128216666Y-84652380D01*
X128140476Y-84690476D01*
X129283333Y-84728571D02*
X129283333Y-85261904D01*
X129092857Y-84423809D02*
X128902380Y-84995238D01*
X129397619Y-84995238D01*
X124978571Y-104236904D02*
X124978571Y-103436904D01*
X125169047Y-103436904D01*
X125283333Y-103475000D01*
X125359523Y-103551190D01*
X125397619Y-103627380D01*
X125435714Y-103779761D01*
X125435714Y-103894047D01*
X125397619Y-104046428D01*
X125359523Y-104122619D01*
X125283333Y-104198809D01*
X125169047Y-104236904D01*
X124978571Y-104236904D01*
X126197619Y-104236904D02*
X125740476Y-104236904D01*
X125969047Y-104236904D02*
X125969047Y-103436904D01*
X125892857Y-103551190D01*
X125816666Y-103627380D01*
X125740476Y-103665476D01*
X126921428Y-103436904D02*
X126540476Y-103436904D01*
X126502380Y-103817857D01*
X126540476Y-103779761D01*
X126616666Y-103741666D01*
X126807142Y-103741666D01*
X126883333Y-103779761D01*
X126921428Y-103817857D01*
X126959523Y-103894047D01*
X126959523Y-104084523D01*
X126921428Y-104160714D01*
X126883333Y-104198809D01*
X126807142Y-104236904D01*
X126616666Y-104236904D01*
X126540476Y-104198809D01*
X126502380Y-104160714D01*
X135286904Y-38471428D02*
X134486904Y-38471428D01*
X134486904Y-38280952D01*
X134525000Y-38166666D01*
X134601190Y-38090476D01*
X134677380Y-38052380D01*
X134829761Y-38014285D01*
X134944047Y-38014285D01*
X135096428Y-38052380D01*
X135172619Y-38090476D01*
X135248809Y-38166666D01*
X135286904Y-38280952D01*
X135286904Y-38471428D01*
X135286904Y-37252380D02*
X135286904Y-37709523D01*
X135286904Y-37480952D02*
X134486904Y-37480952D01*
X134601190Y-37557142D01*
X134677380Y-37633333D01*
X134715476Y-37709523D01*
X134486904Y-36566666D02*
X134486904Y-36719047D01*
X134525000Y-36795238D01*
X134563095Y-36833333D01*
X134677380Y-36909523D01*
X134829761Y-36947619D01*
X135134523Y-36947619D01*
X135210714Y-36909523D01*
X135248809Y-36871428D01*
X135286904Y-36795238D01*
X135286904Y-36642857D01*
X135248809Y-36566666D01*
X135210714Y-36528571D01*
X135134523Y-36490476D01*
X134944047Y-36490476D01*
X134867857Y-36528571D01*
X134829761Y-36566666D01*
X134791666Y-36642857D01*
X134791666Y-36795238D01*
X134829761Y-36871428D01*
X134867857Y-36909523D01*
X134944047Y-36947619D01*
X131903571Y-47236904D02*
X131903571Y-46436904D01*
X132094047Y-46436904D01*
X132208333Y-46475000D01*
X132284523Y-46551190D01*
X132322619Y-46627380D01*
X132360714Y-46779761D01*
X132360714Y-46894047D01*
X132322619Y-47046428D01*
X132284523Y-47122619D01*
X132208333Y-47198809D01*
X132094047Y-47236904D01*
X131903571Y-47236904D01*
X133122619Y-47236904D02*
X132665476Y-47236904D01*
X132894047Y-47236904D02*
X132894047Y-46436904D01*
X132817857Y-46551190D01*
X132741666Y-46627380D01*
X132665476Y-46665476D01*
X133389285Y-46436904D02*
X133922619Y-46436904D01*
X133579761Y-47236904D01*
X136753571Y-66261904D02*
X136753571Y-65461904D01*
X136944047Y-65461904D01*
X137058333Y-65500000D01*
X137134523Y-65576190D01*
X137172619Y-65652380D01*
X137210714Y-65804761D01*
X137210714Y-65919047D01*
X137172619Y-66071428D01*
X137134523Y-66147619D01*
X137058333Y-66223809D01*
X136944047Y-66261904D01*
X136753571Y-66261904D01*
X137972619Y-66261904D02*
X137515476Y-66261904D01*
X137744047Y-66261904D02*
X137744047Y-65461904D01*
X137667857Y-65576190D01*
X137591666Y-65652380D01*
X137515476Y-65690476D01*
X138429761Y-65804761D02*
X138353571Y-65766666D01*
X138315476Y-65728571D01*
X138277380Y-65652380D01*
X138277380Y-65614285D01*
X138315476Y-65538095D01*
X138353571Y-65500000D01*
X138429761Y-65461904D01*
X138582142Y-65461904D01*
X138658333Y-65500000D01*
X138696428Y-65538095D01*
X138734523Y-65614285D01*
X138734523Y-65652380D01*
X138696428Y-65728571D01*
X138658333Y-65766666D01*
X138582142Y-65804761D01*
X138429761Y-65804761D01*
X138353571Y-65842857D01*
X138315476Y-65880952D01*
X138277380Y-65957142D01*
X138277380Y-66109523D01*
X138315476Y-66185714D01*
X138353571Y-66223809D01*
X138429761Y-66261904D01*
X138582142Y-66261904D01*
X138658333Y-66223809D01*
X138696428Y-66185714D01*
X138734523Y-66109523D01*
X138734523Y-65957142D01*
X138696428Y-65880952D01*
X138658333Y-65842857D01*
X138582142Y-65804761D01*
X146328571Y-85286904D02*
X146328571Y-84486904D01*
X146519047Y-84486904D01*
X146633333Y-84525000D01*
X146709523Y-84601190D01*
X146747619Y-84677380D01*
X146785714Y-84829761D01*
X146785714Y-84944047D01*
X146747619Y-85096428D01*
X146709523Y-85172619D01*
X146633333Y-85248809D01*
X146519047Y-85286904D01*
X146328571Y-85286904D01*
X147547619Y-85286904D02*
X147090476Y-85286904D01*
X147319047Y-85286904D02*
X147319047Y-84486904D01*
X147242857Y-84601190D01*
X147166666Y-84677380D01*
X147090476Y-84715476D01*
X147928571Y-85286904D02*
X148080952Y-85286904D01*
X148157142Y-85248809D01*
X148195238Y-85210714D01*
X148271428Y-85096428D01*
X148309523Y-84944047D01*
X148309523Y-84639285D01*
X148271428Y-84563095D01*
X148233333Y-84525000D01*
X148157142Y-84486904D01*
X148004761Y-84486904D01*
X147928571Y-84525000D01*
X147890476Y-84563095D01*
X147852380Y-84639285D01*
X147852380Y-84829761D01*
X147890476Y-84905952D01*
X147928571Y-84944047D01*
X148004761Y-84982142D01*
X148157142Y-84982142D01*
X148233333Y-84944047D01*
X148271428Y-84905952D01*
X148309523Y-84829761D01*
X158128571Y-104236904D02*
X158128571Y-103436904D01*
X158319047Y-103436904D01*
X158433333Y-103475000D01*
X158509523Y-103551190D01*
X158547619Y-103627380D01*
X158585714Y-103779761D01*
X158585714Y-103894047D01*
X158547619Y-104046428D01*
X158509523Y-104122619D01*
X158433333Y-104198809D01*
X158319047Y-104236904D01*
X158128571Y-104236904D01*
X158890476Y-103513095D02*
X158928571Y-103475000D01*
X159004761Y-103436904D01*
X159195238Y-103436904D01*
X159271428Y-103475000D01*
X159309523Y-103513095D01*
X159347619Y-103589285D01*
X159347619Y-103665476D01*
X159309523Y-103779761D01*
X158852380Y-104236904D01*
X159347619Y-104236904D01*
X159842857Y-103436904D02*
X159919047Y-103436904D01*
X159995238Y-103475000D01*
X160033333Y-103513095D01*
X160071428Y-103589285D01*
X160109523Y-103741666D01*
X160109523Y-103932142D01*
X160071428Y-104084523D01*
X160033333Y-104160714D01*
X159995238Y-104198809D01*
X159919047Y-104236904D01*
X159842857Y-104236904D01*
X159766666Y-104198809D01*
X159728571Y-104160714D01*
X159690476Y-104084523D01*
X159652380Y-103932142D01*
X159652380Y-103741666D01*
X159690476Y-103589285D01*
X159728571Y-103513095D01*
X159766666Y-103475000D01*
X159842857Y-103436904D01*
X153786904Y-38471428D02*
X152986904Y-38471428D01*
X152986904Y-38280952D01*
X153025000Y-38166666D01*
X153101190Y-38090476D01*
X153177380Y-38052380D01*
X153329761Y-38014285D01*
X153444047Y-38014285D01*
X153596428Y-38052380D01*
X153672619Y-38090476D01*
X153748809Y-38166666D01*
X153786904Y-38280952D01*
X153786904Y-38471428D01*
X153063095Y-37709523D02*
X153025000Y-37671428D01*
X152986904Y-37595238D01*
X152986904Y-37404761D01*
X153025000Y-37328571D01*
X153063095Y-37290476D01*
X153139285Y-37252380D01*
X153215476Y-37252380D01*
X153329761Y-37290476D01*
X153786904Y-37747619D01*
X153786904Y-37252380D01*
X153786904Y-36490476D02*
X153786904Y-36947619D01*
X153786904Y-36719047D02*
X152986904Y-36719047D01*
X153101190Y-36795238D01*
X153177380Y-36871428D01*
X153215476Y-36947619D01*
X151253571Y-47261904D02*
X151253571Y-46461904D01*
X151444047Y-46461904D01*
X151558333Y-46500000D01*
X151634523Y-46576190D01*
X151672619Y-46652380D01*
X151710714Y-46804761D01*
X151710714Y-46919047D01*
X151672619Y-47071428D01*
X151634523Y-47147619D01*
X151558333Y-47223809D01*
X151444047Y-47261904D01*
X151253571Y-47261904D01*
X152015476Y-46538095D02*
X152053571Y-46500000D01*
X152129761Y-46461904D01*
X152320238Y-46461904D01*
X152396428Y-46500000D01*
X152434523Y-46538095D01*
X152472619Y-46614285D01*
X152472619Y-46690476D01*
X152434523Y-46804761D01*
X151977380Y-47261904D01*
X152472619Y-47261904D01*
X152777380Y-46538095D02*
X152815476Y-46500000D01*
X152891666Y-46461904D01*
X153082142Y-46461904D01*
X153158333Y-46500000D01*
X153196428Y-46538095D01*
X153234523Y-46614285D01*
X153234523Y-46690476D01*
X153196428Y-46804761D01*
X152739285Y-47261904D01*
X153234523Y-47261904D01*
X155803571Y-66211904D02*
X155803571Y-65411904D01*
X155994047Y-65411904D01*
X156108333Y-65450000D01*
X156184523Y-65526190D01*
X156222619Y-65602380D01*
X156260714Y-65754761D01*
X156260714Y-65869047D01*
X156222619Y-66021428D01*
X156184523Y-66097619D01*
X156108333Y-66173809D01*
X155994047Y-66211904D01*
X155803571Y-66211904D01*
X156565476Y-65488095D02*
X156603571Y-65450000D01*
X156679761Y-65411904D01*
X156870238Y-65411904D01*
X156946428Y-65450000D01*
X156984523Y-65488095D01*
X157022619Y-65564285D01*
X157022619Y-65640476D01*
X156984523Y-65754761D01*
X156527380Y-66211904D01*
X157022619Y-66211904D01*
X157289285Y-65411904D02*
X157784523Y-65411904D01*
X157517857Y-65716666D01*
X157632142Y-65716666D01*
X157708333Y-65754761D01*
X157746428Y-65792857D01*
X157784523Y-65869047D01*
X157784523Y-66059523D01*
X157746428Y-66135714D01*
X157708333Y-66173809D01*
X157632142Y-66211904D01*
X157403571Y-66211904D01*
X157327380Y-66173809D01*
X157289285Y-66135714D01*
X165303571Y-85286904D02*
X165303571Y-84486904D01*
X165494047Y-84486904D01*
X165608333Y-84525000D01*
X165684523Y-84601190D01*
X165722619Y-84677380D01*
X165760714Y-84829761D01*
X165760714Y-84944047D01*
X165722619Y-85096428D01*
X165684523Y-85172619D01*
X165608333Y-85248809D01*
X165494047Y-85286904D01*
X165303571Y-85286904D01*
X166065476Y-84563095D02*
X166103571Y-84525000D01*
X166179761Y-84486904D01*
X166370238Y-84486904D01*
X166446428Y-84525000D01*
X166484523Y-84563095D01*
X166522619Y-84639285D01*
X166522619Y-84715476D01*
X166484523Y-84829761D01*
X166027380Y-85286904D01*
X166522619Y-85286904D01*
X167208333Y-84753571D02*
X167208333Y-85286904D01*
X167017857Y-84448809D02*
X166827380Y-85020238D01*
X167322619Y-85020238D01*
X173286904Y-38471428D02*
X172486904Y-38471428D01*
X172486904Y-38280952D01*
X172525000Y-38166666D01*
X172601190Y-38090476D01*
X172677380Y-38052380D01*
X172829761Y-38014285D01*
X172944047Y-38014285D01*
X173096428Y-38052380D01*
X173172619Y-38090476D01*
X173248809Y-38166666D01*
X173286904Y-38280952D01*
X173286904Y-38471428D01*
X172563095Y-37709523D02*
X172525000Y-37671428D01*
X172486904Y-37595238D01*
X172486904Y-37404761D01*
X172525000Y-37328571D01*
X172563095Y-37290476D01*
X172639285Y-37252380D01*
X172715476Y-37252380D01*
X172829761Y-37290476D01*
X173286904Y-37747619D01*
X173286904Y-37252380D01*
X172486904Y-36566666D02*
X172486904Y-36719047D01*
X172525000Y-36795238D01*
X172563095Y-36833333D01*
X172677380Y-36909523D01*
X172829761Y-36947619D01*
X173134523Y-36947619D01*
X173210714Y-36909523D01*
X173248809Y-36871428D01*
X173286904Y-36795238D01*
X173286904Y-36642857D01*
X173248809Y-36566666D01*
X173210714Y-36528571D01*
X173134523Y-36490476D01*
X172944047Y-36490476D01*
X172867857Y-36528571D01*
X172829761Y-36566666D01*
X172791666Y-36642857D01*
X172791666Y-36795238D01*
X172829761Y-36871428D01*
X172867857Y-36909523D01*
X172944047Y-36947619D01*
X170028571Y-47436904D02*
X170028571Y-46636904D01*
X170219047Y-46636904D01*
X170333333Y-46675000D01*
X170409523Y-46751190D01*
X170447619Y-46827380D01*
X170485714Y-46979761D01*
X170485714Y-47094047D01*
X170447619Y-47246428D01*
X170409523Y-47322619D01*
X170333333Y-47398809D01*
X170219047Y-47436904D01*
X170028571Y-47436904D01*
X170790476Y-46713095D02*
X170828571Y-46675000D01*
X170904761Y-46636904D01*
X171095238Y-46636904D01*
X171171428Y-46675000D01*
X171209523Y-46713095D01*
X171247619Y-46789285D01*
X171247619Y-46865476D01*
X171209523Y-46979761D01*
X170752380Y-47436904D01*
X171247619Y-47436904D01*
X171514285Y-46636904D02*
X172047619Y-46636904D01*
X171704761Y-47436904D01*
X174728571Y-66261904D02*
X174728571Y-65461904D01*
X174919047Y-65461904D01*
X175033333Y-65500000D01*
X175109523Y-65576190D01*
X175147619Y-65652380D01*
X175185714Y-65804761D01*
X175185714Y-65919047D01*
X175147619Y-66071428D01*
X175109523Y-66147619D01*
X175033333Y-66223809D01*
X174919047Y-66261904D01*
X174728571Y-66261904D01*
X175490476Y-65538095D02*
X175528571Y-65500000D01*
X175604761Y-65461904D01*
X175795238Y-65461904D01*
X175871428Y-65500000D01*
X175909523Y-65538095D01*
X175947619Y-65614285D01*
X175947619Y-65690476D01*
X175909523Y-65804761D01*
X175452380Y-66261904D01*
X175947619Y-66261904D01*
X176404761Y-65804761D02*
X176328571Y-65766666D01*
X176290476Y-65728571D01*
X176252380Y-65652380D01*
X176252380Y-65614285D01*
X176290476Y-65538095D01*
X176328571Y-65500000D01*
X176404761Y-65461904D01*
X176557142Y-65461904D01*
X176633333Y-65500000D01*
X176671428Y-65538095D01*
X176709523Y-65614285D01*
X176709523Y-65652380D01*
X176671428Y-65728571D01*
X176633333Y-65766666D01*
X176557142Y-65804761D01*
X176404761Y-65804761D01*
X176328571Y-65842857D01*
X176290476Y-65880952D01*
X176252380Y-65957142D01*
X176252380Y-66109523D01*
X176290476Y-66185714D01*
X176328571Y-66223809D01*
X176404761Y-66261904D01*
X176557142Y-66261904D01*
X176633333Y-66223809D01*
X176671428Y-66185714D01*
X176709523Y-66109523D01*
X176709523Y-65957142D01*
X176671428Y-65880952D01*
X176633333Y-65842857D01*
X176557142Y-65804761D01*
X184253571Y-85286904D02*
X184253571Y-84486904D01*
X184444047Y-84486904D01*
X184558333Y-84525000D01*
X184634523Y-84601190D01*
X184672619Y-84677380D01*
X184710714Y-84829761D01*
X184710714Y-84944047D01*
X184672619Y-85096428D01*
X184634523Y-85172619D01*
X184558333Y-85248809D01*
X184444047Y-85286904D01*
X184253571Y-85286904D01*
X185015476Y-84563095D02*
X185053571Y-84525000D01*
X185129761Y-84486904D01*
X185320238Y-84486904D01*
X185396428Y-84525000D01*
X185434523Y-84563095D01*
X185472619Y-84639285D01*
X185472619Y-84715476D01*
X185434523Y-84829761D01*
X184977380Y-85286904D01*
X185472619Y-85286904D01*
X185853571Y-85286904D02*
X186005952Y-85286904D01*
X186082142Y-85248809D01*
X186120238Y-85210714D01*
X186196428Y-85096428D01*
X186234523Y-84944047D01*
X186234523Y-84639285D01*
X186196428Y-84563095D01*
X186158333Y-84525000D01*
X186082142Y-84486904D01*
X185929761Y-84486904D01*
X185853571Y-84525000D01*
X185815476Y-84563095D01*
X185777380Y-84639285D01*
X185777380Y-84829761D01*
X185815476Y-84905952D01*
X185853571Y-84944047D01*
X185929761Y-84982142D01*
X186082142Y-84982142D01*
X186158333Y-84944047D01*
X186196428Y-84905952D01*
X186234523Y-84829761D01*
X203245011Y-122558260D02*
X202971395Y-123310015D01*
X202792406Y-123244868D01*
X202698042Y-123169982D01*
X202652505Y-123072328D01*
X202642766Y-122987703D01*
X202659086Y-122831482D01*
X202698174Y-122724089D01*
X202786089Y-122593927D01*
X202847945Y-122535360D01*
X202945600Y-122489824D01*
X203066022Y-122493114D01*
X203245011Y-122558260D01*
X202291237Y-123062457D02*
X201825865Y-122893076D01*
X202180685Y-122697899D01*
X202073291Y-122658811D01*
X202014725Y-122596954D01*
X201991957Y-122548127D01*
X201982217Y-122463502D01*
X202047364Y-122284513D01*
X202109221Y-122225947D01*
X202158048Y-122203178D01*
X202242673Y-122193439D01*
X202457460Y-122271615D01*
X202516026Y-122333471D01*
X202538794Y-122382299D01*
X201360494Y-122723694D02*
X201288898Y-122697636D01*
X201230332Y-122635779D01*
X201207563Y-122586952D01*
X201197824Y-122502327D01*
X201214144Y-122346106D01*
X201279290Y-122167117D01*
X201367206Y-122036955D01*
X201429062Y-121978389D01*
X201477889Y-121955621D01*
X201562514Y-121945881D01*
X201634110Y-121971940D01*
X201692676Y-122033797D01*
X201715445Y-122082624D01*
X201725184Y-122167249D01*
X201708864Y-122323469D01*
X201643718Y-122502458D01*
X201555802Y-122632620D01*
X201493946Y-122691187D01*
X201445119Y-122713955D01*
X201360494Y-122723694D01*
X181103571Y-51361904D02*
X181103571Y-50561904D01*
X181294047Y-50561904D01*
X181408333Y-50600000D01*
X181484523Y-50676190D01*
X181522619Y-50752380D01*
X181560714Y-50904761D01*
X181560714Y-51019047D01*
X181522619Y-51171428D01*
X181484523Y-51247619D01*
X181408333Y-51323809D01*
X181294047Y-51361904D01*
X181103571Y-51361904D01*
X181827380Y-50561904D02*
X182322619Y-50561904D01*
X182055952Y-50866666D01*
X182170238Y-50866666D01*
X182246428Y-50904761D01*
X182284523Y-50942857D01*
X182322619Y-51019047D01*
X182322619Y-51209523D01*
X182284523Y-51285714D01*
X182246428Y-51323809D01*
X182170238Y-51361904D01*
X181941666Y-51361904D01*
X181865476Y-51323809D01*
X181827380Y-51285714D01*
X183084523Y-51361904D02*
X182627380Y-51361904D01*
X182855952Y-51361904D02*
X182855952Y-50561904D01*
X182779761Y-50676190D01*
X182703571Y-50752380D01*
X182627380Y-50790476D01*
X182566904Y-59471428D02*
X181766904Y-59471428D01*
X181766904Y-59280952D01*
X181805000Y-59166666D01*
X181881190Y-59090476D01*
X181957380Y-59052380D01*
X182109761Y-59014285D01*
X182224047Y-59014285D01*
X182376428Y-59052380D01*
X182452619Y-59090476D01*
X182528809Y-59166666D01*
X182566904Y-59280952D01*
X182566904Y-59471428D01*
X181766904Y-58747619D02*
X181766904Y-58252380D01*
X182071666Y-58519047D01*
X182071666Y-58404761D01*
X182109761Y-58328571D01*
X182147857Y-58290476D01*
X182224047Y-58252380D01*
X182414523Y-58252380D01*
X182490714Y-58290476D01*
X182528809Y-58328571D01*
X182566904Y-58404761D01*
X182566904Y-58633333D01*
X182528809Y-58709523D01*
X182490714Y-58747619D01*
X181843095Y-57947619D02*
X181805000Y-57909523D01*
X181766904Y-57833333D01*
X181766904Y-57642857D01*
X181805000Y-57566666D01*
X181843095Y-57528571D01*
X181919285Y-57490476D01*
X181995476Y-57490476D01*
X182109761Y-57528571D01*
X182566904Y-57985714D01*
X182566904Y-57490476D01*
X191028571Y-66261904D02*
X191028571Y-65461904D01*
X191219047Y-65461904D01*
X191333333Y-65500000D01*
X191409523Y-65576190D01*
X191447619Y-65652380D01*
X191485714Y-65804761D01*
X191485714Y-65919047D01*
X191447619Y-66071428D01*
X191409523Y-66147619D01*
X191333333Y-66223809D01*
X191219047Y-66261904D01*
X191028571Y-66261904D01*
X191752380Y-65461904D02*
X192247619Y-65461904D01*
X191980952Y-65766666D01*
X192095238Y-65766666D01*
X192171428Y-65804761D01*
X192209523Y-65842857D01*
X192247619Y-65919047D01*
X192247619Y-66109523D01*
X192209523Y-66185714D01*
X192171428Y-66223809D01*
X192095238Y-66261904D01*
X191866666Y-66261904D01*
X191790476Y-66223809D01*
X191752380Y-66185714D01*
X192514285Y-65461904D02*
X193009523Y-65461904D01*
X192742857Y-65766666D01*
X192857142Y-65766666D01*
X192933333Y-65804761D01*
X192971428Y-65842857D01*
X193009523Y-65919047D01*
X193009523Y-66109523D01*
X192971428Y-66185714D01*
X192933333Y-66223809D01*
X192857142Y-66261904D01*
X192628571Y-66261904D01*
X192552380Y-66223809D01*
X192514285Y-66185714D01*
X108353571Y-85261904D02*
X108353571Y-84461904D01*
X108544047Y-84461904D01*
X108658333Y-84500000D01*
X108734523Y-84576190D01*
X108772619Y-84652380D01*
X108810714Y-84804761D01*
X108810714Y-84919047D01*
X108772619Y-85071428D01*
X108734523Y-85147619D01*
X108658333Y-85223809D01*
X108544047Y-85261904D01*
X108353571Y-85261904D01*
X109572619Y-85261904D02*
X109115476Y-85261904D01*
X109344047Y-85261904D02*
X109344047Y-84461904D01*
X109267857Y-84576190D01*
X109191666Y-84652380D01*
X109115476Y-84690476D01*
X110067857Y-84461904D02*
X110144047Y-84461904D01*
X110220238Y-84500000D01*
X110258333Y-84538095D01*
X110296428Y-84614285D01*
X110334523Y-84766666D01*
X110334523Y-84957142D01*
X110296428Y-85109523D01*
X110258333Y-85185714D01*
X110220238Y-85223809D01*
X110144047Y-85261904D01*
X110067857Y-85261904D01*
X109991666Y-85223809D01*
X109953571Y-85185714D01*
X109915476Y-85109523D01*
X109877380Y-84957142D01*
X109877380Y-84766666D01*
X109915476Y-84614285D01*
X109953571Y-84538095D01*
X109991666Y-84500000D01*
X110067857Y-84461904D01*
X94284523Y-47286904D02*
X94284523Y-46486904D01*
X94475000Y-46486904D01*
X94589285Y-46525000D01*
X94665476Y-46601190D01*
X94703571Y-46677380D01*
X94741666Y-46829761D01*
X94741666Y-46944047D01*
X94703571Y-47096428D01*
X94665476Y-47172619D01*
X94589285Y-47248809D01*
X94475000Y-47286904D01*
X94284523Y-47286904D01*
X95198809Y-46829761D02*
X95122619Y-46791666D01*
X95084523Y-46753571D01*
X95046428Y-46677380D01*
X95046428Y-46639285D01*
X95084523Y-46563095D01*
X95122619Y-46525000D01*
X95198809Y-46486904D01*
X95351190Y-46486904D01*
X95427380Y-46525000D01*
X95465476Y-46563095D01*
X95503571Y-46639285D01*
X95503571Y-46677380D01*
X95465476Y-46753571D01*
X95427380Y-46791666D01*
X95351190Y-46829761D01*
X95198809Y-46829761D01*
X95122619Y-46867857D01*
X95084523Y-46905952D01*
X95046428Y-46982142D01*
X95046428Y-47134523D01*
X95084523Y-47210714D01*
X95122619Y-47248809D01*
X95198809Y-47286904D01*
X95351190Y-47286904D01*
X95427380Y-47248809D01*
X95465476Y-47210714D01*
X95503571Y-47134523D01*
X95503571Y-46982142D01*
X95465476Y-46905952D01*
X95427380Y-46867857D01*
X95351190Y-46829761D01*
X196028571Y-85161904D02*
X196028571Y-84361904D01*
X196219047Y-84361904D01*
X196333333Y-84400000D01*
X196409523Y-84476190D01*
X196447619Y-84552380D01*
X196485714Y-84704761D01*
X196485714Y-84819047D01*
X196447619Y-84971428D01*
X196409523Y-85047619D01*
X196333333Y-85123809D01*
X196219047Y-85161904D01*
X196028571Y-85161904D01*
X196752380Y-84361904D02*
X197247619Y-84361904D01*
X196980952Y-84666666D01*
X197095238Y-84666666D01*
X197171428Y-84704761D01*
X197209523Y-84742857D01*
X197247619Y-84819047D01*
X197247619Y-85009523D01*
X197209523Y-85085714D01*
X197171428Y-85123809D01*
X197095238Y-85161904D01*
X196866666Y-85161904D01*
X196790476Y-85123809D01*
X196752380Y-85085714D01*
X197933333Y-84628571D02*
X197933333Y-85161904D01*
X197742857Y-84323809D02*
X197552380Y-84895238D01*
X198047619Y-84895238D01*
X187795011Y-109483260D02*
X187521395Y-110235015D01*
X187342406Y-110169868D01*
X187248042Y-110094982D01*
X187202505Y-109997328D01*
X187192766Y-109912703D01*
X187209086Y-109756482D01*
X187248174Y-109649089D01*
X187336089Y-109518927D01*
X187397945Y-109460360D01*
X187495600Y-109414824D01*
X187616022Y-109418114D01*
X187795011Y-109483260D01*
X186831498Y-109902832D02*
X186782671Y-109925601D01*
X186698046Y-109935340D01*
X186519057Y-109870193D01*
X186460490Y-109808337D01*
X186437722Y-109759509D01*
X186427983Y-109674884D01*
X186454041Y-109603289D01*
X186528927Y-109508925D01*
X187114853Y-109235703D01*
X186649481Y-109066322D01*
X185695707Y-109570518D02*
X186053685Y-109700812D01*
X186219776Y-109355863D01*
X186170949Y-109378631D01*
X186086324Y-109388370D01*
X185907335Y-109323224D01*
X185848769Y-109261367D01*
X185826000Y-109212540D01*
X185816261Y-109127915D01*
X185881408Y-108948926D01*
X185943264Y-108890360D01*
X185992091Y-108867591D01*
X186076716Y-108857852D01*
X186255705Y-108922999D01*
X186314272Y-108984855D01*
X186337040Y-109033682D01*
X62286904Y-77395238D02*
X61486904Y-77395238D01*
X61486904Y-77204761D01*
X61525000Y-77090476D01*
X61601190Y-77014285D01*
X61677380Y-76976190D01*
X61829761Y-76938095D01*
X61944047Y-76938095D01*
X62096428Y-76976190D01*
X62172619Y-77014285D01*
X62248809Y-77090476D01*
X62286904Y-77204761D01*
X62286904Y-77395238D01*
X61486904Y-76709523D02*
X61486904Y-76252380D01*
X62286904Y-76480952D02*
X61486904Y-76480952D01*
X62286904Y-75566666D02*
X62286904Y-76023809D01*
X62286904Y-75795238D02*
X61486904Y-75795238D01*
X61601190Y-75871428D01*
X61677380Y-75947619D01*
X61715476Y-76023809D01*
X56477380Y-81436904D02*
X56477380Y-80865476D01*
X57477380Y-81151190D02*
X56477380Y-81151190D01*
X57477380Y-80008333D02*
X57477380Y-80579761D01*
X57477380Y-80294047D02*
X56477380Y-80294047D01*
X56620238Y-80389285D01*
X56715476Y-80484523D01*
X56763095Y-80579761D01*
X62286904Y-95895238D02*
X61486904Y-95895238D01*
X61486904Y-95704761D01*
X61525000Y-95590476D01*
X61601190Y-95514285D01*
X61677380Y-95476190D01*
X61829761Y-95438095D01*
X61944047Y-95438095D01*
X62096428Y-95476190D01*
X62172619Y-95514285D01*
X62248809Y-95590476D01*
X62286904Y-95704761D01*
X62286904Y-95895238D01*
X61486904Y-95209523D02*
X61486904Y-94752380D01*
X62286904Y-94980952D02*
X61486904Y-94980952D01*
X61563095Y-94523809D02*
X61525000Y-94485714D01*
X61486904Y-94409523D01*
X61486904Y-94219047D01*
X61525000Y-94142857D01*
X61563095Y-94104761D01*
X61639285Y-94066666D01*
X61715476Y-94066666D01*
X61829761Y-94104761D01*
X62286904Y-94561904D01*
X62286904Y-94066666D01*
D11*
X40930952Y-120719523D02*
X40740476Y-120814761D01*
X40359523Y-120814761D01*
X40169047Y-120719523D01*
X40073809Y-120529047D01*
X40073809Y-119767142D01*
X40169047Y-119576666D01*
X40359523Y-119481428D01*
X40740476Y-119481428D01*
X40930952Y-119576666D01*
X41026190Y-119767142D01*
X41026190Y-119957619D01*
X40073809Y-120148095D01*
X42169047Y-120814761D02*
X41978571Y-120719523D01*
X41883333Y-120529047D01*
X41883333Y-118814761D01*
X43216666Y-120814761D02*
X43026190Y-120719523D01*
X42930952Y-120529047D01*
X42930952Y-118814761D01*
X43978571Y-120814761D02*
X43978571Y-119481428D01*
X43978571Y-118814761D02*
X43883333Y-118910000D01*
X43978571Y-119005238D01*
X44073809Y-118910000D01*
X43978571Y-118814761D01*
X43978571Y-119005238D01*
X44930952Y-119481428D02*
X44930952Y-121481428D01*
X44930952Y-119576666D02*
X45121428Y-119481428D01*
X45502380Y-119481428D01*
X45692857Y-119576666D01*
X45788095Y-119671904D01*
X45883333Y-119862380D01*
X45883333Y-120433809D01*
X45788095Y-120624285D01*
X45692857Y-120719523D01*
X45502380Y-120814761D01*
X45121428Y-120814761D01*
X44930952Y-120719523D01*
X46645238Y-120719523D02*
X46835714Y-120814761D01*
X47216666Y-120814761D01*
X47407142Y-120719523D01*
X47502380Y-120529047D01*
X47502380Y-120433809D01*
X47407142Y-120243333D01*
X47216666Y-120148095D01*
X46930952Y-120148095D01*
X46740476Y-120052857D01*
X46645238Y-119862380D01*
X46645238Y-119767142D01*
X46740476Y-119576666D01*
X46930952Y-119481428D01*
X47216666Y-119481428D01*
X47407142Y-119576666D01*
X48359523Y-120814761D02*
X48359523Y-119481428D01*
X48359523Y-118814761D02*
X48264285Y-118910000D01*
X48359523Y-119005238D01*
X48454761Y-118910000D01*
X48359523Y-118814761D01*
X48359523Y-119005238D01*
X49216666Y-120719523D02*
X49407142Y-120814761D01*
X49788095Y-120814761D01*
X49978571Y-120719523D01*
X50073809Y-120529047D01*
X50073809Y-120433809D01*
X49978571Y-120243333D01*
X49788095Y-120148095D01*
X49502380Y-120148095D01*
X49311904Y-120052857D01*
X49216666Y-119862380D01*
X49216666Y-119767142D01*
X49311904Y-119576666D01*
X49502380Y-119481428D01*
X49788095Y-119481428D01*
X49978571Y-119576666D01*
X52264285Y-119481428D02*
X52740476Y-120814761D01*
X53216666Y-119481428D01*
X53883333Y-119005238D02*
X53978571Y-118910000D01*
X54169047Y-118814761D01*
X54645238Y-118814761D01*
X54835714Y-118910000D01*
X54930952Y-119005238D01*
X55026190Y-119195714D01*
X55026190Y-119386190D01*
X54930952Y-119671904D01*
X53788095Y-120814761D01*
X55026190Y-120814761D01*
D10*
X56423630Y-100436904D02*
X56423630Y-99865476D01*
X57423630Y-100151190D02*
X56423630Y-100151190D01*
X56518869Y-99579761D02*
X56471250Y-99532142D01*
X56423630Y-99436904D01*
X56423630Y-99198809D01*
X56471250Y-99103571D01*
X56518869Y-99055952D01*
X56614107Y-99008333D01*
X56709345Y-99008333D01*
X56852202Y-99055952D01*
X57423630Y-99627380D01*
X57423630Y-99008333D01*
X52694333Y-60451904D02*
X53227666Y-60451904D01*
X52884809Y-61251904D01*
X52732428Y-47828095D02*
X52770523Y-47790000D01*
X52846714Y-47751904D01*
X53037190Y-47751904D01*
X53113380Y-47790000D01*
X53151476Y-47828095D01*
X53189571Y-47904285D01*
X53189571Y-47980476D01*
X53151476Y-48094761D01*
X52694333Y-48551904D01*
X53189571Y-48551904D01*
X52446714Y-40931904D02*
X52180047Y-40550952D01*
X51989571Y-40931904D02*
X51989571Y-40131904D01*
X52294333Y-40131904D01*
X52370523Y-40170000D01*
X52408619Y-40208095D01*
X52446714Y-40284285D01*
X52446714Y-40398571D01*
X52408619Y-40474761D01*
X52370523Y-40512857D01*
X52294333Y-40550952D01*
X51989571Y-40550952D01*
X52713380Y-40131904D02*
X53246714Y-40931904D01*
X53246714Y-40131904D02*
X52713380Y-40931904D01*
X53970523Y-40931904D02*
X53513380Y-40931904D01*
X53741952Y-40931904D02*
X53741952Y-40131904D01*
X53665761Y-40246190D01*
X53589571Y-40322380D01*
X53513380Y-40360476D01*
X53151476Y-55371904D02*
X52770523Y-55371904D01*
X52732428Y-55752857D01*
X52770523Y-55714761D01*
X52846714Y-55676666D01*
X53037190Y-55676666D01*
X53113380Y-55714761D01*
X53151476Y-55752857D01*
X53189571Y-55829047D01*
X53189571Y-56019523D01*
X53151476Y-56095714D01*
X53113380Y-56133809D01*
X53037190Y-56171904D01*
X52846714Y-56171904D01*
X52770523Y-56133809D01*
X52732428Y-56095714D01*
X41467571Y-53403333D02*
X41848523Y-53403333D01*
X41391380Y-53631904D02*
X41658047Y-52831904D01*
X41924714Y-53631904D01*
X42610428Y-53631904D02*
X42153285Y-53631904D01*
X42381857Y-53631904D02*
X42381857Y-52831904D01*
X42305666Y-52946190D01*
X42229476Y-53022380D01*
X42153285Y-53060476D01*
X48881395Y-37591904D02*
X49338538Y-37591904D01*
X49109967Y-38391904D02*
X49109967Y-37591904D01*
X49529014Y-37591904D02*
X50062348Y-38391904D01*
X50062348Y-37591904D02*
X49529014Y-38391904D01*
X50519491Y-37591904D02*
X50595681Y-37591904D01*
X50671872Y-37630000D01*
X50709967Y-37668095D01*
X50748062Y-37744285D01*
X50786157Y-37896666D01*
X50786157Y-38087142D01*
X50748062Y-38239523D01*
X50709967Y-38315714D01*
X50671872Y-38353809D01*
X50595681Y-38391904D01*
X50519491Y-38391904D01*
X50443300Y-38353809D01*
X50405205Y-38315714D01*
X50367110Y-38239523D01*
X50329014Y-38087142D01*
X50329014Y-37896666D01*
X50367110Y-37744285D01*
X50405205Y-37668095D01*
X50443300Y-37630000D01*
X50519491Y-37591904D01*
X51700443Y-37553809D02*
X51014729Y-38582380D01*
X51967110Y-38391904D02*
X51967110Y-37591904D01*
X52157586Y-37591904D01*
X52271872Y-37630000D01*
X52348062Y-37706190D01*
X52386157Y-37782380D01*
X52424252Y-37934761D01*
X52424252Y-38049047D01*
X52386157Y-38201428D01*
X52348062Y-38277619D01*
X52271872Y-38353809D01*
X52157586Y-38391904D01*
X51967110Y-38391904D01*
X52690919Y-37591904D02*
X53186157Y-37591904D01*
X52919491Y-37896666D01*
X53033776Y-37896666D01*
X53109967Y-37934761D01*
X53148062Y-37972857D01*
X53186157Y-38049047D01*
X53186157Y-38239523D01*
X53148062Y-38315714D01*
X53109967Y-38353809D01*
X53033776Y-38391904D01*
X52805205Y-38391904D01*
X52729014Y-38353809D01*
X52690919Y-38315714D01*
X41886619Y-58711904D02*
X41429476Y-58711904D01*
X41658047Y-58711904D02*
X41658047Y-57911904D01*
X41581857Y-58026190D01*
X41505666Y-58102380D01*
X41429476Y-58140476D01*
X42610428Y-57911904D02*
X42229476Y-57911904D01*
X42191380Y-58292857D01*
X42229476Y-58254761D01*
X42305666Y-58216666D01*
X42496142Y-58216666D01*
X42572333Y-58254761D01*
X42610428Y-58292857D01*
X42648523Y-58369047D01*
X42648523Y-58559523D01*
X42610428Y-58635714D01*
X42572333Y-58673809D01*
X42496142Y-58711904D01*
X42305666Y-58711904D01*
X42229476Y-58673809D01*
X42191380Y-58635714D01*
X41467571Y-55943333D02*
X41848523Y-55943333D01*
X41391380Y-56171904D02*
X41658047Y-55371904D01*
X41924714Y-56171904D01*
X42343761Y-55371904D02*
X42419952Y-55371904D01*
X42496142Y-55410000D01*
X42534238Y-55448095D01*
X42572333Y-55524285D01*
X42610428Y-55676666D01*
X42610428Y-55867142D01*
X42572333Y-56019523D01*
X42534238Y-56095714D01*
X42496142Y-56133809D01*
X42419952Y-56171904D01*
X42343761Y-56171904D01*
X42267571Y-56133809D01*
X42229476Y-56095714D01*
X42191380Y-56019523D01*
X42153285Y-55867142D01*
X42153285Y-55676666D01*
X42191380Y-55524285D01*
X42229476Y-55448095D01*
X42267571Y-55410000D01*
X42343761Y-55371904D01*
X52884809Y-63334761D02*
X52808619Y-63296666D01*
X52770523Y-63258571D01*
X52732428Y-63182380D01*
X52732428Y-63144285D01*
X52770523Y-63068095D01*
X52808619Y-63030000D01*
X52884809Y-62991904D01*
X53037190Y-62991904D01*
X53113380Y-63030000D01*
X53151476Y-63068095D01*
X53189571Y-63144285D01*
X53189571Y-63182380D01*
X53151476Y-63258571D01*
X53113380Y-63296666D01*
X53037190Y-63334761D01*
X52884809Y-63334761D01*
X52808619Y-63372857D01*
X52770523Y-63410952D01*
X52732428Y-63487142D01*
X52732428Y-63639523D01*
X52770523Y-63715714D01*
X52808619Y-63753809D01*
X52884809Y-63791904D01*
X53037190Y-63791904D01*
X53113380Y-63753809D01*
X53151476Y-63715714D01*
X53189571Y-63639523D01*
X53189571Y-63487142D01*
X53151476Y-63410952D01*
X53113380Y-63372857D01*
X53037190Y-63334761D01*
X41886619Y-66331904D02*
X41429476Y-66331904D01*
X41658047Y-66331904D02*
X41658047Y-65531904D01*
X41581857Y-65646190D01*
X41505666Y-65722380D01*
X41429476Y-65760476D01*
X42381857Y-65531904D02*
X42458047Y-65531904D01*
X42534238Y-65570000D01*
X42572333Y-65608095D01*
X42610428Y-65684285D01*
X42648523Y-65836666D01*
X42648523Y-66027142D01*
X42610428Y-66179523D01*
X42572333Y-66255714D01*
X42534238Y-66293809D01*
X42458047Y-66331904D01*
X42381857Y-66331904D01*
X42305666Y-66293809D01*
X42267571Y-66255714D01*
X42229476Y-66179523D01*
X42191380Y-66027142D01*
X42191380Y-65836666D01*
X42229476Y-65684285D01*
X42267571Y-65608095D01*
X42305666Y-65570000D01*
X42381857Y-65531904D01*
X41467571Y-50863333D02*
X41848523Y-50863333D01*
X41391380Y-51091904D02*
X41658047Y-50291904D01*
X41924714Y-51091904D01*
X42153285Y-50368095D02*
X42191380Y-50330000D01*
X42267571Y-50291904D01*
X42458047Y-50291904D01*
X42534238Y-50330000D01*
X42572333Y-50368095D01*
X42610428Y-50444285D01*
X42610428Y-50520476D01*
X42572333Y-50634761D01*
X42115190Y-51091904D01*
X42610428Y-51091904D01*
X41467571Y-48323333D02*
X41848523Y-48323333D01*
X41391380Y-48551904D02*
X41658047Y-47751904D01*
X41924714Y-48551904D01*
X42115190Y-47751904D02*
X42610428Y-47751904D01*
X42343761Y-48056666D01*
X42458047Y-48056666D01*
X42534238Y-48094761D01*
X42572333Y-48132857D01*
X42610428Y-48209047D01*
X42610428Y-48399523D01*
X42572333Y-48475714D01*
X42534238Y-48513809D01*
X42458047Y-48551904D01*
X42229476Y-48551904D01*
X42153285Y-48513809D01*
X42115190Y-48475714D01*
X41886619Y-63791904D02*
X41429476Y-63791904D01*
X41658047Y-63791904D02*
X41658047Y-62991904D01*
X41581857Y-63106190D01*
X41505666Y-63182380D01*
X41429476Y-63220476D01*
X42572333Y-62991904D02*
X42419952Y-62991904D01*
X42343761Y-63030000D01*
X42305666Y-63068095D01*
X42229476Y-63182380D01*
X42191380Y-63334761D01*
X42191380Y-63639523D01*
X42229476Y-63715714D01*
X42267571Y-63753809D01*
X42343761Y-63791904D01*
X42496142Y-63791904D01*
X42572333Y-63753809D01*
X42610428Y-63715714D01*
X42648523Y-63639523D01*
X42648523Y-63449047D01*
X42610428Y-63372857D01*
X42572333Y-63334761D01*
X42496142Y-63296666D01*
X42343761Y-63296666D01*
X42267571Y-63334761D01*
X42229476Y-63372857D01*
X42191380Y-63449047D01*
X41886619Y-61251904D02*
X41429476Y-61251904D01*
X41658047Y-61251904D02*
X41658047Y-60451904D01*
X41581857Y-60566190D01*
X41505666Y-60642380D01*
X41429476Y-60680476D01*
X42572333Y-60718571D02*
X42572333Y-61251904D01*
X42381857Y-60413809D02*
X42191380Y-60985238D01*
X42686619Y-60985238D01*
X40972333Y-45211904D02*
X41239000Y-46011904D01*
X41505666Y-45211904D01*
X42229476Y-45935714D02*
X42191380Y-45973809D01*
X42077095Y-46011904D01*
X42000904Y-46011904D01*
X41886619Y-45973809D01*
X41810428Y-45897619D01*
X41772333Y-45821428D01*
X41734238Y-45669047D01*
X41734238Y-45554761D01*
X41772333Y-45402380D01*
X41810428Y-45326190D01*
X41886619Y-45250000D01*
X42000904Y-45211904D01*
X42077095Y-45211904D01*
X42191380Y-45250000D01*
X42229476Y-45288095D01*
X43029476Y-45935714D02*
X42991380Y-45973809D01*
X42877095Y-46011904D01*
X42800904Y-46011904D01*
X42686619Y-45973809D01*
X42610428Y-45897619D01*
X42572333Y-45821428D01*
X42534238Y-45669047D01*
X42534238Y-45554761D01*
X42572333Y-45402380D01*
X42610428Y-45326190D01*
X42686619Y-45250000D01*
X42800904Y-45211904D01*
X42877095Y-45211904D01*
X42991380Y-45250000D01*
X43029476Y-45288095D01*
X52694333Y-50291904D02*
X53189571Y-50291904D01*
X52922904Y-50596666D01*
X53037190Y-50596666D01*
X53113380Y-50634761D01*
X53151476Y-50672857D01*
X53189571Y-50749047D01*
X53189571Y-50939523D01*
X53151476Y-51015714D01*
X53113380Y-51053809D01*
X53037190Y-51091904D01*
X52808619Y-51091904D01*
X52732428Y-51053809D01*
X52694333Y-51015714D01*
X52351476Y-45250000D02*
X52275285Y-45211904D01*
X52161000Y-45211904D01*
X52046714Y-45250000D01*
X51970523Y-45326190D01*
X51932428Y-45402380D01*
X51894333Y-45554761D01*
X51894333Y-45669047D01*
X51932428Y-45821428D01*
X51970523Y-45897619D01*
X52046714Y-45973809D01*
X52161000Y-46011904D01*
X52237190Y-46011904D01*
X52351476Y-45973809D01*
X52389571Y-45935714D01*
X52389571Y-45669047D01*
X52237190Y-45669047D01*
X52732428Y-46011904D02*
X52732428Y-45211904D01*
X53189571Y-46011904D01*
X53189571Y-45211904D01*
X53570523Y-46011904D02*
X53570523Y-45211904D01*
X53761000Y-45211904D01*
X53875285Y-45250000D01*
X53951476Y-45326190D01*
X53989571Y-45402380D01*
X54027666Y-45554761D01*
X54027666Y-45669047D01*
X53989571Y-45821428D01*
X53951476Y-45897619D01*
X53875285Y-45973809D01*
X53761000Y-46011904D01*
X53570523Y-46011904D01*
X52351476Y-42710000D02*
X52275285Y-42671904D01*
X52161000Y-42671904D01*
X52046714Y-42710000D01*
X51970523Y-42786190D01*
X51932428Y-42862380D01*
X51894333Y-43014761D01*
X51894333Y-43129047D01*
X51932428Y-43281428D01*
X51970523Y-43357619D01*
X52046714Y-43433809D01*
X52161000Y-43471904D01*
X52237190Y-43471904D01*
X52351476Y-43433809D01*
X52389571Y-43395714D01*
X52389571Y-43129047D01*
X52237190Y-43129047D01*
X52732428Y-43471904D02*
X52732428Y-42671904D01*
X53189571Y-43471904D01*
X53189571Y-42671904D01*
X53570523Y-43471904D02*
X53570523Y-42671904D01*
X53761000Y-42671904D01*
X53875285Y-42710000D01*
X53951476Y-42786190D01*
X53989571Y-42862380D01*
X54027666Y-43014761D01*
X54027666Y-43129047D01*
X53989571Y-43281428D01*
X53951476Y-43357619D01*
X53875285Y-43433809D01*
X53761000Y-43471904D01*
X53570523Y-43471904D01*
X41926666Y-43413809D02*
X42040952Y-43451904D01*
X42231428Y-43451904D01*
X42307619Y-43413809D01*
X42345714Y-43375714D01*
X42383809Y-43299523D01*
X42383809Y-43223333D01*
X42345714Y-43147142D01*
X42307619Y-43109047D01*
X42231428Y-43070952D01*
X42079047Y-43032857D01*
X42002857Y-42994761D01*
X41964761Y-42956666D01*
X41926666Y-42880476D01*
X41926666Y-42804285D01*
X41964761Y-42728095D01*
X42002857Y-42690000D01*
X42079047Y-42651904D01*
X42269523Y-42651904D01*
X42383809Y-42690000D01*
X42612380Y-42651904D02*
X43069523Y-42651904D01*
X42840952Y-43451904D02*
X42840952Y-42651904D01*
X52808619Y-66331904D02*
X52961000Y-66331904D01*
X53037190Y-66293809D01*
X53075285Y-66255714D01*
X53151476Y-66141428D01*
X53189571Y-65989047D01*
X53189571Y-65684285D01*
X53151476Y-65608095D01*
X53113380Y-65570000D01*
X53037190Y-65531904D01*
X52884809Y-65531904D01*
X52808619Y-65570000D01*
X52770523Y-65608095D01*
X52732428Y-65684285D01*
X52732428Y-65874761D01*
X52770523Y-65950952D01*
X52808619Y-65989047D01*
X52884809Y-66027142D01*
X53037190Y-66027142D01*
X53113380Y-65989047D01*
X53151476Y-65950952D01*
X53189571Y-65874761D01*
X41429476Y-40170000D02*
X41353285Y-40131904D01*
X41239000Y-40131904D01*
X41124714Y-40170000D01*
X41048523Y-40246190D01*
X41010428Y-40322380D01*
X40972333Y-40474761D01*
X40972333Y-40589047D01*
X41010428Y-40741428D01*
X41048523Y-40817619D01*
X41124714Y-40893809D01*
X41239000Y-40931904D01*
X41315190Y-40931904D01*
X41429476Y-40893809D01*
X41467571Y-40855714D01*
X41467571Y-40589047D01*
X41315190Y-40589047D01*
X41810428Y-40931904D02*
X41810428Y-40131904D01*
X42267571Y-40931904D01*
X42267571Y-40131904D01*
X42648523Y-40931904D02*
X42648523Y-40131904D01*
X42839000Y-40131904D01*
X42953285Y-40170000D01*
X43029476Y-40246190D01*
X43067571Y-40322380D01*
X43105666Y-40474761D01*
X43105666Y-40589047D01*
X43067571Y-40741428D01*
X43029476Y-40817619D01*
X42953285Y-40893809D01*
X42839000Y-40931904D01*
X42648523Y-40931904D01*
X53113380Y-57911904D02*
X52961000Y-57911904D01*
X52884809Y-57950000D01*
X52846714Y-57988095D01*
X52770523Y-58102380D01*
X52732428Y-58254761D01*
X52732428Y-58559523D01*
X52770523Y-58635714D01*
X52808619Y-58673809D01*
X52884809Y-58711904D01*
X53037190Y-58711904D01*
X53113380Y-58673809D01*
X53151476Y-58635714D01*
X53189571Y-58559523D01*
X53189571Y-58369047D01*
X53151476Y-58292857D01*
X53113380Y-58254761D01*
X53037190Y-58216666D01*
X52884809Y-58216666D01*
X52808619Y-58254761D01*
X52770523Y-58292857D01*
X52732428Y-58369047D01*
X41486619Y-38391904D02*
X41219952Y-38010952D01*
X41029476Y-38391904D02*
X41029476Y-37591904D01*
X41334238Y-37591904D01*
X41410428Y-37630000D01*
X41448523Y-37668095D01*
X41486619Y-37744285D01*
X41486619Y-37858571D01*
X41448523Y-37934761D01*
X41410428Y-37972857D01*
X41334238Y-38010952D01*
X41029476Y-38010952D01*
X41791380Y-38163333D02*
X42172333Y-38163333D01*
X41715190Y-38391904D02*
X41981857Y-37591904D01*
X42248523Y-38391904D01*
X42439000Y-37591904D02*
X42629476Y-38391904D01*
X42781857Y-37820476D01*
X42934238Y-38391904D01*
X43124714Y-37591904D01*
X53113380Y-53098571D02*
X53113380Y-53631904D01*
X52922904Y-52793809D02*
X52732428Y-53365238D01*
X53227666Y-53365238D01*
D12*
X74800000Y-40155000D02*
X77200000Y-40155000D01*
X74800000Y-40255000D02*
X74810000Y-34975000D01*
X77200000Y-40255000D02*
X74800000Y-40255000D01*
X77210000Y-34975000D02*
X77200000Y-40255000D01*
X74810000Y-34975000D02*
X77210000Y-34975000D01*
X74800000Y-40030000D02*
X77200000Y-40030000D01*
X74800000Y-39855000D02*
X77200000Y-39855000D01*
X93800000Y-39880000D02*
X96200000Y-39880000D01*
X93800000Y-40105000D02*
X93810000Y-34825000D01*
X93800000Y-40005000D02*
X96200000Y-40005000D01*
X93800000Y-39705000D02*
X96200000Y-39705000D01*
X93810000Y-34825000D02*
X96210000Y-34825000D01*
X96210000Y-34825000D02*
X96200000Y-40105000D01*
X96200000Y-40105000D02*
X93800000Y-40105000D01*
X115200000Y-40180000D02*
X112800000Y-40180000D01*
X112800000Y-39955000D02*
X115200000Y-39955000D01*
X115210000Y-34900000D02*
X115200000Y-40180000D01*
X112810000Y-34900000D02*
X115210000Y-34900000D01*
X112800000Y-39780000D02*
X115200000Y-39780000D01*
X112800000Y-40080000D02*
X115200000Y-40080000D01*
X112800000Y-40180000D02*
X112810000Y-34900000D01*
X73655000Y-50000000D02*
X73655000Y-47600000D01*
X73880000Y-50000000D02*
X68600000Y-49990000D01*
X68600000Y-47590000D02*
X73880000Y-47600000D01*
X73780000Y-50000000D02*
X73780000Y-47600000D01*
X73480000Y-50000000D02*
X73480000Y-47600000D01*
X73880000Y-47600000D02*
X73880000Y-50000000D01*
X68600000Y-49990000D02*
X68600000Y-47590000D01*
X71000000Y-68990000D02*
X71000000Y-66590000D01*
X75880000Y-69000000D02*
X75880000Y-66600000D01*
X71000000Y-66590000D02*
X76280000Y-66600000D01*
X76180000Y-69000000D02*
X76180000Y-66600000D01*
X76280000Y-69000000D02*
X71000000Y-68990000D01*
X76280000Y-66600000D02*
X76280000Y-69000000D01*
X76055000Y-69000000D02*
X76055000Y-66600000D01*
X80930000Y-88025000D02*
X80930000Y-85625000D01*
X75750000Y-85615000D02*
X81030000Y-85625000D01*
X81030000Y-88025000D02*
X75750000Y-88015000D01*
X81030000Y-85625000D02*
X81030000Y-88025000D01*
X75750000Y-88015000D02*
X75750000Y-85615000D01*
X80805000Y-88025000D02*
X80805000Y-85625000D01*
X80630000Y-88025000D02*
X80630000Y-85625000D01*
X75925000Y-104640000D02*
X81205000Y-104650000D01*
X80980000Y-107050000D02*
X80980000Y-104650000D01*
X81205000Y-104650000D02*
X81205000Y-107050000D01*
X81105000Y-107050000D02*
X81105000Y-104650000D01*
X81205000Y-107050000D02*
X75925000Y-107040000D01*
X80805000Y-107050000D02*
X80805000Y-104650000D01*
X75925000Y-107040000D02*
X75925000Y-104640000D01*
X102280000Y-69050000D02*
X102280000Y-66650000D01*
X102505000Y-66650000D02*
X102505000Y-69050000D01*
X102505000Y-69050000D02*
X97225000Y-69040000D01*
X102105000Y-69050000D02*
X102105000Y-66650000D01*
X97225000Y-69040000D02*
X97225000Y-66640000D01*
X97225000Y-66640000D02*
X102505000Y-66650000D01*
X102405000Y-69050000D02*
X102405000Y-66650000D01*
X104580000Y-106975000D02*
X104580000Y-104575000D01*
X104805000Y-106975000D02*
X99525000Y-106965000D01*
X104405000Y-106975000D02*
X104405000Y-104575000D01*
X104805000Y-104575000D02*
X104805000Y-106975000D01*
X99525000Y-104565000D02*
X104805000Y-104575000D01*
X104705000Y-106975000D02*
X104705000Y-104575000D01*
X99525000Y-106965000D02*
X99525000Y-104565000D01*
X116805000Y-50025000D02*
X111525000Y-50015000D01*
X116405000Y-50025000D02*
X116405000Y-47625000D01*
X116580000Y-50025000D02*
X116580000Y-47625000D01*
X116805000Y-47625000D02*
X116805000Y-50025000D01*
X111525000Y-47615000D02*
X116805000Y-47625000D01*
X111525000Y-50015000D02*
X111525000Y-47615000D01*
X116705000Y-50025000D02*
X116705000Y-47625000D01*
X121330000Y-69000000D02*
X121330000Y-66600000D01*
X121205000Y-69000000D02*
X121205000Y-66600000D01*
X121430000Y-66600000D02*
X121430000Y-69000000D01*
X116150000Y-68990000D02*
X116150000Y-66590000D01*
X121030000Y-69000000D02*
X121030000Y-66600000D01*
X116150000Y-66590000D02*
X121430000Y-66600000D01*
X121430000Y-69000000D02*
X116150000Y-68990000D01*
X125750000Y-88015000D02*
X125750000Y-85615000D01*
X130930000Y-88025000D02*
X130930000Y-85625000D01*
X130805000Y-88025000D02*
X130805000Y-85625000D01*
X125750000Y-85615000D02*
X131030000Y-85625000D01*
X130630000Y-88025000D02*
X130630000Y-85625000D01*
X131030000Y-88025000D02*
X125750000Y-88015000D01*
X131030000Y-85625000D02*
X131030000Y-88025000D01*
X128405000Y-107000000D02*
X128405000Y-104600000D01*
X123350000Y-104590000D02*
X128630000Y-104600000D01*
X123350000Y-106990000D02*
X123350000Y-104590000D01*
X128630000Y-104600000D02*
X128630000Y-107000000D01*
X128630000Y-107000000D02*
X123350000Y-106990000D01*
X128530000Y-107000000D02*
X128530000Y-104600000D01*
X128230000Y-107000000D02*
X128230000Y-104600000D01*
X131800000Y-39780000D02*
X134200000Y-39780000D01*
X131800000Y-40080000D02*
X134200000Y-40080000D01*
X134210000Y-34900000D02*
X134200000Y-40180000D01*
X131800000Y-39955000D02*
X134200000Y-39955000D01*
X131800000Y-40180000D02*
X131810000Y-34900000D01*
X131810000Y-34900000D02*
X134210000Y-34900000D01*
X134200000Y-40180000D02*
X131800000Y-40180000D01*
X135555000Y-50000000D02*
X130275000Y-49990000D01*
X130275000Y-49990000D02*
X130275000Y-47590000D01*
X135330000Y-50000000D02*
X135330000Y-47600000D01*
X130275000Y-47590000D02*
X135555000Y-47600000D01*
X135455000Y-50000000D02*
X135455000Y-47600000D01*
X135555000Y-47600000D02*
X135555000Y-50000000D01*
X135155000Y-50000000D02*
X135155000Y-47600000D01*
X140405000Y-69025000D02*
X135125000Y-69015000D01*
X140305000Y-69025000D02*
X140305000Y-66625000D01*
X135125000Y-66615000D02*
X140405000Y-66625000D01*
X140005000Y-69025000D02*
X140005000Y-66625000D01*
X140180000Y-69025000D02*
X140180000Y-66625000D01*
X135125000Y-69015000D02*
X135125000Y-66615000D01*
X140405000Y-66625000D02*
X140405000Y-69025000D01*
X149980000Y-88050000D02*
X144700000Y-88040000D01*
X149980000Y-85650000D02*
X149980000Y-88050000D01*
X144700000Y-85640000D02*
X149980000Y-85650000D01*
X149880000Y-88050000D02*
X149880000Y-85650000D01*
X149755000Y-88050000D02*
X149755000Y-85650000D01*
X149580000Y-88050000D02*
X149580000Y-85650000D01*
X144700000Y-88040000D02*
X144700000Y-85640000D01*
X161555000Y-107000000D02*
X161555000Y-104600000D01*
X161780000Y-107000000D02*
X156500000Y-106990000D01*
X161680000Y-107000000D02*
X161680000Y-104600000D01*
X156500000Y-106990000D02*
X156500000Y-104590000D01*
X161780000Y-104600000D02*
X161780000Y-107000000D01*
X156500000Y-104590000D02*
X161780000Y-104600000D01*
X161380000Y-107000000D02*
X161380000Y-104600000D01*
X150300000Y-39780000D02*
X152700000Y-39780000D01*
X150300000Y-39955000D02*
X152700000Y-39955000D01*
X152700000Y-40180000D02*
X150300000Y-40180000D01*
X150300000Y-40180000D02*
X150310000Y-34900000D01*
X150310000Y-34900000D02*
X152710000Y-34900000D01*
X150300000Y-40080000D02*
X152700000Y-40080000D01*
X152710000Y-34900000D02*
X152700000Y-40180000D01*
X154680000Y-50025000D02*
X154680000Y-47625000D01*
X149625000Y-47615000D02*
X154905000Y-47625000D01*
X154905000Y-47625000D02*
X154905000Y-50025000D01*
X154505000Y-50025000D02*
X154505000Y-47625000D01*
X149625000Y-50015000D02*
X149625000Y-47615000D01*
X154905000Y-50025000D02*
X149625000Y-50015000D01*
X154805000Y-50025000D02*
X154805000Y-47625000D01*
X159055000Y-68975000D02*
X159055000Y-66575000D01*
X159355000Y-68975000D02*
X159355000Y-66575000D01*
X159455000Y-68975000D02*
X154175000Y-68965000D01*
X159455000Y-66575000D02*
X159455000Y-68975000D01*
X154175000Y-68965000D02*
X154175000Y-66565000D01*
X159230000Y-68975000D02*
X159230000Y-66575000D01*
X154175000Y-66565000D02*
X159455000Y-66575000D01*
X168730000Y-88050000D02*
X168730000Y-85650000D01*
X163675000Y-85640000D02*
X168955000Y-85650000D01*
X163675000Y-88040000D02*
X163675000Y-85640000D01*
X168855000Y-88050000D02*
X168855000Y-85650000D01*
X168955000Y-85650000D02*
X168955000Y-88050000D01*
X168555000Y-88050000D02*
X168555000Y-85650000D01*
X168955000Y-88050000D02*
X163675000Y-88040000D01*
X169800000Y-40080000D02*
X172200000Y-40080000D01*
X169800000Y-40180000D02*
X169810000Y-34900000D01*
X169800000Y-39955000D02*
X172200000Y-39955000D01*
X172210000Y-34900000D02*
X172200000Y-40180000D01*
X172200000Y-40180000D02*
X169800000Y-40180000D01*
X169800000Y-39780000D02*
X172200000Y-39780000D01*
X169810000Y-34900000D02*
X172210000Y-34900000D01*
X173680000Y-47800000D02*
X173680000Y-50200000D01*
X168400000Y-50190000D02*
X168400000Y-47790000D01*
X173455000Y-50200000D02*
X173455000Y-47800000D01*
X173580000Y-50200000D02*
X173580000Y-47800000D01*
X168400000Y-47790000D02*
X173680000Y-47800000D01*
X173280000Y-50200000D02*
X173280000Y-47800000D01*
X173680000Y-50200000D02*
X168400000Y-50190000D01*
X178280000Y-69025000D02*
X178280000Y-66625000D01*
X173100000Y-66615000D02*
X178380000Y-66625000D01*
X177980000Y-69025000D02*
X177980000Y-66625000D01*
X178380000Y-69025000D02*
X173100000Y-69015000D01*
X178155000Y-69025000D02*
X178155000Y-66625000D01*
X173100000Y-69015000D02*
X173100000Y-66615000D01*
X178380000Y-66625000D02*
X178380000Y-69025000D01*
X187905000Y-88050000D02*
X182625000Y-88040000D01*
X187505000Y-88050000D02*
X187505000Y-85650000D01*
X182625000Y-85640000D02*
X187905000Y-85650000D01*
X187805000Y-88050000D02*
X187805000Y-85650000D01*
X187905000Y-85650000D02*
X187905000Y-88050000D01*
X182625000Y-88040000D02*
X182625000Y-85640000D01*
X187680000Y-88050000D02*
X187680000Y-85650000D01*
X199520644Y-122348720D02*
X204478800Y-124163983D01*
X203282075Y-126282437D02*
X204102923Y-124027175D01*
X204478800Y-124163983D02*
X203657952Y-126419245D01*
X203657952Y-126419245D02*
X198699795Y-124603982D01*
X198699795Y-124603982D02*
X199520644Y-122348720D01*
X203563983Y-126385043D02*
X204384831Y-124129781D01*
X203446521Y-126342291D02*
X204267370Y-124087028D01*
X184280000Y-50200000D02*
X184280000Y-47800000D01*
X184580000Y-50200000D02*
X184580000Y-47800000D01*
X184680000Y-47800000D02*
X184680000Y-50200000D01*
X184680000Y-50200000D02*
X179400000Y-50190000D01*
X179400000Y-50190000D02*
X179400000Y-47790000D01*
X184455000Y-50200000D02*
X184455000Y-47800000D01*
X179400000Y-47790000D02*
X184680000Y-47800000D01*
X179090000Y-55900000D02*
X181490000Y-55900000D01*
X179080000Y-60955000D02*
X181480000Y-60955000D01*
X181480000Y-61180000D02*
X179080000Y-61180000D01*
X179080000Y-61080000D02*
X181480000Y-61080000D01*
X181490000Y-55900000D02*
X181480000Y-61180000D01*
X179080000Y-61180000D02*
X179090000Y-55900000D01*
X179080000Y-60780000D02*
X181480000Y-60780000D01*
X194680000Y-69025000D02*
X189400000Y-69015000D01*
X194680000Y-66625000D02*
X194680000Y-69025000D01*
X189400000Y-69015000D02*
X189400000Y-66615000D01*
X194455000Y-69025000D02*
X194455000Y-66625000D01*
X194280000Y-69025000D02*
X194280000Y-66625000D01*
X189400000Y-66615000D02*
X194680000Y-66625000D01*
X194580000Y-69025000D02*
X194580000Y-66625000D01*
D13*
X72875000Y-45600000D02*
X71097000Y-45600000D01*
X60175000Y-32900000D02*
X61953000Y-32900000D01*
X60175000Y-34678000D02*
X60175000Y-32900000D01*
X72875000Y-32900000D02*
X72875000Y-34678000D01*
X72875000Y-43822000D02*
X72875000Y-45600000D01*
X61953000Y-45600000D02*
X60175000Y-45600000D01*
X71097000Y-32900000D02*
X72875000Y-32900000D01*
X60175000Y-45600000D02*
X60175000Y-43822000D01*
X91850000Y-32900000D02*
X91850000Y-34678000D01*
X90072000Y-32900000D02*
X91850000Y-32900000D01*
X79150000Y-32900000D02*
X80928000Y-32900000D01*
X80928000Y-45600000D02*
X79150000Y-45600000D01*
X91850000Y-43822000D02*
X91850000Y-45600000D01*
X91850000Y-45600000D02*
X90072000Y-45600000D01*
X79150000Y-34678000D02*
X79150000Y-32900000D01*
X79150000Y-45600000D02*
X79150000Y-43822000D01*
X110875000Y-45575000D02*
X109097000Y-45575000D01*
X99953000Y-45575000D02*
X98175000Y-45575000D01*
X98175000Y-34653000D02*
X98175000Y-32875000D01*
X98175000Y-32875000D02*
X99953000Y-32875000D01*
X98175000Y-45575000D02*
X98175000Y-43797000D01*
X110875000Y-43797000D02*
X110875000Y-45575000D01*
X110875000Y-32875000D02*
X110875000Y-34653000D01*
X109097000Y-32875000D02*
X110875000Y-32875000D01*
X77625000Y-62797000D02*
X77625000Y-64575000D01*
X66703000Y-64575000D02*
X64925000Y-64575000D01*
X77625000Y-64575000D02*
X75847000Y-64575000D01*
X77625000Y-51875000D02*
X77625000Y-53653000D01*
X64925000Y-53653000D02*
X64925000Y-51875000D01*
X75847000Y-51875000D02*
X77625000Y-51875000D01*
X64925000Y-51875000D02*
X66703000Y-51875000D01*
X64925000Y-64575000D02*
X64925000Y-62797000D01*
X67300000Y-72653000D02*
X67300000Y-70875000D01*
X80000000Y-83575000D02*
X78222000Y-83575000D01*
X69078000Y-83575000D02*
X67300000Y-83575000D01*
X67300000Y-83575000D02*
X67300000Y-81797000D01*
X67300000Y-70875000D02*
X69078000Y-70875000D01*
X80000000Y-70875000D02*
X80000000Y-72653000D01*
X80000000Y-81797000D02*
X80000000Y-83575000D01*
X78222000Y-70875000D02*
X80000000Y-70875000D01*
X82972000Y-89875000D02*
X84750000Y-89875000D01*
X84750000Y-89875000D02*
X84750000Y-91653000D01*
X72050000Y-91653000D02*
X72050000Y-89875000D01*
X84750000Y-100797000D02*
X84750000Y-102575000D01*
X72050000Y-89875000D02*
X73828000Y-89875000D01*
X72050000Y-102575000D02*
X72050000Y-100797000D01*
X73828000Y-102575000D02*
X72050000Y-102575000D01*
X84750000Y-102575000D02*
X82972000Y-102575000D01*
X82922000Y-108925000D02*
X84700000Y-108925000D01*
X84700000Y-108925000D02*
X84700000Y-110703000D01*
X72000000Y-121625000D02*
X72000000Y-119847000D01*
X72000000Y-110703000D02*
X72000000Y-108925000D01*
X72000000Y-108925000D02*
X73778000Y-108925000D01*
X84700000Y-121625000D02*
X82922000Y-121625000D01*
X73778000Y-121625000D02*
X72000000Y-121625000D01*
X84700000Y-119847000D02*
X84700000Y-121625000D01*
X101350000Y-62847000D02*
X101350000Y-64625000D01*
X101350000Y-51925000D02*
X101350000Y-53703000D01*
X88650000Y-53703000D02*
X88650000Y-51925000D01*
X99572000Y-51925000D02*
X101350000Y-51925000D01*
X88650000Y-51925000D02*
X90428000Y-51925000D01*
X101350000Y-64625000D02*
X99572000Y-64625000D01*
X88650000Y-64625000D02*
X88650000Y-62847000D01*
X90428000Y-64625000D02*
X88650000Y-64625000D01*
X95178000Y-83625000D02*
X93400000Y-83625000D01*
X93400000Y-83625000D02*
X93400000Y-81847000D01*
X106100000Y-81847000D02*
X106100000Y-83625000D01*
X106100000Y-83625000D02*
X104322000Y-83625000D01*
X106100000Y-70925000D02*
X106100000Y-72703000D01*
X93400000Y-70925000D02*
X95178000Y-70925000D01*
X104322000Y-70925000D02*
X106100000Y-70925000D01*
X93400000Y-72703000D02*
X93400000Y-70925000D01*
X115550000Y-100822000D02*
X115550000Y-102600000D01*
X115550000Y-102600000D02*
X113772000Y-102600000D01*
X102850000Y-91678000D02*
X102850000Y-89900000D01*
X115550000Y-89900000D02*
X115550000Y-91678000D01*
X104628000Y-102600000D02*
X102850000Y-102600000D01*
X102850000Y-89900000D02*
X104628000Y-89900000D01*
X102850000Y-102600000D02*
X102850000Y-100822000D01*
X113772000Y-89900000D02*
X115550000Y-89900000D01*
X95775000Y-108875000D02*
X97553000Y-108875000D01*
X106697000Y-108875000D02*
X108475000Y-108875000D01*
X108475000Y-121575000D02*
X106697000Y-121575000D01*
X108475000Y-108875000D02*
X108475000Y-110653000D01*
X97553000Y-121575000D02*
X95775000Y-121575000D01*
X95775000Y-110653000D02*
X95775000Y-108875000D01*
X108475000Y-119797000D02*
X108475000Y-121575000D01*
X95775000Y-121575000D02*
X95775000Y-119797000D01*
X118572000Y-51875000D02*
X120350000Y-51875000D01*
X107650000Y-53653000D02*
X107650000Y-51875000D01*
X120350000Y-64575000D02*
X118572000Y-64575000D01*
X120350000Y-51875000D02*
X120350000Y-53653000D01*
X109428000Y-64575000D02*
X107650000Y-64575000D01*
X107650000Y-64575000D02*
X107650000Y-62797000D01*
X120350000Y-62797000D02*
X120350000Y-64575000D01*
X107650000Y-51875000D02*
X109428000Y-51875000D01*
X123347000Y-70875000D02*
X125125000Y-70875000D01*
X112425000Y-70875000D02*
X114203000Y-70875000D01*
X114203000Y-83575000D02*
X112425000Y-83575000D01*
X125125000Y-83575000D02*
X123347000Y-83575000D01*
X125125000Y-70875000D02*
X125125000Y-72653000D01*
X112425000Y-72653000D02*
X112425000Y-70875000D01*
X125125000Y-81797000D02*
X125125000Y-83575000D01*
X112425000Y-83575000D02*
X112425000Y-81797000D01*
X121875000Y-102600000D02*
X121875000Y-100822000D01*
X134575000Y-100822000D02*
X134575000Y-102600000D01*
X123653000Y-102600000D02*
X121875000Y-102600000D01*
X121875000Y-89900000D02*
X123653000Y-89900000D01*
X121875000Y-91678000D02*
X121875000Y-89900000D01*
X134575000Y-102600000D02*
X132797000Y-102600000D01*
X132797000Y-89900000D02*
X134575000Y-89900000D01*
X134575000Y-89900000D02*
X134575000Y-91678000D01*
X119525000Y-108900000D02*
X121303000Y-108900000D01*
X132225000Y-121600000D02*
X130447000Y-121600000D01*
X132225000Y-119822000D02*
X132225000Y-121600000D01*
X132225000Y-108900000D02*
X132225000Y-110678000D01*
X121303000Y-121600000D02*
X119525000Y-121600000D01*
X119525000Y-110678000D02*
X119525000Y-108900000D01*
X119525000Y-121600000D02*
X119525000Y-119822000D01*
X130447000Y-108900000D02*
X132225000Y-108900000D01*
X129825000Y-43797000D02*
X129825000Y-45575000D01*
X129825000Y-32875000D02*
X129825000Y-34653000D01*
X117125000Y-45575000D02*
X117125000Y-43797000D01*
X118903000Y-45575000D02*
X117125000Y-45575000D01*
X128047000Y-32875000D02*
X129825000Y-32875000D01*
X117125000Y-34653000D02*
X117125000Y-32875000D01*
X117125000Y-32875000D02*
X118903000Y-32875000D01*
X129825000Y-45575000D02*
X128047000Y-45575000D01*
X139350000Y-64600000D02*
X137572000Y-64600000D01*
X139350000Y-51900000D02*
X139350000Y-53678000D01*
X126650000Y-64600000D02*
X126650000Y-62822000D01*
X126650000Y-53678000D02*
X126650000Y-51900000D01*
X139350000Y-62822000D02*
X139350000Y-64600000D01*
X137572000Y-51900000D02*
X139350000Y-51900000D01*
X128428000Y-64600000D02*
X126650000Y-64600000D01*
X126650000Y-51900000D02*
X128428000Y-51900000D01*
X131450000Y-83600000D02*
X131450000Y-81822000D01*
X144150000Y-70900000D02*
X144150000Y-72678000D01*
X131450000Y-72678000D02*
X131450000Y-70900000D01*
X131450000Y-70900000D02*
X133228000Y-70900000D01*
X133228000Y-83600000D02*
X131450000Y-83600000D01*
X144150000Y-83600000D02*
X142372000Y-83600000D01*
X142372000Y-70900000D02*
X144150000Y-70900000D01*
X144150000Y-81822000D02*
X144150000Y-83600000D01*
X153575000Y-100847000D02*
X153575000Y-102625000D01*
X153575000Y-102625000D02*
X151797000Y-102625000D01*
X153575000Y-89925000D02*
X153575000Y-91703000D01*
X140875000Y-102625000D02*
X140875000Y-100847000D01*
X151797000Y-89925000D02*
X153575000Y-89925000D01*
X140875000Y-89925000D02*
X142653000Y-89925000D01*
X140875000Y-91703000D02*
X140875000Y-89925000D01*
X142653000Y-102625000D02*
X140875000Y-102625000D01*
X152775000Y-110678000D02*
X152775000Y-108900000D01*
X165475000Y-121600000D02*
X163697000Y-121600000D01*
X152775000Y-108900000D02*
X154553000Y-108900000D01*
X154553000Y-121600000D02*
X152775000Y-121600000D01*
X163697000Y-108900000D02*
X165475000Y-108900000D01*
X165475000Y-108900000D02*
X165475000Y-110678000D01*
X152775000Y-121600000D02*
X152775000Y-119822000D01*
X165475000Y-119822000D02*
X165475000Y-121600000D01*
X147072000Y-32900000D02*
X148850000Y-32900000D01*
X148850000Y-45600000D02*
X147072000Y-45600000D01*
X137928000Y-45600000D02*
X136150000Y-45600000D01*
X136150000Y-45600000D02*
X136150000Y-43822000D01*
X136150000Y-34678000D02*
X136150000Y-32900000D01*
X148850000Y-32900000D02*
X148850000Y-34678000D01*
X148850000Y-43822000D02*
X148850000Y-45600000D01*
X136150000Y-32900000D02*
X137928000Y-32900000D01*
X145750000Y-51900000D02*
X147528000Y-51900000D01*
X145750000Y-64600000D02*
X145750000Y-62822000D01*
X145750000Y-53678000D02*
X145750000Y-51900000D01*
X158450000Y-51900000D02*
X158450000Y-53678000D01*
X156672000Y-51900000D02*
X158450000Y-51900000D01*
X158450000Y-64600000D02*
X156672000Y-64600000D01*
X158450000Y-62822000D02*
X158450000Y-64600000D01*
X147528000Y-64600000D02*
X145750000Y-64600000D01*
X163150000Y-81772000D02*
X163150000Y-83550000D01*
X152228000Y-83550000D02*
X150450000Y-83550000D01*
X150450000Y-72628000D02*
X150450000Y-70850000D01*
X150450000Y-70850000D02*
X152228000Y-70850000D01*
X161372000Y-70850000D02*
X163150000Y-70850000D01*
X163150000Y-83550000D02*
X161372000Y-83550000D01*
X150450000Y-83550000D02*
X150450000Y-81772000D01*
X163150000Y-70850000D02*
X163150000Y-72628000D01*
X159875000Y-89925000D02*
X161653000Y-89925000D01*
X159875000Y-91703000D02*
X159875000Y-89925000D01*
X159875000Y-102625000D02*
X159875000Y-100847000D01*
X172575000Y-102625000D02*
X170797000Y-102625000D01*
X172575000Y-89925000D02*
X172575000Y-91703000D01*
X161653000Y-102625000D02*
X159875000Y-102625000D01*
X172575000Y-100847000D02*
X172575000Y-102625000D01*
X170797000Y-89925000D02*
X172575000Y-89925000D01*
X155125000Y-32875000D02*
X156903000Y-32875000D01*
X167825000Y-43797000D02*
X167825000Y-45575000D01*
X166047000Y-32875000D02*
X167825000Y-32875000D01*
X167825000Y-45575000D02*
X166047000Y-45575000D01*
X155125000Y-34653000D02*
X155125000Y-32875000D01*
X156903000Y-45575000D02*
X155125000Y-45575000D01*
X167825000Y-32875000D02*
X167825000Y-34653000D01*
X155125000Y-45575000D02*
X155125000Y-43797000D01*
X177350000Y-64600000D02*
X175572000Y-64600000D01*
X164650000Y-53678000D02*
X164650000Y-51900000D01*
X166428000Y-64600000D02*
X164650000Y-64600000D01*
X175572000Y-51900000D02*
X177350000Y-51900000D01*
X177350000Y-51900000D02*
X177350000Y-53678000D01*
X164650000Y-64600000D02*
X164650000Y-62822000D01*
X177350000Y-62822000D02*
X177350000Y-64600000D01*
X164650000Y-51900000D02*
X166428000Y-51900000D01*
X182100000Y-83600000D02*
X180322000Y-83600000D01*
X169400000Y-70900000D02*
X171178000Y-70900000D01*
X182100000Y-81822000D02*
X182100000Y-83600000D01*
X180322000Y-70900000D02*
X182100000Y-70900000D01*
X171178000Y-83600000D02*
X169400000Y-83600000D01*
X182100000Y-70900000D02*
X182100000Y-72678000D01*
X169400000Y-83600000D02*
X169400000Y-81822000D01*
X169400000Y-72678000D02*
X169400000Y-70900000D01*
X191575000Y-100847000D02*
X191575000Y-102625000D01*
X178875000Y-91703000D02*
X178875000Y-89925000D01*
X191575000Y-102625000D02*
X189797000Y-102625000D01*
X191575000Y-89925000D02*
X191575000Y-91703000D01*
X178875000Y-102625000D02*
X178875000Y-100847000D01*
X189797000Y-89925000D02*
X191575000Y-89925000D01*
X178875000Y-89925000D02*
X180653000Y-89925000D01*
X180653000Y-102625000D02*
X178875000Y-102625000D01*
X174150000Y-34678000D02*
X174150000Y-32900000D01*
X186850000Y-43822000D02*
X186850000Y-45600000D01*
X175928000Y-45600000D02*
X174150000Y-45600000D01*
X174150000Y-32900000D02*
X175928000Y-32900000D01*
X185072000Y-32900000D02*
X186850000Y-32900000D01*
X174150000Y-45600000D02*
X174150000Y-43822000D01*
X186850000Y-32900000D02*
X186850000Y-34678000D01*
X186850000Y-45600000D02*
X185072000Y-45600000D01*
X194572000Y-51950000D02*
X196350000Y-51950000D01*
X196350000Y-64650000D02*
X194572000Y-64650000D01*
X183650000Y-53728000D02*
X183650000Y-51950000D01*
X196350000Y-51950000D02*
X196350000Y-53728000D01*
X183650000Y-64650000D02*
X183650000Y-62872000D01*
X196350000Y-62872000D02*
X196350000Y-64650000D01*
X185428000Y-64650000D02*
X183650000Y-64650000D01*
X183650000Y-51950000D02*
X185428000Y-51950000D01*
X190178000Y-83575000D02*
X188400000Y-83575000D01*
X201100000Y-70875000D02*
X201100000Y-72653000D01*
X199322000Y-70875000D02*
X201100000Y-70875000D01*
X188400000Y-83575000D02*
X188400000Y-81797000D01*
X201100000Y-83575000D02*
X199322000Y-83575000D01*
X188400000Y-72653000D02*
X188400000Y-70875000D01*
X188400000Y-70875000D02*
X190178000Y-70875000D01*
X201100000Y-81797000D02*
X201100000Y-83575000D01*
X197925000Y-89875000D02*
X199703000Y-89875000D01*
X197925000Y-91653000D02*
X197925000Y-89875000D01*
X199703000Y-102575000D02*
X197925000Y-102575000D01*
X208847000Y-89875000D02*
X210625000Y-89875000D01*
X197925000Y-102575000D02*
X197925000Y-100797000D01*
X210625000Y-100797000D02*
X210625000Y-102575000D01*
X210625000Y-89875000D02*
X210625000Y-91653000D01*
X210625000Y-102575000D02*
X208847000Y-102575000D01*
D10*
X198050000Y-30727500D02*
X198050000Y-42827500D01*
X198050000Y-30727500D02*
X191950000Y-30727500D01*
X191950000Y-30727500D02*
X191950000Y-42827500D01*
X198050000Y-42827500D02*
X191950000Y-42827500D01*
D13*
X176356897Y-124553332D02*
X174686124Y-123945220D01*
X178421668Y-113681897D02*
X179029780Y-112011124D01*
X174686124Y-123945220D02*
X175294236Y-122274447D01*
X187228332Y-126618103D02*
X186620220Y-128288876D01*
X186620220Y-128288876D02*
X184949447Y-127680764D01*
X190963876Y-116354780D02*
X190355764Y-118025553D01*
X179029780Y-112011124D02*
X180700553Y-112619236D01*
X189293103Y-115746668D02*
X190963876Y-116354780D01*
X193871668Y-126756897D02*
X194479780Y-125086124D01*
X191806897Y-137628332D02*
X190136124Y-137020220D01*
X204743103Y-128821668D02*
X206413876Y-129429780D01*
X190136124Y-137020220D02*
X190744236Y-135349447D01*
X202070220Y-141363876D02*
X200399447Y-140755764D01*
X206413876Y-129429780D02*
X205805764Y-131100553D01*
X202678332Y-139693103D02*
X202070220Y-141363876D01*
X194479780Y-125086124D02*
X196150553Y-125694236D01*
D12*
X112005000Y-88025000D02*
X106725000Y-88015000D01*
X112005000Y-85625000D02*
X112005000Y-88025000D01*
X111605000Y-88025000D02*
X111605000Y-85625000D01*
X106725000Y-88015000D02*
X106725000Y-85615000D01*
X111905000Y-88025000D02*
X111905000Y-85625000D01*
X111780000Y-88025000D02*
X111780000Y-85625000D01*
X106725000Y-85615000D02*
X112005000Y-85625000D01*
X97155000Y-50050000D02*
X97155000Y-47650000D01*
X97555000Y-47650000D02*
X97555000Y-50050000D01*
X97555000Y-50050000D02*
X92275000Y-50040000D01*
X92275000Y-47640000D02*
X97555000Y-47650000D01*
X97330000Y-50050000D02*
X97330000Y-47650000D01*
X92275000Y-50040000D02*
X92275000Y-47640000D01*
X97455000Y-50050000D02*
X97455000Y-47650000D01*
X199680000Y-85525000D02*
X199680000Y-87925000D01*
X199280000Y-87925000D02*
X199280000Y-85525000D01*
X194400000Y-85515000D02*
X199680000Y-85525000D01*
X194400000Y-87915000D02*
X194400000Y-85515000D01*
X199680000Y-87925000D02*
X194400000Y-87915000D01*
X199580000Y-87925000D02*
X199580000Y-85525000D01*
X199455000Y-87925000D02*
X199455000Y-85525000D01*
X189028800Y-111088983D02*
X188207952Y-113344245D01*
X188113983Y-113310043D02*
X188934831Y-111054781D01*
X183249795Y-111528982D02*
X184070644Y-109273720D01*
X188207952Y-113344245D02*
X183249795Y-111528982D01*
X187996521Y-113267291D02*
X188817370Y-111012028D01*
X187832075Y-113207437D02*
X188652923Y-110952175D01*
X184070644Y-109273720D02*
X189028800Y-111088983D01*
X61200000Y-79180000D02*
X58800000Y-79180000D01*
X58800000Y-78955000D02*
X61200000Y-78955000D01*
X58810000Y-73900000D02*
X61210000Y-73900000D01*
X61210000Y-73900000D02*
X61200000Y-79180000D01*
X58800000Y-78780000D02*
X61200000Y-78780000D01*
X58800000Y-79180000D02*
X58810000Y-73900000D01*
X58800000Y-79080000D02*
X61200000Y-79080000D01*
D14*
X41140000Y-83600000D02*
X52132500Y-83600000D01*
X41140000Y-81497500D02*
X41140000Y-83600000D01*
X41140000Y-78082500D02*
X41140000Y-76417500D01*
X41140000Y-70900000D02*
X41140000Y-73002500D01*
X52132500Y-70900000D02*
X41140000Y-70900000D01*
D12*
X53940000Y-84350000D02*
G75*
G03*
X53940000Y-84350000I-100000J0D01*
G01*
X58810000Y-92400000D02*
X61210000Y-92400000D01*
X58800000Y-97280000D02*
X61200000Y-97280000D01*
X58800000Y-97680000D02*
X58810000Y-92400000D01*
X58800000Y-97455000D02*
X61200000Y-97455000D01*
X61210000Y-92400000D02*
X61200000Y-97680000D01*
X58800000Y-97580000D02*
X61200000Y-97580000D01*
X61200000Y-97680000D02*
X58800000Y-97680000D01*
G36*
X44025817Y-111866209D02*
G01*
X44361434Y-111186438D01*
X44532618Y-110940126D01*
X45076158Y-110358017D01*
X45710655Y-109917039D01*
X46425315Y-109622973D01*
X47209343Y-109481599D01*
X47263815Y-109477744D01*
X48055292Y-109506220D01*
X48794407Y-109687370D01*
X49465182Y-110008489D01*
X50051637Y-110456871D01*
X50537792Y-111019812D01*
X50907668Y-111684606D01*
X51145284Y-112438548D01*
X51173361Y-112586147D01*
X51222917Y-113338153D01*
X51120177Y-114056245D01*
X50881090Y-114725686D01*
X50521604Y-115331739D01*
X50057667Y-115859665D01*
X49505227Y-116294727D01*
X48880233Y-116622188D01*
X48198633Y-116827310D01*
X47476375Y-116895356D01*
X46729408Y-116811589D01*
X46626698Y-116787636D01*
X45933506Y-116535712D01*
X45295110Y-116149252D01*
X44743488Y-115653635D01*
X44310619Y-115074242D01*
X44192975Y-114856127D01*
X43920464Y-114117334D01*
X43803193Y-113356313D01*
X43806439Y-113287571D01*
X44095314Y-113287571D01*
X44197918Y-113961040D01*
X44429757Y-114611625D01*
X44775384Y-115207221D01*
X45219356Y-115715722D01*
X45746227Y-116105020D01*
X45835470Y-116153219D01*
X46281283Y-116359546D01*
X46682211Y-116483297D01*
X47107658Y-116539414D01*
X47627027Y-116542841D01*
X47642698Y-116542353D01*
X48079148Y-116517012D01*
X48412254Y-116464826D01*
X48707438Y-116372777D01*
X48891755Y-116293830D01*
X49453524Y-115955445D01*
X49972005Y-115493748D01*
X50400354Y-114954724D01*
X50586251Y-114630458D01*
X50710674Y-114365746D01*
X50790393Y-114146491D01*
X50835276Y-113920547D01*
X50855189Y-113635765D01*
X50860000Y-113240000D01*
X50860031Y-113183550D01*
X50856059Y-112768516D01*
X50837617Y-112469634D01*
X50794915Y-112233790D01*
X50718160Y-112007868D01*
X50597564Y-111738753D01*
X50591266Y-111725443D01*
X50212630Y-111108511D01*
X49720662Y-110590695D01*
X49140373Y-110185362D01*
X48496774Y-109905880D01*
X47814878Y-109765616D01*
X47119697Y-109777936D01*
X46986531Y-109798927D01*
X46236387Y-110015069D01*
X45576197Y-110368075D01*
X45019102Y-110844916D01*
X44578244Y-111432566D01*
X44266765Y-112117996D01*
X44137389Y-112623326D01*
X44095314Y-113287571D01*
X43806439Y-113287571D01*
X43839024Y-112597720D01*
X44025817Y-111866209D01*
G37*
D15*
X44025817Y-111866209D02*
X44361434Y-111186438D01*
X44532618Y-110940126D01*
X45076158Y-110358017D01*
X45710655Y-109917039D01*
X46425315Y-109622973D01*
X47209343Y-109481599D01*
X47263815Y-109477744D01*
X48055292Y-109506220D01*
X48794407Y-109687370D01*
X49465182Y-110008489D01*
X50051637Y-110456871D01*
X50537792Y-111019812D01*
X50907668Y-111684606D01*
X51145284Y-112438548D01*
X51173361Y-112586147D01*
X51222917Y-113338153D01*
X51120177Y-114056245D01*
X50881090Y-114725686D01*
X50521604Y-115331739D01*
X50057667Y-115859665D01*
X49505227Y-116294727D01*
X48880233Y-116622188D01*
X48198633Y-116827310D01*
X47476375Y-116895356D01*
X46729408Y-116811589D01*
X46626698Y-116787636D01*
X45933506Y-116535712D01*
X45295110Y-116149252D01*
X44743488Y-115653635D01*
X44310619Y-115074242D01*
X44192975Y-114856127D01*
X43920464Y-114117334D01*
X43803193Y-113356313D01*
X43806439Y-113287571D01*
X44095314Y-113287571D01*
X44197918Y-113961040D01*
X44429757Y-114611625D01*
X44775384Y-115207221D01*
X45219356Y-115715722D01*
X45746227Y-116105020D01*
X45835470Y-116153219D01*
X46281283Y-116359546D01*
X46682211Y-116483297D01*
X47107658Y-116539414D01*
X47627027Y-116542841D01*
X47642698Y-116542353D01*
X48079148Y-116517012D01*
X48412254Y-116464826D01*
X48707438Y-116372777D01*
X48891755Y-116293830D01*
X49453524Y-115955445D01*
X49972005Y-115493748D01*
X50400354Y-114954724D01*
X50586251Y-114630458D01*
X50710674Y-114365746D01*
X50790393Y-114146491D01*
X50835276Y-113920547D01*
X50855189Y-113635765D01*
X50860000Y-113240000D01*
X50860031Y-113183550D01*
X50856059Y-112768516D01*
X50837617Y-112469634D01*
X50794915Y-112233790D01*
X50718160Y-112007868D01*
X50597564Y-111738753D01*
X50591266Y-111725443D01*
X50212630Y-111108511D01*
X49720662Y-110590695D01*
X49140373Y-110185362D01*
X48496774Y-109905880D01*
X47814878Y-109765616D01*
X47119697Y-109777936D01*
X46986531Y-109798927D01*
X46236387Y-110015069D01*
X45576197Y-110368075D01*
X45019102Y-110844916D01*
X44578244Y-111432566D01*
X44266765Y-112117996D01*
X44137389Y-112623326D01*
X44095314Y-113287571D01*
X43806439Y-113287571D01*
X43839024Y-112597720D01*
X44025817Y-111866209D01*
G36*
X44626713Y-112465154D02*
G01*
X44795487Y-111930827D01*
X44836590Y-111845378D01*
X45230572Y-111246721D01*
X45726430Y-110782306D01*
X46317807Y-110456147D01*
X46998347Y-110272257D01*
X47388698Y-110234041D01*
X47808217Y-110228975D01*
X48136724Y-110264128D01*
X48449803Y-110349394D01*
X48552582Y-110386437D01*
X49062224Y-110652138D01*
X49547650Y-111039633D01*
X49959080Y-111503319D01*
X50200119Y-111895676D01*
X50315034Y-112149765D01*
X50385531Y-112377226D01*
X50421958Y-112634616D01*
X50434660Y-112978491D01*
X50435384Y-113181770D01*
X50427663Y-113595476D01*
X50399943Y-113894601D01*
X50342985Y-114133556D01*
X50247555Y-114366748D01*
X50226986Y-114409437D01*
X49955104Y-114838755D01*
X49579415Y-115264487D01*
X49153077Y-115633696D01*
X48743365Y-115886831D01*
X48331319Y-116023645D01*
X47828858Y-116104690D01*
X47304719Y-116125408D01*
X46827640Y-116081240D01*
X46611811Y-116028163D01*
X46027554Y-115754219D01*
X45496493Y-115346890D01*
X45055330Y-114841318D01*
X44740764Y-114272648D01*
X44718127Y-114214841D01*
X44584883Y-113670175D01*
X44561102Y-113181770D01*
X44857054Y-113181770D01*
X44906963Y-113776710D01*
X45070257Y-114284598D01*
X45367285Y-114757256D01*
X45567720Y-114991597D01*
X46071911Y-115421435D01*
X46643460Y-115703022D01*
X47260381Y-115831956D01*
X47900686Y-115803829D01*
X48542388Y-115614238D01*
X48584192Y-115595967D01*
X49143864Y-115261931D01*
X49587808Y-114825700D01*
X49910667Y-114311872D01*
X50107086Y-113745047D01*
X50171710Y-113149824D01*
X50099185Y-112550800D01*
X49884154Y-111972574D01*
X49521261Y-111439747D01*
X49495385Y-111410554D01*
X49001154Y-110963198D01*
X48458371Y-110674374D01*
X47849296Y-110536108D01*
X47516186Y-110520931D01*
X46878692Y-110583372D01*
X46332791Y-110772030D01*
X45842468Y-111101817D01*
X45628030Y-111302604D01*
X45230522Y-111787343D01*
X44983608Y-112295517D01*
X44869677Y-112870054D01*
X44857054Y-113181770D01*
X44561102Y-113181770D01*
X44555462Y-113065942D01*
X44626713Y-112465154D01*
G37*
X44626713Y-112465154D02*
X44795487Y-111930827D01*
X44836590Y-111845378D01*
X45230572Y-111246721D01*
X45726430Y-110782306D01*
X46317807Y-110456147D01*
X46998347Y-110272257D01*
X47388698Y-110234041D01*
X47808217Y-110228975D01*
X48136724Y-110264128D01*
X48449803Y-110349394D01*
X48552582Y-110386437D01*
X49062224Y-110652138D01*
X49547650Y-111039633D01*
X49959080Y-111503319D01*
X50200119Y-111895676D01*
X50315034Y-112149765D01*
X50385531Y-112377226D01*
X50421958Y-112634616D01*
X50434660Y-112978491D01*
X50435384Y-113181770D01*
X50427663Y-113595476D01*
X50399943Y-113894601D01*
X50342985Y-114133556D01*
X50247555Y-114366748D01*
X50226986Y-114409437D01*
X49955104Y-114838755D01*
X49579415Y-115264487D01*
X49153077Y-115633696D01*
X48743365Y-115886831D01*
X48331319Y-116023645D01*
X47828858Y-116104690D01*
X47304719Y-116125408D01*
X46827640Y-116081240D01*
X46611811Y-116028163D01*
X46027554Y-115754219D01*
X45496493Y-115346890D01*
X45055330Y-114841318D01*
X44740764Y-114272648D01*
X44718127Y-114214841D01*
X44584883Y-113670175D01*
X44561102Y-113181770D01*
X44857054Y-113181770D01*
X44906963Y-113776710D01*
X45070257Y-114284598D01*
X45367285Y-114757256D01*
X45567720Y-114991597D01*
X46071911Y-115421435D01*
X46643460Y-115703022D01*
X47260381Y-115831956D01*
X47900686Y-115803829D01*
X48542388Y-115614238D01*
X48584192Y-115595967D01*
X49143864Y-115261931D01*
X49587808Y-114825700D01*
X49910667Y-114311872D01*
X50107086Y-113745047D01*
X50171710Y-113149824D01*
X50099185Y-112550800D01*
X49884154Y-111972574D01*
X49521261Y-111439747D01*
X49495385Y-111410554D01*
X49001154Y-110963198D01*
X48458371Y-110674374D01*
X47849296Y-110536108D01*
X47516186Y-110520931D01*
X46878692Y-110583372D01*
X46332791Y-110772030D01*
X45842468Y-111101817D01*
X45628030Y-111302604D01*
X45230522Y-111787343D01*
X44983608Y-112295517D01*
X44869677Y-112870054D01*
X44857054Y-113181770D01*
X44561102Y-113181770D01*
X44555462Y-113065942D01*
X44626713Y-112465154D01*
G36*
X46732276Y-113198983D02*
G01*
X46933640Y-112849383D01*
X46952313Y-112817432D01*
X47189612Y-112422474D01*
X47361400Y-112163844D01*
X47478967Y-112026955D01*
X47553603Y-111997218D01*
X47574805Y-112013098D01*
X47649182Y-112125992D01*
X47779980Y-112341594D01*
X47946959Y-112624727D01*
X48129881Y-112940213D01*
X48308507Y-113252874D01*
X48462597Y-113527531D01*
X48571913Y-113729007D01*
X48616216Y-113822123D01*
X48616365Y-113823474D01*
X48536940Y-113836728D01*
X48319623Y-113847747D01*
X47995851Y-113855512D01*
X47597062Y-113859006D01*
X47515698Y-113859103D01*
X47106372Y-113854522D01*
X46766222Y-113841988D01*
X46526641Y-113823313D01*
X46419023Y-113800310D01*
X46416085Y-113795603D01*
X46457001Y-113702189D01*
X46553482Y-113520437D01*
X46916393Y-113520437D01*
X48115503Y-113520437D01*
X47886819Y-113118270D01*
X47705461Y-112808082D01*
X47577901Y-112641258D01*
X47475043Y-112613504D01*
X47367790Y-112720528D01*
X47227046Y-112958037D01*
X47194879Y-113016182D01*
X46916393Y-113520437D01*
X46553482Y-113520437D01*
X46567897Y-113493283D01*
X46732276Y-113198983D01*
G37*
X46732276Y-113198983D02*
X46933640Y-112849383D01*
X46952313Y-112817432D01*
X47189612Y-112422474D01*
X47361400Y-112163844D01*
X47478967Y-112026955D01*
X47553603Y-111997218D01*
X47574805Y-112013098D01*
X47649182Y-112125992D01*
X47779980Y-112341594D01*
X47946959Y-112624727D01*
X48129881Y-112940213D01*
X48308507Y-113252874D01*
X48462597Y-113527531D01*
X48571913Y-113729007D01*
X48616216Y-113822123D01*
X48616365Y-113823474D01*
X48536940Y-113836728D01*
X48319623Y-113847747D01*
X47995851Y-113855512D01*
X47597062Y-113859006D01*
X47515698Y-113859103D01*
X47106372Y-113854522D01*
X46766222Y-113841988D01*
X46526641Y-113823313D01*
X46419023Y-113800310D01*
X46416085Y-113795603D01*
X46457001Y-113702189D01*
X46553482Y-113520437D01*
X46916393Y-113520437D01*
X48115503Y-113520437D01*
X47886819Y-113118270D01*
X47705461Y-112808082D01*
X47577901Y-112641258D01*
X47475043Y-112613504D01*
X47367790Y-112720528D01*
X47227046Y-112958037D01*
X47194879Y-113016182D01*
X46916393Y-113520437D01*
X46553482Y-113520437D01*
X46567897Y-113493283D01*
X46732276Y-113198983D01*
D14*
X52078750Y-89900000D02*
X41086250Y-89900000D01*
X41086250Y-97082500D02*
X41086250Y-95417500D01*
X41086250Y-100497500D02*
X41086250Y-102600000D01*
X41086250Y-89900000D02*
X41086250Y-92002500D01*
X41086250Y-102600000D02*
X52078750Y-102600000D01*
D12*
X53886250Y-103350000D02*
G75*
G03*
X53886250Y-103350000I-100000J0D01*
G01*
D13*
X38610000Y-30225000D02*
X56390000Y-30225000D01*
X53850000Y-36760000D02*
X56390000Y-36760000D01*
X38610000Y-30225000D02*
X38610000Y-34220000D01*
X56390000Y-34220000D02*
X56390000Y-67240000D01*
X53850000Y-39300000D02*
X56390000Y-39300000D01*
X38610000Y-67240000D02*
X38610000Y-34220000D01*
X56390000Y-30225000D02*
X56390000Y-34220000D01*
X53850000Y-36760000D02*
X53850000Y-39300000D01*
X56390000Y-67240000D02*
X38610000Y-67240000D01*
G36*
X41255365Y-43449030D02*
G01*
X41155365Y-43449030D01*
X41155365Y-42649030D01*
X41255365Y-42649030D01*
X41255365Y-43449030D01*
G37*
D10*
X41255365Y-43449030D02*
X41155365Y-43449030D01*
X41155365Y-42649030D01*
X41255365Y-42649030D01*
X41255365Y-43449030D01*
G36*
X41655365Y-43449030D02*
G01*
X41555365Y-43449030D01*
X41555365Y-43249030D01*
X41655365Y-43249030D01*
X41655365Y-43449030D01*
G37*
X41655365Y-43449030D02*
X41555365Y-43449030D01*
X41555365Y-43249030D01*
X41655365Y-43249030D01*
X41655365Y-43449030D01*
G36*
X41655365Y-42949030D02*
G01*
X41555365Y-42949030D01*
X41555365Y-42649030D01*
X41655365Y-42649030D01*
X41655365Y-42949030D01*
G37*
X41655365Y-42949030D02*
X41555365Y-42949030D01*
X41555365Y-42649030D01*
X41655365Y-42649030D01*
X41655365Y-42949030D01*
G36*
X41455365Y-43149030D02*
G01*
X41355365Y-43149030D01*
X41355365Y-43049030D01*
X41455365Y-43049030D01*
X41455365Y-43149030D01*
G37*
X41455365Y-43149030D02*
X41355365Y-43149030D01*
X41355365Y-43049030D01*
X41455365Y-43049030D01*
X41455365Y-43149030D01*
G36*
X41655365Y-42749030D02*
G01*
X41155365Y-42749030D01*
X41155365Y-42649030D01*
X41655365Y-42649030D01*
X41655365Y-42749030D01*
G37*
X41655365Y-42749030D02*
X41155365Y-42749030D01*
X41155365Y-42649030D01*
X41655365Y-42649030D01*
X41655365Y-42749030D01*
D16*
X76000000Y-41475000D03*
D17*
X76000000Y-33675000D03*
D16*
X95000000Y-41325000D03*
D17*
X95000000Y-33525000D03*
D16*
X114000000Y-41400000D03*
D17*
X114000000Y-33600000D03*
D16*
X75100000Y-48800000D03*
D17*
X67300000Y-48800000D03*
D16*
X77500000Y-67800000D03*
D17*
X69700000Y-67800000D03*
D16*
X82250000Y-86825000D03*
D17*
X74450000Y-86825000D03*
D16*
X82425000Y-105850000D03*
D17*
X74625000Y-105850000D03*
D16*
X103725000Y-67850000D03*
D17*
X95925000Y-67850000D03*
D16*
X106025000Y-105775000D03*
D17*
X98225000Y-105775000D03*
D16*
X118025000Y-48825000D03*
D17*
X110225000Y-48825000D03*
D16*
X122650000Y-67800000D03*
D17*
X114850000Y-67800000D03*
D16*
X132250000Y-86825000D03*
D17*
X124450000Y-86825000D03*
D16*
X129850000Y-105800000D03*
D17*
X122050000Y-105800000D03*
D16*
X133000000Y-41400000D03*
D17*
X133000000Y-33600000D03*
D16*
X136775000Y-48800000D03*
D17*
X128975000Y-48800000D03*
D16*
X141625000Y-67825000D03*
D17*
X133825000Y-67825000D03*
D16*
X151200000Y-86850000D03*
D17*
X143400000Y-86850000D03*
D16*
X163000000Y-105800000D03*
D17*
X155200000Y-105800000D03*
D16*
X151500000Y-41400000D03*
D17*
X151500000Y-33600000D03*
D16*
X156125000Y-48825000D03*
D17*
X148325000Y-48825000D03*
D16*
X160675000Y-67775000D03*
D17*
X152875000Y-67775000D03*
D16*
X170175000Y-86850000D03*
D17*
X162375000Y-86850000D03*
D16*
X171000000Y-41400000D03*
D17*
X171000000Y-33600000D03*
D16*
X174900000Y-49000000D03*
D17*
X167100000Y-49000000D03*
D16*
X179600000Y-67825000D03*
D17*
X171800000Y-67825000D03*
D16*
X189125000Y-86850000D03*
D17*
X181325000Y-86850000D03*
D18*
X205214801Y-125708879D03*
D17*
X197885199Y-123041121D03*
D16*
X185900000Y-49000000D03*
D17*
X178100000Y-49000000D03*
D16*
X180280000Y-62400000D03*
D17*
X180280000Y-54600000D03*
D16*
X195900000Y-67825000D03*
D17*
X188100000Y-67825000D03*
D19*
X63270000Y-35730000D03*
D20*
X69045000Y-34460000D03*
D19*
X82245000Y-35730000D03*
D20*
X88020000Y-34460000D03*
D19*
X101270000Y-35705000D03*
D20*
X107045000Y-34435000D03*
D19*
X68020000Y-54705000D03*
D20*
X73795000Y-53435000D03*
D19*
X70395000Y-73705000D03*
D20*
X76170000Y-72435000D03*
D21*
X81655000Y-99745000D03*
D22*
X75880000Y-101015000D03*
D19*
X75095000Y-111755000D03*
D20*
X80870000Y-110485000D03*
D19*
X91745000Y-54755000D03*
D20*
X97520000Y-53485000D03*
D19*
X96495000Y-73755000D03*
D20*
X102270000Y-72485000D03*
D19*
X105945000Y-92730000D03*
D20*
X111720000Y-91460000D03*
D19*
X98870000Y-111705000D03*
D20*
X104645000Y-110435000D03*
D19*
X110745000Y-54705000D03*
D20*
X116520000Y-53435000D03*
D19*
X115520000Y-73705000D03*
D20*
X121295000Y-72435000D03*
D19*
X124970000Y-92730000D03*
D20*
X130745000Y-91460000D03*
D19*
X122620000Y-111730000D03*
D20*
X128395000Y-110460000D03*
D19*
X120220000Y-35705000D03*
D20*
X125995000Y-34435000D03*
D19*
X129745000Y-54730000D03*
D20*
X135520000Y-53460000D03*
D19*
X134545000Y-73730000D03*
D20*
X140320000Y-72460000D03*
D19*
X143970000Y-92755000D03*
D20*
X149745000Y-91485000D03*
D19*
X155870000Y-111730000D03*
D20*
X161645000Y-110460000D03*
D19*
X139245000Y-35730000D03*
D20*
X145020000Y-34460000D03*
D19*
X148845000Y-54730000D03*
D20*
X154620000Y-53460000D03*
D19*
X153545000Y-73680000D03*
D20*
X159320000Y-72410000D03*
D19*
X162970000Y-92755000D03*
D20*
X168745000Y-91485000D03*
D19*
X158220000Y-35705000D03*
D20*
X163995000Y-34435000D03*
D19*
X167745000Y-54730000D03*
D20*
X173520000Y-53460000D03*
D19*
X172495000Y-73730000D03*
D20*
X178270000Y-72460000D03*
D19*
X181970000Y-92755000D03*
D20*
X187745000Y-91485000D03*
D19*
X177245000Y-35730000D03*
D20*
X183020000Y-34460000D03*
D19*
X186745000Y-54780000D03*
D20*
X192520000Y-53510000D03*
D19*
X191495000Y-73705000D03*
D20*
X197270000Y-72435000D03*
D19*
X201020000Y-92705000D03*
D20*
X206795000Y-91435000D03*
D23*
X180970211Y-115729006D03*
D24*
X186831302Y-116510763D03*
D23*
X196420211Y-128804006D03*
D24*
X202281302Y-129585763D03*
D16*
X113225000Y-86825000D03*
D17*
X105425000Y-86825000D03*
D16*
X98775000Y-48850000D03*
D17*
X90975000Y-48850000D03*
D16*
X200900000Y-86725000D03*
D17*
X193100000Y-86725000D03*
D18*
X189764801Y-112633879D03*
D17*
X182435199Y-109966121D03*
D16*
X60000000Y-80400000D03*
D17*
X60000000Y-72600000D03*
D16*
X60000000Y-98900000D03*
D17*
X60000000Y-91100000D03*
D25*
X55120000Y-38030000D03*
D26*
X55120000Y-40570000D03*
X55120000Y-43110000D03*
X55120000Y-45650000D03*
X55120000Y-48190000D03*
X55120000Y-50730000D03*
X55120000Y-53270000D03*
X55120000Y-55810000D03*
X55120000Y-58350000D03*
X55120000Y-60890000D03*
X55120000Y-63430000D03*
X55120000Y-65970000D03*
X39880000Y-65970000D03*
X39880000Y-63430000D03*
X39880000Y-60890000D03*
X39880000Y-58350000D03*
X39880000Y-55810000D03*
X39880000Y-53270000D03*
X39880000Y-50730000D03*
X39880000Y-48190000D03*
X39880000Y-45650000D03*
X39880000Y-43110000D03*
X39880000Y-40570000D03*
X39880000Y-38030000D03*
%LPC*%
D27*
X76000000Y-39150000D03*
D28*
X76000000Y-41475000D03*
D29*
X76000000Y-33675000D03*
D27*
X76000000Y-36000000D03*
X95000000Y-39000000D03*
D28*
X95000000Y-41325000D03*
D29*
X95000000Y-33525000D03*
D27*
X95000000Y-35850000D03*
X114000000Y-39075000D03*
D28*
X114000000Y-41400000D03*
D29*
X114000000Y-33600000D03*
D27*
X114000000Y-35925000D03*
D30*
X75100000Y-48800000D03*
D31*
X72775000Y-48800000D03*
X69625000Y-48800000D03*
D29*
X67300000Y-48800000D03*
D30*
X77500000Y-67800000D03*
D31*
X75175000Y-67800000D03*
X72025000Y-67800000D03*
D29*
X69700000Y-67800000D03*
D31*
X79925000Y-86825000D03*
D30*
X82250000Y-86825000D03*
D31*
X76775000Y-86825000D03*
D29*
X74450000Y-86825000D03*
D30*
X82425000Y-105850000D03*
D31*
X80100000Y-105850000D03*
D29*
X74625000Y-105850000D03*
D31*
X76950000Y-105850000D03*
X101400000Y-67850000D03*
D30*
X103725000Y-67850000D03*
D31*
X98250000Y-67850000D03*
D29*
X95925000Y-67850000D03*
D31*
X103700000Y-105775000D03*
D30*
X106025000Y-105775000D03*
D31*
X100550000Y-105775000D03*
D29*
X98225000Y-105775000D03*
D30*
X118025000Y-48825000D03*
D31*
X115700000Y-48825000D03*
D29*
X110225000Y-48825000D03*
D31*
X112550000Y-48825000D03*
D30*
X122650000Y-67800000D03*
D31*
X120325000Y-67800000D03*
D29*
X114850000Y-67800000D03*
D31*
X117175000Y-67800000D03*
X129925000Y-86825000D03*
D30*
X132250000Y-86825000D03*
D31*
X126775000Y-86825000D03*
D29*
X124450000Y-86825000D03*
D30*
X129850000Y-105800000D03*
D31*
X127525000Y-105800000D03*
X124375000Y-105800000D03*
D29*
X122050000Y-105800000D03*
D27*
X133000000Y-39075000D03*
D28*
X133000000Y-41400000D03*
D27*
X133000000Y-35925000D03*
D29*
X133000000Y-33600000D03*
D30*
X136775000Y-48800000D03*
D31*
X134450000Y-48800000D03*
D29*
X128975000Y-48800000D03*
D31*
X131300000Y-48800000D03*
X139300000Y-67825000D03*
D30*
X141625000Y-67825000D03*
D29*
X133825000Y-67825000D03*
D31*
X136150000Y-67825000D03*
D30*
X151200000Y-86850000D03*
D31*
X148875000Y-86850000D03*
D29*
X143400000Y-86850000D03*
D31*
X145725000Y-86850000D03*
X160675000Y-105800000D03*
D30*
X163000000Y-105800000D03*
D29*
X155200000Y-105800000D03*
D31*
X157525000Y-105800000D03*
D27*
X151500000Y-39075000D03*
D28*
X151500000Y-41400000D03*
D29*
X151500000Y-33600000D03*
D27*
X151500000Y-35925000D03*
D30*
X156125000Y-48825000D03*
D31*
X153800000Y-48825000D03*
X150650000Y-48825000D03*
D29*
X148325000Y-48825000D03*
D30*
X160675000Y-67775000D03*
D31*
X158350000Y-67775000D03*
D29*
X152875000Y-67775000D03*
D31*
X155200000Y-67775000D03*
X167850000Y-86850000D03*
D30*
X170175000Y-86850000D03*
D31*
X164700000Y-86850000D03*
D29*
X162375000Y-86850000D03*
D27*
X171000000Y-39075000D03*
D28*
X171000000Y-41400000D03*
D27*
X171000000Y-35925000D03*
D29*
X171000000Y-33600000D03*
D30*
X174900000Y-49000000D03*
D31*
X172575000Y-49000000D03*
X169425000Y-49000000D03*
D29*
X167100000Y-49000000D03*
D30*
X179600000Y-67825000D03*
D31*
X177275000Y-67825000D03*
X174125000Y-67825000D03*
D29*
X171800000Y-67825000D03*
D30*
X189125000Y-86850000D03*
D31*
X186800000Y-86850000D03*
X183650000Y-86850000D03*
D29*
X181325000Y-86850000D03*
D32*
X203030016Y-124913682D03*
D33*
X205214801Y-125708879D03*
D32*
X200069984Y-123836318D03*
D29*
X197885199Y-123041121D03*
D31*
X183575000Y-49000000D03*
D30*
X185900000Y-49000000D03*
D31*
X180425000Y-49000000D03*
D29*
X178100000Y-49000000D03*
D27*
X180280000Y-60075000D03*
D28*
X180280000Y-62400000D03*
D29*
X180280000Y-54600000D03*
D27*
X180280000Y-56925000D03*
D30*
X195900000Y-67825000D03*
D31*
X193575000Y-67825000D03*
X190425000Y-67825000D03*
D29*
X188100000Y-67825000D03*
D34*
X63270000Y-35730000D03*
D35*
X69045000Y-34460000D03*
D34*
X82245000Y-35730000D03*
D35*
X88020000Y-34460000D03*
D34*
X101270000Y-35705000D03*
D35*
X107045000Y-34435000D03*
D34*
X68020000Y-54705000D03*
D35*
X73795000Y-53435000D03*
D34*
X70395000Y-73705000D03*
D35*
X76170000Y-72435000D03*
D36*
X81655000Y-99745000D03*
D37*
X75880000Y-101015000D03*
D34*
X75095000Y-111755000D03*
D35*
X80870000Y-110485000D03*
D34*
X91745000Y-54755000D03*
D35*
X97520000Y-53485000D03*
D34*
X96495000Y-73755000D03*
D35*
X102270000Y-72485000D03*
D34*
X105945000Y-92730000D03*
D35*
X111720000Y-91460000D03*
D34*
X98870000Y-111705000D03*
D35*
X104645000Y-110435000D03*
D34*
X110745000Y-54705000D03*
D35*
X116520000Y-53435000D03*
D34*
X115520000Y-73705000D03*
D35*
X121295000Y-72435000D03*
D34*
X124970000Y-92730000D03*
D35*
X130745000Y-91460000D03*
D34*
X122620000Y-111730000D03*
D35*
X128395000Y-110460000D03*
D34*
X120220000Y-35705000D03*
D35*
X125995000Y-34435000D03*
D34*
X129745000Y-54730000D03*
D35*
X135520000Y-53460000D03*
D34*
X134545000Y-73730000D03*
D35*
X140320000Y-72460000D03*
D34*
X143970000Y-92755000D03*
D35*
X149745000Y-91485000D03*
D34*
X155870000Y-111730000D03*
D35*
X161645000Y-110460000D03*
D34*
X139245000Y-35730000D03*
D35*
X145020000Y-34460000D03*
D34*
X148845000Y-54730000D03*
D35*
X154620000Y-53460000D03*
D34*
X153545000Y-73680000D03*
D35*
X159320000Y-72410000D03*
D34*
X162970000Y-92755000D03*
D35*
X168745000Y-91485000D03*
D34*
X158220000Y-35705000D03*
D35*
X163995000Y-34435000D03*
D34*
X167745000Y-54730000D03*
D35*
X173520000Y-53460000D03*
D34*
X172495000Y-73730000D03*
D35*
X178270000Y-72460000D03*
D34*
X181970000Y-92755000D03*
D35*
X187745000Y-91485000D03*
D34*
X177245000Y-35730000D03*
D35*
X183020000Y-34460000D03*
D34*
X186745000Y-54780000D03*
D35*
X192520000Y-53510000D03*
D34*
X191495000Y-73705000D03*
D35*
X197270000Y-72435000D03*
D34*
X201020000Y-92705000D03*
D35*
X206795000Y-91435000D03*
D38*
X195000000Y-32327500D03*
X195000000Y-39327500D03*
D39*
X192700000Y-42027500D03*
X197300000Y-40927500D03*
X197300000Y-36927500D03*
X197300000Y-33927500D03*
D40*
X180970211Y-115729006D03*
D41*
X186831302Y-116510763D03*
D40*
X196420211Y-128804006D03*
D41*
X202281302Y-129585763D03*
D31*
X110900000Y-86825000D03*
D30*
X113225000Y-86825000D03*
D29*
X105425000Y-86825000D03*
D31*
X107750000Y-86825000D03*
X96450000Y-48850000D03*
D30*
X98775000Y-48850000D03*
D29*
X90975000Y-48850000D03*
D31*
X93300000Y-48850000D03*
X198575000Y-86725000D03*
D30*
X200900000Y-86725000D03*
D31*
X195425000Y-86725000D03*
D29*
X193100000Y-86725000D03*
D32*
X187580016Y-111838682D03*
D33*
X189764801Y-112633879D03*
D32*
X184619984Y-110761318D03*
D29*
X182435199Y-109966121D03*
D28*
X60000000Y-80400000D03*
D27*
X60000000Y-78075000D03*
X60000000Y-74925000D03*
D29*
X60000000Y-72600000D03*
D42*
X53840000Y-81950000D03*
D43*
X53840000Y-77250000D03*
X53840000Y-72550000D03*
X41140000Y-79790000D03*
X41140000Y-74710000D03*
D27*
X60000000Y-96575000D03*
D28*
X60000000Y-98900000D03*
D27*
X60000000Y-93425000D03*
D29*
X60000000Y-91100000D03*
D42*
X53786250Y-100950000D03*
D43*
X53786250Y-96250000D03*
X53786250Y-91550000D03*
X41086250Y-98790000D03*
X41086250Y-93710000D03*
D44*
X55120000Y-38030000D03*
D45*
X55120000Y-40570000D03*
X55120000Y-43110000D03*
X55120000Y-45650000D03*
X55120000Y-48190000D03*
X55120000Y-50730000D03*
X55120000Y-53270000D03*
X55120000Y-55810000D03*
X55120000Y-58350000D03*
X55120000Y-60890000D03*
X55120000Y-63430000D03*
X55120000Y-65970000D03*
X39880000Y-65970000D03*
X39880000Y-63430000D03*
X39880000Y-60890000D03*
X39880000Y-58350000D03*
X39880000Y-55810000D03*
X39880000Y-53270000D03*
X39880000Y-50730000D03*
X39880000Y-48190000D03*
X39880000Y-45650000D03*
X39880000Y-43110000D03*
X39880000Y-40570000D03*
X39880000Y-38030000D03*
M02*
