M48
; DRILL file {KiCad (6.0.10-0)} date Sunday, December 25, 2022 at 07:18:41 PM
; FORMAT={-:-/ absolute / metric / decimal}
; #@! TF.CreationDate,2022-12-25T19:18:41-08:00
; #@! TF.GenerationSoftware,Kicad,Pcbnew,(6.0.10-0)
; #@! TF.FileFunction,NonPlated,1,2,NPTH
FMAT,2
METRIC
; #@! TA.AperFunction,NonPlated,NPTH,ComponentDrill
T1C0.800
; #@! TA.AperFunction,NonPlated,NPTH,ComponentDrill
T2C1.702
; #@! TA.AperFunction,NonPlated,NPTH,ComponentDrill
T3C3.048
; #@! TA.AperFunction,NonPlated,NPTH,ComponentDrill
T4C3.988
%
G90
G05
T1
X195.0Y-32.328
X195.0Y-39.328
T2
X61.445Y-39.25
X66.195Y-58.225
X68.57Y-77.225
X71.605Y-39.25
X73.27Y-115.275
X73.32Y-96.225
X76.355Y-58.225
X78.73Y-77.225
X80.42Y-39.25
X83.43Y-115.275
X83.48Y-96.225
X89.92Y-58.275
X90.58Y-39.25
X94.67Y-77.275
X97.045Y-115.225
X99.445Y-39.225
X100.08Y-58.275
X104.12Y-96.25
X104.83Y-77.275
X107.205Y-115.225
X108.92Y-58.225
X109.605Y-39.225
X113.695Y-77.225
X114.28Y-96.25
X118.395Y-39.225
X119.08Y-58.225
X120.795Y-115.25
X123.145Y-96.25
X123.855Y-77.225
X127.92Y-58.25
X128.555Y-39.225
X130.955Y-115.25
X132.72Y-77.25
X133.305Y-96.25
X137.42Y-39.25
X138.08Y-58.25
X142.145Y-96.275
X142.88Y-77.25
X147.02Y-58.25
X147.58Y-39.25
X151.72Y-77.2
X152.305Y-96.275
X154.045Y-115.25
X156.395Y-39.225
X157.18Y-58.25
X161.145Y-96.275
X161.88Y-77.2
X164.205Y-115.25
X165.92Y-58.25
X166.555Y-39.225
X170.67Y-77.25
X171.305Y-96.275
X175.42Y-39.25
X176.08Y-58.25
X178.051Y-118.413
X180.145Y-96.275
X180.83Y-77.25
X184.92Y-58.3
X185.58Y-39.25
X187.599Y-121.887
X189.67Y-77.225
X190.305Y-96.275
X193.501Y-131.488
X195.08Y-58.3
X199.195Y-96.225
X199.83Y-77.225
X203.049Y-134.962
X209.355Y-96.225
T3
X66.462Y-103.21
X90.338Y-103.21
T4
X66.462Y-87.97
X66.525Y-39.25
X71.275Y-58.225
X73.65Y-77.225
X78.35Y-115.275
X78.4Y-96.225
X85.5Y-39.25
X90.338Y-87.97
X95.0Y-58.275
X99.75Y-77.275
X102.125Y-115.225
X104.525Y-39.225
X109.2Y-96.25
X114.0Y-58.225
X118.775Y-77.225
X123.475Y-39.225
X125.875Y-115.25
X128.225Y-96.25
X133.0Y-58.25
X137.8Y-77.25
X142.5Y-39.25
X147.225Y-96.275
X152.1Y-58.25
X156.8Y-77.2
X159.125Y-115.25
X161.475Y-39.225
X166.225Y-96.275
X171.0Y-58.25
X175.75Y-77.25
X180.5Y-39.25
X182.825Y-120.15
X185.225Y-96.275
X190.0Y-58.3
X194.75Y-77.225
X198.275Y-133.225
X204.275Y-96.225
T0
M30
