G04 #@! TF.GenerationSoftware,KiCad,Pcbnew,(6.0.10-0)*
G04 #@! TF.CreationDate,2022-12-25T19:45:41-08:00*
G04 #@! TF.ProjectId,left,6c656674-2e6b-4696-9361-645f70636258,rev?*
G04 #@! TF.SameCoordinates,Original*
G04 #@! TF.FileFunction,Copper,L2,Bot*
G04 #@! TF.FilePolarity,Positive*
%FSLAX46Y46*%
G04 Gerber Fmt 4.6, Leading zero omitted, Abs format (unit mm)*
G04 Created by KiCad (PCBNEW (6.0.10-0)) date 2022-12-25 19:45:41*
%MOMM*%
%LPD*%
G01*
G04 APERTURE LIST*
G04 Aperture macros list*
%AMHorizOval*
0 Thick line with rounded ends*
0 $1 width*
0 $2 $3 position (X,Y) of the first rounded end (center of the circle)*
0 $4 $5 position (X,Y) of the second rounded end (center of the circle)*
0 Add line between two ends*
20,1,$1,$2,$3,$4,$5,0*
0 Add two circle primitives to create the rounded ends*
1,1,$1,$2,$3*
1,1,$1,$4,$5*%
%AMRotRect*
0 Rectangle, with rotation*
0 The origin of the aperture is its center*
0 $1 length*
0 $2 width*
0 $3 Rotation angle, in degrees counterclockwise*
0 Add horizontal line*
21,1,$1,$2,0,0,$3*%
G04 Aperture macros list end*
G04 #@! TA.AperFunction,ComponentPad*
%ADD10R,1.600000X1.600000*%
G04 #@! TD*
G04 #@! TA.AperFunction,ComponentPad*
%ADD11C,1.600000*%
G04 #@! TD*
G04 #@! TA.AperFunction,ComponentPad*
%ADD12RotRect,1.600000X1.600000X160.000000*%
G04 #@! TD*
G04 #@! TA.AperFunction,ComponentPad*
%ADD13HorizOval,2.500000X-0.604462X-0.948815X0.604462X0.948815X0*%
G04 #@! TD*
G04 #@! TA.AperFunction,ComponentPad*
%ADD14HorizOval,2.500000X-0.019724X-0.289328X0.019724X0.289328X0*%
G04 #@! TD*
G04 #@! TA.AperFunction,ComponentPad*
%ADD15HorizOval,2.500000X0.604462X0.948815X-0.604462X-0.948815X0*%
G04 #@! TD*
G04 #@! TA.AperFunction,ComponentPad*
%ADD16HorizOval,2.500000X0.019724X0.289328X-0.019724X-0.289328X0*%
G04 #@! TD*
G04 #@! TA.AperFunction,ComponentPad*
%ADD17O,1.600000X2.000000*%
G04 #@! TD*
G04 #@! TA.AperFunction,ComponentPad*
%ADD18HorizOval,2.500000X-0.892523X-0.684857X0.892523X0.684857X0*%
G04 #@! TD*
G04 #@! TA.AperFunction,ComponentPad*
%ADD19HorizOval,2.500000X-0.117491X-0.265134X0.117491X0.265134X0*%
G04 #@! TD*
G04 #@! TA.AperFunction,ComponentPad*
%ADD20R,2.775000X2.775000*%
G04 #@! TD*
G04 #@! TA.AperFunction,ComponentPad*
%ADD21C,2.775000*%
G04 #@! TD*
G04 #@! TA.AperFunction,SMDPad,CuDef*
%ADD22R,1.400000X2.100000*%
G04 #@! TD*
G04 #@! TA.AperFunction,ComponentPad*
%ADD23R,1.752600X1.752600*%
G04 #@! TD*
G04 #@! TA.AperFunction,ComponentPad*
%ADD24C,1.752600*%
G04 #@! TD*
G04 #@! TA.AperFunction,ViaPad*
%ADD25C,0.800000*%
G04 #@! TD*
G04 #@! TA.AperFunction,Conductor*
%ADD26C,0.250000*%
G04 #@! TD*
G04 APERTURE END LIST*
D10*
X76000000Y-41475000D03*
D11*
X76000000Y-33675000D03*
D10*
X95000000Y-41325000D03*
D11*
X95000000Y-33525000D03*
D10*
X114000000Y-41400000D03*
D11*
X114000000Y-33600000D03*
D10*
X75100000Y-48800000D03*
D11*
X67300000Y-48800000D03*
D10*
X77500000Y-67800000D03*
D11*
X69700000Y-67800000D03*
D10*
X82250000Y-86825000D03*
D11*
X74450000Y-86825000D03*
D10*
X82425000Y-105850000D03*
D11*
X74625000Y-105850000D03*
D10*
X103725000Y-67850000D03*
D11*
X95925000Y-67850000D03*
D10*
X106025000Y-105775000D03*
D11*
X98225000Y-105775000D03*
D10*
X118025000Y-48825000D03*
D11*
X110225000Y-48825000D03*
D10*
X122650000Y-67800000D03*
D11*
X114850000Y-67800000D03*
D10*
X132250000Y-86825000D03*
D11*
X124450000Y-86825000D03*
D10*
X129850000Y-105800000D03*
D11*
X122050000Y-105800000D03*
D10*
X133000000Y-41400000D03*
D11*
X133000000Y-33600000D03*
D10*
X136775000Y-48800000D03*
D11*
X128975000Y-48800000D03*
D10*
X141625000Y-67825000D03*
D11*
X133825000Y-67825000D03*
D10*
X151200000Y-86850000D03*
D11*
X143400000Y-86850000D03*
D10*
X163000000Y-105800000D03*
D11*
X155200000Y-105800000D03*
D10*
X151500000Y-41400000D03*
D11*
X151500000Y-33600000D03*
D10*
X156125000Y-48825000D03*
D11*
X148325000Y-48825000D03*
D10*
X160675000Y-67775000D03*
D11*
X152875000Y-67775000D03*
D10*
X170175000Y-86850000D03*
D11*
X162375000Y-86850000D03*
D10*
X171000000Y-41400000D03*
D11*
X171000000Y-33600000D03*
D10*
X174900000Y-49000000D03*
D11*
X167100000Y-49000000D03*
D10*
X179600000Y-67825000D03*
D11*
X171800000Y-67825000D03*
D10*
X189125000Y-86850000D03*
D11*
X181325000Y-86850000D03*
D12*
X205214801Y-125708879D03*
D11*
X197885199Y-123041121D03*
D10*
X185900000Y-49000000D03*
D11*
X178100000Y-49000000D03*
D10*
X180280000Y-62400000D03*
D11*
X180280000Y-54600000D03*
D10*
X195900000Y-67825000D03*
D11*
X188100000Y-67825000D03*
D13*
X63270000Y-35730000D03*
D14*
X69045000Y-34460000D03*
D13*
X82245000Y-35730000D03*
D14*
X88020000Y-34460000D03*
D13*
X101270000Y-35705000D03*
D14*
X107045000Y-34435000D03*
D13*
X68020000Y-54705000D03*
D14*
X73795000Y-53435000D03*
D13*
X70395000Y-73705000D03*
D14*
X76170000Y-72435000D03*
D15*
X81655000Y-99745000D03*
D16*
X75880000Y-101015000D03*
D13*
X75095000Y-111755000D03*
D14*
X80870000Y-110485000D03*
D13*
X91745000Y-54755000D03*
D14*
X97520000Y-53485000D03*
D13*
X96495000Y-73755000D03*
D14*
X102270000Y-72485000D03*
D13*
X105945000Y-92730000D03*
D14*
X111720000Y-91460000D03*
D13*
X98870000Y-111705000D03*
D14*
X104645000Y-110435000D03*
D13*
X110745000Y-54705000D03*
D14*
X116520000Y-53435000D03*
D13*
X115520000Y-73705000D03*
D14*
X121295000Y-72435000D03*
D13*
X124970000Y-92730000D03*
D14*
X130745000Y-91460000D03*
D13*
X122620000Y-111730000D03*
D14*
X128395000Y-110460000D03*
D13*
X120220000Y-35705000D03*
D14*
X125995000Y-34435000D03*
D13*
X129745000Y-54730000D03*
D14*
X135520000Y-53460000D03*
D13*
X134545000Y-73730000D03*
D14*
X140320000Y-72460000D03*
D13*
X143970000Y-92755000D03*
D14*
X149745000Y-91485000D03*
D13*
X155870000Y-111730000D03*
D14*
X161645000Y-110460000D03*
D13*
X139245000Y-35730000D03*
D14*
X145020000Y-34460000D03*
D13*
X148845000Y-54730000D03*
D14*
X154620000Y-53460000D03*
D13*
X153545000Y-73680000D03*
D14*
X159320000Y-72410000D03*
D13*
X162970000Y-92755000D03*
D14*
X168745000Y-91485000D03*
D13*
X158220000Y-35705000D03*
D14*
X163995000Y-34435000D03*
D13*
X167745000Y-54730000D03*
D14*
X173520000Y-53460000D03*
D13*
X172495000Y-73730000D03*
D14*
X178270000Y-72460000D03*
D13*
X181970000Y-92755000D03*
D14*
X187745000Y-91485000D03*
D13*
X177245000Y-35730000D03*
D14*
X183020000Y-34460000D03*
D13*
X186745000Y-54780000D03*
D14*
X192520000Y-53510000D03*
D13*
X191495000Y-73705000D03*
D14*
X197270000Y-72435000D03*
D13*
X201020000Y-92705000D03*
D14*
X206795000Y-91435000D03*
D17*
X192700000Y-42027500D03*
X197300000Y-40927500D03*
X197300000Y-36927500D03*
X197300000Y-33927500D03*
D18*
X180970211Y-115729006D03*
D19*
X186831302Y-116510763D03*
D18*
X196420211Y-128804006D03*
D19*
X202281302Y-129585763D03*
D10*
X113225000Y-86825000D03*
D11*
X105425000Y-86825000D03*
D10*
X98775000Y-48850000D03*
D11*
X90975000Y-48850000D03*
D10*
X200900000Y-86725000D03*
D11*
X193100000Y-86725000D03*
D12*
X189764801Y-112633879D03*
D11*
X182435199Y-109966121D03*
D10*
X60000000Y-80400000D03*
D11*
X60000000Y-72600000D03*
D20*
X53840000Y-81950000D03*
D21*
X53840000Y-77250000D03*
X53840000Y-72550000D03*
X41140000Y-79790000D03*
X41140000Y-74710000D03*
D10*
X60000000Y-98900000D03*
D11*
X60000000Y-91100000D03*
D20*
X53786250Y-100950000D03*
D21*
X53786250Y-96250000D03*
X53786250Y-91550000D03*
X41086250Y-98790000D03*
X41086250Y-93710000D03*
D22*
X58300000Y-50330000D03*
X58300000Y-59430000D03*
X62800000Y-50330000D03*
X62800000Y-59430000D03*
D23*
X55120000Y-38030000D03*
D24*
X55120000Y-40570000D03*
X55120000Y-43110000D03*
X55120000Y-45650000D03*
X55120000Y-48190000D03*
X55120000Y-50730000D03*
X55120000Y-53270000D03*
X55120000Y-55810000D03*
X55120000Y-58350000D03*
X55120000Y-60890000D03*
X55120000Y-63430000D03*
X55120000Y-65970000D03*
X39880000Y-65970000D03*
X39880000Y-63430000D03*
X39880000Y-60890000D03*
X39880000Y-58350000D03*
X39880000Y-55810000D03*
X39880000Y-53270000D03*
X39880000Y-50730000D03*
X39880000Y-48190000D03*
X39880000Y-45650000D03*
X39880000Y-43110000D03*
X39880000Y-40570000D03*
X39880000Y-38030000D03*
D25*
X56750000Y-35750000D03*
X56750000Y-49250000D03*
X63250000Y-66000000D03*
X65250000Y-85000000D03*
X191000000Y-37000000D03*
X62750000Y-61750000D03*
X47500000Y-56500000D03*
X44250000Y-43250000D03*
D26*
X56750000Y-49250000D02*
X56750000Y-35750000D01*
X60000000Y-72600000D02*
X60000000Y-69250000D01*
X60000000Y-69250000D02*
X63250000Y-66000000D01*
X60000000Y-91100000D02*
X60000000Y-90250000D01*
X60000000Y-90250000D02*
X65250000Y-85000000D01*
X53000000Y-69000000D02*
X56500000Y-72500000D01*
X39380000Y-65970000D02*
X42410000Y-69000000D01*
X53340000Y-78402500D02*
X56492500Y-75250000D01*
X56500000Y-72500000D02*
X56500000Y-75250000D01*
X56492500Y-75250000D02*
X56500000Y-75250000D01*
X42410000Y-69000000D02*
X53000000Y-69000000D01*
X56500000Y-92968750D02*
X53286250Y-96182500D01*
X56500000Y-75250000D02*
X56500000Y-92968750D01*
X69750000Y-47750000D02*
X73795000Y-51795000D01*
X76750000Y-74750000D02*
X76750000Y-92000000D01*
X76170000Y-74170000D02*
X76750000Y-74750000D01*
X76170000Y-72435000D02*
X76170000Y-74170000D01*
X74750000Y-58000000D02*
X74750000Y-59500000D01*
X69045000Y-37045000D02*
X69750000Y-37750000D01*
X56000000Y-67500000D02*
X45000000Y-67500000D01*
X75880000Y-103880000D02*
X80870000Y-108870000D01*
X76750000Y-92000000D02*
X76000000Y-92750000D01*
X73795000Y-53435000D02*
X74750000Y-54390000D01*
X74750000Y-71015000D02*
X76170000Y-72435000D01*
X69045000Y-34460000D02*
X69045000Y-37045000D01*
X75880000Y-92870000D02*
X76000000Y-92750000D01*
X74750000Y-54390000D02*
X74750000Y-58000000D01*
X74750000Y-59500000D02*
X71500000Y-62750000D01*
X75880000Y-101015000D02*
X75880000Y-92870000D01*
X60750000Y-62750000D02*
X56000000Y-67500000D01*
X40930000Y-63430000D02*
X45000000Y-67500000D01*
X69750000Y-37750000D02*
X69750000Y-47750000D01*
X73795000Y-51795000D02*
X73795000Y-53435000D01*
X75880000Y-101015000D02*
X75880000Y-103880000D01*
X39380000Y-63430000D02*
X40930000Y-63430000D01*
X80870000Y-108870000D02*
X80870000Y-110485000D01*
X71500000Y-62750000D02*
X60750000Y-62750000D01*
X74750000Y-58000000D02*
X74750000Y-71015000D01*
X86060000Y-32500000D02*
X88020000Y-34460000D01*
X88020000Y-41770000D02*
X97520000Y-51270000D01*
X97520000Y-53485000D02*
X97520000Y-65520000D01*
X97520000Y-65520000D02*
X102270000Y-70270000D01*
X102270000Y-79770000D02*
X111720000Y-89220000D01*
X111720000Y-89220000D02*
X111720000Y-91460000D01*
X48025000Y-52245000D02*
X48025000Y-45520938D01*
X102270000Y-70270000D02*
X102270000Y-72485000D01*
X39380000Y-60890000D02*
X48025000Y-52245000D01*
X88020000Y-34460000D02*
X88020000Y-41770000D01*
X48750000Y-32500000D02*
X86060000Y-32500000D01*
X102270000Y-72485000D02*
X102270000Y-79770000D01*
X48024500Y-33225500D02*
X48750000Y-32500000D01*
X48024500Y-45521438D02*
X48024500Y-33225500D01*
X111720000Y-103360000D02*
X104645000Y-110435000D01*
X111720000Y-91460000D02*
X111720000Y-103360000D01*
X97520000Y-51270000D02*
X97520000Y-53485000D01*
X107045000Y-34435000D02*
X107045000Y-38398686D01*
X116520000Y-51270000D02*
X116520000Y-53435000D01*
X121295000Y-79795000D02*
X130745000Y-89245000D01*
X107045000Y-38398686D02*
X114250000Y-45603686D01*
X39380000Y-58350000D02*
X47575000Y-50155000D01*
X130745000Y-89245000D02*
X130745000Y-91460000D01*
X133500000Y-105500000D02*
X133500000Y-108500000D01*
X121295000Y-72435000D02*
X121295000Y-79795000D01*
X121295000Y-70045000D02*
X121295000Y-72435000D01*
X116520000Y-53435000D02*
X116520000Y-65270000D01*
X130745000Y-102745000D02*
X133500000Y-105500000D01*
X114250000Y-45603686D02*
X114250000Y-49000000D01*
X130745000Y-91460000D02*
X130745000Y-102745000D01*
X47575000Y-32675000D02*
X48200000Y-32050000D01*
X131540000Y-110460000D02*
X128395000Y-110460000D01*
X104660000Y-32050000D02*
X107045000Y-34435000D01*
X48200000Y-32050000D02*
X104660000Y-32050000D01*
X114250000Y-49000000D02*
X116520000Y-51270000D01*
X47575000Y-50155000D02*
X47575000Y-32675000D01*
X116520000Y-65270000D02*
X121295000Y-70045000D01*
X133500000Y-108500000D02*
X131540000Y-110460000D01*
X140320000Y-80070000D02*
X149745000Y-89495000D01*
X39380000Y-55810000D02*
X47125000Y-48065000D01*
X161645000Y-108395000D02*
X161645000Y-110460000D01*
X140320000Y-70320000D02*
X140320000Y-72460000D01*
X159000000Y-101049052D02*
X159000000Y-105750000D01*
X159000000Y-105750000D02*
X161645000Y-108395000D01*
X123160000Y-31600000D02*
X125995000Y-34435000D01*
X135520000Y-51270000D02*
X135520000Y-53460000D01*
X135520000Y-53460000D02*
X135520000Y-65520000D01*
X47125000Y-48065000D02*
X47125000Y-32375000D01*
X47900000Y-31600000D02*
X123160000Y-31600000D01*
X149745000Y-89495000D02*
X149745000Y-91485000D01*
X125995000Y-34435000D02*
X125995000Y-41745000D01*
X140320000Y-72460000D02*
X140320000Y-80070000D01*
X149745000Y-91485000D02*
X149745000Y-91794052D01*
X47125000Y-32375000D02*
X47900000Y-31600000D01*
X135520000Y-65520000D02*
X140320000Y-70320000D01*
X149745000Y-91794052D02*
X159000000Y-101049052D01*
X125995000Y-41745000D02*
X135520000Y-51270000D01*
X159320000Y-80070000D02*
X168745000Y-89495000D01*
X154620000Y-53460000D02*
X154620000Y-65370000D01*
X168745000Y-91485000D02*
X179500000Y-102240000D01*
X168745000Y-89495000D02*
X168745000Y-91485000D01*
X159320000Y-72410000D02*
X159320000Y-80070000D01*
X179500000Y-104500000D02*
X186831302Y-111831302D01*
X46675000Y-45975000D02*
X46675000Y-31825000D01*
X46675000Y-31825000D02*
X47350000Y-31150000D01*
X145020000Y-34460000D02*
X145020000Y-41270000D01*
X159320000Y-70070000D02*
X159320000Y-72410000D01*
X154620000Y-65370000D02*
X159320000Y-70070000D01*
X39380000Y-53270000D02*
X46675000Y-45975000D01*
X141710000Y-31150000D02*
X145020000Y-34460000D01*
X47350000Y-31150000D02*
X141710000Y-31150000D01*
X145020000Y-41270000D02*
X154620000Y-50870000D01*
X179500000Y-102240000D02*
X179500000Y-104500000D01*
X154620000Y-50870000D02*
X154620000Y-53460000D01*
X186831302Y-111831302D02*
X186831302Y-116510763D01*
X187745000Y-106745000D02*
X202281302Y-121281302D01*
X46800000Y-30700000D02*
X160260000Y-30700000D01*
X173520000Y-51520000D02*
X173520000Y-53460000D01*
X187745000Y-89245000D02*
X187745000Y-91485000D01*
X202281302Y-121281302D02*
X202281302Y-129585763D01*
X40619275Y-50730000D02*
X46225000Y-45124275D01*
X46225000Y-44111025D02*
X46225000Y-31275000D01*
X173520000Y-65770000D02*
X178270000Y-70520000D01*
X160260000Y-30700000D02*
X163995000Y-34435000D01*
X46225000Y-45124275D02*
X46225000Y-43975000D01*
X178270000Y-72460000D02*
X178270000Y-79770000D01*
X163995000Y-34435000D02*
X163995000Y-41995000D01*
X178270000Y-70520000D02*
X178270000Y-72460000D01*
X46225000Y-31275000D02*
X46800000Y-30700000D01*
X178270000Y-79770000D02*
X187745000Y-89245000D01*
X39380000Y-50730000D02*
X40619275Y-50730000D01*
X163995000Y-41995000D02*
X173520000Y-51520000D01*
X187745000Y-91485000D02*
X187745000Y-106745000D01*
X173520000Y-53460000D02*
X173520000Y-65770000D01*
X191072500Y-36927500D02*
X197300000Y-36927500D01*
X191000000Y-37000000D02*
X191072500Y-36927500D01*
X62800000Y-59430000D02*
X62800000Y-61700000D01*
X62800000Y-61700000D02*
X62750000Y-61750000D01*
X39380000Y-43110000D02*
X44110000Y-43110000D01*
X44110000Y-43110000D02*
X44250000Y-43250000D01*
X47500000Y-56500000D02*
X48148700Y-57148700D01*
X56018700Y-57148700D02*
X58300000Y-59430000D01*
X48148700Y-57148700D02*
X56018700Y-57148700D01*
X41509630Y-48190000D02*
X42849815Y-46849815D01*
X197250000Y-86750000D02*
X199500000Y-89000000D01*
X183020000Y-34460000D02*
X183020000Y-44010000D01*
X46500000Y-30250000D02*
X178810000Y-30250000D01*
X197270000Y-72435000D02*
X197270000Y-86730000D01*
X183020000Y-44010000D02*
X192520000Y-53510000D01*
X45775000Y-43924629D02*
X45775000Y-34025000D01*
X192520000Y-53510000D02*
X192520000Y-67685000D01*
X45750000Y-34000000D02*
X45750000Y-31000000D01*
X199500000Y-89000000D02*
X204360000Y-89000000D01*
X192520000Y-67685000D02*
X197270000Y-72435000D01*
X197270000Y-86730000D02*
X197250000Y-86750000D01*
X42849815Y-46849815D02*
X45775000Y-43924629D01*
X45750000Y-31000000D02*
X46500000Y-30250000D01*
X45775000Y-34025000D02*
X45750000Y-34000000D01*
X39380000Y-48190000D02*
X41509630Y-48190000D01*
X178810000Y-30250000D02*
X183020000Y-34460000D01*
X204360000Y-89000000D02*
X206795000Y-91435000D01*
M02*
