0
SECTION
2
HEADER
9
$INSUNITS
70
4
9
$ACADVER
1
AC1014
9
$HANDSEED
5
FFFF
0
ENDSEC
0
SECTION
2
TABLES
0
TABLE
2
VPORT
5
8
100
AcDbSymbolTable
0
ENDTAB
0
TABLE
2
LTYPE
5
5
100
AcDbSymbolTable
0
LTYPE
5
14
100
AcDbSymbolTableRecord
100
AcDbLinetypeTableRecord
2
BYBLOCK
70
0
0
LTYPE
5
15
100
AcDbSymbolTableRecord
100
AcDbLinetypeTableRecord
2
BYLAYER
70
0
0
ENDTAB
0
TABLE
2
LAYER
5
2
100
AcDbSymbolTable
70
2
0
LAYER
5
50
100
AcDbSymbolTableRecord
100
AcDbLayerTableRecord
2
0
70
0
6
CONTINUOUS
0
ENDTAB
0
TABLE
2
STYLE
5
3
100
AcDbSymbolTable
70
1
0
STYLE
5
11
100
AcDbSymbolTableRecord
100
AcDbTextStyleTableRecord
2
STANDARD
70
0
0
ENDTAB
0
TABLE
2
VIEW
5
6
100
AcDbSymbolTable
70
0
0
ENDTAB
0
TABLE
2
UCS
5
7
100
AcDbSymbolTable
70
0
0
ENDTAB
0
TABLE
2
APPID
5
9
100
AcDbSymbolTable
70
2
0
APPID
5
12
100
AcDbSymbolTableRecord
100
AcDbRegAppTableRecord
2
ACAD
70
0
0
ENDTAB
0
TABLE
2
DIMSTYLE
5
A
100
AcDbSymbolTable
70
1
0
ENDTAB
0
TABLE
2
BLOCK_RECORD
5
1
100
AcDbSymbolTable
70
1
0
BLOCK_RECORD
5
1F
100
AcDbSymbolTableRecord
100
AcDbBlockTableRecord
2
*MODEL_SPACE
0
BLOCK_RECORD
5
1B
100
AcDbSymbolTableRecord
100
AcDbBlockTableRecord
2
*PAPER_SPACE
0
ENDTAB
0
ENDSEC
0
SECTION
2
BLOCKS
0
BLOCK
5
20
100
AcDbEntity
100
AcDbBlockBegin
2
*MODEL_SPACE
0
ENDBLK
5
21
100
AcDbEntity
100
AcDbBlockEnd
0
BLOCK
5
1C
100
AcDbEntity
100
AcDbBlockBegin
2
*PAPER_SPACE
0
ENDBLK
5
1D
100
AcDbEntity
100
AcDbBlockEnd
0
ENDSEC
0
SECTION
2
ENTITIES
0
LWPOLYLINE
5
100
100
AcDbEntity
8
0
100
AcDbPolyline
90
12
70
1
43
0.0
10
442.39231519724581
20
-5
42
-0.4142135623730932
10
446.39231519724581
20
-8.999999999999968
10
446.39231519724592
20
-114.5000000000001
42
-0.41421356237310542
10
445.89231519724586
20
-115.00000000000013
10
327.39231519724581
20
-115.00000000000006
42
0.1763269807084441
10
317.75050105194896
20
-118.50933335321545
10
306.47520152470258
20
-127.97043302794131
42
-0.17632698070846578
10
299.08418357880362
20
-130.66054356117581
10
235.97500000000107
20
-130.66054356117559
42
-0.41421356237309503
10
235.47500000000105
20
-130.16054356117559
10
235.47500000000122
20
-9
42
-0.41421356237311585
10
239.47500000000147
20
-5
0
LWPOLYLINE
5
101
100
AcDbEntity
8
0
100
AcDbPolyline
90
4
70
1
43
0.0
10
415.14231519724592
20
-93.250000000000114
10
401.14231519724581
20
-93.250000000000114
10
401.14231519724581
20
-107.25000000000011
10
415.14231519724592
20
-107.25000000000011
0
LWPOLYLINE
5
102
100
AcDbEntity
8
0
100
AcDbPolyline
90
4
70
1
43
0.0
10
298.76731519724569
20
-102.49999999999999
10
298.76731519724569
20
-88.500000000000114
10
284.76731519724569
20
-88.499999999999972
10
284.7673151972453
20
-102.49999999999999
0
LWPOLYLINE
5
103
100
AcDbEntity
8
0
100
AcDbPolyline
90
4
70
1
43
0.0
10
310.64231519724581
20
-69.499999999999972
10
296.64231519724581
20
-69.499999999999972
10
296.64231519724581
20
-83.499999999999957
10
310.64231519724581
20
-83.499999999999929
0
LWPOLYLINE
5
104
100
AcDbEntity
8
0
100
AcDbPolyline
90
4
70
1
43
0.0
10
389.01731519724564
20
-83.499999999999972
10
389.01731519724564
20
-69.499999999999972
10
375.01731519724558
20
-69.499999999999972
10
375.01731519724558
20
-83.499999999999972
0
LWPOLYLINE
5
105
100
AcDbEntity
8
0
100
AcDbPolyline
90
4
70
1
43
0.0
10
358.14231519724569
20
-50.499999999999844
10
344.14231519724581
20
-50.499999999999964
10
344.14231519724581
20
-64.499999999999972
10
358.14231519724569
20
-64.499999999999972
0
LWPOLYLINE
5
106
100
AcDbEntity
8
0
100
AcDbPolyline
90
4
70
1
43
0.0
10
282.14231519724581
20
-50.499999999999844
10
268.14231519724581
20
-50.499999999999964
10
268.14231519724581
20
-64.499999999999972
10
282.14231519724569
20
-64.499999999999972
0
LWPOLYLINE
5
107
100
AcDbEntity
8
0
100
AcDbPolyline
90
4
70
1
43
0.0
10
296.39231519724581
20
-31.499999999999986
10
282.39231519724581
20
-31.500000000000004
10
282.39231519724575
20
-45.499999999999972
10
296.39231519724581
20
-45.5
0
LWPOLYLINE
5
108
100
AcDbEntity
8
0
100
AcDbPolyline
90
4
70
1
43
0.0
10
372.39231519724581
20
-31.499999999999986
10
358.39231519724581
20
-31.500000000000004
10
358.39231519724581
20
-45.499999999999972
10
372.39231519724581
20
-45.5
0
LWPOLYLINE
5
109
100
AcDbEntity
8
0
100
AcDbPolyline
90
4
70
1
43
0.0
10
381.89231519724569
20
-12.5
10
367.89231519724569
20
-12.5
10
367.89231519724581
20
-26.500000000000028
10
381.89231519724558
20
-26.499999999999979
0
LWPOLYLINE
5
110
100
AcDbEntity
8
0
100
AcDbPolyline
90
4
70
1
43
0.0
10
305.89231519724575
20
-12.5
10
291.89231519724575
20
-12.5
10
291.89231519724581
20
-26.500000000000028
10
305.89231519724569
20
-26.499999999999979
0
LWPOLYLINE
5
111
100
AcDbEntity
8
0
100
AcDbPolyline
90
4
70
1
43
0.0
10
286.89231519724575
20
-12.5
10
272.89231519724575
20
-12.5
10
272.89231519724586
20
-26.500000000000028
10
286.89231519724569
20
-26.499999999999979
0
LWPOLYLINE
5
112
100
AcDbEntity
8
0
100
AcDbPolyline
90
4
70
1
43
0.0
10
362.89231519724569
20
-12.5
10
348.89231519724575
20
-12.5
10
348.89231519724575
20
-26.500000000000028
10
362.89231519724569
20
-26.499999999999979
0
LWPOLYLINE
5
113
100
AcDbEntity
8
0
100
AcDbPolyline
90
4
70
1
43
0.0
10
410.39231519724581
20
-31.499999999999986
10
396.39231519724575
20
-31.500000000000004
10
396.39231519724575
20
-45.499999999999972
10
410.39231519724581
20
-45.5
0
LWPOLYLINE
5
114
100
AcDbEntity
8
0
100
AcDbPolyline
90
4
70
1
43
0.0
10
315.39231519724581
20
-31.499999999999986
10
301.39231519724581
20
-31.500000000000004
10
301.39231519724575
20
-45.499999999999972
10
315.39231519724581
20
-45.5
0
LWPOLYLINE
5
115
100
AcDbEntity
8
0
100
AcDbPolyline
90
4
70
1
43
0.0
10
249.14231519724581
20
-64.499999999999972
10
263.14231519724569
20
-64.499999999999972
10
263.14231519724581
20
-50.499999999999844
10
249.14231519724581
20
-50.499999999999964
0
LWPOLYLINE
5
116
100
AcDbEntity
8
0
100
AcDbPolyline
90
4
70
1
43
0.0
10
339.14231519724581
20
-50.499999999999844
10
325.14231519724575
20
-50.499999999999964
10
325.14231519724575
20
-64.499999999999972
10
339.14231519724569
20
-64.499999999999972
0
LWPOLYLINE
5
117
100
AcDbEntity
8
0
100
AcDbPolyline
90
4
70
1
43
0.0
10
415.14231519724575
20
-88.250000000000099
10
415.14231519724575
20
-74.250000000000099
10
401.14231519724581
20
-74.250000000000099
10
401.14231519724581
20
-88.250000000000114
0
LWPOLYLINE
5
118
100
AcDbEntity
8
0
100
AcDbPolyline
90
4
70
1
43
0.0
10
329.64231519724581
20
-83.499999999999929
10
329.64231519724581
20
-69.499999999999972
10
315.64231519724581
20
-69.499999999999972
10
315.64231519724581
20
-83.499999999999957
0
LWPOLYLINE
5
119
100
AcDbEntity
8
0
100
AcDbPolyline
90
4
70
1
43
0.0
10
277.08327939949453
20
-104.59174857564807
10
272.29499739293516
20
-91.436051884645352
10
259.13930070193248
20
-96.224333891204765
10
263.92758270849191
20
-109.38003058220747
0
LWPOLYLINE
5
120
100
AcDbEntity
8
0
100
AcDbPolyline
90
4
70
1
43
0.0
10
396.14231519724592
20
-107.25000000000011
10
396.14231519724592
20
-93.250000000000114
10
382.14231519724586
20
-93.250000000000114
10
382.14231519724586
20
-107.25000000000011
0
LWPOLYLINE
5
121
100
AcDbEntity
8
0
100
AcDbPolyline
90
4
70
1
43
0.0
10
434.14231519724586
20
-93.250000000000114
10
420.14231519724581
20
-93.250000000000114
10
420.14231519724581
20
-107.25000000000011
10
434.14231519724586
20
-107.25000000000011
0
LWPOLYLINE
5
122
100
AcDbEntity
8
0
100
AcDbPolyline
90
4
70
1
43
0.0
10
346.26731519724581
20
-102.50000000000013
10
346.26731519724581
20
-88.500000000000114
10
332.26731519724581
20
-88.500000000000114
10
332.26731519724581
20
-102.50000000000013
0
LWPOLYLINE
5
123
100
AcDbEntity
8
0
100
AcDbPolyline
90
4
70
1
43
0.0
10
277.64231519724581
20
-69.499999999999972
10
277.64231519724581
20
-83.499999999999957
10
291.64231519724575
20
-83.499999999999929
10
291.64231519724575
20
-69.499999999999972
0
LWPOLYLINE
5
124
100
AcDbEntity
8
0
100
AcDbPolyline
90
4
70
1
43
0.0
10
367.64231519724575
20
-83.499999999999929
10
367.64231519724575
20
-69.499999999999972
10
353.64231519724581
20
-69.499999999999972
10
353.64231519724581
20
-83.499999999999957
0
LWPOLYLINE
5
125
100
AcDbEntity
8
0
100
AcDbPolyline
90
4
70
1
43
0.0
10
377.14231519724581
20
-50.499999999999844
10
363.14231519724569
20
-50.499999999999964
10
363.14231519724569
20
-64.499999999999972
10
377.14231519724564
20
-64.499999999999972
0
LWPOLYLINE
5
126
100
AcDbEntity
8
0
100
AcDbPolyline
90
4
70
1
43
0.0
10
301.14231519724575
20
-50.499999999999844
10
287.14231519724581
20
-50.499999999999964
10
287.14231519724581
20
-64.499999999999972
10
301.14231519724569
20
-64.499999999999972
0
LWPOLYLINE
5
127
100
AcDbEntity
8
0
100
AcDbPolyline
90
4
70
1
43
0.0
10
277.39231519724581
20
-31.499999999999986
10
263.39231519724586
20
-31.500000000000004
10
263.39231519724581
20
-45.499999999999972
10
277.39231519724581
20
-45.5
0
LWPOLYLINE
5
128
100
AcDbEntity
8
0
100
AcDbPolyline
90
4
70
1
43
0.0
10
353.39231519724581
20
-31.499999999999986
10
339.39231519724586
20
-31.500000000000004
10
339.39231519724569
20
-45.499999999999972
10
353.39231519724581
20
-45.5
0
LWPOLYLINE
5
129
100
AcDbEntity
8
0
100
AcDbPolyline
90
4
70
1
43
0.0
10
405.64231519724558
20
-26.500000000000004
10
405.64231519724558
20
-12.5
10
391.64231519724569
20
-12.5
10
391.64231519724569
20
-26.500000000000004
0
LWPOLYLINE
5
130
100
AcDbEntity
8
0
100
AcDbPolyline
90
4
70
1
43
0.0
10
324.89231519724569
20
-12.5
10
310.89231519724575
20
-12.5
10
310.89231519724581
20
-26.500000000000028
10
324.89231519724569
20
-26.499999999999979
0
LWPOLYLINE
5
131
100
AcDbEntity
8
0
100
AcDbPolyline
90
4
70
1
43
0.0
10
267.89231519724575
20
-12.5
10
253.89231519724578
20
-12.5
10
253.89231519724586
20
-26.500000000000028
10
267.89231519724569
20
-26.499999999999979
0
LWPOLYLINE
5
132
100
AcDbEntity
8
0
100
AcDbPolyline
90
4
70
1
43
0.0
10
343.89231519724575
20
-12.5
10
329.89231519724569
20
-12.5
10
329.89231519724581
20
-26.500000000000028
10
343.89231519724558
20
-26.499999999999979
0
LWPOLYLINE
5
133
100
AcDbEntity
8
0
100
AcDbPolyline
90
4
70
1
43
0.0
10
391.39231519724575
20
-31.499999999999986
10
377.39231519724581
20
-31.500000000000004
10
377.39231519724569
20
-45.499999999999972
10
391.39231519724575
20
-45.5
0
LWPOLYLINE
5
134
100
AcDbEntity
8
0
100
AcDbPolyline
90
4
70
1
43
0.0
10
334.39231519724586
20
-31.499999999999986
10
320.39231519724581
20
-31.500000000000004
10
320.39231519724575
20
-45.499999999999972
10
334.39231519724586
20
-45.5
0
LWPOLYLINE
5
135
100
AcDbEntity
8
0
100
AcDbPolyline
90
4
70
1
43
0.0
10
258.39231519724586
20
-31.499999999999986
10
244.39231519724586
20
-31.500000000000004
10
244.39231519724581
20
-45.499999999999972
10
258.39231519724586
20
-45.5
0
LWPOLYLINE
5
136
100
AcDbEntity
8
0
100
AcDbPolyline
90
4
70
1
43
0.0
10
320.14231519724575
20
-50.499999999999844
10
306.14231519724575
20
-50.499999999999964
10
306.14231519724575
20
-64.499999999999972
10
320.14231519724569
20
-64.499999999999972
0
LWPOLYLINE
5
137
100
AcDbEntity
8
0
100
AcDbPolyline
90
4
70
1
43
0.0
10
403.26731519724558
20
-50.499999999999844
10
389.26731519724558
20
-50.499999999999844
10
389.26731519724558
20
-64.499999999999858
10
403.26731519724558
20
-64.499999999999858
0
LWPOLYLINE
5
138
100
AcDbEntity
8
0
100
AcDbPolyline
90
4
70
1
43
0.0
10
348.64231519724581
20
-69.499999999999972
10
334.64231519724581
20
-69.499999999999972
10
334.64231519724581
20
-83.499999999999957
10
348.64231519724581
20
-83.499999999999929
0
LWPOLYLINE
5
139
100
AcDbEntity
8
0
100
AcDbPolyline
90
4
70
1
43
0.0
10
258.64231519724581
20
-83.499999999999957
10
272.64231519724581
20
-83.499999999999929
10
272.64231519724581
20
-69.499999999999972
10
258.64231519724581
20
-69.499999999999972
0
LWPOLYLINE
5
140
100
AcDbEntity
8
0
100
AcDbPolyline
90
4
70
1
43
0.0
10
370.01731519724581
20
-88.500000000000114
10
356.01731519724581
20
-88.500000000000114
10
356.01731519724581
20
-102.50000000000013
10
370.01731519724581
20
-102.50000000000013
0
LWPOLYLINE
5
141
100
AcDbEntity
8
0
100
AcDbPolyline
90
4
70
1
43
0.0
10
261.62326060784216
20
-117.66797964433724
10
256.83497860128273
20
-104.51228295333451
10
243.67928191028
20
-109.30056495989396
10
248.46756391683937
20
-122.45626165089664
0
CIRCLE
5
142
100
AcDbEntity
8
0
100
AcDbCircle
10
239.47500000000119
20
-9
30
0
40
1.0500000000000043
210
0
220
0
230
1
0
CIRCLE
5
143
100
AcDbEntity
8
0
100
AcDbCircle
10
442.39231519724581
20
-8.9999999999999858
30
0
40
1.05
210
0
220
0
230
1
0
CIRCLE
5
144
100
AcDbEntity
8
0
100
AcDbCircle
10
442.39231519724581
20
-111.00000000000011
30
0
40
1.05
210
0
220
0
230
1
0
CIRCLE
5
145
100
AcDbEntity
8
0
100
AcDbCircle
10
239.47500000000119
20
-126.66054356117561
30
0
40
1.05
210
0
220
0
230
1
0
CIRCLE
5
146
100
AcDbEntity
8
0
100
AcDbCircle
10
383.20481519724558
20
-57.499999999999915
30
0
40
1.05
210
0
220
0
230
1
0
LINE
5
147
100
AcDbEntity
8
0
100
AcDbLine
10
389.26731519724558
20
-57.499999999999851
30
0
11
383.20481519724558
21
-57.499999999999915
31
0
0
LINE
5
148
100
AcDbEntity
8
0
100
AcDbLine
10
383.20481519724558
20
-57.499999999999915
30
0
11
377.14231519724569
21
-57.499999999999915
31
0
0
LWPOLYLINE
5
149
100
AcDbEntity
8
0
100
AcDbPolyline
90
4
70
1
43
0.0
10
424.89231519724581
20
-69.499999999999972
10
424.89231519724581
20
-83.499999999999943
10
438.89231519724581
20
-83.499999999999943
10
438.89231519724581
20
-69.499999999999972
0
LWPOLYLINE
5
150
100
AcDbEntity
8
0
100
AcDbPolyline
90
4
70
1
43
0.0
10
438.89231519724581
20
-64.499999999999858
10
438.89231519724581
20
-50.499999999999844
10
424.89231519724581
20
-50.499999999999844
10
424.89231519724581
20
-64.499999999999858
0
ENDSEC
0
SECTION
2
OBJECTS
0
DICTIONARY
5
C
100
AcDbDictionary
3
ACAD_GROUP
350
D
3
ACAD_MLINESTYLE
350
17
0
DICTIONARY
5
D
100
AcDbDictionary
0
DICTIONARY
5
1A
330
C
100
AcDbDictionary
0
DICTIONARY
5
17
100
AcDbDictionary
0
ENDSEC
0
EOF
