999
FreeCAD v0.20 29410 (Git)
  0
SECTION
  2
HEADER
  9
$ACADVER
  1
AC1014
  9
$ACADMAINTVER
 70
     9
  9
$DWGCODEPAGE
  3
ANSI_1252
  9
$TEXTSTYLE
  7
STANDARD
  9
$DIMSTYLE
  2
STANDARD
  9
$DIMTXSTY
  7
STANDARD
  9
$CMLSTYLE
  2
STANDARD
  9
$LUNITS
 70
2
  9
$INSUNITS
 70
4
  9
$PEXTMAX
 10
50
 20
50
 30
50
  9
$PEXTMIN
 10
0
 20
0
 30
0
  9
$HANDSEED
  5
FFFF
  0
ENDSEC
  0
SECTION
  2
CLASSES
  0
CLASS
  1
ACDBDICTIONARYWDFLT
  2
AcDbDictionaryWithDefault
  3
ObjectDBX Classes
 90
        0
280
     0
281
     0
  0
CLASS
  1
XRECORD
  2
AcDbXrecord
  3
ObjectDBX Classes
 90
        0
280
     0
281
     0
  0
CLASS
  1
LWPOLYLINE
  2
AcDbPolyline
  3
ObjectDBX Classes
 90
        0
280
     0
281
     1
  0
ENDSEC
  0
SECTION
  2
TABLES
  0
TABLE
  2
VPORT
  5
20
330
0
100
AcDbSymbolTable
 70
     1
  0
VPORT
  5
21
330
20
100
AcDbSymbolTableRecord
100
AcDbViewportTableRecord
  2
*ACTIVE
 70
     0
  0
ENDTAB
  0
TABLE
  2
LTYPE
  5
22
330
0
100
AcDbSymbolTable
 70
     1
  0
LTYPE
  5
23
330
21
100
AcDbSymbolTableRecord
100
AcDbLinetypeTableRecord
  2
BYBLOCK
 70
     0
  3

 72
    65
 73
     0
 40
0.0
  0
LTYPE
  5
24
330
21
100
AcDbSymbolTableRecord
100
AcDbLinetypeTableRecord
  2
BYLAYER
 70
     0
  3

 72
    65
 73
     0
 40
0.0
  0
LTYPE
  5
25
330
21
100
AcDbSymbolTableRecord
100
AcDbLinetypeTableRecord
  2
CONTINUOUS
 70
     0
  3
Solid line
 72
    65
 73
     0
 40
0.0
  0
ENDTAB
  0
TABLE
  2
LAYER
  5
AC2
330
0
100
AcDbSymbolTable
 70
3
  0
LAYER
  5
AC3
330
AC2
100
AcDbSymbolTableRecord
100
AcDbLayerTableRecord
  2
0
 70
   0
 62
   7
  6
CONTINUOUS
  0
LAYER
  5
AC4
330
AC2
100
AcDbSymbolTableRecord
100
AcDbLayerTableRecord
  2
none
 70
    0
 62
    7
  6
CONTINUOUS
  0
LAYER
  5
AC5
330
AC2
100
AcDbSymbolTableRecord
100
AcDbLayerTableRecord
  2
Sketch001
 70
    0
 62
    7
  6
CONTINUOUS
  0
ENDTAB
  0
TABLE
  2
STYLE
  5
70
330
0
100
AcDbSymbolTable
 70
     2
  0
STYLE
  5
71
330
70
100
AcDbSymbolTableRecord
100
AcDbTextStyleTableRecord
  2
STANDARD
 70
     0
 40
0.0
 41
1.0
 50
0.0
 71
     0
 42
2.5
  3
arial.ttf
  4

  0
STYLE
  5
72
330
70
100
AcDbSymbolTableRecord
100
AcDbTextStyleTableRecord
  2
ANNOTATIVE
 70
     0
 40
0.0
 41
1.0
 50
0.0
 71
     0
 42
2.5
  3
arial.ttf
  4

  0
ENDTAB
  0
TABLE
  2
VIEW
  5
73
330
0
100
AcDbSymbolTable
 70
     0
  0
ENDTAB
  0
TABLE
  2
UCS
  5
74
330
0
100
AcDbSymbolTable
 70
     0
  0
ENDTAB
  0
TABLE
  2
APPID
  5
75
330
0
100
AcDbSymbolTable
 70
     2
  0
APPID
  5
76
330
75
100
AcDbSymbolTableRecord
100
AcDbRegAppTableRecord
  2
ACAD
 70
     0
  0
APPID
  5
77
330
75
100
AcDbSymbolTableRecord
100
AcDbRegAppTableRecord
  2
ACADANNOTATIVE
 70
     0
  0
ENDTAB
  0
TABLE
  2
DIMSTYLE
  5
78
330
0
100
AcDbSymbolTable
 70
     2
  0
DIMSTYLE
105
79
330
78
100
AcDbSymbolTableRecord
100
AcDbDimStyleTableRecord
  2
STANDARD
 70
     0
  3

  4

  5

  6

  7

 40
0.0
 41
2.5
 42
0.625
 43
3.75
 44
1.25
 45
0.0
 46
0.0
 47
0.0
 48
0.0
140
2.5
141
2.5
142
0.0
143
0.03937007874016
144
1.0
145
0.0
146
1.0
147
0.625
 71
     0
 72
     0
 73
     0
 74
     0
 75
     0
 76
     0
 77
     1
 78
     8
170
     0
171
     3
172
     1
173
     0
174
     0
175
     0
176
     0
177
     0
178
     0
270
     2
271
     2
272
     2
273
     2
274
     3
340
71
275
     0
280
     0
281
     0
282
     0
283
     0
284
     8
285
     0
286
     0
287
     3
288
     0
  0
ENDTAB
  0
TABLE
  2
BLOCK_RECORD
  5
A01
330
0
100
AcDbSymbolTable
  70
5
  0
BLOCK_RECORD
  5
A02
330
A01
100
AcDbSymbolTableRecord
100
AcDbBlockTableRecord
  2
*MODEL_SPACE
  0
BLOCK_RECORD
  5
A03
330
A01
100
AcDbSymbolTableRecord
100
AcDbBlockTableRecord
  2
*PAPER_SPACE
  0
ENDTAB
  0
ENDSEC
  0
SECTION
  2
BLOCKS
  0
BLOCK
  5
A04
330
A02
100
AcDbEntity
  8
0
100
AcDbBlockBegin
  2
*MODEL_SPACE
 70
   0
 10
0
 20
0
 30
0
  3
*MODEL_SPACE
  1
 
  0
ENDBLK
  5
A05
330
A02
100
AcDbEntity
  8
0
100
AcDbBlockEnd
  0
BLOCK
  5
A06
330
A03
100
AcDbEntity
 67
1
  8
0
100
AcDbBlockBegin
  2
*PAPER_SPACE
 70
   0
 10
0
 20
0
 30
0
  3
*PAPER_SPACE
  1
 
  0
ENDBLK
  5
A07
330
A03
100
AcDbEntity
 67
    1
  8
0
100
AcDbBlockEnd
  0
ENDSEC
  0
SECTION
  2
ENTITIES
  0
LINE
  5
A08
330
A02
100
AcDbEntity
  8
Sketch001
100
AcDbLine
 10
62.1
 20
-88.5
 30
0
 11
48.1
 21
-88.5
 31
0
  0
LINE
  5
A09
330
A02
100
AcDbEntity
  8
Sketch001
100
AcDbLine
 10
48.1
 20
-88.5
 30
0
 11
48.1
 21
-102.5
 31
0
  0
LINE
  5
A0A
330
A02
100
AcDbEntity
  8
Sketch001
100
AcDbLine
 10
48.1
 20
-102.5
 30
0
 11
62.1
 21
-102.5
 31
0
  0
LINE
  5
A0B
330
A02
100
AcDbEntity
  8
Sketch001
100
AcDbLine
 10
62.1
 20
-102.5
 30
0
 11
62.1
 21
-88.5
 31
0
  0
LINE
  5
A0C
330
A02
100
AcDbEntity
  8
Sketch001
100
AcDbLine
 10
170.807
 20
-104.512
 30
0
 11
166.019
 21
-117.668
 31
0
  0
LINE
  5
A0D
330
A02
100
AcDbEntity
  8
Sketch001
100
AcDbLine
 10
166.019
 20
-117.668
 30
0
 11
179.175
 21
-122.456
 31
0
  0
LINE
  5
A0E
330
A02
100
AcDbEntity
  8
Sketch001
100
AcDbLine
 10
179.175
 20
-122.456
 30
0
 11
183.963
 21
-109.301
 31
0
  0
LINE
  5
A0F
330
A02
100
AcDbEntity
  8
Sketch001
100
AcDbLine
 10
183.963
 20
-109.301
 30
0
 11
170.807
 21
-104.512
 31
0
  0
LINE
  5
A10
330
A02
100
AcDbEntity
  8
Sketch001
100
AcDbLine
 10
135.975
 20
-69.5
 30
0
 11
135.975
 21
-83.5
 31
0
  0
LINE
  5
A11
330
A02
100
AcDbEntity
  8
Sketch001
100
AcDbLine
 10
135.975
 20
-83.5
 30
0
 11
149.975
 21
-83.5
 31
0
  0
LINE
  5
A12
330
A02
100
AcDbEntity
  8
Sketch001
100
AcDbLine
 10
149.975
 20
-83.5
 30
0
 11
149.975
 21
-69.5
 31
0
  0
LINE
  5
A13
330
A02
100
AcDbEntity
  8
Sketch001
100
AcDbLine
 10
149.975
 20
-69.5
 30
0
 11
135.975
 21
-69.5
 31
0
  0
LINE
  5
A14
330
A02
100
AcDbEntity
  8
Sketch001
100
AcDbLine
 10
48.125
 20
-70.53
 30
0
 11
46.512
 21
-70.53
 31
0
  0
LINE
  5
A15
330
A02
100
AcDbEntity
  8
Sketch001
100
AcDbLine
 10
46.512
 20
-70.53
 30
0
 11
46.512
 21
-69.73
 31
0
  0
LINE
  5
A16
330
A02
100
AcDbEntity
  8
Sketch001
100
AcDbLine
 10
46.512
 20
-69.73
 30
0
 11
44.687
 21
-69.73
 31
0
  0
LINE
  5
A17
330
A02
100
AcDbEntity
  8
Sketch001
100
AcDbLine
 10
44.687
 20
-69.73
 30
0
 11
44.687
 21
-68.53
 31
0
  0
LINE
  5
A18
330
A02
100
AcDbEntity
  8
Sketch001
100
AcDbLine
 10
44.687
 20
-68.53
 30
0
 11
41.687
 21
-68.53
 31
0
  0
LINE
  5
A19
330
A02
100
AcDbEntity
  8
Sketch001
100
AcDbLine
 10
41.687
 20
-68.53
 30
0
 11
41.687
 21
-69.73
 31
0
  0
LINE
  5
A1A
330
A02
100
AcDbEntity
  8
Sketch001
100
AcDbLine
 10
41.687
 20
-69.73
 30
0
 11
39.862
 21
-69.73
 31
0
  0
LINE
  5
A1B
330
A02
100
AcDbEntity
  8
Sketch001
100
AcDbLine
 10
39.862
 20
-69.73
 30
0
 11
39.862
 21
-76
 31
0
  0
LINE
  5
A1C
330
A02
100
AcDbEntity
  8
Sketch001
100
AcDbLine
 10
39.862
 20
-76
 30
0
 11
38.987
 21
-76
 31
0
  0
LINE
  5
A1D
330
A02
100
AcDbEntity
  8
Sketch001
100
AcDbLine
 10
38.987
 20
-76
 30
0
 11
38.987
 21
-78.8
 31
0
  0
LINE
  5
A1E
330
A02
100
AcDbEntity
  8
Sketch001
100
AcDbLine
 10
38.987
 20
-78.8
 30
0
 11
39.862
 21
-78.8
 31
0
  0
LINE
  5
A1F
330
A02
100
AcDbEntity
  8
Sketch001
100
AcDbLine
 10
39.862
 20
-78.8
 30
0
 11
39.862
 21
-82.03
 31
0
  0
LINE
  5
A20
330
A02
100
AcDbEntity
  8
Sketch001
100
AcDbLine
 10
39.862
 20
-82.03
 30
0
 11
46.512
 21
-82.03
 31
0
  0
LINE
  5
A21
330
A02
100
AcDbEntity
  8
Sketch001
100
AcDbLine
 10
46.512
 20
-82.03
 30
0
 11
46.512
 21
-81.23
 31
0
  0
LINE
  5
A22
330
A02
100
AcDbEntity
  8
Sketch001
100
AcDbLine
 10
46.512
 20
-81.23
 30
0
 11
48.125
 21
-81.23
 31
0
  0
LINE
  5
A23
330
A02
100
AcDbEntity
  8
Sketch001
100
AcDbLine
 10
48.125
 20
-81.23
 30
0
 11
48.125
 21
-83.5
 31
0
  0
LINE
  5
A24
330
A02
100
AcDbEntity
  8
Sketch001
100
AcDbLine
 10
48.125
 20
-83.5
 30
0
 11
62.125
 21
-83.5
 31
0
  0
LINE
  5
A25
330
A02
100
AcDbEntity
  8
Sketch001
100
AcDbLine
 10
62.125
 20
-83.5
 30
0
 11
62.125
 21
-81.23
 31
0
  0
LINE
  5
A26
330
A02
100
AcDbEntity
  8
Sketch001
100
AcDbLine
 10
62.125
 20
-81.23
 30
0
 11
63.738
 21
-81.23
 31
0
  0
LINE
  5
A27
330
A02
100
AcDbEntity
  8
Sketch001
100
AcDbLine
 10
63.738
 20
-81.23
 30
0
 11
63.738
 21
-82.03
 31
0
  0
LINE
  5
A28
330
A02
100
AcDbEntity
  8
Sketch001
100
AcDbLine
 10
63.738
 20
-82.03
 30
0
 11
70.388
 21
-82.03
 31
0
  0
LINE
  5
A29
330
A02
100
AcDbEntity
  8
Sketch001
100
AcDbLine
 10
70.388
 20
-82.03
 30
0
 11
70.388
 21
-78.8
 31
0
  0
LINE
  5
A2A
330
A02
100
AcDbEntity
  8
Sketch001
100
AcDbLine
 10
70.388
 20
-78.8
 30
0
 11
71.263
 21
-78.8
 31
0
  0
LINE
  5
A2B
330
A02
100
AcDbEntity
  8
Sketch001
100
AcDbLine
 10
71.263
 20
-78.8
 30
0
 11
71.263
 21
-76
 31
0
  0
LINE
  5
A2C
330
A02
100
AcDbEntity
  8
Sketch001
100
AcDbLine
 10
71.263
 20
-76
 30
0
 11
70.388
 21
-76
 31
0
  0
LINE
  5
A2D
330
A02
100
AcDbEntity
  8
Sketch001
100
AcDbLine
 10
70.388
 20
-76
 30
0
 11
70.388
 21
-69.73
 31
0
  0
LINE
  5
A2E
330
A02
100
AcDbEntity
  8
Sketch001
100
AcDbLine
 10
70.388
 20
-69.73
 30
0
 11
68.563
 21
-69.73
 31
0
  0
LINE
  5
A2F
330
A02
100
AcDbEntity
  8
Sketch001
100
AcDbLine
 10
68.563
 20
-69.73
 30
0
 11
68.563
 21
-68.53
 31
0
  0
LINE
  5
A30
330
A02
100
AcDbEntity
  8
Sketch001
100
AcDbLine
 10
68.563
 20
-68.53
 30
0
 11
65.563
 21
-68.53
 31
0
  0
LINE
  5
A31
330
A02
100
AcDbEntity
  8
Sketch001
100
AcDbLine
 10
65.563
 20
-68.53
 30
0
 11
65.563
 21
-69.73
 31
0
  0
LINE
  5
A32
330
A02
100
AcDbEntity
  8
Sketch001
100
AcDbLine
 10
65.563
 20
-69.73
 30
0
 11
63.738
 21
-69.73
 31
0
  0
LINE
  5
A33
330
A02
100
AcDbEntity
  8
Sketch001
100
AcDbLine
 10
63.738
 20
-69.73
 30
0
 11
63.738
 21
-70.53
 31
0
  0
LINE
  5
A34
330
A02
100
AcDbEntity
  8
Sketch001
100
AcDbLine
 10
63.738
 20
-70.53
 30
0
 11
62.125
 21
-70.53
 31
0
  0
LINE
  5
A35
330
A02
100
AcDbEntity
  8
Sketch001
100
AcDbLine
 10
62.125
 20
-70.53
 30
0
 11
62.125
 21
-69.5
 31
0
  0
LINE
  5
A36
330
A02
100
AcDbEntity
  8
Sketch001
100
AcDbLine
 10
62.125
 20
-69.5
 30
0
 11
48.125
 21
-69.5
 31
0
  0
LINE
  5
A37
330
A02
100
AcDbEntity
  8
Sketch001
100
AcDbLine
 10
48.125
 20
-69.5
 30
0
 11
48.125
 21
-70.53
 31
0
  0
LINE
  5
A38
330
A02
100
AcDbEntity
  8
Sketch001
100
AcDbLine
 10
121.5
 20
-50.5
 30
0
 11
107.5
 21
-50.5
 31
0
  0
LINE
  5
A39
330
A02
100
AcDbEntity
  8
Sketch001
100
AcDbLine
 10
107.5
 20
-50.5
 30
0
 11
107.5
 21
-64.5
 31
0
  0
LINE
  5
A3A
330
A02
100
AcDbEntity
  8
Sketch001
100
AcDbLine
 10
107.5
 20
-64.5
 30
0
 11
121.5
 21
-64.5
 31
0
  0
LINE
  5
A3B
330
A02
100
AcDbEntity
  8
Sketch001
100
AcDbLine
 10
121.5
 20
-64.5
 30
0
 11
121.5
 21
-50.5
 31
0
  0
LINE
  5
A3C
330
A02
100
AcDbEntity
  8
Sketch001
100
AcDbLine
 10
173.75
 20
-45.5
 30
0
 11
173.75
 21
-31.5
 31
0
  0
LINE
  5
A3D
330
A02
100
AcDbEntity
  8
Sketch001
100
AcDbLine
 10
173.75
 20
-31.5
 30
0
 11
159.75
 21
-31.5
 31
0
  0
LINE
  5
A3E
330
A02
100
AcDbEntity
  8
Sketch001
100
AcDbLine
 10
159.75
 20
-31.5
 30
0
 11
159.75
 21
-45.5
 31
0
  0
LINE
  5
A3F
330
A02
100
AcDbEntity
  8
Sketch001
100
AcDbLine
 10
159.75
 20
-45.5
 30
0
 11
173.75
 21
-45.5
 31
0
  0
LINE
  5
A40
330
A02
100
AcDbEntity
  8
Sketch001
100
AcDbLine
 10
83.75
 20
-45.5
 30
0
 11
97.75
 21
-45.5
 31
0
  0
LINE
  5
A41
330
A02
100
AcDbEntity
  8
Sketch001
100
AcDbLine
 10
97.75
 20
-45.5
 30
0
 11
97.75
 21
-31.5
 31
0
  0
LINE
  5
A42
330
A02
100
AcDbEntity
  8
Sketch001
100
AcDbLine
 10
97.75
 20
-31.5
 30
0
 11
83.75
 21
-31.5
 31
0
  0
LINE
  5
A43
330
A02
100
AcDbEntity
  8
Sketch001
100
AcDbLine
 10
83.75
 20
-31.5
 30
0
 11
83.75
 21
-45.5
 31
0
  0
LINE
  5
A44
330
A02
100
AcDbEntity
  8
Sketch001
100
AcDbLine
 10
69.25
 20
-12.5
 30
0
 11
55.25
 21
-12.5
 31
0
  0
LINE
  5
A45
330
A02
100
AcDbEntity
  8
Sketch001
100
AcDbLine
 10
55.25
 20
-12.5
 30
0
 11
55.25
 21
-26.5
 31
0
  0
LINE
  5
A46
330
A02
100
AcDbEntity
  8
Sketch001
100
AcDbLine
 10
55.25
 20
-26.5
 30
0
 11
69.25
 21
-26.5
 31
0
  0
LINE
  5
A47
330
A02
100
AcDbEntity
  8
Sketch001
100
AcDbLine
 10
69.25
 20
-26.5
 30
0
 11
69.25
 21
-12.5
 31
0
  0
LINE
  5
A48
330
A02
100
AcDbEntity
  8
Sketch001
100
AcDbLine
 10
131.25
 20
-12.5
 30
0
 11
131.25
 21
-26.5
 31
0
  0
LINE
  5
A49
330
A02
100
AcDbEntity
  8
Sketch001
100
AcDbLine
 10
131.25
 20
-26.5
 30
0
 11
145.25
 21
-26.5
 31
0
  0
LINE
  5
A4A
330
A02
100
AcDbEntity
  8
Sketch001
100
AcDbLine
 10
145.25
 20
-26.5
 30
0
 11
145.25
 21
-12.5
 31
0
  0
LINE
  5
A4B
330
A02
100
AcDbEntity
  8
Sketch001
100
AcDbLine
 10
145.25
 20
-12.5
 30
0
 11
131.25
 21
-12.5
 31
0
  0
LINE
  5
A4C
330
A02
100
AcDbEntity
  8
Sketch001
100
AcDbLine
 10
112.25
 20
-12.5
 30
0
 11
112.25
 21
-26.5
 31
0
  0
LINE
  5
A4D
330
A02
100
AcDbEntity
  8
Sketch001
100
AcDbLine
 10
112.25
 20
-26.5
 30
0
 11
126.25
 21
-26.5
 31
0
  0
LINE
  5
A4E
330
A02
100
AcDbEntity
  8
Sketch001
100
AcDbLine
 10
126.25
 20
-26.5
 30
0
 11
126.25
 21
-12.5
 31
0
  0
LINE
  5
A4F
330
A02
100
AcDbEntity
  8
Sketch001
100
AcDbLine
 10
126.25
 20
-12.5
 30
0
 11
112.25
 21
-12.5
 31
0
  0
LINE
  5
A50
330
A02
100
AcDbEntity
  8
Sketch001
100
AcDbLine
 10
50.25
 20
-12.5
 30
0
 11
36.25
 21
-12.5
 31
0
  0
LINE
  5
A51
330
A02
100
AcDbEntity
  8
Sketch001
100
AcDbLine
 10
36.25
 20
-12.5
 30
0
 11
36.25
 21
-26.5
 31
0
  0
LINE
  5
A52
330
A02
100
AcDbEntity
  8
Sketch001
100
AcDbLine
 10
36.25
 20
-26.5
 30
0
 11
50.25
 21
-26.5
 31
0
  0
LINE
  5
A53
330
A02
100
AcDbEntity
  8
Sketch001
100
AcDbLine
 10
50.25
 20
-26.5
 30
0
 11
50.25
 21
-12.5
 31
0
  0
LINE
  5
A54
330
A02
100
AcDbEntity
  8
Sketch001
100
AcDbLine
 10
102.75
 20
-31.5
 30
0
 11
102.75
 21
-45.5
 31
0
  0
LINE
  5
A55
330
A02
100
AcDbEntity
  8
Sketch001
100
AcDbLine
 10
102.75
 20
-45.5
 30
0
 11
116.75
 21
-45.5
 31
0
  0
LINE
  5
A56
330
A02
100
AcDbEntity
  8
Sketch001
100
AcDbLine
 10
116.75
 20
-45.5
 30
0
 11
116.75
 21
-31.5
 31
0
  0
LINE
  5
A57
330
A02
100
AcDbEntity
  8
Sketch001
100
AcDbLine
 10
116.75
 20
-31.5
 30
0
 11
102.75
 21
-31.5
 31
0
  0
LINE
  5
A58
330
A02
100
AcDbEntity
  8
Sketch001
100
AcDbLine
 10
178.5
 20
-64.5
 30
0
 11
178.5
 21
-50.5
 31
0
  0
LINE
  5
A59
330
A02
100
AcDbEntity
  8
Sketch001
100
AcDbLine
 10
178.5
 20
-50.5
 30
0
 11
164.5
 21
-50.5
 31
0
  0
LINE
  5
A5A
330
A02
100
AcDbEntity
  8
Sketch001
100
AcDbLine
 10
164.5
 20
-50.5
 30
0
 11
164.5
 21
-64.5
 31
0
  0
LINE
  5
A5B
330
A02
100
AcDbEntity
  8
Sketch001
100
AcDbLine
 10
164.5
 20
-64.5
 30
0
 11
178.5
 21
-64.5
 31
0
  0
LINE
  5
A5C
330
A02
100
AcDbEntity
  8
Sketch001
100
AcDbLine
 10
102.5
 20
-50.5
 30
0
 11
88.5
 21
-50.5
 31
0
  0
LINE
  5
A5D
330
A02
100
AcDbEntity
  8
Sketch001
100
AcDbLine
 10
88.5
 20
-50.5
 30
0
 11
88.5
 21
-64.5
 31
0
  0
LINE
  5
A5E
330
A02
100
AcDbEntity
  8
Sketch001
100
AcDbLine
 10
88.5
 20
-64.5
 30
0
 11
102.5
 21
-64.5
 31
0
  0
LINE
  5
A5F
330
A02
100
AcDbEntity
  8
Sketch001
100
AcDbLine
 10
102.5
 20
-64.5
 30
0
 11
102.5
 21
-50.5
 31
0
  0
LINE
  5
A60
330
A02
100
AcDbEntity
  8
Sketch001
100
AcDbLine
 10
78.975
 20
-83.5
 30
0
 11
92.975
 21
-83.5
 31
0
  0
LINE
  5
A61
330
A02
100
AcDbEntity
  8
Sketch001
100
AcDbLine
 10
92.975
 20
-83.5
 30
0
 11
92.975
 21
-69.5
 31
0
  0
LINE
  5
A62
330
A02
100
AcDbEntity
  8
Sketch001
100
AcDbLine
 10
92.975
 20
-69.5
 30
0
 11
78.975
 21
-69.5
 31
0
  0
LINE
  5
A63
330
A02
100
AcDbEntity
  8
Sketch001
100
AcDbLine
 10
78.975
 20
-69.5
 30
0
 11
78.975
 21
-83.5
 31
0
  0
LINE
  5
A64
330
A02
100
AcDbEntity
  8
Sketch001
100
AcDbLine
 10
168.975
 20
-83.5
 30
0
 11
168.975
 21
-69.5
 31
0
  0
LINE
  5
A65
330
A02
100
AcDbEntity
  8
Sketch001
100
AcDbLine
 10
168.975
 20
-69.5
 30
0
 11
154.975
 21
-69.5
 31
0
  0
LINE
  5
A66
330
A02
100
AcDbEntity
  8
Sketch001
100
AcDbLine
 10
154.975
 20
-69.5
 30
0
 11
154.975
 21
-83.5
 31
0
  0
LINE
  5
A67
330
A02
100
AcDbEntity
  8
Sketch001
100
AcDbLine
 10
154.975
 20
-83.5
 30
0
 11
168.975
 21
-83.5
 31
0
  0
LINE
  5
A68
330
A02
100
AcDbEntity
  8
Sketch001
100
AcDbLine
 10
128.875
 20
-88.5
 30
0
 11
128.875
 21
-102.5
 31
0
  0
LINE
  5
A69
330
A02
100
AcDbEntity
  8
Sketch001
100
AcDbLine
 10
128.875
 20
-102.5
 30
0
 11
142.875
 21
-102.5
 31
0
  0
LINE
  5
A6A
330
A02
100
AcDbEntity
  8
Sketch001
100
AcDbLine
 10
142.875
 20
-102.5
 30
0
 11
142.875
 21
-88.5
 31
0
  0
LINE
  5
A6B
330
A02
100
AcDbEntity
  8
Sketch001
100
AcDbLine
 10
142.875
 20
-88.5
 30
0
 11
128.875
 21
-88.5
 31
0
  0
LINE
  5
A6C
330
A02
100
AcDbEntity
  8
Sketch001
100
AcDbLine
 10
71.85
 20
-102.5
 30
0
 11
85.85
 21
-102.5
 31
0
  0
LINE
  5
A6D
330
A02
100
AcDbEntity
  8
Sketch001
100
AcDbLine
 10
85.85
 20
-102.5
 30
0
 11
85.85
 21
-88.5
 31
0
  0
LINE
  5
A6E
330
A02
100
AcDbEntity
  8
Sketch001
100
AcDbLine
 10
85.85
 20
-88.5
 30
0
 11
71.85
 21
-88.5
 31
0
  0
LINE
  5
A6F
330
A02
100
AcDbEntity
  8
Sketch001
100
AcDbLine
 10
71.85
 20
-88.5
 30
0
 11
71.85
 21
-102.5
 31
0
  0
LINE
  5
A70
330
A02
100
AcDbEntity
  8
Sketch001
100
AcDbLine
 10
168.503
 20
-96.2243
 30
0
 11
155.347
 21
-91.4361
 31
0
  0
LINE
  5
A71
330
A02
100
AcDbEntity
  8
Sketch001
100
AcDbLine
 10
155.347
 20
-91.4361
 30
0
 11
150.559
 21
-104.592
 31
0
  0
LINE
  5
A72
330
A02
100
AcDbEntity
  8
Sketch001
100
AcDbLine
 10
150.559
 20
-104.592
 30
0
 11
163.715
 21
-109.38
 31
0
  0
LINE
  5
A73
330
A02
100
AcDbEntity
  8
Sketch001
100
AcDbLine
 10
163.715
 20
-109.38
 30
0
 11
168.503
 21
-96.2243
 31
0
  0
LINE
  5
A74
330
A02
100
AcDbEntity
  8
Sketch001
100
AcDbLine
 10
116.975
 20
-69.5
 30
0
 11
116.975
 21
-83.5
 31
0
  0
LINE
  5
A75
330
A02
100
AcDbEntity
  8
Sketch001
100
AcDbLine
 10
116.975
 20
-83.5
 30
0
 11
130.975
 21
-83.5
 31
0
  0
LINE
  5
A76
330
A02
100
AcDbEntity
  8
Sketch001
100
AcDbLine
 10
130.975
 20
-83.5
 30
0
 11
130.975
 21
-69.5
 31
0
  0
LINE
  5
A77
330
A02
100
AcDbEntity
  8
Sketch001
100
AcDbLine
 10
130.975
 20
-69.5
 30
0
 11
116.975
 21
-69.5
 31
0
  0
LINE
  5
A78
330
A02
100
AcDbEntity
  8
Sketch001
100
AcDbLine
 10
43.375
 20
-64.5
 30
0
 11
57.375
 21
-64.5
 31
0
  0
LINE
  5
A79
330
A02
100
AcDbEntity
  8
Sketch001
100
AcDbLine
 10
57.375
 20
-64.5
 30
0
 11
57.375
 21
-50.5
 31
0
  0
LINE
  5
A7A
330
A02
100
AcDbEntity
  8
Sketch001
100
AcDbLine
 10
57.375
 20
-50.5
 30
0
 11
43.375
 21
-50.5
 31
0
  0
LINE
  5
A7B
330
A02
100
AcDbEntity
  8
Sketch001
100
AcDbLine
 10
43.375
 20
-50.5
 30
0
 11
43.375
 21
-64.5
 31
0
  0
LINE
  5
A7C
330
A02
100
AcDbEntity
  8
Sketch001
100
AcDbLine
 10
126.5
 20
-64.5
 30
0
 11
140.5
 21
-64.5
 31
0
  0
LINE
  5
A7D
330
A02
100
AcDbEntity
  8
Sketch001
100
AcDbLine
 10
140.5
 20
-64.5
 30
0
 11
140.5
 21
-50.5
 31
0
  0
LINE
  5
A7E
330
A02
100
AcDbEntity
  8
Sketch001
100
AcDbLine
 10
140.5
 20
-50.5
 30
0
 11
126.5
 21
-50.5
 31
0
  0
LINE
  5
A7F
330
A02
100
AcDbEntity
  8
Sketch001
100
AcDbLine
 10
126.5
 20
-50.5
 30
0
 11
126.5
 21
-64.5
 31
0
  0
LINE
  5
A80
330
A02
100
AcDbEntity
  8
Sketch001
100
AcDbLine
 10
154.75
 20
-31.5
 30
0
 11
140.75
 21
-31.5
 31
0
  0
LINE
  5
A81
330
A02
100
AcDbEntity
  8
Sketch001
100
AcDbLine
 10
140.75
 20
-31.5
 30
0
 11
140.75
 21
-45.5
 31
0
  0
LINE
  5
A82
330
A02
100
AcDbEntity
  8
Sketch001
100
AcDbLine
 10
140.75
 20
-45.5
 30
0
 11
154.75
 21
-45.5
 31
0
  0
LINE
  5
A83
330
A02
100
AcDbEntity
  8
Sketch001
100
AcDbLine
 10
154.75
 20
-45.5
 30
0
 11
154.75
 21
-31.5
 31
0
  0
LINE
  5
A84
330
A02
100
AcDbEntity
  8
Sketch001
100
AcDbLine
 10
78.75
 20
-45.5
 30
0
 11
78.75
 21
-31.5
 31
0
  0
LINE
  5
A85
330
A02
100
AcDbEntity
  8
Sketch001
100
AcDbLine
 10
78.75
 20
-31.5
 30
0
 11
64.75
 21
-31.5
 31
0
  0
LINE
  5
A86
330
A02
100
AcDbEntity
  8
Sketch001
100
AcDbLine
 10
64.75
 20
-31.5
 30
0
 11
64.75
 21
-45.5
 31
0
  0
LINE
  5
A87
330
A02
100
AcDbEntity
  8
Sketch001
100
AcDbLine
 10
64.75
 20
-45.5
 30
0
 11
78.75
 21
-45.5
 31
0
  0
LINE
  5
A88
330
A02
100
AcDbEntity
  8
Sketch001
100
AcDbLine
 10
74.25
 20
-26.5
 30
0
 11
88.25
 21
-26.5
 31
0
  0
LINE
  5
A89
330
A02
100
AcDbEntity
  8
Sketch001
100
AcDbLine
 10
88.25
 20
-26.5
 30
0
 11
88.25
 21
-12.5
 31
0
  0
LINE
  5
A8A
330
A02
100
AcDbEntity
  8
Sketch001
100
AcDbLine
 10
88.25
 20
-12.5
 30
0
 11
74.25
 21
-12.5
 31
0
  0
LINE
  5
A8B
330
A02
100
AcDbEntity
  8
Sketch001
100
AcDbLine
 10
74.25
 20
-12.5
 30
0
 11
74.25
 21
-26.5
 31
0
  0
LINE
  5
A8C
330
A02
100
AcDbEntity
  8
Sketch001
100
AcDbLine
 10
150.25
 20
-26.5
 30
0
 11
164.25
 21
-26.5
 31
0
  0
LINE
  5
A8D
330
A02
100
AcDbEntity
  8
Sketch001
100
AcDbLine
 10
164.25
 20
-26.5
 30
0
 11
164.25
 21
-12.5
 31
0
  0
LINE
  5
A8E
330
A02
100
AcDbEntity
  8
Sketch001
100
AcDbLine
 10
164.25
 20
-12.5
 30
0
 11
150.25
 21
-12.5
 31
0
  0
LINE
  5
A8F
330
A02
100
AcDbEntity
  8
Sketch001
100
AcDbLine
 10
150.25
 20
-12.5
 30
0
 11
150.25
 21
-26.5
 31
0
  0
LINE
  5
A90
330
A02
100
AcDbEntity
  8
Sketch001
100
AcDbLine
 10
93.25
 20
-12.5
 30
0
 11
93.25
 21
-26.5
 31
0
  0
LINE
  5
A91
330
A02
100
AcDbEntity
  8
Sketch001
100
AcDbLine
 10
93.25
 20
-26.5
 30
0
 11
107.25
 21
-26.5
 31
0
  0
LINE
  5
A92
330
A02
100
AcDbEntity
  8
Sketch001
100
AcDbLine
 10
107.25
 20
-26.5
 30
0
 11
107.25
 21
-12.5
 31
0
  0
LINE
  5
A93
330
A02
100
AcDbEntity
  8
Sketch001
100
AcDbLine
 10
107.25
 20
-12.5
 30
0
 11
93.25
 21
-12.5
 31
0
  0
LINE
  5
A94
330
A02
100
AcDbEntity
  8
Sketch001
100
AcDbLine
 10
55
 20
-31.5
 30
0
 11
41
 21
-31.5
 31
0
  0
LINE
  5
A95
330
A02
100
AcDbEntity
  8
Sketch001
100
AcDbLine
 10
41
 20
-31.5
 30
0
 11
41
 21
-45.5
 31
0
  0
LINE
  5
A96
330
A02
100
AcDbEntity
  8
Sketch001
100
AcDbLine
 10
41
 20
-45.5
 30
0
 11
55
 21
-45.5
 31
0
  0
LINE
  5
A97
330
A02
100
AcDbEntity
  8
Sketch001
100
AcDbLine
 10
55
 20
-45.5
 30
0
 11
55
 21
-31.5
 31
0
  0
LINE
  5
A98
330
A02
100
AcDbEntity
  8
Sketch001
100
AcDbLine
 10
135.75
 20
-31.5
 30
0
 11
121.75
 21
-31.5
 31
0
  0
LINE
  5
A99
330
A02
100
AcDbEntity
  8
Sketch001
100
AcDbLine
 10
121.75
 20
-31.5
 30
0
 11
121.75
 21
-45.5
 31
0
  0
LINE
  5
A9A
330
A02
100
AcDbEntity
  8
Sketch001
100
AcDbLine
 10
121.75
 20
-45.5
 30
0
 11
135.75
 21
-45.5
 31
0
  0
LINE
  5
A9B
330
A02
100
AcDbEntity
  8
Sketch001
100
AcDbLine
 10
135.75
 20
-45.5
 30
0
 11
135.75
 21
-31.5
 31
0
  0
LINE
  5
A9C
330
A02
100
AcDbEntity
  8
Sketch001
100
AcDbLine
 10
159.5
 20
-50.5
 30
0
 11
145.5
 21
-50.5
 31
0
  0
LINE
  5
A9D
330
A02
100
AcDbEntity
  8
Sketch001
100
AcDbLine
 10
145.5
 20
-50.5
 30
0
 11
145.5
 21
-64.5
 31
0
  0
LINE
  5
A9E
330
A02
100
AcDbEntity
  8
Sketch001
100
AcDbLine
 10
145.5
 20
-64.5
 30
0
 11
159.5
 21
-64.5
 31
0
  0
LINE
  5
A9F
330
A02
100
AcDbEntity
  8
Sketch001
100
AcDbLine
 10
159.5
 20
-64.5
 30
0
 11
159.5
 21
-50.5
 31
0
  0
LINE
  5
AA0
330
A02
100
AcDbEntity
  8
Sketch001
100
AcDbLine
 10
83.5
 20
-50.5
 30
0
 11
69.5
 21
-50.5
 31
0
  0
LINE
  5
AA1
330
A02
100
AcDbEntity
  8
Sketch001
100
AcDbLine
 10
69.5
 20
-50.5
 30
0
 11
69.5
 21
-64.5
 31
0
  0
LINE
  5
AA2
330
A02
100
AcDbEntity
  8
Sketch001
100
AcDbLine
 10
69.5
 20
-64.5
 30
0
 11
83.5
 21
-64.5
 31
0
  0
LINE
  5
AA3
330
A02
100
AcDbEntity
  8
Sketch001
100
AcDbLine
 10
83.5
 20
-64.5
 30
0
 11
83.5
 21
-50.5
 31
0
  0
LINE
  5
AA4
330
A02
100
AcDbEntity
  8
Sketch001
100
AcDbLine
 10
111.975
 20
-83.5
 30
0
 11
111.975
 21
-69.5
 31
0
  0
LINE
  5
AA5
330
A02
100
AcDbEntity
  8
Sketch001
100
AcDbLine
 10
111.975
 20
-69.5
 30
0
 11
97.975
 21
-69.5
 31
0
  0
LINE
  5
AA6
330
A02
100
AcDbEntity
  8
Sketch001
100
AcDbLine
 10
97.975
 20
-69.5
 30
0
 11
97.975
 21
-83.5
 31
0
  0
LINE
  5
AA7
330
A02
100
AcDbEntity
  8
Sketch001
100
AcDbLine
 10
97.975
 20
-83.5
 30
0
 11
111.975
 21
-83.5
 31
0
  0
LINE
  5
AA8
330
A02
100
AcDbEntity
  8
Sketch001
100
AcDbLine
 10
187.975
 20
-69.5
 30
0
 11
173.975
 21
-69.5
 31
0
  0
LINE
  5
AA9
330
A02
100
AcDbEntity
  8
Sketch001
100
AcDbLine
 10
173.975
 20
-69.5
 30
0
 11
173.975
 21
-83.5
 31
0
  0
LINE
  5
AAA
330
A02
100
AcDbEntity
  8
Sketch001
100
AcDbLine
 10
173.975
 20
-83.5
 30
0
 11
187.975
 21
-83.5
 31
0
  0
LINE
  5
AAB
330
A02
100
AcDbEntity
  8
Sketch001
100
AcDbLine
 10
187.975
 20
-83.5
 30
0
 11
187.975
 21
-69.5
 31
0
  0
LINE
  5
AAC
330
A02
100
AcDbEntity
  8
Sketch001
100
AcDbLine
 10
109.6
 20
-102.5
 30
0
 11
109.6
 21
-88.5
 31
0
  0
LINE
  5
AAD
330
A02
100
AcDbEntity
  8
Sketch001
100
AcDbLine
 10
109.6
 20
-88.5
 30
0
 11
95.6
 21
-88.5
 31
0
  0
LINE
  5
AAE
330
A02
100
AcDbEntity
  8
Sketch001
100
AcDbLine
 10
95.6
 20
-88.5
 30
0
 11
95.6
 21
-102.5
 31
0
  0
LINE
  5
AAF
330
A02
100
AcDbEntity
  8
Sketch001
100
AcDbLine
 10
95.6
 20
-102.5
 30
0
 11
109.6
 21
-102.5
 31
0
  0
LINE
  5
AB0
330
A02
100
AcDbEntity
  8
Sketch001
100
AcDbLine
 10
145.139
 20
-121.154
 30
0
 11
134.331
 21
-109.507
 31
0
  0
ARC
  5
AB1
330
A02
100
AcDbEntity
  8
Sketch001
100
AcDbCircle
 10
124
 20
-119.094
 30
0
 40
14.0937
100
AcDbArc
 50
42.8607
 51
90
  0
LINE
  5
AB2
330
A02
100
AcDbEntity
  8
Sketch001
100
AcDbLine
 10
124
 20
-105
 30
0
 11
33.75
 21
-105
 31
0
  0
LINE
  5
AB3
330
A02
100
AcDbEntity
  8
Sketch001
100
AcDbLine
 10
33.75
 20
-105
 30
0
 11
33.75
 21
-10
 31
0
  0
LINE
  5
AB4
330
A02
100
AcDbEntity
  8
Sketch001
100
AcDbLine
 10
33.75
 20
-10
 30
0
 11
166.75
 21
-10
 31
0
  0
LINE
  5
AB5
330
A02
100
AcDbEntity
  8
Sketch001
100
AcDbLine
 10
166.75
 20
-10
 30
0
 11
166.75
 21
-29
 31
0
  0
LINE
  5
AB6
330
A02
100
AcDbEntity
  8
Sketch001
100
AcDbLine
 10
166.75
 20
-29
 30
0
 11
176.25
 21
-29
 31
0
  0
LINE
  5
AB7
330
A02
100
AcDbEntity
  8
Sketch001
100
AcDbLine
 10
176.25
 20
-29
 30
0
 11
176.25
 21
-48
 31
0
  0
LINE
  5
AB8
330
A02
100
AcDbEntity
  8
Sketch001
100
AcDbLine
 10
176.25
 20
-48
 30
0
 11
181
 21
-48
 31
0
  0
LINE
  5
AB9
330
A02
100
AcDbEntity
  8
Sketch001
100
AcDbLine
 10
181
 20
-48
 30
0
 11
181
 21
-67
 31
0
  0
LINE
  5
ABA
330
A02
100
AcDbEntity
  8
Sketch001
100
AcDbLine
 10
181
 20
-67
 30
0
 11
190.475
 21
-67
 31
0
  0
LINE
  5
ABB
330
A02
100
AcDbEntity
  8
Sketch001
100
AcDbLine
 10
190.475
 20
-86
 30
0
 11
190.475
 21
-67
 31
0
  0
LINE
  5
ABC
330
A02
100
AcDbEntity
  8
Sketch001
100
AcDbLine
 10
171.475
 20
-86
 30
0
 11
190.475
 21
-86
 31
0
  0
LINE
  5
ABD
330
A02
100
AcDbEntity
  8
Sketch001
100
AcDbLine
 10
171.475
 20
-86
 30
0
 11
185.902
 21
-101.546
 31
0
  0
ARC
  5
ABE
330
A02
100
AcDbEntity
  8
Sketch001
100
AcDbCircle
 10
181.413
 20
-105.712
 30
0
 40
6.12398
100
AcDbArc
 50
-20
 51
42.8607
  0
LINE
  5
ABF
330
A02
100
AcDbEntity
  8
Sketch001
100
AcDbLine
 10
187.167
 20
-107.806
 30
0
 11
180.669
 21
-125.661
 31
0
  0
LINE
  5
AC0
330
A02
100
AcDbEntity
  8
Sketch001
100
AcDbLine
 10
180.669
 20
-125.661
 30
0
 11
155.47
 21
-125.661
 31
0
  0
ARC
  5
AC1
330
A02
100
AcDbEntity
  8
Sketch001
100
AcDbCircle
 10
155.47
 20
-111.567
 30
0
 40
14.0937
100
AcDbArc
 50
-137.139
 51
-90
  0
ENDSEC
  0
SECTION
  2
OBJECTS
  0
DICTIONARY
  5
F000
330
0
100
AcDbDictionary
  3
ACAD_GROUP
350
F001
  0
DICTIONARY
  5
F001
330
F000
100
AcDbDictionary
  0
ENDSEC
  0
EOF