999
FreeCAD v0.20 29410 (Git)
  0
SECTION
  2
HEADER
  9
$ACADVER
  1
AC1014
  9
$ACADMAINTVER
 70
     9
  9
$DWGCODEPAGE
  3
ANSI_1252
  9
$TEXTSTYLE
  7
STANDARD
  9
$DIMSTYLE
  2
STANDARD
  9
$DIMTXSTY
  7
STANDARD
  9
$CMLSTYLE
  2
STANDARD
  9
$LUNITS
 70
2
  9
$INSUNITS
 70
4
  9
$PEXTMAX
 10
50
 20
50
 30
50
  9
$PEXTMIN
 10
0
 20
0
 30
0
  9
$HANDSEED
  5
FFFF
  0
ENDSEC
  0
SECTION
  2
CLASSES
  0
CLASS
  1
ACDBDICTIONARYWDFLT
  2
AcDbDictionaryWithDefault
  3
ObjectDBX Classes
 90
        0
280
     0
281
     0
  0
CLASS
  1
XRECORD
  2
AcDbXrecord
  3
ObjectDBX Classes
 90
        0
280
     0
281
     0
  0
CLASS
  1
LWPOLYLINE
  2
AcDbPolyline
  3
ObjectDBX Classes
 90
        0
280
     0
281
     1
  0
ENDSEC
  0
SECTION
  2
TABLES
  0
TABLE
  2
VPORT
  5
20
330
0
100
AcDbSymbolTable
 70
     1
  0
VPORT
  5
21
330
20
100
AcDbSymbolTableRecord
100
AcDbViewportTableRecord
  2
*ACTIVE
 70
     0
  0
ENDTAB
  0
TABLE
  2
LTYPE
  5
22
330
0
100
AcDbSymbolTable
 70
     1
  0
LTYPE
  5
23
330
21
100
AcDbSymbolTableRecord
100
AcDbLinetypeTableRecord
  2
BYBLOCK
 70
     0
  3

 72
    65
 73
     0
 40
0.0
  0
LTYPE
  5
24
330
21
100
AcDbSymbolTableRecord
100
AcDbLinetypeTableRecord
  2
BYLAYER
 70
     0
  3

 72
    65
 73
     0
 40
0.0
  0
LTYPE
  5
25
330
21
100
AcDbSymbolTableRecord
100
AcDbLinetypeTableRecord
  2
CONTINUOUS
 70
     0
  3
Solid line
 72
    65
 73
     0
 40
0.0
  0
ENDTAB
  0
TABLE
  2
LAYER
  5
AD4
330
0
100
AcDbSymbolTable
 70
3
  0
LAYER
  5
AD5
330
AD4
100
AcDbSymbolTableRecord
100
AcDbLayerTableRecord
  2
0
 70
   0
 62
   7
  6
CONTINUOUS
  0
LAYER
  5
AD6
330
AD4
100
AcDbSymbolTableRecord
100
AcDbLayerTableRecord
  2
none
 70
    0
 62
    7
  6
CONTINUOUS
  0
LAYER
  5
AD7
330
AD4
100
AcDbSymbolTableRecord
100
AcDbLayerTableRecord
  2
Sketch
 70
    0
 62
    7
  6
CONTINUOUS
  0
ENDTAB
  0
TABLE
  2
STYLE
  5
70
330
0
100
AcDbSymbolTable
 70
     2
  0
STYLE
  5
71
330
70
100
AcDbSymbolTableRecord
100
AcDbTextStyleTableRecord
  2
STANDARD
 70
     0
 40
0.0
 41
1.0
 50
0.0
 71
     0
 42
2.5
  3
arial.ttf
  4

  0
STYLE
  5
72
330
70
100
AcDbSymbolTableRecord
100
AcDbTextStyleTableRecord
  2
ANNOTATIVE
 70
     0
 40
0.0
 41
1.0
 50
0.0
 71
     0
 42
2.5
  3
arial.ttf
  4

  0
ENDTAB
  0
TABLE
  2
VIEW
  5
73
330
0
100
AcDbSymbolTable
 70
     0
  0
ENDTAB
  0
TABLE
  2
UCS
  5
74
330
0
100
AcDbSymbolTable
 70
     0
  0
ENDTAB
  0
TABLE
  2
APPID
  5
75
330
0
100
AcDbSymbolTable
 70
     2
  0
APPID
  5
76
330
75
100
AcDbSymbolTableRecord
100
AcDbRegAppTableRecord
  2
ACAD
 70
     0
  0
APPID
  5
77
330
75
100
AcDbSymbolTableRecord
100
AcDbRegAppTableRecord
  2
ACADANNOTATIVE
 70
     0
  0
ENDTAB
  0
TABLE
  2
DIMSTYLE
  5
78
330
0
100
AcDbSymbolTable
 70
     2
  0
DIMSTYLE
105
79
330
78
100
AcDbSymbolTableRecord
100
AcDbDimStyleTableRecord
  2
STANDARD
 70
     0
  3

  4

  5

  6

  7

 40
0.0
 41
2.5
 42
0.625
 43
3.75
 44
1.25
 45
0.0
 46
0.0
 47
0.0
 48
0.0
140
2.5
141
2.5
142
0.0
143
0.03937007874016
144
1.0
145
0.0
146
1.0
147
0.625
 71
     0
 72
     0
 73
     0
 74
     0
 75
     0
 76
     0
 77
     1
 78
     8
170
     0
171
     3
172
     1
173
     0
174
     0
175
     0
176
     0
177
     0
178
     0
270
     2
271
     2
272
     2
273
     2
274
     3
340
71
275
     0
280
     0
281
     0
282
     0
283
     0
284
     8
285
     0
286
     0
287
     3
288
     0
  0
ENDTAB
  0
TABLE
  2
BLOCK_RECORD
  5
A01
330
0
100
AcDbSymbolTable
  70
5
  0
BLOCK_RECORD
  5
A02
330
A01
100
AcDbSymbolTableRecord
100
AcDbBlockTableRecord
  2
*MODEL_SPACE
  0
BLOCK_RECORD
  5
A03
330
A01
100
AcDbSymbolTableRecord
100
AcDbBlockTableRecord
  2
*PAPER_SPACE
  0
ENDTAB
  0
ENDSEC
  0
SECTION
  2
BLOCKS
  0
BLOCK
  5
A04
330
A02
100
AcDbEntity
  8
0
100
AcDbBlockBegin
  2
*MODEL_SPACE
 70
   0
 10
0
 20
0
 30
0
  3
*MODEL_SPACE
  1
 
  0
ENDBLK
  5
A05
330
A02
100
AcDbEntity
  8
0
100
AcDbBlockEnd
  0
BLOCK
  5
A06
330
A03
100
AcDbEntity
 67
1
  8
0
100
AcDbBlockBegin
  2
*PAPER_SPACE
 70
   0
 10
0
 20
0
 30
0
  3
*PAPER_SPACE
  1
 
  0
ENDBLK
  5
A07
330
A03
100
AcDbEntity
 67
    1
  8
0
100
AcDbBlockEnd
  0
ENDSEC
  0
SECTION
  2
ENTITIES
  0
LINE
  5
A08
330
A02
100
AcDbEntity
  8
Sketch
100
AcDbLine
 10
261.623
 20
-117.668
 30
0
 11
256.835
 21
-104.512
 31
0
  0
LINE
  5
A09
330
A02
100
AcDbEntity
  8
Sketch
100
AcDbLine
 10
256.835
 20
-104.512
 30
0
 11
243.679
 21
-109.301
 31
0
  0
LINE
  5
A0A
330
A02
100
AcDbEntity
  8
Sketch
100
AcDbLine
 10
243.679
 20
-109.301
 30
0
 11
248.468
 21
-122.456
 31
0
  0
LINE
  5
A0B
330
A02
100
AcDbEntity
  8
Sketch
100
AcDbLine
 10
248.468
 20
-122.456
 30
0
 11
261.623
 21
-117.668
 31
0
  0
LINE
  5
A0C
330
A02
100
AcDbEntity
  8
Sketch
100
AcDbLine
 10
370.017
 20
-88.5
 30
0
 11
356.017
 21
-88.5
 31
0
  0
LINE
  5
A0D
330
A02
100
AcDbEntity
  8
Sketch
100
AcDbLine
 10
356.017
 20
-88.5
 30
0
 11
356.017
 21
-102.5
 31
0
  0
LINE
  5
A0E
330
A02
100
AcDbEntity
  8
Sketch
100
AcDbLine
 10
356.017
 20
-102.5
 30
0
 11
370.017
 21
-102.5
 31
0
  0
LINE
  5
A0F
330
A02
100
AcDbEntity
  8
Sketch
100
AcDbLine
 10
370.017
 20
-102.5
 30
0
 11
370.017
 21
-88.5
 31
0
  0
LINE
  5
A10
330
A02
100
AcDbEntity
  8
Sketch
100
AcDbLine
 10
258.642
 20
-83.5
 30
0
 11
272.642
 21
-83.5
 31
0
  0
LINE
  5
A11
330
A02
100
AcDbEntity
  8
Sketch
100
AcDbLine
 10
272.642
 20
-83.5
 30
0
 11
272.642
 21
-69.5
 31
0
  0
LINE
  5
A12
330
A02
100
AcDbEntity
  8
Sketch
100
AcDbLine
 10
272.642
 20
-69.5
 30
0
 11
258.642
 21
-69.5
 31
0
  0
LINE
  5
A13
330
A02
100
AcDbEntity
  8
Sketch
100
AcDbLine
 10
258.642
 20
-69.5
 30
0
 11
258.642
 21
-83.5
 31
0
  0
LINE
  5
A14
330
A02
100
AcDbEntity
  8
Sketch
100
AcDbLine
 10
348.642
 20
-69.5
 30
0
 11
334.642
 21
-69.5
 31
0
  0
LINE
  5
A15
330
A02
100
AcDbEntity
  8
Sketch
100
AcDbLine
 10
334.642
 20
-69.5
 30
0
 11
334.642
 21
-83.5
 31
0
  0
LINE
  5
A16
330
A02
100
AcDbEntity
  8
Sketch
100
AcDbLine
 10
334.642
 20
-83.5
 30
0
 11
348.642
 21
-83.5
 31
0
  0
LINE
  5
A17
330
A02
100
AcDbEntity
  8
Sketch
100
AcDbLine
 10
348.642
 20
-83.5
 30
0
 11
348.642
 21
-69.5
 31
0
  0
LINE
  5
A18
330
A02
100
AcDbEntity
  8
Sketch
100
AcDbLine
 10
403.267
 20
-50.5
 30
0
 11
389.267
 21
-50.5
 31
0
  0
LINE
  5
A19
330
A02
100
AcDbEntity
  8
Sketch
100
AcDbLine
 10
389.267
 20
-50.5
 30
0
 11
389.267
 21
-64.5
 31
0
  0
LINE
  5
A1A
330
A02
100
AcDbEntity
  8
Sketch
100
AcDbLine
 10
389.267
 20
-64.5
 30
0
 11
403.267
 21
-64.5
 31
0
  0
LINE
  5
A1B
330
A02
100
AcDbEntity
  8
Sketch
100
AcDbLine
 10
403.267
 20
-64.5
 30
0
 11
403.267
 21
-50.5
 31
0
  0
LINE
  5
A1C
330
A02
100
AcDbEntity
  8
Sketch
100
AcDbLine
 10
320.142
 20
-50.5
 30
0
 11
306.142
 21
-50.5
 31
0
  0
LINE
  5
A1D
330
A02
100
AcDbEntity
  8
Sketch
100
AcDbLine
 10
306.142
 20
-50.5
 30
0
 11
306.142
 21
-64.5
 31
0
  0
LINE
  5
A1E
330
A02
100
AcDbEntity
  8
Sketch
100
AcDbLine
 10
306.142
 20
-64.5
 30
0
 11
320.142
 21
-64.5
 31
0
  0
LINE
  5
A1F
330
A02
100
AcDbEntity
  8
Sketch
100
AcDbLine
 10
320.142
 20
-64.5
 30
0
 11
320.142
 21
-50.5
 31
0
  0
LINE
  5
A20
330
A02
100
AcDbEntity
  8
Sketch
100
AcDbLine
 10
258.392
 20
-31.5
 30
0
 11
244.392
 21
-31.5
 31
0
  0
LINE
  5
A21
330
A02
100
AcDbEntity
  8
Sketch
100
AcDbLine
 10
244.392
 20
-31.5
 30
0
 11
244.392
 21
-45.5
 31
0
  0
LINE
  5
A22
330
A02
100
AcDbEntity
  8
Sketch
100
AcDbLine
 10
244.392
 20
-45.5
 30
0
 11
258.392
 21
-45.5
 31
0
  0
LINE
  5
A23
330
A02
100
AcDbEntity
  8
Sketch
100
AcDbLine
 10
258.392
 20
-45.5
 30
0
 11
258.392
 21
-31.5
 31
0
  0
LINE
  5
A24
330
A02
100
AcDbEntity
  8
Sketch
100
AcDbLine
 10
334.392
 20
-31.5
 30
0
 11
320.392
 21
-31.5
 31
0
  0
LINE
  5
A25
330
A02
100
AcDbEntity
  8
Sketch
100
AcDbLine
 10
320.392
 20
-31.5
 30
0
 11
320.392
 21
-45.5
 31
0
  0
LINE
  5
A26
330
A02
100
AcDbEntity
  8
Sketch
100
AcDbLine
 10
320.392
 20
-45.5
 30
0
 11
334.392
 21
-45.5
 31
0
  0
LINE
  5
A27
330
A02
100
AcDbEntity
  8
Sketch
100
AcDbLine
 10
334.392
 20
-45.5
 30
0
 11
334.392
 21
-31.5
 31
0
  0
LINE
  5
A28
330
A02
100
AcDbEntity
  8
Sketch
100
AcDbLine
 10
391.392
 20
-31.5
 30
0
 11
377.392
 21
-31.5
 31
0
  0
LINE
  5
A29
330
A02
100
AcDbEntity
  8
Sketch
100
AcDbLine
 10
377.392
 20
-31.5
 30
0
 11
377.392
 21
-45.5
 31
0
  0
LINE
  5
A2A
330
A02
100
AcDbEntity
  8
Sketch
100
AcDbLine
 10
377.392
 20
-45.5
 30
0
 11
391.392
 21
-45.5
 31
0
  0
LINE
  5
A2B
330
A02
100
AcDbEntity
  8
Sketch
100
AcDbLine
 10
391.392
 20
-45.5
 30
0
 11
391.392
 21
-31.5
 31
0
  0
LINE
  5
A2C
330
A02
100
AcDbEntity
  8
Sketch
100
AcDbLine
 10
343.892
 20
-12.5
 30
0
 11
329.892
 21
-12.5
 31
0
  0
LINE
  5
A2D
330
A02
100
AcDbEntity
  8
Sketch
100
AcDbLine
 10
329.892
 20
-12.5
 30
0
 11
329.892
 21
-26.5
 31
0
  0
LINE
  5
A2E
330
A02
100
AcDbEntity
  8
Sketch
100
AcDbLine
 10
329.892
 20
-26.5
 30
0
 11
343.892
 21
-26.5
 31
0
  0
LINE
  5
A2F
330
A02
100
AcDbEntity
  8
Sketch
100
AcDbLine
 10
343.892
 20
-26.5
 30
0
 11
343.892
 21
-12.5
 31
0
  0
LINE
  5
A30
330
A02
100
AcDbEntity
  8
Sketch
100
AcDbLine
 10
267.892
 20
-12.5
 30
0
 11
253.892
 21
-12.5
 31
0
  0
LINE
  5
A31
330
A02
100
AcDbEntity
  8
Sketch
100
AcDbLine
 10
253.892
 20
-12.5
 30
0
 11
253.892
 21
-26.5
 31
0
  0
LINE
  5
A32
330
A02
100
AcDbEntity
  8
Sketch
100
AcDbLine
 10
253.892
 20
-26.5
 30
0
 11
267.892
 21
-26.5
 31
0
  0
LINE
  5
A33
330
A02
100
AcDbEntity
  8
Sketch
100
AcDbLine
 10
267.892
 20
-26.5
 30
0
 11
267.892
 21
-12.5
 31
0
  0
LINE
  5
A34
330
A02
100
AcDbEntity
  8
Sketch
100
AcDbLine
 10
324.892
 20
-12.5
 30
0
 11
310.892
 21
-12.5
 31
0
  0
LINE
  5
A35
330
A02
100
AcDbEntity
  8
Sketch
100
AcDbLine
 10
310.892
 20
-12.5
 30
0
 11
310.892
 21
-26.5
 31
0
  0
LINE
  5
A36
330
A02
100
AcDbEntity
  8
Sketch
100
AcDbLine
 10
310.892
 20
-26.5
 30
0
 11
324.892
 21
-26.5
 31
0
  0
LINE
  5
A37
330
A02
100
AcDbEntity
  8
Sketch
100
AcDbLine
 10
324.892
 20
-26.5
 30
0
 11
324.892
 21
-12.5
 31
0
  0
LINE
  5
A38
330
A02
100
AcDbEntity
  8
Sketch
100
AcDbLine
 10
405.642
 20
-26.5
 30
0
 11
405.642
 21
-12.5
 31
0
  0
LINE
  5
A39
330
A02
100
AcDbEntity
  8
Sketch
100
AcDbLine
 10
405.642
 20
-12.5
 30
0
 11
391.642
 21
-12.5
 31
0
  0
LINE
  5
A3A
330
A02
100
AcDbEntity
  8
Sketch
100
AcDbLine
 10
391.642
 20
-12.5
 30
0
 11
391.642
 21
-26.5
 31
0
  0
LINE
  5
A3B
330
A02
100
AcDbEntity
  8
Sketch
100
AcDbLine
 10
391.642
 20
-26.5
 30
0
 11
405.642
 21
-26.5
 31
0
  0
LINE
  5
A3C
330
A02
100
AcDbEntity
  8
Sketch
100
AcDbLine
 10
353.392
 20
-31.5
 30
0
 11
339.392
 21
-31.5
 31
0
  0
LINE
  5
A3D
330
A02
100
AcDbEntity
  8
Sketch
100
AcDbLine
 10
339.392
 20
-31.5
 30
0
 11
339.392
 21
-45.5
 31
0
  0
LINE
  5
A3E
330
A02
100
AcDbEntity
  8
Sketch
100
AcDbLine
 10
339.392
 20
-45.5
 30
0
 11
353.392
 21
-45.5
 31
0
  0
LINE
  5
A3F
330
A02
100
AcDbEntity
  8
Sketch
100
AcDbLine
 10
353.392
 20
-45.5
 30
0
 11
353.392
 21
-31.5
 31
0
  0
LINE
  5
A40
330
A02
100
AcDbEntity
  8
Sketch
100
AcDbLine
 10
277.392
 20
-31.5
 30
0
 11
263.392
 21
-31.5
 31
0
  0
LINE
  5
A41
330
A02
100
AcDbEntity
  8
Sketch
100
AcDbLine
 10
263.392
 20
-31.5
 30
0
 11
263.392
 21
-45.5
 31
0
  0
LINE
  5
A42
330
A02
100
AcDbEntity
  8
Sketch
100
AcDbLine
 10
263.392
 20
-45.5
 30
0
 11
277.392
 21
-45.5
 31
0
  0
LINE
  5
A43
330
A02
100
AcDbEntity
  8
Sketch
100
AcDbLine
 10
277.392
 20
-45.5
 30
0
 11
277.392
 21
-31.5
 31
0
  0
LINE
  5
A44
330
A02
100
AcDbEntity
  8
Sketch
100
AcDbLine
 10
301.142
 20
-50.5
 30
0
 11
287.142
 21
-50.5
 31
0
  0
LINE
  5
A45
330
A02
100
AcDbEntity
  8
Sketch
100
AcDbLine
 10
287.142
 20
-50.5
 30
0
 11
287.142
 21
-64.5
 31
0
  0
LINE
  5
A46
330
A02
100
AcDbEntity
  8
Sketch
100
AcDbLine
 10
287.142
 20
-64.5
 30
0
 11
301.142
 21
-64.5
 31
0
  0
LINE
  5
A47
330
A02
100
AcDbEntity
  8
Sketch
100
AcDbLine
 10
301.142
 20
-64.5
 30
0
 11
301.142
 21
-50.5
 31
0
  0
LINE
  5
A48
330
A02
100
AcDbEntity
  8
Sketch
100
AcDbLine
 10
377.142
 20
-50.5
 30
0
 11
363.142
 21
-50.5
 31
0
  0
LINE
  5
A49
330
A02
100
AcDbEntity
  8
Sketch
100
AcDbLine
 10
363.142
 20
-50.5
 30
0
 11
363.142
 21
-64.5
 31
0
  0
LINE
  5
A4A
330
A02
100
AcDbEntity
  8
Sketch
100
AcDbLine
 10
363.142
 20
-64.5
 30
0
 11
377.142
 21
-64.5
 31
0
  0
LINE
  5
A4B
330
A02
100
AcDbEntity
  8
Sketch
100
AcDbLine
 10
377.142
 20
-64.5
 30
0
 11
377.142
 21
-50.5
 31
0
  0
LINE
  5
A4C
330
A02
100
AcDbEntity
  8
Sketch
100
AcDbLine
 10
367.642
 20
-83.5
 30
0
 11
367.642
 21
-69.5
 31
0
  0
LINE
  5
A4D
330
A02
100
AcDbEntity
  8
Sketch
100
AcDbLine
 10
367.642
 20
-69.5
 30
0
 11
353.642
 21
-69.5
 31
0
  0
LINE
  5
A4E
330
A02
100
AcDbEntity
  8
Sketch
100
AcDbLine
 10
353.642
 20
-69.5
 30
0
 11
353.642
 21
-83.5
 31
0
  0
LINE
  5
A4F
330
A02
100
AcDbEntity
  8
Sketch
100
AcDbLine
 10
353.642
 20
-83.5
 30
0
 11
367.642
 21
-83.5
 31
0
  0
LINE
  5
A50
330
A02
100
AcDbEntity
  8
Sketch
100
AcDbLine
 10
277.642
 20
-69.5
 30
0
 11
277.642
 21
-83.5
 31
0
  0
LINE
  5
A51
330
A02
100
AcDbEntity
  8
Sketch
100
AcDbLine
 10
277.642
 20
-83.5
 30
0
 11
291.642
 21
-83.5
 31
0
  0
LINE
  5
A52
330
A02
100
AcDbEntity
  8
Sketch
100
AcDbLine
 10
291.642
 20
-83.5
 30
0
 11
291.642
 21
-69.5
 31
0
  0
LINE
  5
A53
330
A02
100
AcDbEntity
  8
Sketch
100
AcDbLine
 10
291.642
 20
-69.5
 30
0
 11
277.642
 21
-69.5
 31
0
  0
LINE
  5
A54
330
A02
100
AcDbEntity
  8
Sketch
100
AcDbLine
 10
277.083
 20
-104.592
 30
0
 11
272.295
 21
-91.4361
 31
0
  0
LINE
  5
A55
330
A02
100
AcDbEntity
  8
Sketch
100
AcDbLine
 10
272.295
 20
-91.4361
 30
0
 11
259.139
 21
-96.2243
 31
0
  0
LINE
  5
A56
330
A02
100
AcDbEntity
  8
Sketch
100
AcDbLine
 10
259.139
 20
-96.2243
 30
0
 11
263.928
 21
-109.38
 31
0
  0
LINE
  5
A57
330
A02
100
AcDbEntity
  8
Sketch
100
AcDbLine
 10
263.928
 20
-109.38
 30
0
 11
277.083
 21
-104.592
 31
0
  0
LINE
  5
A58
330
A02
100
AcDbEntity
  8
Sketch
100
AcDbLine
 10
329.642
 20
-83.5
 30
0
 11
329.642
 21
-69.5
 31
0
  0
LINE
  5
A59
330
A02
100
AcDbEntity
  8
Sketch
100
AcDbLine
 10
329.642
 20
-69.5
 30
0
 11
315.642
 21
-69.5
 31
0
  0
LINE
  5
A5A
330
A02
100
AcDbEntity
  8
Sketch
100
AcDbLine
 10
315.642
 20
-69.5
 30
0
 11
315.642
 21
-83.5
 31
0
  0
LINE
  5
A5B
330
A02
100
AcDbEntity
  8
Sketch
100
AcDbLine
 10
315.642
 20
-83.5
 30
0
 11
329.642
 21
-83.5
 31
0
  0
LINE
  5
A5C
330
A02
100
AcDbEntity
  8
Sketch
100
AcDbLine
 10
339.142
 20
-50.5
 30
0
 11
325.142
 21
-50.5
 31
0
  0
LINE
  5
A5D
330
A02
100
AcDbEntity
  8
Sketch
100
AcDbLine
 10
325.142
 20
-50.5
 30
0
 11
325.142
 21
-64.5
 31
0
  0
LINE
  5
A5E
330
A02
100
AcDbEntity
  8
Sketch
100
AcDbLine
 10
325.142
 20
-64.5
 30
0
 11
339.142
 21
-64.5
 31
0
  0
LINE
  5
A5F
330
A02
100
AcDbEntity
  8
Sketch
100
AcDbLine
 10
339.142
 20
-64.5
 30
0
 11
339.142
 21
-50.5
 31
0
  0
LINE
  5
A60
330
A02
100
AcDbEntity
  8
Sketch
100
AcDbLine
 10
249.142
 20
-64.5
 30
0
 11
263.142
 21
-64.5
 31
0
  0
LINE
  5
A61
330
A02
100
AcDbEntity
  8
Sketch
100
AcDbLine
 10
263.142
 20
-64.5
 30
0
 11
263.142
 21
-50.5
 31
0
  0
LINE
  5
A62
330
A02
100
AcDbEntity
  8
Sketch
100
AcDbLine
 10
263.142
 20
-50.5
 30
0
 11
249.142
 21
-50.5
 31
0
  0
LINE
  5
A63
330
A02
100
AcDbEntity
  8
Sketch
100
AcDbLine
 10
249.142
 20
-50.5
 30
0
 11
249.142
 21
-64.5
 31
0
  0
LINE
  5
A64
330
A02
100
AcDbEntity
  8
Sketch
100
AcDbLine
 10
315.392
 20
-31.5
 30
0
 11
301.392
 21
-31.5
 31
0
  0
LINE
  5
A65
330
A02
100
AcDbEntity
  8
Sketch
100
AcDbLine
 10
301.392
 20
-31.5
 30
0
 11
301.392
 21
-45.5
 31
0
  0
LINE
  5
A66
330
A02
100
AcDbEntity
  8
Sketch
100
AcDbLine
 10
301.392
 20
-45.5
 30
0
 11
315.392
 21
-45.5
 31
0
  0
LINE
  5
A67
330
A02
100
AcDbEntity
  8
Sketch
100
AcDbLine
 10
315.392
 20
-45.5
 30
0
 11
315.392
 21
-31.5
 31
0
  0
LINE
  5
A68
330
A02
100
AcDbEntity
  8
Sketch
100
AcDbLine
 10
410.392
 20
-31.5
 30
0
 11
396.392
 21
-31.5
 31
0
  0
LINE
  5
A69
330
A02
100
AcDbEntity
  8
Sketch
100
AcDbLine
 10
396.392
 20
-31.5
 30
0
 11
396.392
 21
-45.5
 31
0
  0
LINE
  5
A6A
330
A02
100
AcDbEntity
  8
Sketch
100
AcDbLine
 10
396.392
 20
-45.5
 30
0
 11
410.392
 21
-45.5
 31
0
  0
LINE
  5
A6B
330
A02
100
AcDbEntity
  8
Sketch
100
AcDbLine
 10
410.392
 20
-45.5
 30
0
 11
410.392
 21
-31.5
 31
0
  0
LINE
  5
A6C
330
A02
100
AcDbEntity
  8
Sketch
100
AcDbLine
 10
362.892
 20
-12.5
 30
0
 11
348.892
 21
-12.5
 31
0
  0
LINE
  5
A6D
330
A02
100
AcDbEntity
  8
Sketch
100
AcDbLine
 10
348.892
 20
-12.5
 30
0
 11
348.892
 21
-26.5
 31
0
  0
LINE
  5
A6E
330
A02
100
AcDbEntity
  8
Sketch
100
AcDbLine
 10
348.892
 20
-26.5
 30
0
 11
362.892
 21
-26.5
 31
0
  0
LINE
  5
A6F
330
A02
100
AcDbEntity
  8
Sketch
100
AcDbLine
 10
362.892
 20
-26.5
 30
0
 11
362.892
 21
-12.5
 31
0
  0
LINE
  5
A70
330
A02
100
AcDbEntity
  8
Sketch
100
AcDbLine
 10
286.892
 20
-12.5
 30
0
 11
272.892
 21
-12.5
 31
0
  0
LINE
  5
A71
330
A02
100
AcDbEntity
  8
Sketch
100
AcDbLine
 10
272.892
 20
-12.5
 30
0
 11
272.892
 21
-26.5
 31
0
  0
LINE
  5
A72
330
A02
100
AcDbEntity
  8
Sketch
100
AcDbLine
 10
272.892
 20
-26.5
 30
0
 11
286.892
 21
-26.5
 31
0
  0
LINE
  5
A73
330
A02
100
AcDbEntity
  8
Sketch
100
AcDbLine
 10
286.892
 20
-26.5
 30
0
 11
286.892
 21
-12.5
 31
0
  0
LINE
  5
A74
330
A02
100
AcDbEntity
  8
Sketch
100
AcDbLine
 10
305.892
 20
-12.5
 30
0
 11
291.892
 21
-12.5
 31
0
  0
LINE
  5
A75
330
A02
100
AcDbEntity
  8
Sketch
100
AcDbLine
 10
291.892
 20
-12.5
 30
0
 11
291.892
 21
-26.5
 31
0
  0
LINE
  5
A76
330
A02
100
AcDbEntity
  8
Sketch
100
AcDbLine
 10
291.892
 20
-26.5
 30
0
 11
305.892
 21
-26.5
 31
0
  0
LINE
  5
A77
330
A02
100
AcDbEntity
  8
Sketch
100
AcDbLine
 10
305.892
 20
-26.5
 30
0
 11
305.892
 21
-12.5
 31
0
  0
LINE
  5
A78
330
A02
100
AcDbEntity
  8
Sketch
100
AcDbLine
 10
381.892
 20
-12.5
 30
0
 11
367.892
 21
-12.5
 31
0
  0
LINE
  5
A79
330
A02
100
AcDbEntity
  8
Sketch
100
AcDbLine
 10
367.892
 20
-12.5
 30
0
 11
367.892
 21
-26.5
 31
0
  0
LINE
  5
A7A
330
A02
100
AcDbEntity
  8
Sketch
100
AcDbLine
 10
367.892
 20
-26.5
 30
0
 11
381.892
 21
-26.5
 31
0
  0
LINE
  5
A7B
330
A02
100
AcDbEntity
  8
Sketch
100
AcDbLine
 10
381.892
 20
-26.5
 30
0
 11
381.892
 21
-12.5
 31
0
  0
LINE
  5
A7C
330
A02
100
AcDbEntity
  8
Sketch
100
AcDbLine
 10
372.392
 20
-31.5
 30
0
 11
358.392
 21
-31.5
 31
0
  0
LINE
  5
A7D
330
A02
100
AcDbEntity
  8
Sketch
100
AcDbLine
 10
358.392
 20
-31.5
 30
0
 11
358.392
 21
-45.5
 31
0
  0
LINE
  5
A7E
330
A02
100
AcDbEntity
  8
Sketch
100
AcDbLine
 10
358.392
 20
-45.5
 30
0
 11
372.392
 21
-45.5
 31
0
  0
LINE
  5
A7F
330
A02
100
AcDbEntity
  8
Sketch
100
AcDbLine
 10
372.392
 20
-45.5
 30
0
 11
372.392
 21
-31.5
 31
0
  0
LINE
  5
A80
330
A02
100
AcDbEntity
  8
Sketch
100
AcDbLine
 10
296.392
 20
-31.5
 30
0
 11
282.392
 21
-31.5
 31
0
  0
LINE
  5
A81
330
A02
100
AcDbEntity
  8
Sketch
100
AcDbLine
 10
282.392
 20
-31.5
 30
0
 11
282.392
 21
-45.5
 31
0
  0
LINE
  5
A82
330
A02
100
AcDbEntity
  8
Sketch
100
AcDbLine
 10
282.392
 20
-45.5
 30
0
 11
296.392
 21
-45.5
 31
0
  0
LINE
  5
A83
330
A02
100
AcDbEntity
  8
Sketch
100
AcDbLine
 10
296.392
 20
-45.5
 30
0
 11
296.392
 21
-31.5
 31
0
  0
LINE
  5
A84
330
A02
100
AcDbEntity
  8
Sketch
100
AcDbLine
 10
282.142
 20
-50.5
 30
0
 11
268.142
 21
-50.5
 31
0
  0
LINE
  5
A85
330
A02
100
AcDbEntity
  8
Sketch
100
AcDbLine
 10
268.142
 20
-50.5
 30
0
 11
268.142
 21
-64.5
 31
0
  0
LINE
  5
A86
330
A02
100
AcDbEntity
  8
Sketch
100
AcDbLine
 10
268.142
 20
-64.5
 30
0
 11
282.142
 21
-64.5
 31
0
  0
LINE
  5
A87
330
A02
100
AcDbEntity
  8
Sketch
100
AcDbLine
 10
282.142
 20
-64.5
 30
0
 11
282.142
 21
-50.5
 31
0
  0
LINE
  5
A88
330
A02
100
AcDbEntity
  8
Sketch
100
AcDbLine
 10
358.142
 20
-50.5
 30
0
 11
344.142
 21
-50.5
 31
0
  0
LINE
  5
A89
330
A02
100
AcDbEntity
  8
Sketch
100
AcDbLine
 10
344.142
 20
-50.5
 30
0
 11
344.142
 21
-64.5
 31
0
  0
LINE
  5
A8A
330
A02
100
AcDbEntity
  8
Sketch
100
AcDbLine
 10
344.142
 20
-64.5
 30
0
 11
358.142
 21
-64.5
 31
0
  0
LINE
  5
A8B
330
A02
100
AcDbEntity
  8
Sketch
100
AcDbLine
 10
358.142
 20
-64.5
 30
0
 11
358.142
 21
-50.5
 31
0
  0
LINE
  5
A8C
330
A02
100
AcDbEntity
  8
Sketch
100
AcDbLine
 10
389.017
 20
-83.5
 30
0
 11
389.017
 21
-69.5
 31
0
  0
LINE
  5
A8D
330
A02
100
AcDbEntity
  8
Sketch
100
AcDbLine
 10
389.017
 20
-69.5
 30
0
 11
375.017
 21
-69.5
 31
0
  0
LINE
  5
A8E
330
A02
100
AcDbEntity
  8
Sketch
100
AcDbLine
 10
375.017
 20
-69.5
 30
0
 11
375.017
 21
-83.5
 31
0
  0
LINE
  5
A8F
330
A02
100
AcDbEntity
  8
Sketch
100
AcDbLine
 10
375.017
 20
-83.5
 30
0
 11
389.017
 21
-83.5
 31
0
  0
LINE
  5
A90
330
A02
100
AcDbEntity
  8
Sketch
100
AcDbLine
 10
310.642
 20
-69.5
 30
0
 11
296.642
 21
-69.5
 31
0
  0
LINE
  5
A91
330
A02
100
AcDbEntity
  8
Sketch
100
AcDbLine
 10
296.642
 20
-69.5
 30
0
 11
296.642
 21
-83.5
 31
0
  0
LINE
  5
A92
330
A02
100
AcDbEntity
  8
Sketch
100
AcDbLine
 10
296.642
 20
-83.5
 30
0
 11
310.642
 21
-83.5
 31
0
  0
LINE
  5
A93
330
A02
100
AcDbEntity
  8
Sketch
100
AcDbLine
 10
310.642
 20
-83.5
 30
0
 11
310.642
 21
-69.5
 31
0
  0
LINE
  5
A94
330
A02
100
AcDbEntity
  8
Sketch
100
AcDbLine
 10
298.767
 20
-102.5
 30
0
 11
298.767
 21
-88.5
 31
0
  0
LINE
  5
A95
330
A02
100
AcDbEntity
  8
Sketch
100
AcDbLine
 10
298.767
 20
-88.5
 30
0
 11
284.767
 21
-88.5
 31
0
  0
LINE
  5
A96
330
A02
100
AcDbEntity
  8
Sketch
100
AcDbLine
 10
284.767
 20
-88.5
 30
0
 11
284.767
 21
-102.5
 31
0
  0
LINE
  5
A97
330
A02
100
AcDbEntity
  8
Sketch
100
AcDbLine
 10
284.767
 20
-102.5
 30
0
 11
298.767
 21
-102.5
 31
0
  0
LINE
  5
A98
330
A02
100
AcDbEntity
  8
Sketch
100
AcDbLine
 10
396.392
 20
-69.5
 30
0
 11
410.392
 21
-69.5
 31
0
  0
LINE
  5
A99
330
A02
100
AcDbEntity
  8
Sketch
100
AcDbLine
 10
410.392
 20
-69.5
 30
0
 11
410.392
 21
-83.5
 31
0
  0
LINE
  5
A9A
330
A02
100
AcDbEntity
  8
Sketch
100
AcDbLine
 10
410.392
 20
-83.5
 30
0
 11
396.392
 21
-83.5
 31
0
  0
LINE
  5
A9B
330
A02
100
AcDbEntity
  8
Sketch
100
AcDbLine
 10
396.392
 20
-83.5
 30
0
 11
396.392
 21
-69.5
 31
0
  0
LINE
  5
A9C
330
A02
100
AcDbEntity
  8
Sketch
100
AcDbLine
 10
396.392
 20
-102.5
 30
0
 11
396.392
 21
-88.5
 31
0
  0
LINE
  5
A9D
330
A02
100
AcDbEntity
  8
Sketch
100
AcDbLine
 10
396.392
 20
-88.5
 30
0
 11
410.392
 21
-88.5
 31
0
  0
LINE
  5
A9E
330
A02
100
AcDbEntity
  8
Sketch
100
AcDbLine
 10
410.392
 20
-88.5
 30
0
 11
410.392
 21
-102.5
 31
0
  0
LINE
  5
A9F
330
A02
100
AcDbEntity
  8
Sketch
100
AcDbLine
 10
410.392
 20
-102.5
 30
0
 11
396.392
 21
-102.5
 31
0
  0
LINE
  5
AA0
330
A02
100
AcDbEntity
  8
Sketch
100
AcDbLine
 10
377.392
 20
-102.5
 30
0
 11
377.392
 21
-88.5
 31
0
  0
LINE
  5
AA1
330
A02
100
AcDbEntity
  8
Sketch
100
AcDbLine
 10
377.392
 20
-88.5
 30
0
 11
391.392
 21
-88.5
 31
0
  0
LINE
  5
AA2
330
A02
100
AcDbEntity
  8
Sketch
100
AcDbLine
 10
391.392
 20
-88.5
 30
0
 11
391.392
 21
-102.5
 31
0
  0
LINE
  5
AA3
330
A02
100
AcDbEntity
  8
Sketch
100
AcDbLine
 10
391.392
 20
-102.5
 30
0
 11
377.392
 21
-102.5
 31
0
  0
LINE
  5
AA4
330
A02
100
AcDbEntity
  8
Sketch
100
AcDbLine
 10
415.392
 20
-88.5
 30
0
 11
429.392
 21
-88.5
 31
0
  0
LINE
  5
AA5
330
A02
100
AcDbEntity
  8
Sketch
100
AcDbLine
 10
429.392
 20
-88.5
 30
0
 11
429.392
 21
-102.5
 31
0
  0
LINE
  5
AA6
330
A02
100
AcDbEntity
  8
Sketch
100
AcDbLine
 10
429.392
 20
-102.5
 30
0
 11
415.392
 21
-102.5
 31
0
  0
LINE
  5
AA7
330
A02
100
AcDbEntity
  8
Sketch
100
AcDbLine
 10
415.392
 20
-102.5
 30
0
 11
415.392
 21
-88.5
 31
0
  0
LINE
  5
AA8
330
A02
100
AcDbEntity
  8
Sketch
100
AcDbLine
 10
429.392
 20
-69.5
 30
0
 11
429.392
 21
-83.5
 31
0
  0
LINE
  5
AA9
330
A02
100
AcDbEntity
  8
Sketch
100
AcDbLine
 10
429.392
 20
-83.5
 30
0
 11
415.392
 21
-83.5
 31
0
  0
LINE
  5
AAA
330
A02
100
AcDbEntity
  8
Sketch
100
AcDbLine
 10
415.392
 20
-83.5
 30
0
 11
415.392
 21
-69.5
 31
0
  0
LINE
  5
AAB
330
A02
100
AcDbEntity
  8
Sketch
100
AcDbLine
 10
415.392
 20
-69.5
 30
0
 11
429.392
 21
-69.5
 31
0
  0
LINE
  5
AAC
330
A02
100
AcDbEntity
  8
Sketch
100
AcDbLine
 10
415.392
 20
-50.5
 30
0
 11
429.392
 21
-50.5
 31
0
  0
LINE
  5
AAD
330
A02
100
AcDbEntity
  8
Sketch
100
AcDbLine
 10
429.392
 20
-50.5
 30
0
 11
429.392
 21
-64.5
 31
0
  0
LINE
  5
AAE
330
A02
100
AcDbEntity
  8
Sketch
100
AcDbLine
 10
429.392
 20
-64.5
 30
0
 11
415.392
 21
-64.5
 31
0
  0
LINE
  5
AAF
330
A02
100
AcDbEntity
  8
Sketch
100
AcDbLine
 10
415.392
 20
-64.5
 30
0
 11
415.392
 21
-50.5
 31
0
  0
ARC
  5
AB0
330
A02
100
AcDbEntity
  8
Sketch
100
AcDbCircle
 10
412.142
 20
-10.75
 30
0
 40
0.75
100
AcDbArc
 50
0
 51
90
  0
LINE
  5
AB1
330
A02
100
AcDbEntity
  8
Sketch
100
AcDbLine
 10
412.892
 20
-10.75
 30
0
 11
412.892
 21
-47.25
 31
0
  0
ARC
  5
AB2
330
A02
100
AcDbEntity
  8
Sketch
100
AcDbCircle
 10
413.642
 20
-47.25
 30
0
 40
0.75
100
AcDbArc
 50
180
 51
-90
  0
LINE
  5
AB3
330
A02
100
AcDbEntity
  8
Sketch
100
AcDbLine
 10
413.642
 20
-48
 30
0
 11
431.142
 21
-48
 31
0
  0
ARC
  5
AB4
330
A02
100
AcDbEntity
  8
Sketch
100
AcDbCircle
 10
431.142
 20
-48.75
 30
0
 40
0.75
100
AcDbArc
 50
0
 51
90
  0
LINE
  5
AB5
330
A02
100
AcDbEntity
  8
Sketch
100
AcDbLine
 10
431.892
 20
-48.75
 30
0
 11
431.892
 21
-104.25
 31
0
  0
ARC
  5
AB6
330
A02
100
AcDbEntity
  8
Sketch
100
AcDbCircle
 10
431.142
 20
-104.25
 30
0
 40
0.75
100
AcDbArc
 50
-90
 51
0
  0
LINE
  5
AB7
330
A02
100
AcDbEntity
  8
Sketch
100
AcDbLine
 10
431.142
 20
-105
 30
0
 11
303.642
 21
-105
 31
0
  0
ARC
  5
AB8
330
A02
100
AcDbEntity
  8
Sketch
100
AcDbCircle
 10
303.642
 20
-119.587
 30
0
 40
14.5871
100
AcDbArc
 50
90
 51
139.644
  0
LINE
  5
AB9
330
A02
100
AcDbEntity
  8
Sketch
100
AcDbLine
 10
283.289
 20
-121.013
 30
0
 11
292.526
 21
-110.141
 31
0
  0
ARC
  5
ABA
330
A02
100
AcDbEntity
  8
Sketch
100
AcDbCircle
 10
272.173
 20
-111.567
 30
0
 40
14.5871
100
AcDbArc
 50
-90
 51
-40.3561
  0
LINE
  5
ABB
330
A02
100
AcDbEntity
  8
Sketch
100
AcDbLine
 10
247.678
 20
-126.154
 30
0
 11
272.173
 21
-126.154
 31
0
  0
ARC
  5
ABC
330
A02
100
AcDbEntity
  8
Sketch
100
AcDbCircle
 10
247.678
 20
-125.404
 30
0
 40
0.75
100
AcDbArc
 50
-160
 51
-90
  0
LINE
  5
ABD
330
A02
100
AcDbEntity
  8
Sketch
100
AcDbLine
 10
246.973
 20
-125.661
 30
0
 11
240.475
 21
-107.806
 31
0
  0
ARC
  5
ABE
330
A02
100
AcDbEntity
  8
Sketch
100
AcDbCircle
 10
244.199
 20
-106.451
 30
0
 40
3.96309
100
AcDbArc
 50
139.644
 51
-160
  0
LINE
  5
ABF
330
A02
100
AcDbEntity
  8
Sketch
100
AcDbLine
 10
241.179
 20
-103.885
 30
0
 11
255.964
 21
-86.4857
 31
0
  0
ARC
  5
AC0
330
A02
100
AcDbEntity
  8
Sketch
100
AcDbCircle
 10
255.392
 20
-86
 30
0
 40
0.75
100
AcDbArc
 50
-40.3561
 51
0
  0
LINE
  5
AC1
330
A02
100
AcDbEntity
  8
Sketch
100
AcDbLine
 10
256.142
 20
-86
 30
0
 11
256.142
 21
-67.75
 31
0
  0
ARC
  5
AC2
330
A02
100
AcDbEntity
  8
Sketch
100
AcDbCircle
 10
255.392
 20
-67.75
 30
0
 40
0.75
100
AcDbArc
 50
0
 51
90
  0
LINE
  5
AC3
330
A02
100
AcDbEntity
  8
Sketch
100
AcDbLine
 10
255.392
 20
-67
 30
0
 11
247.392
 21
-67
 31
0
  0
ARC
  5
AC4
330
A02
100
AcDbEntity
  8
Sketch
100
AcDbCircle
 10
247.392
 20
-66.25
 30
0
 40
0.75
100
AcDbArc
 50
180
 51
-90
  0
LINE
  5
AC5
330
A02
100
AcDbEntity
  8
Sketch
100
AcDbLine
 10
246.642
 20
-66.25
 30
0
 11
246.642
 21
-48.75
 31
0
  0
ARC
  5
AC6
330
A02
100
AcDbEntity
  8
Sketch
100
AcDbCircle
 10
245.892
 20
-48.75
 30
0
 40
0.75
100
AcDbArc
 50
0
 51
90
  0
LINE
  5
AC7
330
A02
100
AcDbEntity
  8
Sketch
100
AcDbLine
 10
245.892
 20
-48
 30
0
 11
242.642
 21
-48
 31
0
  0
ARC
  5
AC8
330
A02
100
AcDbEntity
  8
Sketch
100
AcDbCircle
 10
242.642
 20
-47.25
 30
0
 40
0.75
100
AcDbArc
 50
180
 51
-90
  0
LINE
  5
AC9
330
A02
100
AcDbEntity
  8
Sketch
100
AcDbLine
 10
241.892
 20
-47.25
 30
0
 11
241.892
 21
-29.75
 31
0
  0
ARC
  5
ACA
330
A02
100
AcDbEntity
  8
Sketch
100
AcDbCircle
 10
242.642
 20
-29.75
 30
0
 40
0.75
100
AcDbArc
 50
90
 51
180
  0
LINE
  5
ACB
330
A02
100
AcDbEntity
  8
Sketch
100
AcDbLine
 10
250.642
 20
-29
 30
0
 11
242.642
 21
-29
 31
0
  0
ARC
  5
ACC
330
A02
100
AcDbEntity
  8
Sketch
100
AcDbCircle
 10
250.642
 20
-28.25
 30
0
 40
0.75
100
AcDbArc
 50
-90
 51
0
  0
LINE
  5
ACD
330
A02
100
AcDbEntity
  8
Sketch
100
AcDbLine
 10
251.392
 20
-10.75
 30
0
 11
251.392
 21
-28.25
 31
0
  0
ARC
  5
ACE
330
A02
100
AcDbEntity
  8
Sketch
100
AcDbCircle
 10
252.142
 20
-10.75
 30
0
 40
0.75
100
AcDbArc
 50
90
 51
180
  0
LINE
  5
ACF
330
A02
100
AcDbEntity
  8
Sketch
100
AcDbLine
 10
412.142
 20
-10
 30
0
 11
252.142
 21
-10
 31
0
  0
LINE
  5
AD0
330
A02
100
AcDbEntity
  8
Sketch
100
AcDbLine
 10
334.642
 20
-88.5
 30
0
 11
348.642
 21
-88.5
 31
0
  0
LINE
  5
AD1
330
A02
100
AcDbEntity
  8
Sketch
100
AcDbLine
 10
348.642
 20
-88.5
 30
0
 11
348.642
 21
-102.5
 31
0
  0
LINE
  5
AD2
330
A02
100
AcDbEntity
  8
Sketch
100
AcDbLine
 10
348.642
 20
-102.5
 30
0
 11
334.642
 21
-102.5
 31
0
  0
LINE
  5
AD3
330
A02
100
AcDbEntity
  8
Sketch
100
AcDbLine
 10
334.642
 20
-102.5
 30
0
 11
334.642
 21
-88.5
 31
0
  0
ENDSEC
  0
SECTION
  2
OBJECTS
  0
DICTIONARY
  5
F000
330
0
100
AcDbDictionary
  3
ACAD_GROUP
350
F001
  0
DICTIONARY
  5
F001
330
F000
100
AcDbDictionary
  0
ENDSEC
  0
EOF