G04 #@! TF.GenerationSoftware,KiCad,Pcbnew,(5.1.5)-3*
G04 #@! TF.CreationDate,2020-05-03T23:18:02-07:00*
G04 #@! TF.ProjectId,left,6c656674-2e6b-4696-9361-645f70636258,rev?*
G04 #@! TF.SameCoordinates,Original*
G04 #@! TF.FileFunction,Soldermask,Bot*
G04 #@! TF.FilePolarity,Negative*
%FSLAX46Y46*%
G04 Gerber Fmt 4.6, Leading zero omitted, Abs format (unit mm)*
G04 Created by KiCad (PCBNEW (5.1.5)-3) date 2020-05-03 23:18:02*
%MOMM*%
%LPD*%
G04 APERTURE LIST*
%ADD10C,0.100000*%
G04 APERTURE END LIST*
D10*
G36*
X215348254Y-144427818D02*
G01*
X215721511Y-144582426D01*
X215721513Y-144582427D01*
X216057436Y-144806884D01*
X216343116Y-145092564D01*
X216567574Y-145428489D01*
X216722182Y-145801746D01*
X216801000Y-146197993D01*
X216801000Y-146602007D01*
X216722182Y-146998254D01*
X216567574Y-147371511D01*
X216567573Y-147371513D01*
X216343116Y-147707436D01*
X216057436Y-147993116D01*
X215721513Y-148217573D01*
X215721512Y-148217574D01*
X215721511Y-148217574D01*
X215348254Y-148372182D01*
X214952007Y-148451000D01*
X214547993Y-148451000D01*
X214151746Y-148372182D01*
X213778489Y-148217574D01*
X213778488Y-148217574D01*
X213778487Y-148217573D01*
X213442564Y-147993116D01*
X213156884Y-147707436D01*
X212932427Y-147371513D01*
X212932426Y-147371511D01*
X212777818Y-146998254D01*
X212699000Y-146602007D01*
X212699000Y-146197993D01*
X212777818Y-145801746D01*
X212932426Y-145428489D01*
X213156884Y-145092564D01*
X213442564Y-144806884D01*
X213778487Y-144582427D01*
X213778489Y-144582426D01*
X214151746Y-144427818D01*
X214547993Y-144349000D01*
X214952007Y-144349000D01*
X215348254Y-144427818D01*
G37*
G36*
X32757536Y-128702827D02*
G01*
X32892839Y-128729740D01*
X33275197Y-128888118D01*
X33414363Y-128981106D01*
X33619309Y-129118046D01*
X33911954Y-129410691D01*
X34141883Y-129754805D01*
X34300260Y-130137162D01*
X34381000Y-130543068D01*
X34381000Y-130956932D01*
X34327173Y-131227536D01*
X34300260Y-131362839D01*
X34141882Y-131745197D01*
X33911953Y-132089310D01*
X33619310Y-132381953D01*
X33275197Y-132611882D01*
X32892839Y-132770260D01*
X32757536Y-132797173D01*
X32486932Y-132851000D01*
X32073068Y-132851000D01*
X31802464Y-132797173D01*
X31667161Y-132770260D01*
X31284803Y-132611882D01*
X30940690Y-132381953D01*
X30648047Y-132089310D01*
X30418118Y-131745197D01*
X30259740Y-131362839D01*
X30232827Y-131227536D01*
X30179000Y-130956932D01*
X30179000Y-130543068D01*
X30259740Y-130137162D01*
X30418117Y-129754805D01*
X30648046Y-129410691D01*
X30940691Y-129118046D01*
X31145637Y-128981106D01*
X31284803Y-128888118D01*
X31667161Y-128729740D01*
X31802464Y-128702827D01*
X32073068Y-128649000D01*
X32486932Y-128649000D01*
X32757536Y-128702827D01*
G37*
G36*
X202685083Y-128045068D02*
G01*
X202928431Y-128125430D01*
X203151426Y-128251722D01*
X203345498Y-128419093D01*
X203503188Y-128621109D01*
X203506107Y-128626907D01*
X203618439Y-128850010D01*
X203686816Y-129096990D01*
X203705697Y-129352565D01*
X203702040Y-129382238D01*
X203674354Y-129606919D01*
X203674353Y-129606922D01*
X203614130Y-129789289D01*
X203378278Y-130321519D01*
X203327365Y-130436410D01*
X203232717Y-130603530D01*
X203065346Y-130797602D01*
X202863331Y-130955292D01*
X202748477Y-131013120D01*
X202634429Y-131070543D01*
X202387449Y-131138920D01*
X202131875Y-131157801D01*
X202004697Y-131142129D01*
X201877521Y-131126458D01*
X201634173Y-131046096D01*
X201411178Y-130919803D01*
X201217106Y-130752432D01*
X201059416Y-130550417D01*
X201001588Y-130435563D01*
X200944165Y-130321515D01*
X200875788Y-130074535D01*
X200856907Y-129818961D01*
X200883036Y-129606922D01*
X200888250Y-129564607D01*
X200903410Y-129518699D01*
X200948474Y-129382238D01*
X201068050Y-129112401D01*
X201235239Y-128735115D01*
X201329887Y-128567996D01*
X201497258Y-128373924D01*
X201699274Y-128216234D01*
X201928171Y-128100985D01*
X201928175Y-128100983D01*
X202080598Y-128058784D01*
X202175153Y-128032606D01*
X202277385Y-128025054D01*
X202430729Y-128013725D01*
X202430732Y-128013725D01*
X202685083Y-128045068D01*
G37*
G36*
X197252385Y-126815478D02*
G01*
X197483366Y-126823039D01*
X197524258Y-126832574D01*
X197732949Y-126881233D01*
X197966380Y-126987000D01*
X198174693Y-127136274D01*
X198335096Y-127307535D01*
X198349882Y-127323322D01*
X198437296Y-127463896D01*
X198485210Y-127540948D01*
X198485210Y-127540949D01*
X198575483Y-127780797D01*
X198617228Y-128033646D01*
X198608844Y-128289782D01*
X198608843Y-128289786D01*
X198550650Y-128539365D01*
X198537678Y-128567994D01*
X198444883Y-128772797D01*
X198400154Y-128835216D01*
X198295609Y-128981109D01*
X198171883Y-129096990D01*
X198155429Y-129112401D01*
X197011392Y-129990251D01*
X196268987Y-130559918D01*
X196105889Y-130661339D01*
X195866040Y-130751612D01*
X195613188Y-130793358D01*
X195470204Y-130788677D01*
X195357056Y-130784973D01*
X195344768Y-130782108D01*
X195107473Y-130726779D01*
X194963045Y-130661339D01*
X194874041Y-130621012D01*
X194775526Y-130550417D01*
X194665729Y-130471738D01*
X194490542Y-130284693D01*
X194490540Y-130284691D01*
X194355212Y-130067065D01*
X194264939Y-129827215D01*
X194228568Y-129606919D01*
X194223193Y-129574363D01*
X194229483Y-129382235D01*
X194231578Y-129318231D01*
X194234443Y-129305943D01*
X194289772Y-129068648D01*
X194351727Y-128931912D01*
X194395539Y-128835216D01*
X194452853Y-128755235D01*
X194544813Y-128626904D01*
X194684991Y-128495614D01*
X194684993Y-128495612D01*
X196571436Y-127048092D01*
X196734531Y-126946673D01*
X196974381Y-126856400D01*
X197227230Y-126814655D01*
X197227233Y-126814655D01*
X197252385Y-126815478D01*
G37*
G36*
X205463029Y-124890582D02*
G01*
X205617901Y-124954732D01*
X205757282Y-125047864D01*
X205875816Y-125166398D01*
X205968948Y-125305779D01*
X206033098Y-125460651D01*
X206065801Y-125625063D01*
X206065801Y-125792695D01*
X206033098Y-125957107D01*
X205968948Y-126111979D01*
X205875816Y-126251360D01*
X205757282Y-126369894D01*
X205617901Y-126463026D01*
X205463029Y-126527176D01*
X205298617Y-126559879D01*
X205130985Y-126559879D01*
X204966573Y-126527176D01*
X204811701Y-126463026D01*
X204672320Y-126369894D01*
X204553786Y-126251360D01*
X204460654Y-126111979D01*
X204396504Y-125957107D01*
X204363801Y-125792695D01*
X204363801Y-125625063D01*
X204396504Y-125460651D01*
X204460654Y-125305779D01*
X204553786Y-125166398D01*
X204672320Y-125047864D01*
X204811701Y-124954732D01*
X204966573Y-124890582D01*
X205130985Y-124857879D01*
X205298617Y-124857879D01*
X205463029Y-124890582D01*
G37*
G36*
X198975937Y-122532502D02*
G01*
X198393818Y-124131859D01*
X196794461Y-123549740D01*
X197376580Y-121950383D01*
X198975937Y-122532502D01*
G37*
G36*
X54939890Y-121124017D02*
G01*
X55058364Y-121173091D01*
X55164988Y-121244335D01*
X55255665Y-121335012D01*
X55326909Y-121441636D01*
X55375983Y-121560110D01*
X55401000Y-121685882D01*
X55401000Y-121814118D01*
X55375983Y-121939890D01*
X55326909Y-122058364D01*
X55255665Y-122164988D01*
X55164988Y-122255665D01*
X55058364Y-122326909D01*
X55058363Y-122326910D01*
X55058362Y-122326910D01*
X54939890Y-122375983D01*
X54814119Y-122401000D01*
X54685881Y-122401000D01*
X54560110Y-122375983D01*
X54441638Y-122326910D01*
X54441637Y-122326910D01*
X54441636Y-122326909D01*
X54335012Y-122255665D01*
X54244335Y-122164988D01*
X54173091Y-122058364D01*
X54124017Y-121939890D01*
X54099000Y-121814118D01*
X54099000Y-121685882D01*
X54124017Y-121560110D01*
X54173091Y-121441636D01*
X54244335Y-121335012D01*
X54335012Y-121244335D01*
X54441636Y-121173091D01*
X54560110Y-121124017D01*
X54685881Y-121099000D01*
X54814119Y-121099000D01*
X54939890Y-121124017D01*
G37*
G36*
X52901000Y-122401000D02*
G01*
X51599000Y-122401000D01*
X51599000Y-121099000D01*
X52901000Y-121099000D01*
X52901000Y-122401000D01*
G37*
G36*
X59939890Y-121124017D02*
G01*
X60058364Y-121173091D01*
X60164988Y-121244335D01*
X60255665Y-121335012D01*
X60326909Y-121441636D01*
X60375983Y-121560110D01*
X60401000Y-121685882D01*
X60401000Y-121814118D01*
X60375983Y-121939890D01*
X60326909Y-122058364D01*
X60255665Y-122164988D01*
X60164988Y-122255665D01*
X60058364Y-122326909D01*
X60058363Y-122326910D01*
X60058362Y-122326910D01*
X59939890Y-122375983D01*
X59814119Y-122401000D01*
X59685881Y-122401000D01*
X59560110Y-122375983D01*
X59441638Y-122326910D01*
X59441637Y-122326910D01*
X59441636Y-122326909D01*
X59335012Y-122255665D01*
X59244335Y-122164988D01*
X59173091Y-122058364D01*
X59124017Y-121939890D01*
X59099000Y-121814118D01*
X59099000Y-121685882D01*
X59124017Y-121560110D01*
X59173091Y-121441636D01*
X59244335Y-121335012D01*
X59335012Y-121244335D01*
X59441636Y-121173091D01*
X59560110Y-121124017D01*
X59685881Y-121099000D01*
X59814119Y-121099000D01*
X59939890Y-121124017D01*
G37*
G36*
X57439890Y-121124017D02*
G01*
X57558364Y-121173091D01*
X57664988Y-121244335D01*
X57755665Y-121335012D01*
X57826909Y-121441636D01*
X57875983Y-121560110D01*
X57901000Y-121685882D01*
X57901000Y-121814118D01*
X57875983Y-121939890D01*
X57826909Y-122058364D01*
X57755665Y-122164988D01*
X57664988Y-122255665D01*
X57558364Y-122326909D01*
X57558363Y-122326910D01*
X57558362Y-122326910D01*
X57439890Y-122375983D01*
X57314119Y-122401000D01*
X57185881Y-122401000D01*
X57060110Y-122375983D01*
X56941638Y-122326910D01*
X56941637Y-122326910D01*
X56941636Y-122326909D01*
X56835012Y-122255665D01*
X56744335Y-122164988D01*
X56673091Y-122058364D01*
X56624017Y-121939890D01*
X56599000Y-121814118D01*
X56599000Y-121685882D01*
X56624017Y-121560110D01*
X56673091Y-121441636D01*
X56744335Y-121335012D01*
X56835012Y-121244335D01*
X56941636Y-121173091D01*
X57060110Y-121124017D01*
X57185881Y-121099000D01*
X57314119Y-121099000D01*
X57439890Y-121124017D01*
G37*
G36*
X187235083Y-114970068D02*
G01*
X187478431Y-115050430D01*
X187701426Y-115176722D01*
X187895498Y-115344093D01*
X188053188Y-115546109D01*
X188056107Y-115551907D01*
X188168439Y-115775010D01*
X188236816Y-116021990D01*
X188255697Y-116277565D01*
X188252040Y-116307238D01*
X188224354Y-116531919D01*
X188224353Y-116531922D01*
X188164130Y-116714289D01*
X187928278Y-117246519D01*
X187877365Y-117361410D01*
X187782717Y-117528530D01*
X187615346Y-117722602D01*
X187413331Y-117880292D01*
X187298477Y-117938120D01*
X187184429Y-117995543D01*
X186937449Y-118063920D01*
X186681875Y-118082801D01*
X186554697Y-118067129D01*
X186427521Y-118051458D01*
X186184173Y-117971096D01*
X185961178Y-117844803D01*
X185767106Y-117677432D01*
X185609416Y-117475417D01*
X185551588Y-117360563D01*
X185494165Y-117246515D01*
X185425788Y-116999535D01*
X185406907Y-116743961D01*
X185433036Y-116531922D01*
X185438250Y-116489607D01*
X185453410Y-116443699D01*
X185498474Y-116307238D01*
X185618050Y-116037401D01*
X185785239Y-115660115D01*
X185879887Y-115492996D01*
X186047258Y-115298924D01*
X186249274Y-115141234D01*
X186478171Y-115025985D01*
X186478175Y-115025983D01*
X186630598Y-114983784D01*
X186725153Y-114957606D01*
X186827385Y-114950054D01*
X186980729Y-114938725D01*
X186980732Y-114938725D01*
X187235083Y-114970068D01*
G37*
G36*
X181802385Y-113740478D02*
G01*
X182033366Y-113748039D01*
X182069129Y-113756378D01*
X182282949Y-113806233D01*
X182516380Y-113912000D01*
X182724693Y-114061274D01*
X182885096Y-114232535D01*
X182899882Y-114248322D01*
X182987296Y-114388896D01*
X183035210Y-114465948D01*
X183035210Y-114465949D01*
X183125483Y-114705797D01*
X183167228Y-114958646D01*
X183158844Y-115214782D01*
X183158843Y-115214786D01*
X183100650Y-115464365D01*
X183087678Y-115492994D01*
X182994883Y-115697797D01*
X182950154Y-115760216D01*
X182845609Y-115906109D01*
X182721883Y-116021990D01*
X182705429Y-116037401D01*
X181561392Y-116915251D01*
X180818987Y-117484918D01*
X180655889Y-117586339D01*
X180416040Y-117676612D01*
X180163188Y-117718358D01*
X180020204Y-117713677D01*
X179907056Y-117709973D01*
X179894768Y-117707108D01*
X179657473Y-117651779D01*
X179513045Y-117586339D01*
X179424041Y-117546012D01*
X179325526Y-117475417D01*
X179215729Y-117396738D01*
X179040542Y-117209693D01*
X179040540Y-117209691D01*
X178905212Y-116992065D01*
X178814939Y-116752215D01*
X178778568Y-116531919D01*
X178773193Y-116499363D01*
X178779483Y-116307235D01*
X178781578Y-116243231D01*
X178784443Y-116230943D01*
X178839772Y-115993648D01*
X178938836Y-115775010D01*
X178945539Y-115760216D01*
X179002853Y-115680235D01*
X179094813Y-115551904D01*
X179234991Y-115420614D01*
X179234993Y-115420612D01*
X181121436Y-113973092D01*
X181284531Y-113871673D01*
X181524381Y-113781400D01*
X181777230Y-113739655D01*
X181777233Y-113739655D01*
X181802385Y-113740478D01*
G37*
G36*
X75841294Y-109512236D02*
G01*
X75926471Y-109518753D01*
X75966253Y-109529879D01*
X76173275Y-109587777D01*
X76401870Y-109703625D01*
X76603472Y-109861843D01*
X76770334Y-110056353D01*
X76896043Y-110279678D01*
X76959400Y-110473236D01*
X76975768Y-110523239D01*
X77003060Y-110749599D01*
X77006444Y-110777667D01*
X76986895Y-111033195D01*
X76949669Y-111166299D01*
X76917870Y-111280000D01*
X76879559Y-111355596D01*
X76831050Y-111451316D01*
X75553454Y-113456738D01*
X75553452Y-113456740D01*
X75434880Y-113607826D01*
X75240373Y-113774686D01*
X75105873Y-113850395D01*
X75017045Y-113900396D01*
X74779834Y-113978042D01*
X74773484Y-113980121D01*
X74519057Y-114010797D01*
X74519056Y-114010797D01*
X74263529Y-113991248D01*
X74016725Y-113922223D01*
X74016724Y-113922223D01*
X74016722Y-113922222D01*
X73788135Y-113806378D01*
X73788133Y-113806377D01*
X73788130Y-113806375D01*
X73586528Y-113648157D01*
X73586524Y-113648154D01*
X73419667Y-113453650D01*
X73342766Y-113317032D01*
X73293957Y-113230322D01*
X73214233Y-112986764D01*
X73214232Y-112986761D01*
X73183556Y-112732334D01*
X73187381Y-112682333D01*
X73203105Y-112476806D01*
X73271912Y-112230782D01*
X73272130Y-112230001D01*
X73315540Y-112144344D01*
X73358950Y-112058685D01*
X74636545Y-110053262D01*
X74755119Y-109902175D01*
X74899052Y-109778701D01*
X74949630Y-109735312D01*
X75172948Y-109609606D01*
X75234665Y-109589404D01*
X75416511Y-109529880D01*
X75416512Y-109529880D01*
X75416515Y-109529879D01*
X75670941Y-109499203D01*
X75670943Y-109499203D01*
X75841294Y-109512236D01*
G37*
G36*
X123366294Y-109487236D02*
G01*
X123451471Y-109493753D01*
X123491253Y-109504879D01*
X123698275Y-109562777D01*
X123926870Y-109678625D01*
X124128472Y-109836843D01*
X124295334Y-110031353D01*
X124421043Y-110254678D01*
X124492584Y-110473236D01*
X124500768Y-110498239D01*
X124503782Y-110523239D01*
X124531444Y-110752667D01*
X124511895Y-111008195D01*
X124488741Y-111090983D01*
X124442870Y-111255000D01*
X124404559Y-111330596D01*
X124356050Y-111426316D01*
X123078454Y-113431738D01*
X123061257Y-113453650D01*
X122959880Y-113582826D01*
X122765373Y-113749686D01*
X122664657Y-113806378D01*
X122542045Y-113875396D01*
X122374862Y-113930120D01*
X122298484Y-113955121D01*
X122044057Y-113985797D01*
X122044056Y-113985797D01*
X121788529Y-113966248D01*
X121541725Y-113897223D01*
X121541724Y-113897223D01*
X121541722Y-113897222D01*
X121313135Y-113781378D01*
X121313133Y-113781377D01*
X121313130Y-113781375D01*
X121111528Y-113623157D01*
X121111524Y-113623154D01*
X120944667Y-113428650D01*
X120833030Y-113230323D01*
X120818957Y-113205322D01*
X120739233Y-112961764D01*
X120739232Y-112961761D01*
X120708556Y-112707334D01*
X120720588Y-112550064D01*
X120728105Y-112451806D01*
X120797130Y-112205002D01*
X120797130Y-112205001D01*
X120861191Y-112078594D01*
X120883950Y-112033685D01*
X122161545Y-110028262D01*
X122280119Y-109877175D01*
X122365399Y-109804017D01*
X122474630Y-109710312D01*
X122697948Y-109584606D01*
X122759665Y-109564404D01*
X122941511Y-109504880D01*
X122941512Y-109504880D01*
X122941515Y-109504879D01*
X123195941Y-109474203D01*
X123195943Y-109474203D01*
X123366294Y-109487236D01*
G37*
G36*
X156616294Y-109487236D02*
G01*
X156701471Y-109493753D01*
X156741253Y-109504879D01*
X156948275Y-109562777D01*
X157176870Y-109678625D01*
X157378472Y-109836843D01*
X157545334Y-110031353D01*
X157671043Y-110254678D01*
X157742584Y-110473236D01*
X157750768Y-110498239D01*
X157753782Y-110523239D01*
X157781444Y-110752667D01*
X157761895Y-111008195D01*
X157738741Y-111090983D01*
X157692870Y-111255000D01*
X157654559Y-111330596D01*
X157606050Y-111426316D01*
X156328454Y-113431738D01*
X156311257Y-113453650D01*
X156209880Y-113582826D01*
X156015373Y-113749686D01*
X155914657Y-113806378D01*
X155792045Y-113875396D01*
X155624862Y-113930120D01*
X155548484Y-113955121D01*
X155294057Y-113985797D01*
X155294056Y-113985797D01*
X155038529Y-113966248D01*
X154791725Y-113897223D01*
X154791724Y-113897223D01*
X154791722Y-113897222D01*
X154563135Y-113781378D01*
X154563133Y-113781377D01*
X154563130Y-113781375D01*
X154361528Y-113623157D01*
X154361524Y-113623154D01*
X154194667Y-113428650D01*
X154083030Y-113230323D01*
X154068957Y-113205322D01*
X153989233Y-112961764D01*
X153989232Y-112961761D01*
X153958556Y-112707334D01*
X153970588Y-112550064D01*
X153978105Y-112451806D01*
X154047130Y-112205002D01*
X154047130Y-112205001D01*
X154111191Y-112078594D01*
X154133950Y-112033685D01*
X155411545Y-110028262D01*
X155530119Y-109877175D01*
X155615399Y-109804017D01*
X155724630Y-109710312D01*
X155947948Y-109584606D01*
X156009665Y-109564404D01*
X156191511Y-109504880D01*
X156191512Y-109504880D01*
X156191515Y-109504879D01*
X156445941Y-109474203D01*
X156445943Y-109474203D01*
X156616294Y-109487236D01*
G37*
G36*
X99616294Y-109462236D02*
G01*
X99701471Y-109468753D01*
X99741253Y-109479879D01*
X99948275Y-109537777D01*
X100176870Y-109653625D01*
X100176872Y-109653626D01*
X100176873Y-109653627D01*
X100240583Y-109703627D01*
X100378472Y-109811843D01*
X100545334Y-110006353D01*
X100671043Y-110229678D01*
X100749358Y-110468931D01*
X100750768Y-110473239D01*
X100753782Y-110498239D01*
X100781444Y-110727667D01*
X100761895Y-110983195D01*
X100738741Y-111065983D01*
X100692870Y-111230000D01*
X100654559Y-111305596D01*
X100606050Y-111401316D01*
X99328454Y-113406738D01*
X99291637Y-113453650D01*
X99209880Y-113557826D01*
X99015373Y-113724686D01*
X98878755Y-113801587D01*
X98792045Y-113850396D01*
X98572612Y-113922223D01*
X98548484Y-113930121D01*
X98294057Y-113960797D01*
X98294056Y-113960797D01*
X98038529Y-113941248D01*
X97791725Y-113872223D01*
X97791724Y-113872223D01*
X97791722Y-113872222D01*
X97563135Y-113756378D01*
X97563133Y-113756377D01*
X97563130Y-113756375D01*
X97361528Y-113598157D01*
X97361524Y-113598154D01*
X97194667Y-113403650D01*
X97117766Y-113267032D01*
X97068957Y-113180322D01*
X96989233Y-112936764D01*
X96989232Y-112936761D01*
X96958556Y-112682334D01*
X96958556Y-112682333D01*
X96978105Y-112426806D01*
X97033146Y-112230002D01*
X97047130Y-112180001D01*
X97111191Y-112053594D01*
X97133950Y-112008685D01*
X98411545Y-110003262D01*
X98530119Y-109852175D01*
X98615772Y-109778697D01*
X98724630Y-109685312D01*
X98947948Y-109559606D01*
X98992606Y-109544988D01*
X99191511Y-109479880D01*
X99191512Y-109479880D01*
X99191515Y-109479879D01*
X99445941Y-109449203D01*
X99445943Y-109449203D01*
X99616294Y-109462236D01*
G37*
G36*
X190013029Y-111815582D02*
G01*
X190167901Y-111879732D01*
X190307282Y-111972864D01*
X190425816Y-112091398D01*
X190518948Y-112230779D01*
X190583098Y-112385651D01*
X190615801Y-112550063D01*
X190615801Y-112717695D01*
X190583098Y-112882107D01*
X190518948Y-113036979D01*
X190425816Y-113176360D01*
X190307282Y-113294894D01*
X190167901Y-113388026D01*
X190013029Y-113452176D01*
X189848617Y-113484879D01*
X189680985Y-113484879D01*
X189516573Y-113452176D01*
X189361701Y-113388026D01*
X189222320Y-113294894D01*
X189103786Y-113176360D01*
X189010654Y-113036979D01*
X188946504Y-112882107D01*
X188913801Y-112717695D01*
X188913801Y-112550063D01*
X188946504Y-112385651D01*
X189010654Y-112230779D01*
X189103786Y-112091398D01*
X189222320Y-111972864D01*
X189361701Y-111879732D01*
X189516573Y-111815582D01*
X189680985Y-111782879D01*
X189848617Y-111782879D01*
X190013029Y-111815582D01*
G37*
G36*
X81231379Y-108933813D02*
G01*
X81470991Y-109024713D01*
X81688155Y-109160544D01*
X81688265Y-109160613D01*
X81874852Y-109336288D01*
X81973134Y-109474203D01*
X82023580Y-109544990D01*
X82128735Y-109778697D01*
X82128736Y-109778701D01*
X82186276Y-110028428D01*
X82192058Y-110220394D01*
X82188016Y-110279678D01*
X82143916Y-110926571D01*
X82112135Y-111115983D01*
X82021235Y-111355595D01*
X81916609Y-111522869D01*
X81885335Y-111572869D01*
X81709660Y-111759456D01*
X81571120Y-111858184D01*
X81500958Y-111908184D01*
X81267251Y-112013339D01*
X81267247Y-112013340D01*
X81017521Y-112070880D01*
X80761366Y-112078594D01*
X80761362Y-112078594D01*
X80508621Y-112036187D01*
X80269009Y-111945287D01*
X80051735Y-111809387D01*
X80025182Y-111784387D01*
X79865148Y-111633712D01*
X79717351Y-111426316D01*
X79716420Y-111425010D01*
X79611265Y-111191303D01*
X79599744Y-111141303D01*
X79553724Y-110941572D01*
X79547942Y-110749608D01*
X79596084Y-110043428D01*
X79602824Y-110003260D01*
X79627865Y-109854017D01*
X79718765Y-109614405D01*
X79854665Y-109397131D01*
X79911950Y-109336288D01*
X80030340Y-109210544D01*
X80186602Y-109099187D01*
X80239042Y-109061816D01*
X80472749Y-108956661D01*
X80472753Y-108956660D01*
X80722479Y-108899120D01*
X80978634Y-108891406D01*
X80978638Y-108891406D01*
X81231379Y-108933813D01*
G37*
G36*
X162006379Y-108908813D02*
G01*
X162245991Y-108999713D01*
X162463265Y-109135613D01*
X162649852Y-109311288D01*
X162761209Y-109467550D01*
X162798580Y-109519990D01*
X162903735Y-109753697D01*
X162903736Y-109753701D01*
X162961276Y-110003428D01*
X162967058Y-110195394D01*
X162963016Y-110254678D01*
X162918916Y-110901571D01*
X162887135Y-111090983D01*
X162796235Y-111330595D01*
X162720727Y-111451315D01*
X162660335Y-111547869D01*
X162484660Y-111734456D01*
X162328398Y-111845813D01*
X162275958Y-111883184D01*
X162042251Y-111988339D01*
X162042247Y-111988340D01*
X161792521Y-112045880D01*
X161536366Y-112053594D01*
X161536362Y-112053594D01*
X161283621Y-112011187D01*
X161044009Y-111920287D01*
X160826735Y-111784387D01*
X160825133Y-111782879D01*
X160640148Y-111608712D01*
X160510166Y-111426315D01*
X160491420Y-111400010D01*
X160386265Y-111166303D01*
X160344075Y-110983195D01*
X160328724Y-110916572D01*
X160322942Y-110724608D01*
X160371084Y-110018428D01*
X160377796Y-109978428D01*
X160402865Y-109829017D01*
X160493765Y-109589405D01*
X160629665Y-109372131D01*
X160686950Y-109311288D01*
X160805340Y-109185544D01*
X160961602Y-109074187D01*
X161014042Y-109036816D01*
X161247749Y-108931661D01*
X161247753Y-108931660D01*
X161497479Y-108874120D01*
X161753634Y-108866406D01*
X161753638Y-108866406D01*
X162006379Y-108908813D01*
G37*
G36*
X128756379Y-108908813D02*
G01*
X128995991Y-108999713D01*
X129213265Y-109135613D01*
X129399852Y-109311288D01*
X129511209Y-109467550D01*
X129548580Y-109519990D01*
X129653735Y-109753697D01*
X129653736Y-109753701D01*
X129711276Y-110003428D01*
X129717058Y-110195394D01*
X129713016Y-110254678D01*
X129668916Y-110901571D01*
X129637135Y-111090983D01*
X129546235Y-111330595D01*
X129470727Y-111451315D01*
X129410335Y-111547869D01*
X129234660Y-111734456D01*
X129078398Y-111845813D01*
X129025958Y-111883184D01*
X128792251Y-111988339D01*
X128792247Y-111988340D01*
X128542521Y-112045880D01*
X128286366Y-112053594D01*
X128286362Y-112053594D01*
X128033621Y-112011187D01*
X127794009Y-111920287D01*
X127576735Y-111784387D01*
X127575133Y-111782879D01*
X127390148Y-111608712D01*
X127260166Y-111426315D01*
X127241420Y-111400010D01*
X127136265Y-111166303D01*
X127094075Y-110983195D01*
X127078724Y-110916572D01*
X127072942Y-110724608D01*
X127121084Y-110018428D01*
X127127796Y-109978428D01*
X127152865Y-109829017D01*
X127243765Y-109589405D01*
X127379665Y-109372131D01*
X127436950Y-109311288D01*
X127555340Y-109185544D01*
X127711602Y-109074187D01*
X127764042Y-109036816D01*
X127997749Y-108931661D01*
X127997753Y-108931660D01*
X128247479Y-108874120D01*
X128503634Y-108866406D01*
X128503638Y-108866406D01*
X128756379Y-108908813D01*
G37*
G36*
X105006379Y-108883813D02*
G01*
X105245991Y-108974713D01*
X105463265Y-109110613D01*
X105649852Y-109286288D01*
X105711026Y-109372131D01*
X105798580Y-109494990D01*
X105903735Y-109728697D01*
X105903736Y-109728701D01*
X105961276Y-109978428D01*
X105967058Y-110170394D01*
X105950455Y-110413928D01*
X105918916Y-110876571D01*
X105887135Y-111065983D01*
X105796235Y-111305595D01*
X105721542Y-111425012D01*
X105660335Y-111522869D01*
X105484660Y-111709456D01*
X105335736Y-111815584D01*
X105275958Y-111858184D01*
X105042251Y-111963339D01*
X105042247Y-111963340D01*
X104792521Y-112020880D01*
X104536366Y-112028594D01*
X104536362Y-112028594D01*
X104283621Y-111986187D01*
X104044009Y-111895287D01*
X103826735Y-111759387D01*
X103640148Y-111583712D01*
X103510166Y-111401315D01*
X103491420Y-111375010D01*
X103386265Y-111141303D01*
X103340245Y-110941572D01*
X103328724Y-110891572D01*
X103322942Y-110699608D01*
X103371084Y-109993428D01*
X103375650Y-109966213D01*
X103402865Y-109804017D01*
X103493765Y-109564405D01*
X103629665Y-109347131D01*
X103686950Y-109286288D01*
X103805340Y-109160544D01*
X103961602Y-109049187D01*
X104014042Y-109011816D01*
X104247749Y-108906661D01*
X104280477Y-108899120D01*
X104497479Y-108849120D01*
X104753634Y-108841406D01*
X104753638Y-108841406D01*
X105006379Y-108883813D01*
G37*
G36*
X183525937Y-109457502D02*
G01*
X182943818Y-111056859D01*
X181344461Y-110474740D01*
X181926580Y-108875383D01*
X183525937Y-109457502D01*
G37*
G36*
X75476000Y-106701000D02*
G01*
X73774000Y-106701000D01*
X73774000Y-104999000D01*
X75476000Y-104999000D01*
X75476000Y-106701000D01*
G37*
G36*
X82673228Y-105031703D02*
G01*
X82828100Y-105095853D01*
X82967481Y-105188985D01*
X83086015Y-105307519D01*
X83179147Y-105446900D01*
X83243297Y-105601772D01*
X83276000Y-105766184D01*
X83276000Y-105933816D01*
X83243297Y-106098228D01*
X83179147Y-106253100D01*
X83086015Y-106392481D01*
X82967481Y-106511015D01*
X82828100Y-106604147D01*
X82673228Y-106668297D01*
X82508816Y-106701000D01*
X82341184Y-106701000D01*
X82176772Y-106668297D01*
X82021900Y-106604147D01*
X81882519Y-106511015D01*
X81763985Y-106392481D01*
X81670853Y-106253100D01*
X81606703Y-106098228D01*
X81574000Y-105933816D01*
X81574000Y-105766184D01*
X81606703Y-105601772D01*
X81670853Y-105446900D01*
X81763985Y-105307519D01*
X81882519Y-105188985D01*
X82021900Y-105095853D01*
X82176772Y-105031703D01*
X82341184Y-104999000D01*
X82508816Y-104999000D01*
X82673228Y-105031703D01*
G37*
G36*
X156051000Y-106651000D02*
G01*
X154349000Y-106651000D01*
X154349000Y-104949000D01*
X156051000Y-104949000D01*
X156051000Y-106651000D01*
G37*
G36*
X130098228Y-104981703D02*
G01*
X130253100Y-105045853D01*
X130392481Y-105138985D01*
X130511015Y-105257519D01*
X130604147Y-105396900D01*
X130668297Y-105551772D01*
X130701000Y-105716184D01*
X130701000Y-105883816D01*
X130668297Y-106048228D01*
X130604147Y-106203100D01*
X130511015Y-106342481D01*
X130392481Y-106461015D01*
X130253100Y-106554147D01*
X130098228Y-106618297D01*
X129933816Y-106651000D01*
X129766184Y-106651000D01*
X129601772Y-106618297D01*
X129446900Y-106554147D01*
X129307519Y-106461015D01*
X129188985Y-106342481D01*
X129095853Y-106203100D01*
X129031703Y-106048228D01*
X128999000Y-105883816D01*
X128999000Y-105716184D01*
X129031703Y-105551772D01*
X129095853Y-105396900D01*
X129188985Y-105257519D01*
X129307519Y-105138985D01*
X129446900Y-105045853D01*
X129601772Y-104981703D01*
X129766184Y-104949000D01*
X129933816Y-104949000D01*
X130098228Y-104981703D01*
G37*
G36*
X163248228Y-104981703D02*
G01*
X163403100Y-105045853D01*
X163542481Y-105138985D01*
X163661015Y-105257519D01*
X163754147Y-105396900D01*
X163818297Y-105551772D01*
X163851000Y-105716184D01*
X163851000Y-105883816D01*
X163818297Y-106048228D01*
X163754147Y-106203100D01*
X163661015Y-106342481D01*
X163542481Y-106461015D01*
X163403100Y-106554147D01*
X163248228Y-106618297D01*
X163083816Y-106651000D01*
X162916184Y-106651000D01*
X162751772Y-106618297D01*
X162596900Y-106554147D01*
X162457519Y-106461015D01*
X162338985Y-106342481D01*
X162245853Y-106203100D01*
X162181703Y-106048228D01*
X162149000Y-105883816D01*
X162149000Y-105716184D01*
X162181703Y-105551772D01*
X162245853Y-105396900D01*
X162338985Y-105257519D01*
X162457519Y-105138985D01*
X162596900Y-105045853D01*
X162751772Y-104981703D01*
X162916184Y-104949000D01*
X163083816Y-104949000D01*
X163248228Y-104981703D01*
G37*
G36*
X122901000Y-106651000D02*
G01*
X121199000Y-106651000D01*
X121199000Y-104949000D01*
X122901000Y-104949000D01*
X122901000Y-106651000D01*
G37*
G36*
X99076000Y-106626000D02*
G01*
X97374000Y-106626000D01*
X97374000Y-104924000D01*
X99076000Y-104924000D01*
X99076000Y-106626000D01*
G37*
G36*
X106273228Y-104956703D02*
G01*
X106428100Y-105020853D01*
X106567481Y-105113985D01*
X106686015Y-105232519D01*
X106779147Y-105371900D01*
X106843297Y-105526772D01*
X106876000Y-105691184D01*
X106876000Y-105858816D01*
X106843297Y-106023228D01*
X106779147Y-106178100D01*
X106686015Y-106317481D01*
X106567481Y-106436015D01*
X106428100Y-106529147D01*
X106273228Y-106593297D01*
X106108816Y-106626000D01*
X105941184Y-106626000D01*
X105776772Y-106593297D01*
X105621900Y-106529147D01*
X105482519Y-106436015D01*
X105363985Y-106317481D01*
X105270853Y-106178100D01*
X105206703Y-106023228D01*
X105174000Y-105858816D01*
X105174000Y-105691184D01*
X105206703Y-105526772D01*
X105270853Y-105371900D01*
X105363985Y-105232519D01*
X105482519Y-105113985D01*
X105621900Y-105020853D01*
X105776772Y-104956703D01*
X105941184Y-104924000D01*
X106108816Y-104924000D01*
X106273228Y-104956703D01*
G37*
G36*
X76241379Y-99463813D02*
G01*
X76480991Y-99554713D01*
X76698265Y-99690613D01*
X76884852Y-99866288D01*
X76996209Y-100022550D01*
X77033580Y-100074990D01*
X77138735Y-100308697D01*
X77138736Y-100308701D01*
X77196276Y-100558428D01*
X77202058Y-100750394D01*
X77202057Y-100750402D01*
X77153916Y-101456571D01*
X77122135Y-101645983D01*
X77031235Y-101885595D01*
X76978366Y-101970121D01*
X76895335Y-102102869D01*
X76719660Y-102289456D01*
X76563398Y-102400813D01*
X76510958Y-102438184D01*
X76277251Y-102543339D01*
X76277247Y-102543340D01*
X76027521Y-102600880D01*
X75771366Y-102608594D01*
X75771362Y-102608594D01*
X75518621Y-102566187D01*
X75279009Y-102475287D01*
X75061735Y-102339387D01*
X75008703Y-102289456D01*
X74875148Y-102163712D01*
X74759050Y-102000797D01*
X74726420Y-101955010D01*
X74621265Y-101721303D01*
X74602107Y-101638157D01*
X74563724Y-101471572D01*
X74557942Y-101279608D01*
X74606084Y-100573428D01*
X74610650Y-100546213D01*
X74637865Y-100384017D01*
X74728765Y-100144405D01*
X74864665Y-99927131D01*
X74921950Y-99866288D01*
X75040340Y-99740544D01*
X75196602Y-99629187D01*
X75249042Y-99591816D01*
X75482749Y-99486661D01*
X75482753Y-99486660D01*
X75732479Y-99429120D01*
X75988634Y-99421406D01*
X75988638Y-99421406D01*
X76241379Y-99463813D01*
G37*
G36*
X82401294Y-97502236D02*
G01*
X82486471Y-97508753D01*
X82526253Y-97519879D01*
X82733275Y-97577777D01*
X82961870Y-97693625D01*
X83163472Y-97851843D01*
X83330334Y-98046353D01*
X83456043Y-98269678D01*
X83534358Y-98508931D01*
X83535768Y-98513239D01*
X83566444Y-98767666D01*
X83566444Y-98767667D01*
X83546895Y-99023195D01*
X83492955Y-99216060D01*
X83477870Y-99270000D01*
X83434460Y-99355657D01*
X83391050Y-99441316D01*
X82113454Y-101446738D01*
X82113452Y-101446740D01*
X81994880Y-101597826D01*
X81800373Y-101764686D01*
X81663755Y-101841587D01*
X81577045Y-101890396D01*
X81379648Y-101955010D01*
X81333484Y-101970121D01*
X81079057Y-102000797D01*
X81079056Y-102000797D01*
X80823529Y-101981248D01*
X80576725Y-101912223D01*
X80576724Y-101912223D01*
X80576722Y-101912222D01*
X80348135Y-101796378D01*
X80348133Y-101796377D01*
X80348130Y-101796375D01*
X80146528Y-101638157D01*
X80146524Y-101638154D01*
X79979667Y-101443650D01*
X79853958Y-101220323D01*
X79853957Y-101220322D01*
X79774233Y-100976764D01*
X79774232Y-100976761D01*
X79743556Y-100722334D01*
X79754948Y-100573429D01*
X79763105Y-100466806D01*
X79832130Y-100220002D01*
X79832130Y-100220001D01*
X79875540Y-100134344D01*
X79918950Y-100048685D01*
X81196545Y-98043262D01*
X81315119Y-97892175D01*
X81509629Y-97725313D01*
X81509630Y-97725312D01*
X81732948Y-97599606D01*
X81732954Y-97599604D01*
X81976511Y-97519880D01*
X81976512Y-97519880D01*
X81976515Y-97519879D01*
X82230941Y-97489203D01*
X82230943Y-97489203D01*
X82401294Y-97502236D01*
G37*
G36*
X163716294Y-90512236D02*
G01*
X163801471Y-90518753D01*
X163841253Y-90529879D01*
X164048275Y-90587777D01*
X164276870Y-90703625D01*
X164478472Y-90861843D01*
X164645334Y-91056353D01*
X164771043Y-91279678D01*
X164834400Y-91473236D01*
X164850768Y-91523239D01*
X164878060Y-91749599D01*
X164881444Y-91777667D01*
X164861895Y-92033195D01*
X164824669Y-92166299D01*
X164792870Y-92280000D01*
X164754559Y-92355596D01*
X164706050Y-92451316D01*
X163428454Y-94456738D01*
X163428452Y-94456740D01*
X163309880Y-94607826D01*
X163115373Y-94774686D01*
X162980873Y-94850395D01*
X162892045Y-94900396D01*
X162724862Y-94955120D01*
X162648484Y-94980121D01*
X162394057Y-95010797D01*
X162394056Y-95010797D01*
X162138529Y-94991248D01*
X161891725Y-94922223D01*
X161891724Y-94922223D01*
X161891722Y-94922222D01*
X161663135Y-94806378D01*
X161663133Y-94806377D01*
X161663130Y-94806375D01*
X161461528Y-94648157D01*
X161461524Y-94648154D01*
X161294667Y-94453650D01*
X161168958Y-94230323D01*
X161168957Y-94230322D01*
X161089233Y-93986764D01*
X161089232Y-93986761D01*
X161058556Y-93732334D01*
X161062381Y-93682333D01*
X161078105Y-93476806D01*
X161147130Y-93230002D01*
X161147130Y-93230001D01*
X161227770Y-93070880D01*
X161233950Y-93058685D01*
X162511545Y-91053262D01*
X162630119Y-90902175D01*
X162774052Y-90778701D01*
X162824630Y-90735312D01*
X163047948Y-90609606D01*
X163109665Y-90589404D01*
X163291511Y-90529880D01*
X163291512Y-90529880D01*
X163291515Y-90529879D01*
X163545941Y-90499203D01*
X163545943Y-90499203D01*
X163716294Y-90512236D01*
G37*
G36*
X144716294Y-90512236D02*
G01*
X144801471Y-90518753D01*
X144841253Y-90529879D01*
X145048275Y-90587777D01*
X145276870Y-90703625D01*
X145478472Y-90861843D01*
X145645334Y-91056353D01*
X145771043Y-91279678D01*
X145834400Y-91473236D01*
X145850768Y-91523239D01*
X145878060Y-91749599D01*
X145881444Y-91777667D01*
X145861895Y-92033195D01*
X145824669Y-92166299D01*
X145792870Y-92280000D01*
X145754559Y-92355596D01*
X145706050Y-92451316D01*
X144428454Y-94456738D01*
X144428452Y-94456740D01*
X144309880Y-94607826D01*
X144115373Y-94774686D01*
X143980873Y-94850395D01*
X143892045Y-94900396D01*
X143724862Y-94955120D01*
X143648484Y-94980121D01*
X143394057Y-95010797D01*
X143394056Y-95010797D01*
X143138529Y-94991248D01*
X142891725Y-94922223D01*
X142891724Y-94922223D01*
X142891722Y-94922222D01*
X142663135Y-94806378D01*
X142663133Y-94806377D01*
X142663130Y-94806375D01*
X142461528Y-94648157D01*
X142461524Y-94648154D01*
X142294667Y-94453650D01*
X142168958Y-94230323D01*
X142168957Y-94230322D01*
X142089233Y-93986764D01*
X142089232Y-93986761D01*
X142058556Y-93732334D01*
X142062381Y-93682333D01*
X142078105Y-93476806D01*
X142147130Y-93230002D01*
X142147130Y-93230001D01*
X142227770Y-93070880D01*
X142233950Y-93058685D01*
X143511545Y-91053262D01*
X143630119Y-90902175D01*
X143774052Y-90778701D01*
X143824630Y-90735312D01*
X144047948Y-90609606D01*
X144109665Y-90589404D01*
X144291511Y-90529880D01*
X144291512Y-90529880D01*
X144291515Y-90529879D01*
X144545941Y-90499203D01*
X144545943Y-90499203D01*
X144716294Y-90512236D01*
G37*
G36*
X182716294Y-90512236D02*
G01*
X182801471Y-90518753D01*
X182841253Y-90529879D01*
X183048275Y-90587777D01*
X183276870Y-90703625D01*
X183478472Y-90861843D01*
X183645334Y-91056353D01*
X183771043Y-91279678D01*
X183834400Y-91473236D01*
X183850768Y-91523239D01*
X183878060Y-91749599D01*
X183881444Y-91777667D01*
X183861895Y-92033195D01*
X183824669Y-92166299D01*
X183792870Y-92280000D01*
X183754559Y-92355596D01*
X183706050Y-92451316D01*
X182428454Y-94456738D01*
X182428452Y-94456740D01*
X182309880Y-94607826D01*
X182115373Y-94774686D01*
X181980873Y-94850395D01*
X181892045Y-94900396D01*
X181724862Y-94955120D01*
X181648484Y-94980121D01*
X181394057Y-95010797D01*
X181394056Y-95010797D01*
X181138529Y-94991248D01*
X180891725Y-94922223D01*
X180891724Y-94922223D01*
X180891722Y-94922222D01*
X180663135Y-94806378D01*
X180663133Y-94806377D01*
X180663130Y-94806375D01*
X180461528Y-94648157D01*
X180461524Y-94648154D01*
X180294667Y-94453650D01*
X180168958Y-94230323D01*
X180168957Y-94230322D01*
X180089233Y-93986764D01*
X180089232Y-93986761D01*
X180058556Y-93732334D01*
X180062381Y-93682333D01*
X180078105Y-93476806D01*
X180147130Y-93230002D01*
X180147130Y-93230001D01*
X180227770Y-93070880D01*
X180233950Y-93058685D01*
X181511545Y-91053262D01*
X181630119Y-90902175D01*
X181774052Y-90778701D01*
X181824630Y-90735312D01*
X182047948Y-90609606D01*
X182109665Y-90589404D01*
X182291511Y-90529880D01*
X182291512Y-90529880D01*
X182291515Y-90529879D01*
X182545941Y-90499203D01*
X182545943Y-90499203D01*
X182716294Y-90512236D01*
G37*
G36*
X125716294Y-90487236D02*
G01*
X125801471Y-90493753D01*
X125841253Y-90504879D01*
X126048275Y-90562777D01*
X126276870Y-90678625D01*
X126478472Y-90836843D01*
X126645334Y-91031353D01*
X126771043Y-91254678D01*
X126842584Y-91473236D01*
X126850768Y-91498239D01*
X126853782Y-91523239D01*
X126881444Y-91752667D01*
X126861895Y-92008195D01*
X126838741Y-92090983D01*
X126792870Y-92255000D01*
X126754559Y-92330596D01*
X126706050Y-92426316D01*
X125428454Y-94431738D01*
X125411257Y-94453650D01*
X125309880Y-94582826D01*
X125115373Y-94749686D01*
X125014657Y-94806378D01*
X124892045Y-94875396D01*
X124724862Y-94930120D01*
X124648484Y-94955121D01*
X124394057Y-94985797D01*
X124394056Y-94985797D01*
X124138529Y-94966248D01*
X123891725Y-94897223D01*
X123891724Y-94897223D01*
X123891722Y-94897222D01*
X123663135Y-94781378D01*
X123663133Y-94781377D01*
X123663130Y-94781375D01*
X123461528Y-94623157D01*
X123461524Y-94623154D01*
X123294667Y-94428650D01*
X123183030Y-94230323D01*
X123168957Y-94205322D01*
X123089233Y-93961764D01*
X123089232Y-93961761D01*
X123058556Y-93707334D01*
X123060469Y-93682333D01*
X123078105Y-93451806D01*
X123147130Y-93205002D01*
X123147130Y-93205001D01*
X123211191Y-93078594D01*
X123233950Y-93033685D01*
X124511545Y-91028262D01*
X124630119Y-90877175D01*
X124715399Y-90804017D01*
X124824630Y-90710312D01*
X125047948Y-90584606D01*
X125109665Y-90564404D01*
X125291511Y-90504880D01*
X125291512Y-90504880D01*
X125291515Y-90504879D01*
X125545941Y-90474203D01*
X125545943Y-90474203D01*
X125716294Y-90487236D01*
G37*
G36*
X106691294Y-90487236D02*
G01*
X106776471Y-90493753D01*
X106816253Y-90504879D01*
X107023275Y-90562777D01*
X107251870Y-90678625D01*
X107453472Y-90836843D01*
X107620334Y-91031353D01*
X107746043Y-91254678D01*
X107817584Y-91473236D01*
X107825768Y-91498239D01*
X107828782Y-91523239D01*
X107856444Y-91752667D01*
X107836895Y-92008195D01*
X107813741Y-92090983D01*
X107767870Y-92255000D01*
X107729559Y-92330596D01*
X107681050Y-92426316D01*
X106403454Y-94431738D01*
X106386257Y-94453650D01*
X106284880Y-94582826D01*
X106090373Y-94749686D01*
X105989657Y-94806378D01*
X105867045Y-94875396D01*
X105699862Y-94930120D01*
X105623484Y-94955121D01*
X105369057Y-94985797D01*
X105369056Y-94985797D01*
X105113529Y-94966248D01*
X104866725Y-94897223D01*
X104866724Y-94897223D01*
X104866722Y-94897222D01*
X104638135Y-94781378D01*
X104638133Y-94781377D01*
X104638130Y-94781375D01*
X104436528Y-94623157D01*
X104436524Y-94623154D01*
X104269667Y-94428650D01*
X104158030Y-94230323D01*
X104143957Y-94205322D01*
X104064233Y-93961764D01*
X104064232Y-93961761D01*
X104033556Y-93707334D01*
X104035469Y-93682333D01*
X104053105Y-93451806D01*
X104122130Y-93205002D01*
X104122130Y-93205001D01*
X104186191Y-93078594D01*
X104208950Y-93033685D01*
X105486545Y-91028262D01*
X105605119Y-90877175D01*
X105690399Y-90804017D01*
X105799630Y-90710312D01*
X106022948Y-90584606D01*
X106084665Y-90564404D01*
X106266511Y-90504880D01*
X106266512Y-90504880D01*
X106266515Y-90504879D01*
X106520941Y-90474203D01*
X106520943Y-90474203D01*
X106691294Y-90487236D01*
G37*
G36*
X201766294Y-90462236D02*
G01*
X201851471Y-90468753D01*
X201891253Y-90479879D01*
X202098275Y-90537777D01*
X202326870Y-90653625D01*
X202326872Y-90653626D01*
X202326873Y-90653627D01*
X202390583Y-90703627D01*
X202528472Y-90811843D01*
X202695334Y-91006353D01*
X202821043Y-91229678D01*
X202899358Y-91468931D01*
X202900768Y-91473239D01*
X202903782Y-91498239D01*
X202931444Y-91727667D01*
X202911895Y-91983195D01*
X202888741Y-92065983D01*
X202842870Y-92230000D01*
X202804559Y-92305596D01*
X202756050Y-92401316D01*
X201478454Y-94406738D01*
X201441637Y-94453650D01*
X201359880Y-94557826D01*
X201165373Y-94724686D01*
X201064657Y-94781378D01*
X200942045Y-94850396D01*
X200722612Y-94922223D01*
X200698484Y-94930121D01*
X200444057Y-94960797D01*
X200444056Y-94960797D01*
X200188529Y-94941248D01*
X199941725Y-94872223D01*
X199941724Y-94872223D01*
X199941722Y-94872222D01*
X199713135Y-94756378D01*
X199713133Y-94756377D01*
X199713130Y-94756375D01*
X199511528Y-94598157D01*
X199511524Y-94598154D01*
X199344667Y-94403650D01*
X199267766Y-94267032D01*
X199218957Y-94180322D01*
X199139233Y-93936764D01*
X199139232Y-93936761D01*
X199108556Y-93682334D01*
X199108556Y-93682333D01*
X199128105Y-93426806D01*
X199183146Y-93230002D01*
X199197130Y-93180001D01*
X199261191Y-93053594D01*
X199283950Y-93008685D01*
X200561545Y-91003262D01*
X200680119Y-90852175D01*
X200765772Y-90778697D01*
X200874630Y-90685312D01*
X201097948Y-90559606D01*
X201142606Y-90544988D01*
X201341511Y-90479880D01*
X201341512Y-90479880D01*
X201341515Y-90479879D01*
X201595941Y-90449203D01*
X201595943Y-90449203D01*
X201766294Y-90462236D01*
G37*
G36*
X150106379Y-89933813D02*
G01*
X150345991Y-90024713D01*
X150563155Y-90160544D01*
X150563265Y-90160613D01*
X150749852Y-90336288D01*
X150848134Y-90474203D01*
X150898580Y-90544990D01*
X151003735Y-90778697D01*
X151003736Y-90778701D01*
X151061276Y-91028428D01*
X151067058Y-91220394D01*
X151063016Y-91279678D01*
X151018916Y-91926571D01*
X150987135Y-92115983D01*
X150896235Y-92355595D01*
X150791609Y-92522869D01*
X150760335Y-92572869D01*
X150584660Y-92759456D01*
X150446120Y-92858184D01*
X150375958Y-92908184D01*
X150142251Y-93013339D01*
X150142247Y-93013340D01*
X149892521Y-93070880D01*
X149636366Y-93078594D01*
X149636362Y-93078594D01*
X149383621Y-93036187D01*
X149144009Y-92945287D01*
X148926735Y-92809387D01*
X148873703Y-92759456D01*
X148740148Y-92633712D01*
X148592351Y-92426316D01*
X148591420Y-92425010D01*
X148486265Y-92191303D01*
X148474744Y-92141303D01*
X148428724Y-91941572D01*
X148422942Y-91749608D01*
X148471084Y-91043428D01*
X148477824Y-91003260D01*
X148502865Y-90854017D01*
X148593765Y-90614405D01*
X148729665Y-90397131D01*
X148786950Y-90336288D01*
X148905340Y-90210544D01*
X149061602Y-90099187D01*
X149114042Y-90061816D01*
X149347749Y-89956661D01*
X149347753Y-89956660D01*
X149597479Y-89899120D01*
X149853634Y-89891406D01*
X149853638Y-89891406D01*
X150106379Y-89933813D01*
G37*
G36*
X188106379Y-89933813D02*
G01*
X188345991Y-90024713D01*
X188563155Y-90160544D01*
X188563265Y-90160613D01*
X188749852Y-90336288D01*
X188848134Y-90474203D01*
X188898580Y-90544990D01*
X189003735Y-90778697D01*
X189003736Y-90778701D01*
X189061276Y-91028428D01*
X189067058Y-91220394D01*
X189063016Y-91279678D01*
X189018916Y-91926571D01*
X188987135Y-92115983D01*
X188896235Y-92355595D01*
X188791609Y-92522869D01*
X188760335Y-92572869D01*
X188584660Y-92759456D01*
X188446120Y-92858184D01*
X188375958Y-92908184D01*
X188142251Y-93013339D01*
X188142247Y-93013340D01*
X187892521Y-93070880D01*
X187636366Y-93078594D01*
X187636362Y-93078594D01*
X187383621Y-93036187D01*
X187144009Y-92945287D01*
X186926735Y-92809387D01*
X186873703Y-92759456D01*
X186740148Y-92633712D01*
X186592351Y-92426316D01*
X186591420Y-92425010D01*
X186486265Y-92191303D01*
X186474744Y-92141303D01*
X186428724Y-91941572D01*
X186422942Y-91749608D01*
X186471084Y-91043428D01*
X186477824Y-91003260D01*
X186502865Y-90854017D01*
X186593765Y-90614405D01*
X186729665Y-90397131D01*
X186786950Y-90336288D01*
X186905340Y-90210544D01*
X187061602Y-90099187D01*
X187114042Y-90061816D01*
X187347749Y-89956661D01*
X187347753Y-89956660D01*
X187597479Y-89899120D01*
X187853634Y-89891406D01*
X187853638Y-89891406D01*
X188106379Y-89933813D01*
G37*
G36*
X169106379Y-89933813D02*
G01*
X169345991Y-90024713D01*
X169563155Y-90160544D01*
X169563265Y-90160613D01*
X169749852Y-90336288D01*
X169848134Y-90474203D01*
X169898580Y-90544990D01*
X170003735Y-90778697D01*
X170003736Y-90778701D01*
X170061276Y-91028428D01*
X170067058Y-91220394D01*
X170063016Y-91279678D01*
X170018916Y-91926571D01*
X169987135Y-92115983D01*
X169896235Y-92355595D01*
X169791609Y-92522869D01*
X169760335Y-92572869D01*
X169584660Y-92759456D01*
X169446120Y-92858184D01*
X169375958Y-92908184D01*
X169142251Y-93013339D01*
X169142247Y-93013340D01*
X168892521Y-93070880D01*
X168636366Y-93078594D01*
X168636362Y-93078594D01*
X168383621Y-93036187D01*
X168144009Y-92945287D01*
X167926735Y-92809387D01*
X167873703Y-92759456D01*
X167740148Y-92633712D01*
X167592351Y-92426316D01*
X167591420Y-92425010D01*
X167486265Y-92191303D01*
X167474744Y-92141303D01*
X167428724Y-91941572D01*
X167422942Y-91749608D01*
X167471084Y-91043428D01*
X167477824Y-91003260D01*
X167502865Y-90854017D01*
X167593765Y-90614405D01*
X167729665Y-90397131D01*
X167786950Y-90336288D01*
X167905340Y-90210544D01*
X168061602Y-90099187D01*
X168114042Y-90061816D01*
X168347749Y-89956661D01*
X168347753Y-89956660D01*
X168597479Y-89899120D01*
X168853634Y-89891406D01*
X168853638Y-89891406D01*
X169106379Y-89933813D01*
G37*
G36*
X131106379Y-89908813D02*
G01*
X131345991Y-89999713D01*
X131563265Y-90135613D01*
X131749852Y-90311288D01*
X131811026Y-90397131D01*
X131898580Y-90519990D01*
X132003735Y-90753697D01*
X132003736Y-90753701D01*
X132061276Y-91003428D01*
X132067058Y-91195394D01*
X132063016Y-91254678D01*
X132018916Y-91901571D01*
X131987135Y-92090983D01*
X131896235Y-92330595D01*
X131820727Y-92451315D01*
X131760335Y-92547869D01*
X131584660Y-92734456D01*
X131428398Y-92845813D01*
X131375958Y-92883184D01*
X131142251Y-92988339D01*
X131142247Y-92988340D01*
X130892521Y-93045880D01*
X130636366Y-93053594D01*
X130636362Y-93053594D01*
X130383621Y-93011187D01*
X130144009Y-92920287D01*
X129926735Y-92784387D01*
X129740148Y-92608712D01*
X129610166Y-92426315D01*
X129591420Y-92400010D01*
X129486265Y-92166303D01*
X129444075Y-91983195D01*
X129428724Y-91916572D01*
X129422942Y-91724608D01*
X129471084Y-91018428D01*
X129477796Y-90978428D01*
X129502865Y-90829017D01*
X129593765Y-90589405D01*
X129729665Y-90372131D01*
X129786950Y-90311288D01*
X129905340Y-90185544D01*
X130061602Y-90074187D01*
X130114042Y-90036816D01*
X130347749Y-89931661D01*
X130347753Y-89931660D01*
X130597479Y-89874120D01*
X130853634Y-89866406D01*
X130853638Y-89866406D01*
X131106379Y-89908813D01*
G37*
G36*
X112081379Y-89908813D02*
G01*
X112320991Y-89999713D01*
X112538265Y-90135613D01*
X112724852Y-90311288D01*
X112786026Y-90397131D01*
X112873580Y-90519990D01*
X112978735Y-90753697D01*
X112978736Y-90753701D01*
X113036276Y-91003428D01*
X113042058Y-91195394D01*
X113038016Y-91254678D01*
X112993916Y-91901571D01*
X112962135Y-92090983D01*
X112871235Y-92330595D01*
X112795727Y-92451315D01*
X112735335Y-92547869D01*
X112559660Y-92734456D01*
X112403398Y-92845813D01*
X112350958Y-92883184D01*
X112117251Y-92988339D01*
X112117247Y-92988340D01*
X111867521Y-93045880D01*
X111611366Y-93053594D01*
X111611362Y-93053594D01*
X111358621Y-93011187D01*
X111119009Y-92920287D01*
X110901735Y-92784387D01*
X110715148Y-92608712D01*
X110585166Y-92426315D01*
X110566420Y-92400010D01*
X110461265Y-92166303D01*
X110419075Y-91983195D01*
X110403724Y-91916572D01*
X110397942Y-91724608D01*
X110446084Y-91018428D01*
X110452796Y-90978428D01*
X110477865Y-90829017D01*
X110568765Y-90589405D01*
X110704665Y-90372131D01*
X110761950Y-90311288D01*
X110880340Y-90185544D01*
X111036602Y-90074187D01*
X111089042Y-90036816D01*
X111322749Y-89931661D01*
X111322753Y-89931660D01*
X111572479Y-89874120D01*
X111828634Y-89866406D01*
X111828638Y-89866406D01*
X112081379Y-89908813D01*
G37*
G36*
X207156379Y-89883813D02*
G01*
X207395991Y-89974713D01*
X207613265Y-90110613D01*
X207799852Y-90286288D01*
X207861026Y-90372131D01*
X207948580Y-90494990D01*
X208053735Y-90728697D01*
X208053736Y-90728701D01*
X208111276Y-90978428D01*
X208117058Y-91170394D01*
X208100455Y-91413928D01*
X208068916Y-91876571D01*
X208037135Y-92065983D01*
X207946235Y-92305595D01*
X207871542Y-92425012D01*
X207810335Y-92522869D01*
X207634660Y-92709456D01*
X207478398Y-92820813D01*
X207425958Y-92858184D01*
X207192251Y-92963339D01*
X207192247Y-92963340D01*
X206942521Y-93020880D01*
X206686366Y-93028594D01*
X206686362Y-93028594D01*
X206433621Y-92986187D01*
X206194009Y-92895287D01*
X205976735Y-92759387D01*
X205790148Y-92583712D01*
X205660166Y-92401315D01*
X205641420Y-92375010D01*
X205536265Y-92141303D01*
X205490245Y-91941572D01*
X205478724Y-91891572D01*
X205472942Y-91699608D01*
X205521084Y-90993428D01*
X205525650Y-90966213D01*
X205552865Y-90804017D01*
X205643765Y-90564405D01*
X205779665Y-90347131D01*
X205836950Y-90286288D01*
X205955340Y-90160544D01*
X206111602Y-90049187D01*
X206164042Y-90011816D01*
X206397749Y-89906661D01*
X206430477Y-89899120D01*
X206647479Y-89849120D01*
X206903634Y-89841406D01*
X206903638Y-89841406D01*
X207156379Y-89883813D01*
G37*
G36*
X189373228Y-86031703D02*
G01*
X189528100Y-86095853D01*
X189667481Y-86188985D01*
X189786015Y-86307519D01*
X189879147Y-86446900D01*
X189943297Y-86601772D01*
X189976000Y-86766184D01*
X189976000Y-86933816D01*
X189943297Y-87098228D01*
X189879147Y-87253100D01*
X189786015Y-87392481D01*
X189667481Y-87511015D01*
X189528100Y-87604147D01*
X189373228Y-87668297D01*
X189208816Y-87701000D01*
X189041184Y-87701000D01*
X188876772Y-87668297D01*
X188721900Y-87604147D01*
X188582519Y-87511015D01*
X188463985Y-87392481D01*
X188370853Y-87253100D01*
X188306703Y-87098228D01*
X188274000Y-86933816D01*
X188274000Y-86766184D01*
X188306703Y-86601772D01*
X188370853Y-86446900D01*
X188463985Y-86307519D01*
X188582519Y-86188985D01*
X188721900Y-86095853D01*
X188876772Y-86031703D01*
X189041184Y-85999000D01*
X189208816Y-85999000D01*
X189373228Y-86031703D01*
G37*
G36*
X182176000Y-87701000D02*
G01*
X180474000Y-87701000D01*
X180474000Y-85999000D01*
X182176000Y-85999000D01*
X182176000Y-87701000D01*
G37*
G36*
X151448228Y-86031703D02*
G01*
X151603100Y-86095853D01*
X151742481Y-86188985D01*
X151861015Y-86307519D01*
X151954147Y-86446900D01*
X152018297Y-86601772D01*
X152051000Y-86766184D01*
X152051000Y-86933816D01*
X152018297Y-87098228D01*
X151954147Y-87253100D01*
X151861015Y-87392481D01*
X151742481Y-87511015D01*
X151603100Y-87604147D01*
X151448228Y-87668297D01*
X151283816Y-87701000D01*
X151116184Y-87701000D01*
X150951772Y-87668297D01*
X150796900Y-87604147D01*
X150657519Y-87511015D01*
X150538985Y-87392481D01*
X150445853Y-87253100D01*
X150381703Y-87098228D01*
X150349000Y-86933816D01*
X150349000Y-86766184D01*
X150381703Y-86601772D01*
X150445853Y-86446900D01*
X150538985Y-86307519D01*
X150657519Y-86188985D01*
X150796900Y-86095853D01*
X150951772Y-86031703D01*
X151116184Y-85999000D01*
X151283816Y-85999000D01*
X151448228Y-86031703D01*
G37*
G36*
X144251000Y-87701000D02*
G01*
X142549000Y-87701000D01*
X142549000Y-85999000D01*
X144251000Y-85999000D01*
X144251000Y-87701000D01*
G37*
G36*
X163226000Y-87701000D02*
G01*
X161524000Y-87701000D01*
X161524000Y-85999000D01*
X163226000Y-85999000D01*
X163226000Y-87701000D01*
G37*
G36*
X170423228Y-86031703D02*
G01*
X170578100Y-86095853D01*
X170717481Y-86188985D01*
X170836015Y-86307519D01*
X170929147Y-86446900D01*
X170993297Y-86601772D01*
X171026000Y-86766184D01*
X171026000Y-86933816D01*
X170993297Y-87098228D01*
X170929147Y-87253100D01*
X170836015Y-87392481D01*
X170717481Y-87511015D01*
X170578100Y-87604147D01*
X170423228Y-87668297D01*
X170258816Y-87701000D01*
X170091184Y-87701000D01*
X169926772Y-87668297D01*
X169771900Y-87604147D01*
X169632519Y-87511015D01*
X169513985Y-87392481D01*
X169420853Y-87253100D01*
X169356703Y-87098228D01*
X169324000Y-86933816D01*
X169324000Y-86766184D01*
X169356703Y-86601772D01*
X169420853Y-86446900D01*
X169513985Y-86307519D01*
X169632519Y-86188985D01*
X169771900Y-86095853D01*
X169926772Y-86031703D01*
X170091184Y-85999000D01*
X170258816Y-85999000D01*
X170423228Y-86031703D01*
G37*
G36*
X75301000Y-87676000D02*
G01*
X73599000Y-87676000D01*
X73599000Y-85974000D01*
X75301000Y-85974000D01*
X75301000Y-87676000D01*
G37*
G36*
X132498228Y-86006703D02*
G01*
X132653100Y-86070853D01*
X132792481Y-86163985D01*
X132911015Y-86282519D01*
X133004147Y-86421900D01*
X133068297Y-86576772D01*
X133101000Y-86741184D01*
X133101000Y-86908816D01*
X133068297Y-87073228D01*
X133004147Y-87228100D01*
X132911015Y-87367481D01*
X132792481Y-87486015D01*
X132653100Y-87579147D01*
X132498228Y-87643297D01*
X132333816Y-87676000D01*
X132166184Y-87676000D01*
X132001772Y-87643297D01*
X131846900Y-87579147D01*
X131707519Y-87486015D01*
X131588985Y-87367481D01*
X131495853Y-87228100D01*
X131431703Y-87073228D01*
X131399000Y-86908816D01*
X131399000Y-86741184D01*
X131431703Y-86576772D01*
X131495853Y-86421900D01*
X131588985Y-86282519D01*
X131707519Y-86163985D01*
X131846900Y-86070853D01*
X132001772Y-86006703D01*
X132166184Y-85974000D01*
X132333816Y-85974000D01*
X132498228Y-86006703D01*
G37*
G36*
X125301000Y-87676000D02*
G01*
X123599000Y-87676000D01*
X123599000Y-85974000D01*
X125301000Y-85974000D01*
X125301000Y-87676000D01*
G37*
G36*
X113473228Y-86006703D02*
G01*
X113628100Y-86070853D01*
X113767481Y-86163985D01*
X113886015Y-86282519D01*
X113979147Y-86421900D01*
X114043297Y-86576772D01*
X114076000Y-86741184D01*
X114076000Y-86908816D01*
X114043297Y-87073228D01*
X113979147Y-87228100D01*
X113886015Y-87367481D01*
X113767481Y-87486015D01*
X113628100Y-87579147D01*
X113473228Y-87643297D01*
X113308816Y-87676000D01*
X113141184Y-87676000D01*
X112976772Y-87643297D01*
X112821900Y-87579147D01*
X112682519Y-87486015D01*
X112563985Y-87367481D01*
X112470853Y-87228100D01*
X112406703Y-87073228D01*
X112374000Y-86908816D01*
X112374000Y-86741184D01*
X112406703Y-86576772D01*
X112470853Y-86421900D01*
X112563985Y-86282519D01*
X112682519Y-86163985D01*
X112821900Y-86070853D01*
X112976772Y-86006703D01*
X113141184Y-85974000D01*
X113308816Y-85974000D01*
X113473228Y-86006703D01*
G37*
G36*
X106276000Y-87676000D02*
G01*
X104574000Y-87676000D01*
X104574000Y-85974000D01*
X106276000Y-85974000D01*
X106276000Y-87676000D01*
G37*
G36*
X82498228Y-86006703D02*
G01*
X82653100Y-86070853D01*
X82792481Y-86163985D01*
X82911015Y-86282519D01*
X83004147Y-86421900D01*
X83068297Y-86576772D01*
X83101000Y-86741184D01*
X83101000Y-86908816D01*
X83068297Y-87073228D01*
X83004147Y-87228100D01*
X82911015Y-87367481D01*
X82792481Y-87486015D01*
X82653100Y-87579147D01*
X82498228Y-87643297D01*
X82333816Y-87676000D01*
X82166184Y-87676000D01*
X82001772Y-87643297D01*
X81846900Y-87579147D01*
X81707519Y-87486015D01*
X81588985Y-87367481D01*
X81495853Y-87228100D01*
X81431703Y-87073228D01*
X81399000Y-86908816D01*
X81399000Y-86741184D01*
X81431703Y-86576772D01*
X81495853Y-86421900D01*
X81588985Y-86282519D01*
X81707519Y-86163985D01*
X81846900Y-86070853D01*
X82001772Y-86006703D01*
X82166184Y-85974000D01*
X82333816Y-85974000D01*
X82498228Y-86006703D01*
G37*
G36*
X208448228Y-85981703D02*
G01*
X208603100Y-86045853D01*
X208742481Y-86138985D01*
X208861015Y-86257519D01*
X208954147Y-86396900D01*
X209018297Y-86551772D01*
X209051000Y-86716184D01*
X209051000Y-86883816D01*
X209018297Y-87048228D01*
X208954147Y-87203100D01*
X208861015Y-87342481D01*
X208742481Y-87461015D01*
X208603100Y-87554147D01*
X208448228Y-87618297D01*
X208283816Y-87651000D01*
X208116184Y-87651000D01*
X207951772Y-87618297D01*
X207796900Y-87554147D01*
X207657519Y-87461015D01*
X207538985Y-87342481D01*
X207445853Y-87203100D01*
X207381703Y-87048228D01*
X207349000Y-86883816D01*
X207349000Y-86716184D01*
X207381703Y-86551772D01*
X207445853Y-86396900D01*
X207538985Y-86257519D01*
X207657519Y-86138985D01*
X207796900Y-86045853D01*
X207951772Y-85981703D01*
X208116184Y-85949000D01*
X208283816Y-85949000D01*
X208448228Y-85981703D01*
G37*
G36*
X201251000Y-87651000D02*
G01*
X199549000Y-87651000D01*
X199549000Y-85949000D01*
X201251000Y-85949000D01*
X201251000Y-87651000D01*
G37*
G36*
X87308254Y-75267818D02*
G01*
X87681511Y-75422426D01*
X87681513Y-75422427D01*
X87944511Y-75598157D01*
X88017436Y-75646884D01*
X88303116Y-75932564D01*
X88527574Y-76268489D01*
X88682182Y-76641746D01*
X88761000Y-77037993D01*
X88761000Y-77442007D01*
X88682182Y-77838254D01*
X88527574Y-78211511D01*
X88527573Y-78211513D01*
X88303116Y-78547436D01*
X88017436Y-78833116D01*
X87681513Y-79057573D01*
X87681512Y-79057574D01*
X87681511Y-79057574D01*
X87308254Y-79212182D01*
X86912007Y-79291000D01*
X86507993Y-79291000D01*
X86111746Y-79212182D01*
X85738489Y-79057574D01*
X85738488Y-79057574D01*
X85738487Y-79057573D01*
X85402564Y-78833116D01*
X85116884Y-78547436D01*
X84892427Y-78211513D01*
X84892426Y-78211511D01*
X84737818Y-77838254D01*
X84659000Y-77442007D01*
X84659000Y-77037993D01*
X84737818Y-76641746D01*
X84892426Y-76268489D01*
X85116884Y-75932564D01*
X85402564Y-75646884D01*
X85475489Y-75598157D01*
X85738487Y-75422427D01*
X85738489Y-75422426D01*
X86111746Y-75267818D01*
X86507993Y-75189000D01*
X86912007Y-75189000D01*
X87308254Y-75267818D01*
G37*
G36*
X97241294Y-71512236D02*
G01*
X97326471Y-71518753D01*
X97366253Y-71529879D01*
X97573275Y-71587777D01*
X97801870Y-71703625D01*
X98003472Y-71861843D01*
X98170334Y-72056353D01*
X98296043Y-72279678D01*
X98351217Y-72448236D01*
X98375768Y-72523239D01*
X98403060Y-72749599D01*
X98406444Y-72777667D01*
X98386895Y-73033195D01*
X98349669Y-73166299D01*
X98317870Y-73280000D01*
X98279559Y-73355596D01*
X98231050Y-73451316D01*
X96953454Y-75456738D01*
X96953452Y-75456740D01*
X96834880Y-75607826D01*
X96640373Y-75774686D01*
X96511510Y-75847222D01*
X96417045Y-75900396D01*
X96249862Y-75955120D01*
X96173484Y-75980121D01*
X95919057Y-76010797D01*
X95919056Y-76010797D01*
X95663529Y-75991248D01*
X95416725Y-75922223D01*
X95416724Y-75922223D01*
X95416722Y-75922222D01*
X95188135Y-75806378D01*
X95188133Y-75806377D01*
X95188130Y-75806375D01*
X94986528Y-75648157D01*
X94986524Y-75648154D01*
X94819667Y-75453650D01*
X94715064Y-75267819D01*
X94693957Y-75230322D01*
X94614233Y-74986764D01*
X94614232Y-74986761D01*
X94583556Y-74732334D01*
X94589294Y-74657333D01*
X94603105Y-74476806D01*
X94672130Y-74230002D01*
X94672130Y-74230001D01*
X94752770Y-74070880D01*
X94758950Y-74058685D01*
X96036545Y-72053262D01*
X96155119Y-71902175D01*
X96289561Y-71786843D01*
X96349630Y-71735312D01*
X96572948Y-71609606D01*
X96634665Y-71589404D01*
X96816511Y-71529880D01*
X96816512Y-71529880D01*
X96816515Y-71529879D01*
X97070941Y-71499203D01*
X97070943Y-71499203D01*
X97241294Y-71512236D01*
G37*
G36*
X135291294Y-71487236D02*
G01*
X135376471Y-71493753D01*
X135416253Y-71504879D01*
X135623275Y-71562777D01*
X135851870Y-71678625D01*
X136053472Y-71836843D01*
X136220334Y-72031353D01*
X136346043Y-72254678D01*
X136409400Y-72448236D01*
X136425768Y-72498239D01*
X136453060Y-72724599D01*
X136456444Y-72752667D01*
X136436895Y-73008195D01*
X136399669Y-73141299D01*
X136367870Y-73255000D01*
X136329559Y-73330596D01*
X136281050Y-73426316D01*
X135003454Y-75431738D01*
X134986257Y-75453650D01*
X134884880Y-75582826D01*
X134690373Y-75749686D01*
X134589657Y-75806378D01*
X134467045Y-75875396D01*
X134282519Y-75935797D01*
X134223484Y-75955121D01*
X133969057Y-75985797D01*
X133969056Y-75985797D01*
X133713529Y-75966248D01*
X133466725Y-75897223D01*
X133466724Y-75897223D01*
X133466722Y-75897222D01*
X133238135Y-75781378D01*
X133238133Y-75781377D01*
X133238130Y-75781375D01*
X133036528Y-75623157D01*
X133036524Y-75623154D01*
X132869667Y-75428650D01*
X132792766Y-75292032D01*
X132743957Y-75205322D01*
X132664233Y-74961764D01*
X132664232Y-74961761D01*
X132633556Y-74707334D01*
X132637381Y-74657333D01*
X132653105Y-74451806D01*
X132722130Y-74205002D01*
X132722130Y-74205001D01*
X132786191Y-74078594D01*
X132808950Y-74033685D01*
X134086545Y-72028262D01*
X134205119Y-71877175D01*
X134319541Y-71779017D01*
X134399630Y-71710312D01*
X134622948Y-71584606D01*
X134684665Y-71564404D01*
X134866511Y-71504880D01*
X134866512Y-71504880D01*
X134866515Y-71504879D01*
X135120941Y-71474203D01*
X135120943Y-71474203D01*
X135291294Y-71487236D01*
G37*
G36*
X173241294Y-71487236D02*
G01*
X173326471Y-71493753D01*
X173366253Y-71504879D01*
X173573275Y-71562777D01*
X173801870Y-71678625D01*
X174003472Y-71836843D01*
X174170334Y-72031353D01*
X174296043Y-72254678D01*
X174359400Y-72448236D01*
X174375768Y-72498239D01*
X174403060Y-72724599D01*
X174406444Y-72752667D01*
X174386895Y-73008195D01*
X174349669Y-73141299D01*
X174317870Y-73255000D01*
X174279559Y-73330596D01*
X174231050Y-73426316D01*
X172953454Y-75431738D01*
X172936257Y-75453650D01*
X172834880Y-75582826D01*
X172640373Y-75749686D01*
X172539657Y-75806378D01*
X172417045Y-75875396D01*
X172232519Y-75935797D01*
X172173484Y-75955121D01*
X171919057Y-75985797D01*
X171919056Y-75985797D01*
X171663529Y-75966248D01*
X171416725Y-75897223D01*
X171416724Y-75897223D01*
X171416722Y-75897222D01*
X171188135Y-75781378D01*
X171188133Y-75781377D01*
X171188130Y-75781375D01*
X170986528Y-75623157D01*
X170986524Y-75623154D01*
X170819667Y-75428650D01*
X170742766Y-75292032D01*
X170693957Y-75205322D01*
X170614233Y-74961764D01*
X170614232Y-74961761D01*
X170583556Y-74707334D01*
X170587381Y-74657333D01*
X170603105Y-74451806D01*
X170672130Y-74205002D01*
X170672130Y-74205001D01*
X170736191Y-74078594D01*
X170758950Y-74033685D01*
X172036545Y-72028262D01*
X172155119Y-71877175D01*
X172269541Y-71779017D01*
X172349630Y-71710312D01*
X172572948Y-71584606D01*
X172634665Y-71564404D01*
X172816511Y-71504880D01*
X172816512Y-71504880D01*
X172816515Y-71504879D01*
X173070941Y-71474203D01*
X173070943Y-71474203D01*
X173241294Y-71487236D01*
G37*
G36*
X71141294Y-71462236D02*
G01*
X71226471Y-71468753D01*
X71266253Y-71479879D01*
X71473275Y-71537777D01*
X71701870Y-71653625D01*
X71701872Y-71653626D01*
X71701873Y-71653627D01*
X71765583Y-71703627D01*
X71903472Y-71811843D01*
X72070334Y-72006353D01*
X72196043Y-72229678D01*
X72267584Y-72448236D01*
X72275768Y-72473239D01*
X72278782Y-72498239D01*
X72306444Y-72727667D01*
X72286895Y-72983195D01*
X72263741Y-73065983D01*
X72217870Y-73230000D01*
X72179559Y-73305596D01*
X72131050Y-73401316D01*
X70853454Y-75406738D01*
X70816637Y-75453650D01*
X70734880Y-75557826D01*
X70540373Y-75724686D01*
X70439657Y-75781378D01*
X70317045Y-75850396D01*
X70097612Y-75922223D01*
X70073484Y-75930121D01*
X69819057Y-75960797D01*
X69819056Y-75960797D01*
X69563529Y-75941248D01*
X69316725Y-75872223D01*
X69316724Y-75872223D01*
X69316722Y-75872222D01*
X69088135Y-75756378D01*
X69088133Y-75756377D01*
X69088130Y-75756375D01*
X68886528Y-75598157D01*
X68886524Y-75598154D01*
X68719667Y-75403650D01*
X68642766Y-75267032D01*
X68593957Y-75180322D01*
X68514233Y-74936764D01*
X68514232Y-74936761D01*
X68483556Y-74682334D01*
X68485469Y-74657333D01*
X68503105Y-74426806D01*
X68558146Y-74230002D01*
X68572130Y-74180001D01*
X68636191Y-74053594D01*
X68658950Y-74008685D01*
X69936545Y-72003262D01*
X70055119Y-71852175D01*
X70140772Y-71778697D01*
X70249630Y-71685312D01*
X70472948Y-71559606D01*
X70534665Y-71539404D01*
X70716511Y-71479880D01*
X70716512Y-71479880D01*
X70716515Y-71479879D01*
X70970941Y-71449203D01*
X70970943Y-71449203D01*
X71141294Y-71462236D01*
G37*
G36*
X116266294Y-71462236D02*
G01*
X116351471Y-71468753D01*
X116391253Y-71479879D01*
X116598275Y-71537777D01*
X116826870Y-71653625D01*
X116826872Y-71653626D01*
X116826873Y-71653627D01*
X116890583Y-71703627D01*
X117028472Y-71811843D01*
X117195334Y-72006353D01*
X117321043Y-72229678D01*
X117392584Y-72448236D01*
X117400768Y-72473239D01*
X117403782Y-72498239D01*
X117431444Y-72727667D01*
X117411895Y-72983195D01*
X117388741Y-73065983D01*
X117342870Y-73230000D01*
X117304559Y-73305596D01*
X117256050Y-73401316D01*
X115978454Y-75406738D01*
X115941637Y-75453650D01*
X115859880Y-75557826D01*
X115665373Y-75724686D01*
X115564657Y-75781378D01*
X115442045Y-75850396D01*
X115222612Y-75922223D01*
X115198484Y-75930121D01*
X114944057Y-75960797D01*
X114944056Y-75960797D01*
X114688529Y-75941248D01*
X114441725Y-75872223D01*
X114441724Y-75872223D01*
X114441722Y-75872222D01*
X114213135Y-75756378D01*
X114213133Y-75756377D01*
X114213130Y-75756375D01*
X114011528Y-75598157D01*
X114011524Y-75598154D01*
X113844667Y-75403650D01*
X113767766Y-75267032D01*
X113718957Y-75180322D01*
X113639233Y-74936764D01*
X113639232Y-74936761D01*
X113608556Y-74682334D01*
X113610469Y-74657333D01*
X113628105Y-74426806D01*
X113683146Y-74230002D01*
X113697130Y-74180001D01*
X113761191Y-74053594D01*
X113783950Y-74008685D01*
X115061545Y-72003262D01*
X115180119Y-71852175D01*
X115265772Y-71778697D01*
X115374630Y-71685312D01*
X115597948Y-71559606D01*
X115659665Y-71539404D01*
X115841511Y-71479880D01*
X115841512Y-71479880D01*
X115841515Y-71479879D01*
X116095941Y-71449203D01*
X116095943Y-71449203D01*
X116266294Y-71462236D01*
G37*
G36*
X192241294Y-71462236D02*
G01*
X192326471Y-71468753D01*
X192366253Y-71479879D01*
X192573275Y-71537777D01*
X192801870Y-71653625D01*
X192801872Y-71653626D01*
X192801873Y-71653627D01*
X192865583Y-71703627D01*
X193003472Y-71811843D01*
X193170334Y-72006353D01*
X193296043Y-72229678D01*
X193367584Y-72448236D01*
X193375768Y-72473239D01*
X193378782Y-72498239D01*
X193406444Y-72727667D01*
X193386895Y-72983195D01*
X193363741Y-73065983D01*
X193317870Y-73230000D01*
X193279559Y-73305596D01*
X193231050Y-73401316D01*
X191953454Y-75406738D01*
X191916637Y-75453650D01*
X191834880Y-75557826D01*
X191640373Y-75724686D01*
X191539657Y-75781378D01*
X191417045Y-75850396D01*
X191197612Y-75922223D01*
X191173484Y-75930121D01*
X190919057Y-75960797D01*
X190919056Y-75960797D01*
X190663529Y-75941248D01*
X190416725Y-75872223D01*
X190416724Y-75872223D01*
X190416722Y-75872222D01*
X190188135Y-75756378D01*
X190188133Y-75756377D01*
X190188130Y-75756375D01*
X189986528Y-75598157D01*
X189986524Y-75598154D01*
X189819667Y-75403650D01*
X189742766Y-75267032D01*
X189693957Y-75180322D01*
X189614233Y-74936764D01*
X189614232Y-74936761D01*
X189583556Y-74682334D01*
X189585469Y-74657333D01*
X189603105Y-74426806D01*
X189658146Y-74230002D01*
X189672130Y-74180001D01*
X189736191Y-74053594D01*
X189758950Y-74008685D01*
X191036545Y-72003262D01*
X191155119Y-71852175D01*
X191240772Y-71778697D01*
X191349630Y-71685312D01*
X191572948Y-71559606D01*
X191634665Y-71539404D01*
X191816511Y-71479880D01*
X191816512Y-71479880D01*
X191816515Y-71479879D01*
X192070941Y-71449203D01*
X192070943Y-71449203D01*
X192241294Y-71462236D01*
G37*
G36*
X154291294Y-71437236D02*
G01*
X154376471Y-71443753D01*
X154416253Y-71454879D01*
X154623275Y-71512777D01*
X154851870Y-71628625D01*
X154851872Y-71628626D01*
X154851873Y-71628627D01*
X154947438Y-71703627D01*
X155053472Y-71786843D01*
X155220334Y-71981353D01*
X155346043Y-72204678D01*
X155424358Y-72443931D01*
X155425768Y-72448239D01*
X155453060Y-72674599D01*
X155456444Y-72702667D01*
X155436895Y-72958195D01*
X155392677Y-73116299D01*
X155367870Y-73205000D01*
X155329559Y-73280596D01*
X155281050Y-73376316D01*
X154003454Y-75381738D01*
X153966637Y-75428650D01*
X153884880Y-75532826D01*
X153690373Y-75699686D01*
X153589657Y-75756378D01*
X153467045Y-75825396D01*
X153247612Y-75897223D01*
X153223484Y-75905121D01*
X152969057Y-75935797D01*
X152969056Y-75935797D01*
X152713529Y-75916248D01*
X152466725Y-75847223D01*
X152466724Y-75847223D01*
X152466722Y-75847222D01*
X152238135Y-75731378D01*
X152238133Y-75731377D01*
X152238130Y-75731375D01*
X152036528Y-75573157D01*
X152036524Y-75573154D01*
X151869667Y-75378650D01*
X151786174Y-75230322D01*
X151743957Y-75155322D01*
X151664233Y-74911764D01*
X151664232Y-74911761D01*
X151633556Y-74657334D01*
X151633556Y-74657333D01*
X151653105Y-74401806D01*
X151708146Y-74205002D01*
X151722130Y-74155001D01*
X151786191Y-74028594D01*
X151808950Y-73983685D01*
X153086545Y-71978262D01*
X153205119Y-71827175D01*
X153261625Y-71778701D01*
X153399630Y-71660312D01*
X153622948Y-71534606D01*
X153671379Y-71518753D01*
X153866511Y-71454880D01*
X153866512Y-71454880D01*
X153866515Y-71454879D01*
X154120941Y-71424203D01*
X154120943Y-71424203D01*
X154291294Y-71437236D01*
G37*
G36*
X102631379Y-70933813D02*
G01*
X102870991Y-71024713D01*
X103088155Y-71160544D01*
X103088265Y-71160613D01*
X103274852Y-71336288D01*
X103370132Y-71469990D01*
X103423580Y-71544990D01*
X103528735Y-71778697D01*
X103528736Y-71778701D01*
X103586276Y-72028428D01*
X103592058Y-72220394D01*
X103588016Y-72279678D01*
X103543916Y-72926571D01*
X103512135Y-73115983D01*
X103421235Y-73355595D01*
X103294190Y-73558712D01*
X103285335Y-73572869D01*
X103109660Y-73759456D01*
X102971120Y-73858184D01*
X102900958Y-73908184D01*
X102667251Y-74013339D01*
X102667247Y-74013340D01*
X102417521Y-74070880D01*
X102161366Y-74078594D01*
X102161362Y-74078594D01*
X101908621Y-74036187D01*
X101669009Y-73945287D01*
X101451735Y-73809387D01*
X101398703Y-73759456D01*
X101265148Y-73633712D01*
X101117351Y-73426316D01*
X101116420Y-73425010D01*
X101011265Y-73191303D01*
X100999744Y-73141303D01*
X100953724Y-72941572D01*
X100947942Y-72749608D01*
X100996084Y-72043428D01*
X101002824Y-72003260D01*
X101027865Y-71854017D01*
X101118765Y-71614405D01*
X101254665Y-71397131D01*
X101311950Y-71336288D01*
X101430340Y-71210544D01*
X101586602Y-71099187D01*
X101639042Y-71061816D01*
X101872749Y-70956661D01*
X101902899Y-70949714D01*
X102122479Y-70899120D01*
X102378634Y-70891406D01*
X102378638Y-70891406D01*
X102631379Y-70933813D01*
G37*
G36*
X178631379Y-70908813D02*
G01*
X178870991Y-70999713D01*
X179088155Y-71135544D01*
X179088265Y-71135613D01*
X179274852Y-71311288D01*
X179373134Y-71449203D01*
X179423580Y-71519990D01*
X179528735Y-71753697D01*
X179528736Y-71753701D01*
X179586276Y-72003428D01*
X179592058Y-72195394D01*
X179588016Y-72254678D01*
X179543916Y-72901571D01*
X179512135Y-73090983D01*
X179421235Y-73330595D01*
X179345727Y-73451315D01*
X179285335Y-73547869D01*
X179109660Y-73734456D01*
X178971120Y-73833184D01*
X178900958Y-73883184D01*
X178667251Y-73988339D01*
X178667247Y-73988340D01*
X178417521Y-74045880D01*
X178161366Y-74053594D01*
X178161362Y-74053594D01*
X177908621Y-74011187D01*
X177669009Y-73920287D01*
X177451735Y-73784387D01*
X177265148Y-73608712D01*
X177135166Y-73426315D01*
X177116420Y-73400010D01*
X177011265Y-73166303D01*
X176999744Y-73116303D01*
X176953724Y-72916572D01*
X176947942Y-72724608D01*
X176996084Y-72018428D01*
X177002824Y-71978260D01*
X177027865Y-71829017D01*
X177118765Y-71589405D01*
X177254665Y-71372131D01*
X177311950Y-71311288D01*
X177430340Y-71185544D01*
X177586602Y-71074187D01*
X177639042Y-71036816D01*
X177872749Y-70931661D01*
X177872753Y-70931660D01*
X178122479Y-70874120D01*
X178378634Y-70866406D01*
X178378638Y-70866406D01*
X178631379Y-70908813D01*
G37*
G36*
X140681379Y-70908813D02*
G01*
X140920991Y-70999713D01*
X141138155Y-71135544D01*
X141138265Y-71135613D01*
X141324852Y-71311288D01*
X141423134Y-71449203D01*
X141473580Y-71519990D01*
X141578735Y-71753697D01*
X141578736Y-71753701D01*
X141636276Y-72003428D01*
X141642058Y-72195394D01*
X141638016Y-72254678D01*
X141593916Y-72901571D01*
X141562135Y-73090983D01*
X141471235Y-73330595D01*
X141395727Y-73451315D01*
X141335335Y-73547869D01*
X141159660Y-73734456D01*
X141021120Y-73833184D01*
X140950958Y-73883184D01*
X140717251Y-73988339D01*
X140717247Y-73988340D01*
X140467521Y-74045880D01*
X140211366Y-74053594D01*
X140211362Y-74053594D01*
X139958621Y-74011187D01*
X139719009Y-73920287D01*
X139501735Y-73784387D01*
X139315148Y-73608712D01*
X139185166Y-73426315D01*
X139166420Y-73400010D01*
X139061265Y-73166303D01*
X139049744Y-73116303D01*
X139003724Y-72916572D01*
X138997942Y-72724608D01*
X139046084Y-72018428D01*
X139052824Y-71978260D01*
X139077865Y-71829017D01*
X139168765Y-71589405D01*
X139304665Y-71372131D01*
X139361950Y-71311288D01*
X139480340Y-71185544D01*
X139636602Y-71074187D01*
X139689042Y-71036816D01*
X139922749Y-70931661D01*
X139922753Y-70931660D01*
X140172479Y-70874120D01*
X140428634Y-70866406D01*
X140428638Y-70866406D01*
X140681379Y-70908813D01*
G37*
G36*
X197631379Y-70883813D02*
G01*
X197870991Y-70974713D01*
X198088265Y-71110613D01*
X198274852Y-71286288D01*
X198336026Y-71372131D01*
X198423580Y-71494990D01*
X198528735Y-71728697D01*
X198528736Y-71728701D01*
X198586276Y-71978428D01*
X198592058Y-72170394D01*
X198575455Y-72413928D01*
X198543916Y-72876571D01*
X198512135Y-73065983D01*
X198421235Y-73305595D01*
X198346542Y-73425012D01*
X198285335Y-73522869D01*
X198109660Y-73709456D01*
X197953398Y-73820813D01*
X197900958Y-73858184D01*
X197667251Y-73963339D01*
X197667247Y-73963340D01*
X197417521Y-74020880D01*
X197161366Y-74028594D01*
X197161362Y-74028594D01*
X196908621Y-73986187D01*
X196669009Y-73895287D01*
X196451735Y-73759387D01*
X196265148Y-73583712D01*
X196135166Y-73401315D01*
X196116420Y-73375010D01*
X196011265Y-73141303D01*
X195965245Y-72941572D01*
X195953724Y-72891572D01*
X195947942Y-72699608D01*
X195996084Y-71993428D01*
X196002796Y-71953428D01*
X196027865Y-71804017D01*
X196118765Y-71564405D01*
X196254665Y-71347131D01*
X196311950Y-71286288D01*
X196430340Y-71160544D01*
X196586602Y-71049187D01*
X196639042Y-71011816D01*
X196872749Y-70906661D01*
X196905477Y-70899120D01*
X197122479Y-70849120D01*
X197378634Y-70841406D01*
X197378638Y-70841406D01*
X197631379Y-70883813D01*
G37*
G36*
X76531379Y-70883813D02*
G01*
X76770991Y-70974713D01*
X76988265Y-71110613D01*
X77174852Y-71286288D01*
X77236026Y-71372131D01*
X77323580Y-71494990D01*
X77428735Y-71728697D01*
X77428736Y-71728701D01*
X77486276Y-71978428D01*
X77492058Y-72170394D01*
X77475455Y-72413928D01*
X77443916Y-72876571D01*
X77412135Y-73065983D01*
X77321235Y-73305595D01*
X77246542Y-73425012D01*
X77185335Y-73522869D01*
X77009660Y-73709456D01*
X76853398Y-73820813D01*
X76800958Y-73858184D01*
X76567251Y-73963339D01*
X76567247Y-73963340D01*
X76317521Y-74020880D01*
X76061366Y-74028594D01*
X76061362Y-74028594D01*
X75808621Y-73986187D01*
X75569009Y-73895287D01*
X75351735Y-73759387D01*
X75165148Y-73583712D01*
X75035166Y-73401315D01*
X75016420Y-73375010D01*
X74911265Y-73141303D01*
X74865245Y-72941572D01*
X74853724Y-72891572D01*
X74847942Y-72699608D01*
X74896084Y-71993428D01*
X74902796Y-71953428D01*
X74927865Y-71804017D01*
X75018765Y-71564405D01*
X75154665Y-71347131D01*
X75211950Y-71286288D01*
X75330340Y-71160544D01*
X75486602Y-71049187D01*
X75539042Y-71011816D01*
X75772749Y-70906661D01*
X75805477Y-70899120D01*
X76022479Y-70849120D01*
X76278634Y-70841406D01*
X76278638Y-70841406D01*
X76531379Y-70883813D01*
G37*
G36*
X121656379Y-70883813D02*
G01*
X121895991Y-70974713D01*
X122113265Y-71110613D01*
X122299852Y-71286288D01*
X122361026Y-71372131D01*
X122448580Y-71494990D01*
X122553735Y-71728697D01*
X122553736Y-71728701D01*
X122611276Y-71978428D01*
X122617058Y-72170394D01*
X122600455Y-72413928D01*
X122568916Y-72876571D01*
X122537135Y-73065983D01*
X122446235Y-73305595D01*
X122371542Y-73425012D01*
X122310335Y-73522869D01*
X122134660Y-73709456D01*
X121978398Y-73820813D01*
X121925958Y-73858184D01*
X121692251Y-73963339D01*
X121692247Y-73963340D01*
X121442521Y-74020880D01*
X121186366Y-74028594D01*
X121186362Y-74028594D01*
X120933621Y-73986187D01*
X120694009Y-73895287D01*
X120476735Y-73759387D01*
X120290148Y-73583712D01*
X120160166Y-73401315D01*
X120141420Y-73375010D01*
X120036265Y-73141303D01*
X119990245Y-72941572D01*
X119978724Y-72891572D01*
X119972942Y-72699608D01*
X120021084Y-71993428D01*
X120027796Y-71953428D01*
X120052865Y-71804017D01*
X120143765Y-71564405D01*
X120279665Y-71347131D01*
X120336950Y-71286288D01*
X120455340Y-71160544D01*
X120611602Y-71049187D01*
X120664042Y-71011816D01*
X120897749Y-70906661D01*
X120930477Y-70899120D01*
X121147479Y-70849120D01*
X121403634Y-70841406D01*
X121403638Y-70841406D01*
X121656379Y-70883813D01*
G37*
G36*
X159681379Y-70858813D02*
G01*
X159920991Y-70949713D01*
X160100219Y-71061816D01*
X160138265Y-71085613D01*
X160324852Y-71261288D01*
X160386026Y-71347131D01*
X160473580Y-71469990D01*
X160578735Y-71703697D01*
X160578736Y-71703701D01*
X160636276Y-71953428D01*
X160642058Y-72145394D01*
X160632903Y-72279678D01*
X160593916Y-72851571D01*
X160562135Y-73040983D01*
X160471235Y-73280595D01*
X160396542Y-73400012D01*
X160335335Y-73497869D01*
X160159660Y-73684456D01*
X160003398Y-73795813D01*
X159950958Y-73833184D01*
X159717251Y-73938339D01*
X159717247Y-73938340D01*
X159467521Y-73995880D01*
X159211366Y-74003594D01*
X159211362Y-74003594D01*
X158958621Y-73961187D01*
X158719009Y-73870287D01*
X158501735Y-73734387D01*
X158315148Y-73558712D01*
X158185166Y-73376315D01*
X158166420Y-73350010D01*
X158061265Y-73116303D01*
X158017549Y-72926573D01*
X158003724Y-72866572D01*
X157997942Y-72674608D01*
X158046084Y-71968428D01*
X158057201Y-71902175D01*
X158077865Y-71779017D01*
X158168765Y-71539405D01*
X158304665Y-71322131D01*
X158361950Y-71261288D01*
X158480340Y-71135544D01*
X158636602Y-71024187D01*
X158689042Y-70986816D01*
X158922749Y-70881661D01*
X158955477Y-70874120D01*
X159172479Y-70824120D01*
X159428634Y-70816406D01*
X159428638Y-70816406D01*
X159681379Y-70858813D01*
G37*
G36*
X103973228Y-67031703D02*
G01*
X104128100Y-67095853D01*
X104267481Y-67188985D01*
X104386015Y-67307519D01*
X104479147Y-67446900D01*
X104543297Y-67601772D01*
X104576000Y-67766184D01*
X104576000Y-67933816D01*
X104543297Y-68098228D01*
X104479147Y-68253100D01*
X104386015Y-68392481D01*
X104267481Y-68511015D01*
X104128100Y-68604147D01*
X103973228Y-68668297D01*
X103808816Y-68701000D01*
X103641184Y-68701000D01*
X103476772Y-68668297D01*
X103321900Y-68604147D01*
X103182519Y-68511015D01*
X103063985Y-68392481D01*
X102970853Y-68253100D01*
X102906703Y-68098228D01*
X102874000Y-67933816D01*
X102874000Y-67766184D01*
X102906703Y-67601772D01*
X102970853Y-67446900D01*
X103063985Y-67307519D01*
X103182519Y-67188985D01*
X103321900Y-67095853D01*
X103476772Y-67031703D01*
X103641184Y-66999000D01*
X103808816Y-66999000D01*
X103973228Y-67031703D01*
G37*
G36*
X96776000Y-68701000D02*
G01*
X95074000Y-68701000D01*
X95074000Y-66999000D01*
X96776000Y-66999000D01*
X96776000Y-68701000D01*
G37*
G36*
X191726000Y-68676000D02*
G01*
X190024000Y-68676000D01*
X190024000Y-66974000D01*
X191726000Y-66974000D01*
X191726000Y-68676000D01*
G37*
G36*
X198923228Y-67006703D02*
G01*
X199078100Y-67070853D01*
X199217481Y-67163985D01*
X199336015Y-67282519D01*
X199429147Y-67421900D01*
X199493297Y-67576772D01*
X199526000Y-67741184D01*
X199526000Y-67908816D01*
X199493297Y-68073228D01*
X199429147Y-68228100D01*
X199336015Y-68367481D01*
X199217481Y-68486015D01*
X199078100Y-68579147D01*
X198923228Y-68643297D01*
X198758816Y-68676000D01*
X198591184Y-68676000D01*
X198426772Y-68643297D01*
X198271900Y-68579147D01*
X198132519Y-68486015D01*
X198013985Y-68367481D01*
X197920853Y-68228100D01*
X197856703Y-68073228D01*
X197824000Y-67908816D01*
X197824000Y-67741184D01*
X197856703Y-67576772D01*
X197920853Y-67421900D01*
X198013985Y-67282519D01*
X198132519Y-67163985D01*
X198271900Y-67070853D01*
X198426772Y-67006703D01*
X198591184Y-66974000D01*
X198758816Y-66974000D01*
X198923228Y-67006703D01*
G37*
G36*
X179848228Y-67006703D02*
G01*
X180003100Y-67070853D01*
X180142481Y-67163985D01*
X180261015Y-67282519D01*
X180354147Y-67421900D01*
X180418297Y-67576772D01*
X180451000Y-67741184D01*
X180451000Y-67908816D01*
X180418297Y-68073228D01*
X180354147Y-68228100D01*
X180261015Y-68367481D01*
X180142481Y-68486015D01*
X180003100Y-68579147D01*
X179848228Y-68643297D01*
X179683816Y-68676000D01*
X179516184Y-68676000D01*
X179351772Y-68643297D01*
X179196900Y-68579147D01*
X179057519Y-68486015D01*
X178938985Y-68367481D01*
X178845853Y-68228100D01*
X178781703Y-68073228D01*
X178749000Y-67908816D01*
X178749000Y-67741184D01*
X178781703Y-67576772D01*
X178845853Y-67421900D01*
X178938985Y-67282519D01*
X179057519Y-67163985D01*
X179196900Y-67070853D01*
X179351772Y-67006703D01*
X179516184Y-66974000D01*
X179683816Y-66974000D01*
X179848228Y-67006703D01*
G37*
G36*
X134676000Y-68676000D02*
G01*
X132974000Y-68676000D01*
X132974000Y-66974000D01*
X134676000Y-66974000D01*
X134676000Y-68676000D01*
G37*
G36*
X141873228Y-67006703D02*
G01*
X142028100Y-67070853D01*
X142167481Y-67163985D01*
X142286015Y-67282519D01*
X142379147Y-67421900D01*
X142443297Y-67576772D01*
X142476000Y-67741184D01*
X142476000Y-67908816D01*
X142443297Y-68073228D01*
X142379147Y-68228100D01*
X142286015Y-68367481D01*
X142167481Y-68486015D01*
X142028100Y-68579147D01*
X141873228Y-68643297D01*
X141708816Y-68676000D01*
X141541184Y-68676000D01*
X141376772Y-68643297D01*
X141221900Y-68579147D01*
X141082519Y-68486015D01*
X140963985Y-68367481D01*
X140870853Y-68228100D01*
X140806703Y-68073228D01*
X140774000Y-67908816D01*
X140774000Y-67741184D01*
X140806703Y-67576772D01*
X140870853Y-67421900D01*
X140963985Y-67282519D01*
X141082519Y-67163985D01*
X141221900Y-67070853D01*
X141376772Y-67006703D01*
X141541184Y-66974000D01*
X141708816Y-66974000D01*
X141873228Y-67006703D01*
G37*
G36*
X172651000Y-68676000D02*
G01*
X170949000Y-68676000D01*
X170949000Y-66974000D01*
X172651000Y-66974000D01*
X172651000Y-68676000D01*
G37*
G36*
X77748228Y-66981703D02*
G01*
X77903100Y-67045853D01*
X78042481Y-67138985D01*
X78161015Y-67257519D01*
X78254147Y-67396900D01*
X78318297Y-67551772D01*
X78351000Y-67716184D01*
X78351000Y-67883816D01*
X78318297Y-68048228D01*
X78254147Y-68203100D01*
X78161015Y-68342481D01*
X78042481Y-68461015D01*
X77903100Y-68554147D01*
X77748228Y-68618297D01*
X77583816Y-68651000D01*
X77416184Y-68651000D01*
X77251772Y-68618297D01*
X77096900Y-68554147D01*
X76957519Y-68461015D01*
X76838985Y-68342481D01*
X76745853Y-68203100D01*
X76681703Y-68048228D01*
X76649000Y-67883816D01*
X76649000Y-67716184D01*
X76681703Y-67551772D01*
X76745853Y-67396900D01*
X76838985Y-67257519D01*
X76957519Y-67138985D01*
X77096900Y-67045853D01*
X77251772Y-66981703D01*
X77416184Y-66949000D01*
X77583816Y-66949000D01*
X77748228Y-66981703D01*
G37*
G36*
X70551000Y-68651000D02*
G01*
X68849000Y-68651000D01*
X68849000Y-66949000D01*
X70551000Y-66949000D01*
X70551000Y-68651000D01*
G37*
G36*
X115701000Y-68651000D02*
G01*
X113999000Y-68651000D01*
X113999000Y-66949000D01*
X115701000Y-66949000D01*
X115701000Y-68651000D01*
G37*
G36*
X122898228Y-66981703D02*
G01*
X123053100Y-67045853D01*
X123192481Y-67138985D01*
X123311015Y-67257519D01*
X123404147Y-67396900D01*
X123468297Y-67551772D01*
X123501000Y-67716184D01*
X123501000Y-67883816D01*
X123468297Y-68048228D01*
X123404147Y-68203100D01*
X123311015Y-68342481D01*
X123192481Y-68461015D01*
X123053100Y-68554147D01*
X122898228Y-68618297D01*
X122733816Y-68651000D01*
X122566184Y-68651000D01*
X122401772Y-68618297D01*
X122246900Y-68554147D01*
X122107519Y-68461015D01*
X121988985Y-68342481D01*
X121895853Y-68203100D01*
X121831703Y-68048228D01*
X121799000Y-67883816D01*
X121799000Y-67716184D01*
X121831703Y-67551772D01*
X121895853Y-67396900D01*
X121988985Y-67257519D01*
X122107519Y-67138985D01*
X122246900Y-67045853D01*
X122401772Y-66981703D01*
X122566184Y-66949000D01*
X122733816Y-66949000D01*
X122898228Y-66981703D01*
G37*
G36*
X160923228Y-66956703D02*
G01*
X161078100Y-67020853D01*
X161217481Y-67113985D01*
X161336015Y-67232519D01*
X161429147Y-67371900D01*
X161493297Y-67526772D01*
X161526000Y-67691184D01*
X161526000Y-67858816D01*
X161493297Y-68023228D01*
X161429147Y-68178100D01*
X161336015Y-68317481D01*
X161217481Y-68436015D01*
X161078100Y-68529147D01*
X160923228Y-68593297D01*
X160758816Y-68626000D01*
X160591184Y-68626000D01*
X160426772Y-68593297D01*
X160271900Y-68529147D01*
X160132519Y-68436015D01*
X160013985Y-68317481D01*
X159920853Y-68178100D01*
X159856703Y-68023228D01*
X159824000Y-67858816D01*
X159824000Y-67691184D01*
X159856703Y-67526772D01*
X159920853Y-67371900D01*
X160013985Y-67232519D01*
X160132519Y-67113985D01*
X160271900Y-67020853D01*
X160426772Y-66956703D01*
X160591184Y-66924000D01*
X160758816Y-66924000D01*
X160923228Y-66956703D01*
G37*
G36*
X153726000Y-68626000D02*
G01*
X152024000Y-68626000D01*
X152024000Y-66924000D01*
X153726000Y-66924000D01*
X153726000Y-68626000D01*
G37*
G36*
X57390483Y-55828335D02*
G01*
X57559240Y-55898236D01*
X57711118Y-55999718D01*
X57840282Y-56128882D01*
X57941764Y-56280760D01*
X58011665Y-56449517D01*
X58047300Y-56628668D01*
X58047300Y-56811332D01*
X58011665Y-56990483D01*
X57941764Y-57159240D01*
X57840282Y-57311118D01*
X57711118Y-57440282D01*
X57559240Y-57541764D01*
X57390483Y-57611665D01*
X57211332Y-57647300D01*
X57028668Y-57647300D01*
X56849517Y-57611665D01*
X56680760Y-57541764D01*
X56528882Y-57440282D01*
X56399718Y-57311118D01*
X56298236Y-57159240D01*
X56228335Y-56990483D01*
X56192700Y-56811332D01*
X56192700Y-56628668D01*
X56228335Y-56449517D01*
X56298236Y-56280760D01*
X56399718Y-56128882D01*
X56528882Y-55999718D01*
X56680760Y-55898236D01*
X56849517Y-55828335D01*
X57028668Y-55792700D01*
X57211332Y-55792700D01*
X57390483Y-55828335D01*
G37*
G36*
X42150483Y-55828335D02*
G01*
X42319240Y-55898236D01*
X42471118Y-55999718D01*
X42600282Y-56128882D01*
X42701764Y-56280760D01*
X42771665Y-56449517D01*
X42807300Y-56628668D01*
X42807300Y-56811332D01*
X42771665Y-56990483D01*
X42701764Y-57159240D01*
X42600282Y-57311118D01*
X42471118Y-57440282D01*
X42319240Y-57541764D01*
X42150483Y-57611665D01*
X41971332Y-57647300D01*
X41788668Y-57647300D01*
X41609517Y-57611665D01*
X41440760Y-57541764D01*
X41288882Y-57440282D01*
X41159718Y-57311118D01*
X41058236Y-57159240D01*
X40988335Y-56990483D01*
X40952700Y-56811332D01*
X40952700Y-56628668D01*
X40988335Y-56449517D01*
X41058236Y-56280760D01*
X41159718Y-56128882D01*
X41288882Y-55999718D01*
X41440760Y-55898236D01*
X41609517Y-55828335D01*
X41788668Y-55792700D01*
X41971332Y-55792700D01*
X42150483Y-55828335D01*
G37*
G36*
X187491294Y-52537236D02*
G01*
X187576471Y-52543753D01*
X187616253Y-52554879D01*
X187823275Y-52612777D01*
X188051870Y-52728625D01*
X188253472Y-52886843D01*
X188420334Y-53081353D01*
X188546043Y-53304678D01*
X188601217Y-53473236D01*
X188625768Y-53548239D01*
X188653060Y-53774599D01*
X188656444Y-53802667D01*
X188636895Y-54058195D01*
X188599669Y-54191299D01*
X188567870Y-54305000D01*
X188529559Y-54380596D01*
X188481050Y-54476316D01*
X187203454Y-56481738D01*
X187203452Y-56481740D01*
X187084880Y-56632826D01*
X186890373Y-56799686D01*
X186761510Y-56872222D01*
X186667045Y-56925396D01*
X186499862Y-56980120D01*
X186423484Y-57005121D01*
X186169057Y-57035797D01*
X186169056Y-57035797D01*
X185913529Y-57016248D01*
X185666725Y-56947223D01*
X185666724Y-56947223D01*
X185666722Y-56947222D01*
X185438135Y-56831378D01*
X185438133Y-56831377D01*
X185438130Y-56831375D01*
X185236528Y-56673157D01*
X185236524Y-56673154D01*
X185069667Y-56478650D01*
X184958276Y-56280760D01*
X184943957Y-56255322D01*
X184864233Y-56011764D01*
X184864232Y-56011761D01*
X184833556Y-55757334D01*
X184839294Y-55682333D01*
X184853105Y-55501806D01*
X184922130Y-55255002D01*
X184922130Y-55255001D01*
X184965540Y-55169344D01*
X185008950Y-55083685D01*
X186286545Y-53078262D01*
X186405119Y-52927175D01*
X186539561Y-52811843D01*
X186599630Y-52760312D01*
X186822948Y-52634606D01*
X186884665Y-52614404D01*
X187066511Y-52554880D01*
X187066512Y-52554880D01*
X187066515Y-52554879D01*
X187320941Y-52524203D01*
X187320943Y-52524203D01*
X187491294Y-52537236D01*
G37*
G36*
X92491294Y-52512236D02*
G01*
X92576471Y-52518753D01*
X92616253Y-52529879D01*
X92823275Y-52587777D01*
X93051870Y-52703625D01*
X93253472Y-52861843D01*
X93420334Y-53056353D01*
X93546043Y-53279678D01*
X93604976Y-53459719D01*
X93625768Y-53523239D01*
X93651994Y-53740759D01*
X93656444Y-53777667D01*
X93636895Y-54033195D01*
X93599669Y-54166299D01*
X93567870Y-54280000D01*
X93529559Y-54355596D01*
X93481050Y-54451316D01*
X92203454Y-56456738D01*
X92186257Y-56478650D01*
X92084880Y-56607826D01*
X91890373Y-56774686D01*
X91789657Y-56831378D01*
X91667045Y-56900396D01*
X91499862Y-56955120D01*
X91423484Y-56980121D01*
X91169057Y-57010797D01*
X91169056Y-57010797D01*
X90913529Y-56991248D01*
X90666725Y-56922223D01*
X90666724Y-56922223D01*
X90666722Y-56922222D01*
X90438135Y-56806378D01*
X90438133Y-56806377D01*
X90438130Y-56806375D01*
X90236528Y-56648157D01*
X90236524Y-56648154D01*
X90069667Y-56453650D01*
X89992766Y-56317032D01*
X89943957Y-56230322D01*
X89864233Y-55986764D01*
X89864232Y-55986761D01*
X89833556Y-55732334D01*
X89837381Y-55682333D01*
X89853105Y-55476806D01*
X89922130Y-55230002D01*
X89922130Y-55230001D01*
X89986191Y-55103594D01*
X90008950Y-55058685D01*
X91286545Y-53053262D01*
X91405119Y-52902175D01*
X91519541Y-52804017D01*
X91599630Y-52735312D01*
X91822948Y-52609606D01*
X91884665Y-52589404D01*
X92066511Y-52529880D01*
X92066512Y-52529880D01*
X92066515Y-52529879D01*
X92320941Y-52499203D01*
X92320943Y-52499203D01*
X92491294Y-52512236D01*
G37*
G36*
X130491294Y-52487236D02*
G01*
X130576471Y-52493753D01*
X130616253Y-52504879D01*
X130823275Y-52562777D01*
X131051870Y-52678625D01*
X131051872Y-52678626D01*
X131051873Y-52678627D01*
X131115583Y-52728627D01*
X131253472Y-52836843D01*
X131420334Y-53031353D01*
X131546043Y-53254678D01*
X131613159Y-53459718D01*
X131625768Y-53498239D01*
X131656074Y-53749599D01*
X131656444Y-53752667D01*
X131636895Y-54008195D01*
X131614388Y-54088669D01*
X131567870Y-54255000D01*
X131529559Y-54330596D01*
X131481050Y-54426316D01*
X130203454Y-56431738D01*
X130166637Y-56478650D01*
X130084880Y-56582826D01*
X129890373Y-56749686D01*
X129789657Y-56806378D01*
X129667045Y-56875396D01*
X129447612Y-56947223D01*
X129423484Y-56955121D01*
X129169057Y-56985797D01*
X129169056Y-56985797D01*
X128913529Y-56966248D01*
X128666725Y-56897223D01*
X128666724Y-56897223D01*
X128666722Y-56897222D01*
X128438135Y-56781378D01*
X128438133Y-56781377D01*
X128438130Y-56781375D01*
X128236528Y-56623157D01*
X128236524Y-56623154D01*
X128069667Y-56428650D01*
X127986420Y-56280759D01*
X127943957Y-56205322D01*
X127864233Y-55961764D01*
X127864232Y-55961761D01*
X127833556Y-55707334D01*
X127835469Y-55682333D01*
X127853105Y-55451806D01*
X127908146Y-55255002D01*
X127922130Y-55205001D01*
X127989703Y-55071665D01*
X128008950Y-55033685D01*
X129286545Y-53028262D01*
X129405119Y-52877175D01*
X129490772Y-52803697D01*
X129599630Y-52710312D01*
X129822948Y-52584606D01*
X129884665Y-52564404D01*
X130066511Y-52504880D01*
X130066512Y-52504880D01*
X130066515Y-52504879D01*
X130320941Y-52474203D01*
X130320943Y-52474203D01*
X130491294Y-52487236D01*
G37*
G36*
X168491294Y-52487236D02*
G01*
X168576471Y-52493753D01*
X168616253Y-52504879D01*
X168823275Y-52562777D01*
X169051870Y-52678625D01*
X169051872Y-52678626D01*
X169051873Y-52678627D01*
X169115583Y-52728627D01*
X169253472Y-52836843D01*
X169420334Y-53031353D01*
X169546043Y-53254678D01*
X169613159Y-53459718D01*
X169625768Y-53498239D01*
X169656074Y-53749599D01*
X169656444Y-53752667D01*
X169636895Y-54008195D01*
X169614388Y-54088669D01*
X169567870Y-54255000D01*
X169529559Y-54330596D01*
X169481050Y-54426316D01*
X168203454Y-56431738D01*
X168166637Y-56478650D01*
X168084880Y-56582826D01*
X167890373Y-56749686D01*
X167789657Y-56806378D01*
X167667045Y-56875396D01*
X167447612Y-56947223D01*
X167423484Y-56955121D01*
X167169057Y-56985797D01*
X167169056Y-56985797D01*
X166913529Y-56966248D01*
X166666725Y-56897223D01*
X166666724Y-56897223D01*
X166666722Y-56897222D01*
X166438135Y-56781378D01*
X166438133Y-56781377D01*
X166438130Y-56781375D01*
X166236528Y-56623157D01*
X166236524Y-56623154D01*
X166069667Y-56428650D01*
X165986420Y-56280759D01*
X165943957Y-56205322D01*
X165864233Y-55961764D01*
X165864232Y-55961761D01*
X165833556Y-55707334D01*
X165835469Y-55682333D01*
X165853105Y-55451806D01*
X165908146Y-55255002D01*
X165922130Y-55205001D01*
X165989703Y-55071665D01*
X166008950Y-55033685D01*
X167286545Y-53028262D01*
X167405119Y-52877175D01*
X167490772Y-52803697D01*
X167599630Y-52710312D01*
X167822948Y-52584606D01*
X167884665Y-52564404D01*
X168066511Y-52504880D01*
X168066512Y-52504880D01*
X168066515Y-52504879D01*
X168320941Y-52474203D01*
X168320943Y-52474203D01*
X168491294Y-52487236D01*
G37*
G36*
X149591294Y-52487236D02*
G01*
X149676471Y-52493753D01*
X149716253Y-52504879D01*
X149923275Y-52562777D01*
X150151870Y-52678625D01*
X150151872Y-52678626D01*
X150151873Y-52678627D01*
X150215583Y-52728627D01*
X150353472Y-52836843D01*
X150520334Y-53031353D01*
X150646043Y-53254678D01*
X150713159Y-53459718D01*
X150725768Y-53498239D01*
X150756074Y-53749599D01*
X150756444Y-53752667D01*
X150736895Y-54008195D01*
X150714388Y-54088669D01*
X150667870Y-54255000D01*
X150629559Y-54330596D01*
X150581050Y-54426316D01*
X149303454Y-56431738D01*
X149266637Y-56478650D01*
X149184880Y-56582826D01*
X148990373Y-56749686D01*
X148889657Y-56806378D01*
X148767045Y-56875396D01*
X148547612Y-56947223D01*
X148523484Y-56955121D01*
X148269057Y-56985797D01*
X148269056Y-56985797D01*
X148013529Y-56966248D01*
X147766725Y-56897223D01*
X147766724Y-56897223D01*
X147766722Y-56897222D01*
X147538135Y-56781378D01*
X147538133Y-56781377D01*
X147538130Y-56781375D01*
X147336528Y-56623157D01*
X147336524Y-56623154D01*
X147169667Y-56428650D01*
X147086420Y-56280759D01*
X147043957Y-56205322D01*
X146964233Y-55961764D01*
X146964232Y-55961761D01*
X146933556Y-55707334D01*
X146935469Y-55682333D01*
X146953105Y-55451806D01*
X147008146Y-55255002D01*
X147022130Y-55205001D01*
X147089703Y-55071665D01*
X147108950Y-55033685D01*
X148386545Y-53028262D01*
X148505119Y-52877175D01*
X148590772Y-52803697D01*
X148699630Y-52710312D01*
X148922948Y-52584606D01*
X148984665Y-52564404D01*
X149166511Y-52504880D01*
X149166512Y-52504880D01*
X149166515Y-52504879D01*
X149420941Y-52474203D01*
X149420943Y-52474203D01*
X149591294Y-52487236D01*
G37*
G36*
X68760108Y-52461763D02*
G01*
X68851471Y-52468753D01*
X68891253Y-52479879D01*
X69098275Y-52537777D01*
X69326870Y-52653625D01*
X69326872Y-52653626D01*
X69326873Y-52653627D01*
X69422438Y-52728627D01*
X69528472Y-52811843D01*
X69695334Y-53006353D01*
X69821043Y-53229678D01*
X69863124Y-53358236D01*
X69900768Y-53473239D01*
X69914711Y-53588882D01*
X69931444Y-53727667D01*
X69911895Y-53983195D01*
X69867677Y-54141299D01*
X69842870Y-54230000D01*
X69804559Y-54305596D01*
X69756050Y-54401316D01*
X68478454Y-56406738D01*
X68441637Y-56453650D01*
X68359880Y-56557826D01*
X68165373Y-56724686D01*
X68064657Y-56781378D01*
X67942045Y-56850396D01*
X67722612Y-56922223D01*
X67698484Y-56930121D01*
X67444057Y-56960797D01*
X67444056Y-56960797D01*
X67188529Y-56941248D01*
X66941725Y-56872223D01*
X66941724Y-56872223D01*
X66941722Y-56872222D01*
X66713135Y-56756378D01*
X66713133Y-56756377D01*
X66713130Y-56756375D01*
X66511528Y-56598157D01*
X66511524Y-56598154D01*
X66344667Y-56403650D01*
X66261174Y-56255322D01*
X66218957Y-56180322D01*
X66139233Y-55936764D01*
X66139232Y-55936761D01*
X66108556Y-55682334D01*
X66108556Y-55682333D01*
X66128105Y-55426806D01*
X66183146Y-55230002D01*
X66197130Y-55180001D01*
X66261191Y-55053594D01*
X66283950Y-55008685D01*
X67561545Y-53003262D01*
X67680119Y-52852175D01*
X67736625Y-52803701D01*
X67874630Y-52685312D01*
X68097948Y-52559606D01*
X68146379Y-52543753D01*
X68341511Y-52479880D01*
X68341512Y-52479880D01*
X68341515Y-52479879D01*
X68595941Y-52449203D01*
X68595943Y-52449203D01*
X68760108Y-52461763D01*
G37*
G36*
X111485108Y-52461763D02*
G01*
X111576471Y-52468753D01*
X111616253Y-52479879D01*
X111823275Y-52537777D01*
X112051870Y-52653625D01*
X112051872Y-52653626D01*
X112051873Y-52653627D01*
X112147438Y-52728627D01*
X112253472Y-52811843D01*
X112420334Y-53006353D01*
X112546043Y-53229678D01*
X112588124Y-53358236D01*
X112625768Y-53473239D01*
X112639711Y-53588882D01*
X112656444Y-53727667D01*
X112636895Y-53983195D01*
X112592677Y-54141299D01*
X112567870Y-54230000D01*
X112529559Y-54305596D01*
X112481050Y-54401316D01*
X111203454Y-56406738D01*
X111166637Y-56453650D01*
X111084880Y-56557826D01*
X110890373Y-56724686D01*
X110789657Y-56781378D01*
X110667045Y-56850396D01*
X110447612Y-56922223D01*
X110423484Y-56930121D01*
X110169057Y-56960797D01*
X110169056Y-56960797D01*
X109913529Y-56941248D01*
X109666725Y-56872223D01*
X109666724Y-56872223D01*
X109666722Y-56872222D01*
X109438135Y-56756378D01*
X109438133Y-56756377D01*
X109438130Y-56756375D01*
X109236528Y-56598157D01*
X109236524Y-56598154D01*
X109069667Y-56403650D01*
X108986174Y-56255322D01*
X108943957Y-56180322D01*
X108864233Y-55936764D01*
X108864232Y-55936761D01*
X108833556Y-55682334D01*
X108833556Y-55682333D01*
X108853105Y-55426806D01*
X108908146Y-55230002D01*
X108922130Y-55180001D01*
X108986191Y-55053594D01*
X109008950Y-55008685D01*
X110286545Y-53003262D01*
X110405119Y-52852175D01*
X110461625Y-52803701D01*
X110599630Y-52685312D01*
X110822948Y-52559606D01*
X110871379Y-52543753D01*
X111066511Y-52479880D01*
X111066512Y-52479880D01*
X111066515Y-52479879D01*
X111320941Y-52449203D01*
X111320943Y-52449203D01*
X111485108Y-52461763D01*
G37*
G36*
X37801000Y-56551000D02*
G01*
X36299000Y-56551000D01*
X36299000Y-54349000D01*
X37801000Y-54349000D01*
X37801000Y-56551000D01*
G37*
G36*
X33301000Y-56551000D02*
G01*
X31799000Y-56551000D01*
X31799000Y-54349000D01*
X33301000Y-54349000D01*
X33301000Y-56551000D01*
G37*
G36*
X42150483Y-53288335D02*
G01*
X42319240Y-53358236D01*
X42471118Y-53459718D01*
X42600282Y-53588882D01*
X42701764Y-53740760D01*
X42771665Y-53909517D01*
X42807300Y-54088668D01*
X42807300Y-54271332D01*
X42771665Y-54450483D01*
X42701764Y-54619240D01*
X42600282Y-54771118D01*
X42471118Y-54900282D01*
X42319240Y-55001764D01*
X42150483Y-55071665D01*
X41971332Y-55107300D01*
X41788668Y-55107300D01*
X41609517Y-55071665D01*
X41440760Y-55001764D01*
X41288882Y-54900282D01*
X41159718Y-54771118D01*
X41058236Y-54619240D01*
X40988335Y-54450483D01*
X40952700Y-54271332D01*
X40952700Y-54088668D01*
X40988335Y-53909517D01*
X41058236Y-53740760D01*
X41159718Y-53588882D01*
X41288882Y-53459718D01*
X41440760Y-53358236D01*
X41609517Y-53288335D01*
X41788668Y-53252700D01*
X41971332Y-53252700D01*
X42150483Y-53288335D01*
G37*
G36*
X57390483Y-53288335D02*
G01*
X57559240Y-53358236D01*
X57711118Y-53459718D01*
X57840282Y-53588882D01*
X57941764Y-53740760D01*
X58011665Y-53909517D01*
X58047300Y-54088668D01*
X58047300Y-54271332D01*
X58011665Y-54450483D01*
X57941764Y-54619240D01*
X57840282Y-54771118D01*
X57711118Y-54900282D01*
X57559240Y-55001764D01*
X57390483Y-55071665D01*
X57211332Y-55107300D01*
X57028668Y-55107300D01*
X56849517Y-55071665D01*
X56680760Y-55001764D01*
X56528882Y-54900282D01*
X56399718Y-54771118D01*
X56298236Y-54619240D01*
X56228335Y-54450483D01*
X56192700Y-54271332D01*
X56192700Y-54088668D01*
X56228335Y-53909517D01*
X56298236Y-53740760D01*
X56399718Y-53588882D01*
X56528882Y-53459718D01*
X56680760Y-53358236D01*
X56849517Y-53288335D01*
X57028668Y-53252700D01*
X57211332Y-53252700D01*
X57390483Y-53288335D01*
G37*
G36*
X192881379Y-51958813D02*
G01*
X193120991Y-52049713D01*
X193338155Y-52185544D01*
X193338265Y-52185613D01*
X193524852Y-52361288D01*
X193620132Y-52494990D01*
X193673580Y-52569990D01*
X193778735Y-52803697D01*
X193778736Y-52803701D01*
X193836276Y-53053428D01*
X193842058Y-53245394D01*
X193838016Y-53304678D01*
X193793916Y-53951571D01*
X193762135Y-54140983D01*
X193671235Y-54380595D01*
X193544190Y-54583712D01*
X193535335Y-54597869D01*
X193359660Y-54784456D01*
X193221120Y-54883184D01*
X193150958Y-54933184D01*
X192917251Y-55038339D01*
X192917247Y-55038340D01*
X192667521Y-55095880D01*
X192411366Y-55103594D01*
X192411362Y-55103594D01*
X192158621Y-55061187D01*
X191919009Y-54970287D01*
X191701735Y-54834387D01*
X191648703Y-54784456D01*
X191515148Y-54658712D01*
X191367351Y-54451316D01*
X191366420Y-54450010D01*
X191261265Y-54216303D01*
X191249744Y-54166303D01*
X191203724Y-53966572D01*
X191197942Y-53774608D01*
X191246084Y-53068428D01*
X191252824Y-53028260D01*
X191277865Y-52879017D01*
X191368765Y-52639405D01*
X191504665Y-52422131D01*
X191561950Y-52361288D01*
X191680340Y-52235544D01*
X191836602Y-52124187D01*
X191889042Y-52086816D01*
X192122749Y-51981661D01*
X192152899Y-51974714D01*
X192372479Y-51924120D01*
X192628634Y-51916406D01*
X192628638Y-51916406D01*
X192881379Y-51958813D01*
G37*
G36*
X97881379Y-51933813D02*
G01*
X98120991Y-52024713D01*
X98338155Y-52160544D01*
X98338265Y-52160613D01*
X98524852Y-52336288D01*
X98623134Y-52474203D01*
X98673580Y-52544990D01*
X98778735Y-52778697D01*
X98778736Y-52778701D01*
X98836276Y-53028428D01*
X98842058Y-53220394D01*
X98838016Y-53279678D01*
X98793916Y-53926571D01*
X98762135Y-54115983D01*
X98671235Y-54355595D01*
X98595727Y-54476315D01*
X98535335Y-54572869D01*
X98359660Y-54759456D01*
X98221120Y-54858184D01*
X98150958Y-54908184D01*
X97917251Y-55013339D01*
X97917247Y-55013340D01*
X97667521Y-55070880D01*
X97411366Y-55078594D01*
X97411362Y-55078594D01*
X97158621Y-55036187D01*
X96919009Y-54945287D01*
X96701735Y-54809387D01*
X96515148Y-54633712D01*
X96384573Y-54450483D01*
X96366420Y-54425010D01*
X96261265Y-54191303D01*
X96249744Y-54141303D01*
X96203724Y-53941572D01*
X96197942Y-53749608D01*
X96246084Y-53043428D01*
X96252824Y-53003260D01*
X96277865Y-52854017D01*
X96368765Y-52614405D01*
X96504665Y-52397131D01*
X96561950Y-52336288D01*
X96680340Y-52210544D01*
X96836602Y-52099187D01*
X96889042Y-52061816D01*
X97122749Y-51956661D01*
X97122753Y-51956660D01*
X97372479Y-51899120D01*
X97628634Y-51891406D01*
X97628638Y-51891406D01*
X97881379Y-51933813D01*
G37*
G36*
X173881379Y-51908813D02*
G01*
X174120991Y-51999713D01*
X174338265Y-52135613D01*
X174524852Y-52311288D01*
X174586026Y-52397131D01*
X174673580Y-52519990D01*
X174778735Y-52753697D01*
X174778736Y-52753701D01*
X174836276Y-53003428D01*
X174842058Y-53195394D01*
X174830956Y-53358236D01*
X174793916Y-53901571D01*
X174762135Y-54090983D01*
X174671235Y-54330595D01*
X174596542Y-54450012D01*
X174535335Y-54547869D01*
X174359660Y-54734456D01*
X174203398Y-54845813D01*
X174150958Y-54883184D01*
X173917251Y-54988339D01*
X173917247Y-54988340D01*
X173667521Y-55045880D01*
X173411366Y-55053594D01*
X173411362Y-55053594D01*
X173158621Y-55011187D01*
X172919009Y-54920287D01*
X172701735Y-54784387D01*
X172687642Y-54771118D01*
X172515148Y-54608712D01*
X172385166Y-54426315D01*
X172366420Y-54400010D01*
X172261265Y-54166303D01*
X172215245Y-53966572D01*
X172203724Y-53916572D01*
X172197942Y-53724608D01*
X172246084Y-53018428D01*
X172252796Y-52978428D01*
X172277865Y-52829017D01*
X172368765Y-52589405D01*
X172504665Y-52372131D01*
X172561950Y-52311288D01*
X172680340Y-52185544D01*
X172836602Y-52074187D01*
X172889042Y-52036816D01*
X173122749Y-51931661D01*
X173155477Y-51924120D01*
X173372479Y-51874120D01*
X173628634Y-51866406D01*
X173628638Y-51866406D01*
X173881379Y-51908813D01*
G37*
G36*
X154981379Y-51908813D02*
G01*
X155220991Y-51999713D01*
X155438265Y-52135613D01*
X155624852Y-52311288D01*
X155686026Y-52397131D01*
X155773580Y-52519990D01*
X155878735Y-52753697D01*
X155878736Y-52753701D01*
X155936276Y-53003428D01*
X155942058Y-53195394D01*
X155930956Y-53358236D01*
X155893916Y-53901571D01*
X155862135Y-54090983D01*
X155771235Y-54330595D01*
X155696542Y-54450012D01*
X155635335Y-54547869D01*
X155459660Y-54734456D01*
X155303398Y-54845813D01*
X155250958Y-54883184D01*
X155017251Y-54988339D01*
X155017247Y-54988340D01*
X154767521Y-55045880D01*
X154511366Y-55053594D01*
X154511362Y-55053594D01*
X154258621Y-55011187D01*
X154019009Y-54920287D01*
X153801735Y-54784387D01*
X153787642Y-54771118D01*
X153615148Y-54608712D01*
X153485166Y-54426315D01*
X153466420Y-54400010D01*
X153361265Y-54166303D01*
X153315245Y-53966572D01*
X153303724Y-53916572D01*
X153297942Y-53724608D01*
X153346084Y-53018428D01*
X153352796Y-52978428D01*
X153377865Y-52829017D01*
X153468765Y-52589405D01*
X153604665Y-52372131D01*
X153661950Y-52311288D01*
X153780340Y-52185544D01*
X153936602Y-52074187D01*
X153989042Y-52036816D01*
X154222749Y-51931661D01*
X154255477Y-51924120D01*
X154472479Y-51874120D01*
X154728634Y-51866406D01*
X154728638Y-51866406D01*
X154981379Y-51908813D01*
G37*
G36*
X135881379Y-51908813D02*
G01*
X136120991Y-51999713D01*
X136338265Y-52135613D01*
X136524852Y-52311288D01*
X136586026Y-52397131D01*
X136673580Y-52519990D01*
X136778735Y-52753697D01*
X136778736Y-52753701D01*
X136836276Y-53003428D01*
X136842058Y-53195394D01*
X136830956Y-53358236D01*
X136793916Y-53901571D01*
X136762135Y-54090983D01*
X136671235Y-54330595D01*
X136596542Y-54450012D01*
X136535335Y-54547869D01*
X136359660Y-54734456D01*
X136203398Y-54845813D01*
X136150958Y-54883184D01*
X135917251Y-54988339D01*
X135917247Y-54988340D01*
X135667521Y-55045880D01*
X135411366Y-55053594D01*
X135411362Y-55053594D01*
X135158621Y-55011187D01*
X134919009Y-54920287D01*
X134701735Y-54784387D01*
X134687642Y-54771118D01*
X134515148Y-54608712D01*
X134385166Y-54426315D01*
X134366420Y-54400010D01*
X134261265Y-54166303D01*
X134215245Y-53966572D01*
X134203724Y-53916572D01*
X134197942Y-53724608D01*
X134246084Y-53018428D01*
X134252796Y-52978428D01*
X134277865Y-52829017D01*
X134368765Y-52589405D01*
X134504665Y-52372131D01*
X134561950Y-52311288D01*
X134680340Y-52185544D01*
X134836602Y-52074187D01*
X134889042Y-52036816D01*
X135122749Y-51931661D01*
X135155477Y-51924120D01*
X135372479Y-51874120D01*
X135628634Y-51866406D01*
X135628638Y-51866406D01*
X135881379Y-51908813D01*
G37*
G36*
X74156379Y-51883813D02*
G01*
X74395991Y-51974713D01*
X74563108Y-52079241D01*
X74613265Y-52110613D01*
X74799852Y-52286288D01*
X74861026Y-52372131D01*
X74948580Y-52494990D01*
X75053735Y-52728697D01*
X75053736Y-52728701D01*
X75111276Y-52978428D01*
X75117058Y-53170394D01*
X75109017Y-53288335D01*
X75068916Y-53876571D01*
X75037135Y-54065983D01*
X74946235Y-54305595D01*
X74871542Y-54425012D01*
X74810335Y-54522869D01*
X74634660Y-54709456D01*
X74478398Y-54820813D01*
X74425958Y-54858184D01*
X74192251Y-54963339D01*
X74192247Y-54963340D01*
X73942521Y-55020880D01*
X73686366Y-55028594D01*
X73686362Y-55028594D01*
X73433621Y-54986187D01*
X73194009Y-54895287D01*
X72976735Y-54759387D01*
X72790148Y-54583712D01*
X72660166Y-54401315D01*
X72641420Y-54375010D01*
X72536265Y-54141303D01*
X72524671Y-54090983D01*
X72478724Y-53891572D01*
X72472942Y-53699608D01*
X72521084Y-52993428D01*
X72532201Y-52927175D01*
X72552865Y-52804017D01*
X72643765Y-52564405D01*
X72779665Y-52347131D01*
X72836950Y-52286288D01*
X72955340Y-52160544D01*
X73111602Y-52049187D01*
X73164042Y-52011816D01*
X73397749Y-51906661D01*
X73430477Y-51899120D01*
X73647479Y-51849120D01*
X73903634Y-51841406D01*
X73903638Y-51841406D01*
X74156379Y-51883813D01*
G37*
G36*
X116881379Y-51883813D02*
G01*
X117120991Y-51974713D01*
X117288108Y-52079241D01*
X117338265Y-52110613D01*
X117524852Y-52286288D01*
X117586026Y-52372131D01*
X117673580Y-52494990D01*
X117778735Y-52728697D01*
X117778736Y-52728701D01*
X117836276Y-52978428D01*
X117842058Y-53170394D01*
X117834017Y-53288335D01*
X117793916Y-53876571D01*
X117762135Y-54065983D01*
X117671235Y-54305595D01*
X117596542Y-54425012D01*
X117535335Y-54522869D01*
X117359660Y-54709456D01*
X117203398Y-54820813D01*
X117150958Y-54858184D01*
X116917251Y-54963339D01*
X116917247Y-54963340D01*
X116667521Y-55020880D01*
X116411366Y-55028594D01*
X116411362Y-55028594D01*
X116158621Y-54986187D01*
X115919009Y-54895287D01*
X115701735Y-54759387D01*
X115515148Y-54583712D01*
X115385166Y-54401315D01*
X115366420Y-54375010D01*
X115261265Y-54141303D01*
X115249671Y-54090983D01*
X115203724Y-53891572D01*
X115197942Y-53699608D01*
X115246084Y-52993428D01*
X115257201Y-52927175D01*
X115277865Y-52804017D01*
X115368765Y-52564405D01*
X115504665Y-52347131D01*
X115561950Y-52286288D01*
X115680340Y-52160544D01*
X115836602Y-52049187D01*
X115889042Y-52011816D01*
X116122749Y-51906661D01*
X116155477Y-51899120D01*
X116372479Y-51849120D01*
X116628634Y-51841406D01*
X116628638Y-51841406D01*
X116881379Y-51883813D01*
G37*
G36*
X42150483Y-50748335D02*
G01*
X42319240Y-50818236D01*
X42471118Y-50919718D01*
X42600282Y-51048882D01*
X42701764Y-51200760D01*
X42771665Y-51369517D01*
X42807300Y-51548668D01*
X42807300Y-51731332D01*
X42771665Y-51910483D01*
X42701764Y-52079240D01*
X42600282Y-52231118D01*
X42471118Y-52360282D01*
X42319240Y-52461764D01*
X42150483Y-52531665D01*
X41971332Y-52567300D01*
X41788668Y-52567300D01*
X41609517Y-52531665D01*
X41440760Y-52461764D01*
X41288882Y-52360282D01*
X41159718Y-52231118D01*
X41058236Y-52079240D01*
X40988335Y-51910483D01*
X40952700Y-51731332D01*
X40952700Y-51548668D01*
X40988335Y-51369517D01*
X41058236Y-51200760D01*
X41159718Y-51048882D01*
X41288882Y-50919718D01*
X41440760Y-50818236D01*
X41609517Y-50748335D01*
X41788668Y-50712700D01*
X41971332Y-50712700D01*
X42150483Y-50748335D01*
G37*
G36*
X57390483Y-50748335D02*
G01*
X57559240Y-50818236D01*
X57711118Y-50919718D01*
X57840282Y-51048882D01*
X57941764Y-51200760D01*
X58011665Y-51369517D01*
X58047300Y-51548668D01*
X58047300Y-51731332D01*
X58011665Y-51910483D01*
X57941764Y-52079240D01*
X57840282Y-52231118D01*
X57711118Y-52360282D01*
X57559240Y-52461764D01*
X57390483Y-52531665D01*
X57211332Y-52567300D01*
X57028668Y-52567300D01*
X56849517Y-52531665D01*
X56680760Y-52461764D01*
X56528882Y-52360282D01*
X56399718Y-52231118D01*
X56298236Y-52079240D01*
X56228335Y-51910483D01*
X56192700Y-51731332D01*
X56192700Y-51548668D01*
X56228335Y-51369517D01*
X56298236Y-51200760D01*
X56399718Y-51048882D01*
X56528882Y-50919718D01*
X56680760Y-50818236D01*
X56849517Y-50748335D01*
X57028668Y-50712700D01*
X57211332Y-50712700D01*
X57390483Y-50748335D01*
G37*
G36*
X42150483Y-48208335D02*
G01*
X42319240Y-48278236D01*
X42471118Y-48379718D01*
X42600282Y-48508882D01*
X42701764Y-48660760D01*
X42771665Y-48829517D01*
X42807300Y-49008668D01*
X42807300Y-49191332D01*
X42771665Y-49370483D01*
X42701764Y-49539240D01*
X42600282Y-49691118D01*
X42471118Y-49820282D01*
X42319240Y-49921764D01*
X42150483Y-49991665D01*
X41971332Y-50027300D01*
X41788668Y-50027300D01*
X41609517Y-49991665D01*
X41440760Y-49921764D01*
X41288882Y-49820282D01*
X41159718Y-49691118D01*
X41058236Y-49539240D01*
X40988335Y-49370483D01*
X40952700Y-49191332D01*
X40952700Y-49008668D01*
X40988335Y-48829517D01*
X41058236Y-48660760D01*
X41159718Y-48508882D01*
X41288882Y-48379718D01*
X41440760Y-48278236D01*
X41609517Y-48208335D01*
X41788668Y-48172700D01*
X41971332Y-48172700D01*
X42150483Y-48208335D01*
G37*
G36*
X57390483Y-48208335D02*
G01*
X57559240Y-48278236D01*
X57711118Y-48379718D01*
X57840282Y-48508882D01*
X57941764Y-48660760D01*
X58011665Y-48829517D01*
X58047300Y-49008668D01*
X58047300Y-49191332D01*
X58011665Y-49370483D01*
X57941764Y-49539240D01*
X57840282Y-49691118D01*
X57711118Y-49820282D01*
X57559240Y-49921764D01*
X57390483Y-49991665D01*
X57211332Y-50027300D01*
X57028668Y-50027300D01*
X56849517Y-49991665D01*
X56680760Y-49921764D01*
X56528882Y-49820282D01*
X56399718Y-49691118D01*
X56298236Y-49539240D01*
X56228335Y-49370483D01*
X56192700Y-49191332D01*
X56192700Y-49008668D01*
X56228335Y-48829517D01*
X56298236Y-48660760D01*
X56399718Y-48508882D01*
X56528882Y-48379718D01*
X56680760Y-48278236D01*
X56849517Y-48208335D01*
X57028668Y-48172700D01*
X57211332Y-48172700D01*
X57390483Y-48208335D01*
G37*
G36*
X187051000Y-49726000D02*
G01*
X185349000Y-49726000D01*
X185349000Y-48024000D01*
X187051000Y-48024000D01*
X187051000Y-49726000D01*
G37*
G36*
X194248228Y-48056703D02*
G01*
X194403100Y-48120853D01*
X194542481Y-48213985D01*
X194661015Y-48332519D01*
X194754147Y-48471900D01*
X194818297Y-48626772D01*
X194851000Y-48791184D01*
X194851000Y-48958816D01*
X194818297Y-49123228D01*
X194754147Y-49278100D01*
X194661015Y-49417481D01*
X194542481Y-49536015D01*
X194403100Y-49629147D01*
X194248228Y-49693297D01*
X194083816Y-49726000D01*
X193916184Y-49726000D01*
X193751772Y-49693297D01*
X193596900Y-49629147D01*
X193457519Y-49536015D01*
X193338985Y-49417481D01*
X193245853Y-49278100D01*
X193181703Y-49123228D01*
X193149000Y-48958816D01*
X193149000Y-48791184D01*
X193181703Y-48626772D01*
X193245853Y-48471900D01*
X193338985Y-48332519D01*
X193457519Y-48213985D01*
X193596900Y-48120853D01*
X193751772Y-48056703D01*
X193916184Y-48024000D01*
X194083816Y-48024000D01*
X194248228Y-48056703D01*
G37*
G36*
X99023228Y-48031703D02*
G01*
X99178100Y-48095853D01*
X99317481Y-48188985D01*
X99436015Y-48307519D01*
X99529147Y-48446900D01*
X99593297Y-48601772D01*
X99626000Y-48766184D01*
X99626000Y-48933816D01*
X99593297Y-49098228D01*
X99529147Y-49253100D01*
X99436015Y-49392481D01*
X99317481Y-49511015D01*
X99178100Y-49604147D01*
X99023228Y-49668297D01*
X98858816Y-49701000D01*
X98691184Y-49701000D01*
X98526772Y-49668297D01*
X98371900Y-49604147D01*
X98232519Y-49511015D01*
X98113985Y-49392481D01*
X98020853Y-49253100D01*
X97956703Y-49098228D01*
X97924000Y-48933816D01*
X97924000Y-48766184D01*
X97956703Y-48601772D01*
X98020853Y-48446900D01*
X98113985Y-48307519D01*
X98232519Y-48188985D01*
X98371900Y-48095853D01*
X98526772Y-48031703D01*
X98691184Y-47999000D01*
X98858816Y-47999000D01*
X99023228Y-48031703D01*
G37*
G36*
X91826000Y-49701000D02*
G01*
X90124000Y-49701000D01*
X90124000Y-47999000D01*
X91826000Y-47999000D01*
X91826000Y-49701000D01*
G37*
G36*
X111076000Y-49676000D02*
G01*
X109374000Y-49676000D01*
X109374000Y-47974000D01*
X111076000Y-47974000D01*
X111076000Y-49676000D01*
G37*
G36*
X175273228Y-48006703D02*
G01*
X175428100Y-48070853D01*
X175567481Y-48163985D01*
X175686015Y-48282519D01*
X175779147Y-48421900D01*
X175843297Y-48576772D01*
X175876000Y-48741184D01*
X175876000Y-48908816D01*
X175843297Y-49073228D01*
X175779147Y-49228100D01*
X175686015Y-49367481D01*
X175567481Y-49486015D01*
X175428100Y-49579147D01*
X175273228Y-49643297D01*
X175108816Y-49676000D01*
X174941184Y-49676000D01*
X174776772Y-49643297D01*
X174621900Y-49579147D01*
X174482519Y-49486015D01*
X174363985Y-49367481D01*
X174270853Y-49228100D01*
X174206703Y-49073228D01*
X174174000Y-48908816D01*
X174174000Y-48741184D01*
X174206703Y-48576772D01*
X174270853Y-48421900D01*
X174363985Y-48282519D01*
X174482519Y-48163985D01*
X174621900Y-48070853D01*
X174776772Y-48006703D01*
X174941184Y-47974000D01*
X175108816Y-47974000D01*
X175273228Y-48006703D01*
G37*
G36*
X156373228Y-48006703D02*
G01*
X156528100Y-48070853D01*
X156667481Y-48163985D01*
X156786015Y-48282519D01*
X156879147Y-48421900D01*
X156943297Y-48576772D01*
X156976000Y-48741184D01*
X156976000Y-48908816D01*
X156943297Y-49073228D01*
X156879147Y-49228100D01*
X156786015Y-49367481D01*
X156667481Y-49486015D01*
X156528100Y-49579147D01*
X156373228Y-49643297D01*
X156208816Y-49676000D01*
X156041184Y-49676000D01*
X155876772Y-49643297D01*
X155721900Y-49579147D01*
X155582519Y-49486015D01*
X155463985Y-49367481D01*
X155370853Y-49228100D01*
X155306703Y-49073228D01*
X155274000Y-48908816D01*
X155274000Y-48741184D01*
X155306703Y-48576772D01*
X155370853Y-48421900D01*
X155463985Y-48282519D01*
X155582519Y-48163985D01*
X155721900Y-48070853D01*
X155876772Y-48006703D01*
X156041184Y-47974000D01*
X156208816Y-47974000D01*
X156373228Y-48006703D01*
G37*
G36*
X149176000Y-49676000D02*
G01*
X147474000Y-49676000D01*
X147474000Y-47974000D01*
X149176000Y-47974000D01*
X149176000Y-49676000D01*
G37*
G36*
X118273228Y-48006703D02*
G01*
X118428100Y-48070853D01*
X118567481Y-48163985D01*
X118686015Y-48282519D01*
X118779147Y-48421900D01*
X118843297Y-48576772D01*
X118876000Y-48741184D01*
X118876000Y-48908816D01*
X118843297Y-49073228D01*
X118779147Y-49228100D01*
X118686015Y-49367481D01*
X118567481Y-49486015D01*
X118428100Y-49579147D01*
X118273228Y-49643297D01*
X118108816Y-49676000D01*
X117941184Y-49676000D01*
X117776772Y-49643297D01*
X117621900Y-49579147D01*
X117482519Y-49486015D01*
X117363985Y-49367481D01*
X117270853Y-49228100D01*
X117206703Y-49073228D01*
X117174000Y-48908816D01*
X117174000Y-48741184D01*
X117206703Y-48576772D01*
X117270853Y-48421900D01*
X117363985Y-48282519D01*
X117482519Y-48163985D01*
X117621900Y-48070853D01*
X117776772Y-48006703D01*
X117941184Y-47974000D01*
X118108816Y-47974000D01*
X118273228Y-48006703D01*
G37*
G36*
X168076000Y-49676000D02*
G01*
X166374000Y-49676000D01*
X166374000Y-47974000D01*
X168076000Y-47974000D01*
X168076000Y-49676000D01*
G37*
G36*
X137023228Y-47981703D02*
G01*
X137178100Y-48045853D01*
X137317481Y-48138985D01*
X137436015Y-48257519D01*
X137529147Y-48396900D01*
X137593297Y-48551772D01*
X137626000Y-48716184D01*
X137626000Y-48883816D01*
X137593297Y-49048228D01*
X137529147Y-49203100D01*
X137436015Y-49342481D01*
X137317481Y-49461015D01*
X137178100Y-49554147D01*
X137023228Y-49618297D01*
X136858816Y-49651000D01*
X136691184Y-49651000D01*
X136526772Y-49618297D01*
X136371900Y-49554147D01*
X136232519Y-49461015D01*
X136113985Y-49342481D01*
X136020853Y-49203100D01*
X135956703Y-49048228D01*
X135924000Y-48883816D01*
X135924000Y-48716184D01*
X135956703Y-48551772D01*
X136020853Y-48396900D01*
X136113985Y-48257519D01*
X136232519Y-48138985D01*
X136371900Y-48045853D01*
X136526772Y-47981703D01*
X136691184Y-47949000D01*
X136858816Y-47949000D01*
X137023228Y-47981703D01*
G37*
G36*
X129826000Y-49651000D02*
G01*
X128124000Y-49651000D01*
X128124000Y-47949000D01*
X129826000Y-47949000D01*
X129826000Y-49651000D01*
G37*
G36*
X68151000Y-49651000D02*
G01*
X66449000Y-49651000D01*
X66449000Y-47949000D01*
X68151000Y-47949000D01*
X68151000Y-49651000D01*
G37*
G36*
X75348228Y-47981703D02*
G01*
X75503100Y-48045853D01*
X75642481Y-48138985D01*
X75761015Y-48257519D01*
X75854147Y-48396900D01*
X75918297Y-48551772D01*
X75951000Y-48716184D01*
X75951000Y-48883816D01*
X75918297Y-49048228D01*
X75854147Y-49203100D01*
X75761015Y-49342481D01*
X75642481Y-49461015D01*
X75503100Y-49554147D01*
X75348228Y-49618297D01*
X75183816Y-49651000D01*
X75016184Y-49651000D01*
X74851772Y-49618297D01*
X74696900Y-49554147D01*
X74557519Y-49461015D01*
X74438985Y-49342481D01*
X74345853Y-49203100D01*
X74281703Y-49048228D01*
X74249000Y-48883816D01*
X74249000Y-48716184D01*
X74281703Y-48551772D01*
X74345853Y-48396900D01*
X74438985Y-48257519D01*
X74557519Y-48138985D01*
X74696900Y-48045853D01*
X74851772Y-47981703D01*
X75016184Y-47949000D01*
X75183816Y-47949000D01*
X75348228Y-47981703D01*
G37*
G36*
X57390483Y-45668335D02*
G01*
X57559240Y-45738236D01*
X57711118Y-45839718D01*
X57840282Y-45968882D01*
X57941764Y-46120760D01*
X58011665Y-46289517D01*
X58047300Y-46468668D01*
X58047300Y-46651332D01*
X58011665Y-46830483D01*
X57941764Y-46999240D01*
X57840282Y-47151118D01*
X57711118Y-47280282D01*
X57559240Y-47381764D01*
X57390483Y-47451665D01*
X57211332Y-47487300D01*
X57028668Y-47487300D01*
X56849517Y-47451665D01*
X56680760Y-47381764D01*
X56528882Y-47280282D01*
X56399718Y-47151118D01*
X56298236Y-46999240D01*
X56228335Y-46830483D01*
X56192700Y-46651332D01*
X56192700Y-46468668D01*
X56228335Y-46289517D01*
X56298236Y-46120760D01*
X56399718Y-45968882D01*
X56528882Y-45839718D01*
X56680760Y-45738236D01*
X56849517Y-45668335D01*
X57028668Y-45632700D01*
X57211332Y-45632700D01*
X57390483Y-45668335D01*
G37*
G36*
X42150483Y-45668335D02*
G01*
X42319240Y-45738236D01*
X42471118Y-45839718D01*
X42600282Y-45968882D01*
X42701764Y-46120760D01*
X42771665Y-46289517D01*
X42807300Y-46468668D01*
X42807300Y-46651332D01*
X42771665Y-46830483D01*
X42701764Y-46999240D01*
X42600282Y-47151118D01*
X42471118Y-47280282D01*
X42319240Y-47381764D01*
X42150483Y-47451665D01*
X41971332Y-47487300D01*
X41788668Y-47487300D01*
X41609517Y-47451665D01*
X41440760Y-47381764D01*
X41288882Y-47280282D01*
X41159718Y-47151118D01*
X41058236Y-46999240D01*
X40988335Y-46830483D01*
X40952700Y-46651332D01*
X40952700Y-46468668D01*
X40988335Y-46289517D01*
X41058236Y-46120760D01*
X41159718Y-45968882D01*
X41288882Y-45839718D01*
X41440760Y-45738236D01*
X41609517Y-45668335D01*
X41788668Y-45632700D01*
X41971332Y-45632700D01*
X42150483Y-45668335D01*
G37*
G36*
X33301000Y-47451000D02*
G01*
X31799000Y-47451000D01*
X31799000Y-45249000D01*
X33301000Y-45249000D01*
X33301000Y-47451000D01*
G37*
G36*
X37801000Y-47451000D02*
G01*
X36299000Y-47451000D01*
X36299000Y-45249000D01*
X37801000Y-45249000D01*
X37801000Y-47451000D01*
G37*
G36*
X57390483Y-43128335D02*
G01*
X57559240Y-43198236D01*
X57711118Y-43299718D01*
X57840282Y-43428882D01*
X57941764Y-43580760D01*
X58011665Y-43749517D01*
X58047300Y-43928668D01*
X58047300Y-44111332D01*
X58011665Y-44290483D01*
X57941764Y-44459240D01*
X57840282Y-44611118D01*
X57711118Y-44740282D01*
X57559240Y-44841764D01*
X57390483Y-44911665D01*
X57211332Y-44947300D01*
X57028668Y-44947300D01*
X56849517Y-44911665D01*
X56680760Y-44841764D01*
X56528882Y-44740282D01*
X56399718Y-44611118D01*
X56298236Y-44459240D01*
X56228335Y-44290483D01*
X56192700Y-44111332D01*
X56192700Y-43928668D01*
X56228335Y-43749517D01*
X56298236Y-43580760D01*
X56399718Y-43428882D01*
X56528882Y-43299718D01*
X56680760Y-43198236D01*
X56849517Y-43128335D01*
X57028668Y-43092700D01*
X57211332Y-43092700D01*
X57390483Y-43128335D01*
G37*
G36*
X42150483Y-43128335D02*
G01*
X42319240Y-43198236D01*
X42471118Y-43299718D01*
X42600282Y-43428882D01*
X42701764Y-43580760D01*
X42771665Y-43749517D01*
X42807300Y-43928668D01*
X42807300Y-44111332D01*
X42771665Y-44290483D01*
X42701764Y-44459240D01*
X42600282Y-44611118D01*
X42471118Y-44740282D01*
X42319240Y-44841764D01*
X42150483Y-44911665D01*
X41971332Y-44947300D01*
X41788668Y-44947300D01*
X41609517Y-44911665D01*
X41440760Y-44841764D01*
X41288882Y-44740282D01*
X41159718Y-44611118D01*
X41058236Y-44459240D01*
X40988335Y-44290483D01*
X40952700Y-44111332D01*
X40952700Y-43928668D01*
X40988335Y-43749517D01*
X41058236Y-43580760D01*
X41159718Y-43428882D01*
X41288882Y-43299718D01*
X41440760Y-43198236D01*
X41609517Y-43128335D01*
X41788668Y-43092700D01*
X41971332Y-43092700D01*
X42150483Y-43128335D01*
G37*
G36*
X57390483Y-40588335D02*
G01*
X57559240Y-40658236D01*
X57711118Y-40759718D01*
X57840282Y-40888882D01*
X57941764Y-41040760D01*
X58011665Y-41209517D01*
X58047300Y-41388668D01*
X58047300Y-41571332D01*
X58011665Y-41750483D01*
X57941764Y-41919240D01*
X57840282Y-42071118D01*
X57711118Y-42200282D01*
X57559240Y-42301764D01*
X57390483Y-42371665D01*
X57211332Y-42407300D01*
X57028668Y-42407300D01*
X56849517Y-42371665D01*
X56680760Y-42301764D01*
X56528882Y-42200282D01*
X56399718Y-42071118D01*
X56298236Y-41919240D01*
X56228335Y-41750483D01*
X56192700Y-41571332D01*
X56192700Y-41388668D01*
X56228335Y-41209517D01*
X56298236Y-41040760D01*
X56399718Y-40888882D01*
X56528882Y-40759718D01*
X56680760Y-40658236D01*
X56849517Y-40588335D01*
X57028668Y-40552700D01*
X57211332Y-40552700D01*
X57390483Y-40588335D01*
G37*
G36*
X42150483Y-40588335D02*
G01*
X42319240Y-40658236D01*
X42471118Y-40759718D01*
X42600282Y-40888882D01*
X42701764Y-41040760D01*
X42771665Y-41209517D01*
X42807300Y-41388668D01*
X42807300Y-41571332D01*
X42771665Y-41750483D01*
X42701764Y-41919240D01*
X42600282Y-42071118D01*
X42471118Y-42200282D01*
X42319240Y-42301764D01*
X42150483Y-42371665D01*
X41971332Y-42407300D01*
X41788668Y-42407300D01*
X41609517Y-42371665D01*
X41440760Y-42301764D01*
X41288882Y-42200282D01*
X41159718Y-42071118D01*
X41058236Y-41919240D01*
X40988335Y-41750483D01*
X40952700Y-41571332D01*
X40952700Y-41388668D01*
X40988335Y-41209517D01*
X41058236Y-41040760D01*
X41159718Y-40888882D01*
X41288882Y-40759718D01*
X41440760Y-40658236D01*
X41609517Y-40588335D01*
X41788668Y-40552700D01*
X41971332Y-40552700D01*
X42150483Y-40588335D01*
G37*
G36*
X57390483Y-38048335D02*
G01*
X57559240Y-38118236D01*
X57711118Y-38219718D01*
X57840282Y-38348882D01*
X57941764Y-38500760D01*
X58011665Y-38669517D01*
X58047300Y-38848668D01*
X58047300Y-39031332D01*
X58011665Y-39210483D01*
X57941764Y-39379240D01*
X57840282Y-39531118D01*
X57711118Y-39660282D01*
X57559240Y-39761764D01*
X57390483Y-39831665D01*
X57211332Y-39867300D01*
X57028668Y-39867300D01*
X56849517Y-39831665D01*
X56680760Y-39761764D01*
X56528882Y-39660282D01*
X56399718Y-39531118D01*
X56298236Y-39379240D01*
X56228335Y-39210483D01*
X56192700Y-39031332D01*
X56192700Y-38848668D01*
X56228335Y-38669517D01*
X56298236Y-38500760D01*
X56399718Y-38348882D01*
X56528882Y-38219718D01*
X56680760Y-38118236D01*
X56849517Y-38048335D01*
X57028668Y-38012700D01*
X57211332Y-38012700D01*
X57390483Y-38048335D01*
G37*
G36*
X42150483Y-38048335D02*
G01*
X42319240Y-38118236D01*
X42471118Y-38219718D01*
X42600282Y-38348882D01*
X42701764Y-38500760D01*
X42771665Y-38669517D01*
X42807300Y-38848668D01*
X42807300Y-39031332D01*
X42771665Y-39210483D01*
X42701764Y-39379240D01*
X42600282Y-39531118D01*
X42471118Y-39660282D01*
X42319240Y-39761764D01*
X42150483Y-39831665D01*
X41971332Y-39867300D01*
X41788668Y-39867300D01*
X41609517Y-39831665D01*
X41440760Y-39761764D01*
X41288882Y-39660282D01*
X41159718Y-39531118D01*
X41058236Y-39379240D01*
X40988335Y-39210483D01*
X40952700Y-39031332D01*
X40952700Y-38848668D01*
X40988335Y-38669517D01*
X41058236Y-38500760D01*
X41159718Y-38348882D01*
X41288882Y-38219718D01*
X41440760Y-38118236D01*
X41609517Y-38048335D01*
X41788668Y-38012700D01*
X41971332Y-38012700D01*
X42150483Y-38048335D01*
G37*
G36*
X205616823Y-37061313D02*
G01*
X205777242Y-37109976D01*
X205908850Y-37180322D01*
X205925078Y-37188996D01*
X206054659Y-37295341D01*
X206161004Y-37424922D01*
X206161005Y-37424924D01*
X206240024Y-37572758D01*
X206240025Y-37572761D01*
X206255312Y-37623157D01*
X206288687Y-37733178D01*
X206301000Y-37858197D01*
X206301000Y-38341804D01*
X206288687Y-38466823D01*
X206240024Y-38627242D01*
X206169114Y-38759906D01*
X206161004Y-38775078D01*
X206100610Y-38848668D01*
X206054659Y-38904659D01*
X205925077Y-39011005D01*
X205777241Y-39090024D01*
X205616822Y-39138687D01*
X205450000Y-39155117D01*
X205283177Y-39138687D01*
X205122758Y-39090024D01*
X204974924Y-39011005D01*
X204974922Y-39011004D01*
X204845341Y-38904659D01*
X204799390Y-38848668D01*
X204738995Y-38775077D01*
X204659976Y-38627241D01*
X204611313Y-38466822D01*
X204599000Y-38341803D01*
X204599000Y-37858196D01*
X204611313Y-37733177D01*
X204659976Y-37572758D01*
X204738995Y-37424924D01*
X204738996Y-37424922D01*
X204845342Y-37295341D01*
X204974923Y-37188996D01*
X204991151Y-37180322D01*
X205122759Y-37109976D01*
X205283178Y-37061313D01*
X205450000Y-37044883D01*
X205616823Y-37061313D01*
G37*
G36*
X201016823Y-35961313D02*
G01*
X201105915Y-35988339D01*
X201172990Y-36008686D01*
X201177242Y-36009976D01*
X201258845Y-36053594D01*
X201325078Y-36088996D01*
X201454659Y-36195341D01*
X201561004Y-36324922D01*
X201561005Y-36324924D01*
X201640024Y-36472758D01*
X201688687Y-36633178D01*
X201701000Y-36758197D01*
X201701000Y-37241804D01*
X201688687Y-37366823D01*
X201640024Y-37527242D01*
X201602119Y-37598157D01*
X201561004Y-37675078D01*
X201494285Y-37756375D01*
X201454659Y-37804659D01*
X201325077Y-37911005D01*
X201177241Y-37990024D01*
X201016822Y-38038687D01*
X200850000Y-38055117D01*
X200683177Y-38038687D01*
X200522758Y-37990024D01*
X200374924Y-37911005D01*
X200374922Y-37911004D01*
X200245341Y-37804659D01*
X200205715Y-37756375D01*
X200138995Y-37675077D01*
X200059976Y-37527241D01*
X200011313Y-37366822D01*
X199999000Y-37241803D01*
X199999000Y-36758196D01*
X200011313Y-36633177D01*
X200059976Y-36472758D01*
X200138995Y-36324924D01*
X200138996Y-36324922D01*
X200245342Y-36195341D01*
X200374923Y-36088996D01*
X200441156Y-36053594D01*
X200522759Y-36009976D01*
X200527012Y-36008686D01*
X200594086Y-35988339D01*
X200683178Y-35961313D01*
X200850000Y-35944883D01*
X201016823Y-35961313D01*
G37*
G36*
X64016294Y-33487236D02*
G01*
X64101471Y-33493753D01*
X64141253Y-33504879D01*
X64348275Y-33562777D01*
X64576870Y-33678625D01*
X64576872Y-33678626D01*
X64576873Y-33678627D01*
X64736645Y-33804017D01*
X64778472Y-33836843D01*
X64945334Y-34031353D01*
X65071043Y-34254678D01*
X65135344Y-34451118D01*
X65150768Y-34498239D01*
X65172895Y-34681763D01*
X65181444Y-34752667D01*
X65161895Y-35008195D01*
X65112063Y-35186373D01*
X65092870Y-35255000D01*
X65054559Y-35330596D01*
X65006050Y-35426316D01*
X63728454Y-37431738D01*
X63728452Y-37431740D01*
X63609880Y-37582826D01*
X63415373Y-37749686D01*
X63317711Y-37804659D01*
X63192045Y-37875396D01*
X63024862Y-37930120D01*
X62948484Y-37955121D01*
X62694057Y-37985797D01*
X62694056Y-37985797D01*
X62438529Y-37966248D01*
X62191725Y-37897223D01*
X62191724Y-37897223D01*
X62191722Y-37897222D01*
X61963135Y-37781378D01*
X61963133Y-37781377D01*
X61963130Y-37781375D01*
X61761528Y-37623157D01*
X61761524Y-37623154D01*
X61594667Y-37428650D01*
X61489492Y-37241803D01*
X61468957Y-37205322D01*
X61389233Y-36961764D01*
X61389232Y-36961761D01*
X61358556Y-36707334D01*
X61361375Y-36670483D01*
X61378105Y-36451806D01*
X61447130Y-36205002D01*
X61447130Y-36205001D01*
X61527770Y-36045880D01*
X61533950Y-36033685D01*
X62811545Y-34028262D01*
X62930119Y-33877175D01*
X63074052Y-33753701D01*
X63124630Y-33710312D01*
X63347948Y-33584606D01*
X63409665Y-33564404D01*
X63591511Y-33504880D01*
X63591512Y-33504880D01*
X63591515Y-33504879D01*
X63845941Y-33474203D01*
X63845943Y-33474203D01*
X64016294Y-33487236D01*
G37*
G36*
X139991294Y-33487236D02*
G01*
X140076471Y-33493753D01*
X140116253Y-33504879D01*
X140323275Y-33562777D01*
X140551870Y-33678625D01*
X140551872Y-33678626D01*
X140551873Y-33678627D01*
X140711645Y-33804017D01*
X140753472Y-33836843D01*
X140920334Y-34031353D01*
X141046043Y-34254678D01*
X141110344Y-34451118D01*
X141125768Y-34498239D01*
X141147895Y-34681763D01*
X141156444Y-34752667D01*
X141136895Y-35008195D01*
X141087063Y-35186373D01*
X141067870Y-35255000D01*
X141029559Y-35330596D01*
X140981050Y-35426316D01*
X139703454Y-37431738D01*
X139703452Y-37431740D01*
X139584880Y-37582826D01*
X139390373Y-37749686D01*
X139292711Y-37804659D01*
X139167045Y-37875396D01*
X138999862Y-37930120D01*
X138923484Y-37955121D01*
X138669057Y-37985797D01*
X138669056Y-37985797D01*
X138413529Y-37966248D01*
X138166725Y-37897223D01*
X138166724Y-37897223D01*
X138166722Y-37897222D01*
X137938135Y-37781378D01*
X137938133Y-37781377D01*
X137938130Y-37781375D01*
X137736528Y-37623157D01*
X137736524Y-37623154D01*
X137569667Y-37428650D01*
X137464492Y-37241803D01*
X137443957Y-37205322D01*
X137364233Y-36961764D01*
X137364232Y-36961761D01*
X137333556Y-36707334D01*
X137336375Y-36670483D01*
X137353105Y-36451806D01*
X137422130Y-36205002D01*
X137422130Y-36205001D01*
X137502770Y-36045880D01*
X137508950Y-36033685D01*
X138786545Y-34028262D01*
X138905119Y-33877175D01*
X139049052Y-33753701D01*
X139099630Y-33710312D01*
X139322948Y-33584606D01*
X139384665Y-33564404D01*
X139566511Y-33504880D01*
X139566512Y-33504880D01*
X139566515Y-33504879D01*
X139820941Y-33474203D01*
X139820943Y-33474203D01*
X139991294Y-33487236D01*
G37*
G36*
X82991294Y-33487236D02*
G01*
X83076471Y-33493753D01*
X83116253Y-33504879D01*
X83323275Y-33562777D01*
X83551870Y-33678625D01*
X83551872Y-33678626D01*
X83551873Y-33678627D01*
X83711645Y-33804017D01*
X83753472Y-33836843D01*
X83920334Y-34031353D01*
X84046043Y-34254678D01*
X84110344Y-34451118D01*
X84125768Y-34498239D01*
X84147895Y-34681763D01*
X84156444Y-34752667D01*
X84136895Y-35008195D01*
X84087063Y-35186373D01*
X84067870Y-35255000D01*
X84029559Y-35330596D01*
X83981050Y-35426316D01*
X82703454Y-37431738D01*
X82703452Y-37431740D01*
X82584880Y-37582826D01*
X82390373Y-37749686D01*
X82292711Y-37804659D01*
X82167045Y-37875396D01*
X81999862Y-37930120D01*
X81923484Y-37955121D01*
X81669057Y-37985797D01*
X81669056Y-37985797D01*
X81413529Y-37966248D01*
X81166725Y-37897223D01*
X81166724Y-37897223D01*
X81166722Y-37897222D01*
X80938135Y-37781378D01*
X80938133Y-37781377D01*
X80938130Y-37781375D01*
X80736528Y-37623157D01*
X80736524Y-37623154D01*
X80569667Y-37428650D01*
X80464492Y-37241803D01*
X80443957Y-37205322D01*
X80364233Y-36961764D01*
X80364232Y-36961761D01*
X80333556Y-36707334D01*
X80336375Y-36670483D01*
X80353105Y-36451806D01*
X80422130Y-36205002D01*
X80422130Y-36205001D01*
X80502770Y-36045880D01*
X80508950Y-36033685D01*
X81786545Y-34028262D01*
X81905119Y-33877175D01*
X82049052Y-33753701D01*
X82099630Y-33710312D01*
X82322948Y-33584606D01*
X82384665Y-33564404D01*
X82566511Y-33504880D01*
X82566512Y-33504880D01*
X82566515Y-33504879D01*
X82820941Y-33474203D01*
X82820943Y-33474203D01*
X82991294Y-33487236D01*
G37*
G36*
X177991294Y-33487236D02*
G01*
X178076471Y-33493753D01*
X178116253Y-33504879D01*
X178323275Y-33562777D01*
X178551870Y-33678625D01*
X178551872Y-33678626D01*
X178551873Y-33678627D01*
X178711645Y-33804017D01*
X178753472Y-33836843D01*
X178920334Y-34031353D01*
X179046043Y-34254678D01*
X179110344Y-34451118D01*
X179125768Y-34498239D01*
X179147895Y-34681763D01*
X179156444Y-34752667D01*
X179136895Y-35008195D01*
X179087063Y-35186373D01*
X179067870Y-35255000D01*
X179029559Y-35330596D01*
X178981050Y-35426316D01*
X177703454Y-37431738D01*
X177703452Y-37431740D01*
X177584880Y-37582826D01*
X177390373Y-37749686D01*
X177292711Y-37804659D01*
X177167045Y-37875396D01*
X176999862Y-37930120D01*
X176923484Y-37955121D01*
X176669057Y-37985797D01*
X176669056Y-37985797D01*
X176413529Y-37966248D01*
X176166725Y-37897223D01*
X176166724Y-37897223D01*
X176166722Y-37897222D01*
X175938135Y-37781378D01*
X175938133Y-37781377D01*
X175938130Y-37781375D01*
X175736528Y-37623157D01*
X175736524Y-37623154D01*
X175569667Y-37428650D01*
X175464492Y-37241803D01*
X175443957Y-37205322D01*
X175364233Y-36961764D01*
X175364232Y-36961761D01*
X175333556Y-36707334D01*
X175336375Y-36670483D01*
X175353105Y-36451806D01*
X175422130Y-36205002D01*
X175422130Y-36205001D01*
X175502770Y-36045880D01*
X175508950Y-36033685D01*
X176786545Y-34028262D01*
X176905119Y-33877175D01*
X177049052Y-33753701D01*
X177099630Y-33710312D01*
X177322948Y-33584606D01*
X177384665Y-33564404D01*
X177566511Y-33504880D01*
X177566512Y-33504880D01*
X177566515Y-33504879D01*
X177820941Y-33474203D01*
X177820943Y-33474203D01*
X177991294Y-33487236D01*
G37*
G36*
X158966294Y-33462236D02*
G01*
X159051471Y-33468753D01*
X159091253Y-33479879D01*
X159298275Y-33537777D01*
X159526870Y-33653625D01*
X159526872Y-33653626D01*
X159526873Y-33653627D01*
X159558725Y-33678625D01*
X159728472Y-33811843D01*
X159895334Y-34006353D01*
X160021043Y-34229678D01*
X160093527Y-34451118D01*
X160100768Y-34473239D01*
X160128060Y-34699599D01*
X160131444Y-34727667D01*
X160111895Y-34983195D01*
X160088741Y-35065983D01*
X160042870Y-35230000D01*
X160004559Y-35305596D01*
X159956050Y-35401316D01*
X158678454Y-37406738D01*
X158661257Y-37428650D01*
X158559880Y-37557826D01*
X158365373Y-37724686D01*
X158264657Y-37781378D01*
X158142045Y-37850396D01*
X157904834Y-37928042D01*
X157898484Y-37930121D01*
X157644057Y-37960797D01*
X157644056Y-37960797D01*
X157388529Y-37941248D01*
X157141725Y-37872223D01*
X157141724Y-37872223D01*
X157141722Y-37872222D01*
X156913135Y-37756378D01*
X156913133Y-37756377D01*
X156913130Y-37756375D01*
X156711528Y-37598157D01*
X156711524Y-37598154D01*
X156544667Y-37403650D01*
X156453565Y-37241804D01*
X156418957Y-37180322D01*
X156339233Y-36936764D01*
X156339232Y-36936761D01*
X156308556Y-36682334D01*
X156312317Y-36633175D01*
X156328105Y-36426806D01*
X156397130Y-36180002D01*
X156397130Y-36180001D01*
X156461191Y-36053594D01*
X156483950Y-36008685D01*
X157761545Y-34003262D01*
X157880119Y-33852175D01*
X157977463Y-33768668D01*
X158074630Y-33685312D01*
X158297948Y-33559606D01*
X158297954Y-33559604D01*
X158541511Y-33479880D01*
X158541512Y-33479880D01*
X158541515Y-33479879D01*
X158795941Y-33449203D01*
X158795943Y-33449203D01*
X158966294Y-33462236D01*
G37*
G36*
X102016294Y-33462236D02*
G01*
X102101471Y-33468753D01*
X102141253Y-33479879D01*
X102348275Y-33537777D01*
X102576870Y-33653625D01*
X102576872Y-33653626D01*
X102576873Y-33653627D01*
X102608725Y-33678625D01*
X102778472Y-33811843D01*
X102945334Y-34006353D01*
X103071043Y-34229678D01*
X103143527Y-34451118D01*
X103150768Y-34473239D01*
X103178060Y-34699599D01*
X103181444Y-34727667D01*
X103161895Y-34983195D01*
X103138741Y-35065983D01*
X103092870Y-35230000D01*
X103054559Y-35305596D01*
X103006050Y-35401316D01*
X101728454Y-37406738D01*
X101711257Y-37428650D01*
X101609880Y-37557826D01*
X101415373Y-37724686D01*
X101314657Y-37781378D01*
X101192045Y-37850396D01*
X100954834Y-37928042D01*
X100948484Y-37930121D01*
X100694057Y-37960797D01*
X100694056Y-37960797D01*
X100438529Y-37941248D01*
X100191725Y-37872223D01*
X100191724Y-37872223D01*
X100191722Y-37872222D01*
X99963135Y-37756378D01*
X99963133Y-37756377D01*
X99963130Y-37756375D01*
X99761528Y-37598157D01*
X99761524Y-37598154D01*
X99594667Y-37403650D01*
X99503565Y-37241804D01*
X99468957Y-37180322D01*
X99389233Y-36936764D01*
X99389232Y-36936761D01*
X99358556Y-36682334D01*
X99362317Y-36633175D01*
X99378105Y-36426806D01*
X99447130Y-36180002D01*
X99447130Y-36180001D01*
X99511191Y-36053594D01*
X99533950Y-36008685D01*
X100811545Y-34003262D01*
X100930119Y-33852175D01*
X101027463Y-33768668D01*
X101124630Y-33685312D01*
X101347948Y-33559606D01*
X101347954Y-33559604D01*
X101591511Y-33479880D01*
X101591512Y-33479880D01*
X101591515Y-33479879D01*
X101845941Y-33449203D01*
X101845943Y-33449203D01*
X102016294Y-33462236D01*
G37*
G36*
X120966294Y-33462236D02*
G01*
X121051471Y-33468753D01*
X121091253Y-33479879D01*
X121298275Y-33537777D01*
X121526870Y-33653625D01*
X121526872Y-33653626D01*
X121526873Y-33653627D01*
X121558725Y-33678625D01*
X121728472Y-33811843D01*
X121895334Y-34006353D01*
X122021043Y-34229678D01*
X122093527Y-34451118D01*
X122100768Y-34473239D01*
X122128060Y-34699599D01*
X122131444Y-34727667D01*
X122111895Y-34983195D01*
X122088741Y-35065983D01*
X122042870Y-35230000D01*
X122004559Y-35305596D01*
X121956050Y-35401316D01*
X120678454Y-37406738D01*
X120661257Y-37428650D01*
X120559880Y-37557826D01*
X120365373Y-37724686D01*
X120264657Y-37781378D01*
X120142045Y-37850396D01*
X119904834Y-37928042D01*
X119898484Y-37930121D01*
X119644057Y-37960797D01*
X119644056Y-37960797D01*
X119388529Y-37941248D01*
X119141725Y-37872223D01*
X119141724Y-37872223D01*
X119141722Y-37872222D01*
X118913135Y-37756378D01*
X118913133Y-37756377D01*
X118913130Y-37756375D01*
X118711528Y-37598157D01*
X118711524Y-37598154D01*
X118544667Y-37403650D01*
X118453565Y-37241804D01*
X118418957Y-37180322D01*
X118339233Y-36936764D01*
X118339232Y-36936761D01*
X118308556Y-36682334D01*
X118312317Y-36633175D01*
X118328105Y-36426806D01*
X118397130Y-36180002D01*
X118397130Y-36180001D01*
X118461191Y-36053594D01*
X118483950Y-36008685D01*
X119761545Y-34003262D01*
X119880119Y-33852175D01*
X119977463Y-33768668D01*
X120074630Y-33685312D01*
X120297948Y-33559606D01*
X120297954Y-33559604D01*
X120541511Y-33479880D01*
X120541512Y-33479880D01*
X120541515Y-33479879D01*
X120795941Y-33449203D01*
X120795943Y-33449203D01*
X120966294Y-33462236D01*
G37*
G36*
X57390483Y-35508335D02*
G01*
X57559240Y-35578236D01*
X57711118Y-35679718D01*
X57840282Y-35808882D01*
X57941764Y-35960760D01*
X58011665Y-36129517D01*
X58047300Y-36308668D01*
X58047300Y-36491332D01*
X58011665Y-36670483D01*
X57941764Y-36839240D01*
X57840282Y-36991118D01*
X57711118Y-37120282D01*
X57559240Y-37221764D01*
X57390483Y-37291665D01*
X57211332Y-37327300D01*
X57028668Y-37327300D01*
X56849517Y-37291665D01*
X56680760Y-37221764D01*
X56528882Y-37120282D01*
X56399718Y-36991118D01*
X56298236Y-36839240D01*
X56228335Y-36670483D01*
X56192700Y-36491332D01*
X56192700Y-36308668D01*
X56228335Y-36129517D01*
X56298236Y-35960760D01*
X56399718Y-35808882D01*
X56528882Y-35679718D01*
X56680760Y-35578236D01*
X56849517Y-35508335D01*
X57028668Y-35472700D01*
X57211332Y-35472700D01*
X57390483Y-35508335D01*
G37*
G36*
X42150483Y-35508335D02*
G01*
X42319240Y-35578236D01*
X42471118Y-35679718D01*
X42600282Y-35808882D01*
X42701764Y-35960760D01*
X42771665Y-36129517D01*
X42807300Y-36308668D01*
X42807300Y-36491332D01*
X42771665Y-36670483D01*
X42701764Y-36839240D01*
X42600282Y-36991118D01*
X42471118Y-37120282D01*
X42319240Y-37221764D01*
X42150483Y-37291665D01*
X41971332Y-37327300D01*
X41788668Y-37327300D01*
X41609517Y-37291665D01*
X41440760Y-37221764D01*
X41288882Y-37120282D01*
X41159718Y-36991118D01*
X41058236Y-36839240D01*
X40988335Y-36670483D01*
X40952700Y-36491332D01*
X40952700Y-36308668D01*
X40988335Y-36129517D01*
X41058236Y-35960760D01*
X41159718Y-35808882D01*
X41288882Y-35679718D01*
X41440760Y-35578236D01*
X41609517Y-35508335D01*
X41788668Y-35472700D01*
X41971332Y-35472700D01*
X42150483Y-35508335D01*
G37*
G36*
X183381379Y-32908813D02*
G01*
X183620991Y-32999713D01*
X183838265Y-33135613D01*
X184024852Y-33311288D01*
X184102864Y-33420759D01*
X184173580Y-33519990D01*
X184278735Y-33753697D01*
X184278736Y-33753701D01*
X184336276Y-34003428D01*
X184342058Y-34195394D01*
X184338016Y-34254678D01*
X184293916Y-34901571D01*
X184262135Y-35090983D01*
X184171235Y-35330595D01*
X184060063Y-35508335D01*
X184035335Y-35547869D01*
X183859660Y-35734456D01*
X183720439Y-35833669D01*
X183650958Y-35883184D01*
X183417251Y-35988339D01*
X183417247Y-35988340D01*
X183167521Y-36045880D01*
X182911366Y-36053594D01*
X182911362Y-36053594D01*
X182658621Y-36011187D01*
X182419009Y-35920287D01*
X182201735Y-35784387D01*
X182148703Y-35734456D01*
X182015148Y-35608712D01*
X181867351Y-35401316D01*
X181866420Y-35400010D01*
X181761265Y-35166303D01*
X181723023Y-35000329D01*
X181703724Y-34916572D01*
X181697942Y-34724608D01*
X181746084Y-34018428D01*
X181757342Y-33951331D01*
X181777865Y-33829017D01*
X181868765Y-33589405D01*
X182004665Y-33372131D01*
X182061950Y-33311288D01*
X182180340Y-33185544D01*
X182336602Y-33074187D01*
X182389042Y-33036816D01*
X182622749Y-32931661D01*
X182622753Y-32931660D01*
X182872479Y-32874120D01*
X183128634Y-32866406D01*
X183128638Y-32866406D01*
X183381379Y-32908813D01*
G37*
G36*
X69406379Y-32908813D02*
G01*
X69645991Y-32999713D01*
X69863265Y-33135613D01*
X70049852Y-33311288D01*
X70127864Y-33420759D01*
X70198580Y-33519990D01*
X70303735Y-33753697D01*
X70303736Y-33753701D01*
X70361276Y-34003428D01*
X70367058Y-34195394D01*
X70363016Y-34254678D01*
X70318916Y-34901571D01*
X70287135Y-35090983D01*
X70196235Y-35330595D01*
X70085063Y-35508335D01*
X70060335Y-35547869D01*
X69884660Y-35734456D01*
X69745439Y-35833669D01*
X69675958Y-35883184D01*
X69442251Y-35988339D01*
X69442247Y-35988340D01*
X69192521Y-36045880D01*
X68936366Y-36053594D01*
X68936362Y-36053594D01*
X68683621Y-36011187D01*
X68444009Y-35920287D01*
X68226735Y-35784387D01*
X68173703Y-35734456D01*
X68040148Y-35608712D01*
X67892351Y-35401316D01*
X67891420Y-35400010D01*
X67786265Y-35166303D01*
X67748023Y-35000329D01*
X67728724Y-34916572D01*
X67722942Y-34724608D01*
X67771084Y-34018428D01*
X67782342Y-33951331D01*
X67802865Y-33829017D01*
X67893765Y-33589405D01*
X68029665Y-33372131D01*
X68086950Y-33311288D01*
X68205340Y-33185544D01*
X68361602Y-33074187D01*
X68414042Y-33036816D01*
X68647749Y-32931661D01*
X68647753Y-32931660D01*
X68897479Y-32874120D01*
X69153634Y-32866406D01*
X69153638Y-32866406D01*
X69406379Y-32908813D01*
G37*
G36*
X88381379Y-32908813D02*
G01*
X88620991Y-32999713D01*
X88838265Y-33135613D01*
X89024852Y-33311288D01*
X89102864Y-33420759D01*
X89173580Y-33519990D01*
X89278735Y-33753697D01*
X89278736Y-33753701D01*
X89336276Y-34003428D01*
X89342058Y-34195394D01*
X89338016Y-34254678D01*
X89293916Y-34901571D01*
X89262135Y-35090983D01*
X89171235Y-35330595D01*
X89060063Y-35508335D01*
X89035335Y-35547869D01*
X88859660Y-35734456D01*
X88720439Y-35833669D01*
X88650958Y-35883184D01*
X88417251Y-35988339D01*
X88417247Y-35988340D01*
X88167521Y-36045880D01*
X87911366Y-36053594D01*
X87911362Y-36053594D01*
X87658621Y-36011187D01*
X87419009Y-35920287D01*
X87201735Y-35784387D01*
X87148703Y-35734456D01*
X87015148Y-35608712D01*
X86867351Y-35401316D01*
X86866420Y-35400010D01*
X86761265Y-35166303D01*
X86723023Y-35000329D01*
X86703724Y-34916572D01*
X86697942Y-34724608D01*
X86746084Y-34018428D01*
X86757342Y-33951331D01*
X86777865Y-33829017D01*
X86868765Y-33589405D01*
X87004665Y-33372131D01*
X87061950Y-33311288D01*
X87180340Y-33185544D01*
X87336602Y-33074187D01*
X87389042Y-33036816D01*
X87622749Y-32931661D01*
X87622753Y-32931660D01*
X87872479Y-32874120D01*
X88128634Y-32866406D01*
X88128638Y-32866406D01*
X88381379Y-32908813D01*
G37*
G36*
X145381379Y-32908813D02*
G01*
X145620991Y-32999713D01*
X145838265Y-33135613D01*
X146024852Y-33311288D01*
X146102864Y-33420759D01*
X146173580Y-33519990D01*
X146278735Y-33753697D01*
X146278736Y-33753701D01*
X146336276Y-34003428D01*
X146342058Y-34195394D01*
X146338016Y-34254678D01*
X146293916Y-34901571D01*
X146262135Y-35090983D01*
X146171235Y-35330595D01*
X146060063Y-35508335D01*
X146035335Y-35547869D01*
X145859660Y-35734456D01*
X145720439Y-35833669D01*
X145650958Y-35883184D01*
X145417251Y-35988339D01*
X145417247Y-35988340D01*
X145167521Y-36045880D01*
X144911366Y-36053594D01*
X144911362Y-36053594D01*
X144658621Y-36011187D01*
X144419009Y-35920287D01*
X144201735Y-35784387D01*
X144148703Y-35734456D01*
X144015148Y-35608712D01*
X143867351Y-35401316D01*
X143866420Y-35400010D01*
X143761265Y-35166303D01*
X143723023Y-35000329D01*
X143703724Y-34916572D01*
X143697942Y-34724608D01*
X143746084Y-34018428D01*
X143757342Y-33951331D01*
X143777865Y-33829017D01*
X143868765Y-33589405D01*
X144004665Y-33372131D01*
X144061950Y-33311288D01*
X144180340Y-33185544D01*
X144336602Y-33074187D01*
X144389042Y-33036816D01*
X144622749Y-32931661D01*
X144622753Y-32931660D01*
X144872479Y-32874120D01*
X145128634Y-32866406D01*
X145128638Y-32866406D01*
X145381379Y-32908813D01*
G37*
G36*
X126356379Y-32883813D02*
G01*
X126595991Y-32974713D01*
X126813265Y-33110613D01*
X126999852Y-33286288D01*
X127061026Y-33372131D01*
X127148580Y-33494990D01*
X127253735Y-33728697D01*
X127253736Y-33728701D01*
X127311276Y-33978428D01*
X127317058Y-34170394D01*
X127315353Y-34195402D01*
X127268916Y-34876571D01*
X127237135Y-35065983D01*
X127146235Y-35305595D01*
X127019426Y-35508335D01*
X127010335Y-35522869D01*
X126834660Y-35709456D01*
X126695140Y-35808882D01*
X126625958Y-35858184D01*
X126392251Y-35963339D01*
X126392247Y-35963340D01*
X126142521Y-36020880D01*
X125886366Y-36028594D01*
X125886362Y-36028594D01*
X125633621Y-35986187D01*
X125394009Y-35895287D01*
X125176735Y-35759387D01*
X124990148Y-35583712D01*
X124860166Y-35401315D01*
X124841420Y-35375010D01*
X124736265Y-35141303D01*
X124695950Y-34966332D01*
X124678724Y-34891572D01*
X124672942Y-34699608D01*
X124721084Y-33993428D01*
X124734914Y-33911004D01*
X124752865Y-33804017D01*
X124843765Y-33564405D01*
X124979665Y-33347131D01*
X125036950Y-33286288D01*
X125155340Y-33160544D01*
X125326969Y-33038236D01*
X125364042Y-33011816D01*
X125597749Y-32906661D01*
X125597753Y-32906660D01*
X125847479Y-32849120D01*
X126103634Y-32841406D01*
X126103638Y-32841406D01*
X126356379Y-32883813D01*
G37*
G36*
X164356379Y-32883813D02*
G01*
X164595991Y-32974713D01*
X164813265Y-33110613D01*
X164999852Y-33286288D01*
X165061026Y-33372131D01*
X165148580Y-33494990D01*
X165253735Y-33728697D01*
X165253736Y-33728701D01*
X165311276Y-33978428D01*
X165317058Y-34170394D01*
X165315353Y-34195402D01*
X165268916Y-34876571D01*
X165237135Y-35065983D01*
X165146235Y-35305595D01*
X165019426Y-35508335D01*
X165010335Y-35522869D01*
X164834660Y-35709456D01*
X164695140Y-35808882D01*
X164625958Y-35858184D01*
X164392251Y-35963339D01*
X164392247Y-35963340D01*
X164142521Y-36020880D01*
X163886366Y-36028594D01*
X163886362Y-36028594D01*
X163633621Y-35986187D01*
X163394009Y-35895287D01*
X163176735Y-35759387D01*
X162990148Y-35583712D01*
X162860166Y-35401315D01*
X162841420Y-35375010D01*
X162736265Y-35141303D01*
X162695950Y-34966332D01*
X162678724Y-34891572D01*
X162672942Y-34699608D01*
X162721084Y-33993428D01*
X162734914Y-33911004D01*
X162752865Y-33804017D01*
X162843765Y-33564405D01*
X162979665Y-33347131D01*
X163036950Y-33286288D01*
X163155340Y-33160544D01*
X163326969Y-33038236D01*
X163364042Y-33011816D01*
X163597749Y-32906661D01*
X163597753Y-32906660D01*
X163847479Y-32849120D01*
X164103634Y-32841406D01*
X164103638Y-32841406D01*
X164356379Y-32883813D01*
G37*
G36*
X107406379Y-32883813D02*
G01*
X107645991Y-32974713D01*
X107863265Y-33110613D01*
X108049852Y-33286288D01*
X108111026Y-33372131D01*
X108198580Y-33494990D01*
X108303735Y-33728697D01*
X108303736Y-33728701D01*
X108361276Y-33978428D01*
X108367058Y-34170394D01*
X108365353Y-34195402D01*
X108318916Y-34876571D01*
X108287135Y-35065983D01*
X108196235Y-35305595D01*
X108069426Y-35508335D01*
X108060335Y-35522869D01*
X107884660Y-35709456D01*
X107745140Y-35808882D01*
X107675958Y-35858184D01*
X107442251Y-35963339D01*
X107442247Y-35963340D01*
X107192521Y-36020880D01*
X106936366Y-36028594D01*
X106936362Y-36028594D01*
X106683621Y-35986187D01*
X106444009Y-35895287D01*
X106226735Y-35759387D01*
X106040148Y-35583712D01*
X105910166Y-35401315D01*
X105891420Y-35375010D01*
X105786265Y-35141303D01*
X105745950Y-34966332D01*
X105728724Y-34891572D01*
X105722942Y-34699608D01*
X105771084Y-33993428D01*
X105784914Y-33911004D01*
X105802865Y-33804017D01*
X105893765Y-33564405D01*
X106029665Y-33347131D01*
X106086950Y-33286288D01*
X106205340Y-33160544D01*
X106376969Y-33038236D01*
X106414042Y-33011816D01*
X106647749Y-32906661D01*
X106647753Y-32906660D01*
X106897479Y-32849120D01*
X107153634Y-32841406D01*
X107153638Y-32841406D01*
X107406379Y-32883813D01*
G37*
G36*
X203281552Y-34966331D02*
G01*
X203363627Y-35000328D01*
X203363629Y-35000329D01*
X203375401Y-35008195D01*
X203437495Y-35049685D01*
X203500315Y-35112505D01*
X203549672Y-35186373D01*
X203583669Y-35268448D01*
X203601000Y-35355579D01*
X203601000Y-35444421D01*
X203583669Y-35531552D01*
X203549672Y-35613627D01*
X203500315Y-35687495D01*
X203437495Y-35750315D01*
X203400813Y-35774825D01*
X203363629Y-35799671D01*
X203363628Y-35799672D01*
X203363627Y-35799672D01*
X203281552Y-35833669D01*
X203194421Y-35851000D01*
X203105579Y-35851000D01*
X203018448Y-35833669D01*
X202936373Y-35799672D01*
X202936372Y-35799672D01*
X202936371Y-35799671D01*
X202899187Y-35774825D01*
X202862505Y-35750315D01*
X202799685Y-35687495D01*
X202750328Y-35613627D01*
X202716331Y-35531552D01*
X202699000Y-35444421D01*
X202699000Y-35355579D01*
X202716331Y-35268448D01*
X202750328Y-35186373D01*
X202799685Y-35112505D01*
X202862505Y-35049685D01*
X202924599Y-35008195D01*
X202936371Y-35000329D01*
X202936373Y-35000328D01*
X203018448Y-34966331D01*
X203105579Y-34949000D01*
X203194421Y-34949000D01*
X203281552Y-34966331D01*
G37*
G36*
X57390483Y-32968335D02*
G01*
X57559240Y-33038236D01*
X57711118Y-33139718D01*
X57840282Y-33268882D01*
X57941764Y-33420760D01*
X58011665Y-33589517D01*
X58047300Y-33768668D01*
X58047300Y-33951332D01*
X58011665Y-34130483D01*
X57941764Y-34299240D01*
X57840282Y-34451118D01*
X57711118Y-34580282D01*
X57559240Y-34681764D01*
X57390483Y-34751665D01*
X57211332Y-34787300D01*
X57028668Y-34787300D01*
X56849517Y-34751665D01*
X56680760Y-34681764D01*
X56528882Y-34580282D01*
X56399718Y-34451118D01*
X56298236Y-34299240D01*
X56228335Y-34130483D01*
X56192700Y-33951332D01*
X56192700Y-33768668D01*
X56228335Y-33589517D01*
X56298236Y-33420760D01*
X56399718Y-33268882D01*
X56528882Y-33139718D01*
X56680760Y-33038236D01*
X56849517Y-32968335D01*
X57028668Y-32932700D01*
X57211332Y-32932700D01*
X57390483Y-32968335D01*
G37*
G36*
X42150483Y-32968335D02*
G01*
X42319240Y-33038236D01*
X42471118Y-33139718D01*
X42600282Y-33268882D01*
X42701764Y-33420760D01*
X42771665Y-33589517D01*
X42807300Y-33768668D01*
X42807300Y-33951332D01*
X42771665Y-34130483D01*
X42701764Y-34299240D01*
X42600282Y-34451118D01*
X42471118Y-34580282D01*
X42319240Y-34681764D01*
X42150483Y-34751665D01*
X41971332Y-34787300D01*
X41788668Y-34787300D01*
X41609517Y-34751665D01*
X41440760Y-34681764D01*
X41288882Y-34580282D01*
X41159718Y-34451118D01*
X41058236Y-34299240D01*
X40988335Y-34130483D01*
X40952700Y-33951332D01*
X40952700Y-33768668D01*
X40988335Y-33589517D01*
X41058236Y-33420760D01*
X41159718Y-33268882D01*
X41288882Y-33139718D01*
X41440760Y-33038236D01*
X41609517Y-32968335D01*
X41788668Y-32932700D01*
X41971332Y-32932700D01*
X42150483Y-32968335D01*
G37*
G36*
X201016823Y-31961313D02*
G01*
X201177242Y-32009976D01*
X201233940Y-32040282D01*
X201325078Y-32088996D01*
X201454659Y-32195341D01*
X201561004Y-32324922D01*
X201561005Y-32324924D01*
X201640024Y-32472758D01*
X201688687Y-32633178D01*
X201701000Y-32758197D01*
X201701000Y-33241804D01*
X201688687Y-33366823D01*
X201654391Y-33479880D01*
X201642225Y-33519988D01*
X201640024Y-33527242D01*
X201606797Y-33589405D01*
X201561004Y-33675078D01*
X201496479Y-33753701D01*
X201454659Y-33804659D01*
X201325077Y-33911005D01*
X201177241Y-33990024D01*
X201177238Y-33990025D01*
X201147379Y-33999083D01*
X201016822Y-34038687D01*
X200850000Y-34055117D01*
X200683177Y-34038687D01*
X200552620Y-33999083D01*
X200522761Y-33990025D01*
X200522758Y-33990024D01*
X200374924Y-33911005D01*
X200374922Y-33911004D01*
X200245341Y-33804659D01*
X200203521Y-33753701D01*
X200138995Y-33675077D01*
X200059976Y-33527241D01*
X200053193Y-33504879D01*
X200027675Y-33420759D01*
X200011313Y-33366822D01*
X199999000Y-33241803D01*
X199999000Y-32758196D01*
X200011313Y-32633177D01*
X200059976Y-32472758D01*
X200138995Y-32324924D01*
X200138996Y-32324922D01*
X200245342Y-32195341D01*
X200374923Y-32088996D01*
X200466061Y-32040282D01*
X200522759Y-32009976D01*
X200683178Y-31961313D01*
X200850000Y-31944883D01*
X201016823Y-31961313D01*
G37*
G36*
X42150483Y-30428335D02*
G01*
X42319240Y-30498236D01*
X42471118Y-30599718D01*
X42600282Y-30728882D01*
X42701764Y-30880760D01*
X42771665Y-31049517D01*
X42807300Y-31228668D01*
X42807300Y-31411332D01*
X42771665Y-31590483D01*
X42701764Y-31759240D01*
X42600282Y-31911118D01*
X42471118Y-32040282D01*
X42319240Y-32141764D01*
X42150483Y-32211665D01*
X41971332Y-32247300D01*
X41788668Y-32247300D01*
X41609517Y-32211665D01*
X41440760Y-32141764D01*
X41288882Y-32040282D01*
X41159718Y-31911118D01*
X41058236Y-31759240D01*
X40988335Y-31590483D01*
X40952700Y-31411332D01*
X40952700Y-31228668D01*
X40988335Y-31049517D01*
X41058236Y-30880760D01*
X41159718Y-30728882D01*
X41288882Y-30599718D01*
X41440760Y-30498236D01*
X41609517Y-30428335D01*
X41788668Y-30392700D01*
X41971332Y-30392700D01*
X42150483Y-30428335D01*
G37*
G36*
X57390483Y-30428335D02*
G01*
X57559240Y-30498236D01*
X57711118Y-30599718D01*
X57840282Y-30728882D01*
X57941764Y-30880760D01*
X58011665Y-31049517D01*
X58047300Y-31228668D01*
X58047300Y-31411332D01*
X58011665Y-31590483D01*
X57941764Y-31759240D01*
X57840282Y-31911118D01*
X57711118Y-32040282D01*
X57559240Y-32141764D01*
X57390483Y-32211665D01*
X57211332Y-32247300D01*
X57028668Y-32247300D01*
X56849517Y-32211665D01*
X56680760Y-32141764D01*
X56528882Y-32040282D01*
X56399718Y-31911118D01*
X56298236Y-31759240D01*
X56228335Y-31590483D01*
X56192700Y-31411332D01*
X56192700Y-31228668D01*
X56228335Y-31049517D01*
X56298236Y-30880760D01*
X56399718Y-30728882D01*
X56528882Y-30599718D01*
X56680760Y-30498236D01*
X56849517Y-30428335D01*
X57028668Y-30392700D01*
X57211332Y-30392700D01*
X57390483Y-30428335D01*
G37*
G36*
X201016823Y-28961313D02*
G01*
X201147380Y-29000917D01*
X201166453Y-29006703D01*
X201177242Y-29009976D01*
X201244361Y-29045852D01*
X201325078Y-29088996D01*
X201454659Y-29195341D01*
X201561004Y-29324922D01*
X201561005Y-29324924D01*
X201640024Y-29472758D01*
X201688687Y-29633178D01*
X201701000Y-29758197D01*
X201701000Y-30241804D01*
X201688687Y-30366823D01*
X201640024Y-30527242D01*
X201601284Y-30599719D01*
X201561004Y-30675078D01*
X201457662Y-30801000D01*
X201454659Y-30804659D01*
X201325077Y-30911005D01*
X201177241Y-30990024D01*
X201016822Y-31038687D01*
X200850000Y-31055117D01*
X200683177Y-31038687D01*
X200522758Y-30990024D01*
X200374924Y-30911005D01*
X200374922Y-30911004D01*
X200245341Y-30804659D01*
X200242338Y-30801000D01*
X200138995Y-30675077D01*
X200059976Y-30527241D01*
X200011313Y-30366822D01*
X199999000Y-30241803D01*
X199999000Y-29758196D01*
X200011313Y-29633177D01*
X200059976Y-29472758D01*
X200138995Y-29324924D01*
X200138996Y-29324922D01*
X200245342Y-29195341D01*
X200374923Y-29088996D01*
X200455640Y-29045852D01*
X200522759Y-29009976D01*
X200533549Y-29006703D01*
X200552621Y-29000917D01*
X200683178Y-28961313D01*
X200850000Y-28944883D01*
X201016823Y-28961313D01*
G37*
G36*
X215348254Y-26787818D02*
G01*
X215697371Y-26932427D01*
X215721513Y-26942427D01*
X216057436Y-27166884D01*
X216343116Y-27452564D01*
X216560893Y-27778489D01*
X216567574Y-27788489D01*
X216722182Y-28161746D01*
X216801000Y-28557993D01*
X216801000Y-28962007D01*
X216722182Y-29358254D01*
X216573922Y-29716185D01*
X216567573Y-29731513D01*
X216343116Y-30067436D01*
X216057436Y-30353116D01*
X215721513Y-30577573D01*
X215721512Y-30577574D01*
X215721511Y-30577574D01*
X215348254Y-30732182D01*
X214952007Y-30811000D01*
X214547993Y-30811000D01*
X214151746Y-30732182D01*
X213778489Y-30577574D01*
X213778488Y-30577574D01*
X213778487Y-30577573D01*
X213442564Y-30353116D01*
X213156884Y-30067436D01*
X212932427Y-29731513D01*
X212926078Y-29716185D01*
X212777818Y-29358254D01*
X212699000Y-28962007D01*
X212699000Y-28557993D01*
X212777818Y-28161746D01*
X212932426Y-27788489D01*
X212939108Y-27778489D01*
X213156884Y-27452564D01*
X213442564Y-27166884D01*
X213778487Y-26942427D01*
X213802629Y-26932427D01*
X214151746Y-26787818D01*
X214547993Y-26709000D01*
X214952007Y-26709000D01*
X215348254Y-26787818D01*
G37*
G36*
X32878254Y-26777818D02*
G01*
X33251511Y-26932426D01*
X33251513Y-26932427D01*
X33266479Y-26942427D01*
X33587436Y-27156884D01*
X33873116Y-27442564D01*
X34097574Y-27778489D01*
X34252182Y-28151746D01*
X34331000Y-28547993D01*
X34331000Y-28952007D01*
X34252182Y-29348254D01*
X34099780Y-29716185D01*
X34097573Y-29721513D01*
X33873116Y-30057436D01*
X33587436Y-30343116D01*
X33251513Y-30567573D01*
X33251512Y-30567574D01*
X33251511Y-30567574D01*
X32878254Y-30722182D01*
X32482007Y-30801000D01*
X32077993Y-30801000D01*
X31681746Y-30722182D01*
X31308489Y-30567574D01*
X31308488Y-30567574D01*
X31308487Y-30567573D01*
X30972564Y-30343116D01*
X30686884Y-30057436D01*
X30462427Y-29721513D01*
X30460220Y-29716185D01*
X30307818Y-29348254D01*
X30229000Y-28952007D01*
X30229000Y-28547993D01*
X30307818Y-28151746D01*
X30462426Y-27778489D01*
X30686884Y-27442564D01*
X30972564Y-27156884D01*
X31293521Y-26942427D01*
X31308487Y-26932427D01*
X31308489Y-26932426D01*
X31681746Y-26777818D01*
X32077993Y-26699000D01*
X32482007Y-26699000D01*
X32878254Y-26777818D01*
G37*
G36*
X89648228Y-29006703D02*
G01*
X89803100Y-29070853D01*
X89942481Y-29163985D01*
X90061015Y-29282519D01*
X90154147Y-29421900D01*
X90218297Y-29576772D01*
X90251000Y-29741184D01*
X90251000Y-29908816D01*
X90218297Y-30073228D01*
X90154147Y-30228100D01*
X90061015Y-30367481D01*
X89942481Y-30486015D01*
X89803100Y-30579147D01*
X89648228Y-30643297D01*
X89483816Y-30676000D01*
X89316184Y-30676000D01*
X89151772Y-30643297D01*
X88996900Y-30579147D01*
X88857519Y-30486015D01*
X88738985Y-30367481D01*
X88645853Y-30228100D01*
X88581703Y-30073228D01*
X88549000Y-29908816D01*
X88549000Y-29741184D01*
X88581703Y-29576772D01*
X88645853Y-29421900D01*
X88738985Y-29282519D01*
X88857519Y-29163985D01*
X88996900Y-29070853D01*
X89151772Y-29006703D01*
X89316184Y-28974000D01*
X89483816Y-28974000D01*
X89648228Y-29006703D01*
G37*
G36*
X82451000Y-30676000D02*
G01*
X80749000Y-30676000D01*
X80749000Y-28974000D01*
X82451000Y-28974000D01*
X82451000Y-30676000D01*
G37*
G36*
X70723228Y-29006703D02*
G01*
X70878100Y-29070853D01*
X71017481Y-29163985D01*
X71136015Y-29282519D01*
X71229147Y-29421900D01*
X71293297Y-29576772D01*
X71326000Y-29741184D01*
X71326000Y-29908816D01*
X71293297Y-30073228D01*
X71229147Y-30228100D01*
X71136015Y-30367481D01*
X71017481Y-30486015D01*
X70878100Y-30579147D01*
X70723228Y-30643297D01*
X70558816Y-30676000D01*
X70391184Y-30676000D01*
X70226772Y-30643297D01*
X70071900Y-30579147D01*
X69932519Y-30486015D01*
X69813985Y-30367481D01*
X69720853Y-30228100D01*
X69656703Y-30073228D01*
X69624000Y-29908816D01*
X69624000Y-29741184D01*
X69656703Y-29576772D01*
X69720853Y-29421900D01*
X69813985Y-29282519D01*
X69932519Y-29163985D01*
X70071900Y-29070853D01*
X70226772Y-29006703D01*
X70391184Y-28974000D01*
X70558816Y-28974000D01*
X70723228Y-29006703D01*
G37*
G36*
X63526000Y-30676000D02*
G01*
X61824000Y-30676000D01*
X61824000Y-28974000D01*
X63526000Y-28974000D01*
X63526000Y-30676000D01*
G37*
G36*
X177526000Y-30676000D02*
G01*
X175824000Y-30676000D01*
X175824000Y-28974000D01*
X177526000Y-28974000D01*
X177526000Y-30676000D01*
G37*
G36*
X184723228Y-29006703D02*
G01*
X184878100Y-29070853D01*
X185017481Y-29163985D01*
X185136015Y-29282519D01*
X185229147Y-29421900D01*
X185293297Y-29576772D01*
X185326000Y-29741184D01*
X185326000Y-29908816D01*
X185293297Y-30073228D01*
X185229147Y-30228100D01*
X185136015Y-30367481D01*
X185017481Y-30486015D01*
X184878100Y-30579147D01*
X184723228Y-30643297D01*
X184558816Y-30676000D01*
X184391184Y-30676000D01*
X184226772Y-30643297D01*
X184071900Y-30579147D01*
X183932519Y-30486015D01*
X183813985Y-30367481D01*
X183720853Y-30228100D01*
X183656703Y-30073228D01*
X183624000Y-29908816D01*
X183624000Y-29741184D01*
X183656703Y-29576772D01*
X183720853Y-29421900D01*
X183813985Y-29282519D01*
X183932519Y-29163985D01*
X184071900Y-29070853D01*
X184226772Y-29006703D01*
X184391184Y-28974000D01*
X184558816Y-28974000D01*
X184723228Y-29006703D01*
G37*
G36*
X101626000Y-30651000D02*
G01*
X99924000Y-30651000D01*
X99924000Y-28949000D01*
X101626000Y-28949000D01*
X101626000Y-30651000D01*
G37*
G36*
X108823228Y-28981703D02*
G01*
X108978100Y-29045853D01*
X109117481Y-29138985D01*
X109236015Y-29257519D01*
X109329147Y-29396900D01*
X109393297Y-29551772D01*
X109426000Y-29716184D01*
X109426000Y-29883816D01*
X109393297Y-30048228D01*
X109329147Y-30203100D01*
X109236015Y-30342481D01*
X109117481Y-30461015D01*
X108978100Y-30554147D01*
X108823228Y-30618297D01*
X108658816Y-30651000D01*
X108491184Y-30651000D01*
X108326772Y-30618297D01*
X108171900Y-30554147D01*
X108032519Y-30461015D01*
X107913985Y-30342481D01*
X107820853Y-30203100D01*
X107756703Y-30048228D01*
X107724000Y-29883816D01*
X107724000Y-29716184D01*
X107756703Y-29551772D01*
X107820853Y-29396900D01*
X107913985Y-29257519D01*
X108032519Y-29138985D01*
X108171900Y-29045853D01*
X108326772Y-28981703D01*
X108491184Y-28949000D01*
X108658816Y-28949000D01*
X108823228Y-28981703D01*
G37*
G36*
X120451000Y-30651000D02*
G01*
X118749000Y-30651000D01*
X118749000Y-28949000D01*
X120451000Y-28949000D01*
X120451000Y-30651000D01*
G37*
G36*
X127648228Y-28981703D02*
G01*
X127803100Y-29045853D01*
X127942481Y-29138985D01*
X128061015Y-29257519D01*
X128154147Y-29396900D01*
X128218297Y-29551772D01*
X128251000Y-29716184D01*
X128251000Y-29883816D01*
X128218297Y-30048228D01*
X128154147Y-30203100D01*
X128061015Y-30342481D01*
X127942481Y-30461015D01*
X127803100Y-30554147D01*
X127648228Y-30618297D01*
X127483816Y-30651000D01*
X127316184Y-30651000D01*
X127151772Y-30618297D01*
X126996900Y-30554147D01*
X126857519Y-30461015D01*
X126738985Y-30342481D01*
X126645853Y-30203100D01*
X126581703Y-30048228D01*
X126549000Y-29883816D01*
X126549000Y-29716184D01*
X126581703Y-29551772D01*
X126645853Y-29396900D01*
X126738985Y-29257519D01*
X126857519Y-29138985D01*
X126996900Y-29045853D01*
X127151772Y-28981703D01*
X127316184Y-28949000D01*
X127483816Y-28949000D01*
X127648228Y-28981703D01*
G37*
G36*
X139451000Y-30651000D02*
G01*
X137749000Y-30651000D01*
X137749000Y-28949000D01*
X139451000Y-28949000D01*
X139451000Y-30651000D01*
G37*
G36*
X146648228Y-28981703D02*
G01*
X146803100Y-29045853D01*
X146942481Y-29138985D01*
X147061015Y-29257519D01*
X147154147Y-29396900D01*
X147218297Y-29551772D01*
X147251000Y-29716184D01*
X147251000Y-29883816D01*
X147218297Y-30048228D01*
X147154147Y-30203100D01*
X147061015Y-30342481D01*
X146942481Y-30461015D01*
X146803100Y-30554147D01*
X146648228Y-30618297D01*
X146483816Y-30651000D01*
X146316184Y-30651000D01*
X146151772Y-30618297D01*
X145996900Y-30554147D01*
X145857519Y-30461015D01*
X145738985Y-30342481D01*
X145645853Y-30203100D01*
X145581703Y-30048228D01*
X145549000Y-29883816D01*
X145549000Y-29716184D01*
X145581703Y-29551772D01*
X145645853Y-29396900D01*
X145738985Y-29257519D01*
X145857519Y-29138985D01*
X145996900Y-29045853D01*
X146151772Y-28981703D01*
X146316184Y-28949000D01*
X146483816Y-28949000D01*
X146648228Y-28981703D01*
G37*
G36*
X165648228Y-28981703D02*
G01*
X165803100Y-29045853D01*
X165942481Y-29138985D01*
X166061015Y-29257519D01*
X166154147Y-29396900D01*
X166218297Y-29551772D01*
X166251000Y-29716184D01*
X166251000Y-29883816D01*
X166218297Y-30048228D01*
X166154147Y-30203100D01*
X166061015Y-30342481D01*
X165942481Y-30461015D01*
X165803100Y-30554147D01*
X165648228Y-30618297D01*
X165483816Y-30651000D01*
X165316184Y-30651000D01*
X165151772Y-30618297D01*
X164996900Y-30554147D01*
X164857519Y-30461015D01*
X164738985Y-30342481D01*
X164645853Y-30203100D01*
X164581703Y-30048228D01*
X164549000Y-29883816D01*
X164549000Y-29716184D01*
X164581703Y-29551772D01*
X164645853Y-29396900D01*
X164738985Y-29257519D01*
X164857519Y-29138985D01*
X164996900Y-29045853D01*
X165151772Y-28981703D01*
X165316184Y-28949000D01*
X165483816Y-28949000D01*
X165648228Y-28981703D01*
G37*
G36*
X158451000Y-30651000D02*
G01*
X156749000Y-30651000D01*
X156749000Y-28949000D01*
X158451000Y-28949000D01*
X158451000Y-30651000D01*
G37*
G36*
X57390483Y-27888335D02*
G01*
X57559240Y-27958236D01*
X57711118Y-28059718D01*
X57840282Y-28188882D01*
X57941764Y-28340760D01*
X58011665Y-28509517D01*
X58047300Y-28688668D01*
X58047300Y-28871332D01*
X58011665Y-29050483D01*
X57941764Y-29219240D01*
X57840282Y-29371118D01*
X57711118Y-29500282D01*
X57559240Y-29601764D01*
X57390483Y-29671665D01*
X57211332Y-29707300D01*
X57028668Y-29707300D01*
X56849517Y-29671665D01*
X56680760Y-29601764D01*
X56528882Y-29500282D01*
X56399718Y-29371118D01*
X56298236Y-29219240D01*
X56228335Y-29050483D01*
X56192700Y-28871332D01*
X56192700Y-28688668D01*
X56228335Y-28509517D01*
X56298236Y-28340760D01*
X56399718Y-28188882D01*
X56528882Y-28059718D01*
X56680760Y-27958236D01*
X56849517Y-27888335D01*
X57028668Y-27852700D01*
X57211332Y-27852700D01*
X57390483Y-27888335D01*
G37*
G36*
X42807300Y-29707300D02*
G01*
X40952700Y-29707300D01*
X40952700Y-27852700D01*
X42807300Y-27852700D01*
X42807300Y-29707300D01*
G37*
G36*
X203281552Y-27966331D02*
G01*
X203363627Y-28000328D01*
X203363629Y-28000329D01*
X203400813Y-28025175D01*
X203437495Y-28049685D01*
X203500315Y-28112505D01*
X203549672Y-28186373D01*
X203583669Y-28268448D01*
X203601000Y-28355579D01*
X203601000Y-28444421D01*
X203583669Y-28531552D01*
X203549672Y-28613627D01*
X203549671Y-28613629D01*
X203500314Y-28687496D01*
X203437496Y-28750314D01*
X203363629Y-28799671D01*
X203363628Y-28799672D01*
X203363627Y-28799672D01*
X203281552Y-28833669D01*
X203194421Y-28851000D01*
X203105579Y-28851000D01*
X203018448Y-28833669D01*
X202936373Y-28799672D01*
X202936372Y-28799672D01*
X202936371Y-28799671D01*
X202862504Y-28750314D01*
X202799686Y-28687496D01*
X202750329Y-28613629D01*
X202750328Y-28613627D01*
X202716331Y-28531552D01*
X202699000Y-28444421D01*
X202699000Y-28355579D01*
X202716331Y-28268448D01*
X202750328Y-28186373D01*
X202799685Y-28112505D01*
X202862505Y-28049685D01*
X202899187Y-28025175D01*
X202936371Y-28000329D01*
X202936373Y-28000328D01*
X203018448Y-27966331D01*
X203105579Y-27949000D01*
X203194421Y-27949000D01*
X203281552Y-27966331D01*
G37*
M02*
