G04 #@! TF.GenerationSoftware,KiCad,Pcbnew,(5.1.5)-3*
G04 #@! TF.CreationDate,2020-05-03T23:18:02-07:00*
G04 #@! TF.ProjectId,left,6c656674-2e6b-4696-9361-645f70636258,rev?*
G04 #@! TF.SameCoordinates,Original*
G04 #@! TF.FileFunction,Paste,Top*
G04 #@! TF.FilePolarity,Positive*
%FSLAX46Y46*%
G04 Gerber Fmt 4.6, Leading zero omitted, Abs format (unit mm)*
G04 Created by KiCad (PCBNEW (5.1.5)-3) date 2020-05-03 23:18:02*
%MOMM*%
%LPD*%
G04 APERTURE LIST*
%ADD10R,1.200000X1.200000*%
%ADD11C,0.100000*%
G04 APERTURE END LIST*
D10*
X68150000Y-29825000D03*
X65000000Y-29825000D03*
X83925000Y-29825000D03*
X87075000Y-29825000D03*
X106250000Y-29800000D03*
X103100000Y-29800000D03*
X72775000Y-48800000D03*
X69625000Y-48800000D03*
X72025000Y-67800000D03*
X75175000Y-67800000D03*
X76775000Y-86825000D03*
X79925000Y-86825000D03*
X80100000Y-105850000D03*
X76950000Y-105850000D03*
X93300000Y-48850000D03*
X96450000Y-48850000D03*
X101400000Y-67850000D03*
X98250000Y-67850000D03*
X110900000Y-86825000D03*
X107750000Y-86825000D03*
X100550000Y-105775000D03*
X103700000Y-105775000D03*
X112550000Y-48825000D03*
X115700000Y-48825000D03*
X120325000Y-67800000D03*
X117175000Y-67800000D03*
X126775000Y-86825000D03*
X129925000Y-86825000D03*
X127525000Y-105800000D03*
X124375000Y-105800000D03*
X125075000Y-29800000D03*
X121925000Y-29800000D03*
X131300000Y-48800000D03*
X134450000Y-48800000D03*
X136150000Y-67825000D03*
X139300000Y-67825000D03*
X148875000Y-86850000D03*
X145725000Y-86850000D03*
X157525000Y-105800000D03*
X160675000Y-105800000D03*
X140925000Y-29800000D03*
X144075000Y-29800000D03*
X153800000Y-48825000D03*
X150650000Y-48825000D03*
X158350000Y-67775000D03*
X155200000Y-67775000D03*
X164700000Y-86850000D03*
X167850000Y-86850000D03*
D11*
G36*
X186810988Y-112197285D02*
G01*
X187221413Y-111069654D01*
X188349044Y-111480079D01*
X187938619Y-112607710D01*
X186810988Y-112197285D01*
G37*
G36*
X183850956Y-111119921D02*
G01*
X184261381Y-109992290D01*
X185389012Y-110402715D01*
X184978587Y-111530346D01*
X183850956Y-111119921D01*
G37*
D10*
X159925000Y-29800000D03*
X163075000Y-29800000D03*
X172700000Y-48825000D03*
X169550000Y-48825000D03*
X174125000Y-67825000D03*
X177275000Y-67825000D03*
X186800000Y-86850000D03*
X183650000Y-86850000D03*
D11*
G36*
X199300956Y-124194921D02*
G01*
X199711381Y-123067290D01*
X200839012Y-123477715D01*
X200428587Y-124605346D01*
X199300956Y-124194921D01*
G37*
G36*
X202260988Y-125272285D02*
G01*
X202671413Y-124144654D01*
X203799044Y-124555079D01*
X203388619Y-125682710D01*
X202260988Y-125272285D01*
G37*
D10*
X182150000Y-29825000D03*
X179000000Y-29825000D03*
X191675000Y-48875000D03*
X188525000Y-48875000D03*
X196350000Y-67825000D03*
X193200000Y-67825000D03*
X202725000Y-86800000D03*
X205875000Y-86800000D03*
M02*
